<?xml version="1.0" encoding="utf-8"?>
<!-- Generator: Adobe Illustrator 25.4.1, SVG Export Plug-In . SVG Version: 6.00 Build 0)  -->
<svg version="1.1" id="Layer_1" xmlns="http://www.w3.org/2000/svg" xmlns:xlink="http://www.w3.org/1999/xlink" x="0px" y="0px"
	 viewBox="0 0 1975.6 2714" style="enable-background:new 0 0 1975.6 2714;" xml:space="preserve">
<style type="text/css">
	.st0{fill:#FFFFFF;}
</style>
<g>
	<g>
		<path class="st0" d="M1863.5,218.4c11.6-17.8,18.3-39,18.3-61.7c0-62.7-50.8-113.4-113.4-113.4c-33.5,0-63.7,14.6-84.4,37.7
			c-32.3-44.1-84.4-72.7-143.2-72.7c-66.6,0-124.6,36.7-154.9,91c-16.3-9-35.1-14.1-55-14.1c-36.5,0-69,17.1-89.9,43.7
			c-28.9-58.6-89.3-98.9-159.1-98.9c-72.2,0-134.2,43.1-161.9,104.9c-18.2-12.2-40-19.2-63.5-19.2c-18.6,0-36.2,4.5-51.7,12.4
			C774.5,72.8,716,35.3,648.7,35.3c-66.1,0-123.7,36.2-154.3,89.8c-17.8-50.6-66-86.9-122.6-86.9c-71.8,0-130,58.2-130,130
			c0,11.7,1.6,23.1,4.5,33.9c-13.7-3.3-28.1-5.1-42.8-5.1c-100.4,0-181.8,81.4-181.8,181.8s81.4,181.8,181.8,181.8
			c77.6,0,143.8-48.6,169.9-117c147.9,42.3,378.8,69.5,638.4,69.5c246.4,0,467-24.5,615.3-63.2c27.1,63.2,89.9,107.5,163.1,107.5
			c98,0,177.4-79.4,177.4-177.4C1967.5,308.1,1924.8,246.3,1863.5,218.4z"/>
		<path d="M203.5,566.5c-103.5,0-187.8-84.2-187.8-187.8c0-103.5,84.2-187.8,187.8-187.8c11.7,0,23.4,1.1,34.8,3.2
			c-1.7-8.6-2.5-17.3-2.5-26c0-75,61-136,136-136c53.6,0,101.9,31.5,123.8,79.6c33.8-51.2,91.4-82.5,153.1-82.5
			C714,29.3,774.2,64,807,120.1c15.5-7,32-10.5,49.3-10.5c21.6,0,42.5,5.7,60.9,16.5c30.8-62.3,94.6-102.2,164.5-102.2
			c34.9,0,68.8,9.8,98.1,28.4c26,16.5,47.3,39.1,62.2,65.9c22.8-24.9,54.6-39.1,88.7-39.1c18.3,0,36.4,4.2,52.7,12.1
			c33.1-55.1,92.8-89.1,157.3-89.1c29.3,0,58.5,7.1,84.3,20.5c22.9,11.9,43.3,28.7,59.4,49c22.3-22,52.5-34.5,83.9-34.5
			c65.9,0,119.4,53.6,119.4,119.5c0,20.9-5.4,41.2-15.7,59.2c61.8,30.9,101.4,94.6,101.4,164.1c0,101.1-82.3,183.4-183.4,183.4
			c-71.7,0-136.5-41.6-166.5-106.5c-154.3,39.5-376.9,62.1-611.9,62.1c-249,0-479.8-24.8-634.8-68.2c-13.7,33-36.3,61.2-65.8,81.8
			C279.5,554.7,242.3,566.5,203.5,566.5z M203.5,202.9c-96.9,0-175.8,78.9-175.8,175.8s78.9,175.8,175.8,175.8
			c72.4,0,138.5-45.5,164.3-113.2l2-5.1l5.3,1.5c153.9,44,386,69.2,636.7,69.2c236.5,0,460.3-23,613.8-63l5-1.3l2,4.7
			c27.1,63.1,88.9,103.9,157.6,103.9c94.5,0,171.4-76.9,171.4-171.4c0-67-39.4-128.3-100.5-156.1l-6.3-2.9l3.8-5.8
			c11.3-17.4,17.3-37.6,17.3-58.5c0-59.2-48.2-107.5-107.4-107.5c-30.5,0-59.6,13-80,35.7l-4.9,5.5l-4.4-6
			c-32.2-44-83.9-70.2-138.3-70.2c-62.1,0-119.4,33.7-149.7,87.9l-2.9,5.2l-5.2-2.9c-15.9-8.7-33.9-13.3-52.1-13.3
			c-33.4,0-64.5,15.1-85.2,41.4l-5.9,7.5l-4.2-8.5c-29.1-59-88-95.6-153.8-95.6c-67.5,0-128.9,39.8-156.5,101.4l-2.9,6.5l-5.9-4
			c-17.8-11.9-38.6-18.2-60.1-18.2c-17.2,0-33.7,3.9-49,11.7l-5.2,2.6l-2.8-5.1c-30.1-55.2-87.8-89.6-150.6-89.6
			c-61.5,0-118.6,33.2-149,86.7l-6.5,11.4l-4.4-12.4c-17.4-49.6-64.4-82.9-117-82.9c-68.4,0-124,55.6-124,124
			c0,11,1.4,21.8,4.3,32.3l2.6,9.8l-9.8-2.4C231.4,204.6,217.5,202.9,203.5,202.9z"/>
	</g>
	<rect x="16" y="396.3" class="st0" width="1959.6" height="2369.8"/>
</g>
</svg>
