<?xml version="1.0" encoding="utf-8"?>
<!-- Generator: Adobe Illustrator 25.4.1, SVG Export Plug-In . SVG Version: 6.00 Build 0)  -->
<svg version="1.1" id="Layer_1" xmlns="http://www.w3.org/2000/svg" xmlns:xlink="http://www.w3.org/1999/xlink" x="0px" y="0px"
	 viewBox="0 0 1975.6 3096.1" style="enable-background:new 0 0 1975.6 3096.1;" xml:space="preserve">
<style type="text/css">
	.st0{fill:#FFFFFF;stroke:#000000;stroke-width:4;stroke-miterlimit:10;}
	.st1{fill:#FFFFFF;}
</style>
<g>
	<path vector-effect="non-scaling-stroke" class="st0" d="M1863.5,218.4c11.6-17.8,18.3-39,18.3-61.7c0-62.7-50.8-113.4-113.4-113.4
		c-33.5,0-63.7,14.6-84.4,37.7c-32.3-44.1-84.4-72.7-143.2-72.7c-66.6,0-124.6,36.7-154.9,91c-16.3-9-35.1-14.1-55-14.1
		c-36.5,0-69,17.1-89.9,43.7c-28.9-58.6-89.3-98.9-159.1-98.9c-72.2,0-134.2,43.1-161.9,104.9c-18.2-12.2-40-19.2-63.5-19.2
		c-18.6,0-36.2,4.5-51.7,12.4C774.5,72.8,716,35.3,648.7,35.3c-66.1,0-123.7,36.2-154.3,89.8c-17.8-50.6-66-86.9-122.6-86.9
		c-71.8,0-130,58.2-130,130c0,11.7,1.6,23.1,4.5,33.9c-13.7-3.3-28.1-5.1-42.8-5.1c-100.4,0-181.8,81.4-181.8,181.8
		s81.4,181.8,181.8,181.8c77.6,0,143.8-48.6,169.9-117c147.9,42.3,378.8,69.5,638.4,69.5c246.4,0,467-24.5,615.3-63.2
		c27.1,63.2,89.9,107.5,163.1,107.5c98,0,177.4-79.4,177.4-177.4C1967.5,308.1,1924.8,246.3,1863.5,218.4z"/>
	<rect x="16" y="396.3" class="st1" width="1959.6" height="2699.8"/>
</g>
</svg>
