<?xml version="1.0" encoding="utf-8"?>
<!-- Generator: Adobe Illustrator 25.2.3, SVG Export Plug-In . SVG Version: 6.00 Build 0)  -->
<svg version="1.1" id="Layer_1" xmlns="http://www.w3.org/2000/svg" xmlns:xlink="http://www.w3.org/1999/xlink" x="0px" y="0px"
	 viewBox="0 0 2293.79 161.47" style="enable-background:new 0 0 2293.79 161.47;" xml:space="preserve">
<style type="text/css">
	.st0{fill:#87E42A;stroke:#000000;stroke-width:5.5;stroke-linejoin:round;}
</style>
<path d="M1141.12,84.87l-1.37,2.37h2.74L1141.12,84.87z M1141.35,90.09V87h-0.47v3.08C1140.88,90.09,1141.35,90.09,1141.35,90.09z"
	/>
<path d="M1137.56,90.09h3.56v-0.47h-3.56C1137.56,89.61,1137.56,90.09,1137.56,90.09z"/>
<path class="st0" d="M-16.63,5.72c-24.5,1.97-31.44,39.31-31.84,57.73l7.35,111.17h2365.65V34.59l-8.57-4.91
	c-2.66-3.69-11.27-11.06-24.5-11.06s-20.21,14.33-22.04,21.5c-0.41-7.17-3.8-21.5-14.09-21.5s-22.66,14.33-27.56,21.5
	c-1.83-7.17-8.82-21.5-22.04-21.5c-13.23,0-21.03,14.33-23.27,21.5c-1.84-5.32-7.84-15.97-17.15-15.97s-17.76,10.65-20.82,15.97
	c-1.84-5.12-9.31-15.48-24.5-15.97c-15.18-0.49-39.39,6.76-49.6,10.44c-2.45-6.76-10.17-20.27-21.43-20.27
	c-11.27,0-22.66,13.51-26.95,20.27c0.21-4.3-3.92-13.51-22.05-15.97c-18.12-2.46-52.46,9.62-67.36,15.97
	c-8.37-5.53-29.39-17.32-46.54-20.27c-17.15-2.95-47.15,12.28-60.01,20.27c-1.43-4.3-8.45-13.64-25.11-16.58
	c-16.66-2.95-41.23,9.83-51.44,16.58c-1.63-8.39-8.45-25.18-22.66-25.18c-14.21,0-26.74,12.28-31.23,18.43
	c-0.21-5.94-4.66-17.93-20.82-18.43c-16.17-0.49-28.78,16.58-33.07,25.18c-2.86-5.53-13.84-16.58-34.91-16.58
	c-21.06,0-40.21,13.92-47.15,20.88c-2.04-6.96-10.04-20.88-25.72-20.88c-15.68,0-35.11,13.92-42.87,20.88
	c-2.45-5.32-15.19-17.69-46.54-24.57c-31.35-6.88-65.32,13.51-78.39,24.57c-1.63-8.19-13.47-24.57-47.76-24.57
	c-34.3,0-55.93,22.11-62.47,33.17c-7.75-8.19-28.9-24.57-51.44-24.57c-22.53,0-33.88,16.38-36.74,24.57
	c-3.27-8.19-13.23-26.29-26.94-33.17c-13.72-6.88-26.13,13.51-30.62,24.57c-0.41-10.65-5.88-31.94-24.5-31.94
	c-18.62,0-28.17,21.29-30.62,31.94c-0.82-10.65-6.37-31.94-22.05-31.94s-24.5,27.02-26.95,40.54
	c-7.35-11.06-25.23-33.17-37.97-33.17c-12.74,0-28.17,16.38-34.29,24.57c-3.27-8.19-18.62-24.57-53.89-24.57
	c-35.27,0-71.04,16.38-84.51,24.57c-2.45-8.19-12-24.57-30.62-24.57c-18.62,0-33.07,22.11-37.97,33.17
	c-2.86-8.19-13.23-24.57-31.84-24.57s-44.5,16.38-55.11,24.57c-3.67-15.97-42.87-33.17-66.14-33.17
	c-18.62,0-33.89,22.11-39.19,33.17c-0.82-8.19-6.37-24.57-22.05-24.57c-15.68,0-22.86,16.38-24.5,24.57
	c-2.04-8.19-9.06-24.57-20.82-24.57S450,39.3,448.78,47.49c-2.86-8.19-11.51-24.57-23.27-24.57c-11.76,0-19.6,16.38-22.05,24.57
	c-2.45-2.87-10.04-8.6-20.82-8.6c-10.78,0-26.54,5.73-33.07,8.6c-6.94-8.19-24.25-24.57-37.97-24.57
	c-13.72,0-26.13,10.65-30.62,15.97c-1.22-4.09-10.78-13.02-39.19-15.97c-28.41-2.95-46.13,15.15-51.44,24.57
	c-1.63-13.92-9.55-41.77-28.17-41.77c-18.62,0-22.45,27.84-22.05,41.77c-8.98-11.87-33.8-35.13-61.24-33.17
	c-27.43,1.97-47.36,22.93-53.89,33.17C21.33,32.75,7.86,3.76-16.63,5.72z"/>
</svg>
