<?xml version="1.0" encoding="utf-8"?>
<!-- Generator: Adobe Illustrator 25.2.3, SVG Export Plug-In . SVG Version: 6.00 Build 0)  -->
<svg version="1.1" id="Layer_1" xmlns="http://www.w3.org/2000/svg" xmlns:xlink="http://www.w3.org/1999/xlink" x="0px" y="0px"
	 viewBox="0 0 1920 95" style="enable-background:new 0 0 1920 95;" xml:space="preserve">
<style type="text/css">
	.st0{fill:#3499CE;}
	.st1{fill-opacity:0.2;}
	.st2{fill:#1A6792;}
	.st3{fill:#FEFFF4;}
</style>
<rect class="st0" width="1920" height="95"/>
<g>
	<circle class="st1" cx="52.5" cy="51.5" r="24.5"/>
</g>
<g>
	<circle class="st1" cx="174.5" cy="51.5" r="24.5"/>
</g>
<g>
	<circle class="st1" cx="296.5" cy="51.5" r="24.5"/>
</g>
<g>
	<circle class="st1" cx="414.5" cy="51.5" r="24.5"/>
</g>
<g>
	<circle class="st1" cx="531.5" cy="51.5" r="24.5"/>
</g>
<g>
	<circle class="st1" cx="648.5" cy="51.5" r="24.5"/>
</g>
<g>
	<circle class="st1" cx="768.5" cy="50.5" r="24.5"/>
</g>
<g>
	<circle class="st1" cx="887.5" cy="50.5" r="24.5"/>
</g>
<g>
	<circle class="st1" cx="1006.5" cy="50.5" r="24.5"/>
</g>
<g>
	<circle class="st1" cx="1125.5" cy="50.5" r="24.5"/>
</g>
<g>
	<circle class="st1" cx="1244.5" cy="50.5" r="24.5"/>
</g>
<g>
	<circle class="st1" cx="1363.5" cy="50.5" r="24.5"/>
</g>
<g>
	<circle class="st1" cx="1482.5" cy="50.5" r="24.5"/>
</g>
<g>
	<circle class="st1" cx="1601.5" cy="50.5" r="24.5"/>
</g>
<g>
	<circle class="st1" cx="1720.5" cy="50.5" r="24.5"/>
</g>
<g>
	<circle class="st1" cx="1839.5" cy="50.5" r="24.5"/>
</g>
<circle class="st2" cx="178.5" cy="47.5" r="24.5"/>
<circle class="st2" cx="297.5" cy="47.5" r="24.5"/>
<circle class="st2" cx="416.5" cy="47.5" r="24.5"/>
<circle class="st2" cx="535.5" cy="47.5" r="24.5"/>
<circle class="st2" cx="654.5" cy="47.5" r="24.5"/>
<circle class="st2" cx="773.5" cy="47.5" r="24.5"/>
<circle class="st2" cx="892.5" cy="47.5" r="24.5"/>
<circle class="st2" cx="1011.5" cy="47.5" r="24.5"/>
<circle class="st2" cx="1130.5" cy="47.5" r="24.5"/>
<circle class="st2" cx="1249.5" cy="47.5" r="24.5"/>
<circle class="st2" cx="1368.5" cy="47.5" r="24.5"/>
<circle class="st2" cx="1487.5" cy="47.5" r="24.5"/>
<circle class="st2" cx="1606.5" cy="47.5" r="24.5"/>
<circle class="st2" cx="1725.5" cy="47.5" r="24.5"/>
<circle class="st2" cx="1844.5" cy="47.5" r="24.5"/>
<g>
	<circle class="st3" cx="177" cy="48" r="6.65"/>
</g>
<g>
	<circle class="st3" cx="296" cy="48" r="10.47"/>
</g>
<g>
	<circle class="st3" cx="415" cy="48" r="14.36"/>
</g>
<g>
	<circle class="st3" cx="534" cy="48" r="14.85"/>
</g>
<g>
	<circle class="st3" cx="653" cy="48" r="10.02"/>
</g>
<g>
	<circle class="st3" cx="772" cy="48" r="14.81"/>
</g>
<g>
	<circle class="st3" cx="891" cy="48" r="5.63"/>
</g>
<g>
	<circle class="st3" cx="1010" cy="48" r="14.93"/>
</g>
<g>
	<circle class="st3" cx="1129" cy="48" r="5.63"/>
</g>
<g>
	<circle class="st3" cx="1248" cy="48" r="9.57"/>
</g>
<g>
	<circle class="st3" cx="1367" cy="48" r="13.51"/>
</g>
<g>
	<circle class="st3" cx="1486" cy="48" r="9.57"/>
</g>
<g>
	<circle class="st3" cx="1605" cy="48" r="12"/>
</g>
<g>
	<circle class="st3" cx="1724" cy="48" r="17.02"/>
</g>
<g>
	<circle class="st3" cx="1843" cy="48" r="9"/>
</g>
<circle class="st2" cx="59.5" cy="47.5" r="24.5"/>
<g>
	<circle class="st3" cx="58" cy="48" r="14"/>
</g>
</svg>
