<svg width="512" height="512" viewBox="0 0 512 512" fill="none" xmlns="http://www.w3.org/2000/svg">
<path d="M106.389 320.753C105.272 328.216 104.262 334.543 101.751 340.507C96.2844 353.491 86.0355 355.385 75.6554 354.204C71.3333 353.713 66.6143 347.211 65.7678 341.321C65.5265 339.642 65.26 337.789 65.7134 336.221C67.0106 331.733 64.9717 331.328 61.1494 331.33C52.5367 331.334 48.3686 328.284 47.309 322.2C46.6586 318.465 48.2904 315.553 50.3536 312.742C52.0241 310.466 54.2737 308.573 55.0886 305.531C54.7626 305.359 54.4457 305.06 54.1077 305.034C50.3776 304.746 46.4543 303.835 45.4943 299.976C44.5945 296.36 47.1308 293.247 49.8759 290.772C53.3877 287.606 57.8274 286.448 62.1987 285.178C63.558 284.783 65.0336 284.762 66.137 283.838C64.77 280.844 63.1741 277.954 62.1018 274.881C59.2769 266.787 63.3231 260.391 71.7509 258.994C77.3452 258.067 82.8584 259.379 88.4117 259.236C90.6411 259.179 92.9717 259.65 95.2037 258.229C91.2027 255.518 85.7366 258.493 82.0859 254.603C84.8606 252.822 87.7667 253.157 90.5484 253.431C93.337 253.705 96.0781 254.462 98.84 255.008C99.1089 254.69 99.3777 254.373 99.6466 254.055C97.5185 252.211 95.3151 250.445 93.2972 248.488C92.407 247.625 91.8714 246.386 91.2149 245.294C90.4701 244.054 90.4659 242.647 91.4825 241.733C92.8717 240.483 93.9003 241.944 94.644 242.812C96.5898 245.081 98.321 247.534 100.194 249.869C100.794 250.618 101.373 251.677 102.544 251.443C103.933 251.165 103.435 249.822 103.573 248.961C106.439 231.068 110.369 213.438 116.327 196.295C133.643 146.47 164.48 108.462 212.98 85.9942C215.617 84.7726 215.091 83.3206 214.84 81.316C212.706 64.2798 229.975 50.2527 246.038 55.8917C248.929 56.9064 251.732 58.2431 253.509 60.6585C255.782 63.7477 258.019 64.0007 261.348 62.4426C264.031 61.1866 267.229 60.5092 270.136 61.2143C274.124 62.1817 276.34 60.5861 278.641 57.6135C281.352 54.1114 284.876 51.376 289.018 49.5382C296.184 46.3587 302.659 47.7305 307.823 53.7394C312.542 59.2285 314.034 65.8563 313.892 72.8526C313.839 75.4218 314.217 76.7301 316.849 77.9465C371.122 103.034 401.443 146.228 411.967 204.291C413.163 210.887 413.939 217.532 414.634 224.2C415.311 230.688 415.381 237.205 415.651 244.231C418.021 243.04 418.701 241.174 419.598 239.521C421.228 236.519 422.748 233.456 424.459 230.502C425.04 229.499 425.68 227.754 427.12 228.351C428.263 228.825 428.26 230.499 428.248 231.829C428.217 235.154 426.477 237.776 424.798 240.424C423.963 241.74 423.075 243.021 422.122 244.45C424.596 245.246 425.568 243.302 426.873 242.202C429.261 240.189 430.97 237.435 433.774 235.857C434.64 235.37 435.689 234.538 436.464 235.214C437.554 236.164 436.551 237.294 436.007 238.257C434.715 240.543 432.687 242.134 430.776 243.855C429.266 245.216 427.194 246.166 426.688 249.013C433.737 245.745 440.254 245.713 445.725 251.409C450.818 256.712 450.678 262.887 447.842 269.428C449.067 269.491 450.052 269.543 451.037 269.592C458.675 269.973 464.15 274.487 465.654 281.644C467.125 288.647 463.828 295.467 457.184 298.635C455.356 299.507 454.848 300.039 455.378 302.307C458.108 313.998 451.015 322.367 438.948 321.717C435.987 321.558 435.101 322.156 435.092 325.162C435.075 330.773 431.959 334.437 426.824 336.454C421.129 338.69 415.32 338.321 409.575 336.86C406.267 336.018 404.652 333.142 403.227 330.3C400.758 325.374 400.111 320.013 399.713 314.048C398.05 323.705 391.959 330.401 387.13 337.663C368.222 366.1 344.648 389.399 313.027 403.631C308.323 405.749 303.411 407.105 298.491 408.535C295.12 409.514 291.717 410.651 289.483 414.029C292.091 414.338 294.084 412.895 296.315 412.694C298.017 412.54 299.89 412.186 300.928 414.024C301.937 415.813 301.6 417.691 300.342 419.218C299.081 420.75 297.455 421.982 296.203 423.52C294.607 425.479 294.317 426.967 297.685 427.349C307.76 428.492 317.698 430.337 327.174 434.118C331.84 435.98 336.246 438.307 339.799 441.956C346.715 449.058 345.989 458.353 337.843 463.983C329.765 469.568 320.368 471.382 310.851 472.68C291.268 475.35 272.559 470.976 254.015 465.506C250.982 464.611 248.621 465.016 245.649 466.202C226.03 474.03 205.711 476.694 184.874 472.434C178.002 471.029 171.688 467.881 170.431 459.761C169.169 451.603 172.992 445.745 179.521 441.355C181.17 440.246 182.907 439.25 184.676 438.343C192.203 434.484 200.372 432.412 208.425 430.072C211.228 429.258 212.92 428.63 211.078 425.338C209.674 422.829 211.282 421.631 213.597 421.236C215.464 420.918 217.243 421.56 219.06 421.96C222.439 422.705 223.283 421.656 222.158 418.339C220.809 414.361 217.66 412.224 213.825 411.873C191.55 409.835 173.583 397.212 154.676 387.301C148.507 384.066 143.99 377.244 138.07 372.761C131.406 367.714 125.92 361.559 121.4 354.53C115.734 345.717 111.875 336.081 108.432 326.25C107.922 324.796 107.36 323.36 106.389 320.753Z" fill="#362E2E"/>
<path d="M237.456 428.715C238.685 425.674 240.19 422.75 239.878 419.321C239.626 416.544 238.845 414.502 235.489 415.077C233.03 415.498 231.805 414.84 231.868 412.03C231.981 407.019 228.592 406.343 224.414 405.536C198.035 400.441 174.521 389.036 153.502 372.384C150.595 370.081 147.721 367.734 144.764 365.496C131.817 355.692 123.438 343.229 121.325 326.781C120.622 321.31 118.814 315.99 115.827 311.198C115.047 309.947 114.473 308.996 112.527 309.414C106.222 310.766 100.184 312.722 94.5113 315.829C92.7124 316.815 92.4716 317.879 92.7415 319.929C93.5037 325.715 93.9366 331.579 92.2432 337.322C90.4726 343.326 84.5373 347.448 80.1805 345.763C76.854 344.476 75.3478 336.67 77.4603 331.858C78.7993 328.807 80.898 326.298 83.0388 323.814C85.0871 321.436 87.2311 319.121 88.6554 316.292C89.4802 314.654 90.7015 312.698 89.2743 311.121C87.7447 309.43 85.4506 309.546 83.2899 310.31C79.7881 311.549 77.3288 314.162 74.838 316.708C71.9042 319.706 68.7851 322.336 64.5267 323.248C62.6108 323.659 60.5512 323.656 59.2508 322.365C57.8689 320.993 59.1166 319.174 59.7423 317.63C62.8195 310.037 68.9671 306.765 76.6516 305.715C78.3092 305.488 80.2062 305.87 80.2994 303.241C80.3823 300.901 79.3587 299.493 77.2402 298.665C75.6138 298.029 73.9551 297.775 72.222 297.782C67.5158 297.804 62.8094 297.79 57.7131 297.79C59.1438 294.394 62.0001 293.329 64.7733 292.762C70.0547 291.682 75.4568 291.206 80.7664 290.245C85.1646 289.449 85.4029 288.673 82.3222 285.354C80.4879 283.377 78.2802 281.751 76.289 279.915C74.609 278.365 72.9803 276.774 72.3149 274.452C71.4896 271.572 71.0682 268.704 74.0453 266.849C77.1077 264.941 80.2458 264.822 83.0087 267.606C86.0351 270.655 87.2008 274.651 88.4933 278.569C90.48 284.591 91.6963 285.478 97.9207 284.042C101.925 283.118 105.782 281.561 109.708 280.297C112.006 279.558 111.924 277.646 112.031 275.765C112.533 266.941 112.534 266.888 120.971 264.963C147.517 258.908 169.941 245.251 190.183 227.55C216.533 204.508 237.665 177.594 251.323 145.134C255.743 134.627 259.309 123.843 261.979 112.761C262.308 111.392 262.73 110.045 263.177 108.443C265.02 109.388 264.981 111.054 265.368 112.428C273.064 139.756 283.235 166.043 300.58 188.812C320.179 214.541 342.792 237.065 372.479 251.303C380.863 255.325 389.726 257.971 398.794 259.903C400.895 260.351 401.489 260.754 400.988 263.17C399.817 268.82 400.355 269.323 406.148 270.52C412.312 271.795 418.592 271.878 424.839 272.323C427.04 272.479 427.98 271.509 428.396 269.577C428.875 267.356 429.315 265.123 429.911 262.933C430.318 261.44 430.76 259.888 431.55 258.583C432.755 256.591 434.807 255.616 437.045 256.201C439.344 256.802 438.486 259.028 438.518 260.595C438.631 266.037 434.899 269.676 432.189 273.817C431.125 275.443 428.443 276.746 430.039 279.239C431.742 281.902 434.529 281.939 437.322 281.332C441.2 280.488 444.912 278.791 448.971 278.904C452.092 278.991 455.137 279.497 455.569 283.428C455.966 287.036 453.409 289.835 449.315 290.051C445.187 290.269 441.036 290.043 436.897 290.105C434.418 290.141 431.687 290.343 431.479 293.563C431.284 296.576 433.499 297.676 436.191 297.981C436.75 298.045 437.283 298.304 437.839 298.425C443.885 299.739 445.245 301.711 444.445 308.023C443.931 312.083 440.908 313.665 437.403 311.453C435.628 310.332 434.188 308.661 432.659 307.174C431.025 305.585 429.574 303.782 427.49 302.732C425.421 301.689 423.267 301.723 421.393 303.003C419.405 304.361 420.441 306.349 420.901 308.061C422.115 312.58 424.203 316.9 424.074 321.721C423.985 325.053 423.871 328.639 419.708 329.448C416.383 330.094 412.667 326.952 411.704 323.148C410.199 317.201 412.754 311.952 414.8 306.676C416.719 301.728 416.075 300.262 410.855 298.943C401.12 296.483 393.33 299.657 388.476 308.362C386.332 312.206 384.569 316.271 382.769 320.296C365.855 358.121 337.259 383.365 298.897 397.987C293.337 400.107 287.517 401.623 281.717 402.994C279.239 403.58 278.414 404.788 278.212 406.987C277.926 410.105 277.555 413.217 277.318 416.338C277.127 418.859 276.393 420.148 273.596 418.755C271.982 417.952 269.956 416.82 268.42 418.322C266.994 419.716 268.65 421.518 268.875 423.143C268.989 423.971 269.424 424.754 269.698 425.562C271.014 429.438 270.524 430.016 266.385 429.449C265.821 429.372 265.27 429.2 264.708 429.108C256.504 427.759 255.822 426.82 257.194 418.748C258.179 412.958 257.09 410.323 253.138 408.928C249.41 407.613 247.224 408.857 246.602 412.892C246.146 415.847 245.897 418.843 245.716 421.83C245.374 427.514 243.592 429.071 237.456 428.715Z" fill="#E1B800"/>
<path d="M132.565 239.694C138.361 234.914 144.165 230.144 149.951 225.351C193.413 189.344 227.951 146.385 251.606 94.9367C252.103 93.8542 252.178 92.3889 254.799 91.5508C243.115 123.44 227.558 152.25 206.933 178.215C186.276 204.221 161.698 225.831 132.72 242.269C130.831 241.611 130.816 241.36 132.565 239.694Z" fill="#D06E03"/>
<path d="M240.523 111.099C228.801 131.667 215.19 150.941 200.508 169.478C189.182 183.778 177.345 197.65 163.587 209.682C153.309 218.671 142.575 227.135 132.078 235.874C128.7 238.687 125.431 241.63 122.112 244.514C121.394 244.734 120.992 244.628 121.335 243.758C127.984 234.48 136.67 227.311 145.836 220.769C161.291 209.741 172.528 194.884 183.766 179.987C200.479 157.835 216.852 135.419 234.8 114.226C236.269 112.492 237.906 110.902 239.465 109.245C241.04 109.165 241.142 109.927 240.523 111.099Z" fill="#D16E03"/>
<path d="M213.183 99.2009C197.999 111.879 183.24 124.995 169.874 139.636C153.387 157.698 139.279 177.392 128.098 199.159C126.515 199.158 127.046 198.227 127.328 197.406C133.612 177.929 143.504 160.397 156.261 144.485C164.941 133.658 175.337 124.654 186.094 115.872C192.903 110.313 199.826 105.071 207.168 100.313C208.467 99.4714 209.929 98.8806 211.317 98.1739C212.413 97.6546 213.239 97.6264 213.183 99.2009Z" fill="#D06E03"/>
<path d="M265.291 438.733C272.346 436.77 278.964 436.178 285.692 436.64C287.428 436.759 289.037 437.265 290.576 438.065C294.221 439.958 294.433 441.034 291.632 444.105C290.289 445.579 288.737 446.878 287.507 448.436C286.133 450.177 285.35 452.165 286.762 454.336C287.637 455.681 288.633 456.869 290.464 456.688C293.032 456.435 294.031 454.626 294.6 452.425C294.992 450.91 295.164 449.301 295.795 447.896C296.474 446.38 295.516 443.299 298.913 444.011C301.947 444.646 305.333 448.487 304.803 450.668C303.999 453.983 302.943 457.242 302.245 460.577C301.847 462.482 300.922 463.151 299.076 463.271C291.321 463.772 283.896 461.124 276.191 460.955C273.868 460.905 273.872 457.913 273.344 456.149C271.547 450.143 269.856 444.132 265.291 438.733Z" fill="#E32235"/>
<path d="M139.33 217.967C150.753 204.312 162.059 190.557 173.628 177.027C187.147 161.215 200.892 145.598 214.55 129.906C215.105 129.268 215.778 128.733 216.396 128.149C218.971 128.922 216.471 129.957 216.536 130.86C208.41 143.089 199.065 154.398 189.916 165.844C176.675 182.409 164.256 199.699 148.308 213.926C147.039 215.059 145.744 216.162 144.46 217.278C142.291 216.885 142.409 219.26 141.171 219.995L141.218 219.974C139.254 220.56 138.691 219.829 139.33 217.967Z" fill="#D16E03"/>
<path d="M364.005 212.133C353.434 202.525 344.04 191.809 334.917 180.866C318.903 161.658 304.997 140.985 292.699 119.223C292.352 118.61 292.123 117.931 291.839 117.283C291.53 116.362 291.092 115.33 292.037 114.628C292.706 114.131 293.29 114.793 293.749 115.323C308.211 136.781 322.829 158.136 338.915 178.421C348.184 190.109 357.882 201.457 367.387 212.958C365.619 215.306 365.188 212.177 364.005 212.133Z" fill="#D06E04"/>
<path d="M213.965 117.984C195.874 137.904 178.083 158.083 161.519 179.304C153.727 189.287 146.173 199.455 138.511 209.539C138.158 211.355 137.583 213.053 136.015 214.221C133.364 215.046 133.259 217.948 131.628 219.619C129.996 221.292 129.839 221.352 128.213 219.774C134.032 208.982 141.305 199.145 148.45 189.24C166.995 163.532 188.114 140.067 210.924 118.095C211.327 117.706 211.833 117.425 212.291 117.095C213.315 116.516 214.076 116.43 213.965 117.984Z" fill="#D16E04"/>
<path d="M218.306 443.986C223.68 439.248 230.211 438.92 236.379 437.758C238.56 437.347 237.991 439.206 237.43 440.354C236.118 443.036 234.646 445.639 233.313 448.31C232.109 450.723 230.175 453.136 230.025 455.637C229.698 461.065 226.283 461.856 222.142 462.268C217.191 462.762 212.26 463.431 207.255 463.24C205.348 463.167 204.376 462.636 204.371 460.55C204.367 458.858 203.784 457.162 203.817 455.475C203.855 453.502 201.391 451.421 203.834 449.584C206.626 447.484 209.979 446.709 213.349 446.133C214.437 445.948 214.789 446.806 214.818 447.756C214.852 448.894 214.712 450.059 214.911 451.166C215.333 453.515 215.476 456.254 218.557 456.748C220.635 457.08 222.553 456.252 223.58 454.327C224.869 451.91 224.852 449.454 223.172 447.105C222.039 445.52 220.22 444.988 218.306 443.986Z" fill="#E22236"/>
<path d="M397.273 191.714C376.966 158.497 352.86 128.418 323.632 102.569C324.079 101.274 324.079 101.274 326.321 102.482C340.231 113.016 352.449 125.394 364.497 137.917C377.11 151.027 387.436 165.785 394.899 182.447C396.116 185.164 397.135 187.969 398.246 190.734C398.498 191.632 398.076 191.863 397.273 191.714Z" fill="#D06E05"/>
<path d="M221.764 176.395C213.372 190.236 202.99 202.488 191.345 213.637C178 226.411 163.113 237.098 146.394 245.094C141.913 247.237 137.453 249.468 132.615 250.763C131.59 251.033 130.347 251.968 130.078 249.932C143.437 243.144 156.501 235.869 168.58 226.934C186.944 213.351 202.889 197.347 216.639 179.129C217.407 178.111 218.285 177.175 219.112 176.201C220.147 175.964 220.259 174.095 221.611 174.63C222.333 174.915 222.104 175.762 221.764 176.395Z" fill="#D16E04"/>
<path d="M328.878 456.557C322.956 461.176 315.728 461.478 308.761 462.643C306.892 462.956 306.543 462.025 306.809 460.413C307.912 453.723 310.346 447.546 313.916 441.806C314.73 440.497 315.867 439.705 317.506 440.196C321.746 441.466 325.949 442.85 329.437 445.721C332.085 447.901 332.666 450.622 331.279 453.76C330.807 454.973 329.675 455.621 328.878 456.557Z" fill="#E32235"/>
<path d="M398.856 215.727C391.883 205.707 385.017 195.61 377.913 185.684C366.498 169.733 354.105 154.538 341.619 139.421C341.447 138.519 341.76 138.127 342.699 138.39C345.86 139.39 347.733 141.787 349.658 144.328C360.727 158.94 373.19 172.444 383.954 187.297C390.037 195.69 395.834 204.282 399.925 213.884C400.52 215.05 400.405 215.805 398.856 215.727Z" fill="#D06E06"/>
<path d="M368.055 223.423C343.248 202.897 322.03 179.249 305.521 151.51C304.871 150.419 304.399 149.221 303.845 148.073C303.507 147.081 303.967 146.877 304.832 147.073C323.475 174.54 345.776 198.89 369.056 222.405C369.275 223.287 368.959 223.644 368.055 223.423Z" fill="#CF6F07"/>
<path d="M128.213 219.775C130.503 219.981 130.99 219.704 132.894 215.606C133.569 214.154 134.079 213.207 135.803 213.839C136.964 212.666 137.963 211.336 139.255 210.291C149.699 199.507 158.928 187.679 168.547 176.186C169.37 176.052 169.78 176.313 169.524 177.21C164.075 185.734 157.146 193.058 150.543 200.648C143.004 209.314 135.167 217.743 129.095 227.577C128.772 228.033 128.559 228.791 128.825 229.025C129.162 229.319 129.442 228.504 129.88 228.376C133.03 224.907 136.181 221.438 139.331 217.967C139.406 219.156 139.999 219.858 141.218 219.973C134.564 227.592 126.638 234.002 120.345 241.963C119.904 242.52 119.409 243.053 118.86 243.5C117.962 244.232 117.606 246.583 116.373 245.61C115.414 244.852 114.522 242.707 115.526 240.986C119.676 233.868 123.177 226.361 128.213 219.775Z" fill="#CA7313"/>
<path d="M200.262 116.273C188.911 127.895 177.553 139.502 167.252 152.103C155.332 166.685 144.229 181.848 134.003 197.658C133.709 198.113 133.634 198.709 133.457 199.24C132.733 200.251 131.878 200.83 130.624 200.102C130.674 197.936 131.199 195.995 132.512 194.155C150.765 168.575 169.168 143.121 192.102 121.378C194.363 119.234 196.81 117.285 199.17 115.245C200.116 114.97 200.42 115.376 200.262 116.273Z" fill="#CD710B"/>
<path d="M393.935 231.88C386.701 224.946 381.473 216.378 375.123 208.719C363.202 194.342 351.556 179.738 339.81 165.216C338.879 164.065 337.482 163.112 338.369 160.854C358.778 183.463 378.27 206.809 395.729 231.823C395.149 232.384 394.55 232.39 393.935 231.88Z" fill="#CA6D08"/>
<path d="M322.799 106.804C340.382 123.059 356.528 140.614 370.766 159.891C371.139 160.91 372.008 162.076 370.028 162.404C354.487 145.054 338.941 127.706 323.417 110.341C322.766 109.613 322.309 108.711 321.762 107.891C321.52 106.969 321.932 106.67 322.799 106.804Z" fill="#CF6F07"/>
<path d="M351.774 170.263C337.394 154.615 323.71 138.383 310.924 121.406C309.928 120.084 308.281 119.133 308.094 117.243C307.818 116.353 308.244 116.126 309.036 116.243C317.51 120.087 321.898 127.827 326.725 135.057C334.302 146.407 342.996 156.859 351.835 167.21C352.197 167.633 352.422 168.171 352.711 168.656C353.432 169.794 353.277 170.421 351.774 170.263Z" fill="#D06E06"/>
<path d="M189.097 448.623C196.154 443.938 198.409 444.61 199.006 452.913C199.811 464.103 201.265 464.332 189.368 462.348C182.484 461.199 181.638 459.306 184.76 452.92C186.009 451.29 187.415 449.817 189.097 448.623Z" fill="#E32237"/>
<path d="M375.755 241.424C367.264 238.848 360.528 233.353 353.771 227.978C345.233 221.186 337.31 213.656 328.311 207.387C325.302 205.289 323.404 201.595 320.999 198.631C320.742 197.706 321.115 197.388 322.015 197.58C338.605 213.99 357.711 227.174 376.838 240.331C377.046 241.259 376.781 241.718 375.755 241.424Z" fill="#CD700A"/>
<path d="M256.812 436.808C265.216 441.431 267.077 449.148 268.575 457.015C268.944 458.95 267.461 459.063 266.072 458.671C263.334 457.9 260.64 456.972 257.895 456.227C256.052 455.726 255.921 454.356 255.987 452.892C256.225 447.691 256.516 442.492 256.812 436.808Z" fill="#E22237"/>
<path d="M208.057 115.516C196.987 127.488 185.917 139.46 174.848 151.432C173.855 151.805 173.503 153.416 172.195 153.013C171.446 152.782 171.446 151.997 171.982 151.359C181.931 137.687 193.203 125.249 206.344 114.556C207.486 113.857 208.172 113.972 208.057 115.516Z" fill="#CF6F08"/>
<path d="M313.428 172.699C302.514 158.278 293.288 142.888 286.916 125.823C293.45 131.842 294.734 141.096 300.7 147.856C306.419 154.336 309.817 163.157 314.264 170.932C314.707 171.862 314.948 172.697 313.428 172.699Z" fill="#CC700C"/>
<path d="M351.774 170.263C352.483 169.958 352.729 169.383 352.712 168.655C366.474 184.203 379.699 200.18 391.466 217.314C392.074 218.199 393.804 219.424 392.284 220.474C391.074 221.311 389.928 219.823 389.273 218.756C385.709 212.946 382.505 206.928 377.998 201.712C370 192.456 362.179 183.048 354.304 173.686C353.393 172.602 352.614 171.407 351.774 170.263Z" fill="#C77319"/>
<path d="M193.417 198.517C206.057 185.204 217.389 170.853 227.51 155.542C229.064 155.438 229.156 156.156 228.496 157.296C219.05 173.148 207.764 187.538 194.353 200.239C192.795 200.342 192.848 199.57 193.417 198.517Z" fill="#CC700E"/>
<path d="M324.428 195.066C314.091 185.532 306.535 173.886 299.328 161.98C298.451 160.531 297.706 159.002 296.9 157.511C296.727 156.489 297.173 156.153 298.139 156.39C303.447 164.083 308.882 171.693 314.019 179.499C317.318 184.513 322.449 187.946 325.389 193.217C325.89 194.26 326.03 195.115 324.428 195.066Z" fill="#CD700C"/>
<path d="M245.489 445.71C245.385 454.022 244.184 455.813 237.124 458.168C236.373 458.418 235.539 459.169 234.823 458.312C234.221 457.592 234.578 456.676 234.889 455.894C236.78 451.151 238.691 446.415 241.91 442.362C242.573 441.527 242.948 439.993 244.365 440.548C245.271 440.903 245.436 442.145 245.481 443.157C245.519 444.007 245.489 444.859 245.489 445.71Z" fill="#DD253A"/>
<path d="M368.131 208.769C357.777 197.039 348.061 184.803 339.013 172.038C338.759 171.126 339.12 170.807 340.014 171.002C348.276 181.311 356.547 191.614 364.793 201.936C366.3 203.822 367.706 205.789 369.159 207.719C369.402 208.643 369.03 208.963 368.131 208.769Z" fill="#CB7110"/>
<path d="M220.936 117.243C211.766 128.825 201.85 139.752 191.724 150.494C190.87 150.668 190.48 150.4 190.765 149.488C200.03 138.01 209.637 126.83 219.832 116.164C220.772 115.937 221.125 116.313 220.936 117.243Z" fill="#C97210"/>
<path d="M322.015 197.58C321.676 197.93 321.338 198.28 320.999 198.631C308.971 186.066 297.211 173.319 292.218 156.007C292.024 155.331 291.966 154.615 291.844 153.918C292.127 153.64 292.425 153.623 292.737 153.869C299.214 170.638 309.465 184.879 322.015 197.58Z" fill="#BE741F"/>
<path d="M382.844 202.731C378.194 197.486 374.741 191.419 370.977 185.559C367.232 179.729 363.261 174.055 357.628 169.24C359.908 168.049 360.889 169.457 361.963 170.357C367.412 174.921 370.953 180.918 374.513 186.931C377.479 191.942 380.692 196.807 383.795 201.737C384.031 202.597 383.611 202.83 382.844 202.731Z" fill="#CB7211"/>
<path d="M335.679 98.1823C347.022 106.241 356.135 116.689 365.924 126.414C365.569 126.837 365.144 126.927 364.649 126.684C356.314 120.526 349.285 112.95 341.891 105.769C339.562 103.507 337.142 101.337 334.764 99.1257C334.536 98.2947 334.768 97.91 335.679 98.1823Z" fill="#CB7414"/>
<path d="M385.336 158.201C377.659 147.167 368.347 137.579 358.807 128.192C358.608 127.408 358.818 127.041 359.679 127.334C371.269 134.892 378.706 146.148 386.319 157.248C386.57 158.163 386.155 158.39 385.336 158.201Z" fill="#C47216"/>
<path d="M331.558 194.088C339.129 202.457 347.038 210.491 355.382 218.093C355.622 218.981 355.296 219.305 354.408 219.068C343.595 213.477 337.008 203.753 330.162 194.282C330.573 193.826 331.039 193.762 331.558 194.088Z" fill="#CB7210"/>
<path d="M368.207 228.467C375.689 233.563 383.171 238.66 390.654 243.756C390.77 244.611 390.464 245.046 389.544 244.87C380.438 241.811 373.202 235.96 366.448 229.392C366.388 227.856 367.138 227.859 368.207 228.467Z" fill="#CB700E"/>
<path d="M324.457 147.078C316.87 139.409 310.895 130.424 304.315 121.907C313.625 127.958 318.336 138.096 325.455 146.089C325.672 146.973 325.314 147.278 324.457 147.078Z" fill="#C47217"/>
<path d="M228.496 157.296C228.485 156.534 228.301 155.868 227.511 155.542C233.722 144.657 240.017 133.816 244.973 122.272C245.687 122.167 246.191 122.242 245.729 123.149C241.329 135.209 235.574 146.586 228.496 157.296Z" fill="#BC7323"/>
<path d="M130.624 200.102C131.569 199.815 132.513 199.528 133.457 199.24C136.31 196.706 139.162 194.172 142.015 191.638C142.421 191.256 142.805 191.277 143.168 191.7C138.796 197.964 134.424 204.229 130.051 210.493C129.721 210.819 129.365 210.849 128.984 210.587C127.972 208.475 129.37 206.736 129.861 204.86C130.475 203.875 129.448 202.83 129.95 201.838C130.175 201.259 130.399 200.681 130.624 200.102Z" fill="#C9710E"/>
<path d="M293.664 68.1657C292.405 68.3624 291.145 68.5499 289.889 68.7587C288.956 68.9137 287.82 69.5922 287.285 68.3323C286.886 67.3947 287.814 66.6982 288.506 66.3176C291.602 64.6151 294.479 62.3253 298.244 62.2513C299.459 62.2274 301.067 61.8159 301.261 63.7031C301.41 65.1458 302.036 67.0031 299.632 67.409C297.737 68.403 295.559 67.1688 293.664 68.1657Z" fill="#077C35"/>
<path d="M320.085 120.595C315.295 117.795 312.459 113.091 308.917 109.082C306.199 106.005 303.59 102.831 300.884 99.6426C305.14 100.737 312.033 107.66 320.998 119.773C321.084 120.481 320.936 120.927 320.085 120.595Z" fill="#C17216"/>
<path d="M333.958 136.752C340.083 143.987 346.208 151.223 352.333 158.458C343.375 153.838 338.518 145.459 333.062 137.629C332.781 136.745 333.151 136.526 333.958 136.752Z" fill="#C67217"/>
<path d="M129.057 210.442C129.388 210.459 129.72 210.476 130.051 210.493C129.014 212.272 128.364 214.301 126.71 215.683C126.095 216.074 125.333 216.113 124.733 216.529C123.89 217.164 123.312 218.13 122.273 218.521C121.894 218.586 121.586 218.46 121.338 218.174C121.723 213.103 121.887 207.991 127.14 204.983C128.297 204.32 129.025 202.906 129.95 201.838C130.111 202.791 132.472 202.874 130.994 204.476C129.38 205.481 128.79 207.317 127.638 208.703C125.918 210.773 128.628 209.796 129.057 210.442Z" fill="#C16F15"/>
<path d="M193.417 198.517C193.428 199.254 193.631 199.887 194.353 200.238C188.983 206.375 182.75 211.562 176.368 216.586C175.503 216.803 175.24 216.418 175.396 215.614C181.403 209.915 187.41 204.216 193.417 198.517Z" fill="#C07218"/>
<path d="M279.082 110.498C285.098 116.439 283.396 125.214 287.007 132.067C281.349 126.031 281.57 117.759 279.082 110.498Z" fill="#C37318"/>
<path d="M331.559 194.089C331.094 194.153 330.63 194.218 330.164 194.282C324.099 187.464 318.524 180.268 313.428 172.699C314.133 172.312 314.206 171.626 314.264 170.933C320.029 178.651 325.794 186.37 331.559 194.089Z" fill="#BB7521"/>
<path d="M297.09 76.7426C293.336 76.6528 289.685 78.4496 285.605 77.2889C287.213 74.2128 289.989 74.2038 292.758 74.1773C294.383 73.2332 296.318 74.4054 297.937 73.417C300.164 72.8109 302.785 71.5088 302.212 75.8412C300.67 77.0844 298.666 75.6958 297.09 76.7426Z" fill="#0E7938"/>
<path d="M239.668 84.9424C237.421 87.9406 234.734 89.9313 231.261 90.4172C229.677 90.6387 227.738 90.485 227.193 88.8543C226.475 86.7021 228.79 86.2417 230.063 85.9965C233.215 85.3892 236.46 85.2623 239.668 84.9424Z" fill="#127739"/>
<path d="M303.119 117.066C298.363 111.646 293.192 106.531 290.711 99.4199C295.889 104.396 300.12 110.142 303.98 116.192C304.292 117.073 303.886 117.248 303.119 117.066Z" fill="#C3721A"/>
<path d="M370.028 162.404C370.983 161.775 370.715 160.787 370.766 159.892C376.316 166.595 381.25 173.724 385.552 181.29C385.233 181.638 384.904 181.649 384.563 181.322C379.718 175.016 374.873 168.71 370.028 162.404Z" fill="#C0741E"/>
<path d="M240.523 111.1C240.488 110.3 240.287 109.596 239.465 109.245C241.152 105.834 242.729 102.362 244.562 99.0317C245.973 96.4686 247.79 94.1612 251.432 91.8955C247.724 99.1501 244.364 105.255 240.523 111.1Z" fill="#C87218"/>
<path d="M391.938 212.938C396.484 219.608 402.438 225.403 403.89 233.751C399.553 226.991 394.518 220.639 391.938 212.938Z" fill="#BD7221"/>
<path d="M306.572 437.447C307.739 437.847 310.435 436.835 310.01 439.382C309.712 441.165 308.599 443.496 306.376 444.093C304.859 444.5 301.479 440.758 301.655 439.229C301.814 437.845 303.141 437.336 306.572 437.447Z" fill="#DA263A"/>
<path d="M171.982 151.359C172.863 154.254 173.912 150.578 174.846 151.432C170.759 157.099 166.237 162.408 161.525 167.56C160.838 167.588 160.339 167.459 160.721 166.595C163.992 161.16 168.031 156.292 171.982 151.359Z" fill="#C77218"/>
<path d="M160.721 166.596C160.989 166.918 161.257 167.239 161.525 167.561C155.405 175.607 149.285 183.653 143.167 191.7C142.784 191.68 142.4 191.659 142.015 191.638C148.25 183.291 154.485 174.943 160.721 166.596Z" fill="#B7742D"/>
<path d="M322.799 106.804C322.454 107.166 322.109 107.528 321.763 107.89C316.98 102.968 310.59 100.167 304.665 94.7549C312.84 96.9514 317.973 101.64 322.799 106.804Z" fill="#BE731F"/>
<path d="M243.097 76.7433C244.112 76.9762 245.296 77.1264 243.968 78.5121C241.205 79.6505 238.201 78.2174 235.435 79.3149C233.475 79.3834 231.511 79.412 229.554 79.5371C228.552 79.6011 227.213 80.6731 226.93 78.7875C226.659 76.9859 228.027 76.8061 229.381 76.7858C229.942 76.7774 230.503 76.7605 231.063 76.7474C235.074 76.1421 239.086 76.15 243.097 76.7433Z" fill="#0A7937"/>
<path d="M221.764 176.396C221.106 173.246 219.914 177.379 219.111 176.201C222.25 171.629 225.39 167.057 228.529 162.485C230.001 162.47 229.973 163.205 229.393 164.215C227.216 168.504 224.79 172.638 221.764 176.396Z" fill="#C47116"/>
<path d="M343.43 111.826C348.605 114.887 352.28 119.538 356.23 123.897C356.4 124.722 356.142 125.102 355.258 124.832C350.992 120.81 346.726 116.788 342.46 112.766C342.3 111.954 342.542 111.556 343.43 111.826Z" fill="#C3751C"/>
<path d="M293.749 115.324C291.501 114.404 292.031 116.194 291.84 117.282C289.039 113.275 286.797 108.966 284.911 104.464C284.692 103.49 285.086 103.109 286.054 103.286C288.704 107.244 291.647 111.015 293.749 115.324Z" fill="#BD6C13"/>
<path d="M309.036 116.243C308.722 116.576 308.409 116.909 308.094 117.242C303.355 111.972 299.752 105.954 296.538 99.6592C301.856 104.331 304.367 111.102 309.036 116.243Z" fill="#BE7524"/>
<path d="M264.59 78.5776C264.567 78.4407 264.545 78.3038 264.522 78.1668C264.188 76.11 262.282 73.1613 264.577 72.2743C266.403 71.5685 266.809 75.1631 267.939 76.7812C268.615 78.5086 268.582 80.2391 267.963 81.9724C267.674 82.2423 267.385 82.5122 267.096 82.7821C265.55 83.673 265.106 82.8139 264.973 81.4488C264.88 80.4873 265.188 79.4717 264.59 78.5776Z" fill="#0E793B"/>
<path d="M325.817 151.571C320.35 149.159 316.768 145.145 315.509 139.195C318.945 143.321 322.381 147.446 325.817 151.571Z" fill="#BA721C"/>
<path d="M241.066 98.1611C240.067 103.744 235.605 106.724 232.221 110.507C233.546 105.232 237.795 102.01 241.066 98.1611Z" fill="#B77225"/>
<path d="M342.7 138.389C342.34 138.733 341.98 139.076 341.62 139.42C337.978 135.28 334.337 131.14 330.695 127C336.981 128.475 338.484 134.822 342.7 138.389Z" fill="#C2751D"/>
<path d="M229.393 164.215C229.362 163.51 229.245 162.848 228.529 162.484C230.76 158.74 232.965 154.979 235.242 151.263C235.731 150.465 236.477 149.381 237.544 150.086C238.414 150.662 237.836 151.698 237.229 152.268C233.65 155.626 232.226 160.38 229.393 164.215Z" fill="#B87327"/>
<path d="M288.499 85.3885C288.223 85.3783 287.946 85.3662 287.67 85.3523C287.153 84.7899 287.151 84.2379 287.703 83.697C290.937 83.5644 294.061 82.343 297.353 82.7357C298.196 82.8362 299.198 82.7305 299.444 83.7583C299.705 84.8493 298.869 85.2115 297.955 85.3677C294.804 86.0288 291.652 86.0017 288.499 85.3885Z" fill="#057C33"/>
<path d="M368.207 228.467C367.466 228.483 366.809 228.657 366.448 229.393C362.435 225.952 358.422 222.51 354.409 219.069C354.733 218.744 355.058 218.419 355.382 218.094C359.657 221.551 363.932 225.009 368.207 228.467Z" fill="#C37420"/>
<path d="M216.536 130.86C216.171 129.972 217.621 128.992 216.396 128.149C219.86 124.165 223.035 119.903 227.398 116.746C224.751 122.206 219.868 125.941 216.536 130.86Z" fill="#BD7525"/>
<path d="M210.256 441.52C207.663 443.255 205.647 445.182 202.62 445.203C201.658 445.209 200.888 444.798 200.641 443.903C200.323 442.748 201.332 442.47 202.127 442.258C204.619 441.592 207.034 440.074 210.256 441.52Z" fill="#CB2B41"/>
<path d="M132.565 239.694C132.179 240.579 131.252 241.495 132.719 242.269C129.571 244.783 125.962 246.495 122.363 248.224C121.431 248.633 121.317 248.166 121.48 247.401C125.273 244.973 128.383 241.563 132.565 239.694Z" fill="#BD6E13"/>
<path d="M277.461 105.946C273.886 102.548 273.778 98.4525 273.986 94.1299C276.781 98.1703 278.104 102.481 277.461 105.946Z" fill="#B46C1D"/>
<path d="M213.965 117.985C213.633 117.263 213.005 117.098 212.291 117.095C216.268 113.348 220.246 109.601 224.223 105.854C224.628 105.531 224.999 105.565 225.338 105.957C221.547 109.966 217.756 113.976 213.965 117.985Z" fill="#BF7420"/>
<path d="M220.936 117.244C220.568 116.884 220.201 116.524 219.833 116.164C223.073 111.994 226.665 108.164 230.752 104.788C228.025 109.392 224.632 113.438 220.936 117.244Z" fill="#B67427"/>
<path d="M121.338 218.174C121.651 218.175 121.964 218.175 122.277 218.176C123.218 217.555 124.542 217.183 123.97 215.577C124.939 214.177 125.804 215.445 126.71 215.683C124.561 219.226 122.41 222.769 119.904 226.898C118.506 223.121 122.578 221.12 121.338 218.174Z" fill="#AE702A"/>
<path d="M368.131 208.77C368.473 208.42 368.816 208.071 369.158 207.721C372.968 211.781 376.477 216.084 379.587 220.707C379.245 221.051 378.893 221.062 378.531 220.741C375.064 216.751 371.597 212.76 368.131 208.77Z" fill="#BA7228"/>
<path d="M304.832 147.073C304.503 147.406 304.174 147.739 303.845 148.072C300.766 144.063 298.528 139.559 296.21 135.103C295.737 134.185 296.23 134.137 296.944 134.289C299.573 138.55 302.203 142.811 304.832 147.073Z" fill="#B3752E"/>
<path d="M208.057 115.515C207.723 114.772 207.1 114.544 206.344 114.555C210.181 111.216 213.534 107.272 218.239 105.015L218.294 105.078C215.307 108.975 211.644 112.208 208.057 115.515Z" fill="#C07725"/>
<path d="M175.396 215.613C175.72 215.937 176.044 216.261 176.368 216.585C172.779 220.246 168.402 222.859 163.734 225.186C167.621 221.995 171.509 218.804 175.396 215.613Z" fill="#A77132"/>
<path d="M130.078 249.932C130.674 250.97 131.72 250.637 132.615 250.763C128.53 252.945 124.1 254.035 119.333 254.335C122.915 252.867 126.496 251.399 130.078 249.932Z" fill="#BC7525"/>
<path d="M340.013 171.003C339.679 171.348 339.346 171.693 339.012 172.039C335.746 168.634 333.397 164.56 330.94 160.519C334.498 163.541 337.42 167.124 340.013 171.003Z" fill="#B6722C"/>
<path d="M326.321 102.482C325.436 102.858 324.493 101.443 323.632 102.568C320.807 100.233 317.981 97.8973 315.156 95.5616C314.945 94.798 315.074 94.3785 315.981 94.7468C319.55 97.1619 323.226 99.4332 326.321 102.482Z" fill="#BE7520"/>
<path d="M368.055 223.422C368.389 223.083 368.723 222.744 369.056 222.404C372.606 225.23 375.698 228.523 378.746 231.862C378.373 232.26 377.978 232.283 377.561 231.931C374.392 229.095 371.224 226.258 368.055 223.422Z" fill="#B97A2D"/>
<path d="M232.817 69.1205C236.332 68.1906 239.915 67.9999 243.512 68.3223C244.399 68.4019 246.199 68.716 243.972 69.9248C240.563 70.8519 237.094 70.1859 233.655 70.2865C233.041 70.3044 232.75 69.7616 232.817 69.1205Z" fill="#057D3B"/>
<path d="M324.457 147.078C324.789 146.749 325.121 146.419 325.454 146.09C328.114 148.796 330.774 151.503 333.434 154.21C329.931 152.46 326.814 150.243 324.457 147.078Z" fill="#AE702F"/>
<path d="M364.005 212.134C365.323 211.629 365.9 214.156 367.387 212.959C369.985 214.79 371.66 217.464 373.667 219.835C373.283 220.242 372.852 220.3 372.373 220.009C369.584 217.384 366.794 214.759 364.005 212.134Z" fill="#BD6C1C"/>
<path d="M286.053 103.286C285.673 103.678 285.292 104.07 284.911 104.463C282.614 101.585 281.137 98.2778 279.889 94.8515C279.586 94.4728 279.616 94.1218 279.977 93.7988C282.327 96.7533 284.281 99.9619 286.053 103.286Z" fill="#A36929"/>
<path d="M190.765 149.488C191.085 149.824 191.404 150.159 191.723 150.494C189.135 153.339 186.546 156.185 183.957 159.03C183.169 159.25 182.842 158.988 183.049 158.164C185.621 155.272 188.193 152.38 190.765 149.488Z" fill="#BB7727"/>
<path d="M321.052 91.3818C323.332 93.3755 325.611 95.369 327.891 97.3627C328.071 98.1949 327.816 98.5849 326.918 98.3209C324.424 96.2556 321.931 94.1903 319.438 92.125C319.448 90.7313 320.112 90.7564 321.052 91.3818Z" fill="#B86C1A"/>
<path d="M93.1895 265.864C96.1855 263.344 99.0451 264.955 101.65 264.384C99.4478 267.242 96.7558 267.066 93.1895 265.864Z" fill="#E6E3E2"/>
<path d="M232.817 69.1201C236.423 70.9367 240.267 69.4673 243.972 69.9246C239.41 72.0104 234.562 69.9166 229.438 71.3038C230.454 69.5865 231.524 69.1704 232.817 69.1201Z" fill="#4D6853"/>
<path d="M324.427 195.066C325.25 194.711 325.333 193.972 325.388 193.218C327.74 195.811 330.091 198.405 332.443 200.999C332.094 201.423 331.724 201.443 331.332 201.057C328.919 199.189 326.193 197.681 324.427 195.066Z" fill="#BA7728"/>
<path d="M200.263 116.273C199.899 115.93 199.536 115.587 199.171 115.244C201.118 112.825 203.667 111.103 206.112 109.26C206.608 108.947 207.051 109.01 207.44 109.448C205.047 111.723 202.655 113.998 200.263 116.273Z" fill="#C27B24"/>
<path d="M145.996 238.282C147.206 235.203 149.987 234.801 153.232 233.796C151.509 237.255 148.144 236.761 145.996 238.282Z" fill="#A56C2D"/>
<path d="M215.952 425.603C218.781 425.124 220.299 427.027 222.527 427.354C219.37 430.111 218.824 429.956 215.952 425.603Z" fill="#F0EDEC"/>
<path d="M384.516 231.04C385.738 232.214 386.984 233.365 388.165 234.58C388.423 234.846 388.454 235.334 388.657 235.912C385.412 236.414 384.479 234.145 383.458 231.997C383.286 231.098 383.649 230.79 384.516 231.04Z" fill="#AE681C"/>
<path d="M382.844 202.73C383.161 202.399 383.477 202.068 383.795 201.736C385.879 203.787 387.963 205.838 390.047 207.889C387.18 206.758 384.435 205.514 382.844 202.73Z" fill="#9D6934"/>
<path d="M398.855 215.726C399.728 215.412 399.848 214.66 399.925 213.884C401.799 216.216 402.579 218.993 403.74 222.807C401.011 220.311 399.951 218.006 398.855 215.726Z" fill="#AD702F"/>
<path d="M101.426 274.061C101.491 275.747 100.549 276.334 99.3334 276.483C98.2731 276.614 97.7209 275.629 97.6437 274.9C97.4607 273.173 99.3505 273.185 100.271 272.658C101.289 272.075 101.091 273.655 101.426 274.061Z" fill="#C9C4C4"/>
<path d="M321.052 91.3825C320.405 91.3941 319.77 91.4324 319.437 92.1261C317.311 90.8857 315.184 89.6456 312.355 87.9963C316.347 87.9452 318.766 89.5015 321.052 91.3825Z" fill="#946631"/>
<path d="M121.48 247.401C121.774 247.675 122.068 247.949 122.362 248.224C121.429 249.265 120.187 249.717 118.884 250.055L118.661 249.796C119.622 247.814 118.818 245.051 121.335 243.758C121.594 244.01 121.853 244.263 122.112 244.514C122.691 245.648 119.964 246.061 121.48 247.401Z" fill="#9B6430"/>
<path d="M257.447 74.4463C258.945 77.5694 258.566 79.4829 257.757 81.3941C256.421 79.4714 256.64 77.5571 257.447 74.4463Z" fill="#177244"/>
<path d="M245.729 123.149C245.477 122.856 245.225 122.564 244.973 122.271C246.136 119.545 247.299 116.818 248.462 114.092C248.608 117.479 247.233 120.335 245.729 123.149Z" fill="#9D7041"/>
<path d="M207.44 109.449C206.997 109.386 206.555 109.324 206.112 109.261C208.124 107.564 210.136 105.867 212.147 104.171C211.141 106.544 209.807 108.512 207.44 109.449Z" fill="#9D6F35"/>
<path d="M169.524 177.209C169.198 176.868 168.873 176.527 168.547 176.186C170.14 173.994 171.55 171.654 173.646 169.867C174.062 170.245 174.097 170.656 173.752 171.1C172.465 173.221 171.396 175.493 169.524 177.209Z" fill="#B6752E"/>
<path d="M296.944 134.288C296.7 134.559 296.455 134.831 296.21 135.102C294.287 132.707 293.258 129.889 292.732 126.789C294.136 129.289 295.54 131.789 296.944 134.288Z" fill="#8F693C"/>
<path d="M183.049 158.164C183.352 158.453 183.654 158.741 183.957 159.029C182.612 161.326 180.51 162.823 177.982 163.97C179.671 162.035 181.36 160.099 183.049 158.164Z" fill="#6D5434"/>
<path d="M243.097 76.7433C239.086 76.7449 235.075 76.7464 231.063 76.7476C235.074 75.4518 239.085 75.4212 243.097 76.7433Z" fill="#4A6C52"/>
<path d="M213.183 99.2004C212.85 98.3331 212.075 98.2697 211.317 98.1736C212.832 96.8714 214.52 95.9504 217.128 95.6211C216.196 97.6929 214.949 98.7044 213.183 99.2004Z" fill="#976530"/>
<path d="M335.678 98.1827C335.373 98.497 335.069 98.8113 334.764 99.1259C332.754 97.836 330.747 96.5441 328.372 93.6309C331.805 95.0775 333.775 96.571 335.678 98.1827Z" fill="#A37036"/>
<path d="M378.531 220.741C378.882 220.73 379.233 220.718 379.585 220.707C381.451 222.171 383.065 223.859 383.765 226.463C382.02 224.556 380.276 222.648 378.531 220.741Z" fill="#956E42"/>
<path d="M275.704 424.703C275.657 425.37 275.698 426.246 274.839 426.305C273.331 426.408 273.171 425.141 273.008 424.061C272.912 423.428 272.805 422.462 273.716 422.463C275.027 422.464 275.535 423.496 275.704 424.703Z" fill="#CCAC15"/>
<path d="M127.328 197.406C127.585 197.991 127.842 198.576 128.099 199.16C127.525 201.177 126.551 202.985 124.92 205.228C125.262 202.02 126.068 199.648 127.328 197.406Z" fill="#A46A33"/>
<path d="M384.564 181.321C384.893 181.31 385.221 181.3 385.551 181.289C387.449 182.971 388.558 185.138 388.863 187.867C387.43 185.685 385.997 183.503 384.564 181.321Z" fill="#9A6D43"/>
<path d="M292.737 153.871C292.44 153.887 292.142 153.903 291.844 153.919C290.984 151.927 290.124 149.935 289.264 147.942C288.987 147.545 289.05 147.193 289.407 146.881C290.986 148.987 292.125 151.303 292.737 153.871Z" fill="#99723F"/>
<path d="M326.918 98.3212C327.243 98.002 327.567 97.6828 327.892 97.3633C329.463 98.2709 330.678 99.5465 332.087 101.436C329.524 101.139 328.124 99.9007 326.918 98.3212Z" fill="#986638"/>
<path d="M288.5 85.388C291.651 85.3811 294.803 85.3741 297.955 85.3672C294.806 86.7729 291.654 86.7177 288.5 85.388Z" fill="#446D57"/>
<path d="M218.239 105.015C218.805 102.69 221.097 102.34 222.567 101.046C221.614 102.919 220.606 104.725 218.293 105.078L218.239 105.015Z" fill="#795938"/>
<path d="M355.258 124.833C355.582 124.521 355.906 124.21 356.23 123.898C357.658 124.764 358.742 125.974 359.679 127.334C359.388 127.62 359.097 127.906 358.806 128.193C357.32 127.393 356.168 126.241 355.258 124.833Z" fill="#A86E2E"/>
<path d="M385.336 158.201C385.663 157.883 385.991 157.566 386.318 157.248C387.505 158.776 388.447 160.411 388.71 162.557C386.726 161.595 386.17 159.791 385.336 158.201Z" fill="#956E42"/>
<path d="M372.373 220.009C372.803 219.951 373.233 219.893 373.665 219.835C375.009 220.96 376.352 222.085 377.695 223.21C377.414 223.497 377.134 223.785 376.854 224.072C375.016 223.142 373.678 221.597 372.373 220.009Z" fill="#996936"/>
<path d="M235.436 79.3144C238.156 77.7379 241.131 78.8593 243.967 78.5116C241.263 80.2639 238.277 79.0167 235.436 79.3144Z" fill="#466E58"/>
<path d="M189.097 448.623C188.065 450.473 186.54 451.825 184.76 452.92C185.398 450.674 186.794 449.19 189.097 448.623Z" fill="#A0353B"/>
<path d="M397.273 191.714C397.597 191.387 397.922 191.06 398.246 190.733C399.276 191.953 399.615 193.42 399.584 195.113C398.614 194.12 397.465 193.284 397.273 191.714Z" fill="#A76F37"/>
<path d="M389.544 244.871C389.913 244.5 390.282 244.128 390.652 243.757C391.817 244.144 393.021 244.484 393.378 246.165C391.94 245.938 390.61 245.864 389.544 244.871Z" fill="#9B6D39"/>
<path d="M303.119 117.066C303.406 116.775 303.693 116.483 303.98 116.192C304.933 117.331 306.073 118.359 306.376 120.387C304.739 119.471 303.821 118.383 303.119 117.066Z" fill="#A27137"/>
<path d="M375.756 241.426C376.117 241.062 376.478 240.697 376.838 240.333C378.143 240.62 379.188 241.265 379.999 242.767C378.311 242.716 376.959 242.356 375.756 241.426Z" fill="#AF7731"/>
<path d="M225.338 105.957C224.966 105.923 224.594 105.889 224.223 105.854C225.161 104.472 226.243 103.274 228.217 102.495C227.559 104.325 226.496 105.183 225.338 105.957Z" fill="#886646"/>
<path d="M364.648 126.683C365.073 126.594 365.498 126.504 365.923 126.414C367.25 126.644 368.01 127.489 368.744 128.82C366.722 128.856 365.644 127.846 364.648 126.683Z" fill="#8E6635"/>
<path d="M333.957 136.752C333.659 137.045 333.36 137.337 333.062 137.629C332.212 136.53 331.363 135.431 330.209 133.938C332.431 134.25 333.207 135.485 333.957 136.752Z" fill="#9E6D3F"/>
<path d="M315.981 94.7468C315.706 95.0186 315.43 95.2903 315.155 95.5619C313.713 95.0202 312.775 93.9824 311.808 92.4238C313.854 92.6337 314.849 93.8094 315.981 94.7468Z" fill="#906439"/>
<path d="M384.516 231.039C384.164 231.358 383.812 231.676 383.459 231.996C382.703 230.868 381.948 229.739 380.56 227.665C382.897 228.744 383.793 229.785 384.516 231.039Z" fill="#846241"/>
<path d="M129.88 228.376C129.365 229.842 128.249 230.701 126.687 231.815C127.099 229.765 128.024 228.628 129.095 227.577C129.357 227.844 129.618 228.11 129.88 228.376Z" fill="#5B442E"/>
<path d="M141.171 219.995C141.822 218.551 141.745 216.224 144.461 217.279C143.693 218.582 142.749 219.672 141.171 219.995Z" fill="#CA7313"/>
<path d="M264.59 78.5781C266.31 79.4526 264.208 82.6042 267.096 82.7827C265.759 84.0647 264.807 83.8873 264.569 81.9785C264.429 80.8633 264.573 79.7128 264.59 78.5781Z" fill="#417152"/>
<path d="M393.026 194.547C392.347 193.457 391.668 192.368 390.581 190.622C392.977 191.481 393.216 192.909 393.026 194.547Z" fill="#654B2A"/>
<path d="M139.255 210.291C138.565 211.92 137.532 213.216 135.805 213.839C136.167 212.067 137.334 210.801 138.511 209.54C138.759 209.79 139.007 210.041 139.255 210.291Z" fill="#724D32"/>
<path d="M320.085 120.596C320.39 120.322 320.694 120.047 320.998 119.773C322.017 120.066 322.721 120.693 323.133 121.858C321.581 122.624 320.86 121.539 320.085 120.596Z" fill="#99652C"/>
<path d="M293.664 68.165C295.497 66.6796 297.634 67.5839 299.633 67.408C297.806 68.9489 295.664 67.9957 293.664 68.165Z" fill="#44704E"/>
<path d="M377.561 231.931C377.955 231.908 378.349 231.885 378.744 231.862C379.645 232.344 380.353 233.001 380.831 234.253C379.073 234.197 378.358 233.002 377.561 231.931Z" fill="#936A39"/>
<path d="M289.406 146.88C289.359 147.235 289.312 147.589 289.264 147.942C288.388 146.927 287.549 145.898 287.884 144.298C289.005 144.888 289.285 145.837 289.406 146.88Z" fill="#736051"/>
<path d="M287.704 83.6963C287.693 84.2481 287.681 84.8 287.67 85.3517C286.898 85.3085 285.666 85.5826 285.597 84.6908C285.484 83.2101 286.88 83.8262 287.704 83.6963Z" fill="#3F644C"/>
<path d="M267.963 81.9722C267.955 80.242 267.947 78.5117 267.939 76.7812C269.243 78.5055 269.267 80.2358 267.963 81.9722Z" fill="#3D6B4F"/>
<path d="M297.09 76.7432C298.592 75.2774 300.528 76.2753 302.212 75.8428C300.763 77.6128 298.807 76.4979 297.09 76.7432Z" fill="#546E52"/>
<path d="M297.937 73.4175C296.385 74.8566 294.497 74.0101 292.758 74.1782C294.309 72.7312 296.195 73.5634 297.937 73.4175Z" fill="#46634B"/>
<path d="M331.333 201.057C331.702 201.038 332.071 201.018 332.441 200.999C333.542 201.019 334.1 201.731 335.109 203.064C333.136 202.753 332.201 201.973 331.333 201.057Z" fill="#88663A"/>
<path d="M343.43 111.826C343.107 112.14 342.784 112.453 342.461 112.766C341.697 112.391 340.543 111.679 341.065 111.053C341.838 110.126 342.747 111.151 343.43 111.826Z" fill="#A26C3A"/>
<path d="M118.884 250.054C118.235 250.957 117.56 251.804 116.034 251.289C116.746 250.33 117.606 249.907 118.663 249.797C118.661 249.796 118.884 250.054 118.884 250.054Z" fill="#69544D"/>
<path d="M393.935 231.88C394.533 231.861 395.131 231.843 395.729 231.823C396.293 232.144 397.166 232.864 396.558 233.178C395.514 233.717 394.649 232.685 393.935 231.88Z" fill="#93602E"/>
<path d="M279.977 93.7989C279.948 94.1495 279.918 94.5002 279.889 94.8512C279.215 93.983 277.925 93.2077 278.889 91.9828C279.077 91.744 279.919 92.954 279.977 93.7989Z" fill="#745B46"/>
<path d="M298.139 156.39C297.726 156.764 297.314 157.137 296.9 157.511C296.272 156.823 295.269 155.805 296.003 155.171C296.941 154.362 297.552 155.698 298.139 156.39Z" fill="#BA7C33"/>
<path d="M173.752 171.099C173.717 170.69 173.682 170.281 173.646 169.87C173.685 168.964 174.139 168.418 175.072 168.032C175.246 169.491 174.531 170.309 173.752 171.099Z" fill="#7E603F"/>
<path d="M328.878 456.558C329.214 455.227 330.152 454.413 331.279 453.761C331.319 455.414 330.284 456.145 328.878 456.558Z" fill="#AF313E"/>
<path d="M246.61 319.472C238.348 319.386 226.134 317.035 216.634 307.05C212.971 303.2 211.128 298.481 209.928 293.423C209.532 291.755 210.126 291.154 211.799 290.946C215.426 290.494 218.575 291.582 220.337 294.627C225.573 303.672 233.373 308.853 243.519 310.352C255.109 312.065 266.275 310.28 276.684 304.789C285.884 299.936 293.344 293.327 297.088 283.243C298.587 279.206 301.893 280.434 304.724 280.879C308.379 281.453 307.047 284.109 306.498 286.175C303.41 297.807 295.906 305.832 285.52 311.384C275.333 316.831 264.26 319.39 246.61 319.472Z" fill="#362E2E"/>
<path d="M248.82 265.467C242.788 265.561 236.818 263.902 233.622 257.493C230.691 251.617 230.961 245.561 234.865 240.104C238.016 235.702 242.779 233.795 247.908 232.642C253.577 231.367 259.191 231.094 264.644 233.492C274.625 237.881 277.034 248.971 269.717 257.099C264.33 263.084 257.395 265.534 248.82 265.467Z" fill="#362E2E"/>
<path d="M268.686 211.256C268.528 206.501 270.04 202.294 273.006 198.63C276.742 194.016 283.097 192.652 288.432 195.099C290.042 195.838 290.65 197.116 291.237 198.618C293.549 204.538 293.013 210.292 290.439 215.971C287.4 222.677 282.888 225.373 276.751 224.139C271.511 223.085 268.625 218.475 268.686 211.256Z" fill="#362E2E"/>
<path d="M249.289 205.822C249.423 210.382 248.2 214.51 245.639 218.289C242.959 222.245 239.055 223.123 234.754 222.413C230.681 221.741 228.53 218.893 227.46 214.997C225.062 206.265 229.883 196.33 237.661 194.197C244.473 192.329 247.533 194.177 248.943 201.148C249.25 202.667 249.183 204.262 249.289 205.822Z" fill="#362E2E"/>
<path d="M302.378 257.625C300.864 257.07 298.75 257.553 298.763 255.277C298.777 252.826 300.634 251.812 302.728 251.653C304.932 251.485 306.297 253.062 306.337 255.046C306.393 257.771 303.73 256.862 302.378 257.625Z" fill="#3C3030"/>
<path d="M314.44 258.435C312.863 258.326 310.638 258.569 310.747 255.491C310.81 253.718 311.261 252.365 313.414 252.464C315.948 252.581 317.318 253.929 317.622 256.417C317.906 258.746 316.26 258.429 314.44 258.435Z" fill="#382E2E"/>
<path d="M299.102 258.47C300.181 259.808 303.003 259.916 302.843 262.272C302.718 264.118 301.298 265.539 298.982 265.455C296.842 265.379 296.067 264 296.569 262.386C296.989 261.038 296.155 258.627 299.102 258.47Z" fill="#3B302E"/>
<path d="M205.514 251.998C205.668 253.732 204.748 254.539 202.76 254.21C200.486 253.833 199.183 252.604 199.498 250.224C199.723 248.528 200.992 247.736 202.546 248.273C204.075 248.8 206.328 249.047 205.514 251.998Z" fill="#3D322D"/>
<path d="M202.084 263.805C200.355 263.751 198.582 263.681 198.597 261.526C198.61 259.458 200.208 258.581 202.044 258.528C203.871 258.476 205.292 259.082 205.428 261.391C205.6 264.303 203.427 263.443 202.084 263.805Z" fill="#382F2D"/>
<path d="M291.964 256.835C292.026 258.695 290.946 259.525 289.28 259.275C287.726 259.041 285.478 259.004 285.782 256.663C285.951 255.357 286.361 253.143 288.463 253.444C290.177 253.689 292.275 254.196 291.964 256.835Z" fill="#3E322E"/>
<path d="M219.35 262.185C219.096 264.085 217.935 265.262 216.022 265.245C214.054 265.227 212.99 263.969 212.964 261.97C212.935 259.695 214.779 259.638 216.209 259.651C217.671 259.663 219.455 259.859 219.35 262.185Z" fill="#382D30"/>
<path d="M298.039 248.132C296.562 247.663 294.608 247.233 294.604 245.144C294.6 242.962 296.605 243.05 298.115 243.069C299.787 243.09 301.393 243.729 301.209 245.749C301.068 247.292 299.93 248.236 298.039 248.132Z" fill="#3F322E"/>
<path d="M310.572 250.018C309.373 249.68 307.451 250.721 307.418 248.352C307.387 246.147 308.84 245.477 310.756 245.499C312.626 245.519 314.29 246.141 314.17 248.305C314.036 250.737 311.877 249.64 310.572 250.018Z" fill="#3C312F"/>
<path d="M214.434 245.701C213.141 245.433 210.917 246.126 210.781 243.965C210.652 241.921 212.502 241.264 214.367 241.216C215.952 241.176 217.232 241.646 217.375 243.488C217.535 245.553 216.141 245.76 214.434 245.701Z" fill="#3E302C"/>
<path d="M213.957 255.156C212.811 254.882 210.857 255.499 210.977 253.326C211.063 251.771 211.687 250.265 213.895 250.574C215.5 250.799 217.206 250.931 217.338 252.951C217.492 255.3 215.61 255.081 213.957 255.156Z" fill="#3E322D"/>
<path d="M118.172 239.362C118.765 237.9 118.858 237.484 119.079 237.155C120.733 234.693 122.413 232.248 124.46 230.026C123.05 233.121 123.023 237.035 118.172 239.362Z" fill="#362E2E"/>
<path d="M129.057 210.442C128.016 210.89 126.843 212.466 125.917 211.188C125.206 210.209 125.378 208.32 127.109 207.73C128.87 207.129 128.341 203.913 130.994 204.476C130.349 206.464 129.703 208.453 129.057 210.442Z" fill="#66472E"/>
<path d="M123.969 215.577C124.748 217.446 124.335 218.08 122.277 218.176C122.841 217.31 123.405 216.444 123.969 215.577Z" fill="#47332E"/>
<path d="M242.478 250.679C242.868 243.577 252.178 237.379 258.675 239.788C261.808 240.949 263.509 243.022 262.464 246.755C260.456 253.924 252.783 258.096 245.623 255.903C242.661 254.995 243.145 252.469 242.478 250.679Z" fill="#FCD202"/>
</svg>
