<?xml version="1.0" encoding="utf-8"?>
<!-- Generator: Adobe Illustrator 25.4.1, SVG Export Plug-In . SVG Version: 6.00 Build 0)  -->
<svg version="1.1" id="Layer_1" xmlns="http://www.w3.org/2000/svg" xmlns:xlink="http://www.w3.org/1999/xlink" x="0px" y="0px"
	 viewBox="0 0 512 512" style="enable-background:new 0 0 512 512;" xml:space="preserve">
<style type="text/css">
	.st0{fill:#151717;}
	.st1{fill:#28A2D8;}
	.st2{fill:#28A0D5;}
	.st3{fill:#29A1D6;}
	.st4{fill:#29A0D5;}
	.st5{fill:#151819;}
	.st6{fill:#161819;}
</style>
<g id="En7SHM_1_">
	<g>
		<path class="st0" d="M35.1,278.4c-5.6-5-8.6-11.3-7-18.6c0.9-4.5-2.8-4.9-4.4-6.7c-9.2-10.1-7-20,6.2-23.7
			c5.3-1.5,7.7-2.7,4.8-8.7c-3.6-7.3,1.6-12.1,6.4-16.5c4.8-4.4,10.8-5.1,16.4-2c6.7,3.7,12.7,8.5,15.1,16.4c1.3,4.3,3,7.7,8.7,6.9
			c5.4-0.8,8.1-2.4,9-8.8c2.7-19.4,9.3-37.7,20.1-54.1c7.8-11.9,14.7-24.4,21.9-36.6c5.5-9.2,12.4-17.1,21-23.4
			c18.3-13.2,36.4-27.2,58.1-34.3c57-18.6,113.4-23.4,165.6,13.8c18.9,13.5,32.9,31.5,40.4,54c8.2,24.5,15.4,49.3,14.4,75.5
			c-0.2,5.4-0.6,10.8-1.1,16.2c-0.3,3.5-0.8,6.6,4,7.9c4.5,1.2,7.1-0.5,8.9-4.2c3.4-7.2,9.6-11.1,16.5-13.8
			c6.5-2.6,12.6-1.6,17.4,3.9c6.2,7,7.2,12.3,2.7,19.3c-2.5,4-1.5,5.3,2.2,6.9c7.1,3,11.8,7.9,11.5,16.2c-1.5,2.3-3.1,4.6-4.6,6.9
			c-7.1,2.6-11.5,7-10.2,15.2c-4.5,6.2-9.6,11.2-18.3,9.6c-2.9-0.5-3.7,1.3-4.1,3.9c-1.2,7-5.8,10.6-12.6,11.5
			c-7,1-11.7-2.6-15.1-8.3c-2.8-4.7-4.1-9.9-4.8-15.3c-0.3-2.4,0-5.6-2.9-6.2c-3.6-0.7-3,3.2-3.8,5.1
			c-14.2,32.9-32.3,62.8-62.1,84.4c-12.1,8.7-24.8,16.1-39.3,19.5c-8.6,2-5.4,8.5-6,13.5c-0.7,6,3.8,5.7,7.7,6
			c19.6,1.6,39.2,3,58.4,7.7c4.3,1.1,8.5,2.4,12.2,4.9c9.4,6.4,9.8,17.5,0.8,24.6c-5.4,4.2-11.9,5.4-18.6,6.4
			c-20,2.9-39.7,0.1-59.5-2.3c-12.2-1.5-24.3-3.2-36.5-5.1c-7.2-1.1-13.6,1.5-20.1,3.6c-22.4,7.4-45.2,11.6-68.8,10.1
			c-5.5-0.3-10.7-1.4-15.8-3.4c-5.4-2.1-10.5-5-11.2-11.4c-0.7-7,2.9-12.2,8.8-15.8c17.4-10.5,36.3-16,56.5-17.2
			c0.7,0,1.6,0.1,2.2-0.1c3.1-1.2,8.6,2.9,9.4-3.1c1.3-9.6-1.7-14-9.5-14.6c-34.9-2.3-65.3-17.1-94.4-34.8
			c-11.2-6.8-18.5-18.2-24.7-29.8c-4.5-8.4-8.6-17-12.8-25.6c-2.5-5.1-3.9-10.6-5.1-16.2c-0.4-3.6-0.8-7.2-1.3-10.8
			c-0.2-1.5,0.9-3.8-1.8-4c-2-0.2-3.1,1.4-3.5,3.1c-1.5,5.7-4.3,10.8-7.1,15.9c-10.3,8.5-19.3,8.7-26,0.4c-0.7-0.9-1.9-2.1-1.8-3
			C48.7,279,41.3,279.4,35.1,278.4L35.1,278.4z M314,301.7c2.2-0.3,3.3-0.5,4.5-0.7c26.1-3.6,51.2-11.8,77-17
			c9.4-1.9,16-6.6,18.9-17.6c10.3-39.2,12.2-78-1.1-116.9c-1.2-3.6-2.7-4.6-6.3-4.1c-9.2,1.3-18.5,2-27.8,3.4
			c-34.8,5.2-70,6.2-105.1,8.4c-47.1,3-94.4,3.5-141.5-0.9c-5.5-0.5-8.7,1-12,5.7c-19.2,27.1-24.9,57.7-25,90.2
			c0,8.6,3.2,13,10.5,17.3c15.7,9.3,32.9,14.2,49.8,19.9c14.1,4.8,28.9,7.4,44,9.8c-1.1-3.8-3.8-5.8-5.8-8.1
			c-14.8-17.5-18.2-37.6-14-59.5c0.4-2.3-0.1-6.9,4.6-5.8c3.5,0.9,6.1,3.2,5.2,7.6c-0.5,2.4-0.6,4.9-0.8,7.3
			c-0.8,7.4-0.6,14.7,0.9,22c4,20,22.7,38.5,39.8,39.7c19.9,1.4,39.8,0.7,59.8,1.2c7.2,0.2,12.8-2.8,16.7-8.9
			c5-7.7,9.2-15.7,10.4-25c0.4-3.1,1.6-6.1,5.6-5.1c3.4,0.8,5.7,3,5.2,6.9c-0.2,1.7-0.8,3.3-1.2,5
			C324.1,285.5,319.6,293.3,314,301.7z M130.5,346.2c4.6,6.7,9.9,9.6,15.4,12.4c23.2,12.1,46.4,23.3,73,26.4
			c26.3,3,21.7-1.6,26.6,24.5c1.8,9.8,1.2,10.8-8.8,10.5c-20.9-0.7-40.5,3.8-58.9,13.7c-2.9,1.5-5.4,3.3-7.4,5.9
			c-2.9,3.6-2.3,6.2,1.9,8c5.7,2.6,11.9,3.1,18,3.3c24.8,1,48.2-5.2,71.3-13.4c3.5-1.2,4.8-3,4.5-7c-0.8-12-0.9-24-1.2-36
			c-0.1-2.5,0-5.1,3.4-5.5c3.1-0.3,5.4,1,6.1,4.1c0.6,2.1,0.7,4.4,0.8,6.6c0.5,10.8,0.9,21.6,1.3,32.4c0.1,2.9,0.5,5.2,4.2,5.8
			c27.2,3.8,54.4,9.2,82.1,7.2c7.1-0.5,14.4-0.9,20-6.2c5.2-4.9,4.7-8-1.7-10.9c-3.1-1.4-6.4-2.5-9.8-3.2c-19.7-4.5-39.9-5.7-60-7.1
			c-6.4-0.5-9.2-3-9.9-9.3c-0.6-6.7-0.4-13.2,0.2-19.8c0.5-5.5,2.5-6.9,7.7-7c7.3-0.2,14.3-2.4,22-8.1
			C262,374.7,196.8,361.4,130.5,346.2z M217.4,149.9c35.6,0.4,67.7-2.7,99.8-4.5c27.5-1.5,54.7-5,81.8-9c2.8-0.4,8.4,0.8,7.7-5.1
			c-0.8-6.6-6.1-11.4-10.6-11.2c-14.5,0.8-29,2.4-43.4,2.1c-64.1-1.3-128.3-0.4-191.9-10.4c-4.5-0.7-7.4,0.7-10.2,3.9
			c-7.1,7.9-12.6,16.8-17.8,26.1c-3,5.4-1.3,6.2,4.1,6.4C164.9,149.7,192.8,151.7,217.4,149.9z M383.9,326.1
			c-6.6,1.4-11.6,2.5-16.7,3.4c-5.1,0.9-10.2,1.8-15.3,2.3c-58.1,5.8-115.8,3.7-173-8.3c-22.6-4.8-45.2-9.5-67.8-14.1
			c-1.5-0.3-5.8-2.6-4.2,1.5c2.9,7.5,7,14.7,11.6,21.3c2.7,3.9,8.3,3.9,12.8,5c37.2,9.2,74.6,17.4,112.7,22c30,3.6,60,7.7,90.3,3.6
			c7.2-1,15-1,21.2-5.4C366.8,349.2,375.9,339,383.9,326.1z M166.5,102.6c9.8,2.6,18,3.8,26.3,4.7c24.7,2.8,49.5,2.7,74.3,3.7
			c27.7,1.1,55.5,2.9,83.2,2.3c12.3-0.3,24.5-1.1,36.8-1.9c2-0.1,7.1,0.5,4.2-4c-6.5-10-15.9-17.2-25.4-24.3
			c-5.4-4-10.3-0.9-15.3-0.6c-24.8,1.4-49.5,3.7-74.3,4.8c-27.2,1.2-54.4,5.1-81.5-0.5c-1.8-0.4-3.3-0.1-4.8,0.9
			C182.8,92.4,175.5,96.9,166.5,102.6z M403.4,292.6c-8.1,2.1-14.7,2.4-21.1,4.3c-24,7.2-48.5,12.8-73.4,15.5
			c-64.7,6.8-127.4-2.1-188-25.7c-6.9-2.7-13.1-6.7-19.8-9.6c-1.3-0.6-3.4-3-4.4,0.7c-1.9,6.8,4.1,18.2,11,20.5
			c15,4.9,30.7,6.9,45.9,10.4c53.6,12.5,107.6,20.1,162.9,16.2c23.6-1.7,47-4,69.9-9.9c3.3-0.8,6.7-1.5,8.4-5.2
			C397.3,304.5,400,299.3,403.4,292.6z M87.9,248.1c-0.3-13.7-0.3-13.7-13.1-11.9c-7.3,1-10.3-1.2-11.1-8.9
			c-0.6-5.5-1.3-10.7-5.7-14.7c-3.3-3-6.6-2.7-9.9,0c-3.3,2.7-4.6,5.9-2,9.6c1.5,2.2,3.5,4,5.3,6c1.7,1.8,5.4,2.7,3.9,6.2
			c-1.6,3.7-5.1,3.4-8.3,2.9c-3.9-0.7-7.6-2-11.6-0.5c-3.4,1.3-6.7,3.1-6,7.2c0.7,4.1,4.1,6.2,8.1,6.1c2.3,0,4.8-0.9,7-2
			c3.8-1.8,7.7-3.7,10,1.3c2.6,5.8-2.3,7-6.2,8.5c-1.4,0.5-2.8,1-4.1,1.7c-3.2,1.7-6.1,4-4.2,8.1c1.9,4.1,5.7,3.4,8.9,2
			c2.5-1,4.8-2.4,6.9-4.1c2.5-2,4.6-4.9,8.1-1.7c3.1,2.9,1.4,5.8-0.1,8.7c-1.5,3-3.6,5.9-4.8,9.1c-1,2.7-1.5,6.1,1.9,7.8
			c3,1.6,5.1-0.7,7-2.6c4-4.1,5.7-9.2,6-14.7c0.3-5.5,2.9-8.9,8.4-9.2c4.6-0.3,5.8-2.6,5.4-6.7C87.7,253.5,87.9,250.8,87.9,248.1z
			 M433.1,283.5c-0.3,6,0.1,10.8,3.3,15c1.7,2.2,3.6,4.5,6.7,3.4c2.8-1,2.5-3.9,2.7-6.3c0.3-4.4-2.3-8-3.3-11.9
			c-0.8-2.9-1-6.1,2.3-7.7c3.2-1.6,4.9,0.6,6.6,2.9c2.2,2.9,4.9,5.6,8.5,6.8c2.9,1,5.9,1.3,7.8-1.9c1.7-3,0.2-5.4-1.9-7.1
			c-2.6-2.2-5.7-3.8-8.4-5.8c-2.5-1.9-2.9-4.5-1.2-7.1c1.8-2.6,4.2-3.3,7-1.5c1.8,1.2,3.6,2.6,5.5,3.7c3.7,2.1,7.4,2.6,11-0.2
			c1.8-1.4,3.3-3.3,2.5-5.7c-1.4-4.2-4.9-6.1-8.9-6.7c-3.1-0.4-6.4,0-9.5-0.2c-2.6-0.2-4.8-1.7-5.6-4.1c-1.1-3,1.9-3.4,3.6-4.6
			c2.6-1.9,5.3-3.6,7.6-5.7c3.7-3.3,3-6.9-0.1-10.3c-3.2-3.4-6.6-4-10.4-1.1c-4.4,3.3-6.2,7.9-7.6,13c-2,7.3-5.3,9-12.5,6.8
			c-1.9-0.6-3.8-1.1-5.6-1.8c-3-1.2-4.5-0.2-5.1,2.9c-1.2,6.3-2.5,12.5-4,18.7c-0.6,2.5-0.7,4.5,2.1,5.2
			C432.8,273.7,433.9,278.6,433.1,283.5z M341.5,72.2c-45.7-17.3-90.2-9.4-134.2,6.4C252.2,80.4,296.9,77.7,341.5,72.2z"/>
		<path class="st1" d="M314,301.7c5.6-8.3,10.1-16.2,12.2-25.2c0.4-1.7,0.9-3.3,1.2-5c0.5-3.9-1.8-6.1-5.2-6.9c-4-1-5.2,2-5.6,5.1
			c-1.2,9.3-5.4,17.3-10.4,25c-3.9,6.1-9.5,9.1-16.7,8.9c-19.9-0.5-39.8,0.2-59.8-1.2c-17.1-1.2-35.8-19.7-39.8-39.7
			c-1.5-7.3-1.6-14.6-0.9-22c0.3-2.4,0.4-4.9,0.8-7.3c0.9-4.4-1.6-6.7-5.2-7.6c-4.7-1.1-4.2,3.4-4.6,5.8c-4.2,21.9-0.8,42.1,14,59.5
			c2,2.4,4.7,4.3,5.8,8.1c-15.2-2.4-29.9-5-44-9.8c-16.9-5.8-34.2-10.6-49.8-19.9c-7.2-4.3-10.5-8.7-10.5-17.3
			c0.2-32.4,5.8-63,25-90.2c3.4-4.7,6.5-6.2,12-5.7c47.1,4.4,94.4,3.8,141.5,0.9c35.1-2.2,70.3-3.2,105.1-8.4
			c9.2-1.4,18.5-2.1,27.8-3.4c3.6-0.5,5,0.5,6.3,4.1c13.4,38.9,11.4,77.7,1.1,116.9c-2.9,11-9.5,15.7-18.9,17.6
			c-25.8,5.2-50.9,13.4-77,17C317.3,301.2,316.2,301.4,314,301.7z M249.1,199.5c0-4.7,0.1-10.6-6.8-12.8c-4.7-1.5-9.1,0-11.7,3.9
			c-5,7.6-7.1,16-4.5,25.1c1.2,4.1,3.7,6.8,8.1,7.4c4.1,0.5,7.2-1.3,9.3-4.7C247,213,249.5,207.2,249.1,199.5z M302.5,200.4
			c0-5.5,0.3-11-5.8-13.4c-4.6-1.8-9.2-0.8-12,3.1c-5.7,7.9-8.2,16.8-4.8,26.5c1.3,3.7,3.9,6.2,8.1,6.5c4.1,0.3,7.2-1.3,9.3-4.8
			C300.7,212.6,303.3,206.8,302.5,200.4z"/>
		<path class="st2" d="M130.5,346.2c66.2,15.3,131.4,28.5,200.9,27.2c-7.7,5.8-14.7,7.9-22,8.1c-5.2,0.2-7.3,1.5-7.7,7
			c-0.6,6.7-0.8,13.2-0.2,19.8c0.6,6.3,3.5,8.8,9.9,9.3c20.1,1.4,40.2,2.7,60,7.1c3.3,0.8,6.7,1.8,9.8,3.2c6.4,2.9,6.9,6.1,1.7,10.9
			c-5.6,5.3-13,5.7-20,6.2c-27.7,2-54.8-3.3-82.1-7.2c-3.7-0.5-4.1-2.9-4.2-5.8c-0.4-10.8-0.8-21.6-1.3-32.4
			c-0.1-2.2-0.2-4.4-0.8-6.6c-0.8-3-3-4.4-6.1-4.1c-3.4,0.4-3.5,3-3.4,5.5c0.3,12,0.4,24,1.2,36c0.3,4.1-1.1,5.8-4.5,7
			c-23.1,8.2-46.5,14.4-71.3,13.4c-6.2-0.2-12.3-0.8-18-3.3c-4.1-1.8-4.8-4.4-1.9-8c2.1-2.6,4.6-4.4,7.4-5.9
			c18.4-9.9,38-14.4,58.9-13.7c10,0.3,10.6-0.7,8.8-10.5c-4.8-26.2-0.3-21.5-26.6-24.5c-26.6-3.1-49.9-14.3-73-26.4
			C140.4,355.8,135.1,352.9,130.5,346.2z"/>
		<path class="st3" d="M87.9,248.1c0,2.7-0.2,5.4,0,8.1c0.4,4.1-0.8,6.5-5.4,6.7c-5.6,0.3-8.1,3.7-8.4,9.2c-0.3,5.5-2,10.6-6,14.7
			c-1.9,1.9-4,4.2-7,2.6c-3.3-1.7-2.9-5.1-1.9-7.8c1.2-3.2,3.2-6,4.8-9.1c1.4-2.9,3.2-5.8,0.1-8.7c-3.5-3.2-5.6-0.3-8.1,1.7
			c-2.1,1.7-4.5,3.1-6.9,4.1c-3.3,1.3-7,2.1-8.9-2c-1.9-4.1,1-6.4,4.2-8.1c1.3-0.7,2.7-1.2,4.1-1.7c4-1.5,8.9-2.7,6.2-8.5
			c-2.3-5-6.2-3.2-10-1.3c-2.2,1-4.6,1.9-7,2c-4,0.1-7.4-2-8.1-6.1c-0.7-4.1,2.5-5.9,6-7.2c4-1.5,7.7-0.2,11.6,0.5
			c3.2,0.6,6.7,0.9,8.3-2.9c1.5-3.5-2.2-4.3-3.9-6.2c-1.8-2-3.8-3.8-5.3-6c-2.6-3.7-1.2-7,2-9.6c3.3-2.7,6.6-3,9.9,0
			c4.4,4,5.1,9.2,5.7,14.7c0.8,7.8,3.8,9.9,11.1,8.9C87.6,234.4,87.6,234.4,87.9,248.1z"/>
		<path class="st4" d="M433.1,283.5c0.7-5-0.3-9.8-7.2-11.5c-2.8-0.7-2.8-2.7-2.1-5.2c1.6-6.2,2.8-12.4,4-18.7
			c0.6-3.2,2.1-4.2,5.1-2.9c1.8,0.7,3.7,1.2,5.6,1.8c7.2,2.2,10.6,0.5,12.5-6.8c1.4-5.1,3.2-9.8,7.6-13c3.9-2.8,7.3-2.3,10.4,1.1
			c3.1,3.4,3.8,7,0.1,10.3c-2.3,2.1-5.1,3.8-7.6,5.7c-1.7,1.2-4.6,1.6-3.6,4.6c0.9,2.5,3,4,5.6,4.1c3.2,0.2,6.4-0.2,9.5,0.2
			c4.1,0.6,7.5,2.5,8.9,6.7c0.8,2.4-0.6,4.3-2.5,5.7c-3.6,2.8-7.3,2.3-11,0.2c-1.9-1.1-3.6-2.5-5.5-3.7c-2.8-1.8-5.2-1.2-7,1.5
			c-1.7,2.6-1.4,5.2,1.2,7.1c2.7,2.1,5.8,3.6,8.4,5.8c2.1,1.8,3.7,4.1,1.9,7.1c-1.9,3.3-4.9,2.9-7.8,1.9c-3.6-1.2-6.3-3.9-8.5-6.8
			c-1.7-2.3-3.5-4.5-6.6-2.9c-3.3,1.7-3.1,4.8-2.3,7.7c1.1,4,3.7,7.5,3.3,11.9c-0.2,2.5,0.1,5.3-2.7,6.3c-3.1,1.1-5-1.2-6.7-3.4
			C433.2,294.4,432.8,289.5,433.1,283.5z"/>
		<path class="st5" d="M249.1,199.5c0.4,7.7-2.1,13.5-5.5,18.9c-2.1,3.3-5.2,5.2-9.3,4.7c-4.4-0.5-7-3.3-8.1-7.4
			c-2.6-9.1-0.5-17.5,4.5-25.1c2.6-3.9,7-5.4,11.7-3.9C249.2,188.9,249.1,194.8,249.1,199.5z"/>
		<path class="st6" d="M302.5,200.4c0.7,6.4-1.9,12.2-5.1,17.8c-2,3.5-5.2,5.1-9.3,4.8c-4.2-0.3-6.8-2.8-8.1-6.5
			c-3.4-9.7-1-18.5,4.8-26.5c2.8-3.9,7.4-4.9,12-3.1C302.8,189.4,302.5,194.9,302.5,200.4z"/>
	</g>
</g>
</svg>
