<?xml version="1.0" encoding="utf-8"?>
<!-- Generator: Adobe Illustrator 25.4.1, SVG Export Plug-In . SVG Version: 6.00 Build 0)  -->
<svg version="1.1" id="Layer_1" xmlns="http://www.w3.org/2000/svg" xmlns:xlink="http://www.w3.org/1999/xlink" x="0px" y="0px"
	 viewBox="0 0 512 512" style="enable-background:new 0 0 512 512;" xml:space="preserve">
<style type="text/css">
	.st0{fill:#1D1D1B;}
	.st1{fill:#269FDA;}
	.st2{fill:#0E8D37;}
	.st3{fill:#269ED9;}
	.st4{fill:#279DD5;}
	.st5{fill:#49664C;}
	.st6{fill:#416B4D;}
	.st7{fill:#263585;}
</style>
<g id="vMjdTm_1_">
	<g>
		<path class="st0" d="M313.9,70.8c12.9,2.2,24.7,1.3,36.5,0.8c7.5-0.3,15-0.6,22.4,0.4c6.2,0.8,7.9,2.7,8.2,9
			c0,1.2,0.1,2.3-0.1,3.5c-8.3,51.6-8.4,103.8-8.9,155.8c-0.6,55.1,1.6,110.2,2.3,165.3c0.1,7.2-2.3,9.7-9.4,9.3
			c-25.5-1.3-50.9-1.8-76.4-0.1c-4.2,0.3-5.5,1.3-4.7,5.6c1.4,7.6,5.3,13.9,9.2,20.3c4,6.5,8.6,12.7,12.1,19.5
			c7.2,14.2,3.8,24.7-10.6,31.5c-15,7.1-30.7,10.5-47.3,9.1c-3.7-0.3-7.3-1.4-10.4-3.3c-13.7-8.4-28.7-12.9-44.3-15.6
			c-12.2-2.2-19.4-9.9-22-21.7c-2.6-11.9,2.6-21.2,12.1-28c10.2-7.4,21.8-10.3,34.4-8.7c1.5,0.2,3,0.3,4.5,0.4
			c0.3,0,0.6-0.1,0.9-0.2c-1.3-5.5-4.1-7.9-10.3-8.9c-6.2-1-12.3-0.1-18.4,0.2c-15.8,0.7-31.6,0.7-47.5,0.6c-4.1,0-5.3-1.6-6-5.2
			c-3.1-16.2-3.4-32.7-4.9-49.1c-4.4-50.2-3.9-100.5-2.8-150.7c0.9-38.3,0.6-76.6,3.8-114.8c0.4-5.3,1.5-10.5,1.9-15.8
			c0.2-2.8,2-3,4-3.3c11.3-1.5,22.6-0.8,33.9-0.1c7.1,0.4,14.3,0.8,21.4-0.2c3.7-0.6,3.4-1.7,1.2-3.8c-0.7-0.7-1.5-1.4-2-2.2
			c-1.9-3.1-0.3-6,3.3-6.2c4.5-0.2,8.3,2.1,12.2,4c8.1,3.9,8.7,3.5,9-5.5c0.4-11.4-2-22.5-2.8-33.8c-1.1-14.8-3.3-12.3,10.5-13.7
			c14.9-1.5,29.9-2,44.8-2.9c5.3-0.3,10.3-2.4,15.8-2.1c5.6,0.3,7.5,1.9,7.2,7.5c-0.8,14.3-1.6,28.6-2.7,42.9
			c-0.4,4.7,1.1,5.6,5.1,3.7c4.1-1.8,8.2-3.5,12.4-5.2c2.7-1.1,5.6-1.5,8.2-0.2c2.2,1,4.6,2.3,4.4,5.4c-0.2,2.9-2,4.4-4.6,5.2
			C318.1,69.7,316.6,70.1,313.9,70.8z"/>
		<path class="st1" d="M297.7,309.9c-14.5-8.7-29.5-12.1-45.5-11.1c-21.4,1.4-39.7,10.1-56.1,23.5c-12.5,10.2-21.3,23.2-27.7,37.9
			c-1.3,2.9-2,6-1.5,9.2c0.7,4.3,3.3,5.5,7,3.3c5-3,8.1-7.8,9.4-13.1c5.3-21.5,21.2-32.8,39.6-41.4c14.8-6.9,30.2-11.2,46.9-8.3
			c10.5,1.8,19.9,8.2,24.8,17.8c-3.6,0-7-0.2-10.4,0c-10.1,0.7-18,9.3-18.1,19.7c-0.1,9.5,6.3,16.5,16.8,17.4
			c4.4,0.4,2.9,3.2,2.9,5.3c0.2,10.5,7.6,18,17.5,17.8c3.9-0.1,7.2-1.4,9.7-4.3c1.7-2,2.5-1.6,4.2,0.1c7,7.1,14.3,8.7,22.6,5.1
			c7.8-3.3,12.4-10.6,12.4-19.9c0-1.6-1-4.1,0.5-4.6c2.6-1,5.2-2.4,7.8-3.1c1.9-0.5,1.2,1.9,1.4,3c1.7,9.9,0.5,19.9,1,29.9
			c0.4,8.3,0.2,8.5-8.5,8.4c-18.5-0.2-37-0.5-55.4-0.8c-8.8-0.1-17.6,0.9-26.4,1.9c-4.2,0.5-5.2,2.4-4.4,6.4
			c2.7,14,9.2,26.3,16.1,38.5c2.7,4.8,5.9,9.3,8.1,14.3c3.5,8.1,1.8,13.5-5.8,18.2c-18.6,11.6-48.9,9.9-66.1-3.7
			c-1.7-1.3-3.2-2.9-4.6-4.5c-4.5-4.9-5.4-10.7-3-16.7c2.4-6,7.9-7.7,13.8-8.3c11.1-1,21.9,1.2,32.8,2.5c2.4,0.3,5.4,1.7,7-0.7
			c1.8-2.7,0.1-5.5-1.7-7.8c-5.7-7.2-7.5-15.8-8.7-24.6c-0.4-2.6-0.9-5.2-1.8-7.7c-2.1-6-5.1-7.5-11.3-7.3
			c-29.3,1.1-58.6,1.5-87.9,1.4c-3.1,0-3.6-1.7-3.8-4c-1.4-15.6-2.9-31.1-4-46.7c-2.3-35.2-3-70.6-2.8-105.9
			c0.2-36.1,1.2-72.3,2.8-108.4c0.7-16.6,1.9-33.2,2.7-49.8c0.2-3.7,1.9-3.9,4.7-3.8c27.3,0.8,54.6,0.6,81.9-0.4
			c39.8-1.4,79.6-2.4,119.4-1.4c12.4,0.3,10.3-0.9,9.4,11.1c-1.4,18.4-3.2,36.8-4.2,55.2c-2.6,44.2-2.9,88.5-2,132.8
			c0.3,13.8,1.2,27.6,1.7,41.4c0.2,5.3-0.5,5.7-5.3,3.6c-1.7-0.7-3.5-2-5.1-1.9c-6.1,0.5-5-2.6-3.9-6.4c1-3.3,1.6-6.8,1.9-10.3
			c0.3-3.6-1.2-6.9-5-7.5c-3.7-0.6-5.2,2.1-6,5.7c-1.6,7.1-4.2,14-5.1,21.3c-0.2,1.3-0.4,2.7-0.3,4c0.2,2.8,0.2,6.1,2.9,7.6
			c2.9,1.5,5.9,0.2,8.4-1.7c2.9-2.2,6.1-4.1,9.5-1.8c3.3,2.2,3.2,6,2.8,9.6c-1,8.4-3.9,10.2-11.9,7.7c-2.3-0.7-4.6-1.5-6.6,0.3
			c-2,1.8,0,3.7,0.5,5.5c1.3,4.7,2.7,9.3,2,14.2c-0.7,4.6-4.5,8.7-7.7,8.6c-4.1-0.2-6.9-3.8-7.2-9.3c-0.1-3.2-0.1-6.3-0.4-9.5
			c-0.3-3-1.4-5.4-5.1-5.6c-3.5-0.2-5.8,1.1-7,4.4c-0.6,1.7-1,3.5-1.5,5.3c-0.4,1.4-0.8,2.9-1.3,4.3c-1.8,4.5-6.3,7.6-9.4,6.7
			c-2.3-0.7-3.3-6.8-1.7-11c1.4-3.8,4.2-6.7,6.7-9.9c1.1-1.4,3.9-2.5,2.2-4.9c-1.5-2.1-4-3.2-6.6-2.5c-2.1,0.5-4.1,1.5-6,2.4
			c-2,0.9-3.8,2.1-5.8,2.9c-4.9,1.9-9,0.7-10.6-3c-2.7-5.9-1.4-10.8,3.9-13.1c6.1-2.6,12.2-2.6,18,1.4c2.2,1.5,4.5,4.2,7.6,2.3
			c2.8-1.7,2.3-4.9,2.4-7.7c0.2-4.2-0.4-8.3-1.1-12.4c-1.1-7,0-13.9,1-20.8c0.5-3.6-0.3-6.7-4.7-7.4c-4.6-0.7-6.4,2.1-7.1,5.9
			C297.8,303.3,297.9,306.2,297.7,309.9z"/>
		<path class="st2" d="M232.1,56c-0.6-8.3-1.2-16.5-1.8-24.8c-0.2-3,0.2-5.7,4.1-6c14.9-1.2,29.7-3.1,44.7-3.1
			c3.2,0,4.4,0.1,4.1,4.2c-0.9,12.3-0.9,24.6-1.2,36.9c-0.2,7.1-0.3,7.2-7.3,8c-7.6,0.9-15,2.9-22.6,3c-4.7,0.7-9.5,0.7-14.2,0
			c-1.9-0.7-4.8,1.3-5.7-2.1C232.8,66.7,232.8,61.4,232.1,56z"/>
		<path class="st3" d="M217.7,436.3c-3.9,2.6-7.8,4.1-10.7,7.1c-7.3,7.6-9.5,16.5-6.8,26.7c0.3,1.2,1.8,2.6,0.2,3.6
			c-1.1,0.7-2.5,0-3.8-0.4c-8.9-3.1-13.2-11.9-10.3-21.4C190,439.3,204.2,432,217.7,436.3z"/>
		<path class="st4" d="M244.3,436.3c-4.7,1.3-6.5-0.9-7.3-4.7c-0.9-4.2-1.9-8.4-2.9-12.5c-0.5-1.9,0-3.4,2.1-3.6
			c2.3-0.1,5.8-1.8,6.4,1.4c1.3,6,4.1,11.5,5.5,17.4C249.5,439.7,244.9,435.1,244.3,436.3z"/>
		<path class="st5" d="M232.1,56c1.5,5.4,1.5,10.7,0,16.1C232.1,66.7,232.1,61.4,232.1,56z"/>
		<path class="st6" d="M237.8,74.1c4.7,0,9.5,0,14.2,0C247.3,75.7,242.6,75.7,237.8,74.1z"/>
		<path class="st0" d="M307.3,209.1c0.4,11.1-1.6,21.3-6,31c-11.1,24.3-35.3,34.7-61.6,26.5c-40.9-12.8-52.7-56.9-30.2-90.5
			c9.7-14.5,22.7-24.6,40.6-27.3c22.7-3.4,41.7,7.1,50.8,28.2C305.3,187.3,307.7,198.1,307.3,209.1z"/>
		<path class="st0" d="M280.5,135.1c-10.2-0.1-16.8-12.9-11.6-22.7c1.8-3.4,4.5-6.2,7.9-8c9.8-5.3,17.8-1.3,19.6,9.7
			C298.2,124.8,290.2,135.2,280.5,135.1z"/>
		<path class="st0" d="M243.3,118.9c0.2,2.9-1.1,7.4-3.5,11.4c-4.3,7.2-12.8,8-18.5,1.8c-6.1-6.5-6.2-19.4-0.3-25.7
			c3.5-3.7,10.6-5.4,15.2-3.2C242.1,106,243.1,111.4,243.3,118.9z"/>
		<path class="st7" d="M257.1,158.9c10.5,0.7,21,1.6,28.5,10.4c5,5.8,7.1,13.1,8.3,20.4c2.7,16.6,0.1,32.5-5.7,48.2
			c-6,16.5-19.9,23.6-37.4,21.3c-13.2-1.7-24.8-6.6-33-17.1c-7.4-9.4-9.3-20.6-8.1-32.4c1.1-11.3,4.8-21.8,11.6-30.7
			C230.2,167.2,241,158.2,257.1,158.9z"/>
	</g>
</g>
</svg>
