<?xml version="1.0" encoding="utf-8"?>
<!-- Generator: Adobe Illustrator 25.4.1, SVG Export Plug-In . SVG Version: 6.00 Build 0)  -->
<svg version="1.1" id="Layer_1" xmlns="http://www.w3.org/2000/svg" xmlns:xlink="http://www.w3.org/1999/xlink" x="0px" y="0px"
	 viewBox="0 0 512 512" style="enable-background:new 0 0 512 512;" xml:space="preserve">
<style type="text/css">
	.st0{fill:#030507;}
	.st1{fill:#009BE0;}
	.st2{fill:#020409;}
	.st3{fill:#02060D;}
	.st4{fill:#010303;}
	.st5{fill:#020303;}
</style>
<g id="OOgRCR_1_">
	<g>
		<path class="st0" d="M206.7,435.8c-2.6-0.9-5.2-1.8-7.8-2.8c-1.5-1.1-3.1-2.1-5-2.1c-2.3-1.8-4.9-2.9-7.8-3.6
			c-12.1-6.7-24.6-12.8-34-23.4c-2.8-3.1-5.7-6.1-6.7-10.5c-1.5-7.2,0.2-10.6,7.1-13.2c8.2-3.2,16.1-1.4,24,1.2
			c8.1,2.8,16.2,5.7,24.2,8.8c3.1,1.2,4.5,0.4,5.7-2.6c2.8-7,5.8-13.9,9.1-21.4c-6-0.6-11.5-0.9-16.9-1.7
			c-19.6-2.6-35.1-12.1-46-28.6c-1.7-2.6-2.7-3.5-5.6-1.4c-3.2,2.3-6.8,4.2-10.3,6c-20.1,9.9-39.2,0.6-44.3-21.2
			c-1.9-8.2-1.2-17.2,2.6-32.7c-7.5,1.6-15,2.5-22.5,2c-9-0.6-17.3-3.2-24.2-9.3c-9.3-8.2-12.6-21-8.5-32.6
			c8.3-23.7,27.6-35.7,53.5-33.3c3.5,0.3,7,1.2,11,0.5c-6.5-20.2-1.7-37.6,14.8-50.2c16-12.2,34.1-14.5,52.8-4.5
			c1.5-11.3,3.4-21.7,9.2-30.7c11.5-17.9,28.8-24.4,49-23.7c11.6,0.4,18,8.9,22.6,18.6c1.4,2.9,2.4,6.1,3.9,9.8
			c6.1-6.5,12.1-12.3,19.4-16.5c8.8-5,18.1-7.6,28.2-7.4c11.9,0.3,19.2,7.6,19.2,19.4c0,4-0.4,7.9-0.6,12.5
			c10.7-5.2,21.3-10.1,33-12c8.2-1.3,16.3-1.5,24.3,1.2c20.2,6.7,29.1,28.3,19.7,47.3c-3,6-6.7,11.5-12.1,18.9
			c37.3-10.9,62.9,0.8,77.3,35.2c0,3.8,0,7.5,0,11.3c-0.1,0.8-0.2,1.6-0.3,2.4c-0.9,1.2-1.3,2.5-1.1,4c-0.3,0.2-0.4,0.5-0.2,0.9
			c-0.3,0.5-0.5,1.1-0.8,1.6c-0.1,0.4-0.2,0.8-0.4,1.2c-0.9,0.6-1.3,1.5-1.2,2.6l0,0c-0.9,1.6-1.9,3.2-2.8,4.8l0.1-0.1
			c-0.4,0.5-0.7,1-1.1,1.6l0,0c-0.4,0.5-0.7,0.9-1.1,1.4l-0.1,0.1c-0.3,0.4-0.6,0.7-0.9,1.1c-2.4,2.5-4.8,4.9-7.2,7.4
			c-1.6,1.3-3.3,2.6-4.9,3.8c-0.4-0.1-0.7,0.1-0.9,0.5c-0.4,0.3-0.8,0.6-1.2,0.9h0c-0.6,0.4-1.2,0.7-1.8,1.1c-0.4-0.1-0.6,0-0.8,0.4
			c-0.5,0.3-1,0.6-1.6,0.9c-0.4-0.1-0.8,0-1,0.4c-0.5,0.3-1,0.6-1.4,0.9l-0.6,0l-0.5,0.4c-0.6,0.3-1.2,0.5-1.8,0.8
			c-0.7,0.2-1.3,0.3-2,0.5c-0.8,0.3-1.7,0.6-2.5,1l0,0c-3.7,1.2-10.6,0.4-5.1,7.7c0.1,0.4,0.2,0.8,0.4,1.2c0.3,0.5,0.6,0.9,0.9,1.4
			c-0.1,0.5,0,0.8,0.3,1.1c0.3,0.5,0.6,1,0.9,1.6c-0.2,0.4,0,0.7,0.3,1c0.3,0.6,0.6,1.3,0.8,1.9c0.1,0.6,0.3,1.3,0.5,1.9
			c0.3,1,0.6,2,0.8,3c0.1,1.9,0.2,3.9,0.3,5.8c-0.1,4.2-0.2,8.4-0.2,12.5l0-0.1c-0.9,1.1-1.1,2.5-1,3.9c-0.1,0.7-0.2,1.4-0.4,2.1
			c-0.9,0.8-1.1,1.8-1,2.9c-0.4,0.2-0.4,0.5-0.2,0.9c-0.3,0.5-0.5,1.1-0.8,1.6c-0.1,0.4-0.2,0.8-0.3,1.3c-0.8,0.7-1.3,1.4-1.2,2.5
			c-0.2,0.4-0.4,0.7-0.6,1.1c-18.7,30.3-47.3,41.4-81.3,42.8c-18.5,0.8-36.4-1.4-53.9-7.4c-1.2-0.4-2.4-0.8-3.6-1.1
			c-0.1,0-0.4,0.2-0.9,0.5c4.7,9.3,11,17.6,16.9,26.1c3.8,5.5,7.5,11.1,11.6,16.5c2.4,3.2,2.2,5-1.1,7.6
			c-20.5,16.3-42.4,29.9-67.7,37.4c-0.8,0.1-1.6,0.2-2.4,0.3c-4.7,0.1-9.4,0.7-13.9-1.4c-1.3-1.7-2.5-3.4-3.8-5.1
			c0-2.1,0-4.2-0.1-6.3c1.9-3.3,3.7-6.5,5.6-9.8l-0.1,0.1c2.9-3,5.7-6,8.6-8.9c1.2-1,2.3-1.9,3.5-2.9c0.9-0.7,1.9-1.5,2.8-2.2
			c0.4-0.3,0.9-0.6,1.3-1c4.1-2.8,8.3-5.5,12.4-8.3c2.1-1.2,4.2-2.3,6.4-3.5c1.2-0.5,2.5-1.1,3.7-1.6c1.4-0.7,2.8-1.3,4.2-2
			c1.1-0.2,3.1-0.1,1.5-2c-1.2-1.4-2.8-2.5-4.2-3.7c-2-2-4-4-6.1-6.1c-6.4-7.6-13-14.9-18.4-24c-7.5,15-13.6,29.4-18.7,44.3
			c-1.3,1.5-2,3.2-2.2,5.1c-0.9,1.1-1.6,2.2-1.6,3.7c-2.7,3.2-2.9,8.3-7.6,10C210.5,435.9,208.6,435.9,206.7,435.8z M333.6,375.9
			c5-0.2,10.1-0.3,15.1-0.7c22.4-1.5,41.4-10.2,56.7-26.7c18.5-19.9,19.4-44.2,2.4-64.9c-0.8-1-1.7-2-1-3.3c0.9-1.7,2.4-1.5,3.8-0.9
			c6.7,2.8,12.9,0.5,18.9-2c15.1-6.4,25.1-17.2,28.1-33.7c3.1-17-7.1-27.9-18.5-37.5c-8.4-7-18.7-10.3-30-8.6
			c-11.1,1.6-21.8,4.2-31.4,10.3c-2.2,1.4-4.7,3.5-7.2,0.5c-2.9-3.5,1.3-4.2,2.7-5.6c8.9-9.2,18-18.3,22.2-30.9
			c6.1-18.7-5.4-36.3-24.9-38.2c-3.3-0.3-6.8-0.3-10,0.2c-16.3,2.6-31.4,7.7-43,20.3c-1.9,2-3.8,3.4-6.5,1.4c-2.7-2-1.1-3.9,0.2-5.9
			c3.8-6,5.3-12.8,5.8-19.7c0.7-9.6-4.9-15.4-14.4-15.3c-19,0.2-36,12-42.6,29.8c-0.7,2-1.3,4.4-3.9,4.2c-2.6-0.3-3.7-2.3-4-4.9
			c-0.4-3.1-0.6-6.3-1.6-9.3c-6.9-21.1-14.2-29.8-39.4-21.7c-23.8,7.7-34.8,32.5-31.2,55c0.3,1.8,1.4,4-1.2,4.8
			c-2.6,0.9-4.2-1-4.4-3.2c-0.6-5.1-4.2-6.7-8.3-8.3C143,152,121.5,161,110.4,184c-5.6,11.6-5.2,22.7,2.5,33.2c1.1,1.5,2.6,3.1,1,5
			c-1.5,1.7-3,0.2-4.5-0.5c-23.4-10.8-47-2.9-59.3,16.1c-11.6,18-5.4,37.4,14.1,43.7c3.8,1.2,7.8,1.7,11.8,1.9
			c7.3,0.4,14.1-1.4,21-3.6c2.3-0.7,5.1-1.8,7.1,0.5c2,2.4-0.6,4.3-1.5,6.2c-5.5,12.7-6.7,25.6-1.1,38.5c5.8,13.3,18,17.9,31.2,12.1
			c5.4-2.4,10.2-5.7,14.4-10c4.6-4.8,6.8-4.3,9.7,1.7c6.3,13,16.7,21.3,29.9,26.5c10.1,4,20.7,5.2,31.5,4.7c4.8-0.2,6.7,1,4.4,6.2
			c-4.4,9.9-8.9,19.9-12.3,30.3c-0.8,2.4-2.5,3.9-4.7,2.1c-6.5-5.5-14.9-6.5-22.3-9.7c-7.1-3.1-14.7-5.2-22.6-5.3
			c-8.1-0.1-10.9,4.8-6.8,12c3,5.2,7,9.4,11.9,12.9c10.1,7.2,21.6,12.2,32.6,17.8c11,5.5,12.1,4.9,16.6-6.5c0.2-0.4,0.3-0.8,0.4-1.2
			c7.2-17.5,14.5-34.9,22.7-51.9c1-2.2,2.2-3.9,5-4.1c3.2-0.2,3.6,2.3,4.5,4.4c2.1,5.1,4.8,9.8,8.3,14.1c7.2,8.8,14.4,17.5,24,23.8
			c1.3,0.9,3.2,1.9,2.8,3.8c-0.4,1.9-2.4,1.9-4,2.5c-14.5,5.5-27.5,13.4-39.4,23.2c-3.1,2.5-5.7,5.6-7.6,9.2
			c-1.8,3.3-4.6,6.7-1.8,10.4c2.8,3.7,6.9,2,10.5,1.1c22.6-5.4,41.5-17.8,59.6-31.7c3.8-2.9,4-5,1.1-9
			c-10.5-14.4-21.5-28.5-29.4-44.7c-1.1-2.2-3.8-4.9-0.8-7.3c2.3-1.9,5.1-1.3,7.7,0.3C295.4,373.6,314.1,376.3,333.6,375.9z"/>
		<path class="st1" d="M333.6,375.9c-19.5,0.4-38.1-2.4-55-13c-2.5-1.6-5.4-2.2-7.7-0.3c-3,2.4-0.3,5.1,0.8,7.3
			c7.9,16.1,18.9,30.3,29.4,44.7c2.9,3.9,2.7,6-1.1,9c-18.1,13.9-37,26.3-59.6,31.7c-3.6,0.9-7.7,2.5-10.5-1.1
			c-2.8-3.7,0-7.2,1.8-10.4c1.9-3.5,4.5-6.6,7.6-9.2c11.9-9.8,25-17.7,39.4-23.2c1.6-0.6,3.6-0.7,4-2.5c0.4-2-1.5-3-2.8-3.8
			c-9.6-6.3-16.9-15-24-23.8c-3.5-4.3-6.2-9-8.3-14.1c-0.9-2.1-1.2-4.5-4.5-4.4c-2.8,0.1-4,1.9-5,4.1c-8.2,17-15.6,34.4-22.7,51.9
			c-0.2,0.4-0.3,0.8-0.4,1.2c-4.5,11.4-5.7,12-16.6,6.5c-11-5.6-22.5-10.5-32.6-17.8c-4.9-3.5-8.9-7.7-11.9-12.9
			c-4.1-7.1-1.3-12.1,6.8-12c7.9,0.1,15.4,2.1,22.6,5.3c7.4,3.3,15.8,4.2,22.3,9.7c2.2,1.8,3.9,0.3,4.7-2.1
			c3.4-10.4,7.9-20.3,12.3-30.3c2.3-5.2,0.4-6.4-4.4-6.2c-10.8,0.5-21.4-0.7-31.5-4.7c-13.2-5.2-23.6-13.5-29.9-26.5
			c-2.9-6-5-6.5-9.7-1.7c-4.2,4.3-9,7.6-14.4,10c-13.2,5.8-25.4,1.2-31.2-12.1c-5.7-12.9-4.5-25.8,1.1-38.5c0.9-2,3.4-3.8,1.5-6.2
			c-2-2.4-4.8-1.2-7.1-0.5c-6.8,2.2-13.7,4-21,3.6c-4-0.2-8-0.7-11.8-1.9c-19.5-6.3-25.6-25.8-14.1-43.7
			c12.2-19.1,35.8-26.9,59.3-16.1c1.5,0.7,3,2.2,4.5,0.5c1.6-1.9,0.1-3.5-1-5c-7.7-10.6-8.1-21.7-2.5-33.2
			c11.2-23,32.7-32,55.4-23.2c4.1,1.6,7.7,3.2,8.3,8.3c0.3,2.2,1.8,4.1,4.4,3.2c2.6-0.9,1.5-3,1.2-4.8c-3.6-22.5,7.4-47.4,31.2-55
			c25.2-8.1,32.5,0.6,39.4,21.7c1,3,1.2,6.2,1.6,9.3c0.3,2.6,1.4,4.7,4,4.9c2.6,0.3,3.2-2.2,3.9-4.2c6.7-17.8,23.6-29.6,42.6-29.8
			c9.6-0.1,15.2,5.7,14.4,15.3c-0.5,6.9-2,13.7-5.8,19.7c-1.3,2-2.9,3.9-0.2,5.9c2.7,2,4.6,0.6,6.5-1.4c11.6-12.6,26.7-17.7,43-20.3
			c3.3-0.5,6.7-0.5,10-0.2c19.5,1.9,31,19.6,24.9,38.2c-4.1,12.6-13.2,21.7-22.2,30.9c-1.4,1.4-5.6,2.1-2.7,5.6
			c2.5,3.1,5,0.9,7.2-0.5c9.6-6.1,20.4-8.6,31.4-10.3c11.3-1.7,21.6,1.6,30,8.6c11.4,9.6,21.6,20.5,18.5,37.5
			c-3,16.5-13,27.4-28.1,33.7c-6,2.5-12.2,4.8-18.9,2c-1.5-0.6-2.9-0.8-3.8,0.9c-0.7,1.3,0.2,2.4,1,3.3c16.9,20.7,16.1,45-2.4,64.9
			C390,365,371,373.7,348.7,375.2C343.6,375.6,338.6,375.7,333.6,375.9z M263.4,300.3c25.5-1,53-14.7,71.2-44.7
			c7.3-12,11.1-25.3,11.8-39.4c0.1-3-0.2-5.6-3.9-5.9c-3.5-0.3-4.9,1.5-5.3,4.7c-0.3,2.5-0.9,5-1,7.5c-0.5,8.3-2.7,16.2-6.5,23.5
			c-26.5,51.5-78.9,57.9-124.9,32.7c-23.6-12.9-35.4-35.7-39.6-62.1c-0.6-3.6-1.3-7-6-6.2c-4.8,0.8-3.4,4.5-2.9,7.5
			C165.4,269.1,202.7,300.4,263.4,300.3z M379,306.8c9.8-9.5,7.8-19.8,4.1-30.3c-0.9-2.5-2.7-3.9-5.3-2.9c-2.5,1-1.7,3.3-0.9,4.9
			c5.6,10.6,2.6,19.4-5.4,27.2c-1,1-2.4,1.9-1.6,3.7c0.8,1.7,2.3,2.2,4.1,2.3c2.3,0,4.6,0.1,6.9,0.4c7.3,1.2,10.2,5,9.3,12.2
			c-0.5,4-2.1,7.7-4.9,10.7c-2.7,2.8-5.8,5.3-9.8,4.7c-4.7-0.8-2.4-5-3.1-7.8c-0.6-2.6-1.5-5.2-4.8-4.5c-3.5,0.7-1.4,3.3-1.2,5.1
			c0.8,6.2-1.1,11.2-6.2,14.8c-2.7,1.9-5.4,1.5-8-0.8c-2.4-2.2-2.1-4.2-0.6-6.6c2-3.3,2.7-7,2.5-10.9c-0.1-2.4,0.6-5.7-3.2-5.6
			c-3,0.1-2.7,2.8-2.7,5.3c0.1,7.1-3.2,12.6-9.1,16.2c-6.2,3.7-12.1,0.2-12-6.9c0.1-6.1,2.7-10.9,7.3-14.7c1.4-1.1,3.6-2.4,1.9-4.5
			c-1.6-2-3.8-1.5-5.7-0.2c-1.7,1.2-3.2,2.7-4.9,3.9c-3.1,2.1-6.8,3.3-9.8,0.4c-3.4-3.2-2-7,0.2-10.3c1.5-2.3,3.6-4,6.2-5.2
			c5.3-2.5,10.8-3.3,16.5-1.4c2.3,0.8,5.1,0.5,4.3-2.3c-1.9-6.9-3.2-13.9-4.5-20.8c-0.3-1.5-1.3-2.8-3.1-2.6c-2,0.2-1.9,1.9-1.9,3.4
			c-0.1,3.8,0,7.6,1.1,11.2c1.5,4.6,0.9,6.8-4.8,6.2c-6.8-0.7-12.9,1.6-17.4,7c-7.2,8.5-6,18.4,3.2,20.9c5.5,1.5,5.2,4.2,5.1,8.3
			c-0.2,10.5,6.3,15.9,16.6,13.9c1.8-0.4,3.7-0.8,5.4-1.6c2-1,3.2-0.7,5,0.6c8.8,6.2,13,5.8,20.6-2.3c1.7-1.8,3.3-2.7,5.9-2.6
			c10.2,0.2,20.1-7.9,22.2-17.8c1.9-8.9-1.2-14.4-9.8-17.7C384.4,308.8,382.2,308,379,306.8z M286.9,192c0-0.9,0-2.4,0-3.9
			c-0.1-5.1-2.3-9-7.1-10.8c-5.1-1.9-9.9-0.4-13,3.8c-6.5,8.9-9.2,18.8-5.8,29.7c1.4,4.4,4.4,7.2,9,7.8c4.3,0.5,7.9-1.2,10.2-4.9
			C284.4,207.3,287.6,200.5,286.9,192z M241.1,190c-0.1-1.7-0.4-3.3-0.4-5c0-5-2.4-8.4-7-10.2c-4.6-1.8-8.7-0.2-12.1,3
			c-7,6.5-10,23.1-6,31.8c3.5,7.6,12.9,9.2,18,2.6C238.5,205.8,241.5,198.4,241.1,190z"/>
		<path class="st2" d="M263.4,300.3c-60.8,0.1-98.1-31.2-107.1-82.3c-0.5-3-1.9-6.7,2.9-7.5c4.7-0.8,5.4,2.6,6,6.2
			c4.3,26.4,16.1,49.2,39.6,62.1c46,25.1,98.4,18.8,124.9-32.7c3.8-7.3,6-15.2,6.5-23.5c0.1-2.5,0.8-5,1-7.5
			c0.4-3.2,1.9-5.1,5.3-4.7c3.7,0.4,4.1,3,3.9,5.9c-0.7,14.1-4.4,27.3-11.8,39.4C316.4,285.6,288.9,299.3,263.4,300.3z"/>
		<path class="st3" d="M379,306.8c3.2,1.2,5.4,2,7.5,2.8c8.6,3.3,11.7,8.8,9.8,17.7c-2.1,9.9-12,18.1-22.2,17.8
			c-2.6-0.1-4.2,0.8-5.9,2.6c-7.7,8-11.8,8.5-20.6,2.3c-1.8-1.3-3.1-1.6-5-0.6c-1.7,0.8-3.6,1.3-5.4,1.6c-10.2,2-16.8-3.4-16.6-13.9
			c0.1-4.1,0.4-6.8-5.1-8.3c-9.2-2.6-10.4-12.4-3.2-20.9c4.5-5.4,10.6-7.6,17.4-7c5.7,0.6,6.3-1.7,4.8-6.2
			c-1.2-3.6-1.2-7.4-1.1-11.2c0-1.5,0-3.2,1.9-3.4c1.8-0.2,2.8,1.1,3.1,2.6c1.3,7,2.6,14,4.5,20.8c0.8,2.8-1.9,3.1-4.3,2.3
			c-5.7-1.9-11.1-1.1-16.5,1.4c-2.5,1.2-4.7,2.9-6.2,5.2c-2.2,3.3-3.6,7.1-0.2,10.3c3,2.8,6.7,1.7,9.8-0.4c1.7-1.2,3.2-2.7,4.9-3.9
			c1.9-1.3,4.1-1.7,5.7,0.2c1.7,2.1-0.5,3.4-1.9,4.5c-4.6,3.8-7.3,8.6-7.3,14.7c-0.1,7.1,5.8,10.7,12,6.9c6-3.6,9.3-9.1,9.1-16.2
			c-0.1-2.5-0.3-5.2,2.7-5.3c3.8-0.2,3,3.2,3.2,5.6c0.2,3.9-0.5,7.6-2.5,10.9c-1.5,2.5-1.8,4.5,0.6,6.6c2.6,2.3,5.3,2.7,8,0.8
			c5.1-3.6,7.1-8.6,6.2-14.8c-0.2-1.8-2.3-4.4,1.2-5.1c3.3-0.6,4.2,1.9,4.8,4.5c0.7,2.8-1.6,7,3.1,7.8c4,0.7,7.1-1.8,9.8-4.7
			c2.8-3,4.4-6.6,4.9-10.7c0.9-7.2-2-11.1-9.3-12.2c-2.3-0.4-4.6-0.4-6.9-0.4c-1.8,0-3.3-0.5-4.1-2.3c-0.8-1.8,0.6-2.8,1.6-3.7
			c8.1-7.9,11-16.6,5.4-27.2c-0.8-1.6-1.6-3.9,0.9-4.9c2.7-1.1,4.4,0.3,5.3,2.9C386.8,286.9,388.8,297.3,379,306.8z"/>
		<path class="st4" d="M286.9,192c0.7,8.5-2.6,15.3-6.7,21.7c-2.3,3.7-5.9,5.4-10.2,4.9c-4.6-0.6-7.6-3.4-9-7.8
			c-3.4-10.9-0.7-20.8,5.8-29.7c3.1-4.2,7.9-5.7,13-3.8c4.9,1.8,7.1,5.7,7.1,10.8C286.9,189.6,286.9,191,286.9,192z"/>
		<path class="st5" d="M241.1,190c0.4,8.4-2.6,15.8-7.5,22.2c-5.1,6.6-14.5,5.1-18-2.6c-4-8.8-0.9-25.3,6-31.8
			c3.4-3.2,7.5-4.7,12.1-3c4.6,1.7,7,5.2,7,10.2C240.7,186.7,241,188.3,241.1,190z"/>
	</g>
</g>
</svg>
