<?xml version="1.0" encoding="utf-8"?>
<!-- Generator: Adobe Illustrator 25.4.1, SVG Export Plug-In . SVG Version: 6.00 Build 0)  -->
<svg version="1.1" id="Layer_1" xmlns="http://www.w3.org/2000/svg" xmlns:xlink="http://www.w3.org/1999/xlink" x="0px" y="0px"
	 viewBox="0 0 512 512" style="enable-background:new 0 0 512 512;" xml:space="preserve">
<style type="text/css">
	.st0{fill:#E5007E;}
	.st1{fill:#231E0B;}
</style>
<path class="st0" d="M474.5,210.6c-2.6-1.3-2.8-2.3-2.2-4.8c2-8-2.9-14.3-11.3-14.9c-5.3-0.4-10.2,1.1-14.9,3.2
	c-1.3,1.2-2.4,3-4.8,2.6c0.5-2.1,2.1-2.9,3.4-4c0,0,0,0,0,0c1.1-1.7,2.1-3.4,3.2-5c4.7-7.1,8.9-14.4,9.1-23.2
	c0.3-9.8-3.9-14.2-13.8-14.7c-5.7-0.3-11.1,1-17,2.6c2.9-11.6-0.9-20.7-8.8-28.4c-6.4-6.2-13.7-10.9-22-14.1
	c-1.3-0.5-3.1-0.4-3.7-2.2c-2.6-7.9-9.2-9.3-16-9c-5,0.2-5.7-1.7-6-5.9c-0.8-12.1-6.7-18.4-18.4-19.8c-7.9-0.9-15.9-0.7-23.6,2.2
	c-6.6,2.5-14.2,3.8-20.2,0.2c-13.3-8.1-26-7.7-39.2-0.7c-5,2.7-9.8,5.6-14.4,9c-1.3,1-3.1,2.9-4.2-0.3c-2.6-7.6-8.6-11.2-15.9-12.8
	c-9.6-2.1-19.3-1.2-28.5,2.2c-11.8,4.3-14.8,13.2-8.8,24.3c1,1.9,2,3.8,3.3,5.6c1.5,2.2,0.9,3-1.5,3.7c-4.1,1.3-8.2,2.7-12.1,4.6
	c-15.6,7.4-30.7,15.6-41.5,29.6c-7.9,10.2-6.9,17.3,2.9,25.8c1.6,1.4,2,2.1,0.4,3.8c-4.5,5.1-8.2,10.9-11.7,16.8
	c-4.5,7.5-10,13.9-17.3,19c-9.6,6.6-18.3,14.3-25.5,23.7c-5.7,7.4-4.7,13,3.9,17c6.8,3.1,13.9,2.7,21.1,2c1.4-0.1,3.5-1.5,4,0.3
	c0.6,2.1,0.2,4.6-0.2,6.9c-0.4,2.1-2.5,1.2-3.8,1.1c-10.8-0.9-21.2,1-31.2,5.2c-3.3,1.3-5.6,0.9-8-1.6c-4.8-4.8-9.9-9.4-14.9-14.1
	c-4.2-4-9.1-6.9-14.7-8.1c-7.7-1.6-15.6-1.8-21.4,4.6c-5.2,5.6-4.9,12.7-2.6,19.3c2.9,8.3,8.4,14.6,16.2,18.8
	c2.9,1.6,6.3,2.6,8.9,5.6c-7.8,3.2-14.6,7.2-21.2,11.5c-5.8,3.7-7.5,7.9-5.8,14.3c2.2,7.9,7.4,13.4,14.2,17.3
	c2.9,1.7,3.6,3.2,3.1,6.2c-0.7,3.8-1.4,7.6-1.6,11.4c-0.3,5.2-0.5,10.8,4.8,13.7c6,3.3,12.7,4,18.7,0.3
	c14.9-9.2,23.9-22.7,24.9-40.3c0.3-5.8,0.7-9.4,6.5-11.4c1.7-0.6,3.4-2.5,4.2-4.2c3.6-8.1,12-7.5,18-11.5c0.3,0.8,0.5,1,0.5,1.1
	c-0.7,1.3-1.4,2.5-2.2,3.8c-8.3,14.3-11.1,29.5-6.8,45.6c2,7.3,6.2,13.3,13.8,15.1c9.2,2.1,18.1,0.6,26.5-4.1
	c6.5-3.6,12.1-8.6,18.1-13.5c1.1,3.7,1.8,6.7,2.8,9.7c3.8,10.8,10.2,18.6,22.7,19.4c1.1,0.1,2.1,0.8,3.2,1.2c7.5,3,15,4.1,22.7,0.4
	c1.2-0.6,2.5-1.6,4.3-0.7c-2.3,6.7-4.7,13.3-4.8,20.3c0,5.4-0.7,9.1-5.9,12.7c-8.6,6-12.9,15.5-14.6,25.8c-0.6,3.4-2.2,6.6-5,7.5
	c-2.9,0.8-3.7-3.1-5-5.2c-6.5-10.5-15.8-14.9-27.9-13c-3.1,0.5-5.8,0-8.8-0.8c-6.7-1.9-13.4-4.3-20.3-4.9
	c-12.6-1.1-14.4,2.2-11.8,12.6c1.4,5.6,4.4,10.8,5.8,16.4c2.2,9,6.6,15.8,15.7,19c1.8,0.6,3,1.5,3.5,3.7
	c4.7,18.9,12.1,25.5,31.3,28.2c2.1,0.3,3.9,0.5,5.7,2.4c8.8,9.2,23.5,8.6,32.1-2.7c5.9-7.8,9.5-16.7,10.9-26.5
	c0.5-3.3,0-7.3,1.8-9.6c7-9.3,7.7-21.7,16.2-30.3c2.1-2.1,3.5-3.3,6.2-3.4c9.9-0.4,18.8-3.6,26.9-9.4c3.9-2.8,6.9-6.7,11.8-8.5
	c1,5.4,1.5,10.7,3.6,15.7c2.2,5.1,5.2,9.7,8.9,13.7c1.9,2-0.2,2.5-1.2,3.4c-2.3,1.9-5.5,2.8-6.7,5.8c-1,2.6-3.1,3.5-5.5,4.6
	c-8.2,3.8-15.9,8.4-21.4,15.9c-6.7,9.1-6.3,16.5,1.9,24.4c2.6,2.5,5.1,5.1,7.6,7.8c6.7,7.4,15.1,10.2,24.8,7.6
	c10.9-2.9,20.6-8,29.2-15.4c9.2-7.9,19.1-15.2,25.3-25.9c3.5-6,6-12.4,2.6-19.8c-1.1-2.5,0.2-6.5,1.1-9.6c0.5-1.8,3-0.6,4.5-1.2
	c2.7-1.1,4.4-2.9,4.1-6.1c-0.3-3-2.4-3.7-4.9-4c-1.3-0.2-2.7-0.1-4-0.4c-1.5-0.4-3.3-1.1-1-2.8c3.9-3,2.8-6.6,0-8.8
	c-4.3-3.2-3.9-6.7-3.2-11.1c1-6.4,0-13-0.2-19.5c0-1.6-0.6-3.3,2.4-2.7c13.7,2.8,23.1-4.6,31.8-13.7c5.2-5.4,9.2-11.8,13.6-17.8
	c1.7-2.3,2.7-2,4.7-0.5c6.1,4.7,12.3,9.1,19.8,11.4c7.9,2.5,15.4,2.8,22-3.2c7.4-6.8,13.4-14.9,12-25.1c-1.5-10.6,2.8-17,9.9-24
	c9.3-9.1,8-15.3-2.3-21.7c-1.8-1.1-1.5-2.1-1.1-3.7c1.6-6.1,2.9-12.3,3.3-18.6c0.2-3,1.2-4.8,3.5-6.6c7.2-5.5,11.3-13,13.2-21.7
	C486.4,223.3,482.6,214.6,474.5,210.6z M42.1,317.3c-5.3-5.9-7.8-8.3,0.9-13.1c3.5-1.9,6.9-4,10.4-5.8c1.1-0.6,2.7-1.3,2.7,1.5
	c-0.6,0.9-1.4,1.9-2,3.1c-2.4,4.5-4.9,9-7.1,13.6C45.7,319.2,44.1,319.5,42.1,317.3z M56.4,350.5c-1.6,1.5-2.9,0.4-3.1-1.4
	c-0.5-4.2,1.2-8.1,2-12.2c0.1-0.4,0.6-0.8,1-0.9c4.2-0.7,8.3-1.4,13.2-2.2C67,341.4,61.4,345.8,56.4,350.5z M61.2,318.1
	c1.3-3.4,3.8-5.8,7.1-9.3c-0.5,5-1.8,8.2-4.1,11c-0.7,0.8-1.6,2-2.8,1.1C60.4,320.1,60.8,318.9,61.2,318.1z M67.5,278
	c-10.6-1.6-21.1-5.1-27.7-15.7c-1.9-3-2.3-6.2-0.9-9.5c2.1-4.7,6.6-6.4,10.6-3.2c8.4,6.6,15.8,14.2,21.9,23.1
	C73.5,275.8,72.1,278.1,67.5,278z M94.2,284.6c-2.2,0.6-2.5-1.6-3.3-3c-0.3-0.6-0.7-1.1-1-1.7c-0.6-1.2-3.3-1-2.2-3.2
	c0.7-1.3,2-2.3,3.6-2.4c1.9,0,3.5,1.2,4.4,2.8c0.5,0.8,0.4,1.9,0.5,2.5C96.2,281.9,96.4,284,94.2,284.6z M146.7,446.3
	c-3.6,3.9-5,2.5-7.2-0.7c-1.7-2.6-2.8-5.3-2.6-8.4c0.8-3,0-7.7,4.2-7.9c3.5-0.2,6.1,3.4,6.7,6.9C148.4,439.4,150,442.6,146.7,446.3z
	 M170,483.7c-5.4-1.1-12.8-9.6-13-15.2c-0.5-2.2,0.8-2.7,2.8-2.4c2,0.3,4.1,1,5.9,0.4c4.5-1.5,5.6,0,5.1,4.3
	c-0.4,3.5,0.6,6.9,1.7,10.2C173.5,483.9,172.3,484.2,170,483.7z M178.6,445.3c-0.1,0.3-1,0.5-1.3,0.3c-2.3-1.1-1.2-2.9-0.9-5.4
	C178.3,442.1,179.6,443.3,178.6,445.3z M185.3,475.9c-2.1-0.1-0.9-2.4-1.3-3.7c0.5-1.2-0.8-3.4,1.4-3.6c1.7-0.1,3.4,1.4,3.3,3.1
	C188.5,473.5,187.5,475.9,185.3,475.9z M282.5,467.5c-0.7,0-1.3-0.2-1.4-1c-0.1-1.5,1-1.9,2.1-2.3c1-0.3,1.7,0.3,1.6,1.2
	C284.8,466.8,283.6,467.2,282.5,467.5z M443.4,213.3c3.8-5.3,8.1-10,13.8-13.4c1.4-0.8,3.3-1.8,3.2,1.2c-0.4,7-9.3,15.2-16,14.8
	C442,215.9,442.6,214.4,443.4,213.3z M447.4,247.1c4-0.9,6.2,1.7,5.4,5.8c-0.2,1-1,1.9-0.4,2.9c5.4,8-0.3,15.2-1.6,22.7
	c-0.5,3.2-3.7,0.9-4.8,1.6c-8.7,0.2-15.9-3.3-23.8-3.9c-2.6-0.2-1.2-3-1.4-4.6c-0.5-4.1,0-7.1,5.7-7c5.4,0.1,6.9-2.3,6.8-7.8
	c0-1.2,0.2-2.3,1.2-3.1C438.5,250.6,442.7,248.2,447.4,247.1z M422.9,290.1c-0.1,1-0.9,1.4-1.7,1.4c-1.1,0-1.3-0.8-1.3-1.7
	c0.1-0.9,0.6-1.5,1.6-1.5C422.3,288.7,423,289.1,422.9,290.1z M426.1,233c-0.1,0.3-0.7,0.5-1.8,1.2c-0.5-4.8-0.7-9-2.7-13.1
	c-1.4-2.9,1.3-5,3.8-6.3c1.1-0.6,2,0.3,2,1.5C427.4,221.9,427.7,227.5,426.1,233z M417.5,178c5.7-7.1,11.2-14.4,20.7-17.1
	c3.7-1.1,5.6-0.6,5,3.8c-2,8.7-6.4,16.1-12.2,22.9c-1.3,1.5-2.2,0.6-3.3,0c-2.9-1.7-5.7-3.5-8.7-4.9
	C416.3,181.6,415.7,180.1,417.5,178z M416.5,194c2.3,1.5,6.9,3.1,4,6.4c-4.8,5.3-8.6,13.2-17.9,11.5c-1.4,0-2.5-0.1-3.7,0
	c-2.4,0.2-3.5-0.6-2.4-3.1c0.2-0.5,0.5-0.9,0.6-1.4c0.5-6.4,2.9-9.6,10-7.2c2.6,0.9,5.2-0.3,6.1-3.5
	C413.6,195.1,413.2,191.9,416.5,194z M411.1,232.8c-0.9,0.4-1.6-0.3-2.2-0.8c-2.5-2.1-5-4.3-8.3-5.3c-0.8-0.2-1.7-1.3-1.8-2.1
	c-0.2-1.1,1-1.5,1.9-2c6-3,10.9,0.4,11.2,7.6C411.8,231.1,412.3,232.2,411.1,232.8z M385.9,274.9c-2.6,1.6-5.1,0.1-7.4-1.5
	c-2.8-2-2.5-5-0.5-6.3c4-2.7,1.5-11.9,9.6-9.7c3.8,1,5.2,4.5,4.6,8.1C392.9,270.7,389.2,272.9,385.9,274.9z M384.9,202.4
	c0.9,0.4,0.8,1.2,0.6,2.1c-0.6,1.9-1.1,3.8-1.6,5.7c-2.5-0.5-5-1-7.5-1.5C376.5,205.9,382.7,201.3,384.9,202.4z M377.4,182
	c2.8-1.9,5.8-3.1,9.4-3.7c0.6,0,1.7-0.1,2,1.2c0.3,1.2-0.6,1.9-1.5,2.2c-2.9,1.1-5.9,2.1-8.8,3c-0.8,0.3-1.7,0.4-2-0.6
	C376.2,183.2,376.7,182.5,377.4,182z M387.3,236.9c-1.1-2.8,0.4-3.6,2.8-3.7c4.4-0.1,7.4,2.2,10.1,5.5c2,2.5,3.4,5.1,4.5,8.1
	C399.5,247.3,389,241.2,387.3,236.9z M399.1,171.8c0.4-1.1,1.2-1.9,2.5-1.7c0.8,0.1,1,0.7,0.9,1.4c-0.3,1.3-1.3,1.7-2.5,1.7
	C399.1,173.1,398.8,172.4,399.1,171.8z M387.7,132.1c1.1-2.8,1.7-5.7,2.3-8.6c0.5-2.5,2.1-3,4-2.3c9.7,3.8,16.9,10.6,20.1,20.4
	c1.8,5.5-1.7,10.6-4.3,15.4c1.5-13.8-7.3-19.2-18.3-19.6C387.4,137.2,386.2,136.1,387.7,132.1z M379.1,162.1
	c0.8-8,5.8-11.6,12.4-14.2c3.5-1.4,4.7,0.1,4.7,3.2c0,3.4-0.9,6.5-2.8,9.4c-0.7,1.1-1.8,2.1-2.1,3.4c-0.9,4.2-2.9,6.2-6.8,4.5
	C378,168.1,378.5,168.1,379.1,162.1z M367,118.6c0.4-2.4,3.1-2.6,5.8-2.5c1.6,0.2,4.5-0.4,5,2.1c0.6,3.2-0.7,6.5-1.9,9.5
	c-0.1,0.1-0.2,0.3-0.3,0.3c-1.2,0.3-1.9-0.4-2.3-1.3C371.7,123.4,366.2,123.1,367,118.6z M362,193.4c1.7,0.5,1.1,2.3,1,3.4
	c-0.2,5.3,0.5,10.6,1.7,15.7c0.6,2.7-0.3,4-3.3,3.8c-4.2-0.3-8.2,0.2-12.2,2.4c2.3-5.5,3.9-11,5.8-16.4c0.9-2.5,2.1-4.9,3.8-6.9
	C359.7,194.5,360.5,192.9,362,193.4z M348.1,83.4c0.4-0.5,1.5-0.6,2.2-0.5c3.5,0.3,6.3,4,6.4,9c-3.6-1.5-5.2-4.6-7.9-6.4
	C348.1,85,347.5,84.1,348.1,83.4z M317.2,96.4c0.3-3.7,9.1-8.1,14-7.3c8.4,1.5,14.6,5.9,18.2,16.1c-15.6-8.2-24.9,3.2-36.9,9.5
	C315.5,108.1,316.7,102.4,317.2,96.4z M314.6,418.7c2.3,1.2,3.8,2.7,3.7,5.3c-0.1,2.9-2.3,4.2-4.4,5.6c-2.4,1.4-4.4,0.6-6.3-1.1
	c-5.8-5.1-6.8-12.2-8-19.1c0.3-1.5-0.3-3.2,1.4-3.6c1.3-0.3,2,1,2.4,2.1C305.5,413.3,309.9,416.3,314.6,418.7z M314.4,349.4
	c1.2,3.2,0.1,4.5-1.8,5.8C311.3,352.7,312.9,351.6,314.4,349.4z M322.9,456.3c0.8,1,1.4,1.8,0.2,2.9c-1.2,1.1-2.4,1.6-4,0.7
	c-4.6-2.8-9.8-3.7-15.8-4.3C309.3,450.5,318.7,451.2,322.9,456.3z M320.7,269.5c-3.4-1.6-6.1-4-8.2-7c-1.3-2-0.3-3.2,1.7-3.5
	c1.6-0.2,3.3-0.1,5,0c2.2,0.4,5.6-0.9,6.3,1.2c0.9,2.9-0.9,6-2.2,8.9C322.7,270.3,321.6,270,320.7,269.5z M317.1,248.4
	c-1.5-1.1-0.9-2,0.2-2.6c10.3-5.6,17.7-14.3,25-23.1c0.9-1,2.3-1.9,4.8-1.2c-5.9,8.2-10.8,16.5-15.2,25.3
	C330.9,249.2,319.5,250.2,317.1,248.4z M334,161.4c0.6-1.2,1.2-2.3,1.8-3.4c5.2-1.3,5.3-1.2,4.4,4.2c-2.1,13-7.7,24.3-16.7,33.9
	c-1.3,1.4-3,3.7-4.9,2.6c-1.6-1-1.9-3.8-1.3-6c1.3-5.1,2.7-10.3,4-15.4C327.6,173.6,330.9,167.6,334,161.4z M323.4,124.2
	c0.1-1.6,1.4-2.6,2.8-3.3c1.7-0.9,3.4-2,5.5-1.9c0.8,2.2-0.2,4-1.2,5.7c-1.2,2.1-3.2,1.3-4.9,0.9
	C324.7,125.5,323.2,125.5,323.4,124.2z M327.3,210.4c0.1-1.9,1.9-3.5,3.8-3.2c1.9,0.3,2.5,2.7,2.7,4.3c0.4,2.2-1.7,1.2-2.9,1.5
	C329.6,212.2,327.1,212.7,327.3,210.4z M324.5,221.3c1.9,1.1,1.1,2.5,0,3.7c-3.8,3.7-7.5,7.6-12.1,10.2c-4.7,2.7-5.6,2.1-5.6-3.3
	c0.1-2,0.3-3.9,0.9-5.9C311,215.6,316.6,216.9,324.5,221.3z M306.5,175.5c0.5,0.5,1.1,1,1.6,1.6c-1.8,4.8-3.1,9.8-4,14.8
	c-0.2,1.1,0.6,3.5-1.4,2.8c-2.5-0.8-6.1-0.2-7.3-3.4C294.5,189.2,303.9,176.3,306.5,175.5z M300,212.7c-3.2,3.1-4.4,7.3-7.1,11.1
	c-1.1-6-1.7-12-0.4-18c0.7-2.9,2.7-3.5,5.4-2.4C303.7,205.6,304.4,208.5,300,212.7z M298.2,163.1c-3.5,4.7-7,9.4-10.6,14.2
	c-3.5-11.8,2-24.4,13.5-30.9C298.7,151.7,299.5,157.6,298.2,163.1z M298.3,125.5c-0.9,2.3-2.6,3.4-4.7,3c-2.4-0.5-4.1-2.3-4.1-4.9
	c0-0.8,0.2-3.4,2.1-2.3C293.8,122.7,297.3,122.2,298.3,125.5z M283.9,80.9c2.9-0.4,5.7-1.9,9.6-1.3c-3.2,2.5-6,3.8-9.1,4.5
	c-1.2,0.3-2.4-0.1-2.5-1.6C281.8,81.2,282.9,81,283.9,80.9z M275,210.5c0,4.5-0.2,8,0,11.4c0.5,7.1,2.2,13.7,7.1,19.3
	c2.2,2.5,3.9,5.4,5.7,8.2c1.2,1.9,1,3.6-1.1,5.1c-5.4,3.9-8.3,9.8-11.3,15.6c-0.7,1.3-0.4,3.5-3,2.9c-2.3-0.5-2.7-2.1-2.6-4.1
	c0.2-6.7-0.2-13.3-0.8-19.9c-0.4-4.5-1.2-8.9-3.2-13c-2.5-5.3-2.7-10.5,1.1-15.4C269.3,217.4,271,213.7,275,210.5z M262.2,169.8
	c2.4-5.3,4.5-10.6,6.1-16.2c1.9-0.8,3.8-2.1,3,1.9c-0.8,4.1-2.4,7.9-3.7,11.8C266.7,170.2,264.8,170.8,262.2,169.8z M265.5,103.9
	c-0.5-1-1.1-2.2,0.2-3.1c1-0.7,2.2-1,3.3-0.6c1.7,0.5,0.9,1.9,0.8,2.9c-0.3,5.2,0.2,10.3,2.6,15c1,2,0.7,3.7-0.2,5.6
	c-1.5,3.2-3.8,5.8-5.9,8.5c-1.6-0.1-3.2,0-4.4-1.5c1.6-6.6,3.1-13.2,4.8-19.7C267.3,108.4,266.6,106.2,265.5,103.9z M257.6,175.9
	c5.7,1.5,5.7,1.6,3.1,7c-0.5,1-1.1,2.1-1.7,3.1c-3.8,6.5-3.4,7.8,3.2,10.8c1.3,0.6,3.8,0.3,3.2,2.8c-0.6,2.2-1.7,4.4-3.6,5.9
	c-0.9,0.7-1.4-0.4-1.9-0.9c-7.5-6.8-20.2-7.2-28.1-0.7c-2.4,2-4.6,4.1-8,7.2c2-6.8,0.2-12.3,0.3-17.8c0-2.4,0.3-5.4,2.3-6.3
	c6-2.9,7.9-9.1,12.2-13.3C244.5,177.4,250.9,177.9,257.6,175.9z M205.3,238.5c-0.4,1.1-0.6,2.5-2.1,2.4c-1.5,0-2.2-1.4-2.7-2.6
	c-2.5-6-3.9-12.3-3.4-18c0-2.9-0.1-4.9,0-6.8c0.1-4.4,1.2-7.9,6.8-7.6c1.9,0.1,3.4-1.1,5-2.1c2.6-1.7,3.7-0.5,3.5,2.2
	C211.1,217.1,209.1,228,205.3,238.5z M211.6,289c-4.6,3.1-5.4,2.9-6.6-1.9c-0.4-1.6-1.4-2.5-2.8-3.2c-1.2-0.7-3.6-0.7-3.4-2.4
	c0.2-2,2.7-1.4,4.1-2C205.8,282.7,208.7,285.9,211.6,289z M147,283.5c1-0.8,2.5-1.3,3.6-0.2c1,0.9,0.4,2.1,0.1,3.2
	c-2,6.9-4.8,8.1-12.9,4.6C141.2,288.3,144,285.8,147,283.5z M145.5,268.8c1-2.3,1.7-4.7,4.1-6.8c0.9,3,0.5,5.5,0.2,7.9
	c-0.3,2-1.8,2.2-3.4,1.9C144.2,271.4,145,269.9,145.5,268.8z M146.6,229.4c-2.1-0.5-2.6-2.5-0.6-4.2c0.6-0.5,1.3-1.2,2-1.5
	c9.8-3.3,17.9-9.9,26.7-15c0.9,5.5,1.9,11,2.8,16.5c-5.9,1.2-11.6,2.9-17.3,5.4C156.2,232.6,151.1,230.5,146.6,229.4z M164.6,247.3
	c0.5-4.8,5.6-9.5,10.3-10.2c3.5-0.5,2.5,2.1,2.5,3.9c0.1,9.3-5.2,15.2-13,20.1C164.5,256.3,164.2,251.8,164.6,247.3z M162,180
	c-0.8,0.1-1.6,0-3.3,0c2.6-4.1,5.1-6.2,9.4-7.4c8.5-2.5,16.7-0.8,25,0.2c1.1,0.1,2.9,0,2,1.7c-1.5,3-3.3,5.8-5.2,8.4
	c-0.8,1.1-2.3,1.4-3.6,0.4C178.9,177.4,170.5,178.5,162,180z M197.5,140c2.3-2.1,4.3-4.5,6.9-7.2c0.8,2.2,0.6,3.3,0.2,4.4
	c-1.2,3.7-0.8,6.6,3.9,7.2c2.2,0.3,2.9,1.2,1.5,3.2c-1.2,1.8-2.5,3.8-4.4,4.5c-3,1.2-2-2.7-3.6-3.5c-1.3-0.7-2.3-2-3.6-2.5
	C193.8,144.5,194.6,142.6,197.5,140z M211.6,128.9c3.7-3.6,7-6.4,11.8-5.4c1.6,0.3,4.2,0.9,3.1,3.4c-0.8,1.9-0.7,5.4-4.6,4.4
	C218.8,130.4,215.6,129.8,211.6,128.9z M212.1,261.5c0.1-1.4,0.7-2.4,2.4-2.5c2.3-0.1,4.6-0.5,6.8-0.9c2.3-0.4,3.5,0.6,3.7,2.8
	c0.3,2.6-1.5,2.5-3.2,2.3c-1.1-0.1-2.3-0.2-3.7-0.3c-1.1,0-2.4,0-3.7,0C213.5,262.8,212,263.4,212.1,261.5z M220.6,272.6
	c2.2,1.8,2.9,4.1,1.5,6.8c-2.5-1.4-4.4-3.3-5.6-5.9C217.6,271.8,219.2,271.4,220.6,272.6z M225.2,300.1c1.4,0.7,3.2,0.8,4,2.5
	c-0.3,0.3-0.7,0.7-1,1c-1.6,1.5-4,2.1-5.3,0.5C221.3,302.1,224.4,301.5,225.2,300.1z M226.5,241.4c-1.4,3.3-3.7,4.8-6.9,5.9
	c-2.5,0.9-3,0.1-2.5-2.1c0.1-0.3,0.2-0.7,0.3-0.9c6.6-11.9,13.3-23.8,24.5-32.1c2-1.5,4.1-4.2,7-2.5c2.6,1.5,2.9,4.7,3.1,7.6
	c0.2,3.7-4.2,9.7-8.2,10C234.6,227.8,229.8,233.6,226.5,241.4z M238.3,250c3.4-3.5,7.9-5.4,11.2-9.1c1.6-1.7,2.6-0.7,2.6,1.4
	c0,1.7,0,3.3,0,5c-0.3,7.6-1.7,15.1-2.9,22.7c-0.4,2.6-1.4,5-4.2,5.6c-2.9,0.6-3.1-2.4-4.1-4.1c-2.9-5.2-3.8-10.9-4.6-16.7
	C236,252.7,237,251.4,238.3,250z M209.5,83.9c7.6-4.8,16-6.2,24.8-6c1.9,0,3.7,0.9,4.9,2.2c1.3,1.4,3.3,2.9,2.8,5
	c-0.5,2-2.9,1.7-4.6,2.1c-6.2,1.3-12.3,2.4-17.5,6.6c-1.7,1.3-2.7,2.8-3.8,4.4c-2.7,3.8-3.9,3.9-6.6,0.2c-1.9-2.6-3.2-5.4-3.5-8.4
	C206.3,87.2,207.3,85.3,209.5,83.9z M152.8,153.1c1-3.7,3.4-7.7,6.8-10.9c12.8-12,27.2-21.2,44.1-26.1c1-0.3,2.2-1.7,3-0.1
	c0.7,1.4-1,1.8-1.9,2.4c-10.5,7-19.6,15.4-26.5,25.9c-1.1,1.6-2.5,2.6-4.1,3.5c-4.8,2.7-9.1,6.1-13.1,9.9c-1.4,1.3-2.6,3.4-5,1.8
	C154.1,158.3,152.5,156.7,152.8,153.1z M141.6,205.3c2.8-3.2,6.8-4.6,10.4-6.7c5.7-3.3,11.3-6.9,17.7-9c1.1-0.3,2.2-0.8,3.5-0.1
	c-1.3,4.3-4.4,7.1-8.2,8.7c-7.2,2.9-13.1,7.6-19.3,12c-1.5,1.1-3.2,3.4-5.1,1.3C138.6,209.4,140,207,141.6,205.3z M143.5,241.4
	c1.1-0.1,2.5-0.5,3.2,0.6c0.8,1.3-0.4,2.4-1.1,3c-3.1,2.4-4.1,6.8-8.3,9C136.6,246.5,139,241.9,143.5,241.4z M133.1,307.4
	c0.4-1.9-0.1-4.7,3.2-4.4c1.3,0.3,3.4,0.1,2.9,1.8c-0.8,2.3-2.6,4.3-5.1,4.9C132.9,310,132.9,308.2,133.1,307.4z M110.4,238.7
	c-2-0.1-3.9,0-4.7-1.2c-0.9-1.4,0.5-2.9,1.4-3.9c5.6-6.3,11.5-12.3,18.6-17c1.7-1.1,3.3-1.1,4.2,0.7c0.9,1.8,4.1,3,2,5.8
	c-1.8,2.5-3.4,5.1-3.5,8.5c0,2.3-2.4,3.6-4.5,4.2C119.3,237,114.5,237.8,110.4,238.7z M105.4,268.1c4.3-0.4,8.4-0.9,12.5-1
	c5.8-0.1,9,3,9.5,8.6c0.4,5-1.8,6.7-6.4,4.9c-0.6-0.2-1.3-0.6-1.9-0.5C110.9,280.5,107.4,275.5,105.4,268.1z M166.4,323.7
	c-8.8,10.4-18.6,19.9-31.4,25.5c-1.9,0.8-3.9,0.9-6.7,1c-5.2,0.7-7-3.8-8-8.1c-1.5-6.5-1.9-13.1,0.2-19.7c0.9-2.9,1.9-3,4.1-1.5
	c6,4.1,10.4,3.9,16.7-0.5c5.6-3.8,9.4-9.3,13.3-14.6c2.7-3.7,3.7-3.8,5.8,0.2c1,2,2.4,3.6,4,5C169.4,315.2,170.6,318.8,166.4,323.7z
	 M175,302.1c-1.6,1.2-2.4,0.3-3.2-0.9c-1.8-2.7-2.4-5.8-2.7-8.9c-0.3-3.8,2.6-5.1,5.1-6.6c0.3-0.2,1-0.1,1.3,0.1
	C178.9,288.1,178.5,299.6,175,302.1z M189.4,258.9c2.6,2.6,3.6,6.1,4.9,9.4c-2.7,5.1-8.7,6-12.7,9.5c-0.6,0.6-1.4,0-1.7-1
	C179.4,274.1,186.7,260.2,189.4,258.9z M182.7,348.7c-3.6-5.7-2.3-10.9-2.6-15.8c-0.3-4.1,1.4-7.1,3.8-10.3c3.2-4.3,7.2-4.6,13-4.6
	C189.4,327.2,184.7,336.8,182.7,348.7z M209.8,467.5c-2.6,7.5-4.5,15.3-10.7,21c-1.2,1.1-2.6,2.1-4,2.9c-1.2,0.7-2.7,1.8-4,0.2
	c-1.4-1.7,0.1-2.7,1-3.8c2.4-2.7,5-5.3,7.1-8.3c2.5-3.5,4.1-7.5,4.5-11.9c0.2-2.3,1.1-3.4,3.1-2.7
	C209.1,465,210.6,465.4,209.8,467.5z M227.1,418.8c-1.6,4.9-3.2,9.8-4.8,14.6c-0.4,1.3-1.5,2.3-2.6,1.7c-2.4-1.4-5.1-1.1-7.6-2
	c-1.7-0.6-2.6-1.6-2-3.3c2.1-5.6,4.4-11.2,9.1-15.2c1.3-1.1,2.8-2.8,4.8-1.1C225.6,414.8,227.7,416,227.1,418.8z M227.7,338.5
	c-6.1,8.3-14.6,13.4-23.1,18.5c-5.8,3.4-7.4,2.4-8.4-4.2c-0.2-1-0.1-2-0.1-1.9c-0.1-5.1,1.3-8.9,3-12.4c5-9.9,11.4-18.6,21.9-23.4
	c4.7-2.1,5.6-1.7,5.7,3.3c0.1,3.9,1,7.5,2.4,11.1C230.5,332.8,230,335.4,227.7,338.5z M247.1,414.6c-1.4,0.2-3.8,0.2-3.7-2.7
	c0.2-4.9-2.8-6.8-7.3-6.7c-5,0.2-6.3-2.5-6.1-6.9c0.2-4.4-0.7-8.9,2.2-13.9c3.2,6.6,5.3,13,11,17.3c5.9,4.4,12.7,4.2,20.6,5.6
	C258.2,411.9,252.7,413.7,247.1,414.6z M286.7,376.1c-6.5,8.4-14.1,15.5-23.9,19.8c-7.2,3.1-11.3,1.6-15-5.5
	c-3.1-6.1-4.1-12.6-4-19.3c0.2-6.9,0.4-13.7,6.1-18.8c1.4-1.2,2.5-2.8,4.6-2.3c2,0.5,1.5,2.4,1.8,3.7c2.6,9.3,7.9,15.9,17.3,18.9
	c3.8,1.3,7.6-0.1,11.4,0.2c0.9,0.1,2.1-0.5,2.7,0.7C288.3,374.6,287.2,375.3,286.7,376.1z M268.7,349.6c-0.2-2.4,1.6-2.4,3.3-2.7
	c1.8-0.3,3.5-0.9,6.3-1.7c-1.6,2.7-2.6,4.8-3.9,6.6c-0.8,1.2-1.1,3.9-3.2,2.9C269.4,353.9,268.9,351.6,268.7,349.6z M288.8,318.9
	c-0.3,1.8-2.2,1-3.4,1c-6.2,0-12.1,1.7-18.2,4.2c0-4.5,3.5-6.7,4.6-10c5.4-1.6,10.9-0.9,16.4-1C290.9,314.8,289.2,317.1,288.8,318.9
	z M289.8,271.5c0.1-0.3,0.3-0.6,0.4-0.9c3.9-7.6,5.7-8,11.8-2.2c3.1,3,6.5,5.6,10.2,8c1.9,1.2,5.8,2,4.3,4.8c-1.5,2.8-4.3,5.5-8,5.6
	c-3.3-1.3-6.8-1.2-8.9-4.4c-1.4-2-3.8-3-6.4-3.5C287.4,277.5,287.2,277,289.8,271.5z M296.6,351.9c-0.6,0.5-1.2,1.1-2.2,0.6
	c-0.7-0.9-0.4-1.9,0-2.8c0.7-2.1,0.7-4.7,3.5-5.5c0.7-0.2,1.2,0.4,1.3,1.1C299.5,348,298.6,350.2,296.6,351.9z M300.3,477.4
	c-3.1,2.6-7,3.3-11.9,5.2c2.4-5.2,5.5-7.7,8.7-9.9c1.9-1.3,4.4-1.6,5.8,0.5C304.6,475.9,301.6,476.2,300.3,477.4z M316.9,481.2
	c2.9-4.6,4.3-9.7,10.6-9.2C325.9,475.7,322.6,478.7,316.9,481.2z M338.2,401.1c-0.6,1.3-1,3.1-2.9,3c-1.9-0.1-2.1-1.8-2.4-3.3
	c-1.7-8.7-4.6-17-9-24.7c-1.8-3.2,0.2-5.5,1.8-7.6c2-2.7,4.6-4.9,8.3-4.9c1.8,0,2.3,1.8,2.7,3.2c2.2,7,3.5,14.2,3.5,21.6
	C340.2,392.7,340,397.1,338.2,401.1z M340.9,337.1c-0.9,3.5-1.7,7.1-2.4,10.6c-0.5,2.9-2.5,3.3-4.8,2.9c-2.9-0.5-2.5-2.3-1.8-4.5
	c1.3-3.9,2.3-7.9,2.4-12.1c0-4.6-1.5-8.4-6.1-9.8c-4.3-1.3-4.9-3.7-3.2-7.4c0.7-1.5,0.9-3.2,1.5-4.7c0.5-1.3,1.6-1.8,2.6-0.4
	c3.6,5.3,8.4,9.3,13.7,12.8c0.9,0.6,1.4,1.4,1.3,2.4C342.9,330.5,341.8,333.8,340.9,337.1z M351.7,312.3c-1.8,3.2-3.5,3.4-6.1,0.8
	c-4-4.1-7-8.8-8.7-14.4c8.7-4.4,14.5-12.4,22.1-18.1c1.3-1,2.7-1.8,4.1-2.7c4.7,6,4.8,11.6,0.2,17.1
	C358.9,300.3,355.1,306.1,351.7,312.3z M361.6,367.8c-2.7,1.2-4.7,0.6-6.3-2.1c-4.2-7-2.9-8.3,2.3-14.4c5.2-6.1,9.4-5.1,15.1-2.1
	c2.1,1.1,4.7,1.3,7.6,2.1C374.9,358.3,369.3,364.2,361.6,367.8z M393.2,316c0,0.2,0,0.4-0.1,0.5c-6.2,5.3-5.4,14.7-11.7,19.8
	c-1.5,1.2-2.5,3.8-5.3,1.7c-2.6-2-3.3-3.9-1.3-6.6c3.8-5.2,7.3-10.7,9.9-16.7c1.3-2.9,3.4-2,5.4-1.2
	C391.3,313.9,393.3,313.7,393.2,316z M408.6,262.9c-0.9,13.9-5.7,26.8-9.5,40c-0.7,2.3-2.2,2.5-3.8,1.8c-2.3-1.1-6.1-1.2-5.4-5.3
	c0.8-4.6,2.3-9,1.3-13.8c-0.4-1.9,1.6-1.8,2.6-2.4c8.7-5.1,12.3-12.4,10.9-22c-0.2-1.3-2.2-3.4,0.7-3.9c2.5-0.4,2.8,1.8,3.1,3.6
	C408.7,261.5,408.6,262.2,408.6,262.9z M434.5,345.3c-1.7,1.4-3.3,1.9-5.5,1.2c-7.1-2.3-13.2-6.2-17.9-12.1c-3.2-4-3-7.7,0.7-11.5
	c2.1-2.2,4.3-4.1,3.4-7.7c-0.3-1.3,7.5-5.7,8.6-5.1c1.1,0.6,0.6,1.4,0.2,2.1c-0.7,1.5-1.6,2.9-2.1,4.5c-1.7,6.3,3.7,11.6,10.9,10.8
	c3.6-0.4,7.1-1.4,10.8-2.9C443.6,333.4,441.1,340.2,434.5,345.3z M445,305c-6-0.3-11.8,0.7-18.1,3.2c1-3.8,4-6.3,3.3-10.1
	c-0.3-1.4,1.3-1.3,2.1-0.9c8.2,3.9,16.1,4.2,24.5-2.1C454.3,301.7,449.9,305.2,445,305z M466.7,241.7c-1.3,1.1-2.5,0.6-3.7-0.1
	c-2.8-1.7-4.8-4.5-8.6-4.7c-3.1-0.1-6.2-0.9-10.2-1.5c4.4-4.6,6.6-10.4,13.6-11c2-0.2,3.7-2.7,5.6-4c3.5-2.6,5.8-1.3,7.5,2.2
	C472.9,226.6,470.1,238.9,466.7,241.7z"/>
<path class="st1" d="M174.7,208.8c0.1-2.8,0.4-5.7,0.2-8.5c-0.3-4.3,0.7-7.1,5.8-7.1c6.4,0,9.1,1.7,9.4,6.9c0.2,3.3,0,6.7,0.3,10
	c2.1,23.9,11.4,44.8,26.2,63.5c2.6,1.3,4.5,3.2,5.6,5.9c15.6,15.6,34.4,22.1,56.5,20.6c14.3-0.9,27.7-4,40.8-9.7
	c9-3.9,16.4-9.4,23.6-15.7c8-7,11.7-16.4,16-25.5c4.8-10.3,8.5-20.9,9.1-32.4c0.3-5.5,3.6-7.3,8.2-8.2c2.9-1.5,5.3-0.6,7.5,1.5
	c2.7,3.5,2.1,7.2,1.4,11.2c-3.3,19.6-12,37-21.3,54.2c-0.4,0.7-0.6,1.5-0.8,2.3c-7.6,6.7-14.2,14.6-22.9,20.1c-1,0.6-2,1.2-3.3,0.8
	c-8,1.8-15,6-22.4,9.1c-8.4,3.6-17.6,4-26.4,5.5c-5.4,1.9-10.8,2-16.4,1c-15.2-0.2-28.9-5.8-42.6-11.5c-1.8-0.1-3.3-0.6-4-2.5
	c-3.8-4.6-9.4-7-13.6-11.1c-4.7-1.5-7-5.3-8.7-9.6c-2.7-3.8-4-8.8-8.6-11.2c-2.8-2.5-4.2-5.8-4.9-9.4c-3.3-8.5-6.6-16.9-9.8-25.5
	c-1-2.6-1.4-5.4-2.1-8.1C174.1,220.2,173.3,214.7,174.7,208.8z"/>
<path class="st1" d="M301,146.3c2.4-3.5,3.9-7.6,6.9-10.8c6.3-6.7,12.6-6.2,20.1-3.7c6.3,2.1,7.6,8.3,7.9,14.3c0.2,4-0.1,8-0.1,11.9
	c-1.3,8.1-6,14-12.1,19.1c-0.7,0.5-1.5,0.6-2.3,0.2c-4.4,1.6-8.8,0.5-13.2-0.1c-0.9-0.2-1.5-0.6-1.6-1.6c-3.4-1.2-5.2-3.7-6.2-7
	c-0.6-1.9-1.4-3.6-2.2-5.5C296.9,157.2,297.1,151.4,301,146.3z"/>
<path class="st1" d="M238.5,173.7c-6.6-9.6-5.9-29.2,2-37.3c3.3-3.4,7.6-5.7,12.9-5.2c2.8,0.3,5.6-0.2,8.4-0.4
	c1.8-0.4,3.3-0.1,4.4,1.5c3.4,6.9,1.8,14.2,2,21.4c0,6.2-1.3,11.8-6.1,16.2c-1.5,2-3.1,4.1-4.6,6.1
	C252.6,180.3,242.9,179.1,238.5,173.7z"/>
</svg>
