<?xml version="1.0" encoding="utf-8"?>
<!-- Generator: Adobe Illustrator 25.4.1, SVG Export Plug-In . SVG Version: 6.00 Build 0)  -->
<svg version="1.1" id="Layer_1" xmlns="http://www.w3.org/2000/svg" xmlns:xlink="http://www.w3.org/1999/xlink" x="0px" y="0px"
	 viewBox="0 0 512 342" style="enable-background:new 0 0 512 342;" xml:space="preserve">
<style type="text/css">
	.st0{fill:#1D1D1B;}
	.st1{fill:#262624;}
	.st2{fill:#272727;}
	.st3{fill:#272726;}
	.st4{fill:#262625;}
	.st5{fill:#F49500;}
	.st6{fill:#028ACA;}
	.st7{fill:#1D1D1C;}
	.st8{fill:#1E1D1B;}
</style>
<g id="_x38_TjN3j_1_">
	<g>
		<path class="st0" d="M427.3,30.3c-5.7-5.6-6.4-12-2.1-18.3c2.9-4.2,8.3-4.7,12.7-3.9c7.5,1.5,10.5,7.3,10.8,15
			c3.8-6.6,9-10.2,16.3-11c3.4-0.4,6.7,0.1,9.8,1.2c8,2.9,8.5,11.8,1.3,18.1c-2.4,2-7.1,3.2-6.8,5.9c0.3,2.9,5,1.3,7.7,2.4
			c5,1.9,7.9,5.7,8.3,10.3c0.5,5.6-2.2,10.7-6.9,14.1c-7.2,5.2-14.6,4.8-22.7-0.6c-1.2,22.9-16.9,33.6-35.1,42.7
			c4.5,2.7,8.1,5.5,12.1,7.2c10.5,4.3,18.4,11.8,25.5,20.2c12.3,14.7,13.5,31.4,6.7,48.7c-5.6,14.2-15.4,25.6-29.5,31.5
			c-12.4,5.2-25.9,6.1-39,1.9c-12.7-4.1-22.8-11.7-30.7-22.7c-7.7-10.9-17.7-18.8-31.5-20.7c-1.3-0.2-2.6-0.5-3.9-0.5
			c-4.2,0.2-6.6,1.2-6.6,6.7c-0.3,20-2.9,39.9-13,57.6c-8.5,15-19.1,28.5-36.8,33.9c-1.3,0.4-3,0.5-3,2.7c0.2,6.9-2.1,13.3-4.7,19.5
			c-0.8,2,0.2,2.8,2.2,3.4c8.2,2.8,14.3,7.5,16.9,16.5c3.8,12.9-2.1,21.5-15.6,21.5c-11.8,0-22.6-3.6-32.2-10.3
			c-1.7-1.2-2.9-2.2-5.3-0.9c-10.2,5.7-20.9,0.2-25.1-10.2c-5.1-12.8-8.9-26-11.8-39.5c-0.8-3.7-2.6-5.6-5.6-6.8
			c-25.7-10.2-38.9-30.2-44.8-56.2c-1.9-8.4-2-17-2-25.7c-18.7,2.7-29.7,14.7-38.9,29.3c-5.9,9.3-13.6,16.9-23.9,21.3
			c-14,5.9-27.3,3.2-38.7-6.3c-10.9-9.1-12-21.3-9.2-34.6c4-19.2,15.5-33.5,29.5-46.1c5.7-5.1,11.5-10,18-14.1
			c5.6-3.6,5.7-9.2,0.4-13.5c-2.2-1.8-4.8-3.3-7.6-4.4c-13.3-5.2-18-13.6-14.2-28.8c3.3-13.2,11.4-23,21.7-31.2c3-2.4,3.9-3.8,0-6.4
			c-4.2-2.8-6-11.8-3.8-16.9c1.9-4.3,5.5-6.6,10.3-6.3c4.9,0.3,7,4.6,10.3,7.6c2-3.6,1.9-8,4.8-11.3c5.1-5.6,12.7-6.5,18.7-1.8
			c6,4.7,6.4,10.6,1.4,17.3c-0.6,0.8-1.1,1.5-1.8,2.5c14.3,1,19.1,4.2,18.7,12.3c-0.3,7.8-5,10.4-18.8,10.4c1.5,3.1,3.6,6,2.8,9.7
			c-1.1,4.9-3.8,8.5-8.8,9.9c-6.3,1.7-10.9,0.4-14.2-5.3c-2.7-4.6-4.6-4.6-7.5-0.6c-0.6,0.8-1.5,1.3-2.2,2
			C83.7,85,84,90.3,91.4,95.3c4.2,2.9,9.1,4.9,13,8.2c8.1,6.7,13.6,14.8,11.7,26.2c-1.1,6.7-5.2,11.4-9.7,15.7
			c-6.9,6.7-15.3,11.7-22.8,17.6c-9.6,7.6-17.1,17.1-21.7,28.7c-1.6,4-1.5,7.8-0.5,11.7c1.3,4.8,4.6,6,8.6,3.1
			c4.3-3.2,7.7-7.3,10.9-11.6c7.9-10.4,16.1-20.4,27-27.7c9.7-6.5,19.9-11.9,32-12.6c3.9-0.2,6.1-1.5,6.7-6.3
			c2.3-19.3,8.6-37.3,18.4-54.2c4.9-8.3,10.8-15.5,17.8-21.9c2.2-2,4.3-4,6.8-6.3c-3.9-1.3-7.5-1.5-10.4-3.5
			c-1.4-0.9-3.8-1.6-3.1-3.9c0.7-2.2,2.9-1.9,4.7-1.7c3.6,0.5,7.2,1,10.8,1.7c3.1,0.6,3.6-0.2,3-3.3c-3.9-20.7,6.4-32.9,24.6-38.3
			c17.3-5.2,33.5,6.6,35.7,24.9c0.1,0.9,0.1,1.9,0.2,3.2c4-1.4,6.7-4.2,9.6-6.5c1.4-1.1,2.8-2.3,4.4-3.3c2-1.2,3.9-0.6,5.3,1.1
			c1.6,1.9,0.4,3.3-1,4.7c-2.9,2.7-6.6,4.5-9.3,8.1c3.1,0.7,6.2,1,8.9,2.1c26.7,10.6,42.4,30,47,58.4c1.7,10.4,2.7,20.8,2.6,31.2
			c0,3.4,1.6,3.9,4.3,3.7c9-0.6,17.9,0.4,26.7,2.7c9.9,2.7,17.6,8.3,24,16.1c6.5,7.9,12.9,15.8,22.4,20.9c12.9,7,32,1.4,38.8-11.7
			c2.8-5.5,1.2-11-0.6-16.5c-2.5-7.8-8.6-12.5-15.3-16.4c-9.6-5.6-18.9-11.6-27.7-18.4c-10-7.6-13.1-24.5,1-32.2
			c6.9-3.7,14.1-6.6,20.8-10.7C424,74.3,429.5,63,428.4,55c-0.3-2.5-2-2.3-3.7-2.2c-4.1,0.3-7.8-0.3-11.3-2.7
			c-4.5-3.1-6.9-8.5-5.3-12.9c1.7-4.7,8.9-8.5,14-7.4C423.7,30.1,425.1,31.3,427.3,30.3z"/>
		<path class="st1" d="M492.5,39.1c7.9-0.2,12.9,6.5,11,14.2c-0.7,2.9-2,5.6-4.1,7.9c-0.7,0.8-1.6,1.2-2.6,0.5c-1-0.7-0.2-1.4,0-2.2
			c0-0.2,0.1-0.3,0.2-0.5C501.2,47.5,501.2,47.5,492.5,39.1z"/>
		<path class="st2" d="M397.6,50.5c-7-0.4-11-8-8.3-14.5c1.1-2.6,2.9-4.8,5.3-6.4c0.9-0.6,1.8-2,2.9-1c1.3,1.1-0.2,2.2-0.9,2.9
			c-2.9,2.9-4.4,6.1-4,10.3C392.9,45.4,395.5,47.6,397.6,50.5z"/>
		<path class="st3" d="M151.3,52.9c0,6.5-3.2,11.7-7.6,12.8c-0.8,0.2-1.7,0.5-2.3-0.2c-0.7-0.7-0.5-1.6,0.2-2.1
			c6.4-4.8,8.6-10.3,3.2-17.3c-0.6-0.7-0.1-1.4,0.5-1.6c0.5-0.1,1.4,0.1,1.8,0.4C149.4,47.3,152,49.5,151.3,52.9z"/>
		<path class="st4" d="M70.4,21.5c-8.1,1.7-11.5,6.2-11.1,13.6c0,0.8,0.1,1.7-1,1.9C57.5,37,57,36.6,56.6,36
			c-2-2.5-0.7-8.8,2.6-12.9C61.7,20.1,66.2,19.1,70.4,21.5z"/>
		<path class="st5" d="M210.3,293.9c-3.3-8.2-5.8-16.4-7.3-24.9c-0.7-4-2.4-6.3-6.4-7.8c-30.1-11.1-42.5-34.9-45.5-65
			c-0.5-4.9-0.3-10,0.1-15c0.3-4-1.2-4.9-4.8-4.8c-18.5,0.5-32.2,9.5-42.9,23.8c-4.2,5.6-7.7,11.8-12.2,17
			c-8.6,10.1-19.2,16.1-33,12.5c-14.5-3.7-21.7-16.2-18.9-31c3.8-20.5,15.5-35.7,30.9-48.6c5.1-4.3,10.5-8.2,15.8-12.2
			c7-5.3,7.9-11.9,2.6-19c-3.5-4.7-8.3-7.5-13.6-9.7c-9.5-3.9-11.7-8.9-9.5-19C68.8,76.1,78.2,66.4,89,57.7c3.9-3.2,3.7-6.1-0.4-9.1
			c-0.8-0.6-1.6-1.2-2.5-1.7c-3.2-1.7-3.9-4.8-4.2-8c-0.2-2.6,1-4.5,3.5-5.5c2.6-1.1,3.5,1,4.7,2.5c0.2,0.3,0.4,0.5,0.6,0.8
			c2.3,2.3,4,5.7,8,4.9c3.6-0.8,4.3-4.2,5.6-7.1c1.1-2.6,1.1-5.6,3.4-7.6c2.8-2.6,6.4-3.3,9.1-1.1c2.8,2.3,0.8,5.5-1,7.9
			c-1,1.3-2.5,2.2-3.7,3.3c-3.2,2.8-4,6.2-2,9.8c1.9,3.6,5.2,3,8.3,2.1c2.6-0.7,5.1-1.6,7.8-1.3c2.4,0.2,5.6,0,5.4,3.6
			c-0.2,3.1-2.3,5.2-5.6,5.3c-2.3,0.1-4.6-0.5-7-0.6c-2.8-0.1-5.9-0.2-7.3,2.9c-1.3,2.9,0.3,5.1,2,7.2c3.5,4.5,2.1,8.4-3.3,10.1
			c-3.3,1-5.1-0.2-6-3.3c-0.7-2.6-0.7-5.3-0.6-7.9c0.1-2-0.7-3.6-2.7-4.4c-2.1-0.8-3.5,0.3-4.5,2c-2.3,3.9-6.8,5.2-9.9,8.3
			c-4,4-7.8,8-8.9,14c-1,5.4,1.1,9.3,4.9,12.7c4.9,4.4,11,6.8,16.3,10.6c6.1,4.4,9.4,10,9.1,17.8c-0.2,3.7-1.3,6.7-3.5,9.6
			c-6,7.9-14.1,13.1-22,18.7c-12.8,9.2-23.3,20.3-28.7,35.5c-1.5,4.3-1.7,8.8-1,13.3c1.6,10.6,12.2,15.4,21.2,9.4
			c5.7-3.8,10.1-9.1,14.3-14.6c8.4-11,17.5-21.4,29.8-28.4c8.2-4.7,17-7.6,26.5-7.8c6.6-0.2,8.8-2.3,9.3-8.7
			c1.7-22.8,9.4-43.4,22-62.3c4.6-7,10.7-12.7,17.1-18.1c5.4-4.6,11.4-6.9,18.7-6.7c12.7,0.3,24.5-3.9,36.1-8.9
			c2.5-1.1,4.9-1.6,7.7-1.4c27.7,1.9,52.7,25.4,56.4,53.1c1.7,12.7,2.5,25.5,2.8,38.3c0.1,3.7,1.3,4.9,5,4.8c8-0.2,16-0.6,23.9,0.5
			c13.6,1.9,24.3,8.2,31.9,19.9c7,10.7,17.1,17.8,29.4,21.1c13.2,3.6,25.2,0,35-9.2c8.7-8.1,10-19.3,4.5-30.3
			c-3.5-7-8.4-12.7-15.1-16.9c-8.8-5.7-18.1-10.6-26.4-17.1c-1.7-1.3-3.4-2.7-5-4.2c-6-5.7-5.6-13.3,0.8-18.4
			c5.8-4.7,12.8-7,19.4-10.1c13.7-6.4,17.7-21.5,17.5-33.9c-0.1-3.2-1.8-4.9-4.8-5.3c-3.1-0.4-6.3-0.6-9.4-1
			c-3.9-0.4-6.5-3.5-5.7-6.7c1.1-4,4.1-3.7,7.2-3.1c0.8,0.2,1.6,0.5,2.4,0.8c3.1,1.4,6.6,2.3,8.4-1.1c1.8-3.3,2.5-7.3-1.1-10.4
			c-2.1-1.9-3-4.3-2.4-7.2c0.6-3.2,2.8-4.5,5.7-4.3c2.7,0.2,3.9,2,4,4.8c0.1,5,1.2,9.5,5.3,12.9c2.4,2,4.5,2.2,6.9-0.2
			c1.9-2,3.4-4,4.5-6.5c2.4-5.4,6.9-7.4,12.5-7.2c1.7,0.1,3.3,0.2,4,2.2c0.7,1.9-0.2,3.3-1.4,4.4c-1.9,1.6-3.9,3.1-6,4.5
			c-3.1,2-5.8,4.3-5,8.4c0.8,3.9,3.9,5.5,7.5,6.5c0.3,0.1,0.7,0.1,1,0.2c2.8,0.9,6.7,0.2,7.5,4.5c0.8,4.4-1.5,7.4-4.4,10
			c-2.8,2.5-6.2,2.2-9.4,0.7c-2.8-1.2-5.2-2.9-7.2-5.2c-1.6-1.8-3.9-3.1-6.1-2.5c-2.9,0.8-1.6,3.7-1.5,5.6
			c0.5,15.7-6.3,27.1-19.8,34.9c-3.5,2-6.9,4-10.4,5.9c-5.5,3.2-6,10.1-0.6,13.7c3.7,2.5,7.7,4.6,11.8,6.6
			c6.6,3.3,12.4,7.6,18.1,12.4c17.2,14.6,17.1,37.7,7.5,53.6c-7,11.5-15.9,21.2-29.7,24.3c-20.3,4.5-37.5-1.4-51-17.3
			c-4.3-5.1-8.2-10.5-13.2-14.9c-10.4-9.3-22.6-13-36.4-12.1c-7.7,0.5-8.3,1.5-8.5,9c-0.6,20.2-2.2,40.3-12.1,58.6
			c-6.3,11.5-13.9,21.9-26.1,28c-3.3,1.7-6.9,2.5-10.5,3.1c-3.5,0.6-5.3,2.6-5,6.2c0.6,9.4-1.5,18.2-6.6,26.1
			c-1.3,2-0.4,3.1,1.2,4.1c1.9,1.1,4.1,1.4,6.2,1.6c9.3,1.2,16,9.6,15.2,18.9c-0.3,3.1-1.5,4.7-4.8,5.3c-11.1,2-20.7-1.1-29.6-7.4
			c-2.7-1.9-2.8-3.3-0.8-5.9c7.9-10.1,12.3-21.6,13.1-34.4c0.6-9.3-4-16.6-12.7-20c-6.1-2.4-11.7-0.6-16.4,4
			c-1.8,1.7-2.9,4.1-6.4,1.7c-2-1.4-5.3,0.1-5.2,3.3c0.2,4.6,3.2,9,0,13.9C212.9,284.8,211.6,289.4,210.3,293.9z"/>
		<path class="st6" d="M212.2,59.8c-9.3,0.1-9.9-0.5-10.3-9.5c-0.8-18.5,14.9-31.6,31.6-26.5c7.5,2.3,10.7,8.2,12.4,15
			c2.7,11,2.1,11.8-8.5,15.7c-4.8,1.8-9.7,3.3-14.8,4.2C218.9,59.4,215.3,60,212.2,59.8z"/>
		<path class="st5" d="M216.9,303.7c0.7-12.1,5.6-23.7,12.7-34.3c2.3-3.5,6-6.9,10.9-5.4c4.8,1.5,7.7,5.2,7.8,10.5
			c0.4,16.6-5.3,30.6-18.1,41.3c-5.5,4.6-11.7,1.9-12.9-5.2C216.9,308.6,217,306.5,216.9,303.7z"/>
		<path class="st7" d="M236.7,172.7c20.2-0.3,35.3-8.9,44.5-27.2c3.8-7.5,7-15.1,7.9-23.5c0.3-3-0.1-4.6-3.6-3
			c-2.3,1.1-4.6,0.8-5.2-1.9c-0.6-2.7,2.2-2.6,3.7-3c6.1-1.7,11.8-0.3,17.2,2.9c0.9,0.6,2.1,1.3,1.8,2.7c-0.4,1.6-1.9,1.3-2.9,1
			c-2.4-0.8-2.8,0.4-3,2.4c-0.9,9.4-4.6,17.9-8.8,26.3c-14.9,30-57,41-83.9,21.4c-10.7-7.8-20.1-17.1-22.5-31.1
			c-0.5-3-2-1.7-3.5-0.8c-1.6,1-3.2,3.2-4.9,0.5c-1.5-2.4,0.6-3.6,2.2-4.8c5.2-4,11.1-5.8,17.7-5.2c1.1,0.1,2.6-0.2,2.8,1.4
			c0.2,1.5-1.1,2-2.3,2.1c-5.7,0.3-5.1,3.5-4,7.5c4.3,16.2,22.6,31,40.4,32.3C232.3,172.8,234.5,172.7,236.7,172.7z"/>
		<path class="st8" d="M247,99.2c-0.2-6.3,1.7-10.6,6.8-13c4.6-2.1,8.3-0.1,9,4.9c0.6,4.7-0.1,9.2-3.1,13.1
			c-2.1,2.8-4.3,4.5-7.9,3.3c-3.6-1.1-4.8-3.8-4.7-7.3C247,99.6,247,98.9,247,99.2z"/>
		<path class="st8" d="M225.3,85.8c3.7,0.1,5.7,3.2,5.6,8.8c-0.1,5.8-4.5,11.3-9,11.2c-4.7-0.1-7.1-3.4-6.9-9.5
			C215.2,90.5,219.9,85.7,225.3,85.8z"/>
	</g>
</g>
</svg>
