<svg width="512" height="512" viewBox="0 0 512 512" fill="none" xmlns="http://www.w3.org/2000/svg">
<path d="M397.079 296.751C406.044 323.533 412.23 351.192 422.677 377.516C424.377 381.799 425.843 386.819 422.959 391.031C419.479 396.113 414.55 393.783 409.492 393.133C394.693 391.232 379.777 390.09 364.874 389.193C342.595 387.853 320.274 387.199 298.004 385.758C291.752 385.353 290.172 388.003 290.257 393.261C290.295 395.622 290.417 397.988 290.325 400.345C290.13 405.358 291.748 406.599 297.189 405.91C318.041 403.268 338.555 405.713 358.596 412.033C360.342 412.584 362.077 413.226 363.731 414.009C381.041 422.207 389.781 437.346 385.835 452.218C381.909 467.015 364.547 477.922 346.669 476.148C330.654 474.559 315.08 471.148 301.418 461.826C298.243 459.66 294.78 457.916 291.425 455.963C290.924 456.888 290.454 457.341 290.503 457.728C291.026 461.869 293.383 466.504 291.424 470.043C288.77 474.838 283.91 470.361 280.011 470.724C263.578 472.252 247.033 471.59 230.583 473.353C218.61 474.636 217.724 473.377 217.825 461.008C217.842 458.963 217.827 456.918 217.827 453.394C201.478 466.903 183.74 473.293 163.569 472.052C162.234 471.909 160.899 471.767 159.563 471.624C158.798 471.299 158.034 470.974 157.271 470.648C156.758 470.499 156.246 470.35 155.733 470.201C155.021 468.994 153.888 468.634 152.577 468.632C151.084 466.833 149.071 465.906 146.899 465.245C142.972 462.527 141.074 458.189 138.339 454.52C138.272 453.989 138.205 453.458 138.139 452.927C137.867 447.064 138.331 441.273 139.841 435.585C154.326 411.821 174.644 403.656 205.497 409.201C219.203 411.664 219.203 411.664 218.787 397.311C218.325 381.36 218.314 381.707 202.5 381.213C165.76 380.064 129.03 378.589 92.2999 377.133C87.0719 376.926 81.8089 376.323 76.9119 374.218C72.9309 372.507 71.0029 369.868 73.6039 365.572C87.4239 342.745 94.7359 317.077 105.166 292.777C120.989 255.911 137.327 219.3 154.845 183.212C157.197 178.367 159.303 173.402 161.847 167.777C154.449 168.944 153.321 176.174 147.851 178.989C146.762 175.613 148.029 173.054 148.858 170.448C152.568 158.785 151.173 156.472 139.899 155.548C147.734 145.389 147.734 145.389 148.538 138.926C145.258 138.516 144.264 141.462 142.558 143.125C136.452 149.076 129.718 153.981 121.404 156.286C106.699 160.364 94.4309 152.068 92.6649 136.85C91.3379 125.412 95.4629 114.496 96.1019 103.238C96.1839 101.791 97.0189 100.758 98.6109 100.836C101.9 100.997 103.016 103.602 103.676 106.096C106.136 115.386 112.75 119.795 121.507 121.864C122.529 122.106 123.555 122.341 124.59 122.522C130.499 123.556 136.424 123.776 143.052 123.149C139.384 116.878 132.911 119.031 128.267 117.277C128.356 114.442 130.192 113.212 131.384 111.586C136.06 105.207 135.27 100.48 128.36 96.8666C124.117 94.6476 122.538 93.3846 128.022 90.7276C135.151 87.2736 136.039 80.2676 136.989 73.4326C137.165 72.1656 137.039 70.5966 138.525 70.0746C140.173 69.4956 140.662 70.9866 141.339 72.0686C148.129 82.9196 148.131 82.9096 160.344 80.3916C161.352 80.1836 162.406 80.1106 163.435 80.1366C163.899 80.1486 164.354 80.5556 165.415 81.0816C163.275 85.3996 158.247 87.3426 156.765 92.3726C154.789 99.0806 158.505 101.306 163.771 103.181C161.53 106.339 159.597 109.063 157.327 112.262C160.851 112.311 162.17 109.661 164.197 108.368C192.876 90.0646 223.297 80.9436 256.742 92.9196C264.674 95.7596 270.359 95.4516 278.048 92.1066C306.477 79.7366 340.779 88.8526 365.807 114.049C367.745 116 368.982 118.98 372.641 119.244C374.04 112.407 369.035 108.17 366.122 103.161C376.476 99.1486 376.476 99.1486 382.094 81.8636C385.805 86.6726 387.418 94.2956 396.126 90.5196C401.703 88.1016 405.348 83.4226 411.396 78.1536C409.786 89.1406 403.535 97.8616 412.38 107.531C407.252 107.531 403.717 107.334 400.213 107.579C395.43 107.914 392.394 110.286 392.162 115.465C391.857 122.289 393.994 123.755 400.244 120.845C409.865 116.364 418.327 110.156 425.736 102.657C429.948 98.3936 433.294 99.0446 433.82 104.442C435.477 121.453 436.585 138.62 428.551 154.628C427.067 157.586 424.429 159.965 422.324 162.612C421.025 162.645 419.969 163.127 419.273 164.27L419.206 164.299C418.148 164.801 417.09 165.304 416.032 165.806L416.025 165.808C414.627 165.684 413.451 166.066 412.651 167.297L411.896 167.243L411.267 167.663C409.943 167.469 408.842 167.869 407.978 168.899C407.496 169.011 407.013 169.122 406.531 169.234C402.344 169.267 398.158 169.301 393.971 169.334C393.096 169.137 392.222 168.94 391.347 168.743C390.639 168.388 389.931 168.033 389.223 167.678L388.638 167.245L387.911 167.266C386.862 165.629 385.895 165.822 384.991 167.398C384.423 167.529 384.184 167.883 384.275 168.459C383.314 168.817 382.839 169.483 382.963 170.529L382.531 170.848L382.633 171.375C382.272 172.141 381.912 172.907 381.551 173.672C381.067 173.998 380.948 174.425 381.194 174.954C380.076 175.857 379.899 177.071 380.053 178.395C379.861 179.201 379.669 180.008 379.477 180.815C379.114 181.589 378.751 182.363 378.388 183.136C377.785 183.684 377.181 184.233 376.578 184.781C376.096 184.596 375.599 184.528 375.085 184.576L375.208 184.671C373.745 182.14 375.056 179.458 374.78 176.863C374.779 176.326 374.779 175.788 374.778 175.251C375.035 173.919 374.712 172.887 373.309 172.414L373.107 172.211C372.702 171.835 372.297 171.46 371.892 171.084C369.326 168.342 364.247 172.299 362.439 167.537C362.808 166.969 363.176 166.402 363.545 165.834C363.708 165.366 363.872 164.898 364.035 164.43C364.391 163.848 364.746 163.265 365.102 162.682C365.272 162.207 365.441 161.732 365.611 161.257C366.804 160.441 367.067 159.276 366.861 157.934C366.851 156.869 366.841 155.804 366.832 154.739C367.006 153.766 366.601 153.194 365.635 153.01L365.696 153.071C364.686 150.789 362.472 152.002 360.879 151.412L360.989 151.52C360.933 150.498 360.877 149.476 360.821 148.454L360.813 148.465C361.293 147.917 361.774 147.368 362.254 146.82L362.328 146.737C363.13 146.605 363.707 146.279 363.554 145.32C363.744 144.409 363.934 143.499 364.124 142.587C364.979 141.775 364.955 140.972 364.101 140.177C363.937 139.254 363.773 138.332 363.609 137.409C363.236 135.449 362.489 136.361 361.756 137.167L361.197 137.019L360.801 137.44C359.356 137.322 358.049 137.589 357.071 138.776L356.476 138.665L356.061 139.106C354.747 139.026 353.502 139.11 352.8 140.481L352.852 140.452C350.386 141.625 351.813 142.908 352.746 144.178C352.98 145.092 353.214 146.006 353.448 146.92C353.757 147.536 354.067 148.152 354.376 148.768C354.491 149.719 354.607 150.67 354.722 151.621C354.528 153.104 354.713 154.479 355.843 155.587C356.014 156.371 356.185 157.155 356.356 157.938C356.769 159.03 357.182 160.121 357.595 161.213C357.701 161.697 357.806 162.182 357.912 162.666C357.703 163.989 358.184 165.029 359.21 165.848C359.329 166.368 359.449 166.888 359.568 167.408C359.969 168.482 360.369 169.555 360.77 170.629C360.896 171.132 361.022 171.635 361.148 172.138C361.477 172.899 361.806 173.661 362.135 174.422C362.267 175.234 362.399 176.045 362.531 176.857C362.304 178.693 362.536 180.404 363.868 181.82C363.596 182.343 363.686 182.794 364.139 183.173C363.922 184.985 364.123 186.683 365.47 188.07C365.219 188.633 365.335 189.107 365.818 189.491C366.215 190.63 366.611 191.769 367.008 192.909C366.713 193.417 366.797 193.851 367.262 194.211C367.071 195.601 367.404 196.791 368.577 197.661C368.333 198.173 368.435 198.602 368.884 198.949C368.726 200.412 368.786 201.81 370.037 202.857C370.241 203.664 370.445 204.471 370.65 205.278C371.029 206.373 371.407 207.468 371.786 208.563C371.893 209.041 372 209.52 372.107 209.998C371.96 211.331 372.192 212.529 373.322 213.407C373.487 214.377 373.653 215.346 373.818 216.316C374.132 217.068 374.446 217.821 374.76 218.573C374.941 219.397 375.123 220.221 375.304 221.045C375.182 222.436 375.268 223.767 376.372 224.81C376.499 225.654 376.625 226.499 376.752 227.343C376.492 229.165 376.861 230.812 378.103 232.218C378.261 233.229 378.42 234.24 378.578 235.252C378.915 235.898 379.253 236.543 379.59 237.189C379.379 237.713 379.519 238.117 380.007 238.4C379.891 239.695 380.197 240.827 381.264 241.667C381.398 242.157 381.532 242.647 381.666 243.136C381.998 243.87 382.329 244.605 382.661 245.339C382.813 246.179 382.965 247.02 383.117 247.86C382.921 249.271 383.078 250.572 384.272 251.548C384.422 252.423 384.572 253.297 384.722 254.172C384.523 255.629 384.544 257.026 385.813 258.072C385.993 258.877 386.173 259.682 386.353 260.487C386.744 261.618 387.136 262.748 387.527 263.879C387.233 264.387 387.312 264.829 387.761 265.205C387.563 266.654 387.781 267.967 388.992 268.954C389.168 269.813 389.345 270.672 389.521 271.531C389.343 272.854 389.55 274.046 390.682 274.92C390.434 275.444 390.535 275.89 390.986 276.255C390.818 277.657 391.085 278.917 392.174 279.909C392.349 280.799 392.524 281.688 392.699 282.578C393.099 283.654 393.499 284.73 393.899 285.806C393.991 286.305 394.083 286.803 394.176 287.302C393.976 288.67 394.185 289.896 395.385 290.778C395.139 291.282 395.243 291.7 395.696 292.031C395.55 293.476 395.679 294.838 396.868 295.876L396.675 296.386L397.079 296.751ZM379.614 151.731L379.578 151.692C379.524 153.084 380.027 154.143 381.372 154.701L381.376 154.71C381.887 155.259 382.398 155.809 382.909 156.359C393.526 169.924 417.275 160.801 422.687 148.522C426.965 138.816 427.497 128.734 427.317 118.44C427.228 113.363 426.215 111.566 421.141 115.379C411.009 122.993 400.1 129.371 387.198 131.045C375.328 132.585 374.316 133.841 377.085 145.395C377.452 146.925 378.003 148.41 378.468 149.916C378.85 150.521 379.232 151.126 379.614 151.731ZM182.3 373.395C196.554 373.755 210.808 374.115 225.062 374.475C226.862 377.129 227.563 379.735 227.309 383.236C226.664 392.126 226.941 401.086 226.977 410.018C226.987 412.369 227.164 415.46 229.625 416.143C234.803 417.579 239.411 415.265 243.551 412.294C247.448 409.497 252.775 407.638 251.765 401.177C250.958 396.007 250.053 390.851 249.359 385.666C248.96 382.691 247.394 378.535 251.706 377.733C256.462 376.849 256.602 381.016 256.971 384.58C257.644 391.084 258.189 397.654 259.606 404.014C260.986 410.206 270.03 414.482 277.551 413.306C285.083 412.128 283.297 406.243 283.272 401.562C283.242 396.075 282.315 390.593 282.281 385.106C282.248 379.732 284.088 376.429 290.779 377.108C301.206 378.167 311.742 378.099 322.215 378.76C347.847 380.378 373.548 381.045 399.034 384.666C411.854 386.488 414.699 382.778 410.901 370.377C400.073 335.022 389.063 299.719 378.67 264.236C367.395 225.742 356.544 187.126 344.418 148.884C343.141 144.857 341.921 141.093 336.572 142.452C327.138 144.849 317.672 143.719 308.439 142.017C293.275 139.221 277.711 136.757 266.999 123.702C264.052 120.111 262.504 123.335 260.789 124.94C255.644 129.755 251.093 134.971 244.138 137.818C227.511 144.623 210.193 144.554 192.947 143.293C185.429 142.743 182.223 145.29 179.424 151.429C167.344 177.929 154.24 203.942 142.028 230.392C124.314 268.761 106.888 307.211 92.4919 346.972C88.9639 351.028 87.9759 356.319 85.6769 360.972C83.0019 366.385 84.2279 369.111 90.6829 369.324C120.675 370.312 150.662 371.474 180.651 372.573C181.201 372.848 181.75 373.122 182.3 373.395ZM204.202 137.27C211.136 138.022 217.878 136.522 224.612 135.538C236.643 133.78 247.338 129.405 254.741 118.955C263.79 106.181 261.192 99.9086 246.098 96.4026C229.023 92.4366 212.61 95.5916 196.419 100.224C183.518 103.915 170.952 108.814 161.755 119.474C156.373 125.712 157.051 127.975 164.771 131.361C177.423 136.911 190.953 136.138 204.202 137.27ZM320.771 136.063C332.634 136.439 344.903 133.83 356.825 129.41C366.331 125.886 366.66 124.264 359.687 116.648C353.157 109.516 344.946 104.69 336.261 100.973C318.531 93.3836 300.356 91.4436 281.88 98.6796C274.674 101.502 271.377 106.175 271.831 114.38C272.247 121.916 275.821 126.021 282.3 128.353C294.435 132.721 306.73 136.408 320.771 136.063ZM293.734 446.841C293.614 450.036 295.517 451.276 297.187 452.336C312.915 462.317 329.715 468.936 348.71 469.014C357.325 469.05 364.61 466.02 370.908 460.517C381.766 451.03 381.976 433.844 371.397 425.298C365.781 420.762 359.129 418.32 352.137 416.874C349.954 416.423 347.978 416.041 346.382 419.091C338.791 433.598 325.486 440.54 310.436 444.544C305.028 445.984 299.272 446.118 293.734 446.841ZM167.523 465.261C183.081 465.183 196.629 459.431 208.991 450.439C210.642 449.238 212.656 447.795 212.245 445.423C211.918 443.539 209.846 443.544 208.351 443.598C191.969 444.189 178.503 436.855 165.516 428.083C163.405 426.657 161.304 425.288 158.348 427.153C150.766 431.935 144.651 445.163 146.718 453.136C148.661 460.63 156.518 465.204 167.523 465.261ZM260.558 416.998C263.629 426.255 269.861 432.207 278.917 434.992C292.078 439.04 305.279 439.107 318.203 434.032C325.633 431.114 331.44 425.753 336.737 419.96C338.23 418.327 341.005 415.204 336.103 414.245C321.907 411.47 307.26 408.436 293.824 415.73C284.347 420.875 275.59 421.118 266.021 417.598C264.283 416.959 262.461 415.355 260.558 416.998ZM168.279 421.938C186.284 441.347 231.634 441.948 243.478 421.683C236.51 422.497 228.569 425.031 222.77 421.969C216.229 418.515 209.504 417.271 202.794 415.974C190.774 413.65 178.802 414.164 168.279 421.938ZM99.0699 132.87C98.8219 149.047 109.948 155.961 124.13 148.275C130.609 144.764 136.551 140.416 141.395 134.767C142.69 133.257 145.255 131.975 144.272 129.652C143.204 127.13 140.619 128.518 138.67 128.665C129.557 129.35 121.087 127.113 112.732 123.655C108.859 122.053 105.61 115.49 101.875 118.685C99.1309 121.033 99.8819 127.468 99.0839 132.084C99.0399 132.339 99.0779 132.608 99.0699 132.87ZM241.116 465.599C243.997 465.599 246.877 465.582 249.757 465.603C255.091 465.641 257.056 463.955 255.834 457.921C254.13 449.513 252.66 440.917 253.506 432.185C253.673 430.461 254.351 428.202 252.489 427.138C250.335 425.907 249.265 428.206 248.105 429.416C244.234 433.45 239.57 436.637 234.599 438.66C228.14 441.289 226.428 445.34 226.457 451.924C226.522 466.695 226.197 466.697 241.116 465.599ZM260.955 445.593C261.6 450.273 260.819 455.288 262.775 460.06C264.758 464.897 268.585 466.233 272.922 464.876C276.46 463.769 281.927 466.541 283.325 460.472C285.607 450.573 282.638 444.266 273.547 439.448C272.626 438.96 271.792 438.266 270.828 437.907C267.737 436.755 265.382 431.799 262.417 433.577C259.29 435.452 261.413 440.305 260.963 443.824C260.898 444.338 260.955 444.867 260.955 445.593ZM138.271 104.868C140.455 107.84 132.271 111.917 139.209 115.099C142.477 116.598 145.408 120.649 148.39 120.547C153.356 120.378 149.842 113.877 152.887 111.327C154.04 110.362 154.736 108.818 155.537 107.477C156.384 106.059 156.8 104.564 155.31 103.259C151.019 99.4996 152.483 94.6586 152.857 90.0546C152.991 88.4036 154.741 85.9416 151.776 85.7426C146.382 85.3796 140.11 78.5696 135.827 88.9436C134.17 92.9566 131.952 94.8996 136.097 98.0726C138.109 99.6136 138.508 102.026 138.271 104.868ZM389.33 95.1456C384.975 92.2156 382.847 94.4886 380.942 98.3436C380.082 100.084 378.24 101.553 376.514 102.603C373.618 104.364 373.362 106.291 374.965 109.071C376.128 111.087 376.976 113.302 377.808 115.488C378.485 117.266 377.829 120.37 380.998 119.707C383.524 119.179 387.21 119.433 387.52 115.461C388.097 108.056 392.941 105.266 399.384 104.274C406.486 103.181 403.407 97.6406 402.959 94.4826C402.276 89.6646 399.147 93.8406 397.094 94.0576C394.532 94.3276 391.987 94.7656 389.33 95.1456ZM162.661 145.394C162.601 143.016 158.309 143.488 156.016 142.071C153.029 140.224 153.399 143.922 152.228 145.268C146.261 152.129 154.633 156.289 155.242 161.888C155.383 163.19 155.311 165.416 157.806 164.678C159.56 164.159 162.017 163.113 161.394 161.233C159.776 156.354 161.879 152.014 162.661 145.394ZM369.35 146.362C368.628 146.443 367.905 146.525 367.183 146.606C370.985 152.572 369.707 159.167 371.168 165.293C371.599 167.1 374.922 170.845 378.397 168.263C381.097 166.256 381.784 163.819 378.857 160.49C375.14 156.263 372.471 151.114 369.35 146.362ZM165.907 158.63C170.133 152.733 173.938 147.302 173.693 142.241C173.519 138.647 166.035 138.499 161.887 136.661C159.945 135.801 158.312 133.652 155.328 134.523C156.15 135.523 156.69 136.382 157.417 137.031C162.876 141.907 165.316 147.614 165.095 154.981C165.072 155.721 165.411 156.47 165.907 158.63ZM389.553 123.521C386.066 122.731 382.474 121.532 379.96 125.719C383.634 126.452 386.696 125.402 389.553 123.521Z" fill="#030402"/>
<path d="M92.492 346.973C106.888 307.212 124.314 268.761 142.028 230.393C154.24 203.943 167.344 177.93 179.424 151.43C182.223 145.291 185.428 142.744 192.947 143.294C210.192 144.555 227.511 144.624 244.138 137.819C251.094 134.972 255.644 129.756 260.789 124.941C262.504 123.336 264.053 120.112 266.999 123.703C277.711 136.758 293.274 139.222 308.439 142.018C317.672 143.72 327.138 144.851 336.572 142.453C341.921 141.094 343.141 144.858 344.418 148.885C356.543 187.127 367.395 225.743 378.67 264.237C389.063 299.72 400.074 335.023 410.901 370.378C414.699 382.778 411.854 386.488 399.034 384.667C373.548 381.046 347.847 380.379 322.215 378.761C311.741 378.1 301.205 378.168 290.779 377.109C284.088 376.429 282.248 379.732 282.281 385.107C282.315 390.594 283.242 396.076 283.272 401.563C283.298 406.245 285.083 412.129 277.551 413.307C270.031 414.483 260.986 410.207 259.606 404.015C258.188 397.655 257.644 391.085 256.971 384.581C256.602 381.017 256.463 376.85 251.706 377.734C247.394 378.535 248.96 382.692 249.359 385.667C250.054 390.852 250.958 396.008 251.765 401.178C252.774 407.64 247.448 409.499 243.551 412.295C239.41 415.266 234.803 417.581 229.625 416.144C227.165 415.462 226.987 412.371 226.977 410.019C226.94 401.087 226.664 392.127 227.309 383.237C227.563 379.736 226.862 377.13 225.062 374.473C224.244 372.805 222.74 372.471 221.105 372.511C197.779 373.083 174.611 370.216 151.356 369.202C132.769 368.392 114.204 367.425 95.592 367.679C94.058 367.7 92.512 367.2 90.98 366.898C87.516 366.215 86.219 364.947 87.88 360.994C89.769 356.494 92.804 352.237 92.492 346.973ZM295.71 165.692C303.613 165.002 310.93 166.265 316.89 172.048C319.337 173.81 321.741 177.083 324.975 174.336C327.163 172.477 325.14 169.867 323.958 167.986C314.94 153.643 285.829 153.985 277.028 168.45C275.862 170.367 274.952 172.282 276.916 174.073C279.167 176.127 280.724 174.199 282.171 172.746C285.948 168.953 290.168 166.07 295.71 165.692ZM226.583 262.518C224.586 257.765 220.002 257.346 216.107 257.506C209.772 257.766 207.335 255.943 207.518 249.236C207.632 245.074 207.845 239.351 201.219 238.443C197.826 236.49 194.34 236.29 190.617 237.535C182.977 240.089 180.481 238.733 179.616 230.716C178.887 223.955 178.269 217.032 180.083 210.346C181.009 206.932 180.589 204.652 177.17 203.445C173.151 202.027 172.633 205.662 172.121 207.785C170.714 213.613 169.575 219.464 170.577 225.659C171.815 233.313 173.619 240.82 176.557 250.58C169.661 241.762 162.665 241.375 155.262 244.357C147.876 247.333 148.764 254.045 149.653 259.903C150.462 265.236 146.645 264.371 144.048 265.426C135.983 268.702 134.613 274.091 140.31 280.651C142.025 282.625 144.111 284.274 145.995 286.106C147.146 287.225 147.87 288.292 147.237 290.205C142.848 303.46 142.84 303.55 153.545 312.196C155.74 313.969 157.749 315.268 156.497 318.536C155.46 321.243 154.087 324.826 158.382 325.443C162.663 326.058 162.768 321.78 163.44 318.882C164.027 316.351 163.771 313.611 164.455 311.119C165.396 307.688 167.242 305.072 171.448 304.754C186.536 303.611 191.328 308.934 188.409 323.914C188.16 325.192 187.533 326.436 187.5 327.706C187.436 330.141 189.044 331.736 191.176 332.223C193.902 332.846 195.17 330.717 195.111 328.527C194.951 322.524 198.854 321.408 203.548 320.239C213.734 317.703 217.681 313.068 218.797 303.001C219.572 296.014 225.45 294.757 229.582 296.377C238.215 299.762 246.125 297.12 254.336 296.098C256.925 295.776 259.685 294.79 262.076 295.35C266.309 296.341 270.668 297.728 274.306 300.014C276.886 301.635 273.862 304.777 274.037 307.344C274.488 313.962 277.625 318.518 284.116 319.595C289.103 320.423 293.084 321.745 295.261 326.716C295.823 327.999 297.269 329.469 299.049 328.822C301.22 328.034 301.047 325.96 300.845 324.11C300.704 322.813 300.374 321.535 300.091 320.257C297.288 307.594 297.69 306.974 310.356 304.68C311.646 304.446 312.962 304.353 314.25 304.112C327.247 301.684 328.089 302.183 330.803 314.594C331.23 316.548 331.843 318.15 333.982 318.552C335.885 318.91 338.4 318.819 338.453 316.647C338.588 311.11 343.051 311.036 346.418 309.485C352.301 306.775 357.493 303.056 355.219 295.785C353.61 290.641 353.841 287.322 358.242 283.842C360.789 281.828 362.139 278.371 363.15 275.017C366.525 263.824 361.788 256.206 350.903 255.579C342.974 255.123 335.611 243.387 339.122 236.157C343.53 227.082 342.209 217.668 341.424 208.313C341.174 205.33 339.768 201.751 335.586 202.154C330.351 202.659 333.003 206.84 332.551 209.556C332.723 220.303 333.757 231.4 321.379 237.046C320.897 237.66 320.458 238.315 319.926 238.882C313.276 245.961 309.285 246.383 299.277 245.131C284.116 243.235 275.368 242.855 280.304 261.838C281.275 265.571 280.035 266.922 276.708 267.92C270.532 269.772 265.018 272.847 261.993 278.871C260.057 282.727 261.627 288.695 254.752 289.364C250.09 289.818 245.524 291.339 240.863 291.681C238.231 291.874 234.007 291.427 235.078 287.316C237.783 276.947 232.602 269.679 226.583 262.518ZM258.672 228.735C269.025 229.273 282.726 218.048 283.426 208.451C284.074 199.577 273.228 189.867 262.172 189.421C252.467 189.03 243.19 198.857 242.693 210.056C242.241 220.235 249.086 228.237 258.672 228.735ZM233.754 156.286C224.145 156.275 217.512 160.055 214.844 167.409C213.81 170.257 212.208 174.278 215.478 175.825C218.505 177.257 219.078 172.951 220.328 170.895C227.133 159.702 239.671 159.417 246.531 170.236C247.948 172.471 249.528 176.18 253.029 174.133C256.629 172.028 255.145 168.465 253.336 165.832C248.656 159.024 241.838 156.26 233.754 156.286Z" fill="#007732"/>
<path d="M204.202 137.27C190.954 136.138 177.423 136.911 164.771 131.362C157.052 127.976 156.373 125.713 161.755 119.475C170.952 108.815 183.518 103.916 196.419 100.225C212.61 95.592 229.022 92.437 246.098 96.404C261.192 99.91 263.79 106.182 254.741 118.956C247.338 129.406 236.643 133.781 224.612 135.539C217.877 136.522 211.135 138.022 204.202 137.27Z" fill="#CC0927"/>
<path d="M320.771 136.063C306.729 136.409 294.435 132.722 282.301 128.353C275.822 126.02 272.248 121.916 271.832 114.38C271.379 106.175 274.676 101.502 281.881 98.6797C300.357 91.4427 318.532 93.3837 336.262 100.973C344.947 104.69 353.157 109.516 359.688 116.648C366.661 124.263 366.331 125.885 356.826 129.41C344.903 133.83 332.635 136.439 320.771 136.063Z" fill="#CB0927"/>
<path d="M293.734 446.84C299.272 446.118 305.028 445.983 310.437 444.544C325.487 440.54 338.792 433.598 346.383 419.091C347.979 416.041 349.955 416.423 352.138 416.874C359.13 418.32 365.783 420.762 371.398 425.298C381.976 433.844 381.767 451.029 370.909 460.517C364.611 466.02 357.326 469.049 348.711 469.014C329.715 468.936 312.916 462.316 297.188 452.336C295.517 451.275 293.613 450.035 293.734 446.84Z" fill="#CB0927"/>
<path d="M378.468 149.915C378.002 148.409 377.451 146.923 377.085 145.394C374.316 133.84 375.327 132.584 387.198 131.044C400.101 129.37 411.009 122.992 421.141 115.378C426.215 111.565 427.229 113.363 427.317 118.439C427.497 128.732 426.965 138.815 422.687 148.521C417.275 160.8 393.526 169.924 382.908 156.358C382.397 155.808 381.886 155.259 381.376 154.71L381.371 154.701C381.385 153.333 380.999 152.204 379.578 151.691L379.614 151.73C379.232 151.124 378.85 150.52 378.468 149.915Z" fill="#CA0A27"/>
<path d="M167.52 465.252C156.518 465.204 148.661 460.63 146.718 453.135C144.651 445.162 150.766 431.934 158.348 427.152C161.304 425.287 163.405 426.657 165.516 428.082C178.503 436.854 191.969 444.188 208.351 443.597C209.846 443.543 211.918 443.538 212.245 445.422C212.656 447.793 210.642 449.236 208.991 450.438C196.63 459.431 183.081 465.183 167.52 465.252Z" fill="#C80C28"/>
<path d="M99.0739 132.87C99.0779 132.608 99.0399 132.339 99.0839 132.084C99.8819 127.468 99.1309 121.033 101.875 118.685C105.609 115.49 108.859 122.053 112.732 123.655C121.088 127.113 129.558 129.35 138.67 128.665C140.619 128.518 143.204 127.131 144.272 129.652C145.255 131.974 142.69 133.257 141.395 134.767C136.551 140.416 130.609 144.764 124.13 148.275C109.947 155.961 98.8209 149.047 99.0739 132.87Z" fill="#C70D28"/>
<path d="M241.116 465.599C226.196 466.697 226.522 466.695 226.457 451.924C226.428 445.34 228.141 441.289 234.599 438.66C239.57 436.637 244.234 433.45 248.105 429.416C249.266 428.206 250.335 425.908 252.489 427.138C254.35 428.202 253.673 430.461 253.506 432.185C252.66 440.917 254.13 449.512 255.834 457.921C257.057 463.955 255.092 465.641 249.757 465.603C246.878 465.582 243.997 465.599 241.116 465.599Z" fill="#C40C28"/>
<path d="M260.955 445.592C260.955 444.867 260.898 444.337 260.964 443.824C261.414 440.305 259.291 435.451 262.418 433.577C265.383 431.799 267.738 436.755 270.829 437.907C271.793 438.266 272.627 438.96 273.548 439.448C282.639 444.266 285.607 450.573 283.326 460.472C281.927 466.541 276.461 463.769 272.923 464.876C268.586 466.233 264.758 464.897 262.776 460.06C260.818 455.286 261.599 450.272 260.955 445.592Z" fill="#BE0E29"/>
<path d="M138.271 104.867C138.509 102.025 138.109 99.6133 136.097 98.0733C131.952 94.9003 134.171 92.9573 135.827 88.9443C140.11 78.5703 146.382 85.3803 151.776 85.7433C154.741 85.9423 152.991 88.4053 152.857 90.0553C152.483 94.6583 151.019 99.5003 155.31 103.259C156.8 104.564 156.384 106.059 155.537 107.477C154.735 108.818 154.039 110.362 152.887 111.327C149.841 113.876 153.356 120.378 148.39 120.547C145.408 120.648 142.477 116.598 139.209 115.099C132.27 111.916 140.454 107.839 138.271 104.867Z" fill="#12513D"/>
<path d="M389.33 95.1459C391.987 94.7659 394.532 94.3279 397.094 94.0569C399.147 93.8399 402.276 89.6639 402.959 94.4819C403.407 97.6409 406.486 103.18 399.384 104.273C392.941 105.265 388.097 108.055 387.52 115.46C387.211 119.432 383.524 119.178 380.998 119.706C377.83 120.369 378.485 117.265 377.808 115.487C376.976 113.301 376.128 111.087 374.965 109.07C373.362 106.29 373.617 104.363 376.514 102.602C378.24 101.552 380.082 100.083 380.942 98.3429C382.847 94.4889 384.975 92.2169 389.33 95.1459Z" fill="#13503D"/>
<path d="M92.492 346.973C92.804 352.237 89.769 356.494 87.879 360.993C86.218 364.947 87.515 366.215 90.979 366.897C92.511 367.199 94.057 367.699 95.591 367.678C114.202 367.424 132.768 368.391 151.355 369.201C174.609 370.214 197.777 373.081 221.104 372.51C222.739 372.47 224.243 372.803 225.061 374.472C210.807 374.115 196.553 373.755 182.302 373.399C181.753 373.127 181.202 372.851 180.651 372.574C150.662 371.474 120.676 370.313 90.683 369.325C84.228 369.112 83.002 366.386 85.677 360.973C87.976 356.32 88.964 351.029 92.492 346.973Z" fill="#1B6D3D"/>
<path d="M162.661 145.394C161.879 152.014 159.776 156.355 161.394 161.233C162.017 163.113 159.56 164.159 157.806 164.678C155.31 165.416 155.383 163.19 155.242 161.888C154.634 156.29 146.261 152.129 152.228 145.268C153.399 143.922 153.029 140.225 156.016 142.071C158.308 143.488 162.6 143.015 162.661 145.394Z" fill="#174F3C"/>
<path d="M369.35 146.361C372.471 151.113 375.14 156.262 378.857 160.489C381.784 163.818 381.098 166.255 378.397 168.262C374.922 170.844 371.599 167.099 371.168 165.292C369.707 159.166 370.985 152.571 367.183 146.605C367.905 146.524 368.628 146.442 369.35 146.361Z" fill="#1D4A3A"/>
<path d="M379.578 151.691C380.999 152.204 381.385 153.333 381.371 154.701C380.027 154.142 379.523 153.083 379.578 151.691Z" fill="#8A1826"/>
<path d="M180.651 372.573C181.202 372.849 181.754 373.125 182.302 373.398C181.75 373.121 181.201 372.847 180.651 372.573Z" fill="#007732"/>
<path d="M378.468 149.916C378.85 150.521 379.233 151.125 379.615 151.73C379.232 151.126 378.85 150.521 378.468 149.916Z" fill="#8A1826"/>
<path d="M332.555 209.553C333.006 206.837 330.355 202.655 335.59 202.151C339.772 201.748 341.178 205.327 341.428 208.31C342.213 217.665 343.533 227.079 339.126 236.154C335.615 243.384 342.978 255.12 350.907 255.576C361.792 256.202 366.529 263.821 363.154 275.014C362.143 278.368 360.792 281.825 358.246 283.839C353.845 287.319 353.614 290.638 355.223 295.782C357.497 303.053 352.304 306.772 346.422 309.482C343.055 311.033 338.592 311.107 338.457 316.644C338.404 318.816 335.889 318.907 333.986 318.549C331.847 318.147 331.234 316.544 330.807 314.591C328.093 302.181 327.251 301.681 314.254 304.109C312.965 304.35 311.65 304.444 310.36 304.677C297.694 306.972 297.292 307.591 300.095 320.254C300.378 321.532 300.708 322.811 300.849 324.107C301.051 325.956 301.224 328.03 299.053 328.819C297.273 329.465 295.827 327.995 295.265 326.713C293.087 321.742 289.107 320.42 284.12 319.592C277.629 318.515 274.491 313.96 274.041 307.341C273.866 304.773 276.89 301.631 274.31 300.011C270.672 297.726 266.314 296.338 262.08 295.347C259.689 294.787 256.929 295.773 254.34 296.095C246.129 297.117 238.219 299.759 229.586 296.374C225.454 294.754 219.575 296.011 218.801 302.998C217.685 313.065 213.738 317.7 203.552 320.236C198.858 321.405 194.954 322.521 195.115 328.524C195.174 330.713 193.906 332.843 191.18 332.22C189.048 331.733 187.44 330.137 187.504 327.703C187.537 326.432 188.165 325.188 188.413 323.911C191.332 308.931 186.539 303.608 171.452 304.751C167.246 305.07 165.4 307.685 164.459 311.116C163.775 313.608 164.031 316.348 163.444 318.879C162.772 321.777 162.667 326.055 158.386 325.44C154.09 324.823 155.464 321.24 156.501 318.533C157.753 315.265 155.744 313.966 153.549 312.193C142.845 303.547 142.852 303.458 147.241 290.202C147.874 288.289 147.15 287.222 145.999 286.103C144.115 284.272 142.029 282.623 140.314 280.648C134.617 274.089 135.986 268.699 144.052 265.423C146.65 264.368 150.466 265.233 149.657 259.9C148.768 254.042 147.88 247.33 155.266 244.354C162.669 241.371 169.665 241.759 176.561 250.577C173.623 240.817 171.819 233.31 170.581 225.656C169.579 219.461 170.718 213.61 172.125 207.782C172.637 205.659 173.156 202.024 177.174 203.442C180.593 204.649 181.013 206.928 180.087 210.343C178.273 217.029 178.891 223.953 179.62 230.713C180.484 238.73 182.98 240.087 190.621 237.532C194.344 236.287 197.83 236.487 201.225 238.44C202.148 239.707 203.026 241.009 203.998 242.236C207.99 247.277 202.804 256.721 208.548 258.628C214.031 260.449 220.741 260.081 226.586 262.514C232.606 269.675 237.787 276.944 235.085 287.311C234.014 291.422 238.238 291.869 240.87 291.676C245.531 291.334 250.097 289.812 254.759 289.359C261.634 288.69 260.064 282.722 262 278.866C265.025 272.842 270.54 269.768 276.715 267.915C280.042 266.917 281.282 265.566 280.311 261.833C275.375 242.85 284.123 243.23 299.284 245.126C309.291 246.378 313.283 245.955 319.933 238.877C320.465 238.31 320.904 237.655 321.386 237.04C334.493 232.779 338.23 223.584 332.555 209.553ZM300.698 271.688C301.316 272.076 301.935 272.463 302.553 272.851C304.408 274.162 307.326 275.197 305.585 278.149C304.313 280.307 301.815 279.532 299.829 278.823C297.608 278.03 295.493 276.948 293.303 276.063C287.956 273.903 282.595 273.852 277.181 275.912C272.24 277.792 268.95 281.093 269.754 286.561C270.61 292.384 275.061 293.356 280.331 293.633C285.618 293.91 291.268 291.497 296.213 295.23C295.687 298.897 292.366 298.052 290.147 299.019C285.354 301.107 281.234 303.815 281.867 309.954C282.243 313.601 284.863 314.569 288.062 314.461C292.173 314.323 291.945 311.517 290.995 308.921C288.818 302.975 291.652 301.564 296.923 301.275C300.27 301.092 303.531 299.534 306.885 299.259C316.933 298.436 327.085 295.902 336.957 300.332C337.589 303.334 339.18 305.351 342.441 304.162C345.561 303.025 347.629 300.564 348.127 297.17C348.566 294.173 347.071 291.886 344.387 290.943C342.224 290.183 339.768 290.208 337.432 290.007C334.994 289.798 332.142 289.601 332.092 286.596C332.033 283.04 335.245 283.872 337.443 283.837C340.06 283.796 342.759 284.477 345.285 284.042C351.868 282.908 355.181 278.205 356.006 272.042C356.45 268.727 358.296 263.951 353.633 262.34C348.69 260.632 345.427 264.743 342.309 267.868C340.443 269.738 338.98 272.439 335.872 270.509C333.024 268.741 333.481 265.974 334.914 263.555C337.641 258.955 336.67 254.429 334.997 249.894C333.768 246.564 333.141 241.711 328.442 242.523C324.481 243.208 321.832 246.988 321.429 251.195C321.005 255.619 321.341 260.116 321.348 264.581C321.351 266.56 322.479 269.116 319.577 269.867C317.162 270.492 315.724 268.609 314.598 266.776C312.401 263.2 310.581 259.354 308.081 256.012C303.935 250.469 297.748 250.344 291.586 250.837C288.41 251.091 287.164 253.485 286.875 256.287C286.201 262.818 290.309 266.366 295.31 269.26C295.983 269.649 296.767 269.846 297.499 270.132C298.269 271.271 299.357 271.76 300.711 271.704L300.698 271.688ZM193.683 272.913C193.584 271.845 193.484 270.777 193.385 269.709C193.337 269.22 193.446 268.77 193.714 268.359C194.933 267.683 195.259 266.58 195.187 265.286C197.646 260.285 199.269 255.098 198.707 249.427C198.501 247.347 198.575 244.984 196.396 243.921C193.835 242.671 191.865 244.483 190.123 245.978C184.405 250.883 181.67 257.11 182.07 264.718C182.187 266.938 182.827 269.747 179.182 270.011C176.256 270.222 174.982 268.261 174.175 265.916C172.648 261.48 171.469 256.908 169.678 252.585C168.176 248.959 165.231 247.83 161.308 249.147C157.526 250.416 155.8 252.995 155.851 256.784C155.903 260.709 158.168 263.551 160.743 266.297C162.81 268.501 166.28 271.119 164.143 274.206C161.436 278.116 158.772 273.828 156.178 272.713C154.98 272.198 153.889 271.433 152.69 270.921C149.991 269.769 147.322 270.207 145.526 272.378C143.414 274.932 145.029 277.334 146.902 279.311C150.808 283.432 154.951 287.159 161.225 284.025C164.087 282.595 166.777 283.065 169.502 284.268C170.843 289.038 168.097 290.212 164.132 290.617C159.351 291.105 154.635 292.227 151.893 296.619C149.162 300.993 151.934 304.015 155.236 306.543C157.193 308.041 159.208 307.291 159.336 305.09C159.851 296.228 165.525 297.085 171.498 298.216L172.149 298.455L172.842 298.418C180.032 301.43 187.653 299.163 195.002 300.226C197.908 302.143 198.87 304.774 198.549 308.254C198.353 310.382 196.94 313.478 199.706 314.549C202.512 315.636 205.158 313.809 207.493 311.972C211.596 308.746 211.743 304.491 210.902 299.914C210.996 294.734 216.091 294.45 218.808 291.838C228.316 286.174 229.951 282.896 227.141 275.127C223.009 263.701 213.746 261.869 201.729 270.101C199.02 270.936 197.07 273.887 193.733 272.972L193.683 272.913Z" fill="#040602"/>
<path d="M258.672 228.734C249.087 228.236 242.242 220.234 242.693 210.056C243.19 198.857 252.467 189.03 262.172 189.421C273.228 189.866 284.074 199.577 283.426 208.451C282.725 218.047 269.025 229.273 258.672 228.734ZM250.299 212.559C250.056 218.59 252.779 222 258.982 222.126C266.674 222.283 275.767 214.323 275.843 207.473C275.913 201.114 271.372 197.257 263.741 197.196C254.856 197.127 250.261 202.378 250.299 212.559Z" fill="#080B03"/>
<path d="M295.71 165.691C290.168 166.069 285.948 168.952 282.171 172.745C280.723 174.198 279.167 176.126 276.916 174.072C274.953 172.281 275.862 170.366 277.028 168.449C285.83 153.984 314.94 153.642 323.958 167.985C325.141 169.866 327.163 172.477 324.975 174.335C321.741 177.082 319.337 173.809 316.888 172.047C312.721 163.926 306.647 162.103 295.71 165.691Z" fill="#010A02"/>
<path d="M233.754 156.285C241.838 156.259 248.656 159.023 253.335 165.831C255.145 168.464 256.629 172.027 253.028 174.132C249.527 176.179 247.947 172.47 246.53 170.235C239.671 159.417 227.132 159.702 220.327 170.894C219.077 172.95 218.504 177.256 215.477 175.824C212.207 174.277 213.81 170.257 214.843 167.408C217.512 160.054 224.145 156.274 233.754 156.285Z" fill="#010A02"/>
<path d="M226.583 262.517C220.738 260.083 214.028 260.451 208.545 258.631C202.801 256.724 207.987 247.28 203.995 242.239C203.023 241.012 202.145 239.71 201.222 238.443C207.846 239.351 207.633 245.074 207.519 249.236C207.336 255.943 209.773 257.766 216.108 257.506C220.002 257.344 224.586 257.764 226.583 262.517Z" fill="#1F6B3D"/>
<path d="M332.555 209.554C338.23 223.586 334.493 232.781 321.383 237.043C333.76 231.397 332.727 220.3 332.555 209.554Z" fill="#1C703E"/>
<path d="M295.71 165.692C306.647 162.104 312.721 163.927 316.889 172.049C310.93 166.265 303.613 165.002 295.71 165.692Z" fill="#21663E"/>
<path d="M310.799 430.685C308.508 430.251 307.189 428.857 307.266 426.382C307.321 424.627 308.271 423.156 310.015 423.114C312.765 423.047 313.205 425.44 313.533 427.476C313.826 429.301 312.808 430.436 310.799 430.685Z" fill="#272725"/>
<path d="M299.399 426.34C301.568 426.819 302.23 428.422 302.359 430.274C302.497 432.253 301.742 433.993 299.555 434.04C297.02 434.095 296.048 432.251 296.166 429.957C296.268 427.979 297.444 426.737 299.399 426.34Z" fill="#1C1D19"/>
<path d="M287.991 426.446C290.199 426.915 290.762 428.694 290.873 430.489C290.962 431.927 289.835 432.877 288.395 432.862C286.332 432.841 284.898 431.87 285.104 429.555C285.255 427.853 286.285 426.808 287.991 426.446Z" fill="#353535"/>
<path d="M218.347 432.483C215.73 432.635 214.803 431.129 214.446 429.254C214.104 427.456 215.111 426.177 216.846 425.977C219.058 425.721 220.05 427.305 220.421 429.213C220.781 431.067 219.676 432.026 218.347 432.483Z" fill="#212220"/>
<path d="M209.565 428.828C209.852 431.219 209.451 432.615 207.439 432.806C205.273 433.012 203.87 431.975 203.982 429.762C204.079 427.858 204.991 426.217 207.252 426.187C209.481 426.156 209.224 428.108 209.565 428.828Z" fill="#111111"/>
<path d="M195.975 430.304C194.724 429.817 193.289 429.071 193.443 427.126C193.589 425.274 194.771 424.256 196.58 424.478C198.6 424.726 198.918 426.41 198.69 428.024C198.514 429.276 198.083 430.668 195.975 430.304Z" fill="#1F1F1F"/>
<path d="M297.498 270.134C296.766 269.848 295.981 269.651 295.309 269.262C290.309 266.368 286.201 262.82 286.874 256.289C287.163 253.487 288.409 251.093 291.585 250.839C297.747 250.346 303.934 250.471 308.08 256.014C310.58 259.356 312.4 263.203 314.597 266.778C315.723 268.611 317.16 270.494 319.576 269.869C322.477 269.118 321.35 266.562 321.347 264.583C321.34 260.118 321.004 255.621 321.428 251.197C321.831 246.991 324.48 243.21 328.441 242.525C333.139 241.713 333.766 246.566 334.996 249.896C336.67 254.43 337.64 258.956 334.913 263.557C333.479 265.976 333.023 268.742 335.871 270.511C338.979 272.441 340.442 269.74 342.308 267.87C345.426 264.746 348.688 260.634 353.632 262.342C358.295 263.953 356.448 268.73 356.005 272.044C355.18 278.207 351.867 282.91 345.284 284.044C342.759 284.479 340.059 283.798 337.442 283.839C335.243 283.874 332.032 283.042 332.091 286.598C332.141 289.604 334.993 289.8 337.431 290.009C339.767 290.21 342.224 290.185 344.386 290.945C347.07 291.887 348.565 294.175 348.126 297.172C347.628 300.565 345.56 303.027 342.44 304.164C339.179 305.352 337.588 303.335 336.956 300.332C337.097 298.08 335.897 297.235 333.81 296.662C327.902 295.042 322.087 295.545 316.039 295.831C309.53 296.139 302.556 301.353 296.212 295.231C291.267 291.498 285.617 293.911 280.33 293.634C275.061 293.358 270.609 292.385 269.753 286.562C268.949 281.094 272.238 277.793 277.18 275.913C282.594 273.853 287.955 273.903 293.302 276.064C295.492 276.949 297.607 278.032 299.828 278.824C301.814 279.533 304.311 280.307 305.584 278.15C307.325 275.198 304.407 274.163 302.551 272.853C301.932 272.465 301.314 272.077 300.696 271.689L300.709 271.706C300.128 270.184 298.94 269.899 297.498 270.134Z" fill="#CA0A27"/>
<path d="M193.713 268.36C193.445 268.772 193.336 269.222 193.385 269.711C192.237 270.895 191.872 272.005 193.683 272.914L193.733 272.973C197.866 276.746 198.214 276.621 201.73 270.102C213.747 261.869 223.009 263.701 227.142 275.128C229.952 282.897 228.317 286.175 218.809 291.839C213.085 293.171 207.332 292.31 201.588 292.065C196.079 290.678 199.65 298.646 195.158 298.306C187.459 294.893 179.353 297.639 171.488 296.743C166.794 295.75 161.897 292.975 158.054 298.612C157.158 299.926 157.807 302.733 154.957 302.271C154.337 302.171 153.557 301.397 153.341 300.765C152.453 298.178 154.717 297.086 156.088 295.666C159.294 292.345 164.263 294.299 167.764 291.951C170.624 290.034 176.61 288.547 169.503 284.268C166.778 283.065 164.088 282.595 161.226 284.025C154.952 287.159 150.81 283.432 146.903 279.311C145.029 277.335 143.415 274.932 145.527 272.378C147.323 270.206 149.992 269.769 152.691 270.921C153.89 271.433 154.981 272.198 156.179 272.713C158.773 273.827 161.437 278.116 164.144 274.206C166.281 271.12 162.811 268.501 160.744 266.297C158.169 263.551 155.904 260.709 155.852 256.784C155.802 252.995 157.528 250.416 161.309 249.147C165.232 247.83 168.177 248.959 169.679 252.585C171.47 256.907 172.649 261.48 174.176 265.916C174.983 268.261 176.258 270.222 179.183 270.011C182.827 269.748 182.188 266.939 182.071 264.718C181.671 257.111 184.406 250.883 190.124 245.978C191.866 244.483 193.836 242.671 196.397 243.921C198.576 244.985 198.502 247.348 198.708 249.427C199.27 255.098 197.647 260.285 195.188 265.286C194.002 265.979 193.551 267.022 193.713 268.36Z" fill="#CB0B27"/>
<path d="M296.213 295.23C302.557 301.353 309.531 296.138 316.04 295.83C322.088 295.544 327.904 295.04 333.811 296.661C335.898 297.233 337.098 298.079 336.957 300.331C327.085 295.903 316.932 298.437 306.884 299.259C303.53 299.534 300.269 301.092 296.922 301.275C291.651 301.563 288.816 302.975 290.994 308.921C291.945 311.516 292.172 314.323 288.061 314.461C284.862 314.568 282.242 313.6 281.866 309.954C281.233 303.815 285.353 301.107 290.146 299.019C292.366 298.052 295.687 298.897 296.213 295.23Z" fill="#A91A31"/>
<path d="M195.157 298.306C199.649 298.646 196.078 290.678 201.587 292.065C199.803 300.484 207.891 297.186 210.902 299.914C211.743 304.491 211.596 308.746 207.493 311.972C205.157 313.809 202.512 315.635 199.706 314.549C196.94 313.478 198.353 310.382 198.549 308.254C198.869 304.774 197.907 302.143 195.002 300.225C195.045 299.596 195.088 298.968 195.131 298.34L195.157 298.306Z" fill="#BC122C"/>
<path d="M169.501 284.269C176.608 288.548 170.622 290.035 167.762 291.952C164.26 294.3 159.292 292.346 156.086 295.667C154.715 297.087 152.451 298.179 153.339 300.766C153.556 301.398 154.336 302.171 154.955 302.272C157.805 302.734 157.156 299.927 158.052 298.613C161.894 292.977 166.791 295.751 171.486 296.744C171.49 297.235 171.494 297.727 171.497 298.218C165.524 297.087 159.849 296.23 159.335 305.092C159.207 307.293 157.192 308.043 155.235 306.545C151.933 304.017 149.161 300.995 151.892 296.621C154.634 292.229 159.35 291.107 164.131 290.619C168.097 290.213 170.842 289.039 169.501 284.269Z" fill="#AC172A"/>
<path d="M210.902 299.914C207.891 297.186 199.802 300.484 201.587 292.065C207.332 292.31 213.084 293.171 218.808 291.839C216.091 294.45 210.995 294.734 210.902 299.914Z" fill="#200001"/>
<path d="M171.497 298.217C171.494 297.726 171.49 297.235 171.486 296.743C179.351 297.639 187.457 294.893 195.156 298.306L195.13 298.34C187.7 298.366 180.27 298.392 172.84 298.418L172.147 298.455L171.497 298.217Z" fill="#BC122C"/>
<path d="M172.841 298.418C180.271 298.392 187.701 298.366 195.131 298.34C195.088 298.968 195.045 299.596 195.002 300.225C187.652 299.163 180.031 301.43 172.841 298.418Z" fill="#AC172A"/>
<path d="M201.729 270.102C198.213 276.622 197.865 276.747 193.732 272.973C197.071 273.888 199.02 270.937 201.729 270.102Z" fill="#370309"/>
<path d="M193.713 268.359C193.55 267.021 194.002 265.978 195.186 265.285C195.259 266.58 194.932 267.683 193.713 268.359Z" fill="#370309"/>
<path d="M193.683 272.914C191.872 272.005 192.238 270.895 193.385 269.711C193.484 270.778 193.583 271.846 193.683 272.914Z" fill="#370309"/>
<path d="M297.498 270.133C298.94 269.898 300.127 270.183 300.711 271.704C299.356 271.761 298.268 271.272 297.498 270.133Z" fill="#7B1525"/>
<path d="M300.698 271.688C301.316 272.076 301.934 272.464 302.553 272.852C301.935 272.463 301.316 272.075 300.698 271.688Z" fill="#7B1525"/>
<path d="M250.304 212.556C250.261 202.379 254.855 197.128 263.741 197.198C271.371 197.258 275.913 201.115 275.843 207.475C275.767 214.326 266.674 222.286 258.982 222.128C252.778 222.001 250.055 218.591 250.304 212.556Z" fill="#F4C703"/>
</svg>
