<svg width="512" height="512" viewBox="0 0 512 512" fill="none" xmlns="http://www.w3.org/2000/svg">
<path d="M157.593 350.966C156.703 351.744 156.185 352.157 155.711 352.617C149.787 358.359 149.788 358.361 153.18 365.687C159.095 378.467 155.88 390.734 145.272 395.857C137.988 399.375 133.237 398.078 128.756 391.229C127.677 389.579 126.874 387.748 125.766 385.666C120.16 391.534 114.195 396.598 106.115 398.432C94.9319 400.971 87.5809 393.636 90.5519 382.537C91.5299 378.883 93.2399 375.424 94.7419 371.549C91.6099 370.311 88.3309 369.004 85.3799 366.947C78.0749 361.855 76.2279 350.408 85.9319 345.83C88.1009 344.807 90.0039 343.702 88.4419 340.135C83.8489 329.641 85.7269 321.731 93.1549 317.187C101.544 312.055 112.138 314.119 119.073 322.255C119.502 322.758 119.819 323.357 120.16 323.869C120.987 323.293 121.465 323.075 121.788 322.718C131.043 312.464 130.891 312.53 125.132 299.778C109.713 265.635 104.702 229.701 108.333 192.67C110.103 174.614 117.528 158.08 126.327 142.325C128.307 138.779 128.015 137.127 124.502 135.007C115.572 129.617 115.666 129.435 110.563 138.717C105.334 148.229 99.7339 157.457 91.2429 164.526C88.2659 167.005 85.1039 168.812 81.0979 169.434C71.2209 170.967 66.6319 167.468 66.1229 157.357C65.7219 149.405 67.5959 141.709 70.2949 134.43C75.7879 119.614 82.7129 105.427 91.5329 92.2398C98.6829 81.5508 106.232 79.2678 118.03 84.3068C127.529 88.3638 136.269 93.8758 145.386 98.6648C147.434 99.7408 149.516 100.75 151.953 101.976C152.078 96.6328 150.411 92.0988 148.51 87.7868C145.036 79.9078 142.78 71.5288 138.547 63.9588C137.456 62.0088 137.403 59.8518 139.593 58.1908C156.246 45.5598 173.452 33.9588 194.666 30.5218C200.541 29.5698 206.722 28.9378 210.682 35.3058C212.412 38.0878 212.619 40.8788 211.615 43.8848C209.352 50.6668 204.856 55.7118 198.954 59.4478C192.639 63.4448 186.209 67.2848 179.644 70.8538C175.974 72.8488 175.224 75.1518 176.832 78.8978C178.464 82.6978 180.005 86.6128 180.908 90.6298C181.822 94.6948 183.785 95.1758 187.071 93.6158C196.54 89.1198 206.367 85.5908 216.423 82.6578C237.754 76.4368 259.377 75.3268 281.566 76.6208C323.995 79.0948 351.952 102.01 372.037 137.252C372.557 138.164 372.561 139.943 374.021 139.699C375.985 139.37 376.62 137.307 377.764 135.92C378.736 134.742 378.273 134.066 377.282 133.108C370.205 126.274 370.671 117.292 371.662 108.836C372.308 103.327 376.383 99.0138 382.567 97.8708C390.296 96.4418 397.13 98.6128 401.666 104.78C404.495 108.626 406.261 109.609 411.216 108.371C422.675 105.508 430.817 115.572 427.142 126.437C425.923 130.043 426.249 131.612 430.545 132.608C439.131 134.598 441.744 143.599 436.246 150.312C433.596 153.547 430.124 155.81 426.869 158.366C433.077 164.25 436.678 170.767 433.522 179.31C431.488 184.816 423.947 188.047 416.738 186.61C407.998 184.868 402.239 178.909 396.833 172.457C395.986 171.446 395.202 170.207 394.098 169.636C393.025 169.081 392.021 170.23 391.076 170.882C389.466 171.993 390.401 173.167 390.897 174.361C402.083 201.29 401.717 229.159 397.487 257.294C390.577 303.259 363.304 335.249 326.116 360.141C302.276 376.098 276.258 387.453 248.109 393.111C215.242 399.717 177.421 386.527 159.445 353.667C158.973 352.808 158.332 352.036 157.593 350.966Z" fill="#1D1D1B"/>
<path d="M442.287 263.536C460.594 271.832 470.242 291.349 464.116 308.204C460.704 317.592 454.549 324.691 444.735 328.326C434.848 331.989 426.244 327.359 417.347 324.569C416.175 326.708 417.167 328.347 417.765 330.022C418.436 331.9 419.315 333.731 419.745 335.662C420.47 338.915 419.103 341.175 415.877 342.153C412.661 343.128 410.955 341.643 409.885 338.652C404.4 323.318 406.093 308.201 411.23 293.225C417.151 275.966 427.541 262.088 443.099 252.35C445.691 250.728 446.984 246.697 451.279 247.92C452.817 248.358 454.844 247.746 455.617 249.605C456.451 251.612 455.022 253.149 453.693 254.376C452.241 255.717 450.526 256.775 448.921 257.95C446.666 259.602 443.962 260.713 442.287 263.536Z" fill="#1D1D1B"/>
<path d="M367.271 360.94C360.206 378.331 319.56 397.656 302.171 391.821C329.053 392.306 349.361 379.192 367.271 360.94Z" fill="#282828"/>
<path d="M324.643 404.274C331.431 403.087 337.95 402.058 344.085 399.626C352.19 396.412 359.379 391.767 365.549 385.557C366.562 384.537 367.56 381.984 369.325 383.795C370.681 385.186 368.461 386.322 367.501 387.251C356.909 397.486 343.857 402.813 329.74 405.932C327.708 406.379 327.61 406.206 324.643 404.274Z" fill="#2B2B2B"/>
<path d="M341.435 420.039C348.642 418.807 355.189 417.417 361.027 413.801C366.669 410.306 371.18 405.559 376.147 400.15C374.573 410.596 349.363 425.022 341.435 420.039Z" fill="#323232"/>
<path d="M378.38 418.126C374.45 429.262 361.541 437.731 354.116 434.616C365.908 435.242 370.13 424.764 378.38 418.126Z" fill="#434343"/>
<path d="M232.691 383.96C202.239 383.9 181.735 369.979 167.904 345.15C166.938 343.415 166.156 341.496 164.864 340.04C160.213 334.794 155.424 334.086 151.544 340.242C148.449 345.153 144.424 349.438 140.206 353.5C137.251 356.346 136.369 358.858 140.011 362.618C145.213 367.989 147.457 374.729 144.296 382.319C143.471 384.301 142.366 385.976 140.142 386.087C137.392 386.225 137.368 383.767 136.742 381.935C135.014 376.878 133.774 371.677 133.346 366.381C132.965 361.66 129.38 361.414 126.304 360.987C122.845 360.508 122.617 363.71 122.159 366.087C120.421 375.107 115.688 382.028 107.694 386.516C105.944 387.498 103.431 389.004 101.648 387.395C99.9239 385.839 100.082 383.226 100.738 380.838C102.601 374.065 107.327 369.435 112.386 365.054C113.511 364.08 114.952 363.457 116.025 362.438C117.63 360.915 120.306 359.277 118.077 356.76C116.233 354.678 113.587 353.029 110.529 354.844C108.531 356.03 106.725 357.532 104.768 358.792C101.682 360.78 98.3739 361.753 94.8849 359.958C92.0469 358.498 88.7129 356.644 89.7169 352.994C90.6079 349.752 93.5939 347.694 97.3009 347.607C99.4619 347.556 101.634 347.866 103.79 347.771C106.591 347.648 109.386 346.841 109.87 343.683C110.362 340.471 107.434 339.729 105.148 338.872C99.0719 336.595 96.8069 333.667 96.6609 327.739C96.5909 324.916 97.1649 322.385 99.8439 320.908C102.758 319.301 105.352 320.516 107.735 322.179C110.545 324.14 112.44 327.044 113.751 330.028C116.238 335.687 121.846 335.511 125.021 331.472C129.665 325.564 135.336 320.643 139.932 314.719C142.291 311.678 142.472 309.251 140.689 305.749C126.616 278.12 118.513 248.917 117.577 217.767C116.709 188.868 123.097 161.97 138.702 137.5C141.199 133.584 141.134 131.412 136.894 128.774C130.577 124.844 123.943 121.331 118.405 116.163C115.294 113.261 112.166 114.007 109.719 117.56C104.695 124.855 102.832 133.76 97.5869 140.988C93.6799 146.373 90.0389 151.941 85.6689 156.987C83.9039 159.025 81.7119 160.594 79.1999 159.932C76.3469 159.18 76.3779 156.034 76.1809 153.695C75.5209 145.861 78.1089 138.458 80.6949 131.369C85.4279 118.397 91.6039 106.024 99.0649 94.3248C101.919 89.8498 105.34 88.2108 110.386 90.2958C120.867 94.6258 130.277 100.993 140.413 105.98C145.636 108.55 150.815 111.223 155.9 114.053C158.853 115.697 161.238 115.07 163.676 113.138C165.966 111.323 166.075 109.338 165.35 106.54C161.506 91.7028 156.251 77.3558 150.552 63.1718C149.316 60.0948 149.755 58.5838 152.479 56.7878C164.942 48.5748 178.151 42.1008 192.744 38.6728C195.641 37.9928 199.389 36.6228 201.098 39.4018C202.706 42.0158 199.973 44.9238 198.217 47.2388C195.664 50.6038 192.17 52.8948 188.539 54.9918C183.217 58.0648 177.536 60.5418 172.761 64.5378C172.043 65.1388 171.017 65.4808 170.077 65.6928C163.568 67.1678 163.337 67.7508 165.167 73.9598C167.702 82.5638 171.437 90.7878 173.209 99.6268C173.711 102.129 175.257 103.316 177.806 103.249C181.452 103.153 184.972 102.974 188.509 101.509C206.803 93.9318 225.185 86.1568 245.165 84.6688C268.614 82.9218 292.113 82.1378 314.161 93.0308C337.67 104.646 354.892 122.021 364.361 146.722C367.182 154.081 370.08 154.695 375.87 149.194C380.819 144.492 385.791 139.804 389.95 134.347C392.188 131.411 392.711 129.431 388.223 127.795C382.04 125.541 378.058 111.871 381.761 106.329C383.402 103.873 386.165 103.839 388.825 105.025C394.311 107.471 398.245 115.051 397.145 121.06C396.905 122.369 396.594 123.668 396.417 124.986C396.033 127.857 396.416 130.834 399.748 131.179C402.986 131.514 406.246 130.248 406.744 126.337C407.151 123.139 407.637 120.066 409.653 117.481C410.936 115.836 412.099 113.413 414.725 114.428C417.056 115.328 418.05 117.487 418.206 120.036C418.464 124.234 417.035 127.852 414.687 131.214C412.264 134.683 409.039 137.321 405.688 139.79C403.724 141.237 403.238 142.879 404.412 144.936C405.588 146.996 407.346 147.387 409.541 146.548C411.752 145.703 413.669 144.429 415.521 142.993C417.888 141.157 420.299 139.381 423.246 138.523C425.4 137.897 427.24 138.173 428.4 140.281C429.48 142.244 429.429 144.137 427.581 145.661C423.079 149.374 418.772 153.46 412.034 151.159C409.8 150.396 407.735 151.369 406.66 153.668C405.413 156.334 407.239 157.894 409.12 158.882C411.745 160.26 414.616 161.185 417.416 162.211C422.02 163.898 424.05 167.558 424.843 172.032C425.203 174.064 424.594 175.967 422.717 177.278C420.808 178.612 419.211 177.667 417.661 176.672C410.58 172.129 404.221 166.95 400.643 158.954C398.727 154.672 394.824 154.143 391.356 157.532C387.826 160.98 385.073 165.058 380.348 167.445C377.445 168.912 379.467 172.329 380.528 174.626C383.82 181.751 386.463 189.076 387.965 196.781C392.013 217.548 389.993 238.11 386.496 258.769C379.172 302.03 352.288 330.985 317.382 353.932C296.085 367.933 272.885 377.85 247.63 382.407C242.23 383.382 236.769 384.062 232.691 383.96Z" fill="#FEEC0D"/>
<path d="M455.634 296.533C455.768 309.37 447.588 319.831 438.308 320.131C430.855 320.372 424.549 316.886 418.537 312.886C417.032 311.885 417.176 310.496 417.404 308.904C419.285 295.759 424.615 284.102 432.417 273.469C433.858 271.504 435.284 270.452 437.817 271.839C448.404 277.635 453.855 286.811 455.634 296.533Z" fill="#E50E82"/>
<path d="M188.447 227.572C186.864 196.304 209.737 172.936 233.474 163.033C268.753 148.315 311.549 160.152 334.5 190.994C336.545 193.742 338.057 196.981 339.332 200.185C340.827 203.942 337.613 204.962 335.121 206.279C332.569 207.628 330.544 206.998 329.264 204.54C319.247 185.306 302.928 173.957 282.493 168.705C255.379 161.736 231.446 167.838 211.844 188.473C204.118 196.606 199.784 206.266 199.144 217.533C197.206 251.644 207.463 281.365 230.998 306.343C232.574 308.015 235.49 309.451 232.735 312.437C229.524 315.919 225.704 316.381 222.761 313.375C215.388 305.844 209.274 297.369 204.098 288.188C193.488 269.363 189.551 248.837 188.447 227.572Z" fill="#1D1D1B"/>
<path d="M306.332 317.523C306.628 330.26 300.236 337.522 289.203 337.083C283.73 336.865 279.059 334.138 276.72 329.855C270.693 318.819 267.195 307.037 273.012 294.644C276.819 286.535 288.627 284.566 294.745 291.22C301.51 298.579 306.199 307.114 306.332 317.523Z" fill="#1D1D1B"/>
<path d="M316.976 281.738C316.691 279.084 317.453 275.977 318.296 272.958C320.95 263.454 330.221 260.113 338.681 265.477C349.844 272.556 354.096 290.426 347.417 301.824C344.041 307.586 339.37 311.259 332.477 310.702C326.381 310.21 323.494 305.253 321.087 300.597C318.173 294.961 316.907 288.723 316.976 281.738Z" fill="#1D1D1B"/>
</svg>
