<?xml version="1.0" encoding="utf-8"?>
<!-- Generator: Adobe Illustrator 25.4.1, SVG Export Plug-In . SVG Version: 6.00 Build 0)  -->
<svg version="1.1" id="Layer_1" xmlns="http://www.w3.org/2000/svg" xmlns:xlink="http://www.w3.org/1999/xlink" x="0px" y="0px"
	 viewBox="0 0 512 512" style="enable-background:new 0 0 512 512;" xml:space="preserve">
<style type="text/css">
	.st0{fill:#1D1D1B;}
	.st1{fill:#2F2F2F;}
	.st2{fill:#313130;}
	.st3{fill:#C0C0BE;}
	.st4{fill:#1C70B7;}
	.st5{fill:#FEFEFE;}
	.st6{fill:#1D70B6;}
	.st7{fill:#FEFEFD;}
	.st8{fill:#1D70B5;}
	.st9{fill:#1C6FB6;}
	.st10{fill:#1D6FB6;}
	.st11{fill:#1E70B6;}
	.st12{fill:#1E6FB6;}
	.st13{fill:#1E6FB5;}
	.st14{fill:#1E6FB4;}
	.st15{fill:#1C6FB5;}
	.st16{fill:#1E70B5;}
	.st17{fill:#1E6EB2;}
	.st18{fill:#1D6FB3;}
	.st19{fill:#2070B5;}
	.st20{fill:#FAFAF9;}
	.st21{fill:#1F6DB1;}
	.st22{fill:#F5F5F4;}
	.st23{fill:#2670AE;}
	.st24{fill:#206DAF;}
	.st25{fill:#4679A5;}
	.st26{fill:#306898;}
	.st27{fill:#326590;}
	.st28{fill:#365671;}
	.st29{fill:#1D1D1A;}
	.st30{fill:#CA0D5C;}
</style>
<g id="H9zgXw_1_">
	<g>
		<path class="st0" d="M74,192.2c-5.2-1.6-9.7-4.2-13.2-8.9c2.4-0.7,3.5,1,4.9,2c11.2,7.8,23.7,6.7,36,4.6c3.9-0.7,2.8-5.4,2.8-8.1
			c0-2.2-3-0.7-4.5-0.3c-11.2,2.9-21.4,2.1-30-6.6c-2.7-2.8-4.7-5.9-4.8-10c2.2-0.2,2.7,1.4,3.4,2.6c6,10.7,15.1,14.6,26.8,12.3
			c7.3-1.4,11.3-4.4,13-12.5c3.9-19.3,10.6-38,21.9-54.1c14.1-20.1,30.8-37.8,53.5-49c19.5-9.6,39.4-17.6,61-20.9c2-0.3,4-0.3,6-0.4
			c2.3,0.7,2.7-3.6,5.3-1.9c3-0.2,1.6-2.5,1.5-3.7c-0.3-4.2-0.1-8.3,0.8-12.3c0.3-1.4,0.1-3.1,2.4-3.6c0.5,2.5-0.1,4.8-0.4,7.2
			c-0.3,2.9-0.4,5.9-0.2,8.9c0.1,1.8,0.5,3.9,3.5,3.7c3.2-0.2,2.1-2.4,2.2-3.9c0.1-1.9,0.7-3.5,1.4-5.2c2.6-0.9,2.2,0.7,1.8,2.2
			c0.5,2.2-1.8,5.3,1,6.7c3.4,1.6,5.3-1.3,7.3-3.5c6-6.5,13.4-10.8,21.7-13.8c1-0.4,2-1,2.6,0.2c0.8,1.6-0.7,1.8-1.8,2.2
			c-5.6,2.2-11.1,4.6-15.7,8.6c-2.2,2-4.5,3.9-5.7,7c3.2,0.9,5.8,0.4,8.4-1.6c4.4-3.5,9.6-5.2,15.1-5.9c1.7-0.2,3.6-0.5,6.2,1.3
			c-6.8,2.3-13.6,1.9-19.2,6.6c9,1.4,17.7,2.2,26.2,4.1c31.7,7.2,61.5,18.1,83,44.6c18.1,22.3,29,47.5,32.6,75.9
			c0.7,5.3,1.7,10.5,2.1,15.8c0.3,4,1.9,4.5,5.4,3.5c5.1-1.4,8.7-4.4,11.4-9.1c1,3.1,0.7,5.4-1.6,7c-3.4,2.3-6.7,5-11.1,5.2
			c-2.5,0.1-3.4,0.9-3.3,3.6c0.1,3,1.4,3.6,3.9,3.6c10.6,0.2,19.4-3.4,26.1-12c0.6,3.4,0.3,4.5-1.5,6c-6.6,5.2-13.6,9.5-22.5,8.8
			c-5-0.4-5.3,2-4.8,5.9c0.4,2.9,2.1,3.4,4.4,3.7c8.7,1.3,15.7-2.5,22.5-7.2c0.7-0.4,1.3-0.9,2-1.3c0.1-0.1,0.3,0.1,0.4,0.1
			c-1.7,4-10.1,9.7-15.9,10.6c-2.9,0.4-5.9,1.2-8.9,0.3c-3.5-1.1-3.5,0.7-3.7,3.5c-0.3,5.1,1.4,7.6,6.8,7.9
			c4.9,0.2,9.6-0.2,14.2-1.9c1.4-0.5,3.3-1.7,3.9-0.1c0.8,2.1-1.6,2.6-3.1,3.1c-5.4,1.6-11,2.8-16.7,1.5c-4.1-0.9-4.8,0.8-4.6,4.4
			c2.1,32.3-1.1,64-13.1,94.1c-18.9,47.6-52.5,81.5-100.5,99.9c-6.3,2.4-5.5,5.3-4.8,9.2c2,12,5.1,23.7,13.1,33.4
			c3.3,4.1,3,5.9-1.6,8.7c-18.3,11.3-38.3,16.5-59.6,17.2c-3.9,0.1-6.9,0.4-10.4,3.6c-6.2,5.8-14.4,8.1-23.2,6.9
			c-15.4-2.3-30.2-6.6-43.7-14.5c-3.9-2.3-8.4-3-12.2-5.6c-2.1-1.5-2.9-2.8-2.1-5.3c1.8-6.1,4.1-12,7.6-17.3c6-9.1,9.8-19.1,13-29.5
			c1-3.3,0.1-3.3-2.4-3.8c-22.2-4.5-43.1-12.2-60.9-26.8c-17.4-14.3-29.5-32.3-35.5-54.1c-0.8-3-0.8-6.3-0.9-9.4
			c-0.7-20.5-1.6-40.9,0.7-61.4c0.3-2.5-0.5-3.2-2.9-3.1c-4,0.1-7.6-0.5-7.5,5.9c0.1,5.3-2.4,10.3-5.8,14.6
			c-5.4,6.7-13.9,9.4-22.4,6.9c-6.8-1.9-12.5-9.2-13.4-16.9c-0.1-1-0.5-2-0.3-3c1.2-6.7,0.2-11.9-7.2-14.9c-3.2-1.3-2.8-5.2-1.6-8.5
			c1.7-4.7,5.2-8.1,8.2-12.2c-1.7-1.3-3.4-2.5-4.9-3.9c-3.7-3.4-4.3-7.7-3-12.4c1.3-4.4,5.1-5.2,9-5.5c4-0.3,7.9-0.7,12.4-1.1
			c-2.7-7.3-2.8-14.3,1.7-20.5c2.8-3.8,6.8-6.3,11.8-6.6c2.4-0.8,4.8-0.4,7.1,0.3c4.7,0.7,7.6,3.8,10.1,7.4c1.7,2.4,4.2,2.4,6.7,1.9
			c2.8-0.6,2.7-3,3.1-5.1c0.6-2.6-0.4-3.7-3.1-3.4c-5.3,0.6-10.6,1-15.8-0.5C79.7,193,76.4,194.2,74,192.2z"/>
		<path class="st1" d="M269.1,34.4c-0.2-1.1-0.4-2.1-1.8-2.2c1.7-5.3,4.8-9.8,8.7-13.6c1.4-1.3,3.2-2.4,4.9-3.2
			c0.9-0.5,2.4-0.7,3,0.7c0.5,1.2-0.8,1.7-1.6,2.1c-5.3,2.5-9.1,6.3-11.3,11.7C270.4,31.4,269.8,32.9,269.1,34.4z"/>
		<path class="st2" d="M256.1,41.1c-2,0-2.9,3-5.3,1.9c2.1-0.7,2.9-1.8,1.4-4c-3.3-5.1-5.9-10.8-11.6-14c-0.8-0.5-1.6-1.2-1.5-2.9
			C248.5,25.4,251.9,33.5,256.1,41.1z"/>
		<path class="st3" d="M81.2,194.8c-2.4-0.3-4.8-0.6-7.2-0.9c0-0.5,0-1.1,0-1.6c2.7,0.6,5.5,1.1,8.2,1.7
			C82,194.4,81.6,194.7,81.2,194.8z"/>
		<path class="st4" d="M362.9,194.2c9.9-2.2,20.1-2.1,30.2-3.2c2.1-0.2,2.9,1,3.7,2.6c5.6,11.5,14.5,19.8,25.9,25.4
			c3.7,1.8,5.4,4,4.1,8.6c-6.1-4.4-12.8-4.5-19.8-2.8c-1.9,0.4-2.5-0.7-3-2.5c-1-3.7-2.4-7.2-5.2-10.1c-3.9-4.2-8.5-4.9-13.6-3.1
			c-4.5,1.6-7.3,4.5-7.3,9.6c0,3-1.6,3-3.9,2.4c-3.3-0.8-6.6-2.2-10.2-2.1c-6,0.1-9.5,3.6-11.8,8.5c-2.2,4.7-3.6,9.5,0.8,13.8
			c2,1.9,0.8,2.7-0.8,3.7c-4,2.7-7.5,5.9-10.4,9.9c-5.1,7-6.3,15.8-2.4,20.8c5.7,7.2,14.6,9.2,23.3,5.2c3.4-1.5,6.5-3.5,9.1-6.1
			c2.1-2,3.3-1.7,4.5,0.7c0.4,0.7,1,1.3,1.5,2c1.7,2.5,3.8,3.9,6.6,1.9c3.2-2.3,1.5-4.7-0.3-6.7c-2-2.1-3.1-4.7-4.6-7.1
			c-3.5-5.8-8.1-5.6-11.7-0.1c-3,4.6-6.7,8.5-12.5,10c-3.5,0.9-5.9-0.3-8.1-2.3c-2.3-2-1.9-4.6-1-7.4c3.6-10.4,14.1-18,25.9-18.7
			c2.5-0.1,6,0.6,6-3.3c0-4.1-3-5-6.6-4.8c-3.3,0.2-6.7,0.3-9.9-1c-3-1.2-4.1-2.9-2-6.1c4.5-6.6,16.4-6.5,22.1,0.3
			c0.8,1,1.5,2.3,2.6,2.9c2,1.2,4.1,1.4,5.9-0.6c1.6-1.8,0.6-3.3-0.7-4.8c-1.9-2.2-3.1-4.6-3.4-7.6c-0.3-3.1,0.7-5.4,3.8-6.1
			c3.2-0.8,5,1.4,6.1,3.9c1.3,3.1,1.1,6.5,1,9.9c-0.1,3,0.1,5.9,3.1,7.3c2.6,1.2,4.2-1.2,6.1-2.3c2.9-1.6,5.4-3.9,8.9-4.1
			c3.8-0.2,6.6,1.2,7.6,5c1,3.6-0.6,6.2-3.7,7.8c-5.8,3.1-11.8,4.3-18.3,2.8c-2.1-0.5-4.6-1.3-6.1,0.4c-1.5,1.8-0.2,4.2,0.7,6.1
			c1.3,2.8,2.2,5.6,1.8,8.7c-0.3,2.7,1.1,4.5,3.1,5.8c2.6,1.7,4.9,0.5,5.1-2.7c0-0.5-0.1-1-0.1-1.5c0.3-2.8-2.7-5.8-0.7-7.9
			c1.6-1.6,5-0.6,7.7-1.1c4.4-0.9,8.8-1.8,12.8-4c2.7-1.4,3.2-0.2,3,2.2c-0.7,7.9-1.3,15.9-2,23.8c-0.2,2.1-1.8,2.7-3.4,3.1
			c-15.1,4.4-30.4,7.9-46.1,9.5c-9.1,0.9-18.1,1.9-27.1,3.2c-9.9,1.5-19.8,2.1-29.7,2.6c-11.1,0.5-22.3,0.8-33.4,1.5
			c-22.6,1.3-45.3,0.9-67.9,0.6c-22.4-0.3-44.9-1.5-67.2-3c-12.5-0.8-25-2.8-37.3-5.8c-3.8-0.9-5.3-2.7-4.6-6.5
			c0.4-2.1,0.7-4.3,1.2-6.4c1.7-7.5-3.5-13-11.1-11.8c-4.1,0.6-8.2,0.8-12.4-0.2c-6.1-1.4-7.9,0.7-6.4,6.6c2,7.8-0.6,16.1-6.4,20.1
			c-8.3,5.6-16,1.9-16.9-8.1c-0.6-6.6,0.2-12.6,6.3-16.7c1.2-0.8,2.2-2,3.3-3c1.8-1.6,3.8-3.8,1.7-5.9c-1.8-1.9-4.7-2.9-7.5-0.8
			c-2.7,1.9-5.2,4.2-8.6,5c-1.3,0.3-2.7,1-3.7-0.1c-1.2-1.3-0.3-2.8,0.4-4.1c2.9-5.5,6.9-9.2,13.6-9.4c2.1-0.1,4.3-0.6,6.4-0.8
			c2-0.2,2.9-1.1,3-3.2c0.1-2.3-1.1-3.6-3.1-3.7c-2.8-0.3-5.7-0.3-8.5-0.1c-3.9,0.3-7.1-1.4-10.4-2.9c-2.3-1-1.9-2.8-1.9-4.6
			c0-2.5,1.8-2.3,3.5-2.5c3-0.3,5.9-0.8,8.9-1.1c3.6-0.4,7,0.1,9.7,2.8c1.4,1.4,3.2,2,4.9,0.4c1.7-1.6,1.2-3.4,0-5
			c-1.6-2.3-3.4-4.5-5.3-6.6c-4.7-5.3-1.4-13.4,2.5-16.4c4.3-3.4,9.2-1.7,11.3,4.1c2,5.6,2.3,11.4,1.2,17.2c-1.1,5.6,0,7.2,5.7,7.4
			c5.1,0.3,10.3-0.8,15.3,1c2.4,0.9,3-0.8,3.3-3c1-6.1,1-12.3,1-18.4c0-4.9,1.2-8.5,6.4-11c6.1-3,10.8-8.3,14.9-13.8
			c1.4-1.9,2.1-2.4,4.6-2c21.1,3.3,42.3,6.3,63.6,8.3c31.9,2.9,63.8,2.1,95.8,2.1c11.8,0,23.6-0.1,35.5-0.2
			c8.6-0.9,17.1-0.1,25.7-0.4C358.6,194.5,360.8,194.9,362.9,194.2z"/>
		<path class="st4" d="M113.6,353.7c10.6,2.8,21.1,5.8,31.6,8.3c22.3,5.2,44.9,8.7,67.7,11.2c26.8,3,53.6,6.1,80.5,5.4
			c27.1-0.6,54.2-1.2,81-5.6c1.9-0.3,4.8-2.6,5.8-0.3c1,2.2-2.2,3.7-3.8,5.2c-14.2,14.4-29.9,26.8-48.9,34.5c-4.9,2-10,3.7-15.1,4.9
			c-4.3,1-5.7,3.5-5.5,7.5c0.8,14.9,5.3,28.7,13.1,41.3c2.1,3.3,1.6,4.2-1.5,5.8c-15.4,7.8-31.6,12.1-49,10.8
			c-3.2-0.2-5.1-1-6.1-4.5c-1.2-4.1-4.6-6.9-8.2-9.1c-2.4-1.5-2-2.5-0.1-4.1c9.5-7.8,20-11.7,32.4-8c4.8,1.4,6.6-0.1,5.7-5.1
			c-1.3-7.3-5.4-13.9-5.4-21.6c0-2.4-2.8-2.3-4.8-2c-4.6,0.7-9.1,1.9-13.7,2.6c-11.6,1.8-22.8,0.2-34-2.6c-7.5-1.9-10,0.1-10.4,7.7
			c-0.4,7.7-3.4,14.8-5.3,22.2c-2.2,8.8-0.7,10.5,8.3,9.1c7.6-1.2,21.7,5.2,25.2,11.4c4.3,7.5,0.3,14.8-8.3,15
			c-16,0.3-30.6-5.2-44.9-11.6c-1.1-0.5-2.1-1-3.1-1.5c-9.1-4.7-10.5-3-4.1-13.6c7.4-12.4,12.6-25.6,17.8-38.9
			c2.7-6.8,1.5-8.5-5.8-9.3c-27.4-3-51.3-13.4-70.9-32.9C125.2,377.5,116.1,364,113.6,353.7z"/>
		<path class="st5" d="M109.3,330.6c20.8,3.5,42,4.6,63,5c33.6,0.7,67.2,3.2,100.8,2.3c29.7-0.8,59.5-1.7,89.1-5.7
			c14.8-2,29.8-2.8,44.6-4.3c4.1-0.4,4.6,1.1,2.9,4.3c-4.7,9.2-10.3,17.8-16.1,26.3c-1.2,1.7-2.9,2-4.7,2.5c-15,4.7-30.5,6.3-46,7.7
			c-21.5,1.9-43.1,2.8-64.8,2.2c-28.6-0.8-57-3.1-85.3-7.8c-17.6-3-35.5-4.7-52.8-9.3c-9.1-2.4-17.9-5.8-26.9-8.5
			c-2.7-0.8-3.9-2.3-3.9-4.9C109.3,337.1,109.3,333.8,109.3,330.6z"/>
		<path class="st5" d="M286.2,187.9c-32.2,0.8-64.3,0.3-96.3-3c-23.2-2.4-46.2-5.8-68.9-11.2c-3.1-0.7-4.3-1.5-3.2-5.2
			c2.4-8.3,4.4-16.7,7.9-24.6c0.9-2,1.8-3.3,4.4-2.6c36.4,9.3,73.6,13,110.8,17.1c46.5,5.1,93,6,139.7,5.7c12-0.1,24-1.1,35.7-3.3
			c3.3-0.6,4.7-0.1,4.7,3.4c0.1,2.3,0.7,4.6,1,6.9c1.1,8.1,1.1,8-6.9,9.2C372.4,186.6,329.3,187,286.2,187.9z"/>
		<path class="st5" d="M337.9,156c-30.1-0.6-60.2-1.6-90.3-4.2c-37.7-3.3-75.1-8.7-112.1-16.8c-5.8-1.3-5.2-1.2-3.2-6.5
			c2.6-7.1,7.3-5.2,12.5-4.6c21,2.6,42.1,3.4,63.3,3c27.1-0.5,54.3-0.8,81.3-2.9c28.5-2.2,56.7-5.8,84.8-11.4
			c7.8-1.5,15.6-2.8,23.4-4.3c1.9-0.4,3,0.2,4.1,1.8c7.5,11.5,13,23.8,16.1,37.2c0.6,2.7,0.8,4.4-3.3,5.1
			c-23.1,4.2-46.4,3.8-69.6,3.7C342.6,156,340.3,156,337.9,156z"/>
		<path class="st5" d="M422.4,288.9c-1,9.6-3,18.2-6.2,26.7c-0.4,1-0.5,1.9-2.1,2.1c-23,3.5-46.1,6.1-69.3,8.5
			c-30.7,3.2-61.5,3.8-92.3,3.8c-42.5-0.1-84.9-2.1-127.2-5c-4.8-0.3-9.5-1.4-14.1-2.9c-1.6-0.5-2.6-1-2.6-3c0.1-7,0.1-14,0.1-21
			c0-2.1,0.4-2.8,2.9-2.4c48.3,7.6,97.1,8.6,145.9,8.3c31.6-0.2,63.3-0.7,94.8-4.1C375.5,297.5,398.8,294.5,422.4,288.9z"/>
		<path class="st6" d="M311.8,111.4c-3.2-18.5-9.4-35.7-21.3-50.6c5.7,2.8,9.7,7.5,13.5,12c8.7,10.4,14.5,22.5,18.6,35.5
			c1.2,3.6,0.2,5.1-3.3,5.4c-4.8,0.4-9.6,0.7-14.3,1.4c-3.2,0.4-4.4-1-5-3.9c-2.4-12.8-5.8-25.4-10.7-37.6c-2-5-4.2-9.9-5.7-15
			C299.2,72.8,305.8,91.9,311.8,111.4z"/>
		<path class="st7" d="M229.3,459.8c1.7-6.9,3.3-13.3,4.7-19.8c0.4-1.8,1.1-2.2,2.7-1.9c13.4,2.6,26.8,1.9,40.2,0.3
			c3-0.4,2.8,1.3,3.2,3.1c1.4,6.6,1.4,6.5-4.9,7.5c-10.8,1.6-21.1,4.6-29.3,12.4c-1.5,1.4-2.7,1.4-4.5,0.8
			C237.6,461,233.8,459.8,229.3,459.8z"/>
		<path class="st8" d="M241.7,54c-6.9,7.3-13.3,14.8-18.8,23.2c-7.9,12.2-13.2,25.5-18.3,38.9c-1.3,3.4-7.6,5.6-10.6,3.7
			c-1.6-1-1-2.7-0.7-4.1c1.4-5.9,4-11.3,7.2-16.3c6.6-10.3,12.6-21,20.5-30.5C226.7,62.1,233.7,57.4,241.7,54z"/>
		<path class="st9" d="M246.6,56.2c-6.5,8.2-10.9,16.6-15.2,25.1c-5.5,11-8.7,22.8-12.7,34.3c-1.3,3.6-7.8,6.1-10.8,4
			c-1.5-1.1-0.9-2.7-0.6-4.1c1.5-6.7,4.4-12.9,7.2-19c6.5-13.6,14-26.7,25.5-37C241.6,58.2,243,56.5,246.6,56.2z"/>
		<path class="st6" d="M253.1,54.5c-1.3,5.6-4.1,10.1-6.3,14.8c-7.1,15.1-11.4,31-15.8,47c-1.4,5.1-4.9,3.8-7.8,3.5
			c-4-0.4-1.9-3.4-1.3-5.3c5.3-19.7,13.2-38.2,25.4-54.7C248.8,57.9,250.1,55.7,253.1,54.5z"/>
		<path class="st10" d="M262.8,53.8c-4,20.7-3.9,40.8-4.7,60.7c-0.2,5.3-4,4-6.6,4.4c-5.9,0.8-6.1,0.4-5.4-5.3
			c1.8-16.2,5.9-31.8,11.4-47.1C258.8,62.5,258.4,57.6,262.8,53.8z"/>
		<path class="st11" d="M217.6,59.6c0,1.8-1,2.6-1.9,3.3c-7.7,5.5-13,12.9-18,20.8c-6.2,9.8-12.2,19.7-17.3,30.1
			c-1.4,2.9-2.1,5.6-6.4,5.4c-3.9-0.2-4-1.5-2.8-4.5c4.7-11.3,11.6-21.2,18.6-31.1c6.1-8.6,13.8-15.1,22.2-21.2
			C213.6,61.2,215.3,60.2,217.6,59.6z"/>
		<path class="st6" d="M224.6,60.5c-5.3,7.4-10.8,14.4-15.8,21.8c-7.3,10.8-13,22.3-18.1,34.1c-1.8,4.1-4.3,4.4-7.4,2.8
			c-3.2-1.6-0.7-4.1,0.1-5.7c7.3-15.3,15.9-29.9,27-42.8C214.1,66.1,218.9,62.6,224.6,60.5z"/>
		<path class="st11" d="M308.9,57.2c9.3,3.8,16.4,9.6,23.4,15.3c10.5,8.4,19.6,18.4,27.6,29.3c0.9,1.3,3.7,3.9,1,4.8
			c-2.5,0.8-6.2,3.5-8.7,0.1c-7.6-10.2-14.7-20.8-23.6-30.1c-5.1-5.3-10.2-10.4-15.9-15C311.4,60.6,309.7,59.9,308.9,57.2z"/>
		<path class="st11" d="M233,119.1c5.2-23,12.4-44.6,24.2-65c1.5,2.8-0.1,4.9-0.7,6.9c-6,18.2-10.8,36.6-13.5,55.5
			c-0.3,1.9-0.8,2.7-2.7,2.7C238,119,235.7,119.1,233,119.1z"/>
		<path class="st8" d="M272.9,52.9c3.6,3.7,4.9,8.1,6.2,12.4c4.9,15.9,8.4,32,8.4,48.7c0,3-1.9,2.7-3.5,2.9c-2,0.3-3.8,0.4-4-2.8
			c-0.8-10.9-2-21.7-2.9-32.6c-0.7-8.3-3.1-16.2-4.6-24.3C272.2,55.9,271.8,54.7,272.9,52.9z"/>
		<path class="st12" d="M297.5,60.5c8.3,4.6,14.9,10.8,20.4,18.1c6.8,9,13.4,18.2,17.6,28.8c1.4,3.4,0.4,4.3-2.9,4.7
			c-4.6,0.6-7-0.5-8.5-5.4c-4.9-16.4-13.1-31.1-25.4-43.3c-0.5-0.5-0.9-1-1.2-1.5C297.4,61.6,297.5,61.3,297.5,60.5z"/>
		<path class="st13" d="M307.9,62.1c7.5,3.9,13.4,9.8,19,15.9c4.9,5.4,9.2,11.3,14.1,16.6c3.2,3.5,4.6,8,7.7,11.4
			c1.5,1.7,0.7,2.7-1.5,3.3c-4.4,1.3-7.9,2-10.2-3.7c-4-10-10.3-18.8-16.2-27.7c-1.4-2-3.2-3.8-5-5.5c-3.1-2.9-6.4-5.7-9.6-8.5
			C306.8,63.4,307.4,62.8,307.9,62.1z"/>
		<path class="st14" d="M323,60.2c7.3,4.4,13.7,7.8,19.7,11.8c11,7.1,19.8,16.6,27.4,27.1c1,1.5,4.6,3.5,1.4,5.5
			c-2.4,1.5-5.7,2.1-8.1-1.7c-3.2-4.8-6.9-9.3-10.7-13.7c-7.9-9-16.4-17.3-26.2-24.2C325.2,64.2,323.9,63.3,323,60.2z"/>
		<path class="st15" d="M164.1,105c-3.7,2.7-6.4,6.3-8.2,10.4c-1.5,3.4-3.7,2.9-6,1.9c-3.5-1.6-1-3.9,0.1-5.2
			c5.8-7.2,9.6-16.1,16.7-22.1c6.9-5.9,12.9-13,21.3-17c1.1-0.2,1.6,0.3,1.4,1.4c-7.2,9.2-16.7,16.5-22.9,26.6
			C165.6,102.3,164.1,103.3,164.1,105L164.1,105z"/>
		<path class="st16" d="M269.4,58.1c2.6,5.5,3.2,11.6,4.1,17.5c1.9,12.2,3.4,24.5,3.5,37c0,2.4,0.2,4.7-3.2,5
			c-3.7,0.3-2.9-2.6-3.1-4.4C269.2,94.8,268.4,76.5,269.4,58.1z"/>
		<path class="st16" d="M264.5,59.2c1.9,1.1,1.5,2.4,1.4,3.4c-0.5,12.1,1.4,24.2,1.1,36.3c-0.1,5.3,1.3,10.5,1.1,15.8
			c-0.1,2.7-1.1,3.4-3.6,3.4c-2.5,0-3.5-0.6-3.6-3.3C260.5,96.3,261.4,77.9,264.5,59.2z"/>
		<path class="st13" d="M426.5,218.1c-12.1-5.3-21.5-12.8-27-24.7c-0.5-1-1.3-2.6,0.2-2.9c2.3-0.5,5.2-1.8,7,0.5
			c5,6.7,10.8,12.3,18,16.8C427.7,209.7,427,214,426.5,218.1z"/>
		<path class="st17" d="M337.9,66.1c4.2-0.9,7.1,1.4,9.9,3.1c12.4,7.5,24.3,15.7,33.1,27.5c1.1,1.5,4.5,3.6,1.7,5.6
			c-2.5,1.7-6.1,1.6-8.3-1.8c-2.7-4.2-6.1-7.7-9.3-11.4c-7.4-8.6-15.1-16.7-25.2-22C339.1,66.7,338.5,66.4,337.9,66.1z"/>
		<path class="st16" d="M164,105.1c3.1-1.5,5.2-4.2,6.8-7c4.9-8.7,13.9-13.6,18.9-22c1.7,1.1,1.4,2.1,0.7,2.9
			c-9.2,11.2-15.9,24-22.3,36.9c-1.3,2.7-6.9,4.3-9.4,2.8c-2.1-1.3-0.7-2.9-0.1-4.3C159.8,110.9,163.8,109.1,164,105.1
			C164.1,105,164,105.1,164,105.1z"/>
		<path class="st18" d="M347.5,65.2c5.1,0.7,9.7,2.8,14,5c12.3,6.3,22,15.9,30.9,26.2c0.8,1,2.6,2.5,0.4,3.6
			c-2.2,1.2-4.9,2.2-6.6-0.6c-5.1-7.7-12-13.6-18.8-19.7c-5.3-4.8-11.2-8.6-17.5-11.9C348.9,67.3,347.9,66.7,347.5,65.2z"/>
		<path class="st19" d="M283.2,65.9c3.9,7.5,6.6,14.3,8.4,21.2c2.1,8.1,4.9,16.2,5.8,24.6c0.2,2,1.3,4.1-2,4.3
			c-2.8,0.2-5.3,0.3-5.5-3.8c-0.5-10.7-1.9-21.4-3.9-32C285.2,75.9,282.4,71.9,283.2,65.9z"/>
		<path class="st20" d="M81.2,194.8c0.3-0.3,0.7-0.6,1-0.9c5.8,0,11.6,0.5,17.3-0.5c3.2-0.6,3.6,0.8,3.4,3.4
			c-0.6,7.3-1.6,8.2-8.4,8.4c-2.2,0.1-3.2-0.7-4.2-2.5C88.3,198.9,85.2,196.3,81.2,194.8z"/>
		<path class="st21" d="M112.2,199.9c0-6.5-0.8-12.4,7-14.4c2.6-0.7,3.8-4.9,7.6-3.1c1.8,0.8,3,1.8,1.7,3.7
			C124.4,192,119.5,196.9,112.2,199.9z"/>
		<path class="st22" d="M100.7,216c0,1.7,0.2,3.3,0,5c-0.2,1.9,0.9,4.6-2.9,4.5c-3.1-0.1-3.8-1.6-3.8-4.4c0-3.3-0.4-6.6-1-9.9
			c-0.4-2.2-0.5-3,2.2-3.4C101.4,207,101.3,206.8,100.7,216z"/>
		<path class="st23" d="M162.9,88.9c0.8,2-0.1,2.8-0.8,3.6c-6.4,6.8-11.3,14.6-15.9,22.7c-0.9,1.7-1.9,2.2-3.5,1.6
			c-1.6-0.6-1.9-1.7-1-3.2C147.5,104.4,154.7,96.5,162.9,88.9z"/>
		<path class="st24" d="M425.8,201.4c0.1,2.2-0.6,3.3-2.9,2.1c-4.7-2.6-8.7-6-11.3-10.9c-1.4-2.7-0.3-3.7,2.3-3.7
			C416.9,188.9,425.9,198.4,425.8,201.4z"/>
		<path class="st25" d="M362.9,194.2c-3.1,1.8-6.5,0.8-9.7,0.8c-7.5,0.1-14.9,0-22.4-0.1c5.5-1.8,11.1-0.7,16.7-0.9
			C352.6,193.9,357.8,194.1,362.9,194.2z"/>
		<path class="st26" d="M421.3,188c2.6-0.2,3.1,1.3,3.4,3c0.2,1.1-0.2,2.1-1.5,1.8c-1.8-0.4-3.4-1.6-3.8-3.4
			C418.9,187.4,420.9,188.5,421.3,188z"/>
		<path class="st27" d="M118.9,181.7c-0.5,1.4-1.7,2.1-3.1,2.3c-1.3,0.2-1.8-0.6-1.7-1.8c0.1-1.8,1.3-2.1,2.8-2
			C117.9,180.1,118.8,180.3,118.9,181.7z"/>
		<path class="st28" d="M189.3,74.3c-0.5-0.5-0.9-0.9-1.4-1.4c1.4-2,3.6-2.5,6.3-4.7C193.2,72.2,190.7,72.7,189.3,74.3z"/>
		<path class="st0" d="M303.3,231.6c0.2,6-2.2,11-5.5,15.7c-4.2,5.8-10.8,8.9-16.2,7.3c-7-1.9-9.8-7.6-11.3-13.9
			c-1.5-6.2,5-21.1,10.2-24.5c8.1-5.3,21.4,0.8,22.6,10.4C303.1,228.3,303.2,230,303.3,231.6z"/>
		<path class="st0" d="M245.2,224.9c0.2,6.4-2.1,12-5.9,17c-4.5,6.1-10,7.4-16.5,4.1c-7.2-3.5-9.7-8.8-8-16.1
			c1.2-5.3,2-10.6,6.4-14.7c5-4.7,10.8-6.2,17.2-3.5C243.1,213.8,245.2,217.9,245.2,224.9z"/>
		<path class="st29" d="M247.2,285.1c-6.9-0.6-13.3-2.3-16.7-9.1c-4.6-9.3,1.9-19.7,13.3-21c4.6-0.6,9.3-0.1,13.8,1.4
			c4.2,1.4,7.8,4,7.9,8.6c0.1,5.7-0.2,11.7-5.3,15.9C256.4,283.9,251.9,284.6,247.2,285.1z"/>
		<path class="st30" d="M245.5,277.8c-3.4-0.4-7-1.8-7.9-5.5c-0.9-3.5,1.2-6.8,4.3-8.8c4.2-2.7,8.8-2.6,13.4-1.3
			c1.8,0.5,2.5,1.9,2.5,3.8C257.8,271.7,251.4,278,245.5,277.8z"/>
	</g>
</g>
</svg>
