<?xml version="1.0" encoding="utf-8"?>
<!-- Generator: Adobe Illustrator 25.4.1, SVG Export Plug-In . SVG Version: 6.00 Build 0)  -->
<svg version="1.1" id="Layer_1" xmlns="http://www.w3.org/2000/svg" xmlns:xlink="http://www.w3.org/1999/xlink" x="0px" y="0px"
	 viewBox="0 0 512 512" style="enable-background:new 0 0 512 512;" xml:space="preserve">
<style type="text/css">
	.st0{fill:#1D1D1B;}
	.st1{fill:#D7005B;}
	.st2{fill:#F5C0D6;}
	.st3{fill:#FED200;}
	.st4{fill:#7D83BE;}
	.st5{fill:#0197D7;}
	.st6{fill:#7D83BD;}
	.st7{fill:#0297D7;}
	.st8{fill:#FDD201;}
	.st9{fill:#7C83BD;}
	.st10{fill:#D6015B;}
	.st11{fill:#D5035B;}
	.st12{fill:#D6025B;}
	.st13{fill:#0796D4;}
	.st14{fill:#D4035A;}
	.st15{fill:#D3035A;}
	.st16{fill:#0994CF;}
	.st17{fill:#CA0B5C;}
	.st18{fill:#0993CF;}
	.st19{fill:#0B92C9;}
	.st20{fill:#118DC4;}
	.st21{fill:#C0386D;}
	.st22{fill:#1589B8;}
	.st23{fill:#B21956;}
	.st24{fill:#A81F57;}
	.st25{fill:#EFEFED;}
	.st26{fill:#FDE048;}
	.st27{fill:#FCFCFB;}
	.st28{fill:#F9F9F8;}
</style>
<path class="st0" d="M89.6,272.6c14.9-2.4,22.9,3.3,26.1,18.6c0.4,2,0.6,3.4,3.2,3.2c2.5-0.2,2.4-1.8,2.4-3.5
	c0.6-23.8,1.1-47.6,1.8-71.4c0.1-3.3-1.7-3.6-3.9-4.4c-8.9-3.4-16.5-8.4-18-18.8c-2.2-15.4,11.4-29.1,27.6-28.1
	c2.4,0.2,4.3,0.3,6.2-1.8c22.4-24,49.9-39.3,81.2-48.4c1.6-0.5,3.5-0.6,5.3-2.7c-17.9,0-34.3,3.1-48.7,13c-3.5,2.4-6.2,1.7-9.1-0.2
	c-1.3-0.8-2.2-2.1-1.5-3.8c2.9-6.9,2.8-14.3,2.9-21.6c0-4,1.9-5.4,5.6-5.9c18.5-2.8,36.7-2.9,55.3,3.3c-5.2-8.3-10.3-15.9-11.6-25.3
	c-1.5-10.9,4.3-21.6,13.4-27.3c8.6-5.4,17.3-6.4,26.6-3.4c10.3,3.4,16.9,10.9,21.5,20.4c2.3,4.6,3.6,9.5,4.9,15.9
	c2.8-5.3,5.1-9.6,7.4-13.9c6.8-12.8,15.8-23,30.5-26.8c13.7-3.5,25.9,3.7,31.6,15.1c3.1,6.1,1.2,13.1-0.8,19.5
	c-1.7,5.4-4.7,10.2-8,15.5c8.4-2.2,16.2-4.4,24.2-6.2c10.6-2.5,21.4-3.3,32.2-2.6c5.3,0.3,7.9,2.8,8.1,8.1c0.2,6.5,0.6,13,2.1,19.3
	c0.5,2.2,0.3,3.7-1.5,5.3c-2,1.7-3.5,0.4-4.9-0.4c-17.1-9.2-34.3-7.4-51.5-0.8c-0.8,0.3-2.1,0.2-2.4,1.8c7.9,2,16,3.6,23.8,6
	c21.6,6.7,40.6,18.1,57,33.7c4.1,3.9,8.2,7.8,12.2,11.8c1.1,1.1,1.9,2.1,3.7,2.2c4.7,0.2,9,2.3,13.2,4.3c8.1,3.9,14.4,9.8,14.8,18.9
	c0.4,11.2-8,21.1-18.6,24.6c-5.2,1.7-10.6,2.1-15.8,0.7c-3.5-0.9-3.9,0.2-4,3.2c-0.2,13.1,0.7,26.3-0.9,39.4
	c-0.8,6.8-1.4,13.6-1.9,20.4c-0.1,1.4-1.2,4.6,1.9,3.8c2.8-0.8,7.7,1.7,8.1-4c0.4-6.2,1.7-12.2,5-17.6c4-6.5,11.1-9.7,18.4-8.4
	c5.6,1,9.4,5.6,9.6,11.4c0.1,3.6-1.2,6.9-1.7,10.8c3.8-0.7,7.4-1.4,11-2c1.8-0.3,3.6-0.5,5.4-0.6c8.4-0.2,15.3,3.9,16.8,9.7
	c2.1,8-1.8,16.5-9.7,20c-2.4,1.1-1.8,1.9-1.1,3.7c5.1,11.4,3,16.8-8.6,21.3c-2.6,1-3.1,1.9-2.6,4.6c2.2,12.1-2,17.5-14.3,19.4
	c-14.4,2.3-24.3-6.4-25.5-19.8c-0.5-5.3-2.8-6.4-7.3-5.6c-1.3,0.2-2.6,0.4-4,0.5c-3.8,0.1-4.9,1.8-4.6,5.7
	c2.1,24.7,4.3,49.4,8.4,73.9c0.6,3.8-1,5.4-3.9,6.2c-3.2,0.9-6.5,1-9.9,1.1c-33.4,1-66.9,2.2-100.3,3.2c-4,0.1-5.5,1.3-4.8,5.7
	c0.6,3.9,0.4,8-0.2,11.9c-0.7,5,1.4,6.2,6,6.5c11.1,0.7,22.3,1.3,33.2,3.9c14.5,3.5,28.2,9.1,40.8,16.8c10.9,6.7,8.3,17.7-0.5,23.6
	c-14.4,9.5-30,15.3-47.6,15.6c-20.2,0.3-40.3-0.1-60.2-3.8c-5.2-1-10-0.3-15.1,1.7c-28.7,11.3-58.1,13.2-88.1,5.9
	c-7.9-1.9-14.1-6.6-19.4-12.6c-5.9-6.7-4.1-14.8,2.6-20.7c17.8-15.7,39.8-18.2,61.9-20.1c12.9-1.1,13-0.5,11.9-13.2
	c-0.5-6.1-1.4-12.2-1.8-18.4c-0.2-3.7-1.4-5-5.4-5c-25.3-0.3-50.6,0.4-75.9-0.8c-9.1-0.4-18.3-0.6-27.5-0.9c-3.6-0.1-7.5-6.7-7-11.8
	c1.6-17,0.4-33.9-1.2-50.8c-0.4-3.6-1.5-7.2-2.1-10.8c-0.8-4.6-3.8-6.3-8.3-5c-2,0.6-1.4,1.9-1.5,3.1c-0.6,12.7-7.4,20.8-19,24.8
	c-3.8,1.3-3.4,3.9-4.1,6.4c-0.9,2.9,1.4,3.7,3.2,4.7c9.3,5.4,10.5,13.4,2.1,19.7c-4.9,3.7-5.8,7.3-3.8,12.5c1.3,3.3,0.4,5.6-3.4,6
	c-1.2,0.1-2.4-0.1-2.9-1.4c-1.1-3.3-2.3-6.6-3-10c-0.7-3.4,1.8-5.2,4.5-6.3c3.6-1.5,5.5-4.2,6.2-7.9c0.6-3.3-0.4-5.7-3.6-7.4
	c-7.5-3.7-7.5-3.8-6.2-11.9c0.3-2,0-3.1-2.2-3.4c-2.1-0.3-4.2-1-6.3-1.7c-9.8-3.3-12.4-14.1-5-21.4c1.4-1.4,1-1.9,0.3-3.1
	c-3.7-6.7-3.5-8.7,1.5-14.5c0.9-1,1.7-1.6,0.1-3.1c-10-8.9-8.2-18.3,4.2-23.4c0.9-0.4,1.9-0.8,2.8-1c4-0.4,4.4-2.6,3-5.8
	c-0.6-1.4-0.9-3-0.4-4.4c3.2-9,2.4-18.4,2.7-27.7c0.9-24.6,0.5-49.3,2.2-73.9c0.2-2.9,0-5.2-3.3-6.2c-1.1-0.3-2.2-1-2.9-1.9
	c-2.8-3.3-5.5-3.5-9.3-1c-3.4,2.2-10.2,0.4-12.8-2.7c-3.1-3.9-2.7-8.6-0.2-12.1c3.2-4.6,0.8-5.8-2.8-7.1c-6.4-2.3-12.7-4.8-18.4-8.7
	c-15-10.3-25.3-23.8-28.8-41.9C4.8,92.6,7.1,83,8.1,73.4c3.5-34.3,24.1-55.1,54.3-67.8c13.3-5.6,27.4-4.4,41.2-1.2
	c7.5,1.8,14.9,3.4,21.9,7.5c9.4,5.5,16.9,12.4,21.3,22.2c11.1,25.1,12.4,50.3-0.5,75.4c-6.8,13.2-15,24.9-26.8,34.2
	c-4.8,3.8-8.6,8.7-13.9,12c-1.6,1-1.1,1.9-0.7,3.3c2,7.2-3.8,17.6-11.1,19.8c-1.7,0.5-2.8,0.7-2.8,3c-0.6,29.9,1.3,59.9-1.7,89.8
	C89.2,272,89.4,272.3,89.6,272.6z"/>
<path class="st1" d="M167.7,405c-8.7-0.1-17.3-0.2-26-0.4c-3.9-0.1-5.6-1.4-5.6-6c0-14.8-0.6-29.6-1.1-44.4
	c-0.2-7.6-3.7-14.7-3.2-22.6c0.2-3.1-3-5.7-6.9-5.8c-5.8,0-11.7-0.2-17.5,0.1c-3.2,0.1-4.6-1.1-5.8-4c-1.5-3.7-3.6-6.9-0.9-11.1
	c1.1-1.7,0.1-4-1.3-6c-2.9-4-5.4-8.3-8-12.5c-1.1-1.8-2.1-3.9-1.8-6.1c0.5-3.5,2.4-6.3,5.9-7.4c3.6-1.1,5.5,1.5,7,4.2
	c2,3.7,3.8,7.8,3.2,11.8c-0.9,5.6,2.6,6.5,6.2,6.7c5.6,0.4,10.9-2.8,16.7-2c0.5,0.1,1.3-0.9,1.6-1.6c0.5-1,0.8-2.2,0.8-3.3
	c-0.7-26,1.9-51.9,0.8-77.9c-0.1-2,0.4-2.6,1.9-3.3c8.3-3.5,14.3-9,15.8-18.3c0.4-2.4,2-2,3.7-1.4c9.8,3.6,19.9,6.4,30.3,7.5
	c19.8,2,39.1,0.3,56.5-9.8c10.6-6.1,18.5-15.6,24.7-26.3c4.3-7.5,8.2-15.3,10.6-25c4.4,7.6,7.3,14.7,12.4,20
	c23.3,24,49.8,41.9,84.5,43.8c8.3,0.5,16.5,1.2,24.9,0c6-0.9,10.8-4,16-6.6c2.4-1.2,4.7-2.4,5.2,1.8c0.1,0.8,0.6,1.6,1.1,2.2
	c5.8,6.1,5.5,13.6,5.5,21.3c-0.2,21.1-1,42.2-3.9,63.2c-0.7,5,3,8,8.2,6.4c6-1.8,12.1-3.6,18.4-4.1c2.9-0.2,3.6-1.4,3.4-4.1
	c-0.4-6-0.3-12,2.1-17.7c0.9-2.1,2-3.9,3.9-5c1.5-0.9,3.2-1.9,5.2-1.1c2.3,1,1.7,3,1.8,4.7c0.5,7.5-1.3,14.1-7.2,19.3
	c-1.2,1-3.7,2.1-2,4.3c1.6,2.1,4.1,3.3,6.6,2c2.3-1.2,4.4-2.9,6.5-4.5c7.6-5.5,16.2-6.5,25.2-5.4c0.8,0.1,1.7,0.5,2.1,1.1
	c3,3.6,0.3,13.9-4.1,15.6c-3.8,1.5-7.8,1.5-11.8,0.7c-4.1-0.8-8-0.6-11.4,2.1c-1,0.8-2.8,1-2.2,2.8c0.5,1.5,1.6,2.6,3.3,2.6
	c3.5,0.1,7,0.1,10.5,0c3.3-0.1,5.7,1,7.2,4.2c1.6,3.5,1.5,6.8-0.6,9.9c-1.8,2.6-6.9,2.7-10.4,0.2c-2.5-1.9-5.3-2.9-8.4-2
	c-1.9,0.6-3.9,1.6-4.2,3.8c-0.3,2.4,1.9,3.2,3.5,3.6c6.9,1.7,8.6,7.1,8.2,14.1c-0.2,3.4-2,5-5.4,5.3c-8,0.6-13-2.5-15.4-10.3
	c-1.2-3.8-2.2-7.7-3-11.5c-0.4-2-1.3-3.6-3.4-3.8c-9.2-0.7-18.3-0.5-26.8,3.6c-2.7,1.3-3.4,3-2.9,6.4c1.4,8.8,2.4,17.8,2.7,26.7
	c0.5,13.7,2.9,27,4.8,40.5c0.6,4.3,0.5,6.7-5,6.7c-8.6,0-17.2,1.2-25.9,1.4c-23.1,0.5-46.2,2.5-69.3,2.3c-4.6,0-9.3,0.6-13.9,0.9
	c-3.4,0.3-5,1.6-4.3,5.4c1.6,8.4,0.9,16.9,0.6,25.4c-0.2,6.9,2.1,9.9,8.8,10.1c4.8,0.1,10.6,4.3,12.5,8.5c0.8,1.8-0.6,1.9-1.3,2.6
	c-4.7,4.4-9.3,8.8-14,13.2c-0.9,0.8-1.6,1.5-3,1.3c-7.2-1.3-14.4-2.5-21.5-3.9c-3.3-0.6-5.1-2.1-5.5-6.3c-1-10.4-3-20.7-4.4-31
	c-1-7.1,0.2-14.3,0.7-21.4c0.2-3-1-5.1-3.8-6.3c-4-1.8-5.6-0.7-6,3.8c-1.6,17.6,0.3,34.8,4.2,51.9c0.7,3,0.4,6.3,0.7,9.4
	c0.2,2.1-1.1,2.9-2.7,3.7c-7.6,3.6-15.6,5.8-23.7,7.3c-5.6,1-7-4.7-10-7.7c-2.5-2.5,0.6-3.8,1.3-5.4c0.9-1.9,2.5-3.6,3.3-5.6
	c1.2-3.1,3.3-4.7,6.6-5c3.6-0.4,4.8-2.9,4.1-6.1c-2.8-12.7-2.5-25.8-4.8-38.5c-1.2-6.9-4-9.2-11.3-8.2c-10,1.3-19.9,0.6-29.9,0.6
	c-10-0.9-19.9-0.1-29.9-0.4C174.6,405.3,171.1,405.8,167.7,405z"/>
<path class="st2" d="M88.3,10.1c8,0.3,18.5,1.2,28.3,6.1c14.2,7.1,23.5,17.3,26.1,33.9c2.8,17.7,3.7,35-3.6,51.8
	c-7.6,17.4-19.8,31.4-34.3,43.4c-4.7,3.9-9.5,7.6-15.5,9.5c-1.8,0.6-5,1.3-4.1,3.9c0.8,2.3,3.9,3.8,6.3,3.2c5.3-1.3,3.8,1.8,3,4.2
	c-0.9,2.7-2.1,5.4-5.3,6.1c-3.5,0.7-4.5-2.2-5.7-4.5c-1.6-3.1-4.5-3.2-7.3-3.1c-1.9,0-3.8,1.1-5.8,1.3c-1.7,0.2-3.6,2.7-5.2,0.4
	c-1.2-1.7,1.8-6.5,4.3-6.9c2.1-0.4,4.3-0.2,6.4,0.4c1.7,0.5,4,1.3,4.8-1c0.9-2.7-1.2-4-3.4-4.6c-7.2-2-14.2-4.3-21.2-7.1
	c-18.9-7.5-32.4-19.9-38.3-40.1c-3-10.3-1.1-20.5-0.4-30.7c0.3-4.1,1.2-8.2,1.9-12.3C23.2,43.1,37.1,29.7,53.7,19
	C65.1,11.7,73.9,10.1,88.3,10.1z"/>
<path class="st3" d="M310.4,117c10.3-1,20.4,2.9,30.9,4.3c13.7,1.8,27.1,5.5,39.6,11c19,8.4,36,20,49.8,35.9c1,1.1,1.7,2,0.2,3.3
	c-10.5,9.2-20.1,19.4-34.1,23.7c-7.5,2.3-15.1,2-22.7,1.6c-35.2-2-61.3-20.6-83.1-46.5c-6-7.1-9.2-15.7-10.8-24.9
	c-0.6-3.2-0.6-5.5,3.9-6C292.7,118.5,301.2,116.7,310.4,117z"/>
<path class="st3" d="M247.8,120.1c6.1-0.3,12.1,0.3,17.9,1.9c2.6,0.7,3.5,1.7,2.9,4.6c-3.5,15.9-8.5,30.7-18.9,43.9
	C239,184,225.8,191.8,209,193.8c-18.4,2.2-36-1.3-53.3-7.3c-7.3-2.5-8.4-9.8-12.9-14.4c-1.3-1.3,1.1-2.4,2-3.4
	c16.9-18.5,37.9-30.5,61.3-38.8c8.8-3.1,17.3-6.9,26.5-8.7C237.6,120.2,242.8,119.8,247.8,120.1z"/>
<path class="st4" d="M272,91.3c0.3,5.5-1.1,12-2.2,18.5c-0.5,2.6-1.7,3.5-4.5,2.9c-16.5-3.9-29.5-12.5-37.8-27.7
	c-5.3-9.8-4.7-20.8,2.2-27.3c12.9-12,26.3-10.4,35.9,4.5C271,70.6,272.1,80.3,272,91.3z"/>
<path class="st5" d="M219.5,500.1c-11.3-0.1-22.6-0.7-33.5-4.2c-4.5-1.4-8.4-3.7-11.4-7.6c-2.3-3-2.3-5.7,0.5-8.4
	c1.1-1,2.1-2.1,3.3-3c2.7-2,5.2-4.6,8.2-5.5c4-1.2,4.8,3.6,7.2,5.6c10,8.1,21.7,11.4,34.1,12.5c14.9,1.3,29.5-0.4,43.7-5.3
	c1.2-0.4,3.1-2.7,4.2-0.3c1,2.2-0.7,3.5-2.8,4.5C256.1,496.3,238.3,500.7,219.5,500.1z"/>
<path class="st6" d="M342,63.5c-1.1,12.9-8.7,23.7-20.3,32c-8.3,6-17.4,10.4-26.6,14.6c-3.3,1.5-6.9,0.4-10.3,1.4
	c-2,0.6-2-1.3-1.7-2.6c2.5-11.3,4.6-22.9,10.6-33c3.2-5.4,6.7-10.7,10.5-15.7c5.1-6.7,12.1-10.8,20.3-12.6
	C332.9,45.7,342.2,53.2,342,63.5z"/>
<path class="st7" d="M339.4,492.2c-17,0.6-33.8-1-50.5-4.1c-5.6-1.1-2.4-5.3-2.7-7.9c-0.3-3.5,2.6-1.4,3.9-1.2
	c13.4,2.5,26.8,4.9,40.4,4.8c16.8-0.1,32.7-3.2,46-14.5c1.1-1,2.8-1.9,3.1-3.1c1-4.6,3.2-4.4,6.6-2.3c3.1,1.9,8,2.6,8.1,6.5
	c0.2,4.3-4,7.1-7.5,9.3c-13.6,8.5-28.6,12.2-44.5,12.6C341.4,492.2,340.4,492.2,339.4,492.2z"/>
<path class="st3" d="M462.8,190.2c-0.1,10.2-10.1,19.6-20.7,19.6c-8.6,0-15.7-6.8-15.4-14.9c0.2-8.8,10-19.9,16.4-19.5
	C453.3,176.1,463.3,181.4,462.8,190.2z"/>
<path class="st8" d="M140.3,189.6c-0.2,9-4.1,15.1-11.2,17.6c-8.5,3-17.7-2.6-18.8-11.5c-1.7-12.8,11.6-23.6,23.7-19.4
	C138.4,177.8,140.5,182.2,140.3,189.6z"/>
<path class="st9" d="M326.1,110.4c7.3-6.8,15-11.1,23.3-14.4c13.6-5.3,27.8-7.2,42.4-7.2c3.9,0,4.8,1.7,5.1,4.9c0.8,9.2,0.9,9-8,7.1
	c-18.5-3.9-35.8,0.5-52.7,7.8C333.3,109.9,330.6,111.8,326.1,110.4z"/>
<path class="st6" d="M223.9,106.7c-10.3,1.7-20.6,1.7-30.6,4.3c-5.5,1.4-10.9,2.9-16,5.2c-2,0.9-3.2,0.7-3-1.8
	c0.2-3.1,0.5-6.3,1-9.4c0.1-1,0.9-1.7,2.1-1.9C193.2,99.8,208.8,100.4,223.9,106.7z"/>
<path class="st10" d="M85.2,356.1c-6.2-0.1-9.9-2.8-10.6-7.4c-0.6-3.8,1.5-6.8,5.3-6.6c7.2,0.2,13.4-1.6,18.5-6.8
	c2-2.1,2.4-0.1,2.9,1.3c2.8,7.5-5.1,18.5-14,19.4C86.4,356.1,85.6,356.1,85.2,356.1z"/>
<path class="st11" d="M209.8,462.9c3,0,11.9,6.3,12.8,8.3c0.4,1,0,1.5-0.5,2.2c-3.1,4.3-8,5.9-13.1,4c-4.2-1.6-8.1-3.7-11.2-7.1
	c-1.9-2-2-3.4,0.9-4.2C202.6,465,206.6,463.9,209.8,462.9z"/>
<path class="st12" d="M363.5,455.1c0.7,0.1,1.4,0,2,0.2c2.2,0.6,5.2,0.2,6,2.8c0.7,2.3-1.9,3.6-3.2,5.2c-1.9,2.4-4.5,3.9-7.1,5.4
	c-7.7,4.5-10.4,3.4-13.7-5c-0.8-2-0.3-3.1,1.4-4C353.5,457.4,358.3,455.6,363.5,455.1z"/>
<path class="st13" d="M357.6,453.2c-13.6,5.7-25.2,11.6-35,20.8c-1.5,1.4-3.8,1.9-4.9,0.6c-1.6-1.8,1-2.6,2-3.7
	c6.1-7,13.6-11.9,22.1-15.5C346.5,453.4,351,451.9,357.6,453.2z"/>
<path class="st14" d="M82.5,314.8c-5.8-0.1-8.5-2.1-8.4-5.7c0.2-3.8,5-7.3,9.9-7.4c2.6,0,6.6,4.7,6.1,7.7
	C89.4,314.1,85.6,314.6,82.5,314.8z"/>
<path class="st15" d="M82.6,334.2c-2.3-0.5-5.6-0.1-5.6-3.9c-0.1-3.5,1.5-6.4,5.3-7.3c1.8-0.4,3.6-0.6,5.4-0.9
	c1.6-0.3,3.2-0.9,4.4,1c1,1.7,1.2,3.4,0.4,5.2C90.5,332.4,87.1,334.1,82.6,334.2z"/>
<path class="st16" d="M216.1,462.4c3.3-1,5.6-1.2,8,0.7c6.3,4.8,10.7,11.2,16.1,16.9c0.6,0.6,1.2,1.4,0.4,2.1
	c-1.1,1-2.2,0.1-3.1-0.6c-3.9-3.4-7.6-6.9-11.5-10.3C223,468.4,219.9,465.7,216.1,462.4z"/>
<path class="st17" d="M330.8,475.8c-1.6-0.4-3.6,0.8-4.2-0.9c-0.5-1.5,1.3-2.5,2.4-3.3c1.4-1.1,3.1-1.9,4.5-3.1
	c1.8-1.4,2.8-1.3,4.2,0.8c3,4.9,3,5.2-2.7,6C333.5,475.4,332.1,475.6,330.8,475.8z"/>
<path class="st18" d="M346.4,474c-3.5,0-8.4-6.4-7.1-8.5c1.2-2,3.3-3.9,5.5-1.2c1.5,1.7,2.3,4,3.5,6
	C350,473.3,348.4,474.1,346.4,474z"/>
<path class="st19" d="M235.2,469.9c-1.1-0.4-2-1.2-2.2-2.4c-0.4-2.2,4.2-7.7,6.4-8c1.2-0.2,1.9,0,1.9,1.3c0.1,1.5-4.4,8.7-5.7,9
	C235.6,469.8,235.4,469.9,235.2,469.9z"/>
<path class="st20" d="M328.4,449c3.4,0.6,6.3,1.9,7.2,5.4c0.4,1.4-1.4,2.1-2.7,2.2c-1.7,0.1-7.4-5.1-7.1-6.5
	C326,448.3,327.5,449.3,328.4,449z"/>
<path class="st21" d="M167.7,405c12.4,0,24.7,0,37.1-0.1c1.1,0,2.3-0.1,3.2,0.8c-12.4,0-24.7,0-37.1,0
	C169.8,405.9,168.6,406,167.7,405z"/>
<path class="st22" d="M217.9,479.8c1.7-2.7,4.2-3.3,6.3-4.5c0.9-0.5,2-0.5,2.6,0.5c0.6,1.1,0,1.9-0.8,2.6
	C223.7,479.9,221.4,481.5,217.9,479.8z"/>
<path class="st23" d="M230,459.9c1,0.5,3.2-1,3.1,1.1c0,1.7-1.2,3.9-3.3,3.6c-1.7-0.2-4-1.4-3.9-3.2
	C226,459.2,228.5,460.3,230,459.9z"/>
<path class="st24" d="M343.3,451.4c-2,1.4-3.8,3.4-6.1,1.2c-0.4-0.4-0.9-1.5-0.7-1.6C338.8,448.9,341,452.1,343.3,451.4z"/>
<path class="st25" d="M233.6,482c-1,0-1.8,0.3-2.6,0.1c-1.4-0.3-3,0.5-4-1c-0.1-0.2,0.2-0.9,0.5-1.2c1.5-1.3,3-1,4.5-0.1
	C232.6,480.1,233.5,480.4,233.6,482z"/>
<path class="st0" d="M264.2,331.2c-12.9-1-25.2-2.9-35.4-10.9c-13-10.1-17.9-24.2-18.8-40.1c-0.1-2.7,0.5-4.4,3.7-4.4
	c3.1,0,5.5,0.8,5.2,4.3c-0.7,7.1,2,13.3,4.9,19.5c6.5,14.3,18.2,21.9,33,23.1c38.8,3.3,65.4-20.1,78-51.9c2-5.1,3.9-10.3,4.9-15.6
	c0.9-4.9,4.1-4.9,7.3-4.1c3.8,1,2.2,4.6,1.7,6.7c-3,11.1-6.8,22-13.2,31.6C318.6,315.1,295,329.5,264.2,331.2z"/>
<path class="st0" d="M293,226.5c-0.3-5.9,0.6-11.1,2.8-16c3-6.6,8.9-9.7,15.7-8.3c6.5,1.3,10.5,6.7,11.5,13.5
	c1.4,9.4-1.3,17.3-7.4,24.2c-3.9,4.4-8.6,6.2-14.7,4.1c-6.1-2-7.1-6.9-7.9-12C292.7,230.1,293,228,293,226.5z"/>
<path class="st0" d="M267,218.2c-0.1,6.9-2.4,13-6.4,18.5c-2.9,3.9-6.8,6.2-11.6,5.2c-5-1.1-8.8-4.2-9.9-9.4
	c-1.9-8.8-0.3-17.2,4.5-24.8c2.4-3.7,9.5-5.7,14-4.3c6,1.8,8.9,5.4,9.5,11.8C267.1,216.2,267,217.2,267,218.2z"/>
<path class="st0" d="M295.1,254.5c0.1,9.5-8.9,18.8-18.4,19.6c-5.2,0.4-10.1,0.4-14.5-3.1c-8.7-6.9-8.8-12.3-3.1-22.4
	c6.8-11.8,23.6-10.9,30.5-5.3C293.7,246.5,295.1,249.4,295.1,254.5z"/>
<path class="st0" d="M264.2,96.1c-1,2.8,1.4,6.7-2.5,8.1c-3.9,1.4-6.1-1.7-8.1-4.3c-4.4-5.7-9.1-11-14.7-15.5
	c-1.8-1.4-3.4-3.2-5-4.9c-3.8-4.3-5.4-11.9-3.3-14.7c3.4-4.5,13.1-5.8,18.4-2.5c2.2,1.3,4.1,3,5.4,5.1
	C260.2,76.1,263.7,85.7,264.2,96.1z"/>
<path class="st0" d="M293.4,99.8c4-13.6,8.1-27.4,18.9-37.5c5.4-5.1,11-5.4,16.9-2.1c5.9,3.3,7.4,8.7,3.7,14.6
	c-3,4.9-7.4,8.5-11.5,12.3c-6.3,5.8-13.1,11.1-19.8,16.4c-1.7,1.3-3.6,2.3-5.9,1C293.9,103.4,293.2,102,293.4,99.8z"/>
<path class="st26" d="M271.6,267.9c-2.7-0.3-6.1-0.8-7.9-4.1c-1.8-3.1-1-6.4,0.9-9.4c4.3-7,11.4-9.9,18.2-7.6c2.5,0.9,3.9,2.4,4.1,5
	C287.7,259,279.6,267.9,271.6,267.9z"/>
<path class="st27" d="M254.6,88.8c-5.3-5-10.7-8.2-14.4-13.1c-1.5-2-2.1-4.3-0.8-6.5c1.2-2.2,3.5-2.2,5.8-2.1c1.5,0.1,2.4,0.5,3.1,2
	C251,75,253.4,81,254.6,88.8z"/>
<path class="st28" d="M308.6,85.9c2.2-7.8,5.5-14.8,12.5-19.1c1.1-0.7,2.2-2.6,3.8-1c1.3,1.3,1.1,2.9,0.3,4.6
	c-1.4,3.1-3.8,5.4-6.4,7.5C315.4,80.6,312,83.2,308.6,85.9z"/>
</svg>
