<?xml version="1.0" encoding="utf-8"?>
<!-- Generator: Adobe Illustrator 25.4.1, SVG Export Plug-In . SVG Version: 6.00 Build 0)  -->
<svg version="1.1" id="Layer_1" xmlns="http://www.w3.org/2000/svg" xmlns:xlink="http://www.w3.org/1999/xlink" x="0px" y="0px"
	 viewBox="0 0 512 512" style="enable-background:new 0 0 512 512;" xml:space="preserve">
<style type="text/css">
	.st0{fill:#171516;}
	.st1{fill:#181611;}
	.st2{fill:#E31085;}
	.st3{fill:#369FCD;}
	.st4{fill:#29A0D3;}
	.st5{fill:#22101A;}
	.st6{fill:#2A9FD2;}
	.st7{fill:#2B9ED2;}
	.st8{fill:#DD1482;}
	.st9{fill:#2BA0D4;}
	.st10{fill:#C02478;}
	.st11{fill:#0D1C21;}
	.st12{fill:#2E9FCF;}
	.st13{fill:#2AA0D5;}
	.st14{fill:#BC2878;}
	.st15{fill:#4697C2;}
	.st16{fill:#380B24;}
	.st17{fill:#4995B6;}
	.st18{fill:#B22973;}
	.st19{fill:#2F0C1F;}
	.st20{fill:#4D062B;}
	.st21{fill:#360C23;}
	.st22{fill:#DCDCDC;}
	.st23{fill:#D7D7D6;}
	.st24{fill:#F8EB00;}
	.st25{fill:#F7EA02;}
	.st26{fill:#F6EA04;}
	.st27{fill:#ECE63F;}
	.st28{fill:#EFEB3F;}
	.st29{fill:#F3ED3F;}
	.st30{fill:#EFE447;}
	.st31{fill:#171717;}
	.st32{fill:#191618;}
	.st33{fill:#1A1618;}
	.st34{fill:#D41B81;}
	.st35{fill:#2B0E1E;}
	.st36{fill:#51092B;}
	.st37{fill:#580635;}
	.st38{fill:#600837;}
	.st39{fill:#620839;}
	.st40{fill:#5A0832;}
	.st41{fill:#51052C;}
	.st42{fill:#3D0221;}
	.st43{fill:#420324;}
	.st44{fill:#11232C;}
	.st45{fill:#0E1F29;}
	.st46{fill:#580733;}
	.st47{fill:#57052F;}
	.st48{fill:#56032F;}
	.st49{fill:#D9D9D7;}
</style>
<g id="lh03Zu_1_">
	<g>
		<path class="st0" d="M425.5,185.1c-1.9,1.8-6.1,2.7-3.5,6.5c8.5,12.4,12.7,26.3,15.4,40.7c0.1,5.6-0.3,11.2,1.3,16.7
			c0,8.5,0,16.9,0,25.3c-1.9,21.1-3.8,42.2-5.8,63.3c-0.9,9.2-2,18.4-3,27.6c-0.5,4.2-2.5,6.2-6.8,7.1c-12.6,2.5-25.3,1.2-37.9,1.5
			c-28.3,0.8-56.6,1.6-84.9,1.9c-5.7,0.1-7.3,1.7-6.7,7.1c0.4,3.3,0.1,6.7,0.1,11c4.2-3.3,7.4-6.1,11-8.4c3-1.9,6.6-2.6,9.4,0.5
			c2.8,3.1,1.4,6.5-0.8,9.3c-1.8,2.3-4.1,4.2-6.1,6.2c-1.3,1.3-4.1,2.1-3.2,4.3c0.7,1.8,3.2,1.8,5.1,2.1
			c15.1,2.7,29.1,7.9,40.7,18.4c5.6,5,10.9,10.4,8.1,18.8c-2.8,8.5-9.2,13.1-18,13.8c-19.5,1.6-39,0.3-58.4-1.9
			c-12.8-1.5-25.8-2.5-37.5-8.8c-1.4-0.8-2.8-0.9-4.2,0c-10.1,6.5-21.9,6.4-33.2,7.6c-16.2,1.7-32.6,2.2-48.9-0.7
			c-8-1.5-15.5-4.9-17-13.8c-1.5-8.6,3.6-15,10.3-19.6c12.8-8.9,27.3-13.9,42.6-16.6c1.6-0.3,3.2-0.9,5.3-1.5
			c-1.4-3.2-4.8-3.5-6.5-5.7c-1.3-1.7-3.2-3.2-1.6-5.7c1.5-2.3,3.8-2.3,5.9-1.5c2.9,1,5.7,2.6,9.3,4.2c1.2-4.3,0.2-8.6,0.1-12.7
			c-0.1-2.2-1.8-3.4-4-3.5c-1.5-0.1-2.9-0.2-4.4-0.1c-38.3,1.8-76.6,0-114.9-0.1c-6.3,0-8.4-4.3-9.6-8.9c-1.8-6.6-3.7-13.4-3.7-20.1
			c0-10.2-4.7-15.5-14.2-17.4c-12.4-6-17.5-19.8-12.5-32.2c4.6-11.5,12.3-20.4,21.2-28.4c2.9-2.6,4.3-5.4,4.8-9.3
			c3.1-25.4,10.1-49.6,23.2-71.7c4.7-8,9.7-15.7,17.1-21.7c1.9-1.5,4.8-3.2,1.7-6.3c0.1-8.2,5.1-2.6,6.5-1.7
			c8.1,5.4,16.8,7.3,26.5,7c8.7-0.3,17.5-1.5,26.1,1.5c-3.7,2.3-7.8,2.4-11.9,2.7c-11.1,0.8-21.9-0.3-32.6-3.4
			c-3.2-0.9-5.3-0.5-7.8,1.8c-10.3,9.3-18,20.7-23.7,33.1C75,243.7,70.4,286,74.2,329.4c1,11.9,2.4,23.8,5.7,35.3
			c0.9,3.3,1.8,6.4,6.5,6.4c36.1,0.4,72.2,1.9,108.2-0.7c17.3-1.3,18.3-0.8,18.8,16.2c0,0.7,0.1,1.5,0.1,2.2
			c0.4,1.6,0.9,3.2,1.4,4.9c-0.3,1.6-1.2,3.5,0.2,4.8c1.7,1.5,3-0.1,4.3-1.2c0.8-0.7,1.9-2.2,2.2,0.3c-0.9,1.9-4.3,3.7-0.6,5.8
			c5.7,3.4,16.3-1.6,17.3-8.2c0.7-4.3,0.8-8.7,1.1-13c0.2-2.7,0.4-6,3.8-6c4,0,4,3.6,3.9,6.5c-0.1,5.1-0.4,10.2-0.5,15.3
			c-0.1,2.4-0.5,5,2.9,5.8c7.8,5.3,16.5,3.2,24.7,2.4c4.4-0.4,4-3.5,0.6-5.8c-0.3-0.8-0.6-1.6-0.9-2.4c0.4-5,1.7-8.8,8-6.8
			c3.3,1.1,3.8-0.6,3.5-3.4c-0.2-2.7-0.4-5.3-0.4-8c-0.2-9.9,0.8-10.8,10.6-11c27.5-0.6,54.9-1.2,82.4-1.9c3.4-0.1,6.8,0.4,10.1-1.1
			c7.8,0,15.9-1.1,23.3,0.5c9.8,2.1,10.2-3.4,11.2-10c6-40.4,8.4-81,7-121.8c-0.2-4.9-0.3-10-3.8-15.9c-0.7,6.6-5.8,9.7-6.1,15.1
			c-0.9,4.2-3.6,2.9-6.2,2.2c-5.8-1.6-9.5,0-10,6.7c-0.2,2.1-0.4,4.3-4.3,5.3c0-4.9,0.2-9.4,0-13.9c-0.3-7.1-6-12.9-14.3-15.5
			c-6-1.8-10.4-0.2-13.4,5.3c-1.8,2.9-2.7,5.5,1.3,7.7c2.2,1.3,4,3.5,5.9,5.2c-0.1,2.2,0.2,5-3.2,1.9c-2.2-2-3.6-5.2-7.4-4.7
			c-11-2.9-20.4-0.9-27.5,8.6c-1.9,1.4-2.1,3.6-1.2,5.2c2.1,3.9-1,4.9-3.1,6.5c-10.4,7.4-9.9,13.3,1.6,18.9
			c8.4,4.1,17.6,5.6,26.2,8.8c4.1,4,1.8,10.7,6,14.6l0,0c-0.7,2.1,0.8,4.7-1.7,6.9c-3.4-4.2-2.7-10-5.8-14.1
			c-1.8-1.4-3.2-0.4-4.6,0.6c-6.1,4.8-12.9,4.6-19.4,1.8c-14-5.9-25.6-15-33.5-28.3c-6-10-5.3-20.1,1.1-29.6
			c3.2-4.8,7-9.4,10.9-13.7c12.4-13.7,23.4-28.6,36.9-41.5c-3.7-2.5-7.2-1.7-10.5-2.1c-19.6-2.5-39-5.5-56.9-14.8
			c5-2.4,9.7-0.6,14,1.7c6.4,3.4,13.5,7.1,20.2,6.7c19.8-0.9,39.4,4.2,59.2,1.1c4.7-0.7,8.4-1.8,9.2-7.1c0.2-1.4,0-3.2,2-3.4
			c2.5-0.2,2.6,2,2.6,3.6c-0.2,8.4,6.6,11.1,12.2,14.2c2.5,1.4,6.4,0.2,9.2,1.2c6.2,2.2,8.7-1.1,9-6.1c0.3-4.8,2-9,3.4-13.4
			c1-3.1,2.9-4.5,5.6-1.4c0.9,3.4-1.3,6.5-1.3,11.2c5.6-3.9,11.1-6.6,11.6-13.6c0.5-7,5.1-8.2,10.7-8.1c4.9,0.1,9.2,1.3,9.8,7.5
			c0.5,6.2-1.3,13.3-7.4,12.7c-12.9-1.4-19.8,6.7-27.8,13.7C427.6,183.3,426.5,184.2,425.5,185.1z M321.5,266.4
			c-2.2-2.2-1-5-1.2-7.5c2.9-2.5,5.6-5.2,8.7-7.5c1.9-1.4,3.6-2.5,2.9-5.2c-0.7-2.8-3.1-1.7-4.8-2c-4.2-0.8-7.9-2.2-6.6-7.5
			c1.7-6.7,9.6-9,14.8-4.4c1.2,1.1,1.7,3,3.9,1.2c6.6-5.6,14.6-7.2,23.2-7.6c-1.3-4-2.9-8,0.9-11c3.4-2.7,7.3-4,11.2-0.7
			c6.8,4.5,7.8-1.8,10.2-5.4c0.5,0.1,1,0.2,1.5,0.4c1.4,1.5,4.6,1.1,4.5,4.2c3.2,6.2,9.2,10.5,12.1,17c0.5,1.2,1.6,1.2,3.1,1.1
			c8.6-1.1,16.6-15.3,12.4-22.6c-2.4-4.2-5.4-8-8.1-12c-11.3-19.3-26.8-25.3-44.9-17.6c-2.8,1.1-4.8,3.3-6.7,5.5
			c-9.2,10.3-18.3,20.7-27.4,31.1c-7.3,8.4-15.1,16.4-20,26.5c-2.1,2.3-2.5,5.2-2.4,8.1c0.1,7,4.4,12,8.3,17.1
			c12.8,14.7,27.3,21.5,35.7,16.6C332.9,278.7,332.9,278.7,321.5,266.4z M256,412.6c1.2,4.1,4.1,5.2,6.2,7.1
			c4.3,3.7,9.1,7.5,10.1,13.1c2.5,14.5,11.1,19.5,24.9,18.2c2.6-0.3,5.6,2.2,7.7,0.2c4-3.8,4-9.7,6.4-14.5c1.6-3.1-2.2-5.6-4.2-7.9
			c-1.7-1.9-3.4-4.7-6.6-3.1c-2.9,1.5-2.8,4.4-2.2,7.1c0.8,3.3,0.9,5.9-3.3,6.4c-3.4,0.4-6.5-0.4-7.7-4c-1.2-3.4-0.4-6.6,3.2-7.7
			c3.7-1.1,7.6-1.7,6.4-6.7c-1.2-5.3-8.8-10.9-13-9.3C275,414.9,265.9,413.9,256,412.6z M191.6,451.1c5.9-1.4,11.8-2.8,17.7-4.2
			c2.4-0.6,3.6-2,3.7-4.6c0.4-11.1,5.1-20.1,13.9-26.9c1.2-1,2.9-2.2,2.1-4.2c-0.7-1.6-2.5-1.1-3.8-1.5
			c-12.5-3.4-20.9,5.4-30.5,10.5c-1,0.6-2,1.6-1.6,3c0.6,2,2.1,2.4,4,2.3c3.6-0.2,4.9,2.1,4.5,5.1c-0.5,3.9-3.1,6.1-6.9,6.3
			c-2.9,0.1-5.4-1.3-5.1-4.7c0.1-2.3,0.7-4.9-1.9-5.6c-3.1-0.7-5.3,1.9-7.5,3.7c-2.2,1.8-1.2,4,0,5.9c2.2,3.3,3.7,6.8,4.8,10.5
			C185.8,450,188.2,451.2,191.6,451.1z M329.4,453.2c3.4-0.1,8.2-1,12.7-2.8c6.6-2.7,9.7-10.2,6.5-15.5c-2.5-4.2-5.9-7.8-10.1-10.4
			c-7-4.4-9.7-3.5-14.2,3.7c-1.9,3.1-3.9,6.2-5.6,9.4C311.6,450.7,312.7,452.6,329.4,453.2z M169,449.8c1.2,0,2.4,0,3.6,0
			c7.7,0.3,7.9,0.1,5.3-7.5c-1-3-2.4-5.8-3.6-8.7c-6.5-15.4-12.1-16.1-22.6-2.9c-4.3,5.4-3.9,9.9,1,14.7
			C157.3,450,163.1,449.6,169,449.8z M245.8,412.7c-2.5,9.3-1.1,18-0.2,26.7c0.3,2.9,2.1,4.4,4.6,5c5.9,1.4,11.9,2.7,17.8,4.1
			c3.1,0.8,4.2-0.3,3.1-3.3C266.3,431.9,260.1,419.7,245.8,412.7z M65.1,300.9c0.2,0,0.4,0,0.6,0c0-4.4,0-8.7,0-13.1
			c0-1.6,0.3-3.7-1.8-4.2c-1.6-0.4-2.7,0.7-3.6,1.9c-4.2,5.6-8.5,11.3-10.3,18.3c-2.7,10,0.3,17.8,8.8,23.2c1.8,1.1,3.8,2.7,6,1.7
			c2.5-1.2,1.8-3.7,1.7-5.8C66.1,315.4,65.5,308.2,65.1,300.9z M236.9,426.9C236.9,426.9,236.9,426.9,236.9,426.9c0-3.2,0-6.3,0-9.5
			c0-1.1,0.3-2.5-1.1-3.2c-1.4-0.7-2.3,0.3-3.1,1.1c-7.8,8-11.6,17.9-13.6,28.6c-0.3,1.8-0.3,3,2.6,2.8c11.3-0.7,15.7-5.2,15.4-16.2
			C236.9,429.4,236.9,428.2,236.9,426.9z M316.3,415.2c-4.5,0.7-9.5,3.3-9.9,6.9c-0.4,3.3,5.3,5.6,8.5,8c0.5,0.4,8.6-10.1,8.4-11.1
			C322.3,415.5,319,415.9,316.3,415.2z M311.7,390.3c-0.1-2.5-2.8-2.2-5-1.2c-4.9,2.2-7.8,6.4-10,11.2c-0.8,1.7-0.5,3.4,2.1,3.4
			C302.3,403.8,311.4,395.3,311.7,390.3z M185.1,421.8c-1.6-2.7-1.7-6.7-5.5-6.1c-3.4,0.5-8.2,1.1-8.7,5.1c-0.4,2.9,2.6,7.3,5.5,7.5
			C180,428.5,182.3,424.3,185.1,421.8z M202,411.4c0-2.3-1.4-2-2.9-1.6c-3.7,1-7.5,1.9-11.2,2.8c-1.4,0.3-3.2,0.6-3.3,2.2
			c-0.1,2.1,1.5,3.6,3.1,4.6C189.6,420.5,201.7,413.7,202,411.4z M280.3,393.3c-1.6,0.2-4,0.1-3.7,2.3c0.4,3.2,2.3,6,5.7,6.7
			c2.5,0.5,4.2-1.1,4-3.8C286,395,283.4,393.8,280.3,393.3z M299.8,411.4c-2-0.2-4.6-0.8-4.2,1.6c0.5,2.9,3.3,5,5.9,5.9
			c2.5,0.8,5.2-2,5.2-3.9C306.6,410,301.3,413.8,299.8,411.4z M206.2,400.6c-1.6-3.7-4.6-5.9-8.7-6.6c-1.3-0.2-3.8,0.3-3,1.9
			c1.8,3.5,5.5,5.3,9.1,6.8C205,403.3,205.9,402.4,206.2,400.6z M454.5,161.4c1.8-0.4,3.2-1.5,3.1-3.4c-0.1-2.2-1.3-3.6-3.7-3.4
			c-1.9,0.2-3.3,1.1-3.1,3.2C451,159.9,452.3,161.2,454.5,161.4z M332.8,237.2c-0.3-1.9-1.7-2.9-3.5-2.9c-2.1,0-3.8,1.1-3.9,3.4
			c-0.1,1.8,1.5,2.6,2.9,2.7C330.4,240.4,332.1,239.4,332.8,237.2z"/>
		<path class="st1" d="M169.6,169.5c-8.5-3-17.4-1.7-26.1-1.5c-9.7,0.3-18.4-1.6-26.5-7c-1.4-0.9-6.4-6.5-6.5,1.7
			c-4-2.8-6.3-3.7-8,2.9c-2.9,11.4-13,16.7-24.4,14.2c-11.9-2.7-19-12.5-17.4-24.1c1.2-8.3,8.3-14.9,18.6-13.8
			c9.8,1,14.8-2.8,21.3-9.6c21-22.3,48.3-33,78.2-37.5c18.4-2.8,36.5-1.8,54,5c1.7,0.7,3.1,0.8,4.8-0.1c11.6-6.2,24.3-8.9,37.2-10
			c29.4-2.4,58.4-1.5,86.1,10.5c14.6,6.4,26.3,15.7,33.5,30.1c1.9,3.7,3.8,5.6,8.4,4.1c10.7-3.5,19.9-0.3,26.4,8.6
			c3.3,4.6,5,10.2,3.9,16.2c-2.7-3.1-4.7-1.7-5.6,1.4c-1.4,4.4-3.1,8.6-3.4,13.4c-0.4,5-2.8,8.3-9,6.1c-2.9-1-6.7,0.2-9.2-1.2
			c-5.6-3.1-12.4-5.7-12.2-14.2c0-1.5,0-3.8-2.6-3.6c-1.9,0.2-1.7,2-2,3.4c-0.8,5.3-4.5,6.4-9.2,7.1c-19.8,3.1-39.4-2-59.2-1.1
			c-6.7,0.3-13.7-3.4-20.2-6.7c-4.3-2.2-9-4.1-14-1.7c-20.1-7.5-34.7-21.1-44.5-40c-3.7-7-4.1-7-8.9-0.5
			c-10,13.8-22.3,25.2-36.2,34.7C188.5,161.9,180.1,168,169.6,169.5z M399.2,145.2c-6.9,7.8-4.3,15.6-0.1,23.4
			c5.2,8.9,9.2,9.8,18.1,3.7c7.3-5,8.6-12.5,8-20.6c-0.4-5.5-2.8-9.8-8.4-11.5C410,138.2,403.9,139.3,399.2,145.2z M159.1,106.4
			c-1.9,0.9-3.7,2.3-5.7,2.7c-19.6,4.2-34.9,15.4-48.5,29.3c-6.6,6.7-6.4,7.2,1,12.7c18.2,13.7,39.2,19.4,60.7,12.4
			c25.4-8.2,44.9-25.8,60.1-47.9c6.4-8.6,6.2-9.3-3.8-12.3C201.1,96.7,180,100.3,159.1,106.4z M348.1,168.7c6.9,0.4,13.8,0.8,20.8,1
			c4.3,0.2,8.7,0.1,12-3.3c2.5-1,4.4-2.7,5.3-5.3c2.7-3.3,3.5-7.4,4.3-11.4c1-5,3.7-10.4-1.4-14.9c-6.4-12.6-15.8-22.7-28.8-27.9
			c-36.3-14.4-73.4-16-110.9-4.7c-5.3,1.6-6.7,4.6-4.5,9.9c6.4,15.3,16.1,27.7,30.4,36.4C297.7,162,321.7,169.7,348.1,168.7z
			 M95.7,159.1c0.2-7.5-4.6-11.7-13.4-11.8c-7.8-0.1-14.8,5.8-15.1,12.7c-0.3,6.7,6.3,13.4,13.4,13.7
			C88.6,173.9,95.6,167.2,95.7,159.1z"/>
		<path class="st2" d="M169.6,169.5c10.5-1.5,18.9-7.6,27.3-13.3c14-9.5,26.2-20.9,36.2-34.7c4.7-6.5,5.2-6.6,8.9,0.5
			c9.9,18.9,24.4,32.5,44.5,40c17.8,9.3,37.3,12.3,56.9,14.8c3.3,0.4,6.8-0.4,10.5,2.1c-13.5,12.9-24.5,27.8-36.9,41.5
			c-3.9,4.3-7.7,8.8-10.9,13.7c-6.3,9.5-7.1,19.6-1.1,29.6c7.9,13.2,19.5,22.4,33.5,28.3c6.5,2.7,13.3,2.9,19.4-1.8
			c1.4-1.1,2.8-2.1,4.6-0.6c-0.3,5.7,2,10.9,3.5,16.3c0.7,2.5,2.6,4.5,5.4,3.5c2.7-0.9,1.2-3.4,0.7-5c-0.8-2.5-0.2-5.4-2.1-7.6
			c0,0,0,0,0,0c-2-4.9,1.7-12.1-6-14.6c-8.6-3.3-17.9-4.7-26.2-8.8c-11.5-5.6-12.1-11.6-1.6-18.9c9.9-1.1,19.8-1.8,28.8,3.9
			c1.6,1,4.3,1.7,5.2-0.3c1.3-2.7-1.5-3.6-3.4-4.6c-6.5-3.6-13.3-5.9-20.8-5.1c-4.4,0.5-6.4-1.1-5.5-5.6c7.1-9.5,16.5-11.6,27.5-8.6
			c3.2,3.3,6.4,6.6,9.7,9.9c1,1,2.5,1.9,3.9,0.9c1.7-1.2,1.5-3,0.6-4.6c-0.8-1.4-1.6-3-3.5-3.4c-2-1.8-3.7-4-5.9-5.2
			c-4-2.2-3.1-4.8-1.3-7.7c14.8-6.9,22.2-2.9,25.3,13.3c0.5,2.7,1,5.4,0.3,7.9c-1.1,3.5,0,6.1,3.4,6.7c4.5,0.8,3.9-3.2,4.5-5.8
			c0.2-0.7,0.2-1.5,0.1-2.2c-0.2-3.9,1.5-6,5.5-5.9c4.3,0.1,7,2,7.2,6.5c0.2,5.3-1.6,10-5.4,13.8c-3.7,3.7-8.2,6-12.7,8.5
			c-2.8,1.5-5.6,3-6.5,6.5c-1.1,4.5,5.1,20.6,9,23.2c1.5,1,3,1.8,4.7,0.6c2.1-1.5,1.4-3.4,0.5-5.2c-1.5-3.3-3.1-6.6-4.7-9.9
			c-2.9-5.8-1.4-9.5,4.8-12c6.6-2.6,12.4-6.7,16.3-12.9c3.7,0.4,4.7,2.7,4.7,6.1c0.1,6.6-1.1,13.1-1.3,19.6
			c-0.8,25.5-3.3,50.9-7.3,76.1c-0.8,4.8-2.7,5.4-6.6,5.3c-13.9-0.1-27.8-0.1-41.8,0c-2.6,0-5.4-0.8-7.7,1.3
			c-24.1-0.9-48.1,1.8-72.2,1.5c-5.9-0.1-8.6,2.6-8.3,8.4c0.1,1.9-0.1,3.9,0,5.8c0.3,4.3-0.2,7.3-5.9,7.9c-4.8,0.5-6.4,4.1-3.6,8.7
			c0.3,0.8,0.6,1.6,0.9,2.4c-0.5,4-3.2,4.7-6.7,4.8c-6.3,0.2-12.5-0.4-18.6-1.4c-3.3-0.8-2.9-3.4-2.9-5.8c0.1-5.1,0.4-10.2,0.5-15.3
			c0-2.9,0.1-6.5-3.9-6.5c-3.4,0-3.6,3.3-3.8,6c-0.3,4.4-0.4,8.7-1.1,13c-1.1,6.6-11.6,11.6-17.3,8.2c-3.6-2.1-0.2-3.9,0.6-5.8
			c3.1-0.8,3.4-3.1,3.3-5.7c1-2.4,2.5-4.8-0.3-7.1c-2.7-2.1-4.9-0.6-7.1,0.9c-1.4,1-2.7,2-4,3c0-0.7-0.1-1.5-0.1-2.2
			c-0.5-17-1.5-17.5-18.8-16.2c-36.1,2.6-72.2,1.2-108.2,0.7c-4.7-0.1-5.6-3.1-6.5-6.4c-3.2-11.6-4.6-23.4-5.7-35.3
			C70.4,286,75,243.7,93.6,203.7c5.7-12.3,13.4-23.8,23.7-33.1c2.5-2.3,4.7-2.7,7.8-1.8c10.6,3,21.5,4.1,32.6,3.4
			C161.8,171.9,165.9,171.7,169.6,169.5z M315.7,207.7c-5.1-2.1-10.3-0.6-15.4-0.4c-2.4,0.1-4.3,2.5-2.8,5.4c1.5,2.8,4,4.4,7.2,3
			c2.4-1.1,4.5-2.7,7.3-2.6c1.7,0.6,3.5,1.8,5-0.3C318.3,210.7,316.6,209.3,315.7,207.7z M301.3,195.9c-2.3,0.9-4.5,1.4-7,0.3
			c-2.4-1.1-4.2,0.7-5.4,2.6c-1,1.5-0.2,2.8,0.9,3.9c1.5,1.4,2.8,3.8,5.5,2.5c2.7-1.3,5.3-2.3,8.4-2.2c2.1,0.1,3.9-0.7,4.5-2.9
			c0.5-1.8,0.4-3.6-1.2-4.7C305.1,193.9,303,193.4,301.3,195.9L301.3,195.9z M170.5,244.4c2.9,9.5,4.7,19.2,5.1,29.2
			c0.5,13.1,0.5,26.4,4.9,39c4.4,12.7,13.8,18.8,26.5,21c14.4,2.4,25.3-1.5,32-15.3c5.3-11,7.1-22.7,9.2-34.4
			c2.9-15.8,6-31.6,13.7-46c1.5-2.8,2.6-6.4,7.5-5.4c3.7,0.8,3.7-1.8,3.1-4.6c-1.6-6.7-10.2-11.6-19.2-10.6c1.2,2.2,6.7,3.5,2.5,6.7
			c-11.4,8.7-21.3,19.4-33.8,26.7c-9.1,5.4-18.1,4.8-27.2,0.4c-2.6-1.3-5.1-2.8-7.7-4.2c-2.7-2.5-5.5-4.7-9.1-5.8
			c-0.9-0.9-1.9-1.9-2.8-2.8c-0.2-3.1-2.2-5.4-4-7.6c-1.7-2-4.6-2.3-6.7-0.8c-2.3,1.7,0.2,3.4,1,4.9
			C167.1,238,168.9,241.2,170.5,244.4z M236.7,179.4c0,8.9,1.9,12.3,7,13.4c5.7,1.2,12.2-2.3,14.7-8.2c1.9-4.5,2.8-9.2,2.8-14.2
			c0-4.8-1.7-8.6-6.4-10.4c-4.6-1.7-8.6-0.3-12,2.9C238,167.7,236.4,173.7,236.7,179.4z M192.8,180.2c0,7.7,2.2,11.6,7.1,12.6
			c5.8,1.2,12.3-2.2,14.8-8.1c2-4.9,3-10.2,2.6-15.6c-0.3-4.2-2-7.4-6.2-9c-4-1.5-7.7-0.8-10.9,1.9
			C194.7,166.8,192.7,173.1,192.8,180.2z M172.3,205c-2,0.3-2.9,1.7-2.9,3.5c0.1,2.3,1.6,3.5,3.8,3.5c2,0,3.2-1.4,3-3.3
			C176,206.5,174.5,205.3,172.3,205z M163.3,214.8c-1.1,0.2-2.6,0.6-2.5,2.5c0.1,2.3,1.7,3.4,3.8,3.6c1.6,0.1,3-0.7,2.9-2.4
			C167.4,216.2,165.8,215.1,163.3,214.8z M321.9,197.3c-1.6,0.3-2.7,1.3-2.5,3c0.2,2.1,1.4,3.8,3.8,3.6c1.6-0.2,2.3-1.8,2.2-3.3
			C325.1,198.7,324.1,197.4,321.9,197.3z M146.1,207.2c0-1.9-0.8-3.4-2.8-3.6c-2.1-0.2-3.1,1.4-3,3.2c0.1,1.9,1.4,3.1,3.3,3.2
			C145.4,210.1,146,208.8,146.1,207.2z M162.6,201.4c-1.8,0-3,0.9-3.1,2.4c-0.2,1.9,1,3.2,2.9,3.4c1.9,0.2,3.4-0.7,3.4-2.7
			C165.8,202.5,164.1,201.8,162.6,201.4z M174.3,193.5c-0.4-1.8-1.6-3-3.4-3c-1.7-0.1-2.7,1-2.4,2.7c0.2,1.5,1.3,2.5,2.9,2.7
			C173,196,174.1,195.4,174.3,193.5z M155.4,190.7c-1.7,0.2-2.6,1.2-2.5,2.8c0.2,1.8,1.4,3,3.3,3c1.5-0.1,2.9-0.9,2.6-2.6
			C158.6,192.1,157.2,191.1,155.4,190.7z"/>
		<path class="st3" d="M311,242.5c4.9-10.2,12.7-18.2,20-26.5c9.1-10.4,18.2-20.8,27.4-31.1c1.9-2.1,3.8-4.4,6.7-5.5
			c2.9,0,2.6,1.9,2.1,3.8c-9.9,11.4-6.6,18.7,13.4,29.4c-1.9,1.3-4,1.6-6.2,1.7c-4-3.3-7.9-2-11.2,0.7c-3.8,3-2.1,7-0.9,11
			c-8.5,0.4-16.6,2-23.2,7.6c-2.1,1.8-2.7-0.1-3.9-1.2c-5.2-4.6-13.1-2.3-14.8,4.4c-1.3,5.3,2.4,6.7,6.6,7.5c1.7,0.3,4.1-0.8,4.8,2
			c0.7,2.7-1,3.8-2.9,5.2c-3.1,2.3-5.8,5-8.7,7.5c0-5.5,6.2-6.7,8.2-11.2c-3-1.1-6.5-1.6-7.7-4.1C317.8,237.5,314.6,239.7,311,242.5
			z M342.6,227.6c3.8-0.6,8.1-1.2,7.7-6c-0.3-3.3-1.6-7.5-6.1-8c-4.2-0.5-11.3,5.1-10.7,8.2C334.6,226.6,338.7,227,342.6,227.6z
			 M355.4,213.2c2.9-0.4,7.2-1.4,7-6.3c-0.1-3.6-2.2-7.4-6.8-7c-4.8,0.4-7.4,3.7-7.7,8.4C347.6,212.6,350.6,213.4,355.4,213.2z"/>
		<path class="st4" d="M329.4,453.2c-16.7-0.6-17.8-2.5-10.6-15.7c1.7-3.2,3.7-6.3,5.6-9.4c4.4-7.2,7.2-8.1,14.2-3.7
			c4.1,2.6,7.5,6.3,10.1,10.4c3.2,5.3,0.1,12.8-6.5,15.5C337.6,452.3,332.8,453.1,329.4,453.2z"/>
		<path class="st5" d="M423.8,257c-3.9,6.2-9.6,10.3-16.3,12.9c-6.2,2.4-7.6,6.2-4.8,12c1.6,3.3,3.2,6.6,4.7,9.9
			c0.9,1.8,1.5,3.7-0.5,5.2c-1.7,1.2-3.2,0.3-4.7-0.6c-3.9-2.6-10.1-18.7-9-23.2c0.9-3.5,3.7-5,6.5-6.5c4.5-2.4,9-4.7,12.7-8.5
			c3.8-3.9,5.6-8.5,5.4-13.8c-0.1-4.5-2.9-6.4-7.2-6.5c-4.1-0.1-5.7,2-5.5,5.9c0,0.7,0,1.5-0.1,2.2c-0.6,2.6,0,6.6-4.5,5.8
			c-3.5-0.6-4.5-3.1-3.4-6.7c0.8-2.6,0.3-5.3-0.3-7.9c-3.1-16.2-10.5-20.2-25.3-13.3c3-5.6,7.4-7.1,13.4-5.3
			c8.3,2.5,14,8.4,14.3,15.5c0.2,4.5,0,9,0,13.9c3.9-1,4.1-3.2,4.3-5.3c0.5-6.6,4.2-8.2,10-6.7c2.6,0.7,5.4,2,6.2-2.2
			C426.6,240.5,426.1,248.6,423.8,257z"/>
		<path class="st6" d="M169,449.8c-5.8-0.2-11.7,0.2-16.3-4.4c-4.9-4.8-5.3-9.3-1-14.7c10.5-13.2,16.2-12.5,22.6,2.9
			c1.2,2.9,2.5,5.8,3.6,8.7c2.6,7.5,2.4,7.8-5.3,7.5C171.4,449.7,170.2,449.8,169,449.8z"/>
		<path class="st7" d="M245.8,412.7c14.3,7,20.5,19.2,25.3,32.5c1.1,3.1,0,4.1-3.1,3.3c-5.9-1.4-11.9-2.7-17.8-4.1
			c-2.5-0.6-4.3-2.1-4.6-5C244.7,430.7,243.3,422,245.8,412.7z"/>
		<path class="st8" d="M65.1,300.9c0.5,7.3,1,14.5,1.4,21.8c0.1,2.1,0.8,4.7-1.7,5.8c-2.3,1.1-4.2-0.6-6-1.7
			c-8.6-5.3-11.5-13.1-8.8-23.2c1.9-7,6.1-12.6,10.3-18.3c0.9-1.2,2-2.4,3.6-1.9c2.2,0.6,1.8,2.6,1.8,4.2c0.1,4.4,0,8.7,0,13.1
			C65.5,300.9,65.3,300.9,65.1,300.9z"/>
		<path class="st9" d="M410,197c2.7,4,5.7,7.8,8.1,12c4.2,7.3-3.8,21.5-12.4,22.6c-1.4,0.2-2.5,0.1-3.1-1.1
			c-2.9-6.5-8.9-10.8-12.1-17c6.1,0.7,9.5-3.1,12.5-7.6c2.9-1.5,2.1-4.2,1.9-6.5C404.6,193.6,407.5,195.9,410,197z"/>
		<path class="st10" d="M423.8,257c2.3-8.4,2.7-16.5-4-23.3c0.3-5.4,5.4-8.5,6.1-15.1c3.4,5.9,3.6,11,3.8,15.9
			c1.4,40.8-1,81.4-7,121.8c-1,6.7-1.4,12.1-11.2,10c-7.5-1.6-15.5-0.4-23.3-0.5c-8.1-0.1-16.1-0.2-24.2-0.3
			c2.3-2.1,5.1-1.3,7.7-1.3c13.9-0.1,27.8-0.1,41.8,0c3.9,0,5.8-0.6,6.6-5.3c4-25.2,6.5-50.6,7.3-76.1c0.2-6.5,1.4-13,1.3-19.6
			C428.5,259.8,427.5,257.4,423.8,257z"/>
		<path class="st11" d="M381.7,207.5c1,0.4,2,0.9,3,1.3c-2.4,3.6-3.4,10-10.2,5.4c2.2-0.1,4.3-0.4,6.2-1.7
			c-20-10.6-23.3-18-13.4-29.4c8-5.6,16.3-6.5,24,0c6.9,5.8,15.2,11.3,12,22.6c-3,4.5-6.4,8.3-12.5,7.6c0.1-3.1-3-2.8-4.5-4.2
			c1.9,0,3.9,0.3,5.8-0.1c6.4-1.3,8.9-7.9,5.2-13.2c-3.4-4.8-7.5-8.9-13.1-11.1c-8.5-3.4-15.3,0.4-17.3,9.3c-0.7-0.5-1.5-1-2.2-1.5
			c-0.1,0.9-0.6,2.1-0.2,2.7c4.1,6,9.6,10.2,16.3,13C380.8,208.5,381.3,207.8,381.7,207.5z"/>
		<path class="st12" d="M236.9,426.9c0,1.2,0,2.4,0,3.7c0.4,11-4.1,15.5-15.4,16.2c-2.8,0.2-2.9-1-2.6-2.8
			c2-10.7,5.9-20.6,13.6-28.6c0.8-0.8,1.8-1.8,3.1-1.1c1.4,0.7,1.1,2.1,1.1,3.2C236.9,420.6,236.9,423.8,236.9,426.9
			C236.9,426.9,236.9,426.9,236.9,426.9z"/>
		<path class="st13" d="M311,242.5c3.6-2.8,6.8-5,9.7,1.1c1.2,2.5,4.7,3,7.7,4.1c-1.9,4.6-8.1,5.7-8.2,11.2c0.3,2.5-1,5.3,1.2,7.5
			c-1.3,1.4-3,1-4.6,1.3c-4-5.1-8.2-10.1-8.3-17.1C308.6,247.7,308.9,244.8,311,242.5z"/>
		<path class="st14" d="M364,365.5c8.1,0.1,16.1,0.2,24.2,0.3c-3.2,1.5-6.7,1-10,1.1c-27.4,0.7-54.9,1.3-82.4,1.9
			c-9.8,0.2-10.8,1.1-10.6,11c0,2.7,0.2,5.3,0.4,8c0.2,2.7-0.2,4.4-3.5,3.4c-6.3-2.1-7.6,1.8-8,6.8c-2.9-4.6-1.2-8.2,3.6-8.7
			c5.6-0.6,6.1-3.6,5.9-7.9c-0.1-1.9,0-3.9,0-5.8c-0.2-5.8,2.5-8.5,8.3-8.4C315.9,367.4,339.9,364.6,364,365.5z"/>
		<path class="st15" d="M403.2,205.8c3.2-11.3-5.1-16.8-12-22.6c-7.7-6.5-16-5.6-24,0c0.4-1.9,0.8-3.8-2.1-3.8
			c18.2-7.7,33.7-1.7,44.9,17.6c-2.5-1-5.5-3.3-5,2.4C405.3,201.6,406.1,204.4,403.2,205.8z"/>
		<path class="st16" d="M340.6,242.6c-0.9,4.6,1.1,6.1,5.5,5.6c7.5-0.8,14.3,1.5,20.8,5.1c1.9,1,4.7,1.9,3.4,4.6
			c-0.9,2-3.6,1.4-5.2,0.3c-9-5.7-18.9-5-28.8-3.9c2-1.7,5.2-2.6,3.1-6.5C338.6,246.2,338.7,244,340.6,242.6z"/>
		<path class="st17" d="M316.9,267.7c1.6-0.3,3.3,0.1,4.6-1.3c11.4,12.3,11.4,12.3,31.2,17.9C344.2,289.1,329.7,282.4,316.9,267.7z"
			/>
		<path class="st18" d="M225,392c0.1,2.6-0.2,4.9-3.3,5.7c-0.4-2.5-1.4-1-2.2-0.3c-1.3,1-2.7,2.6-4.3,1.2c-1.4-1.3-0.6-3.2-0.2-4.8
			C218,391.6,220,382.9,225,392z"/>
		<path class="st19" d="M370.1,296.7c1.9,2.2,1.3,5.1,2.1,7.6c0.5,1.6,2,4.1-0.7,5c-2.8,1-4.7-1-5.4-3.5c-1.5-5.3-3.8-10.5-3.5-16.3
			c3.1,4.1,2.4,9.8,5.8,14.1C370.9,301.4,369.4,298.8,370.1,296.7z"/>
		<path class="st14" d="M280.3,393.3c3.1,0.6,5.7,1.7,6,5.2c0.2,2.6-1.6,4.3-4,3.8c-3.3-0.7-5.2-3.5-5.7-6.7
			C276.3,393.4,278.7,393.5,280.3,393.3z"/>
		<path class="st20" d="M225,392c-5-9.1-7-0.4-10.1,1.7c-0.5-1.6-0.9-3.2-1.4-4.9c1.3-1,2.6-2,4-3c2.2-1.6,4.4-3.1,7.1-0.9
			C227.5,387.2,226,389.6,225,392z"/>
		<path class="st21" d="M378.8,236.8c1.9,0.3,2.7,2,3.5,3.4c0.9,1.6,1.1,3.4-0.6,4.6c-1.4,1-2.9,0.1-3.9-0.9
			c-3.3-3.2-6.5-6.6-9.7-9.9c3.8-0.5,5.2,2.7,7.4,4.7C379,241.8,378.7,239,378.8,236.8z"/>
		<path class="st14" d="M249.6,403.8c6.2,1,12.3,1.6,18.6,1.4c3.5-0.1,6.2-0.8,6.7-4.8c3.4,2.4,3.8,5.4-0.6,5.8
			C266.1,407,257.4,409.1,249.6,403.8z"/>
		<path class="st22" d="M454.5,161.4c-2.2-0.2-3.5-1.5-3.7-3.6c-0.2-2.1,1.3-3,3.1-3.2c2.4-0.2,3.6,1.2,3.7,3.4
			C457.7,159.9,456.4,161,454.5,161.4z"/>
		<path class="st23" d="M332.8,237.2c-0.8,2.3-2.4,3.3-4.5,3.2c-1.5-0.1-3-0.9-2.9-2.7c0.1-2.3,1.8-3.4,3.9-3.4
			C331.1,234.3,332.5,235.3,332.8,237.2z"/>
		<path class="st19" d="M364.2,282.1c7.6,2.6,4,9.8,6,14.6C365.9,292.7,368.3,286.1,364.2,282.1z"/>
		<path class="st24" d="M386.2,161.1c-0.9,2.6-2.7,4.3-5.3,5.3c-5.9,0.7-11.8,1.6-17.8,1.5c-5-0.1-10.1-1-15,0.8
			c-26.4,0.9-50.4-6.7-72.8-20.2c-14.3-8.6-24-21.1-30.4-36.4c-2.2-5.3-0.8-8.3,4.5-9.9c37.5-11.3,74.6-9.8,110.9,4.7
			c13.1,5.2,22.4,15.3,28.8,27.9c1.6,5.2,0.8,10.2-0.7,15.3C387.4,153.6,385.8,157.2,386.2,161.1z"/>
		<path class="st24" d="M226.5,115.7c-15.2,22-34.7,39.6-60.1,47.9c-21.5,7-42.4,1.3-60.7-12.4c-7.4-5.6-7.6-6-1-12.7
			c13.6-13.9,29-25.1,48.5-29.3c2-0.4,3.8-1.8,5.7-2.7c3.6,1.4,6.9-0.2,10.3-0.9c15.5-3.2,31-5,46.8-2.1
			C226.9,105.3,228.3,106.7,226.5,115.7z"/>
		<path class="st25" d="M399.2,145.2c4.7-5.9,10.8-7,17.6-4.9c5.6,1.7,8,6,8.4,11.5c0.6,8.1-0.7,15.6-8,20.6
			c-9,6.1-12.9,5.2-18.1-3.8C398.1,160.8,396.7,153,399.2,145.2z"/>
		<path class="st26" d="M95.7,159.1c-0.2,8.1-7.1,14.9-15,14.6c-7.2-0.3-13.7-7-13.4-13.7c0.3-7,7.3-12.8,15.1-12.7
			C91.2,147.4,95.9,151.6,95.7,159.1z"/>
		<path class="st27" d="M226.5,115.7c1.8-9,0.4-10.3-10.3-12.3c-15.8-2.9-31.3-1.1-46.8,2.1c-3.4,0.7-6.7,2.3-10.3,0.9
			c21-6.1,42-9.6,63.6-3.1C232.7,106.4,232.9,107.1,226.5,115.7z"/>
		<path class="st28" d="M348.1,168.7c4.9-1.8,10-0.9,15-0.8c6,0.1,11.9-0.8,17.8-1.5c-3.4,3.4-7.7,3.5-12,3.3
			C362,169.5,355.1,169.1,348.1,168.7z"/>
		<path class="st29" d="M399.2,145.2c-2.5,7.8-1.2,15.6-0.1,23.4C394.9,160.8,392.3,153,399.2,145.2z"/>
		<path class="st30" d="M386.2,161.1c-0.4-3.9,1.2-7.5,2.3-11.1c1.5-5.1,2.3-10.1,0.7-15.3c5,4.5,2.4,9.9,1.4,14.9
			C389.7,153.7,388.9,157.8,386.2,161.1z"/>
		<path class="st31" d="M175.3,238.2c0.9,0.9,1.9,1.9,2.8,2.8c2.1,3.4,4.4,6.5,9.1,5.8c2.6,1.4,5.1,2.9,7.7,4.2
			c9.1,4.4,18.1,5,27.2-0.4c12.5-7.4,22.4-18,33.8-26.7c4.2-3.2-1.3-4.5-2.5-6.7c8.9-1,17.6,3.9,19.2,10.6c0.7,2.8,0.6,5.4-3.1,4.6
			c-4.9-1-6,2.6-7.5,5.4c-7.7,14.4-10.8,30.2-13.7,46c-2.2,11.7-3.9,23.5-9.2,34.4c-6.7,13.9-17.6,17.8-32,15.3
			c-12.7-2.2-22.1-8.3-26.5-21c-4.4-12.7-4.5-25.9-4.9-39c-0.4-10.1-2.2-19.7-5.1-29.2c0.2-2.2,0.5-4.3-0.8-6.3
			c-1-1.5-3.2-3.5-0.7-4.8c2.3-1.2,2.7,2,4,3.2C173.6,237.1,174.5,237.6,175.3,238.2z"/>
		<path class="st32" d="M236.7,179.4c-0.3-5.8,1.3-11.7,6.2-16.4c3.4-3.2,7.4-4.6,12-2.9c4.7,1.8,6.4,5.5,6.4,10.4
			c0,4.9-1,9.7-2.8,14.2c-2.5,6-9,9.4-14.7,8.2C238.5,191.7,236.6,188.4,236.7,179.4z"/>
		<path class="st33" d="M192.8,180.2c0-7.1,1.9-13.4,7.5-18.2c3.2-2.7,6.9-3.4,10.9-1.9c4.2,1.5,5.9,4.8,6.2,9
			c0.4,5.4-0.6,10.7-2.6,15.6c-2.5,6-9,9.3-14.8,8.1C195,191.8,192.8,188,192.8,180.2z"/>
		<path class="st34" d="M301.3,195.9c1.7-2.5,3.7-2,5.7-0.5c1.5,1.1,1.7,2.9,1.2,4.7c-0.6,2.2-2.4,3.1-4.5,2.9
			c-3.1-0.2-5.7,0.9-8.4,2.2c-2.7,1.3-3.9-1.1-5.5-2.5c-1.1-1-2-2.3-0.9-3.9c1.3-1.9,3-3.7,5.4-2.6
			C296.8,197.3,299,196.8,301.3,195.9c-0.1,2.2-1.3,5,2.3,5.6c1.6,0.3,2.9-0.9,2.8-2.5C306.4,195.5,303.8,195.8,301.3,195.9z
			 M293.4,202.9c1.6,0,2.6-0.8,2.6-2.1c0-1.6-1.2-2.7-2.8-2.9c-1.4-0.2-2.3,0.8-2.4,2.1C290.8,201.7,292,202.6,293.4,202.9z"/>
		<path class="st34" d="M311.9,213c-2.8-0.1-4.9,1.5-7.3,2.6c-3.1,1.5-5.7-0.1-7.2-3c-1.5-2.9,0.5-5.3,2.8-5.4
			c5.1-0.2,10.3-1.8,15.4,0.4C312,207.8,310.8,209.6,311.9,213z M305.2,211c-0.8-1.2-1.7-2.6-3.8-2.1c-1.4,0.3-2.1,1.3-1.7,2.7
			c0.4,1.9,1.6,3,3.6,2.5C304.5,213.8,305.3,212.8,305.2,211z"/>
		<path class="st35" d="M175.3,238.2c-0.8-0.6-1.6-1-2.3-1.7c-1.3-1.3-1.7-4.5-4-3.2c-2.4,1.3-0.2,3.3,0.7,4.8c1.3,2,1,4.2,0.8,6.3
			c-1.7-3.2-3.4-6.4-5-9.7c-0.7-1.6-3.3-3.3-1-4.9c2-1.5,4.9-1.3,6.7,0.8C173.1,232.7,175,235.1,175.3,238.2z"/>
		<path class="st36" d="M172.3,205c2.2,0.3,3.7,1.6,3.9,3.7c0.2,1.9-1,3.3-3,3.3c-2.2,0-3.7-1.2-3.8-3.5
			C169.4,206.6,170.3,205.2,172.3,205z"/>
		<path class="st37" d="M163.3,214.8c2.5,0.3,4.1,1.4,4.2,3.6c0.1,1.7-1.3,2.6-2.9,2.4c-2.1-0.2-3.7-1.3-3.8-3.6
			C160.7,215.4,162.2,215,163.3,214.8z"/>
		<path class="st38" d="M321.9,197.3c2.1,0.1,3.2,1.4,3.4,3.2c0.2,1.5-0.5,3.1-2.2,3.3c-2.4,0.3-3.5-1.5-3.8-3.6
			C319.2,198.6,320.3,197.6,321.9,197.3z"/>
		<path class="st39" d="M146.1,207.2c-0.1,1.6-0.7,2.9-2.5,2.9c-1.9-0.1-3.2-1.3-3.3-3.2c-0.1-1.9,0.9-3.4,3-3.2
			C145.3,203.8,146.1,205.3,146.1,207.2z"/>
		<path class="st40" d="M162.6,201.4c1.6,0.4,3.2,1.1,3.2,3.1c-0.1,2-1.5,2.9-3.4,2.7c-1.9-0.2-3.1-1.5-2.9-3.4
			C159.6,202.3,160.8,201.4,162.6,201.4z"/>
		<path class="st41" d="M311.9,213c-1.1-3.4,0.1-5.3,3.8-5.3c0.9,1.6,2.6,3,1.2,5C315.4,214.8,313.6,213.7,311.9,213z"/>
		<path class="st42" d="M174.3,193.5c-0.2,1.8-1.3,2.5-2.9,2.4c-1.6-0.1-2.7-1.2-2.9-2.7c-0.3-1.7,0.7-2.8,2.4-2.7
			C172.7,190.5,173.9,191.7,174.3,193.5z"/>
		<path class="st43" d="M155.4,190.7c1.7,0.4,3.1,1.4,3.4,3.1c0.3,1.7-1.1,2.6-2.6,2.6c-1.9,0.1-3.1-1.1-3.3-3
			C152.8,191.9,153.7,190.8,155.4,190.7z"/>
		<path class="st35" d="M187.1,246.8c-4.7,0.7-7-2.4-9.1-5.8C181.6,242.1,184.5,244.3,187.1,246.8z"/>
		<path class="st44" d="M342.6,227.6c-3.9-0.5-8-1-9-5.8c-0.7-3.1,6.5-8.7,10.7-8.2c4.5,0.5,5.8,4.7,6.1,8
			C350.7,226.4,346.4,227,342.6,227.6z M345.3,222.1c-0.4-1.9-1.6-2.9-3.4-3.2c-1.7-0.3-2.9,0.4-2.7,2.3c0.2,2,1.8,2.8,3.6,2.8
			C343.8,224,345.1,223.7,345.3,222.1z"/>
		<path class="st45" d="M355.4,213.2c-4.7,0.2-7.8-0.6-7.5-5c0.3-4.6,2.9-8,7.7-8.4c4.6-0.4,6.7,3.4,6.8,7
			C362.5,211.8,358.3,212.8,355.4,213.2z M357.8,206.9c-0.9-0.6-2-1.4-3.2-2c-1.4-0.6-2.5,0.3-2.6,1.6c-0.2,2,0.9,3.2,3,2.9
			C356.2,209.3,357.4,208.9,357.8,206.9z"/>
		<path class="st0" d="M381.7,207.5c-0.4,0.3-0.9,1-1.1,0.9c-6.7-2.8-12.2-7-16.3-13c-0.4-0.6,0.1-1.8,0.2-2.7
			c0.7,0.5,1.5,1,2.2,1.5C371.1,199.4,376.3,203.6,381.7,207.5z"/>
		<path class="st46" d="M301.3,195.9c2.4-0.2,5.1-0.4,5.2,3.1c0,1.6-1.2,2.7-2.8,2.5C300,200.9,301.2,198.1,301.3,195.9
			C301.3,195.9,301.3,195.9,301.3,195.9z"/>
		<path class="st47" d="M293.4,202.9c-1.4-0.4-2.6-1.2-2.6-2.9c0-1.4,1-2.3,2.4-2.1c1.6,0.2,2.7,1.3,2.8,2.9
			C296,202.1,295,203,293.4,202.9z"/>
		<path class="st48" d="M305.2,211c0.1,1.8-0.6,2.7-1.9,3c-2,0.5-3.2-0.6-3.6-2.5c-0.3-1.4,0.4-2.4,1.7-2.7
			C303.4,208.5,304.4,209.9,305.2,211z"/>
		<path class="st49" d="M357.8,206.9c-0.4,2.1-1.5,2.4-2.7,2.5c-2.1,0.3-3.2-1-3-2.9c0.1-1.3,1.2-2.2,2.6-1.6
			C355.8,205.5,356.9,206.3,357.8,206.9z"/>
	</g>
</g>
</svg>
