<svg width="512" height="512" viewBox="0 0 512 512" fill="none" xmlns="http://www.w3.org/2000/svg">
<path d="M226.371 112.457C272.758 116.75 312.989 134.133 342.136 172.074C370.837 209.435 377.968 252.661 375.036 298.624C379.091 288.117 383.274 277.657 387.153 267.085C389.521 260.631 392.861 256.929 400.661 258.148C406.455 259.053 412.506 258.295 418.397 259.371C424.056 260.404 425.743 262.331 422.54 268.213C402.765 304.526 385.754 342.107 371.683 381.018C370.057 385.514 370.581 387.956 374.356 391.098C397.975 410.758 418.887 433.22 439.893 455.558C442.951 458.81 445.155 462.853 447.863 466.447C450.734 470.258 448.733 472.491 445.435 474.252C441.766 476.211 437.731 476.499 433.66 476.536C428.431 476.584 422.902 475.609 418.041 476.981C409.575 479.371 404.819 475.368 400.037 469.596C391.096 458.802 381.959 448.168 372.739 437.61C368.824 433.127 364.064 429.543 359.209 426.073C355.876 423.691 354.148 424.538 353.096 428.13C350.694 436.328 348.343 444.542 345.887 452.723C344.728 456.582 343.584 460.467 342.069 464.193C336.974 476.726 333.289 478.727 320.331 475.717C315.776 474.659 311.411 475.063 306.92 475.721C303.819 476.175 300.624 476.086 298.489 473.216C296.391 470.395 299.044 468.309 300.022 466.14C305.187 454.681 311.189 443.617 315.86 431.912C317.527 427.734 316.619 426.445 312.334 426.438C298.073 426.414 283.81 426.378 269.554 426.072C265.851 425.992 264.603 428.206 263.35 430.799C259.888 437.956 258.923 445.792 257.309 453.445C256.034 459.493 254.874 465.586 251.811 471.044C247.883 478.045 241.88 480.474 235.067 476.38C219.609 467.092 203.875 457.658 191.351 444.768C184.206 437.415 183.107 425.327 180.429 415.334C177.997 406.257 191.687 398.284 202.602 401.026C206.509 402.007 210.265 403.596 214.179 404.536C216.752 405.154 219.994 405.095 221.26 402.584C222.471 400.184 219.849 398.318 218.183 396.719C214.932 393.598 211.267 390.876 208.236 387.564C192.417 370.277 187.049 349.8 190.53 326.696C187.229 326.068 185.469 328.383 183.38 329.588C166.412 339.375 148.604 346.485 128.598 344.335C96.142 340.848 73.925 319.605 68.964 286.77C62.41 243.388 76.108 205.723 103.221 172.286C114.357 158.552 127.347 146.715 141.621 136.312C145.077 133.793 148.004 132.029 142.159 128.655C138.297 126.426 139.998 124.012 143.379 122.666C144.216 122.333 145.257 122.497 146.206 122.461C157.944 122.011 157.928 122.01 159.973 110.256C161.292 102.675 163.565 95.4729 168.793 89.5649C178.383 78.7279 191.434 78.0439 201.995 87.7989C206.102 91.5929 209.27 96.1229 210.47 101.558C211.746 107.341 213.914 108.01 218.211 104.119C219.562 102.895 221.458 102.138 223.232 101.55C225.438 100.819 227.488 101.57 229.028 103.297C231.075 105.594 229.241 107.171 227.842 108.779C227.08 109.654 226.032 110.367 226.371 112.457ZM331.323 393.425C328.742 395.095 325.853 396.432 323.923 399.67C328.535 400.21 332.205 400.424 333.036 395.213C334.523 393.582 336.3 392.058 335.255 388.804C333.706 390.625 332.514 392.025 331.323 393.425ZM261.51 305.038C262.781 312.682 260.505 318.861 257.088 324.668C246.767 342.21 225.754 352.426 205.585 349.37C200.494 348.599 199.489 349.402 200.815 354.476C203.653 365.332 208.658 374.798 216.717 382.63C224.321 390.019 233.292 395.304 242.933 399.494C245.93 400.796 247.679 401.752 245.477 405.543C240.439 414.216 237.409 423.806 234.993 433.451C233.27 440.332 230.639 439.159 226.531 435.866C222.283 432.46 218.497 428.364 213.381 426.177C207.735 423.764 201.64 423.358 197.597 428.29C193.428 433.377 198.221 437.629 201.341 441.278C210.478 451.963 222.53 458.598 234.69 465.238C240.249 468.273 242.513 467.35 244.176 461.67C247.911 448.918 251.526 436.117 255.779 423.535C262.537 403.54 269.384 398.251 290.541 399.635C306.05 400.649 317.621 394.902 327.92 384.342C334.456 377.64 339.999 370.281 344.187 361.952C360.16 330.183 365.712 296.306 364.385 261.058C361.743 190.893 311.385 133.251 242.199 121.362C226.116 118.598 210.122 117.185 194.959 125.713C191.024 127.926 186.32 128.321 181.8 128.49C165.809 129.091 152.667 136.217 140.696 146.136C121.648 161.919 105.314 180.226 93.71 202.012C77.802 231.877 73.341 263.673 83.161 296.518C88.898 315.707 100.985 329.7 121.237 334.223C144.499 339.417 165.686 334.551 183.367 317.97C195.712 306.393 204.142 292.124 209.981 276.312C211.638 271.824 213.109 267.224 217.29 264.4C218.99 263.251 221.226 261.728 223.194 263.024C225.034 264.234 223.767 266.54 223.472 268.335C221.782 278.624 216.675 287.496 211.74 296.442C205.623 307.529 200.558 318.893 199.752 331.88C199.417 337.277 201.295 339.503 206.243 340.791C222.835 345.111 241.147 336.647 248.5 320.975C251.367 314.865 253.153 307.878 261.51 305.038ZM434.687 466.227C426.317 456.498 418.906 447.626 411.216 439.003C398.708 424.98 385.385 411.782 370.205 400.617C368.598 399.435 366.774 395.759 364.059 399.845C358.93 407.565 359.217 411.636 365.747 418.308C367.907 420.515 370.166 422.627 372.292 424.866C384.205 437.411 397.947 448.252 407.515 462.991C409.709 466.37 413.23 467.967 417.357 467.671C422.684 467.287 428.002 466.79 434.687 466.227ZM402.204 266.838C397.744 265.906 395.748 268.363 394.148 272.496C389.269 285.102 384.063 297.585 378.825 310.049C368.714 334.106 358.468 358.107 348.376 382.172C347.696 383.794 345.535 387.231 348.993 387.064C352.601 386.89 357.75 392.584 359.823 386.329C372.774 347.256 391.107 310.466 407.447 272.835C410.12 266.681 406.925 266.452 402.204 266.838ZM321.287 467.523C327.35 469.343 330.889 466.155 333.013 459.276C335.807 450.223 339.655 441.5 342.863 432.568C344.418 428.238 348.797 422.454 338.736 422.69C337.605 422.717 336.07 421.401 335.352 420.298C332.723 416.263 331.465 418.529 330.234 421.229C324.722 433.32 319.191 445.402 313.743 457.522C309.358 467.275 309.406 467.296 321.287 467.523ZM175.279 121.081C180.641 121.382 185.363 119.756 190.114 118.345C202.434 114.687 204.263 110.452 198.608 98.8659C195.627 92.7569 191.2 90.1059 184.212 92.0049C175.524 94.3659 168.992 103.636 168.487 114.106C168.224 119.583 169.596 122.416 175.279 121.081ZM296.471 418.044C296.471 418.036 296.471 418.028 296.471 418.021C304.037 418.021 311.604 417.931 319.168 418.053C324.047 418.132 324.913 414.328 325.737 411.067C326.552 407.84 323.658 407.962 321.565 408.07C306.994 408.82 292.549 411.812 277.795 409.748C274.575 409.298 271.523 413.152 271.545 416.324C271.568 419.699 275.32 417.866 277.323 417.948C283.697 418.209 290.087 418.044 296.471 418.044ZM226.984 425.04C228.832 420.759 230.883 416.75 232.261 412.521C233.003 410.244 236.479 406.946 232.776 405.416C230.01 404.274 228.235 407.967 227.191 410.704C227.022 411.147 226.871 411.597 226.692 412.036C223.239 420.508 222.156 420.862 214.713 415.074C209.692 411.169 204.443 408.337 197.812 408.939C192.49 409.422 189.152 413.286 189.893 418.439C190.295 421.232 191.06 423.075 194.392 420.764C200.612 416.45 207.354 417.22 214.197 419.112C218.76 420.375 222.694 422.941 226.984 425.04ZM335.531 409.699C339.824 409.61 343.119 408.788 346.285 410.042C350.353 411.653 350.994 408.466 352.162 405.947C353.701 402.628 351.556 402.267 349.078 401.364C346.567 400.449 344.422 398.53 341.951 396.945C339.897 401.026 337.91 404.974 335.531 409.699ZM344.929 413.999C344.205 413.763 343.239 413.133 342.334 413.212C339.988 413.417 338.543 414.994 338.233 417.227C337.963 419.171 339.421 419.51 340.93 419.04C343.046 418.381 344.488 416.99 344.929 413.999ZM353.798 394.305C353.708 392.735 352.542 392.579 351.404 392.678C349.838 392.814 348.064 392.881 347.558 394.826C347.189 396.245 348.205 397.101 349.408 397.088C351.326 397.067 352.926 396.176 353.798 394.305Z" fill="#171615"/>
<path d="M261.51 305.038C253.153 307.879 251.368 314.865 248.501 320.975C241.148 336.647 222.836 345.111 206.244 340.791C201.296 339.503 199.419 337.277 199.753 331.88C200.559 318.893 205.624 307.528 211.741 296.442C216.677 287.497 221.783 278.624 223.473 268.335C223.768 266.539 225.035 264.234 223.195 263.024C221.227 261.729 218.991 263.252 217.291 264.4C213.11 267.224 211.639 271.824 209.982 276.312C204.144 292.124 195.714 306.393 183.368 317.97C165.687 334.551 144.5 339.417 121.238 334.223C100.985 329.701 88.899 315.707 83.162 296.518C73.342 263.673 77.803 231.877 93.711 202.012C105.315 180.226 121.649 161.919 140.697 146.136C152.668 136.217 165.809 129.091 181.801 128.49C186.321 128.32 191.025 127.926 194.96 125.713C210.123 117.185 226.117 118.598 242.2 121.362C311.385 133.251 361.744 190.894 364.386 261.058C365.713 296.305 360.161 330.183 344.188 361.952C340 370.281 334.457 377.64 327.921 384.342C317.622 394.902 306.051 400.649 290.542 399.635C269.384 398.251 262.537 403.54 255.78 423.535C251.528 436.117 247.912 448.918 244.177 461.67C242.514 467.35 240.25 468.273 234.691 465.238C222.531 458.599 210.479 451.963 201.342 441.278C198.222 437.63 193.429 433.377 197.598 428.29C201.64 423.357 207.736 423.764 213.382 426.177C218.499 428.363 222.284 432.46 226.532 435.866C230.639 439.159 233.27 440.332 234.994 433.451C237.41 423.806 240.44 414.215 245.478 405.543C247.68 401.752 245.931 400.796 242.934 399.494C233.292 395.304 224.321 390.019 216.718 382.63C208.659 374.798 203.654 365.332 200.816 354.476C199.489 349.402 200.495 348.599 205.586 349.37C225.755 352.426 246.768 342.21 257.089 324.668C260.504 318.861 262.781 312.682 261.51 305.038ZM305.98 320.151C305.898 320.151 305.816 320.151 305.734 320.151C305.734 317.066 305.676 313.979 305.752 310.896C305.818 308.202 304.638 307.071 301.926 307.094C299.464 307.115 297.953 307.789 297.429 310.49C296.555 314.994 290.28 323.465 286.456 325.693C283.517 327.406 281.173 329.722 279.44 332.626C275.684 338.92 276.931 345.068 283.444 348.242C287.161 350.053 287.636 351.723 287.144 355.633C285.589 368 291.562 372.936 302.938 368.731C306.149 367.544 307.564 368.868 309.793 370.216C318.506 375.485 328.504 371.961 331.598 362.452C332.274 360.375 333.078 359.555 335.064 358.737C344.826 354.714 347.903 347.212 346.452 336.34C345.527 329.404 337.262 325.661 338.38 319.6C339.595 313.019 342.867 306.694 342.995 299.699C343.051 296.628 343.298 293.518 342.001 290.573C340.992 288.281 339.695 286.4 336.845 286.406C334.79 286.411 332.915 286.536 333.511 289.482C335.659 300.099 331.235 309.569 328.057 319.193C326.867 322.795 326.866 325.01 330.311 327.514C335.017 330.936 338.174 335.798 338.314 341.955C338.391 345.318 336.78 348.18 333.697 349.354C330.426 350.6 331.303 346.691 329.924 345.418C328.083 343.72 326.098 342.025 323.721 342.936C321.33 343.852 321.81 346.425 322.131 348.585C322.584 351.634 323.244 354.681 323.351 357.745C323.481 361.423 321.883 364.714 317.852 364.52C314.365 364.352 312.711 361.437 313.041 357.829C313.214 355.943 313.714 354.072 313.737 352.19C313.769 349.557 315.196 346.09 311.298 345.051C306.947 343.891 306.366 347.307 305.606 350.408C304.761 353.855 304.053 357.43 301.422 360.082C300.28 361.233 298.947 362.601 297.11 362.028C295.042 361.383 295.533 359.337 295.408 357.802C294.916 351.751 298.72 347.679 302.11 343.374C303.152 342.051 305.701 340.887 304.097 338.702C302.67 336.759 300.342 336.928 298.239 337.785C296.707 338.409 295.316 339.405 293.76 339.936C291.098 340.844 287.731 343.989 285.902 339.66C284.44 336.2 287.108 333.392 290.119 331.536C292.45 330.098 295.366 329.536 297.684 330.447C305.849 333.658 306.483 329.117 305.988 322.999C305.914 322.057 305.98 321.101 305.98 320.151ZM175.102 194.804C179.214 194.63 184.236 193.36 188.768 190.512C196.096 185.907 199.315 177.957 197.339 170.286C196.391 166.605 193.483 165.12 190.579 165.143C187.385 165.168 189.292 168.496 188.813 170.311C188.029 173.278 187.882 176.48 186.713 179.267C182.115 190.226 171.375 191.499 164.22 182.097C163.789 181.53 163.411 180.914 162.928 180.396C161.447 178.807 159.601 176.899 157.494 177.876C154.741 179.153 155.983 182.071 156.46 184.201C157.941 190.813 164.863 194.914 175.102 194.804Z" fill="#F1B4C2"/>
<path d="M434.687 466.227C428.002 466.79 422.683 467.287 417.357 467.67C413.23 467.967 409.709 466.37 407.515 462.99C397.947 448.251 384.205 437.41 372.292 424.865C370.166 422.626 367.907 420.514 365.747 418.307C359.218 411.635 358.931 407.564 364.059 399.844C366.773 395.758 368.597 399.434 370.205 400.616C385.385 411.781 398.708 424.979 411.216 439.002C418.907 447.626 426.317 456.498 434.687 466.227Z" fill="#A36A35"/>
<path d="M402.204 266.838C406.925 266.452 410.119 266.681 407.447 272.835C391.107 310.466 372.774 347.256 359.823 386.329C357.75 392.584 352.601 386.89 348.993 387.064C345.535 387.231 347.696 383.794 348.376 382.172C358.468 358.107 368.714 334.106 378.825 310.049C384.063 297.585 389.269 285.103 394.148 272.496C395.748 268.363 397.744 265.906 402.204 266.838Z" fill="#A46B37"/>
<path d="M321.287 467.523C309.407 467.296 309.358 467.274 313.743 457.522C319.191 445.402 324.722 433.32 330.234 421.229C331.465 418.53 332.723 416.263 335.352 420.298C336.07 421.401 337.605 422.716 338.736 422.69C348.797 422.454 344.418 428.238 342.863 432.568C339.655 441.5 335.808 450.223 333.013 459.276C330.889 466.156 327.35 469.343 321.287 467.523Z" fill="#A36934"/>
<path d="M175.279 121.081C169.596 122.415 168.224 119.582 168.487 114.107C168.992 103.637 175.524 94.3661 184.212 92.0061C191.2 90.1071 195.627 92.7581 198.608 98.8671C204.263 110.453 202.434 114.688 190.114 118.346C185.363 119.756 180.641 121.382 175.279 121.081Z" fill="#155E93"/>
<path d="M296.471 418.044C290.087 418.044 283.697 418.209 277.324 417.947C275.321 417.865 271.569 419.698 271.546 416.323C271.524 413.151 274.577 409.296 277.796 409.747C292.549 411.811 306.994 408.819 321.566 408.069C323.659 407.961 326.553 407.839 325.738 411.066C324.915 414.327 324.048 418.131 319.169 418.052C311.605 417.93 304.038 418.02 296.472 418.02C296.471 418.028 296.471 418.036 296.471 418.044Z" fill="#A36C3A"/>
<path d="M226.984 425.039C222.695 422.94 218.76 420.374 214.197 419.112C207.353 417.219 200.612 416.45 194.392 420.764C191.06 423.075 190.295 421.232 189.893 418.439C189.152 413.286 192.49 409.422 197.812 408.939C204.443 408.337 209.692 411.169 214.713 415.074C222.156 420.862 223.239 420.508 226.692 412.036C226.871 411.597 227.022 411.147 227.191 410.704C228.235 407.967 230.01 404.273 232.776 405.416C236.479 406.945 233.003 410.244 232.261 412.521C230.883 416.749 228.832 420.758 226.984 425.039Z" fill="#E8B7C4"/>
<path d="M335.531 409.699C337.91 404.974 339.897 401.026 341.951 396.945C344.421 398.53 346.567 400.449 349.078 401.364C351.556 402.267 353.701 402.629 352.162 405.947C350.994 408.466 350.353 411.653 346.285 410.042C343.119 408.789 339.824 409.61 335.531 409.699Z" fill="#9C6C3C"/>
<path d="M333.036 395.213C332.465 394.617 331.894 394.021 331.323 393.425C332.514 392.025 333.705 390.625 335.255 388.804C336.3 392.059 334.523 393.582 333.036 395.213Z" fill="#CECDCC"/>
<path d="M305.98 320.151C305.98 321.101 305.914 322.056 305.991 323C306.485 329.118 305.852 333.659 297.687 330.448C295.37 329.537 292.453 330.099 290.122 331.537C287.112 333.393 284.443 336.201 285.905 339.661C287.735 343.99 291.102 340.845 293.763 339.937C295.319 339.406 296.71 338.41 298.242 337.786C300.345 336.929 302.673 336.76 304.1 338.703C305.705 340.889 303.155 342.052 302.113 343.375C298.723 347.68 294.919 351.752 295.411 357.803C295.536 359.337 295.045 361.384 297.113 362.029C298.951 362.602 300.284 361.234 301.425 360.083C304.056 357.431 304.764 353.856 305.609 350.409C306.369 347.308 306.95 343.892 311.301 345.052C315.199 346.092 313.772 349.558 313.74 352.191C313.717 354.073 313.217 355.944 313.044 357.83C312.714 361.438 314.368 364.353 317.855 364.521C321.886 364.715 323.483 361.425 323.354 357.746C323.246 354.682 322.586 351.635 322.134 348.586C321.813 346.426 321.333 343.853 323.724 342.937C326.101 342.026 328.086 343.72 329.927 345.419C331.306 346.691 330.43 350.601 333.7 349.355C336.784 348.18 338.394 345.319 338.317 341.956C338.176 335.799 335.02 330.937 330.314 327.515C326.87 325.011 326.871 322.796 328.06 319.194C331.238 309.571 335.663 300.1 333.514 289.483C332.918 286.537 334.793 286.411 336.848 286.407C339.697 286.4 340.994 288.281 342.004 290.574C343.3 293.518 343.054 296.629 342.998 299.7C342.87 306.695 339.597 313.02 338.383 319.601C337.264 325.662 345.529 329.404 346.455 336.341C347.906 347.214 344.829 354.716 335.067 358.738C333.081 359.556 332.277 360.376 331.601 362.453C328.507 371.962 318.509 375.486 309.796 370.217C307.567 368.869 306.152 367.545 302.941 368.732C291.565 372.937 285.592 368.001 287.147 355.634C287.639 351.724 287.164 350.055 283.447 348.243C276.934 345.069 275.687 338.921 279.443 332.627C281.176 329.723 283.519 327.407 286.459 325.694C290.282 323.466 296.557 314.995 297.432 310.491C297.956 307.79 299.468 307.116 301.929 307.095C304.64 307.072 305.821 308.203 305.755 310.897C305.679 313.98 305.737 317.067 305.737 320.152C305.816 320.151 305.898 320.151 305.98 320.151Z" fill="#191514"/>
<path d="M175.102 194.804C164.862 194.914 157.94 190.813 156.461 184.201C155.984 182.071 154.742 179.153 157.495 177.876C159.602 176.898 161.448 178.807 162.929 180.396C163.412 180.914 163.789 181.53 164.221 182.097C171.376 191.499 182.116 190.226 186.714 179.267C187.883 176.48 188.03 173.278 188.814 170.311C189.294 168.495 187.386 165.168 190.58 165.143C193.484 165.12 196.392 166.606 197.34 170.286C199.316 177.957 196.097 185.907 188.769 190.512C184.236 193.36 179.214 194.63 175.102 194.804Z" fill="#1C1716"/>
</svg>
