<?xml version="1.0" encoding="utf-8"?>
<!-- Generator: Adobe Illustrator 25.4.1, SVG Export Plug-In . SVG Version: 6.00 Build 0)  -->
<svg version="1.1" id="Layer_1" xmlns="http://www.w3.org/2000/svg" xmlns:xlink="http://www.w3.org/1999/xlink" x="0px" y="0px"
	 viewBox="0 0 512 512" style="enable-background:new 0 0 512 512;" xml:space="preserve">
<style type="text/css">
	.st0{fill:#171614;}
	.st1{fill:#1A170E;}
	.st2{fill:#F9D500;}
	.st3{fill:#F8D601;}
	.st4{fill:#F6D502;}
	.st5{fill:#F6D503;}
	.st6{fill:#1C180A;}
	.st7{fill:#1B1809;}
	.st8{fill:#1B1708;}
	.st9{fill:#1C1809;}
	.st10{fill:#1C1807;}
	.st11{fill:#F3D406;}
	.st12{fill:#F2D407;}
	.st13{fill:#D73237;}
	.st14{fill:#DA3336;}
	.st15{fill:#D63235;}
	.st16{fill:#D73335;}
	.st17{fill:#F0D30C;}
	.st18{fill:#D73235;}
	.st19{fill:#DA3237;}
	.st20{fill:#F4D401;}
	.st21{fill:#E4CF2C;}
	.st22{fill:#D9CB4D;}
	.st23{fill:#D8CA49;}
	.st24{fill:#E5D223;}
	.st25{fill:#DBCF52;}
	.st26{fill:#DECB32;}
	.st27{fill:#F0D617;}
	.st28{fill:#D7CA47;}
	.st29{fill:#DDCC41;}
	.st30{fill:#E4CF23;}
	.st31{fill:#D7C841;}
	.st32{fill:#E1CD23;}
	.st33{fill:#F3DB3B;}
	.st34{fill:#CEC046;}
	.st35{fill:#D5CA4E;}
	.st36{fill:#B4AF63;}
	.st37{fill:#DDCC45;}
	.st38{fill:#CEC64A;}
	.st39{fill:#D2C751;}
	.st40{fill:#ECD011;}
	.st41{fill:#F2D409;}
	.st42{fill:#E0CC42;}
	.st43{fill:#F5DF3F;}
	.st44{fill:#E7D747;}
	.st45{fill:#E6CF4C;}
	.st46{fill:#19160E;}
	.st47{fill:#1B170B;}
	.st48{fill:#191815;}
	.st49{fill:#181814;}
	.st50{fill:#E6D23B;}
	.st51{fill:#E2CD43;}
	.st52{fill:#EED83C;}
	.st53{fill:#EDD83D;}
	.st54{fill:#E4D144;}
	.st55{fill:#4A3900;}
	.st56{fill:#362600;}
	.st57{fill:#382800;}
	.st58{fill:#3E2E00;}
	.st59{fill:#372601;}
	.st60{fill:#3A2E00;}
	.st61{fill:#EDD83F;}
	.st62{fill:#EAD63C;}
	.st63{fill:#4F4003;}
	.st64{fill:#463702;}
	.st65{fill:#483400;}
	.st66{fill:#443400;}
	.st67{fill:#3D2D00;}
	.st68{fill:#271A00;}
	.st69{fill:#E7D438;}
	.st70{fill:#DFCF42;}
	.st71{fill:#D9CE51;}
	.st72{fill:#F5D503;}
	.st73{fill:#DBCE40;}
	.st74{fill:#E9D03A;}
	.st75{fill:#F3D505;}
	.st76{fill:#DBCB3E;}
	.st77{fill:#CDC572;}
	.st78{fill:#F2D308;}
	.st79{fill:#F3D403;}
</style>
<g id="_x36_jCwFC_1_">
	<g>
		<path class="st0" d="M120.3,320.8c-5.7-9.2-10.1-18.9-12.6-29.5c-0.7-3.2-1.6-4.1-5-4.1c-5.7,0.1-10.8-2-14.7-6.3
			c-1.1-1.2-2-2.5-4.1-2.3c-9.5,0.9-16.3-4.1-23-11.6c-1.1,8.3-0.9,15.7-0.7,23.2c0.3,7.9-3,10.3-9.8,6.8
			c-11.3-5.8-21.8-12.9-30.2-22.7c-5.1-6-4.7-7.9,2.6-10.5c5.1-1.9,10-3.9,14.9-8.1c-6.5,0.1-11.4,2.9-16.3,5
			c-4.3,1.8-6.6,0.9-6.6-3.8c-0.1-5.5-2.4-11.5,3.3-16c-2.9-2.5-9.7,0.7-9.2-6.1c0.3-4,0.5-8.4,3.8-11.2c1.7-1.5,1.1-2.1,0.5-3.9
			c-1.6-4.6,4.9-14.7,9.8-15.6c0.9-0.2,2.1,0.8,3.1,1.3c0.1-5.1,7.7-11.8,13.1-11.8c3.2,0,2.4,2.3,2.7,4c1.8,9.7,5.4,18.7,11.6,27.8
			c2-7.7,0.9-14.5,1.6-21.2c1-9.8,4.1-11.2,13.1-6.7c10,5,17.3,13.4,26.3,19.6c4.8,3.4,3.9,7.7-1.9,10.4c-4.1,1.9-8.7,2.6-12.9,4.3
			c-2.4,0.9-5.1,2.4-4.9,5.5c0.2,3.1,2.7,4,5.6,4.1c1.6,0.1,3.8,0.6,4.6,1.7c4.6,6.5,11,2.6,16.5,3c2.9,0.2,2.4-2.5,2.7-4.1
			c10.3-75.1,75.2-116.5,134.5-122.8c13.3-1.4,26.4-3.8,39.9-3c11.9,0.7,23.2,3.1,33.8,8.6c12.7,6.6,25.1,13.8,37.9,20.2
			c33.2,16.7,49.7,44.9,55.8,80.3c1.4,8,1.9,16.1,3.1,24.2c0.3,2.2,0.9,6.6,2.1,6.1c4.6-1.7,8.7,3.8,12.8,0.6
			c3.5-2.7,7-4.6,11.4-5.5c4.4-0.9,5.1-4,1.7-7.3c-3.3-3.2-7.8-3.3-11.9-4.6c-3.8-1.2-7.9-2.6-8.6-6.7c-0.7-4,3.3-5.8,6.2-7.9
			c7.7-5.7,14.3-12.6,22.9-17c9.2-4.7,12.6-2.9,13.2,7.4c0.4,6.4-0.3,12.8,1.4,20.3c6.6-8.6,10.1-17.4,11.5-26.9
			c0.7-5.1,2.9-6,6.3-3.6c3.5,2.4,10.3,1.5,9.6,8.7c5.1,0.6,8.5,3.6,10.9,7.9c1.7,3,4.7,5.9,1.5,9.6c-1.3,1.5,0,1.9,1,2.5
			c0.6,0.4,1.1,0.9,1.5,1.5c5.4,8.1,2.8,14.1-7,15.8c6.5,5.4,3.8,12.3,3.2,18.7c-0.3,3.4-3.2,2.4-5.7,1.5
			c-5.3-1.8-10.1-5.5-16.9-4.8c5.5,3.8,10.8,6.4,16.6,8.2c5.1,1.6,5.7,4.4,2.4,8.5c-9,10.9-20.3,18.8-32.9,24.9
			c-5.3,2.5-9-0.2-8.6-5.9c0.6-7.9,0.4-15.7-0.4-24.5c-6.9,7.4-14.2,12.6-24.4,11.6c-1.1-0.1-2.5,2-3.7,3.1
			c-4.1,3.7-9.2,6.3-14.4,5.1c-5.5-1.3-6.5,0.9-7.9,5.2c-16,49.9-49.3,81.1-100.7,92.5c-3.6,0.8-5.7,1.9-5.4,6
			c0.1,1.6-0.5,3.3-0.7,5c-1.6,15.4,0,17.6,14.8,20.4c12.6,2.3,24.7,5.8,34,15.4c6.2,6.5,5.4,13.1-2.5,17.3c-4.6,2.4-9.6,4.4-15,4.2
			c-20.8-0.7-41.5-2.4-61.6-8.1c-2-0.6-3.6-0.4-5.4,0.2c-3.6,1.2-7.3,2.1-10.9,3.2c-5.9-6.5,2.7-6.5,4.1-6.5
			c7.2-0.3,7.6-4.5,7.6-10.1c0-4.5-1.7-9.5,2.7-15.5c0,4.1,0,6.2,0,8.3c0,2.4-0.1,4.8,0,7.1c0.5,5.9,4.8,9.2,10.3,7.9
			c4.1,0.6,8.3,1.1,12.4,1.7c13.8,3.4,27.7,4.6,41.9,4.1c2.9-0.1,5.6-1.2,8.1-2.7c4.5-2.7,5.7-5.5,0.8-9.2
			c-4.8-3.7-10.1-6.4-15.8-8.2c-7.8-2.5-15.9-3.5-24-4.3c-6.9-0.7-10.4-3.8-10-11.1c0.4-6.2,0.2-12.4,0.4-18.6c0.3-9,2.1-11.2,11-13
			c56.6-11.4,91-51.9,100.7-108.6c0.8-4.8-0.5-6.7-5.3-7.9c-63.3-15.5-108-52.9-133.1-113.3c-1.4-3.3-1.7-7-4.3-9.7
			c-4.4,0.9-6,5-7.1,8.2c-2.6,7.9-8.8,13.5-12.4,20.7c-0.9,1.9-3.3,3.7-5.2,2c-1.8-1.7,0.8-3.1,1.7-4.6c5-8.6,10.1-17.1,14.7-25.9
			c0.9-1.6,4.6-5-0.6-6.7c-1.8-1.1,0.2-6-4.3-4.3c-2.6-1.6-3.9-4.9-7.1-5.8c-4.6-2.6-7.9,1.1-11.7,2.4c-2.2,0.7-4.9,3.5-5.8-1.3
			c1.2-1.7,1-2.4-1.2-1.8c-36.6,9.8-66,29.6-86.3,62c-2.2,3.9-4.9,7.5-6.6,11.6c-2.5,5.8-6.6,11-6,17.9c0.2,2-2.4,3.7-0.8,5.9
			c2.4,0.1,1.8-3.8,4.5-3.4c0.1,3.2-4,5.4-1.3,8.7c0.2,0.9,0.7,1.5,1.8,1.3c-1.3,3.3-2.7,6.7-0.7,10.2c0.7,0.2,1.5,0.3,2.2,0.5
			c-0.8,1-3.2,1.4-2.1,3c1.5,2.2,3.9,2.2,6.3,1c0,0.6,0,1.3,0.1,1.9c-2.6,1.6-2.8,2.4,0.6,1.7c1.5-0.3,3.5-1.9,4.3,0.2
			c0.8,2.1-1.4,3.4-3.1,4.1c-6.2,2.4-12.7,3.7-19.3,4.8c-3.5,0.6-5.5,0.3-5.5-3.9c0-3.6-2.7-7.2-5.5-5.9c-7.4,3.5-13.4,2.3-19.2-2.8
			l-0.1,0c-0.5-3.2-2.9-3.5-5.4-3.2c-5.8,0.6-7.4-2.3-7.3-7.6c0.1-3.7,0.9-6.9,2.9-10c0.6-0.7,1.1-1.6,1.9-2.1
			c9.5-7.3,9.5-7.4,0.3-16.2c-1.4-1.3-2.9-2.4-4.4-3.5c-3.3-2.5-4.9-2-5,2.5c-0.2,5.1,1,10.4-0.9,15.4c-2.7,5.5-2.7,5.4-10.2,7.3
			c-1.5,0.4-2.4,1.4-3,2.8c-3.8,11.3-0.3,18.4,9.6,19.8c2.3,0.4,2.6-3.4,5.8-2.5c0.1,6.9,0.6,13.7,7.8,18.1
			c3.6,2.1,6.8,2.1,10.1,1.6c3.7-0.6,2-4.2,2.5-6.5c0.2-1.2,0.2-2.4,2.1-2.2c0.2,0.6,0.6,1.2,0.7,1.9c1.2,13.6,6.8,17.1,19,12.2
			c3-1.2,4.1,0.2,4,2.9c-0.6,10.3,4.3,18.8,8.6,27.4C122.8,312.9,123.3,316.7,120.3,320.8z M25.4,221.6c3.7,2.3,7.4,4.6,12.7,7.9
			c-2.4-5.2-4.9-7.8-7.7-10.3c-1.6-2-3.2-3.9-4.9-5.9c-1.3-1.5-2.7-3.1-4.3-0.4c-1,1.8-4,3.5-0.7,5.7
			C22.2,219.8,23.8,220.7,25.4,221.6z M483.9,234.4c3-1.7,6-3.5,9-5.2c3.5-2,1.8-4.1,0.2-6.3c-2.1-3-3.5-0.8-4.8,0.6
			c-2.2,2.4-4.2,5-6.3,7.5c-2.2,2.3-4.4,4.6-7.1,7.3C479.2,238.7,481.4,236.1,483.9,234.4z M34.6,235.6c-4.2-3.8-9.8-4.3-14.8-6.3
			c-2.3-0.9-3.5-0.4-4.2,2c-0.6,2.3-0.1,3.7,2.3,4.1c3.5,0.6,7,1.3,10.5,1.9c3.6,1.4,7.3,2.2,11.7,1.7
			C38.6,236.3,36.8,235.5,34.6,235.6z M336.8,237.3c9.3,6.4,18.8,12.6,29.9,15.6c6.5,0.2,12.4,2.3,18,5.6c3,1.8,5.6,5,9.8,3
			c0.4-0.4,0.8-0.9,1.2-1.3c2.2-1.5,0.6-3.2-0.3-4.1c-2.5-2.5-0.5-4.1,0.7-6c-0.1-0.9-0.1-1.8-0.2-2.8c0.1-3.9,0.2-7.8,0.3-11.7
			c3-1.7,1.4-4.4,1.1-6.4c-5.3-33.3-19.8-60.5-50.7-76.9c-16.2-8.6-31.7-18.5-49.1-24.7c-3.3-1.7-7-2.1-10.6-2.5
			c-0.5-0.1-2.1-0.6-1.4,1.1c0.2,0.5,1.1,0.8,1.7,1.2c2.2,4.6,9.3,3.6,11.1,10.2c-4.4-2.9-8.4-4.5-12.7-5.4c-1.3-1.4-3-3.2-4.7-1.3
			c-3.5,3.9,3.4,5.5,2.5,9.1c-3.1,0.6-3.9-2.3-5.7-3.5c-1.6-1-2-0.1-2.4,1.1c-4.6,2.8,2,6.2-0.6,9.2c-2.9-1.4-2.6-4.6-4.1-6.8
			c-0.7-1,0.9-4.4-2.6-3c-2.7-1.5-2,0.6-1.9,1.9c0.7,8.5,3.7,16.2,7.8,23.5C286.6,194.5,308,219,336.8,237.3z M463.6,283
			c0.9,3.7-2.5,10.2,1.4,11.8c4.4,1.8,8.8-3.5,12.6-6.5c9.5-7.7,9.4-8-1.6-13.4C463.6,268.7,463.6,268.7,463.6,283z M50.6,273
			c-1.3-3.8,2.8-8.8-0.4-11.4c-3.6-3-7.3,1.7-10.8,3.2c-12.3,5.3-12.4,6.3-1.9,14.4c3.5,2.7,7.7,7.5,11.6,5.7
			C52.8,283.2,49.6,277.1,50.6,273z M450.3,228.7c0-2.4,0-4.8,0-7.1c0-1.9,0.1-4.3-1.6-5.2c-1.9-1-3.5,0.9-5,2
			c-2.4,1.9-4.6,4.1-6.8,6.3c-6.5,6.5-6.5,6.5,1.5,11C450.4,242.4,450.4,242.4,450.3,228.7z M438.7,259.4c-6.6,0.1-10.3,4.1-9.6,8.9
			c0.6,4-1.5,11,5.3,12c4.9,0.7,12-7.4,11.9-12.5C446.1,262.5,443.9,259.1,438.7,259.4z M465.5,252.9c0-3.4,0.2-7.4-4.2-7.9
			c-4.5-0.5-9,0.4-12.2,4.4c-3.3,4.2,0.1,6.4,2.4,9.1c0.8,0.9,1.2,2.1,1.6,3.2c2.3,5.8,5.7,4,8.7,1
			C464.5,260.1,465.5,256.6,465.5,252.9z M422.2,277.1c0.1-2.7-0.3-5.2-1.5-7.7c-1.3-2.7-3-5.3-6.3-4.7c-3.3,0.6-4.4,3.2-4.3,6.5
			c0.1,3.6-0.3,7.2-0.3,10.7c0,2.3-2.7,5.5,1.2,6.7c3.2,1,6.1-0.5,8.3-2.9C421.6,283.3,422.3,280.3,422.2,277.1z M474.6,247.7
			c0.1,0.6,0.3,1.3,0.4,1.9c7.2-1.5,14.5-2.9,21.7-4.4c2.4-0.5,2.8-2,2.1-4.3c-0.8-2.4-2-2.8-4.3-2
			C487.7,241.4,480.4,242.9,474.6,247.7z M467.4,238.3c6.9-6.9,10.9-15.6,14.2-24.6c0.7-1.8-0.7-2.6-2.1-3c-1.5-0.4-2.2,0.7-2.4,1.8
			C475.3,221.6,470.4,229.5,467.4,238.3z M46.9,228.2c-3.2-8.6-7.8-16.4-9.6-25.2c-0.3-1.3-1-2.2-2.4-1.9c-1.7,0.3-2.5,1.6-1.9,3.2
			C36.2,213,40,221.5,46.9,228.2z M41.6,247.2c-7.7-3-13.6-1.8-19.4-0.3c-2.1,0.6-2.2,3.6-1.6,5.7c0.8,2.6,2.6,1.1,4,0.6
			C29.7,251.4,34.8,249.6,41.6,247.2z M474,257.6c7,2.3,13,4.3,19.3,6.4C493.6,255.5,484,252.4,474,257.6z"/>
		<path class="st1" d="M50.3,235.7c0.6-1.4,1.5-2.4,3-2.8c7.5-1.8,7.5-1.8,10.2-7.3c0.3,6.3,4.7,4.2,8.2,3.9c-2,3-2.8,6.2-2.9,10
			c-0.1,5.3,1.4,8.2,7.3,7.6c2.4-0.2,4.9,0,5.4,3.2c-3.9-0.5-7.9-2.4-11.1,1.6c-3.5,4.7-3,9,1.3,12.9c1.8,3,4.6,4.7,7.9,5.7
			c1.8,0.5,3.4,0.7,3.8-1.7c1-6.3,4.8-12.9-1.9-18.5c5.8,5.1,11.8,6.2,19.2,2.8c2.8-1.3,5.5,2.3,5.5,5.9c0,4.2,2,4.5,5.5,3.9
			c6.6-1.1,13.1-2.4,19.3-4.8c1.7-0.7,3.9-2,3.1-4.1c-0.8-2.1-2.8-0.5-4.3-0.2c-3.4,0.6-3.2-0.2-0.6-1.7
			c30.3-11.2,58.8-25.1,79.9-50.8c10.9-13.3,23.2-25.4,30.9-41c3.3-4.6,6.2-9.4,7.1-15.1c1.1-0.7,1.3-1.7,1.3-2.8
			c5.2,1.7,1.5,5,0.6,6.7c-4.6,8.8-9.6,17.4-14.7,25.9c-0.9,1.5-3.6,3-1.7,4.6c1.9,1.7,4.2-0.2,5.2-2c3.6-7.2,9.8-12.8,12.4-20.7
			c1.1-3.3,2.6-7.3,7.1-8.2c-10.2,23.6-26.8,42.8-43.9,61.5c-7.9,8.6-15.7,17.3-26,23.4c-22.1,13.1-45,24.2-69.7,31.2
			c-4.4,1.3-5.6,2.9-4.9,7.4c7.3,45.8,28.9,81.8,70.6,104.3c14.8,8,30.8,12.5,47.2,15.8c3.7,3.4,10.1-0.8,13.2,4.5l0-0.2
			c-0.6,8.2,0.8,16.2,2.2,24.2c0.1,6,0.6,11.4-8.2,12.6c-13,1.8-25.6,6-37.3,12.2c-2.5,1.4-5.6,2.6-5,6.1c0.5,3.2,3.8,2.4,6,2.7
			c18.9,2.8,37-1.2,55.2-5.6c3.4-0.8,2.8-2.7,2.5-5.3c-1.5-14-2.3-28.1-1.9-42.2c0.1-2.9-0.7-6.7,4.3-6.6c4.5,0.1,4.3,3.3,4.3,6.6
			c0.1,11-0.9,21.9,1.2,32.8c-0.1,6.4-0.9,13.2,7.7,15.2c-5.5,1.2-9.8-2.1-10.3-7.9c-0.2-2.4,0-4.8,0-7.1c0-2.1,0-4.2,0-8.3
			c-4.4,6-2.7,11-2.7,15.5c0,5.6-0.3,9.8-7.6,10.1c-1.4,0.1-9.9,0-4.1,6.5c-3.9,2-8.2,1.5-12.3,1.7c-2.5-2.5-5.4-3.3-8.9-3.2
			c-9.5,0.2-19,0.1-28.5,0.1c-2.8,0-5.6,0.4-6.7-3.5c-1.1-3.7,0.3-6.1,3.1-7.8c3.4-2.1,6.9-4.1,10.5-5.7c3-1.3,4-3.1,2.6-6.1l-0.1,0
			c4.2,3.3,8.2,3.4,13.2,1c4.4-2.1,9.5-3.1,14.4-3.7c6.1-0.8,7.8-3.9,6.5-9.4c-0.9-4.2-2.5-8.2-2.5-12.6c0.1-3.6,0.8-7.5-0.5-10.6
			c-1.7-4-6.5-1.1-9.7-2.3c-2-0.8-4.2-1.2-6.1-2.1c-5.6-2.9-11.1-3.5-16.8-0.4c-4.8,0-8.8-2-12.8-4.4c-3-5.8-9-7.9-14-11.3
			c-13.3-9.3-30-14.2-37.7-30.6c-1.9-4-6.6-5.5-11.3-5.4c-1.4-1.5-3.2-2.8-3.3-5.2c1.2-3.9,0.8-7.9-0.5-11.5c-1.4-3.8-3.8-5-6.2-0.5
			c-1.1-1-2-2.2-1.9-3.8c3-4.1,2.5-7.9,0.2-12.5c-4.3-8.6-9.2-17.2-8.6-27.4c0.2-2.7-1-4.1-4-2.9c-12.2,5-17.8,1.4-19-12.2
			c-0.1-0.7-0.4-1.3-0.7-1.9c-1.9-0.3-1.9,1-2.1,2.2c-0.5,2.3,1.3,5.9-2.5,6.5c-3.3,0.5-6.6,0.5-10.1-1.6
			c-7.3-4.4-7.7-11.2-7.8-18.1c-3.3-0.9-3.5,2.9-5.8,2.5c1-2.9,1.9-5.8,4-8.2c4-4.7,3.2-7.9-2.4-10.5
			C57.8,235.1,54.1,235,50.3,235.7z M104.6,269.3c-0.1,0-0.1,0-0.2,0c0-2.9,0-5.7,0-8.6c0-3-1.6-5.1-4.4-5.8
			c-2.8-0.7-4.5,1.3-5.6,3.4c-2.8,5-3.5,10.4-0.7,15.7c2,3.7,5.4,5.9,9.4,4.8c4.2-1.1,0.9-4.9,1.4-7.3
			C104.7,270.7,104.6,270,104.6,269.3z"/>
		<path class="st0" d="M208,393.6c5.7-3.2,11.2-2.5,16.8,0.4c1.9,1,4.1,1.4,6.1,2.1c3.2,1.2,8-1.7,9.7,2.3c1.3,3.1,0.6,7.1,0.5,10.6
			c-0.1,4.4,1.5,8.4,2.5,12.6c1.2,5.4-0.5,8.6-6.5,9.4c-4.9,0.6-10,1.6-14.4,3.7c-5,2.4-9,2.2-13.2-1c7.4-3.5,15.4-4.8,23.2-6.9
			c3.4-0.9,4.5-2.2,4.5-5.8c-0.3-17.3-0.2-17.3-16.3-22.8C216.5,396.7,212.2,395.1,208,393.6z"/>
		<path class="st0" d="M209.5,433.6c1.4,3,0.5,4.7-2.6,6.1c-3.6,1.6-7.1,3.6-10.5,5.7c-2.8,1.8-4.1,4.2-3.1,7.8
			c1.1,3.9,3.9,3.5,6.7,3.5c9.5,0,19,0.2,28.5-0.1c3.6-0.1,6.5,0.7,8.9,3.2c-13.3,3.9-26.7,3.8-40.2,1.9c-5.6-0.8-9.9-4.2-10.9-9.9
			c-1-5.7,2.7-9.3,7.4-11.8C198.8,437.4,203.7,434.4,209.5,433.6z"/>
		<path class="st0" d="M132.3,341.8c4.7-0.1,9.4,1.4,11.3,5.4c7.7,16.4,24.4,21.4,37.7,30.6c4.9,3.5,11,5.5,14,11.3
			C169,380.3,146.9,366.1,132.3,341.8z"/>
		<path class="st0" d="M122.2,324.6c2.5-4.5,4.8-3.3,6.2,0.5c1.4,3.7,1.7,7.6,0.5,11.5C125.9,333.1,123.9,328.9,122.2,324.6z"/>
		<path class="st2" d="M266.8,434.1c-2.1-10.9-1.1-21.9-1.2-32.8c0-3.3,0.2-6.5-4.3-6.6c-5-0.1-4.2,3.7-4.3,6.6
			c-0.4,14.1,0.5,28.2,1.9,42.2c0.3,2.6,0.8,4.5-2.5,5.3c-18.1,4.4-36.3,8.4-55.2,5.6c-2.1-0.3-5.4,0.5-6-2.7
			c-0.6-3.5,2.5-4.8,5-6.1c11.7-6.2,24.3-10.3,37.3-12.2c8.8-1.3,8.3-6.6,8.2-12.6c2.2-8.3,0.2-16.3-2.2-24.2c0,0,0,0.2,0,0.2
			c0.4-3.5-1.8-4.5-4.7-4.6c-2.8,0-5.6,0.1-8.5,0.1c-16.4-3.3-32.3-7.8-47.2-15.8c-41.7-22.5-63.2-58.6-70.6-104.3
			c-0.7-4.5,0.5-6.2,4.9-7.4c24.7-7,47.7-18.1,69.7-31.2c10.3-6.1,18.1-14.8,26-23.4c17.1-18.7,33.7-37.8,43.9-61.5
			c2.6,2.7,3,6.4,4.3,9.7c25.1,60.4,69.8,97.8,133.1,113.3c4.8,1.2,6.1,3.1,5.3,7.9c-9.8,56.7-44.2,97.2-100.7,108.6
			c-8.8,1.8-10.7,4-11,13c-0.2,6.2,0,12.4-0.4,18.6c-0.4,7.3,3.1,10.4,10,11.1c8.1,0.8,16.2,1.8,24,4.3c5.7,1.8,11,4.5,15.8,8.2
			c4.8,3.7,3.6,6.5-0.8,9.2c-2.5,1.5-5.2,2.6-8.1,2.7c-14.1,0.4-28.1-0.8-41.9-4.1c0.5-0.3,1-0.7,1.6-1c-0.4-0.2-0.7-0.5-1.1-0.6
			c-17.7-4.1-17.7-4.1-20-20.1C267.2,431,267,432.5,266.8,434.1z M266,255.6c6.8,3.9,12.4,2.1,15.2-5.1c2.3-6.2,2.4-12.6,0.1-18.8
			c-3.4-9.4-8.6-10.8-16.6-4.5C257.3,235.1,258,249.2,266,255.6z M311.4,373.3c5.8-6.8-2.1-9.7-4.4-13.7c-3.1-5.4-7.4-4.7-9.6,1.4
			c-1.9,5.4-5.8,8-10.8,9.4c-2.2,0.6-4.9,1.5-6.4-1.2c-1.6-2.7-1.3-5.5,0.9-7.9c2.1-2.4,5.1-3.5,7.8-4.9c1.9-1,3.2-2.3,2.2-4.6
			c-1-2.3-3-2-4.9-1.5c-2.1,0.5-4.1,1.4-6.2,1.7c-2.3,0.3-5.3,1-6.1-2c-0.8-2.9,1.2-5.1,3.7-6.2c4.3-1.9,8.7-2.3,13.3-0.7
			c2.3,0.8,5,2,6.1-1c1.3-3.6-2-4.1-4.4-5.2c-2.2-1-4.5-1.8-6.3-3.2c-2.4-1.9-4.7-4.3-2.4-7.9c2.2-3.4,4.9-5.2,9-3.3
			c3.7,1.7,6.9,4,9.1,7.7c4.7,8.3,5.7,8.2,11.1,0c1.4-2.2,3.3-4.1,5.2-5.8c1.9-1.7,4.4-2.1,6.6-0.6c2.2,1.4,1.8,3.6,1.4,5.8
			c-1.2,5.5-5.2,8.2-10.1,10.2c-6,2.5-6.2,4.1-1,8c3.6,2.8,7.4,5.2,8,10.4c0.3,2.4,2.4,3.7,4.8,3c2.6-0.7,2.7-3,2.2-5.3
			c-0.6-2.8-1.6-5.6-3.7-7.6c-2.9-2.8-2.4-4.4,0.6-7c8.3-7.3,8.8-12.7,2.9-21.3c-1.1-1.6-1.6-2.8-0.4-4.4c3.9-5.1,4.5-11.4,6.2-17.4
			c0.3,0.7,1.3,1.8,1.3,1.6c-0.4-5.6,2.6-11.5-1.6-16.7c-4.5-2.8-7.5-2.3-6.8,3.8c0.9,7.9-2.2,15-4.2,22.3
			c-2.2,8.4-11,9.9-16.8,14.5c-2.4,1.9-5.4-3.4-8.4-5.1c-9.2-5.2-18.7-3.3-23,4.6c-2.9,5.2,3.6,11.3,0.9,13.4
			c-4.1,3.1-8.9,5.1-10.9,10.4c-0.6,1.5-0.7,3.2-1,4.9c-1.7,4.9-5.8,5.4-10.1,5.7c-8.8,0.7-17.4-1-26.1-1.2
			c-9.9-1.1-3.9-12.5-10.3-16c-0.7-0.4-0.7-2.2-0.7-3.3c0-0.6,0.8-1.1,1.2-1.7c4.8-8,1.4-15-7.9-15.2c-4.9-0.1-7.6-0.5-7.6-6.8
			c0.1-7.9-5.9-11.2-13.5-8.7c-3.9,1.3-6.9,4.3-10.4,6.9c-5.3-8.9-7.9-18.5-10.1-28.3c-0.7-3.3-0.9-7.3-5.8-6.1
			c-5,1.2-2.9,5.3-2.4,8.3c1,6.8,4.8,13,5.3,20c0.9,4.6,0.4,8.4-5.5,9c-0.6,0.1-1.1,1.3-1.7,2c-7.7,6.9-8,13.2-0.8,18.9
			c3.8,3,10.1,3.2,12.3,6.5c2.3,3.5-3.2,8.1-3.7,12.8c-0.2,1.9,0,3.4,1.8,4.2c1.6,0.8,3.8,0.8,4.3-1c2.3-7,8-13.2,5.7-21.5
			c1-1.2,1.9-2.4,2.9-3.6c2.1-1.8,1.7-4.2,1.7-6.6c-0.1-5.6,2.1-10.2,6.2-13.9c1.3-1.2,3.1-2.7,5.1-1.6c1.8,0.9,1.2,2.9,1.3,4.5
			c0,4.9-0.9,9.5-4.5,13.1c-1.8,1.8-3.3,3.7-0.9,6.1c2.7,2.6,4.2,0,5.9-1.4c3.1-2.6,6.3-5.1,10.4-6.1c2.5-0.6,5.5-1.7,6.7,1.7
			c1.1,3.3-1.8,4.5-4.1,5.8c-1,0.6-2.3,0.8-3.4,1.2c-3.1,1.2-8.6,0.6-8,5.2c0.6,4.7,5.5,1.5,8.5,2c4.2,0.8,8.3,2.2,8.5,7.1
			c0.3,4.9-3.8,6-7.7,6.9c-3.6,0.8-6.6-0.2-8.9-3.1c-1.3-1.6-3-2.5-5-1.6c-2.3,1-2,3.1-1.7,4.9c0.6,3.4,0.5,6.6-1.7,9.5
			c-1.4,1.9-0.8,3.6,1.1,4.9c1.7,1.1,3.2,0,4.5-1c1.9-1.4,1.9-3.8,2.9-5.6c6.2-1.8,13.1-3.6,18.7-1.3c14.9,6.1,30,6.9,45.5,4.3
			c3.7-0.6,6.3,0.1,7.5,4.3c0.9,3,2.7,5.7,6.6,5.5c8.4,2,15.4-1.2,22-5.7c2.5-0.1,4.5,0.8,6.6,2.1
			C307.6,374.9,310,376.4,311.4,373.3z M242.6,296c11.6-0.1,20.4-8.3,20.2-18.7c-0.2-9.7-7.3-16.3-17.3-16
			c-10.4,0.2-18.9,8.5-18.9,18.5C226.6,289.4,233.2,296.1,242.6,296z M235.6,241.2c0-1,0-1.9,0-2.9c-0.5-8.4-4.4-14.7-9.4-14.9
			c-6.5-0.3-10.4,4.5-11.5,14.4c-0.1,1.2-0.2,2.4-0.1,3.6c0.2,9,5,16.7,10.4,16.6C231.3,257.9,235.5,251.3,235.6,241.2z
			 M283.6,272.8c-0.5-1.2-1.4-2.3-2.9-2.3c-2.1,0-2.7,1.5-2.5,3.3c0.2,1.6,1.4,2.4,3,2.1C282.7,275.6,283.7,274.6,283.6,272.8z
			 M290.4,285.7c-0.1-1.6-0.9-2.6-2.5-2.9c-1.6-0.3-3,0.1-3.4,1.7c-0.5,2.1,1.1,3,2.8,3.3C288.8,288.2,290,287.4,290.4,285.7z
			 M302.9,290.1c0.2-1.8-0.9-2.7-2.3-2.9c-1.8-0.3-3.3,0.3-3.4,2.5c-0.1,1.6,0.9,2.8,2.3,3.1C301.3,293.1,302.4,291.8,302.9,290.1z
			 M290.1,297.3c0.1-1.7-0.9-2.7-2.4-3c-1.6-0.3-3,0.4-3.3,2c-0.3,2,1.1,3.1,2.8,3.4C288.9,300,289.8,298.9,290.1,297.3z
			 M303.4,274.2c-1.2,0.4-2.5,0.9-2.1,2.8c0.3,1.6,1.6,2.4,3.1,2.5c1.6,0.1,2.8-0.8,2.7-2.5C307,274.9,305.5,274.3,303.4,274.2z
			 M197.2,287.3c-1.4,0.2-2.3,1-2.2,2.3c0.1,1.8,1.2,3.1,3,3.2c1.5,0.1,2.7-1,2.5-2.6C200.3,288.3,198.9,287.5,197.2,287.3z
			 M295.5,268.6c-1.5-0.1-2.5,0.6-2.7,1.8c-0.2,1.6,0.9,2.7,2.3,3c1.6,0.3,2.9-0.4,2.9-2.1C298.1,269.8,296.9,268.9,295.5,268.6z
			 M280.2,290c-0.3-1.2-1.3-2.1-2.8-2.2c-1.5-0.1-2.9,0.5-2.9,2.3c0,1.6,1.2,2.6,2.7,2.8C278.8,293,279.6,291.8,280.2,290z
			 M190.3,283.1c1.2-0.5,2.1-1.3,1.7-2.7c-0.4-1.6-1.6-2.3-3.2-2.1c-1.2,0.2-2.4,0.8-1.7,2.4C187.7,282,188.7,283,190.3,283.1z
			 M197.4,272.6c1.6,0.3,2.2-0.7,2.2-2c0.1-1.6-0.9-2.7-2.5-2.8c-1.3-0.2-2.4,0.6-2.4,1.9C194.7,271.2,196,272,197.4,272.6z
			 M213.2,288.4c0-1.7-1.2-2.3-2.7-2.5c-1.3-0.2-2.4,0.2-2.5,1.7c-0.1,1.7,1,2.5,2.5,2.7C211.9,290.4,212.7,289.6,213.2,288.4z
			 M208.1,279.1c-0.4-1.7-1.6-2.3-3.1-2.1c-1.2,0.2-2.1,1.2-1.9,2.4c0.2,1.2,0.9,2.2,2.3,2.2C207,281.6,207.9,280.7,208.1,279.1z"/>
		<path class="st3" d="M395.7,260.2c-0.4,0.4-0.8,0.9-1.2,1.3c-14.7-7.4-28.1-16.9-41.6-26.3c-28.7-20-49.7-46.8-67.5-76.5
			c0.3-2.8-1.7-4.9-2.5-7.3c-0.8-2.5-4.1-4.4-1.7-7.6c5,4.6,10.2,9.1,15.1,13.9c12.5,12,24.2,24.9,38.2,35.4
			c5.5,4.1,10,9.4,14.2,14.9c7,11.9,17.5,20.3,27.8,29.1C383.9,244,389.4,252.4,395.7,260.2z"/>
		<path class="st4" d="M297.6,127.6c17.4,6.3,32.9,16.1,49.1,24.7c30.9,16.4,45.4,43.7,50.7,76.9c0.3,2,1.9,4.7-1.1,6.4
			c-3.1-10.2-8.9-18.9-15.2-27.3c-23-31.2-50.9-57.2-84.1-77.4C296.8,129.8,296,128.5,297.6,127.6z"/>
		<path class="st5" d="M239.9,160.3c-7.6,15.7-20,27.8-30.9,41C188,227,159.5,241,129.2,252.2c0-0.6,0-1.3-0.1-1.9
			c12-6,22.1-14.6,32.3-23.2c22.4-18.9,42.6-40.1,63.6-60.4c7.1-1.3,9.3-9.1,15.6-11.9C240.4,156.7,240.1,158.5,239.9,160.3z"/>
		<path class="st6" d="M395.7,260.2c-6.4-7.7-11.8-16.2-19.1-23.2c-8.3-10.6-18-19.8-27.8-29.1c-4.2-5.5-8.8-10.7-14.2-14.9
			c-13.9-10.5-25.7-23.3-38.2-35.4c-4.9-4.7-10-9.3-15.1-13.9c-1-2.8-2.9-4.9-5.8-5.8l-0.2-0.2c0.4-1.2,0.8-2.2,2.4-1.1
			c1.8,1.2,2.6,4.1,5.7,3.5c0.9-3.6-6-5.3-2.5-9.1c1.7-1.9,3.4-0.1,4.7,1.3c-0.6,0.1-1.1,0.1-1.7,0.2c-0.9,0.2-2.8,0-1.3,1.7
			c1.7,2.1,3.8,3.9,5.7,5.8c4.8,5,9.4,10.2,14.4,14.8c27.4,25.2,54.9,50.2,79.6,78.1c4.6,5.7,9.1,11.5,13.7,17.2
			c-1.2,1.9-3.2,3.5-0.7,6C396.3,257,398,258.7,395.7,260.2z"/>
		<path class="st7" d="M225,166.6c-21,20.3-41.2,41.5-63.6,60.4c-10.2,8.6-20.3,17.3-32.3,23.2c-2.4,1.1-4.8,1.2-6.3-1
			c-1.1-1.6,1.3-2,2.1-3c3-2,6-4.1,8.9-6.1c2.9-1.9,6-3.6,8.7-5.8c22.8-18.4,44.9-37.8,64.1-60.1c4-3.9,8-7.8,12-11.7
			c1.3-1.2,2.6-2.5,4-3.7c6.6-6.1,14.4-11,18.6-19.4c0.9-0.5,1.9-1,2.8-1.4c4.6-1.7,2.5,3.3,4.3,4.3c0,1.1-0.2,2.2-1.3,2.8
			C239.1,151.6,232.2,159.2,225,166.6z"/>
		<path class="st8" d="M285.5,158.7c17.8,29.7,38.7,56.5,67.5,76.5c13.5,9.4,26.9,18.9,41.6,26.3c-4.2,2.1-6.9-1.2-9.8-3
			c-5.6-3.4-11.4-5.5-18-5.6c-9.7-7-19.4-14-29.2-20.9c-4.6-4.2-9.3-8.2-13.7-12.6c-18.1-17.9-32.4-38.7-46.2-59.9
			c-3.3-7.4-8.5-13.9-9.6-22.2c3.5-1.4,1.9,2,2.6,3c1.5,2.1,1.1,5.4,4.1,6.8c2.5-3.1-4.1-6.4,0.6-9.2l0.2,0.2
			C276.9,145.8,281.1,152.3,285.5,158.7z"/>
		<path class="st9" d="M284,132.4c0.6-0.1,1.1-0.1,1.7-0.2c4.3,0.9,8.3,2.4,12.7,5.4c-1.8-6.7-8.9-5.6-11.1-10.2
			c3.3,1.2,6.6,2.4,9.9,3.6c33.2,20.2,61,46.2,84.1,77.4c6.2,8.4,12,17.1,15.2,27.3c-0.1,3.9-0.2,7.8-0.3,11.7
			c-4-5.7-5.2-12.8-9.6-18.2c-1.5-2.7-2.8-5.5-4.5-8.1c-14.6-23.3-33.8-42.4-54.8-59.7c-10.6-8.8-21.1-17.8-33.8-23.7
			C290.2,135.9,287.1,134.2,284,132.4z"/>
		<path class="st10" d="M244,138c-0.9,0.5-1.9,1-2.8,1.4c-10.7,3.5-17.7,12.2-26.4,18.6c-4.2,3.1-8.5,6.1-12.6,9.3
			c-26.2,20.7-50.4,43.5-71.8,69.1c-2.6,3.1-5.2,6.1-7.7,9.2c-2-3.6-0.6-6.9,0.7-10.2c4.6-7.4,11.4-12.9,16.5-19.8
			c10.8-10.4,21.3-21.2,32.5-31.1c15-13.2,30.6-25.8,45.9-38.6c3.4-2.5,6.9-5.1,10.3-7.6c2.9-1.7,6.5-2.5,8.1-6l0.1-0.2
			C240.1,133,241.4,136.4,244,138z"/>
		<path class="st9" d="M121.7,234.1c-2.7-3.3,1.4-5.6,1.3-8.7c-2.7-0.4-2.1,3.5-4.5,3.4c-1.7-2.2,0.9-3.9,0.8-5.9
			c4.1-6.3,8.1-12.5,12.2-18.8c1.4-1.7,2.7-3.3,4.1-5c23.1-28.2,52.1-48.8,83.9-65.9c0.9,4.8,3.6,2.1,5.8,1.3
			c3.8-1.3,7.2-4.9,11.7-2.4c0,0-0.1,0.2-0.1,0.2c-3.2,0.4-5.9,2-8.7,3.6c-6,2-11.3,5.3-16.3,9c-6.3,3.8-12.7,7.3-18.8,11.5
			c-24,16.3-45.7,34.9-61.1,59.9C127.2,221.5,124.7,228,121.7,234.1z"/>
		<path class="st11" d="M219.3,133.2c-31.8,17.1-60.8,37.7-83.9,65.9c-1.4,1.7-2.7,3.3-4.1,5c-1.4-0.1-4.5,2-2.7-2.2
			c1.2-2.8,3.4-5.2,3.1-8.5c20.3-32.4,49.7-52.2,86.3-62C220.3,130.8,220.6,131.5,219.3,133.2z"/>
		<path class="st12" d="M277.7,159.4c13.8,21.2,28.1,42.1,46.2,59.9c4.4,4.3,9.1,8.4,13.7,12.6c-1.2,1.6,4.9,4.3-0.7,5.3
			c-28.8-18.3-50.2-42.8-62.8-74.7C274,160,274.5,158.2,277.7,159.4z"/>
		<path class="st13" d="M463.6,283c0-14.3,0-14.3,12.4-8.1c11,5.4,11.1,5.7,1.6,13.4c-3.8,3.1-8.2,8.4-12.6,6.5
			C461.1,293.2,464.6,286.7,463.6,283z"/>
		<path class="st14" d="M50.6,273c-1,4.2,2.2,10.2-1.6,11.9c-3.8,1.7-8-3-11.6-5.7c-10.5-8.1-10.4-9.2,1.9-14.4
			c3.5-1.5,7.2-6.2,10.8-3.2C53.4,264.1,49.3,269.1,50.6,273z"/>
		<path class="st15" d="M450.3,228.7c0.1,13.6,0.1,13.6-11.9,6.9c-8-4.5-8-4.5-1.5-11c2.2-2.2,4.4-4.3,6.8-6.3c1.4-1.1,3.1-3.1,5-2
			c1.7,1,1.6,3.3,1.6,5.2C450.3,224,450.3,226.4,450.3,228.7z"/>
		<path class="st16" d="M71.7,229.6c-3.5,0.3-7.8,2.4-8.2-3.9c1.9-5,0.7-10.3,0.9-15.4c0.1-4.5,1.7-5,5-2.5c1.5,1.1,3.1,2.2,4.4,3.5
			c9.3,8.8,9.2,8.8-0.3,16.2C72.8,228,72.3,228.8,71.7,229.6z"/>
		<path class="st17" d="M438.7,259.4c5.2-0.3,7.5,3.2,7.6,8.4c0.1,5.1-7,13.2-11.9,12.5c-6.9-0.9-4.8-8-5.3-12
			C428.4,263.5,432,259.5,438.7,259.4z"/>
		<path class="st18" d="M465.5,252.9c0,3.7-1.1,7.2-3.7,9.8c-3.1,3-6.5,4.7-8.7-1c-0.4-1.1-0.9-2.3-1.6-3.2
			c-2.3-2.7-5.7-4.9-2.4-9.1c3.2-4,7.7-4.9,12.2-4.4C465.8,245.4,465.5,249.5,465.5,252.9z"/>
		<path class="st19" d="M50.3,235.7c3.8-0.7,7.6-0.6,11.1,1c5.7,2.6,6.4,5.8,2.4,10.5c-2.1,2.4-2.9,5.3-4,8.2
			C50,254.1,46.5,247,50.3,235.7z"/>
		<path class="st20" d="M422.2,277.1c0.1,3.2-0.6,6.2-2.9,8.6c-2.3,2.4-5.2,3.9-8.3,2.9c-3.9-1.2-1.2-4.4-1.2-6.7
			c0-3.6,0.3-7.2,0.3-10.7c0-3.3,1.1-5.9,4.3-6.5c3.3-0.6,5,2,6.3,4.7C421.9,271.9,422.3,274.5,422.2,277.1z"/>
		<path class="st21" d="M474.6,247.7c5.8-4.8,13.1-6.3,19.9-8.8c2.2-0.8,3.5-0.4,4.3,2c0.8,2.3,0.3,3.8-2.1,4.3
			c-7.2,1.5-14.4,3-21.7,4.4C474.9,249,474.8,248.3,474.6,247.7z"/>
		<path class="st22" d="M467.4,238.3c3-8.8,7.9-16.6,9.6-25.8c0.2-1.1,0.9-2.3,2.4-1.8c1.4,0.4,2.8,1.2,2.1,3
			C478.3,222.7,474.3,231.3,467.4,238.3z"/>
		<path class="st23" d="M336.8,237.3c5.6-1-0.5-3.7,0.7-5.3c9.7,7,19.4,14,29.2,20.9C355.6,249.9,346.2,243.7,336.8,237.3z"/>
		<path class="st24" d="M28.4,237.4c-3.5-0.6-7-1.3-10.5-1.9c-2.5-0.4-3-1.8-2.3-4.1c0.7-2.4,1.8-3,4.2-2c5,2,10.6,2.5,14.8,6.3
			C33,237.7,30.5,236.8,28.4,237.4z"/>
		<path class="st25" d="M46.9,228.2c-6.9-6.7-10.7-15.2-13.9-24c-0.6-1.6,0.2-2.8,1.9-3.2c1.4-0.3,2.2,0.7,2.4,1.9
			C39.1,211.8,43.7,219.6,46.9,228.2z"/>
		<path class="st26" d="M41.6,247.2c-6.8,2.4-11.9,4.2-16.9,5.9c-1.4,0.5-3.3,2-4-0.6c-0.6-2.1-0.5-5.1,1.6-5.7
			C28,245.4,33.9,244.2,41.6,247.2z"/>
		<path class="st27" d="M474,257.6c9.9-5.2,19.5-2.1,19.3,6.4C487.1,261.9,481,259.9,474,257.6z"/>
		<path class="st28" d="M131.8,193.5c0.3,3.3-1.9,5.7-3.1,8.5c-1.8,4.2,1.3,2.1,2.7,2.2c-4.1,6.3-8.1,12.5-12.2,18.8
			c-0.6-6.8,3.5-12.1,6-17.9C126.9,201,129.6,197.3,131.8,193.5z"/>
		<path class="st29" d="M277.7,159.4c-3.2-1.2-3.7,0.6-3.6,3.1c-4.2-7.3-7.2-15-7.8-23.5c-0.1-1.3-0.8-3.3,1.9-1.9
			C269.2,145.5,274.4,152.1,277.7,159.4z"/>
		<path class="st30" d="M482,231.1c2.1-2.5,4.1-5.1,6.3-7.5c1.3-1.5,2.7-3.7,4.8-0.6c1.5,2.2,3.3,4.3-0.2,6.3c-3,1.7-6,3.5-9,5.2
			C482.7,233.7,482.3,232.4,482,231.1z"/>
		<path class="st31" d="M121.7,234.1c3-6.2,5.5-12.6,10.1-17.8c-0.2,1.8-0.4,3.6-0.6,5.7c3.7-1.4,4.9-5.8,8.8-6.3
			c-5.1,6.9-12,12.4-16.5,19.8C122.4,235.6,121.9,235.1,121.7,234.1z"/>
		<path class="st32" d="M25.4,221.6c-1.6-0.9-3.2-1.8-4.7-2.9c-3.3-2.3-0.4-4,0.7-5.7c1.6-2.7,3-1.1,4.3,0.4
			c1.7,1.9,3.3,3.9,4.9,5.9C30.2,223.1,27.2,221.1,25.4,221.6z"/>
		<path class="st33" d="M266.8,434.1c0.2-1.6,0.3-3.1,0.5-4.7c2.4,16,2.4,16,20,20.1c0.4,0.1,0.7,0.4,1.1,0.6c-0.5,0.3-1,0.7-1.6,1
			c-4.1-0.6-8.3-1.1-12.4-1.7C266,447.3,266.7,440.5,266.8,434.1z"/>
		<path class="st34" d="M386.4,229.2c4.4,5.4,5.6,12.5,9.6,18.2c0.1,0.9,0.1,1.8,0.2,2.8c-4.6-5.7-9.1-11.5-13.7-17.2
			c1.4,0.6,2.9,1.2,4.6,1.9C386.8,232.8,386.6,231,386.4,229.2z"/>
		<path class="st35" d="M25.4,221.6c1.8-0.5,4.8,1.5,5.1-2.4c2.7,2.5,5.3,5,7.7,10.3C32.8,226.2,29.1,223.9,25.4,221.6z"/>
		<path class="st36" d="M297.1,131c-3.3-1.2-6.6-2.4-9.9-3.6c-0.6-0.4-1.4-0.6-1.7-1.2c-0.7-1.7,0.9-1.1,1.4-1.1
			c3.6,0.4,7.3,0.8,10.6,2.5C296,128.5,296.8,129.8,297.1,131z"/>
		<path class="st37" d="M122.7,245.7c2.6-3.1,5.2-6.1,7.7-9.2c0.1,2.2,1.3,3.3,3.4,3.5c-3,2-6,4.1-8.9,6.1
			C124.2,246,123.5,245.8,122.7,245.7z"/>
		<path class="st38" d="M482,231.1c0.3,1.3,0.6,2.6,1.9,3.3c-2.6,1.7-4.8,4.3-9,4C477.6,235.7,479.8,233.4,482,231.1z"/>
		<path class="st39" d="M28.4,237.4c2.1-0.6,4.5,0.3,6.1-1.8c2.3-0.1,4.1,0.7,5.5,3.5C35.7,239.5,32.1,238.7,28.4,237.4z"/>
		<path class="st40" d="M104.6,269.3c0,0.7,0.1,1.5,0,2.1c-0.6,2.5,2.8,6.2-1.4,7.3c-4,1.1-7.4-1-9.4-4.8
			c-2.9-5.3-2.1-10.6,0.7-15.7c1.1-2,2.9-4.1,5.6-3.4c2.8,0.7,4.3,2.8,4.4,5.8c0,2.9,0,5.7,0,8.6
			C104.4,269.3,104.5,269.3,104.6,269.3z"/>
		<path class="st41" d="M81.5,250.4c6.7,5.5,2.9,12.1,1.9,18.5c-0.4,2.4-2.1,2.2-3.8,1.7c-3.3-0.9-6.1-2.6-7.9-5.7
			c-0.9-4.3-1.7-8.5-1.3-12.9C73.5,248,77.5,249.9,81.5,250.4C81.4,250.4,81.5,250.4,81.5,250.4z"/>
		<path class="st42" d="M225,166.6c7.1-7.3,14-14.9,22-21.4c-0.9,5.7-3.8,10.6-7.1,15.1c0.2-1.8,0.4-3.6,0.7-5.6
			C234.3,157.4,232.2,165.3,225,166.6z"/>
		<path class="st43" d="M243.6,396.5c2.4,7.9,4.4,15.9,2.2,24.2C244.4,412.7,243,404.7,243.6,396.5z"/>
		<path class="st44" d="M70.3,252c-0.3,4.4,0.4,8.6,1.3,12.9C67.3,261,66.8,256.7,70.3,252z"/>
		<path class="st45" d="M230.4,392.2c2.8,0,5.6-0.1,8.5-0.1c3,0,5.1,1.1,4.7,4.6C240.5,391.5,234.2,395.6,230.4,392.2z"/>
		<path class="st46" d="M335.7,298.3c-1.6,5.9-2.3,12.2-6.2,17.4c-1.2,1.6-0.8,2.8,0.4,4.4c6,8.6,5.4,14-2.9,21.3
			c-3,2.6-3.5,4.3-0.6,7c2.1,2,3.1,4.8,3.7,7.6c0.5,2.3,0.4,4.5-2.2,5.3c-2.4,0.7-4.5-0.6-4.8-3c-0.6-5.2-4.4-7.6-8-10.4
			c-5.2-4-5-5.6,1-8c4.9-2,8.9-4.6,10.1-10.2c0.5-2.2,0.8-4.4-1.4-5.8c-2.3-1.5-4.7-1.2-6.6,0.6c-1.9,1.7-3.8,3.7-5.2,5.8
			c-5.5,8.2-6.5,8.3-11.1,0c-2.1-3.8-5.3-6-9.1-7.7c-4.1-1.9-6.8-0.1-9,3.3c-2.3,3.6,0,6,2.4,7.9c1.8,1.5,4.2,2.3,6.3,3.2
			c2.4,1,5.7,1.6,4.4,5.2c-1.1,3-3.8,1.8-6.1,1c-4.5-1.6-9-1.2-13.3,0.7c-2.6,1.1-4.5,3.4-3.7,6.2c0.8,3,3.8,2.3,6.1,2
			c2.1-0.3,4.1-1.1,6.2-1.7c1.9-0.5,3.9-0.7,4.9,1.5c1,2.2-0.3,3.6-2.2,4.6c-2.7,1.4-5.7,2.5-7.8,4.9c-2.1,2.4-2.5,5.2-0.9,7.9
			c1.6,2.7,4.2,1.8,6.4,1.2c5-1.4,8.9-4.1,10.8-9.4c2.2-6,6.5-6.8,9.6-1.4c2.3,4,10.2,6.9,4.4,13.7c-2.2-0.1-4.4-0.3-5.7-2.3
			c-2.7-4-4.4-1.9-6.2,0.8c-6.7,4.5-13.7,7.7-22,5.7c-2.9-2.5-5.8-5.3-6-9.3c-0.2-4.3-2.3-3.5-5.2-2.9c-16.2,3.5-31.9,2.5-47.7-3.6
			c-5.8-2.2-13.7-2.5-19.5,3c-1,1.8-1.1,4.2-2.9,5.6c-1.4,1-2.8,2-4.5,1c-1.9-1.2-2.5-3-1.1-4.9c2.1-2.9,2.3-6.1,1.7-9.5
			c-0.3-1.8-0.6-4,1.7-4.9c2-0.8,3.7,0,5,1.6c2.3,2.9,5.3,3.9,8.9,3.1c3.9-0.8,8-2,7.7-6.9c-0.3-4.9-4.3-6.3-8.5-7.1
			c-2.9-0.5-7.8,2.7-8.5-2c-0.6-4.6,4.8-4,8-5.2c1.1-0.4,2.3-0.6,3.4-1.2c2.3-1.3,5.1-2.6,4.1-5.8c-1.1-3.5-4.1-2.4-6.7-1.7
			c-4.1,1-7.3,3.4-10.4,6.1c-1.7,1.4-3.3,4-5.9,1.4c-2.4-2.4-0.8-4.3,0.9-6.1c3.6-3.7,4.6-8.2,4.5-13.1c0-1.6,0.6-3.6-1.3-4.5
			c-2-1-3.7,0.5-5.1,1.6c-4.1,3.7-6.3,8.3-6.2,13.9c0,2.4,0.5,4.8-1.7,6.6c-4.4,0.1-5.9-3.4-7.7-6.3c-2-3.1-4-6-8.4-4.8
			c-2.1,0.6-4.2,1.6-4.3,4.1c-0.2,4,2.1,6.5,5.9,7.7l-0.1,0c3,4.3,7.7,2.3,11.7,3c2.2,8.2-3.4,14.4-5.7,21.5c-0.6,1.8-2.7,1.8-4.3,1
			c-1.7-0.8-1.9-2.3-1.8-4.2c0.4-4.7,6-9.3,3.7-12.8c-2.2-3.3-8.5-3.5-12.3-6.5c-7.1-5.7-6.9-12,0.8-18.9c3.7-0.8,7.5-1.6,11.8-2.5
			c-1.7-3.2-3.2-5.8-4.6-8.5c-0.4-7-4.2-13.2-5.3-20c-0.5-3-2.6-7.1,2.4-8.3c4.9-1.2,5.1,2.8,5.8,6.1c2.2,9.8,4.8,19.4,10.1,28.3
			c3.6-2.6,6.5-5.6,10.4-6.9c7.6-2.5,13.5,0.8,13.5,8.7c-0.1,6.3,2.7,6.6,7.6,6.8c9.3,0.3,12.7,7.2,7.9,15.2
			c-0.4,0.6-1.2,1.1-1.2,1.7c0,1.1,0,2.9,0.7,3.3c6.4,3.5,0.4,14.9,10.3,16c12.7,5.7,25.5,3.5,38.7,0.8c-0.9-2-1.7-3.7-2.5-5.3
			c0.3-1.6,0.4-3.3,1-4.9c2-5.3,6.8-7.2,10.9-10.4c2.7-2.1-3.9-8.2-0.9-13.4c4.4-7.9,13.8-9.8,23-4.6c3,1.7,5.9,7,8.4,5.1
			c5.8-4.5,14.5-6.1,16.8-14.5c2-7.3,5-14.4,4.2-22.3c-0.7-6,2.3-6.6,6.8-3.8C335.5,288.2,335.6,293.3,335.7,298.3z"/>
		<path class="st47" d="M242.6,296c-9.5,0.1-16-6.6-16-16.3c0-10,8.5-18.3,18.9-18.5c10-0.2,17.1,6.4,17.2,16
			C263.1,287.7,254.3,295.8,242.6,296z M254.4,276.9c-0.1-4.1-1.2-8.9-7.8-9.3c-6.4-0.4-12.4,4.6-12.4,10.1c-0.1,7,3.2,11,9.1,11.1
			C250.7,288.9,254.4,285.4,254.4,276.9z"/>
		<path class="st48" d="M264.7,227.2c8-6.2,13.2-4.9,16.6,4.5c2.3,6.2,2.2,12.6-0.1,18.8c-2.8,7.3-8.3,9-15.2,5.1
			C260.3,246.4,260.5,236.9,264.7,227.2z"/>
		<path class="st49" d="M235.6,241.2c0,10.1-4.3,16.7-10.7,16.8c-5.4,0.1-10.2-7.6-10.4-16.6c0-1.2,0-2.4,0.1-3.6
			c1.1-10,5-14.8,11.5-14.4c5,0.3,8.9,6.5,9.4,14.9C235.6,239.3,235.6,240.3,235.6,241.2z"/>
		<path class="st50" d="M199,364.8c5.8-5.5,13.7-5.2,19.5-3c15.8,6,31.5,7,47.7,3.6c2.8-0.6,5-1.4,5.2,2.9c0.2,4.1,3.1,6.8,6,9.3
			c-3.9,0.2-5.7-2.5-6.6-5.5c-1.2-4.2-3.8-4.9-7.5-4.3c-15.5,2.6-30.6,1.8-45.5-4.3C212.1,361.2,205.2,363,199,364.8z"/>
		<path class="st51" d="M167.6,333.5c-3.8-1.2-6-3.7-5.9-7.7c0.1-2.5,2.2-3.5,4.3-4.1c4.4-1.2,6.4,1.7,8.4,4.8
			c1.9,2.9,3.4,6.4,7.7,6.3c-1,1.2-1.9,2.4-2.9,3.6C175.2,335.7,170.5,337.8,167.6,333.5c1.3,0.2,2.7,0.5,4.1,0.8
			c1.4,0.3,3.1,0.8,4-0.4c1.2-1.5-0.4-2.6-1.2-3.6c-2.3-3-4-8.8-8.8-6C160,327.5,167.7,330.1,167.6,333.5z"/>
		<path class="st52" d="M265.3,351.9c0.8,1.7,1.6,3.3,2.5,5.3c-13.3,2.6-26.1,4.8-38.7-0.8c8.7,0.2,17.3,1.9,26.1,1.2
			C259.5,357.3,263.5,356.8,265.3,351.9z"/>
		<path class="st53" d="M264.7,227.2c-4.2,9.7-4.4,19.2,1.4,28.4C258,249.2,257.3,235.1,264.7,227.2z"/>
		<path class="st54" d="M166.7,305.5c1.4,2.6,2.9,5.3,4.6,8.5c-4.3,0.9-8,1.7-11.8,2.5c0.6-0.7,1.1-1.9,1.7-2
			C167.2,313.9,167.6,310.1,166.7,305.5z"/>
		<path class="st55" d="M283.6,272.8c0,1.9-0.9,2.8-2.4,3.1c-1.6,0.3-2.8-0.5-3-2.1c-0.3-1.8,0.3-3.3,2.5-3.3
			C282.3,270.5,283.1,271.6,283.6,272.8z"/>
		<path class="st56" d="M290.4,285.7c-0.4,1.7-1.6,2.5-3.2,2.2c-1.7-0.3-3.3-1.2-2.8-3.3c0.4-1.6,1.9-2,3.4-1.7
			C289.5,283.1,290.4,284.1,290.4,285.7z"/>
		<path class="st57" d="M302.9,290.1c-0.5,1.7-1.6,3-3.4,2.7c-1.4-0.3-2.3-1.5-2.3-3.1c0.1-2.2,1.6-2.8,3.4-2.5
			C302,287.4,303.1,288.3,302.9,290.1z"/>
		<path class="st58" d="M290.1,297.3c-0.3,1.6-1.2,2.7-2.9,2.4c-1.8-0.3-3.2-1.5-2.8-3.4c0.3-1.6,1.7-2.3,3.3-2
			C289.2,294.6,290.2,295.6,290.1,297.3z"/>
		<path class="st59" d="M303.4,274.2c2,0.1,3.6,0.7,3.7,2.8c0.1,1.7-1.1,2.6-2.7,2.5c-1.5-0.1-2.7-0.9-3.1-2.5
			C300.9,275.1,302.2,274.6,303.4,274.2z"/>
		<path class="st60" d="M197.2,287.3c1.6,0.2,3.1,1,3.3,2.8c0.2,1.6-1,2.6-2.5,2.6c-1.9-0.1-2.9-1.4-3-3.2
			C194.9,288.3,195.8,287.5,197.2,287.3z"/>
		<path class="st61" d="M335.7,298.3c-0.1-5-0.2-10-0.3-15c4.2,5.2,1.2,11.1,1.6,16.7C337,300.1,335.9,299,335.7,298.3z"/>
		<path class="st62" d="M299.5,371.9c1.8-2.6,3.5-4.7,6.2-0.8c1.3,2,3.6,2.1,5.7,2.3c-1.4,3.1-3.8,1.5-5.3,0.6
			C303.9,372.7,301.9,371.7,299.5,371.9z"/>
		<path class="st63" d="M295.5,268.6c1.4,0.3,2.6,1.1,2.5,2.7c0,1.7-1.4,2.5-2.9,2.1c-1.4-0.3-2.6-1.4-2.3-3
			C293,269.2,294,268.5,295.5,268.6z"/>
		<path class="st64" d="M280.2,290c-0.6,1.8-1.4,3.1-3.1,2.9c-1.5-0.2-2.7-1.2-2.7-2.8c0-1.7,1.4-2.4,2.9-2.3
			C278.9,287.9,279.9,288.8,280.2,290z"/>
		<path class="st65" d="M190.3,283.1c-1.6-0.1-2.6-1.1-3.2-2.5c-0.7-1.6,0.5-2.2,1.7-2.4c1.6-0.2,2.8,0.6,3.2,2.1
			C192.4,281.8,191.5,282.6,190.3,283.1z"/>
		<path class="st66" d="M197.4,272.6c-1.3-0.6-2.7-1.3-2.7-2.9c0-1.3,1.1-2.1,2.4-1.9c1.6,0.2,2.5,1.2,2.5,2.8
			C199.5,271.8,199,272.9,197.4,272.6z"/>
		<path class="st67" d="M213.2,288.4c-0.5,1.2-1.3,2-2.6,1.9c-1.5-0.2-2.7-1-2.5-2.7c0.1-1.5,1.2-1.8,2.5-1.7
			C212,286.1,213.2,286.7,213.2,288.4z"/>
		<path class="st68" d="M208.1,279.1c-0.2,1.6-1.1,2.5-2.7,2.5c-1.4,0-2.1-1-2.3-2.2c-0.2-1.3,0.7-2.3,1.9-2.4
			C206.5,276.8,207.7,277.4,208.1,279.1z"/>
		<path class="st69" d="M348.9,207.9c9.8,9.2,19.5,18.4,27.8,29.1C366.4,228.2,355.8,219.8,348.9,207.9z"/>
		<path class="st70" d="M285.5,158.7c-4.4-6.4-8.6-12.9-10-20.7c2.9,1,4.8,3,5.8,5.8c-2.4,3.2,0.9,5.1,1.7,7.6
			C283.8,153.8,285.8,155.8,285.5,158.7z"/>
		<path class="st4" d="M386.4,229.2c0.2,1.8,0.4,3.6,0.7,5.6c-1.7-0.7-3.1-1.3-4.6-1.9c-24.7-27.9-52.3-52.9-79.6-78.1
			c-5.1-4.7-9.6-9.9-14.4-14.8c1-2.2,3.1-1.9,5-2.2c12.7,5.9,23.2,14.9,33.8,23.7c21,17.4,40.2,36.5,54.8,59.7
			C383.6,223.7,384.9,226.5,386.4,229.2z"/>
		<path class="st71" d="M293.3,137.7c-1.8,0.3-4,0-5,2.2c-1.9-1.9-4-3.8-5.7-5.8c-1.5-1.8,0.4-1.5,1.3-1.7
			C287.1,134.2,290.2,135.9,293.3,137.7z"/>
		<path class="st72" d="M133.9,240.1c-2.1-0.2-3.3-1.3-3.4-3.5c21.5-25.6,45.6-48.5,71.8-69.1c4.1-3.2,8.4-6.2,12.6-9.3
			c5.1-0.1,7.6-5.5,12.9-6.9c-1.5,3.4-4.8,4.5-5.1,7.6c-1.3,1.2-2.6,2.5-4,3.7c-6,1.8-9.8,5.9-12,11.7
			c-19.2,22.3-41.2,41.6-64.1,60.1C139.9,236.5,136.8,238.1,133.9,240.1z"/>
		<path class="st73" d="M222.6,158.8c0.3-3.2,3.6-4.3,5.1-7.6c-5.3,1.4-7.8,6.8-12.9,6.9c8.6-6.5,15.7-15.1,26.4-18.6
			C237.1,147.9,229.2,152.7,222.6,158.8z"/>
		<path class="st74" d="M206.7,174.2c2.2-5.8,6-9.9,12-11.7C214.7,166.4,210.7,170.3,206.7,174.2z"/>
		<path class="st75" d="M140,215.7c-3.9,0.6-5.1,4.9-8.8,6.3c0.2-2.1,0.4-3.9,0.6-5.7c15.4-25,37.2-43.6,61.1-59.9
			c6.1-4.1,12.5-7.7,18.8-11.5c2.1,1.1,4.9-2.9,6.6,1c-15.3,12.8-30.9,25.4-45.9,38.6C161.2,194.5,150.8,205.3,140,215.7z"/>
		<path class="st76" d="M218.3,146c-1.7-3.9-4.5,0.1-6.6-1c5-3.8,10.3-7,16.3-9c0.2,0.8,0.4,1.6,0.6,2.4
			C225.2,140.9,221.8,143.4,218.3,146z"/>
		<path class="st77" d="M228.6,138.3c-0.2-0.8-0.4-1.6-0.6-2.4c2.7-1.6,5.5-3.2,8.7-3.6C235.1,135.8,231.5,136.6,228.6,138.3z"/>
		<path class="st78" d="M254.4,276.9c0,8.5-3.7,12.1-11.1,11.9c-5.9-0.1-9.2-4.1-9.1-11.1c0-5.5,6-10.5,12.4-10.1
			C253.2,268,254.3,272.8,254.4,276.9z"/>
		<path class="st79" d="M167.6,333.5c0.1-3.4-7.6-6-1.9-9.3c4.8-2.8,6.5,3,8.8,6c0.8,1.1,2.4,2.2,1.2,3.6c-1,1.2-2.6,0.7-4,0.4
			C170.3,334,168.9,333.7,167.6,333.5C167.5,333.5,167.6,333.5,167.6,333.5z"/>
	</g>
</g>
</svg>
