<svg width="512" height="512" viewBox="0 0 512 512" fill="none" xmlns="http://www.w3.org/2000/svg">
<path d="M47.913 352.888C41.984 345.981 37.866 338.21 36.55 329.099C36.608 324.665 36.666 320.231 36.725 315.797C41.787 313.266 45.369 308.921 49.501 305.267C54.24 301.076 59.4121 297.75 65.6071 296.281C68.1781 295.671 71.5481 294.558 73.2321 296.727C76.8771 301.421 80.7741 299.197 84.9801 298.458C103.715 295.166 120.148 299.602 133.7 313.422C139.317 319.15 144.82 317.875 147.575 310.341C148.416 308.041 146.361 306.785 145.424 305.258C131.764 282.984 123.911 259.095 124.91 232.694C124.994 230.478 124.942 228.201 125.446 226.068C126.369 222.158 124.251 220.95 121.066 220.144C117.853 219.331 116.551 220.411 115.517 223.615C112.183 233.944 104.672 239.721 94.0131 240.761C82.5441 241.88 76.4211 234.224 78.1621 220.836C78.6991 216.702 78.485 214.511 73.839 213.925C66.117 212.952 61.8241 207.684 60.5131 200.648C59.0761 192.943 63.354 187.558 69.922 183.878C70.299 183.667 70.598 183.318 70.931 183.029C65.247 174.665 64.944 169.609 69.769 163.723C75.864 156.288 84.55 154.885 95.808 159.519C99.174 148.041 106.245 141.384 116.054 140.459C125.575 139.562 132.274 145.488 132.814 155.096C133.144 160.953 131.646 166.551 130.851 172.256C130.632 173.831 128.454 176.183 132 177.005C135.007 177.702 135.121 175.216 135.852 173.524C142.513 158.109 151.227 144.054 162.964 131.939C187.162 106.961 217.266 94.7391 251.343 92.0191C283.296 89.4681 314.409 93.1811 342.944 109.133C379.756 129.713 398.589 162.594 406.009 203.023C406.689 206.729 407.188 210.468 407.842 214.649C409.571 214.477 411.396 214.296 413.315 214.106C411.607 200.406 412.894 188.576 431.16 189.596C437.698 189.961 438.916 191.739 442.628 201.305C448.747 197.708 455.305 196.523 462.098 198.903C465.933 200.247 469.22 202.508 471.452 206.05C475.13 211.886 474.081 216.392 467.024 223.857C475.16 227.118 482.462 231.193 483.375 241.066C481.939 250.233 474.682 252.734 467.284 254.772C462.833 255.998 460.559 257.15 462.688 262.708C465.23 269.342 462.672 275.382 457.094 279.84C447.257 287.703 428.577 287.047 419.237 278.597C415.112 274.864 413.744 271.744 412.437 262.882C409.552 263.625 409.234 266.034 408.541 268.26C400.065 295.499 384.218 317.305 360.6 333.435C359.237 334.366 355.814 334.447 357.47 337.563C358.71 339.896 360.272 340.947 363.651 340.104C380.003 336.024 396.507 334.804 412.975 339.762C419.472 341.718 425.216 344.92 429.738 350.113C430.579 351.079 431.728 352.697 432.57 352.599C441.128 351.601 441.871 358.156 443.816 363.735C446.146 370.415 449.508 376.715 450.531 383.873C451.347 389.587 450.252 394.61 445.895 398.41C427.543 414.416 408.882 429.921 382.55 429.837C379.376 429.827 377.481 430.702 379.453 433.95C382.039 438.209 379.215 440.121 376.374 441.909C363.96 449.724 350.166 450.906 335.987 449.984C333.776 449.84 331.577 449.461 329.381 449.135C319.167 447.619 318.944 446.986 316.856 437.173C315.528 430.931 313.046 424.927 310.97 418.854C309.28 413.909 309.341 409.332 312.856 405.083C316.809 400.304 315.615 395.021 313.738 389.934C310.283 380.57 303.36 372.843 300.864 363C300.294 360.751 298.601 361.447 297.099 361.632C261.199 366.073 227.407 357.921 194.677 344.082C189.701 341.978 186.428 342.4 182.348 345.855C167.296 358.599 155.22 373.909 143.478 389.554C142.394 390.999 141.508 392.402 141.803 394.392C142.957 402.154 138.97 407.507 133.344 412.065C129.381 415.276 125.145 418.201 122.049 422.35C121.005 423.75 119.915 424.484 118.122 423.799C101.399 417.415 85.0961 410.359 74.9281 394.425C72.8021 391.093 71.329 387.325 69.736 383.679C68.119 379.977 67.0871 376.294 74.1331 375.074C63.9451 367.955 55.359 361.064 47.913 352.888ZM136.949 367.878C139.688 367.701 138.776 371.107 140.714 371.716C145.927 371.627 148.457 369.432 146.807 363.955C148.387 362.243 151.157 364.617 152.555 362.281C153.167 359.972 156.016 358.95 156.074 356.244C153.695 355.128 150.793 356.469 148.66 354.549C148.675 353.624 148.689 352.699 148.704 351.774C152.446 351.586 156.187 351.399 160.6 351.178C158.32 348.413 155.934 349.474 154.013 348.856C151.543 345.882 145.982 350.419 144.538 344.955C145.392 343.742 147.565 344.625 148.058 342.808C145.182 339.876 141.174 338.248 139.146 334.496C138.805 331.961 136.965 330.345 135.386 328.63C134.462 327.627 133.4 325.646 131.812 326.865C130.212 328.093 131.43 329.587 132.672 330.594C134.386 331.982 134.851 333.716 134.341 335.791C132.022 338.3 129.187 340.936 125.971 338.342C123.197 336.105 124.842 332.67 126.154 329.844C126.8 328.453 127.551 327.111 128.289 325.765C130.766 321.242 128.621 320.403 124.565 321.07C123.134 319.821 121.702 318.573 120.271 317.324C119.313 317.34 118.336 317.312 117.849 318.394C117.004 317.515 116.159 316.635 115.314 315.756C114.442 315.765 113.569 315.774 112.697 315.783C111.782 315.347 110.867 314.91 109.952 314.474C104.625 311.438 99.292 313.992 93.961 314.458C93.079 312.806 92.4811 311.084 92.6471 309.172C89.6561 304.41 88.832 310.152 86.867 310.364C85.609 309.982 84.3511 309.601 83.0921 309.219C80.0351 310.128 75.522 310.152 75.768 314.374C76.314 323.735 78.31 332.822 84.736 340.304C86.401 342.242 87.8791 342.421 89.7491 340.877C90.8611 341.476 91.1961 342.493 91.2471 343.663C90.4751 344.928 89.702 346.193 88.93 347.458C89.63 349.375 89.4881 351.669 91.4241 353.033C94.0931 355.194 96.761 357.355 99.43 359.517C100.386 360.608 101.341 361.698 102.295 362.788C103.276 363.965 104.657 363.621 105.916 363.74C106.829 364.206 107.743 364.672 108.656 365.138C106.542 366.615 108.022 367.347 109.102 368.618C113.673 373.996 120.456 376.322 125.59 380.887C126.66 380.973 127.73 381.059 128.8 381.146C129.502 384.939 131.644 386.282 134.752 383.78C138.324 380.905 141.015 377.423 136.424 373.057C136.599 371.329 136.774 369.603 136.949 367.878ZM415.695 367.634C419.381 364.907 424.549 363.052 422.116 356.724C420.836 355.514 419.557 354.303 418.277 353.093C414.001 351.048 413.36 355.503 411.119 357.096C410.011 358.24 409.313 359.957 407.298 359.836C406.459 359.325 405.621 358.814 404.782 358.303C407.008 353.623 410.883 348.585 402.112 346.331C401.513 346.177 401.013 345.636 400.466 345.275C398.023 345.312 395.579 345.409 393.137 345.37C389.587 345.313 388.445 347.232 388.769 350.455C387.868 352.669 386.968 354.882 386.067 357.096C386.82 360.534 383.794 360.94 381.919 362.269C380.629 362.331 379.339 362.394 378.049 362.456C377.47 360.032 376.891 357.608 376.102 354.308C372.598 359.636 376.481 364.372 375.139 368.819C373.417 370.382 371.429 370.807 369.201 370.21C366.867 367.765 368.333 365.392 369.329 363.003C370.262 360.765 371.254 358.481 369.69 356.167C369.258 355.528 368.443 354.848 367.46 355.54C365.03 357.248 365.486 359.777 365.815 362.108C366.267 365.318 366.107 368.214 363.329 370.395C360.992 370.448 358.909 369.958 357.683 367.699C354.619 362.053 362.161 360.363 362.512 355.339C356.966 355.608 352.868 358.044 349.056 361.087C344.566 364.671 340.149 368.345 335.7 371.981C333.306 372.807 334.128 375.561 332.709 376.972C329.876 376.993 327.038 376.921 324.212 377.068C322.261 377.17 319.504 376.111 319.434 379.717C321.343 382.068 319.621 385.581 322.015 387.777C326.205 388.089 328.54 383.344 332.791 383.825L332.672 383.773C333.81 386.488 337.15 388.002 336.88 391.486C337.071 395.349 333.294 395.258 331.371 397.014C330.473 399.926 324.091 398.52 326.095 403.715C329.023 409.976 333.667 410.695 339.418 407.842L339.449 407.816C341.268 406.101 344.426 407.373 345.913 404.919L345.932 404.94C349.071 405.283 352.213 408.453 355.348 404.931C357.112 403.579 358.208 402.046 356.74 399.815C357.559 398.924 358.378 398.034 359.198 397.144C360.013 398.619 361.304 398.84 362.803 398.511C362.988 399.653 362.963 401.673 363.397 401.777C364.878 402.132 364.882 400.141 365.87 399.474C366.387 399.125 366.903 398.776 367.419 398.428C372.546 401.743 381.772 398.05 383.247 392.093C383.616 390.343 383.117 388.05 385.919 387.823C386.443 388.665 386.966 389.508 387.49 390.35C388.425 391.615 389.532 394.507 390.09 390.24C390.321 388.477 389.935 386.602 392.714 387.762C397.005 388.537 399.511 385.624 402.096 383.071C404.556 380.642 400.526 381.45 400.525 380.189C401.071 374.938 407.1 379.037 408.618 375.444C409.63 373.771 410.642 372.099 411.654 370.426C412.875 369.315 413.647 367.55 415.695 367.634ZM386.074 406.443C393.769 404.046 399.676 399.046 405.243 393.504C398.651 397.917 391.198 400.721 384.559 404.969C364.409 413.365 343.357 416.925 321.575 416.659C344.652 423.075 365.843 417.768 386.074 406.443ZM69.961 357.313C66.479 351.166 62.646 345.187 59.614 338.826C56.5 332.293 54.1631 325.388 51.4991 318.641C51.1261 317.698 51.5581 316.179 50.0731 316.033C48.5141 315.88 47.772 317.165 47.252 318.389C45.161 323.304 45.0581 328.27 47.0731 333.242C51.5271 344.226 59.1191 352.739 68.2191 360.062C70.0061 362.126 72.0381 363.774 75.7621 365.034C73.5551 361.552 72.408 358.952 69.961 357.313ZM126.023 393.1C117.606 386.574 109.035 380.234 100.809 373.474C90.1181 364.689 80.1601 354.997 74.1321 342.368C68.3061 330.162 61.766 317.759 67.847 302.248C60.943 306.967 60.716 312.926 61.209 318.817C62.104 329.51 66.859 338.834 72.75 347.539C86.186 367.392 103.858 382.654 124.534 394.573C126.968 396.094 129.403 397.614 133.428 400.129C130.92 395.74 128.352 394.56 126.023 393.1ZM387.444 415.939C383.489 416.973 379.534 418.007 374.214 419.397C382.083 421.299 388.321 421.006 394.454 418.61C396.754 418.832 398.792 417.928 400.88 417.173C414.14 412.379 424.506 403.469 434.668 394.073C438.76 390.29 440.606 386.623 438.605 381.34C438.085 379.967 438.779 377.874 436.949 377.326C435.091 376.769 434.354 378.737 433.494 379.854C421.216 395.819 406.152 408.196 387.444 415.939ZM432.472 211.077C432.586 211.077 432.7 211.077 432.814 211.077C432.814 209.299 432.936 207.511 432.787 205.745C432.527 202.665 433.81 198.187 428.61 198.431C423.855 198.655 422.521 202.569 422.778 206.636C422.971 209.696 423.682 212.832 424.778 215.698C426.302 219.682 424.876 221.343 421.087 222.117C415 223.36 408.942 224.748 402.88 226.113C399.011 226.984 397.081 225.788 396.975 221.523C396.738 211.936 395.03 202.522 392.694 193.252C382.849 154.183 360.994 124.816 322.554 110.316C281.913 94.9851 241.454 97.6891 201.983 115.213C178.065 125.832 160.328 142.828 150.569 167.555C148.615 172.507 146.08 177.229 144.044 182.152C142.519 185.838 140.125 187.275 136.236 186.243C131.303 184.933 126.3 183.898 121.678 181.571C118.216 179.828 116.626 178.268 119.108 173.98C122.584 167.975 124.354 161.243 122.463 154.12C121.628 150.975 119.815 148.954 116.326 149.23C112.886 149.503 110.256 151.108 109.855 154.766C109.493 158.065 109.758 161.429 109.531 164.749C109.282 168.387 111.3 173.279 107.679 175.244C104.831 176.79 102.066 172.551 99.156 171.094C96.378 169.703 93.68 168.134 90.835 166.903C89.237 166.211 87.3981 165.653 85.6911 165.715C81.2041 165.877 77.5201 168.311 77.1931 172.675C76.8641 177.069 80.9821 178.107 84.7071 178.448C87.1391 178.671 89.6021 178.575 92.0271 178.842C95.798 179.257 100.989 179.634 100.889 183.995C100.798 187.938 95.5761 187.213 92.2301 187.879C87.2291 188.874 81.9461 187.92 77.1461 190.084C72.4161 192.216 68.962 198.267 70.739 201.901C73.172 206.874 77.627 207.002 82.215 205.616C85.82 204.527 89.2811 202.974 92.8571 201.777C95.8821 200.764 99.304 199.905 101.274 203.215C103.443 206.858 99.447 208.204 97.625 209.985C93.163 214.347 88.223 218.181 88.159 225.315C88.104 231.472 90.312 233.439 96.242 231.869C99.501 231.006 101.431 228.689 102.808 225.73C104.443 222.215 104.826 218.482 105.03 214.695C105.195 211.616 106.3 209.738 109.921 209.996C116.573 210.469 123.157 211.006 129.666 212.761C134.424 214.044 135.875 216.357 135.593 221.296C133.839 252.009 141.6 280.308 158.525 305.937C161.609 310.607 161.003 313.338 156.864 316.247C155.602 317.134 154.542 318.312 153.402 319.371C143.83 328.261 143.883 328.904 154.816 336.778C167.236 345.723 168.668 345.697 178.886 334.454C182.055 330.967 184.729 330.225 189.22 332.301C198.895 336.771 209.034 340.159 219.27 343.186C243.084 350.227 267.32 354.422 292.212 352.465C306.374 351.352 306.304 350.877 311.928 363.643C312.851 365.738 313.029 368.826 316.373 368.699C324.167 368.403 331.529 366.495 336.591 360.163C340.424 355.369 338.008 349.573 337.195 344.388C336.392 339.268 335.448 335.55 341.581 332.504C369.759 318.507 387.54 295.449 397.618 266.046C401.276 255.372 404.471 253.087 415.648 252.752C421.466 252.578 424.024 254.169 423.328 260.888C422.014 273.576 432.046 281.032 444.468 277.511C450.412 275.826 453.339 271.843 453.777 265.965C454.196 260.344 450.548 257.645 445.883 255.754C442.126 254.232 435.947 253.007 437.361 248.396C439.021 242.98 444.601 246.447 448.366 247.544C455.643 249.663 462.431 249.127 468.768 244.88C471.56 243.009 473.218 240.352 472.27 236.913C471.267 233.277 468.667 231.588 464.81 231.533C460.077 231.465 455.525 232.473 451.008 233.592C447.931 234.354 444.877 234.523 441.759 234.414C440.05 234.354 438.675 233.588 438 232.087C437.132 230.158 438.852 229.231 440.036 228.413C442.403 226.779 444.909 225.339 447.41 223.909C451.445 221.602 455.906 219.984 459.248 216.567C461.651 214.11 464.258 210.863 462.239 207.867C460.049 204.616 455.774 205.733 452.414 206.941C449.388 208.028 447.418 210.589 445.714 213.219C444.388 215.267 443.311 217.474 442.044 219.563C440.634 221.886 439.112 224.284 435.828 223.482C432.429 222.652 432.469 219.804 432.473 217.074C432.475 215.074 432.472 213.076 432.472 211.077ZM125.019 406.447C125.126 405.226 124.055 405.106 123.333 404.764C110.725 398.781 100.618 389.359 90.223 380.398C86.844 377.485 84.4601 377.599 81.2601 380.341C77.7771 383.325 79.6741 385.764 81.4821 388.373C89.7151 400.253 101.237 407.93 114.151 413.774C116.679 414.917 125.116 409.086 125.019 406.447ZM339.31 441.058C348.201 441.296 356.88 440.053 365.449 437.576C369.96 436.272 369.592 433.207 368.301 430.396C367.152 427.895 367.507 422.843 362.218 424.606C350.269 428.589 338.146 430.056 325.686 427.585C324.376 427.325 323.239 426.869 322.879 429.004C321.934 434.6 326.356 440.648 332.022 441.031C334.44 441.194 336.88 441.058 339.31 441.058ZM431.153 364.188C428.225 368.689 425.296 373.19 422.368 377.691C427.088 374.266 432.101 371.081 431.153 364.188ZM108.946 308.894C106.059 307.475 103.044 305.312 98.6761 308.894C102.984 308.894 105.965 308.894 108.946 308.894Z" fill="#040202"/>
<path d="M464.762 381.657C471.94 385.09 474.194 390.176 472.413 397.359C470.437 405.329 466.139 409.019 457.414 409C465.325 401.008 471.683 392.985 464.762 381.657Z" fill="#0B0C0A"/>
<path d="M288.755 420.196C280.913 433.957 281.614 438.692 292.175 440.131C289.541 442.864 287.139 444.669 283.578 442.43C279.614 439.937 277.361 431.721 279.172 426.053C280.652 421.42 283.66 419.119 288.755 420.196Z" fill="#11100F"/>
<path d="M459.269 292.895C470.338 291.988 477.281 288.09 478.358 277.672C478.463 276.659 478.986 275.877 479.983 276.214C481.575 276.752 482.245 278.093 482.397 279.773C482.938 285.729 479.936 289.849 475.439 293.125C470.392 296.8 466.4 296.931 459.269 292.895Z" fill="#0E0E0C"/>
<path d="M156.563 402.877C162.381 402.556 165.036 405.479 165.54 412.31C166.033 418.999 162.007 422.186 149.747 423.701C157.271 417.694 164.977 412.388 156.563 402.877Z" fill="#121211"/>
<path d="M25.494 311.775C15.857 314.632 15.911 321.409 16.334 328.475C16.422 329.936 17.882 332.219 15.365 332.849C12.434 333.583 12.35 330.566 11.909 329.026C10.075 322.625 11.671 316.781 16.011 311.831C18.59 308.89 20.2 308.949 25.494 311.775Z" fill="#161616"/>
<path d="M435.376 162.418C441.263 163.194 446.651 164.859 448.993 171.2C449.438 172.404 450.115 173.93 448.573 174.752C447.257 175.454 445.988 174.57 445.059 173.612C444.301 172.831 443.693 171.871 443.157 170.913C440.07 165.388 435.894 165.062 430.901 168.227C429.117 169.358 426.649 171.961 425.233 169.709C423.53 167 426.695 165.11 428.906 163.778C430.818 162.628 433.016 162.079 435.376 162.418Z" fill="#0F0F0F"/>
<path d="M54.721 167.347C48.063 164.088 46.899 160.147 50.666 153.629C54.969 146.183 60.599 144.293 66.667 148.257C53.455 154.221 52.028 156.502 54.721 167.347Z" fill="#111111"/>
<path d="M432.472 211.077C432.472 213.075 432.475 215.074 432.471 217.072C432.467 219.802 432.427 222.65 435.826 223.48C439.11 224.282 440.633 221.884 442.042 219.561C443.309 217.473 444.386 215.265 445.712 213.217C447.416 210.586 449.387 208.026 452.412 206.939C455.772 205.732 460.046 204.614 462.237 207.865C464.256 210.861 461.648 214.108 459.246 216.565C455.905 219.982 451.443 221.6 447.408 223.907C444.907 225.337 442.401 226.777 440.034 228.411C438.849 229.229 437.129 230.155 437.998 232.085C438.673 233.586 440.048 234.352 441.757 234.412C444.875 234.521 447.93 234.352 451.006 233.59C455.523 232.471 460.075 231.464 464.808 231.531C468.665 231.586 471.265 233.276 472.268 236.911C473.217 240.35 471.559 243.007 468.766 244.878C462.43 249.124 455.641 249.66 448.364 247.542C444.599 246.446 439.02 242.978 437.359 248.394C435.945 253.006 442.124 254.23 445.881 255.752C450.546 257.642 454.194 260.342 453.775 265.963C453.337 271.841 450.41 275.824 444.466 277.509C432.044 281.031 422.012 273.574 423.326 260.886C424.022 254.167 421.464 252.575 415.646 252.75C404.469 253.085 401.274 255.371 397.616 266.044C387.538 295.447 369.758 318.506 341.579 332.502C335.446 335.548 336.39 339.266 337.193 344.386C338.006 349.571 340.422 355.367 336.589 360.161C331.527 366.493 324.165 368.401 316.371 368.697C313.027 368.824 312.849 365.736 311.926 363.641C306.302 350.875 306.372 351.35 292.21 352.463C267.319 354.42 243.082 350.225 219.268 343.184C209.031 340.157 198.893 336.769 189.218 332.299C184.726 330.224 182.053 330.965 178.884 334.452C168.666 345.694 167.234 345.721 154.814 336.776C143.881 328.902 143.828 328.259 153.4 319.369C154.54 318.31 155.6 317.132 156.862 316.245C161.001 313.336 161.607 310.604 158.523 305.935C141.597 280.307 133.836 252.007 135.591 221.294C135.873 216.355 134.422 214.041 129.664 212.759C123.155 211.004 116.572 210.467 109.919 209.994C106.297 209.736 105.193 211.614 105.028 214.693C104.825 218.48 104.442 222.213 102.806 225.728C101.429 228.687 99.4988 231.004 96.2398 231.867C90.3098 233.437 88.1018 231.471 88.1568 225.313C88.2208 218.179 93.1608 214.345 97.6228 209.983C99.4448 208.202 103.441 206.855 101.272 203.213C99.3018 199.903 95.8798 200.762 92.8548 201.775C89.2798 202.973 85.8178 204.525 82.2128 205.614C77.6238 207.001 73.1688 206.873 70.7368 201.899C68.9588 198.265 72.4138 192.214 77.1438 190.082C81.9438 187.918 87.2268 188.872 92.2278 187.877C95.5738 187.211 100.796 187.936 100.887 183.993C100.988 179.632 95.7958 179.255 92.0248 178.84C89.5998 178.573 87.1368 178.669 84.7048 178.446C80.9798 178.104 76.8628 177.067 77.1908 172.673C77.5178 168.308 81.2018 165.875 85.6888 165.713C87.3948 165.651 89.2338 166.209 90.8328 166.901C93.6778 168.133 96.3758 169.701 99.1538 171.092C102.064 172.549 104.829 176.788 107.677 175.242C111.298 173.277 109.28 168.385 109.529 164.747C109.756 161.427 109.491 158.063 109.853 154.764C110.255 151.106 112.885 149.501 116.324 149.228C119.813 148.951 121.626 150.973 122.461 154.118C124.352 161.241 122.582 167.974 119.106 173.978C116.624 178.265 118.214 179.826 121.676 181.569C126.298 183.896 131.301 184.932 136.234 186.241C140.123 187.273 142.517 185.836 144.042 182.15C146.078 177.227 148.613 172.506 150.567 167.553C160.325 142.826 178.062 125.831 201.981 115.211C241.452 97.686 281.911 94.983 322.552 110.314C360.992 124.814 382.847 154.181 392.692 193.25C395.028 202.52 396.736 211.934 396.973 221.521C397.079 225.786 399.009 226.983 402.878 226.111C408.94 224.746 414.998 223.358 421.085 222.115C424.873 221.341 426.3 219.68 424.776 215.696C423.679 212.83 422.969 209.693 422.776 206.634C422.519 202.566 423.853 198.652 428.608 198.429C433.808 198.184 432.525 202.662 432.785 205.743C432.934 207.509 432.812 209.297 432.812 211.075C432.7 211.077 432.586 211.077 432.472 211.077ZM194.986 235.094C194.6 249.711 196.111 264.562 204.885 277.833C227.249 311.658 283.588 324.881 319.343 279.625C341.147 252.027 349.317 218.578 356.856 185.092C357.801 180.897 358.831 175.778 354.203 173.822C349.098 171.665 347.149 177.177 344.811 180.392C339.995 187.014 336.389 194.537 329.863 199.859C312.122 214.329 291.585 216.735 270.023 212.939C243.696 208.304 215.834 188.212 219.047 157.015C219.256 154.987 219.187 152.894 216.692 152.126C214.316 151.394 212.344 152.104 210.725 153.961C208.923 156.028 207.936 158.46 207.315 161.095C205.584 168.434 203.873 175.779 202.049 183.095C197.846 199.946 194.5 216.91 194.986 235.094ZM302.091 150.17C302.083 164.112 312.43 170.194 324.489 163.155C332.466 158.499 336.646 150.988 338.214 142.186C339.683 133.937 336.532 128.114 330.268 125.85C323.267 123.319 310.008 126.963 306.932 132.455C303.865 137.929 302.112 143.832 302.091 150.17ZM292.528 128.192C292.65 120.097 288.277 116.157 278.827 115.851C267.122 115.471 257.855 125.327 257.686 138.338C257.566 147.538 262.357 153.062 270.64 153.275C281.427 153.552 292.334 141.054 292.528 128.192Z" fill="#CF2D37"/>
<path d="M335.699 371.98C340.148 368.345 344.565 364.67 349.055 361.086C352.867 358.043 356.964 355.607 362.511 355.338C362.16 360.362 354.618 362.052 357.682 367.698C358.908 369.958 360.991 370.448 363.328 370.395C365.285 370.334 367.243 370.272 369.2 370.21C371.428 370.808 373.416 370.382 375.137 368.82C376.138 368.907 377.141 368.994 378.143 369.08C378.519 377.044 380.843 384.577 383.245 392.092C381.77 398.049 372.544 401.742 367.417 398.427C363.207 385.174 353.054 378.716 340.599 374.757C338.872 374.209 335.715 375.689 335.699 371.98Z" fill="#E34439"/>
<path d="M99.43 359.515C96.761 357.354 94.093 355.193 91.425 353.032C91.389 350.352 92.786 348.317 94.818 346.934C102.23 341.892 107.432 334.848 112.627 327.775C112.127 332.623 115.454 333.052 118.909 333.01C122.634 332.965 123.656 330.678 123.188 327.296C122.882 325.085 123.286 322.963 124.566 321.069C128.622 320.401 130.767 321.241 128.29 325.764C127.553 327.11 126.801 328.453 126.155 329.843C124.843 332.669 123.198 336.104 125.972 338.341C129.188 340.935 132.023 338.299 134.341 335.79C135.943 335.359 137.545 334.927 139.147 334.496C141.174 338.248 145.183 339.876 148.059 342.808C147.566 344.624 145.393 343.742 144.54 344.955C138.351 345.205 132.485 347.192 126.455 348.288C116.603 350.078 108.403 355.697 99.43 359.515Z" fill="#E2443B"/>
<path d="M125.016 406.45C125.116 409.087 116.679 414.917 114.151 413.774C101.237 407.93 89.7152 400.253 81.4822 388.373C79.6732 385.763 77.7772 383.324 81.2602 380.341C84.4602 377.6 86.8442 377.485 90.2232 380.398C100.618 389.359 110.725 398.781 123.333 404.764C124.055 405.106 125.127 405.226 125.016 406.45Z" fill="#E1453B"/>
<path d="M339.31 441.058C336.88 441.058 334.441 441.194 332.022 441.031C326.357 440.649 321.934 434.6 322.879 429.004C323.24 426.868 324.376 427.325 325.686 427.585C338.145 430.056 350.269 428.589 362.218 424.606C367.507 422.843 367.152 427.896 368.301 430.396C369.592 433.208 369.96 436.272 365.449 437.576C356.88 440.052 348.201 441.296 339.31 441.058Z" fill="#E0433A"/>
<path d="M387.444 415.939C406.152 408.196 421.217 395.819 433.495 379.855C434.355 378.737 435.092 376.77 436.95 377.327C438.78 377.875 438.086 379.968 438.606 381.341C440.607 386.624 438.761 390.291 434.669 394.074C424.508 403.47 414.141 412.38 400.881 417.174C398.792 417.929 396.754 418.833 394.453 418.611C392.128 417.686 388.497 420.192 387.444 415.939Z" fill="#DC463C"/>
<path d="M124.535 394.575C103.859 382.656 86.1871 367.394 72.7511 347.541C66.8601 338.836 62.1051 329.512 61.2101 318.819C60.7171 312.927 60.9431 306.968 67.8481 302.25C61.7671 317.761 68.3071 330.163 74.1331 342.37C80.1611 354.999 90.1191 364.69 100.81 373.476C109.036 380.236 117.607 386.575 126.024 393.102C125.527 393.592 125.031 394.083 124.535 394.575Z" fill="#BD5551"/>
<path d="M68.2189 360.061C59.1189 352.738 51.5269 344.225 47.0729 333.241C45.0569 328.27 45.1599 323.303 47.2519 318.388C47.7729 317.164 48.5139 315.879 50.0729 316.032C51.5579 316.178 51.1259 317.697 51.4989 318.64C54.1639 325.387 56.4999 332.292 59.6139 338.825C62.6459 345.186 66.4789 351.165 69.9609 357.311C69.8319 358.514 69.3759 359.509 68.2189 360.061Z" fill="#DA483E"/>
<path d="M148.661 354.549C150.794 356.469 153.696 355.128 156.075 356.244C156.016 358.949 153.168 359.971 152.556 362.28C147.646 358.462 142.28 357.359 136.54 360.039C132.901 361.737 129.633 362.761 125.341 361.471C121.635 360.357 118.746 363.277 117.29 366.868C116.146 369.69 116.788 372.24 119.557 373.657C123.038 375.439 124.733 372.696 126.499 370.421C127.198 370.435 127.897 370.448 128.596 370.462C128.856 374.3 126.92 377.505 125.591 380.885C120.457 376.321 113.674 373.995 109.103 368.617C108.023 367.346 106.543 366.614 108.657 365.137C121.616 360.188 134.409 354.612 148.661 354.549Z" fill="#C5534D"/>
<path d="M89.75 340.875C87.879 342.42 86.401 342.241 84.736 340.303C78.31 332.822 76.3139 323.735 75.7679 314.373C75.5219 310.151 80.035 310.127 83.092 309.217C83.139 312.94 83.5899 316.715 83.1269 320.375C82.5989 324.538 82.372 328.361 86.537 330.678C91.092 333.212 95.39 332.319 99.264 328.983C98.437 334.822 92.398 336.492 89.75 340.875Z" fill="#D04942"/>
<path d="M126.498 370.42C124.732 372.695 123.037 375.438 119.556 373.656C116.787 372.239 116.145 369.689 117.289 366.867C118.745 363.276 121.634 360.356 125.34 361.47C129.632 362.76 132.901 361.737 136.539 360.038C142.279 357.359 147.645 358.462 152.555 362.279C151.156 364.616 148.386 362.242 146.807 363.953C139.428 361.257 137.906 361.889 134.085 369.236C132.323 373.204 130.561 377.173 128.799 381.141C127.729 381.055 126.659 380.969 125.589 380.882C126.917 377.501 128.854 374.297 128.594 370.459C129.603 366.433 127.398 365.221 123.948 365.353C121.054 365.464 120.563 366.321 120.715 370.213C125.315 366.633 125.315 366.633 126.498 370.42Z" fill="#200404"/>
<path d="M400.524 380.189C400.524 381.45 404.555 380.642 402.095 383.071C399.51 385.624 397.004 388.537 392.713 387.762C389.788 377.74 386.475 367.787 387.203 357.107C391.815 352.814 396.293 356.348 400.815 357.339C401.212 358.225 401.61 359.11 402.007 359.996C397.075 360.358 393.31 362.301 392.78 367.721C392.193 373.729 394.785 377.994 400.524 380.189Z" fill="#D34B42"/>
<path d="M386.074 406.443C365.843 417.768 344.652 423.075 321.575 416.659C343.357 416.925 364.409 413.365 384.559 404.969C385.064 405.461 385.569 405.952 386.074 406.443Z" fill="#C4534D"/>
<path d="M339.416 407.841C333.665 410.694 329.021 409.975 326.093 403.714C329.636 402.885 332.686 401.667 331.369 397.012C333.292 395.256 337.069 395.347 336.878 391.485C337.313 391.501 337.763 391.599 338.181 391.522C347.785 389.746 351.486 393.039 350.882 402.788C350.617 407.061 353.672 404.598 355.346 404.93C352.211 408.453 349.069 405.282 345.931 404.941C346.479 403.44 348.807 402.729 347.756 400.185C345.937 401.309 342.649 399.849 342.375 403.208C342.212 405.212 344.373 405.021 345.911 404.917C344.424 407.372 341.266 406.099 339.447 407.814C337.33 403.305 337.746 399.095 341.185 395.137C335.013 397.205 333.143 402.481 330.517 407.433C333.757 408.357 336.587 408.089 339.416 407.841Z" fill="#140404"/>
<path d="M359.195 397.143C358.376 398.034 357.557 398.924 356.737 399.814C350.361 391.996 344.041 384.095 332.67 383.771L332.788 383.823C324.563 380.478 322.01 381.414 322.012 387.775C319.618 385.579 321.341 382.066 319.431 379.715C325.217 378.607 331.003 377.544 336.801 379.649C346.072 383.17 354.236 388.106 359.195 397.143Z" fill="#1F0404"/>
<path d="M99.4302 359.515C108.403 355.697 116.602 350.078 126.454 348.287C132.484 347.191 138.35 345.204 144.539 344.954C145.982 350.419 151.544 345.882 154.014 348.856C135.292 347.995 118.26 353.407 102.297 362.787C101.341 361.696 100.386 360.605 99.4302 359.515Z" fill="#1F0302"/>
<path d="M400.524 380.189C394.785 377.994 392.193 373.729 392.78 367.721C393.31 362.3 397.074 360.358 402.007 359.996C403.5 360.882 405.471 361.427 406.389 362.721C408.637 365.888 408.404 369.361 405.995 372.454C404.308 374.62 402.266 374.115 400.112 372.947C396.022 370.73 400.189 367.859 399.999 365.099C396.993 365.971 395.464 367.2 395.863 369.963C396.289 372.911 398.068 374.767 400.785 375.562C403.353 376.313 406.015 376.118 408.617 375.443C407.1 379.037 401.07 374.938 400.524 380.189Z" fill="#250403"/>
<path d="M335.699 371.98C335.715 375.689 338.872 374.209 340.6 374.758C353.055 378.717 363.208 385.175 367.418 398.428C366.902 398.776 366.385 399.126 365.869 399.474C364.881 400.141 364.877 402.132 363.396 401.777C362.962 401.673 362.987 399.653 362.801 398.511C357.843 387.008 349.101 380.417 336.781 378.474C335.423 377.973 334.066 377.472 332.708 376.97C334.127 375.56 333.305 372.806 335.699 371.98Z" fill="#1D0302"/>
<path d="M148.661 354.549C134.409 354.612 121.616 360.187 108.657 365.135C107.744 364.669 106.83 364.203 105.917 363.737C119.256 356.445 132.76 349.744 148.705 351.774C148.69 352.699 148.675 353.624 148.661 354.549Z" fill="#220404"/>
<path d="M99.2639 328.983C95.3889 332.319 91.092 333.212 86.537 330.678C82.372 328.361 82.5989 324.538 83.1269 320.375C83.5909 316.716 83.139 312.941 83.092 309.217C84.35 309.599 85.6079 309.981 86.8669 310.363C86.7019 311.768 85.0649 313.489 86.5879 314.487C88.5359 315.763 89.503 313.58 90.521 312.335C91.322 311.356 91.945 310.231 92.647 309.171C92.48 311.083 93.0789 312.806 93.9609 314.457C93.4109 315.381 92.8599 316.305 92.3099 317.23C89.1109 320.097 85.1059 322.73 89.2479 327.737C92.1559 330.058 95.0879 328.982 98.0199 327.796C98.4349 328.191 98.8499 328.587 99.2639 328.983Z" fill="#1D0202"/>
<path d="M112.626 327.774C107.431 334.847 102.229 341.892 94.8172 346.933C92.7852 348.315 91.3882 350.35 91.4242 353.031C89.4872 351.667 89.6292 349.373 88.9292 347.456C100.658 339.332 108.358 327.853 115.314 315.755C116.159 316.634 117.004 317.514 117.849 318.393C116.713 321.876 113.026 323.94 112.603 327.82L112.626 327.774Z" fill="#250303"/>
<path d="M148.705 351.774C132.76 349.744 119.256 356.445 105.917 363.737C104.658 363.618 103.277 363.963 102.296 362.786C118.26 353.406 135.292 347.995 154.014 348.856C155.936 349.474 158.321 348.413 160.601 351.178C156.188 351.399 152.446 351.587 148.705 351.774Z" fill="#94514D"/>
<path d="M400.816 357.339C396.294 356.348 391.815 352.814 387.204 357.107C386.825 357.103 386.447 357.099 386.068 357.097C386.969 354.883 387.869 352.67 388.77 350.456C401.153 354.631 401.221 354.601 400.467 345.276C401.013 345.637 401.513 346.178 402.113 346.332C410.884 348.585 407.009 353.623 404.783 358.304C403.459 357.982 402.137 357.661 400.816 357.339Z" fill="#170406"/>
<path d="M332.67 383.772C344.041 384.096 350.361 391.997 356.737 399.815C358.205 402.046 357.109 403.579 355.345 404.931C353.671 404.598 350.617 407.061 350.881 402.788C351.485 393.039 347.784 389.746 338.18 391.522C337.762 391.599 337.312 391.502 336.877 391.485C337.148 388.001 333.809 386.487 332.67 383.772Z" fill="#B1524C"/>
<path d="M386.067 357.097C386.446 357.099 386.824 357.103 387.203 357.107C386.475 367.786 389.788 377.74 392.713 387.762C389.934 386.602 390.319 388.477 390.088 390.24C389.53 394.507 388.422 391.615 387.487 390.35C388.085 380.64 385.34 371.57 382.18 362.579L381.916 362.267C383.795 360.941 386.82 360.535 386.067 357.097Z" fill="#220404"/>
<path d="M400.816 357.339C402.138 357.661 403.46 357.983 404.782 358.304C405.621 358.815 406.46 359.326 407.298 359.837C410.365 362.703 412.242 366.057 411.653 370.427C410.641 372.1 409.629 373.772 408.617 375.444C406.015 376.118 403.353 376.313 400.785 375.562C398.068 374.767 396.289 372.911 395.863 369.963C395.464 367.199 396.993 365.971 399.999 365.099C400.189 367.859 396.022 370.73 400.112 372.947C402.266 374.115 404.308 374.62 405.995 372.454C408.405 369.361 408.638 365.888 406.389 362.721C405.471 361.428 403.5 360.882 402.007 359.996C401.61 359.11 401.213 358.224 400.816 357.339Z" fill="#AE5652"/>
<path d="M99.264 328.983C98.849 328.587 98.435 328.192 98.02 327.796C98.884 326.877 99.748 325.959 100.611 325.041C103.466 326.568 102.79 322.768 104.452 322.495C108.288 321.194 108.498 317.408 109.951 314.473C110.866 314.909 111.781 315.346 112.696 315.782C107.803 326.812 98.773 334.658 91.247 343.661C91.196 342.492 90.861 341.474 89.749 340.875C92.398 336.492 98.437 334.822 99.264 328.983Z" fill="#390C09"/>
<path d="M383.245 392.094C380.843 384.579 378.52 377.046 378.143 369.083C378.111 366.875 378.08 364.667 378.048 362.459C379.338 362.397 380.628 362.334 381.917 362.27L382.18 362.58C381.421 371.291 382.882 379.674 385.917 387.824C383.115 388.051 383.614 390.344 383.245 392.094Z" fill="#220404"/>
<path d="M124.565 321.068C123.285 322.962 122.881 325.084 123.187 327.295C123.656 330.677 122.633 332.964 118.908 333.009C115.453 333.051 112.126 332.622 112.626 327.774L112.603 327.819C115.896 324.858 122.381 324.229 120.271 317.322C121.703 318.571 123.134 319.82 124.565 321.068Z" fill="#1C0407"/>
<path d="M128.801 381.143C130.563 377.175 132.325 373.206 134.087 369.237C134.866 370.509 135.646 371.782 136.425 373.055C141.017 377.42 138.326 380.902 134.753 383.778C131.644 386.279 129.502 384.935 128.801 381.143Z" fill="#CB4A45"/>
<path d="M91.2482 343.661C98.7752 334.658 107.805 326.812 112.697 315.782C113.57 315.773 114.442 315.764 115.314 315.755C108.359 327.853 100.658 339.332 88.9292 347.456C89.7032 346.191 90.4752 344.926 91.2482 343.661Z" fill="#9E5855"/>
<path d="M411.653 370.426C412.242 366.057 410.365 362.702 407.298 359.836C409.313 359.957 410.011 358.24 411.119 357.096C416.165 360.517 417.222 356.807 418.277 353.093C419.557 354.303 420.836 355.514 422.116 356.725C420.222 360.506 413.716 361.573 415.695 367.634C413.647 367.55 412.875 369.315 411.653 370.426Z" fill="#170406"/>
<path d="M400.466 345.276C401.22 354.601 401.152 354.631 388.769 350.456C388.446 347.233 389.588 345.315 393.138 345.371C395.579 345.411 398.023 345.313 400.466 345.276Z" fill="#C34A45"/>
<path d="M109.952 314.473C108.499 317.407 108.289 321.194 104.453 322.494C102.834 315.137 96.9571 317.601 92.3101 317.23C92.8611 316.306 93.4111 315.381 93.9611 314.457C99.2921 313.99 104.625 311.437 109.952 314.473Z" fill="#C34F49"/>
<path d="M336.78 378.474C349.1 380.418 357.841 387.008 362.8 398.511C361.301 398.84 360.01 398.619 359.195 397.144C354.236 388.106 346.072 383.17 336.802 379.65C336.761 379.258 336.754 378.866 336.78 378.474Z" fill="#A45656"/>
<path d="M385.918 387.823C382.883 379.673 381.422 371.29 382.181 362.579C385.341 371.57 388.086 380.64 387.488 390.35C386.965 389.508 386.441 388.665 385.918 387.823Z" fill="#A95553"/>
<path d="M136.424 373.054C135.645 371.781 134.866 370.508 134.086 369.236C137.907 361.89 139.429 361.258 146.808 363.954C148.457 369.431 145.926 371.626 140.714 371.716C139.55 369.39 144.97 368.792 142.302 366.379C140.224 364.499 138.296 365.771 136.948 367.877C136.774 369.603 136.599 371.329 136.424 373.054Z" fill="#AE504B"/>
<path d="M386.074 406.443C385.569 405.952 385.064 405.461 384.559 404.969C391.198 400.721 398.65 397.916 405.243 393.504C399.676 399.046 393.769 404.047 386.074 406.443Z" fill="#9B534F"/>
<path d="M369.2 370.211C367.242 370.273 365.285 370.334 363.328 370.396C366.106 368.215 366.266 365.319 365.814 362.109C365.486 359.778 365.029 357.25 367.459 355.541C368.443 354.85 369.257 355.529 369.689 356.168C371.253 358.482 370.261 360.766 369.328 363.004C368.332 365.392 366.867 367.766 369.2 370.211Z" fill="#C15351"/>
<path d="M387.444 415.939C388.498 420.192 392.128 417.686 394.453 418.61C388.322 421.006 382.083 421.299 374.215 419.397C379.533 418.007 383.488 416.973 387.444 415.939Z" fill="#B75654"/>
<path d="M431.153 364.188C432.101 371.081 427.087 374.266 422.368 377.691C425.297 373.19 428.225 368.689 431.153 364.188Z" fill="#8D4F51"/>
<path d="M378.049 362.457C378.081 364.665 378.112 366.873 378.144 369.081C377.142 368.994 376.139 368.908 375.138 368.821C376.481 364.373 372.598 359.637 376.103 354.309C376.89 357.61 377.47 360.034 378.049 362.457Z" fill="#A1514D"/>
<path d="M415.695 367.634C413.716 361.573 420.222 360.507 422.116 356.725C424.548 363.052 419.381 364.907 415.695 367.634Z" fill="#A45350"/>
<path d="M322.013 387.777C322.011 381.416 324.564 380.48 332.789 383.825C328.537 383.343 326.202 388.089 322.013 387.777Z" fill="#B05756"/>
<path d="M139.147 334.495C137.545 334.927 135.942 335.358 134.341 335.789C134.851 333.714 134.387 331.98 132.673 330.592C131.431 329.586 130.213 328.092 131.813 326.863C133.401 325.644 134.463 327.625 135.387 328.628C136.966 330.344 138.806 331.96 139.147 334.495Z" fill="#AC4E4B"/>
<path d="M120.272 317.322C122.381 324.229 115.896 324.858 112.604 327.819C113.027 323.939 116.714 321.875 117.85 318.392C118.336 317.31 119.314 317.338 120.272 317.322Z" fill="#AB5551"/>
<path d="M336.78 378.474C336.754 378.867 336.761 379.259 336.802 379.65C331.004 377.545 325.218 378.608 319.432 379.716C319.503 376.11 322.259 377.169 324.211 377.067C327.037 376.92 329.875 376.992 332.708 376.971C334.065 377.471 335.423 377.972 336.78 378.474Z" fill="#69484B"/>
<path d="M418.277 353.093C417.222 356.807 416.165 360.518 411.119 357.096C413.36 355.503 414.001 351.049 418.277 353.093Z" fill="#864F4E"/>
<path d="M92.6482 309.171C91.9462 310.231 91.3232 311.355 90.5222 312.335C89.5042 313.58 88.5372 315.763 86.5892 314.487C85.0662 313.49 86.7032 311.769 86.8682 310.363C88.8322 310.151 89.6572 304.409 92.6482 309.171Z" fill="#9A504C"/>
<path d="M331.369 397.013C332.685 401.668 329.636 402.886 326.093 403.715C324.089 398.518 330.471 399.924 331.369 397.013Z" fill="#A75559"/>
<path d="M136.949 367.878C138.296 365.772 140.224 364.5 142.303 366.38C144.971 368.793 139.551 369.391 140.715 371.717C138.775 371.107 139.688 367.701 136.949 367.878Z" fill="#280908"/>
<path d="M68.2192 360.061C69.3762 359.509 69.8312 358.515 69.9612 357.312C72.4082 358.952 73.5552 361.552 75.7622 365.033C72.0382 363.773 70.0062 362.125 68.2192 360.061Z" fill="#A35151"/>
<path d="M108.946 308.894C105.965 308.894 102.984 308.894 98.6763 308.894C103.044 305.312 106.059 307.475 108.946 308.894Z" fill="#AB6666"/>
<path d="M124.535 394.575C125.031 394.083 125.527 393.592 126.023 393.1C128.352 394.56 130.92 395.74 133.429 400.13C129.403 397.616 126.969 396.095 124.535 394.575Z" fill="#624040"/>
<path d="M194.986 235.094C194.5 216.911 197.846 199.946 202.048 183.095C203.873 175.779 205.583 168.434 207.314 161.095C207.935 158.46 208.923 156.028 210.724 153.961C212.344 152.103 214.315 151.394 216.691 152.126C219.186 152.894 219.255 154.987 219.046 157.015C215.834 188.212 243.695 208.304 270.022 212.939C291.583 216.735 312.12 214.329 329.862 199.859C336.388 194.536 339.994 187.014 344.81 180.392C347.148 177.177 349.097 171.666 354.202 173.822C358.83 175.777 357.8 180.896 356.855 185.092C349.315 218.578 341.146 252.027 319.342 279.625C283.587 324.881 227.248 311.658 204.884 277.833C196.111 264.562 194.6 249.711 194.986 235.094Z" fill="#010101"/>
<path d="M302.091 150.17C302.112 143.832 303.865 137.929 306.931 132.454C310.007 126.962 323.267 123.318 330.267 125.849C336.531 128.114 339.682 133.937 338.213 142.185C336.645 150.988 332.466 158.498 324.488 163.154C312.43 170.194 302.083 164.112 302.091 150.17Z" fill="#030202"/>
<path d="M292.528 128.192C292.334 141.054 281.427 153.552 270.64 153.275C262.356 153.062 257.566 147.538 257.686 138.338C257.855 125.328 267.122 115.472 278.827 115.851C288.277 116.157 292.65 120.096 292.528 128.192Z" fill="#040202"/>
<path d="M126.498 370.42C125.315 366.633 125.315 366.633 120.716 370.214C120.563 366.322 121.055 365.464 123.949 365.354C127.399 365.222 129.604 366.434 128.595 370.46C127.896 370.447 127.197 370.433 126.498 370.42Z" fill="#AD5E55"/>
<path d="M339.416 407.841C336.587 408.089 333.757 408.356 330.516 407.434C333.142 402.482 335.012 397.207 341.184 395.138C337.746 399.096 337.329 403.306 339.446 407.815L339.416 407.841Z" fill="#C0524E"/>
<path d="M345.91 404.919C344.372 405.022 342.211 405.213 342.374 403.21C342.647 399.851 345.936 401.311 347.755 400.187C348.806 402.73 346.478 403.441 345.93 404.943C345.929 404.941 345.91 404.919 345.91 404.919Z" fill="#934D4F"/>
<path d="M92.3102 317.23C96.9572 317.601 102.834 315.137 104.453 322.494C102.79 322.767 103.466 326.567 100.611 325.041C100.676 322.741 101.726 319.759 97.7332 319.898C95.3742 319.98 92.3782 322.02 93.1922 323.61C96.3902 329.862 91.1612 327.026 89.2472 327.737C85.1062 322.73 89.1112 320.097 92.3102 317.23Z" fill="#280404"/>
<path d="M89.248 327.736C91.162 327.025 96.391 329.861 93.193 323.609C92.379 322.019 95.375 319.979 97.734 319.897C101.727 319.758 100.677 322.74 100.612 325.04C99.748 325.958 98.884 326.877 98.021 327.795C95.088 328.981 92.156 330.058 89.248 327.736Z" fill="#9A5552"/>
</svg>
