<svg width="512" height="512" viewBox="0 0 512 512" fill="none" xmlns="http://www.w3.org/2000/svg">
<path d="M384.201 275.126C372.522 278.375 361.387 282.775 349.685 285.204C345.289 286.117 340.941 287.149 336.39 287.121C333.201 287.101 330.839 288.29 329.625 291.783C319.444 321.09 307.52 349.781 298.625 379.545C297.905 381.956 297.352 384.324 297.347 386.86C297.3 409.348 296.959 431.833 295.788 454.292C295.591 458.076 296.716 459.809 300.362 461.097C315.851 466.565 331.256 472.279 346.604 478.133C354.536 481.158 357.474 487.197 355.17 494.164C353.457 499.344 349.43 501.046 344.595 501.938C331.594 504.335 319.073 501.543 306.681 498.243C297.389 495.768 288.249 492.698 279.112 489.676C276.617 488.851 274.359 488.851 271.824 489.265C253.806 492.211 236.339 497.805 218.247 500.357C211.607 501.294 204.962 501.255 198.368 499.91C194.534 499.128 191.403 496.94 190.225 493.32C188.985 489.507 190.165 486.143 193.533 483.204C205.073 473.132 218.88 468.307 233.445 464.986C237.481 464.066 241.419 462.672 245.479 461.907C250.389 460.982 251.974 458.487 251.937 453.409C251.806 435.102 252.208 416.791 252.414 398.482C252.471 393.424 251.447 388.743 249.19 384.076C233.561 351.748 221.319 318.037 209.094 284.335C207.753 280.637 206.411 279.91 202.463 280.693C188.088 283.543 173.996 280.51 159.957 277.6C159.476 277.5 158.992 277.416 158.2 277.266C158.082 284.745 156.884 291.861 152.277 297.968C149.726 301.35 146.735 304.275 142.767 305.795C130.011 310.68 119.466 303.054 119.99 289.289C120.096 286.507 120.194 284.94 116.586 284.497C111.444 283.866 106.123 282.391 105.129 276.035C104.127 269.631 108.271 262.784 114.392 259.861C115.73 259.222 117.002 258.444 119.081 257.304C117.125 255.648 115.317 254.411 113.872 252.841C109.031 247.582 110.827 240.51 117.569 238.19C123.262 236.231 129.062 236.798 134.84 237.801C137.921 238.336 139.84 238.369 140.327 234.053C141.025 227.867 147.77 222.121 152.822 222.146C158.504 222.174 164.454 227.493 166.133 233.836C167.618 239.446 166.644 244.745 164.224 249.809C163.145 252.066 163.698 252.938 165.93 253.644C174.19 256.257 182.67 256.35 191.148 255.709C194.876 255.427 192.203 252.993 191.635 251.93C184.272 238.148 177.577 224.042 170.968 209.891C158.812 183.862 147.316 157.519 133.995 132.043C132.771 129.702 131.597 127.358 129.738 125.346C126.819 122.186 127.391 120.354 131.657 118.991C136.129 117.562 140.828 117.408 145.474 117.109C164.593 115.876 183.74 115.429 202.891 115.119C203.678 115.106 204.464 115.036 206.485 114.924C200.741 111.464 196.869 107.516 193.317 103.233C192.132 101.804 190.609 100.287 192.153 98.4429C193.447 96.8979 195.33 97.1009 197.234 97.7059C199.884 98.5479 201.891 100.268 203.82 102.087C208.02 106.048 213.209 108.304 218.312 110.722C221.881 112.413 223.492 111.931 223.372 107.323C222.923 90.0079 222.881 72.6959 223.932 55.3779C224.757 41.7689 227.899 28.3519 227.154 14.6189C226.991 11.6139 228.663 10.2779 231.744 10.0069C259.686 7.54489 287.614 7.19089 315.532 10.2789C322.021 10.9969 323.512 13.2309 322.048 19.5049C316.441 43.5309 314.397 68.0989 311.029 92.4639C310.301 97.7309 310.131 103.074 309.681 108.38C309.474 110.817 309.71 112.27 312.854 110.996C320.719 107.807 328.592 104.718 335.213 99.1679C338.229 96.6399 343.164 97.1249 344.717 100.237C346.616 104.039 343.986 105.923 341.046 107.661C335.855 110.731 330.774 113.987 324.804 117.687C333.274 118.125 340.814 118.563 348.359 118.895C359.673 119.393 370.99 119.794 382.304 120.288C385.734 120.438 389.118 119.55 392.586 120.177C396.58 120.899 398.372 122.517 397.368 126.978C392.5 148.627 384.468 169.15 375.276 189.233C365.953 209.602 356.243 229.794 346.742 250.082C345.76 252.179 345.046 254.402 344.118 256.796C351.815 259.029 359.083 257.465 366.29 255.367C372.686 253.505 378.605 250.395 384.818 248.082C388.543 246.695 388.907 244.634 387.492 241.643C385.783 238.028 385.684 234.241 385.933 230.406C386.407 223.099 390.023 218.768 396.71 217.328C403.713 215.82 411.349 218.417 413.858 224.244C415.978 229.167 418.254 230.418 423.657 229.269C432.79 227.326 436.393 231.105 437.444 236.693C438.241 240.929 436.493 244.501 433.571 247.491C432.545 248.541 431.296 249.372 429.984 250.437C433.732 252.89 438.161 253.903 439.936 258.516C441.427 262.39 441.168 265.675 438.246 268.589C434.085 272.739 429.492 276.526 423.724 277.887C419.94 278.78 419.103 280.691 419.134 284.037C419.179 288.902 418.868 293.67 414.858 297.346C409.694 302.079 403.32 303.328 397.176 301.501C390.109 299.399 386.617 293.151 385.179 286.11C384.493 282.738 384.54 279.212 384.201 275.126Z" fill="#1D1D1B"/>
<path d="M150.987 255.008C161.675 261.864 173.556 263.473 185.891 262.69C190.043 262.426 194.168 262.014 198.345 262.084C203.661 262.174 205.51 259.442 203.6 254.416C199.567 243.8 193.715 234.063 188.338 224.138C177.529 204.184 169.701 182.903 159.984 162.477C154.695 151.359 149.196 140.333 143.479 129.43C141.713 126.061 141.571 125.161 145.852 124.886C174.129 123.067 202.438 123.045 230.71 124.091C242.286 124.519 253.806 127.024 265.487 126.845C271.309 126.756 277.125 126.28 282.947 126.116C312.065 125.292 341.108 127.206 370.167 128.557C373.993 128.735 377.823 128.841 381.652 128.94C385.121 129.03 386.152 130.246 385.081 133.922C378.227 157.445 369.316 180.126 359.05 202.383C350.689 220.509 341.614 238.296 333.617 256.588C331.34 261.797 332.801 263.957 338.66 264.788C353.218 266.852 367.169 264.899 380.54 258.783C385.078 256.707 389.625 254.65 394.163 252.574C398.977 250.373 400.235 247.744 398.63 242.737C397.975 240.692 396.898 238.785 396.087 236.786C395.651 235.711 395.236 234.595 395.044 233.458C394.337 229.287 397.42 223.948 400.721 224.238C405.024 224.617 405.958 228.323 406.548 231.832C406.885 233.838 406.112 235.764 405.308 237.616C404.402 239.702 402.879 241.738 405.763 243.691C408.627 245.631 411.092 245.157 413.405 242.965C415.699 240.791 417.844 238.439 420.715 236.993C422.652 236.018 425.1 234.654 426.66 236.618C428.369 238.77 426.706 240.929 424.93 242.674C421.289 246.253 416.598 248.083 412.203 250.391C410.162 251.463 408.176 252.501 409.187 255.246C410.081 257.673 412.184 258.121 414.529 257.886C417.505 257.588 420.482 257.123 423.463 257.088C426.274 257.054 428.809 258.141 429.798 261.03C430.843 264.084 428.454 265.541 426.433 267.004C421.625 270.483 418.186 270.576 413.296 267.106C410.249 264.944 407.4 264.73 404.849 267.554C402.17 270.519 404.493 272.622 406.386 274.824C409.403 278.335 409.965 287.103 407.551 290.921C405.672 293.892 401.623 293.973 399.19 290.855C394.153 284.399 394.051 276.999 395.75 269.468C396.267 267.178 397.613 265.197 395.034 263.264C392.677 261.497 390.399 261.658 388.063 263.004C376.816 269.484 364.616 273.25 351.919 275.425C345.378 276.545 338.752 277.581 332.142 277.745C327.148 277.868 324.139 280.091 322.5 284.18C319.723 291.109 317.439 298.236 314.928 305.272C306.497 328.906 296.778 352.069 289.328 376.067C287.362 382.402 287.498 388.761 287.306 395.169C286.693 415.636 287.167 436.131 285.247 456.566C284.563 463.846 286.19 465.88 293.117 468.4C308.573 474.021 324.088 479.483 339.578 485.009C340.048 485.177 340.543 485.297 340.986 485.52C343.215 486.642 346.013 487.736 345.543 490.701C344.968 494.327 341.679 493.687 339.078 493.62C323.253 493.211 308.325 488.471 293.333 484.061C288.728 482.707 284.172 481.183 279.547 479.904C276.718 479.122 277.497 476.649 277.297 474.997C275.892 463.4 275.931 451.756 276.415 440.088C277.056 424.627 278.254 409.172 277.276 393.672C277.069 390.387 275.833 388.671 272.372 388.995C269.212 389.291 266.503 390.332 267.21 394.125C269.108 404.299 267.01 414.379 266.616 424.473C265.939 441.791 265.301 459.085 266.915 476.365C267.282 480.293 266.494 481.705 262.135 482.112C250.003 483.245 238.651 488.101 226.737 490.413C219.006 491.914 211.244 492.595 203.483 490.611C202.399 490.334 200.843 490.022 200.469 489.256C199.768 487.82 201.349 486.821 202.309 486.096C208.727 481.247 215.662 477.259 223.515 475.317C235.112 472.448 246.219 467.799 258.089 465.931C260.888 465.49 261.915 463.438 261.624 460.775C259.845 444.499 262.838 428.19 261.157 411.879C260.585 406.329 261.676 400.606 262.022 394.963C262.295 390.518 261.102 386.436 259.237 382.441C243.455 348.63 230.174 313.816 217.736 278.668C215.357 271.944 210.886 268.682 203.982 270.386C187.303 274.502 171.373 271.954 155.709 265.97C153.057 264.957 150.798 265.554 148.638 266.995C146.282 268.567 147.36 270.649 147.723 272.81C149.003 280.414 148.469 287.724 143.629 294.24C140.562 298.369 136.011 300.468 133.081 298.803C130.112 297.117 128.309 289.857 129.954 286.066C131.872 281.646 135.671 278.78 138.798 275.348C140.101 273.917 142.831 272.686 140.812 270.039C139.196 267.921 137.033 267.797 134.518 268.608C130.454 269.919 127.501 273.073 123.702 274.755C121.057 275.926 117.699 278.408 115.586 275.463C113.468 272.511 115.519 269.147 117.984 266.565C121.383 263.005 125.929 262.73 130.363 262.13C132.333 261.863 134.346 261.841 136.285 261.443C138.313 261.027 140.367 260.175 139.892 257.557C139.458 255.165 137.728 253.572 135.257 254.025C130.835 254.835 127.613 252.186 124.045 250.588C122.191 249.757 120.533 248.254 121.205 245.884C121.856 243.586 124.119 243.914 125.834 243.864C132.233 243.679 138.673 243.524 142.162 250.579C143.073 252.422 144.871 252.909 146.815 252.896C149.115 251.809 150.385 252.747 150.987 255.008Z" fill="#019CDE"/>
<path d="M272.731 17.0472C284.836 16.8362 295.757 17.4572 306.649 19.0122C309.662 19.4422 310.266 20.5932 309.784 23.1932C306.25 42.2912 304.178 61.5862 302.058 80.8742C301.85 82.7672 301.76 84.5492 299.3 84.9112C279.019 87.8922 258.789 89.9262 238.551 84.2692C234.351 83.0952 233.023 81.2402 233.147 77.0022C233.688 58.5642 235.934 40.2582 237.09 21.8722C237.33 18.0622 240.149 18.3972 242.466 18.2712C252.923 17.7032 263.354 16.4712 272.731 17.0472Z" fill="#1164AF"/>
<path d="M233.964 93.3789C254.723 98.4389 276.018 98.0159 297.343 94.4999C299.357 94.1679 299.967 94.5069 300.03 96.5529C300.195 101.91 299.183 107.14 298.598 112.418C298.375 114.43 297.239 114.986 295.339 115.297C275.814 118.499 256.31 118.518 236.796 115.247C235.295 114.995 233.89 115.063 233.927 112.824C234.032 106.378 233.964 99.9289 233.964 93.3789Z" fill="#FEFEFE"/>
<path d="M150.987 255.008C149.885 253.738 148.678 252.675 146.819 252.9C149.652 251.508 150.236 249.32 149.616 246.312C148.733 242.027 149.129 237.734 150.708 233.622C151.301 232.077 152.152 230.311 154.056 230.498C155.71 230.66 156.135 232.464 156.454 233.898C157.704 239.521 156.738 244.76 153.16 249.305C151.783 251.054 150.351 252.58 150.987 255.008Z" fill="#0395D3"/>
<path d="M264.106 286.278C249.939 286.671 238.786 280.191 229.268 270.557C217.266 258.41 211.793 243.399 211.046 226.493C210.874 222.597 211.921 219.991 216.373 219.817C221.087 219.632 221.856 222.604 221.834 226.312C221.757 239.165 226.278 250.471 234.199 260.289C248.93 278.547 269.961 282.182 290.907 270.473C298.918 265.995 305.452 260.029 309.447 251.581C309.797 250.84 310.236 250.096 310.795 249.506C313.168 247.004 315.884 245.518 319.133 247.853C322.254 250.097 321.031 253.17 319.53 255.418C315.567 261.354 311.3 267.098 305.642 271.639C293.497 281.387 279.483 285.739 264.106 286.278Z" fill="#1D1D1B"/>
<path d="M274.769 164.937C274.559 162.088 275.084 158.67 276.135 155.31C279.137 145.709 286.039 140.998 295.586 142.069C302.058 142.795 307.011 149.11 307.911 158.13C308.651 165.55 307.477 172.69 304.013 179.366C300.865 185.435 294.978 188.591 288.439 187.767C282.272 186.989 277.495 182.473 275.866 175.979C275.01 172.566 274.75 169.106 274.769 164.937Z" fill="#1D1D1B"/>
<path d="M260.099 158.553C260.388 167.817 256.467 175.71 251.501 183.076C248.453 187.597 238.935 187.347 235.64 182.842C228.408 172.955 227.379 161.98 231.15 150.618C233.097 144.751 241.841 140.391 247.968 141.473C255.303 142.768 259.515 147.472 260.086 155.061C260.174 156.218 260.099 157.388 260.099 158.553Z" fill="#1D1D1B"/>
</svg>
