<svg width="512" height="512" viewBox="0 0 512 512" fill="none" xmlns="http://www.w3.org/2000/svg">
<path d="M81.5292 330.677C80.2256 339.383 79.0477 346.765 76.1185 353.722C69.7411 368.868 57.7852 371.078 45.6763 369.701C40.6344 369.127 35.1294 361.542 34.1419 354.671C33.8604 352.712 33.5495 350.551 34.0784 348.722C35.5917 343.486 33.2132 343.014 28.7543 343.016C18.7072 343.021 13.8448 339.463 12.6088 332.366C11.85 328.009 13.7536 324.612 16.1605 321.332C18.1092 318.677 20.7335 316.47 21.6841 312.921C21.3038 312.72 20.9341 312.372 20.5398 312.341C16.1884 312.004 11.6117 310.941 10.4918 306.441C9.44224 302.222 12.4009 298.591 15.6032 295.704C19.6999 292.01 24.879 290.66 29.9784 289.178C31.5641 288.717 33.2854 288.692 34.5726 287.615C32.9779 284.121 31.1162 280.75 29.8653 277.166C26.5699 267.723 31.29 260.263 41.1215 258.633C47.6475 257.551 54.079 259.082 60.5572 258.915C63.1579 258.849 65.8767 259.398 68.4804 257.74C63.813 254.578 57.4366 258.048 53.1778 253.511C56.4146 251.432 59.8048 251.823 63.0498 252.143C66.3028 252.463 69.5004 253.346 72.7223 253.983C73.036 253.612 73.3496 253.242 73.6633 252.871C71.1808 250.72 68.6104 248.66 66.2564 246.377C65.2179 245.37 64.5931 243.925 63.8273 242.651C62.9584 241.205 62.9535 239.563 64.1394 238.497C65.76 237.039 66.9599 238.743 67.8275 239.755C70.0974 242.403 72.1169 245.264 74.3013 247.988C75.002 248.861 75.6777 250.096 77.0438 249.824C78.6635 249.5 78.0826 247.933 78.2435 246.928C81.587 226.056 86.1716 205.489 93.1218 185.491C113.322 127.367 149.295 83.0294 205.872 56.8194C208.948 55.3944 208.336 53.7005 208.043 51.3621C205.553 31.4884 225.698 15.1251 244.437 21.7033C247.809 22.887 251.078 24.4463 253.152 27.264C255.803 30.8677 258.413 31.1629 262.296 29.3453C265.426 27.8801 269.157 27.0898 272.548 27.9124C277.2 29.0409 279.785 27.1795 282.469 23.7119C285.632 19.6265 289.743 16.4355 294.575 14.2916C302.934 10.5826 310.487 12.1828 316.512 19.1925C322.016 25.5958 323.757 33.3275 323.591 41.4891C323.53 44.4861 323.971 46.0123 327.041 47.4313C390.354 76.6978 425.725 127.086 438.001 194.818C439.396 202.514 440.301 210.266 441.112 218.044C441.902 225.612 441.984 233.215 442.298 241.411C445.064 240.021 445.857 237.845 446.904 235.917C448.804 232.415 450.578 228.841 452.574 225.395C453.251 224.225 453.998 222.189 455.678 222.886C457.012 223.439 457.008 225.392 456.994 226.943C456.957 230.822 454.927 233.88 452.969 236.97C451.996 238.505 450.959 239.999 449.848 241.667C452.734 242.595 453.868 240.327 455.389 239.044C458.176 236.696 460.169 233.483 463.44 231.642C464.45 231.074 465.674 230.104 466.578 230.892C467.85 232 466.68 233.318 466.045 234.442C464.538 237.109 462.172 238.965 459.943 240.973C458.181 242.56 455.764 243.668 455.174 246.989C463.397 243.177 471 243.139 477.382 249.784C483.323 255.97 483.16 263.174 479.851 270.804C481.281 270.878 482.429 270.938 483.578 270.996C492.488 271.44 498.876 276.706 500.63 285.055C502.346 293.225 498.5 301.181 490.749 304.876C488.616 305.893 488.025 306.514 488.642 309.16C491.827 322.798 483.553 332.561 469.476 331.803C466.022 331.617 464.988 332.315 464.977 335.821C464.958 342.366 461.323 346.641 455.333 348.993C448.689 351.603 441.913 351.171 435.211 349.467C431.352 348.486 429.468 345.13 427.806 341.815C424.925 336.068 424.171 329.814 423.706 322.855C421.767 334.121 414.661 341.932 409.028 350.404C386.971 383.577 359.47 410.757 322.583 427.36C317.096 429.83 311.365 431.412 305.626 433.08C301.693 434.222 297.724 435.548 295.117 439.489C298.16 439.85 300.485 438.166 303.087 437.931C305.073 437.752 307.257 437.339 308.468 439.484C309.645 441.57 309.252 443.761 307.785 445.543C306.314 447.329 304.418 448.767 302.956 450.56C301.094 452.846 300.757 454.581 304.686 455.027C316.439 456.361 328.032 458.513 339.085 462.924C344.529 465.096 349.668 467.811 353.813 472.067C361.881 480.352 361.034 491.195 351.532 497.763C342.108 504.278 331.146 506.395 320.044 507.908C297.199 511.023 275.374 505.921 253.742 499.54C250.204 498.496 247.45 498.968 243.983 500.351C221.096 509.483 197.393 512.591 173.086 507.622C165.069 505.983 157.704 502.311 156.238 492.838C154.764 483.321 159.225 476.488 166.841 471.366C168.764 470.072 170.791 468.91 172.855 467.852C181.635 463.351 191.165 460.934 200.559 458.204C203.829 457.254 205.803 456.522 203.654 452.681C202.016 449.754 203.892 448.357 206.593 447.897C208.77 447.526 210.846 448.274 212.965 448.741C216.906 449.61 217.892 448.387 216.58 444.517C215.006 439.877 211.332 437.384 206.858 436.974C180.874 434.596 159.914 419.871 137.859 408.309C130.661 404.536 125.392 396.578 118.487 391.348C110.712 385.46 104.313 378.28 99.0399 370.08C92.4295 359.8 87.9282 348.558 83.9121 337.09C83.3172 335.394 82.6614 333.719 81.5292 330.677Z" fill="#362E2E"/>
<path d="M234.426 456.622C235.859 453.073 237.614 449.663 237.251 445.663C236.956 442.423 236.046 440.041 232.131 440.712C229.262 441.203 227.833 440.435 227.907 437.157C228.038 431.312 224.085 430.523 219.211 429.582C188.438 423.638 161.008 410.334 136.488 390.908C133.097 388.221 129.744 385.484 126.296 382.873C111.192 371.437 101.418 356.898 98.9523 337.71C98.1323 331.328 96.0231 325.122 92.5385 319.532C91.6285 318.072 90.959 316.963 88.6887 317.45C81.3344 319.028 74.2902 321.309 67.6728 324.934C65.5742 326.084 65.2933 327.325 65.6082 329.716C66.4973 336.467 67.0025 343.307 65.027 350.006C62.9615 357.01 56.0376 361.819 50.9552 359.853C47.0746 358.352 45.3176 349.246 47.782 343.632C49.344 340.074 51.7922 337.147 54.2896 334.248C56.679 331.475 59.1801 328.774 60.8417 325.474C61.8038 323.563 63.2284 321.282 61.5635 319.441C59.7792 317.469 57.1031 317.605 54.5825 318.496C50.4975 319.941 47.6286 322.99 44.7229 325.959C41.3005 329.457 37.6619 332.525 32.6943 333.589C30.4593 334.068 28.0565 334.064 26.5396 332.558C24.9275 330.958 26.3831 328.836 27.113 327.035C30.7027 318.178 37.8742 314.36 46.8386 313.135C48.7723 312.871 50.9851 313.317 51.0938 310.25C51.1906 307.52 49.9966 305.877 47.5252 304.911C45.628 304.169 43.6929 303.872 41.6712 303.882C36.1811 303.907 30.6909 303.89 24.7458 303.89C26.4148 299.928 29.7468 298.686 32.9818 298.025C39.1429 296.765 45.4447 296.21 51.6386 295.088C56.7693 294.16 57.0474 293.255 53.4537 289.383C51.3138 287.077 48.7385 285.18 46.4156 283.038C44.4558 281.23 42.5557 279.375 41.7795 276.666C40.8168 273.306 40.3252 269.96 43.7981 267.796C47.3706 265.57 51.0314 265.431 54.2545 268.679C57.7849 272.237 59.1448 276.898 60.6525 281.468C62.9701 288.493 64.389 289.528 71.6501 287.852C76.321 286.775 80.8208 284.958 85.4009 283.484C88.0808 282.622 87.9858 280.391 88.1106 278.198C88.6964 267.904 88.6966 267.842 98.5397 265.596C129.506 258.532 155.666 242.601 179.279 221.952C210.018 195.072 234.669 163.675 250.601 125.809C255.758 113.552 259.918 100.972 263.032 88.0445C263.417 86.4476 263.908 84.8765 264.43 83.0078C266.58 84.1095 266.534 86.0535 266.986 87.6562C275.964 119.535 287.829 150.201 308.062 176.762C330.926 206.776 357.305 233.052 391.936 249.661C401.717 254.352 412.057 257.44 422.634 259.694C425.085 260.216 425.778 260.687 425.194 263.504C423.828 270.096 424.456 270.682 431.213 272.079C438.404 273.566 445.729 273.663 453.018 274.182C455.585 274.364 456.682 273.233 457.167 270.979C457.725 268.388 458.239 265.783 458.934 263.228C459.409 261.486 459.925 259.676 460.846 258.153C462.251 255.83 464.645 254.693 467.256 255.375C469.938 256.076 468.937 258.673 468.975 260.5C469.107 266.849 464.753 271.094 461.591 275.925C460.35 277.821 457.222 279.341 459.083 282.25C461.07 285.356 464.321 285.4 467.579 284.691C472.103 283.707 476.433 281.727 481.169 281.859C484.809 281.961 488.361 282.551 488.865 287.137C489.328 291.346 486.345 294.611 481.57 294.863C476.754 295.117 471.912 294.854 467.083 294.925C464.192 294.968 461.006 295.204 460.763 298.96C460.536 302.474 463.119 303.758 466.26 304.114C466.912 304.187 467.534 304.491 468.182 304.631C475.235 306.164 476.822 308.464 475.889 315.827C475.289 320.564 471.763 322.409 467.674 319.829C465.603 318.521 463.923 316.572 462.14 314.837C460.233 312.983 458.541 310.881 456.109 309.655C453.696 308.438 451.183 308.479 448.998 309.971C446.678 311.555 447.887 313.876 448.424 315.872C449.84 321.144 452.275 326.183 452.125 331.807C452.021 335.694 451.888 339.878 447.032 340.821C443.153 341.575 438.818 337.909 437.695 333.472C435.938 326.534 438.919 320.411 441.306 314.257C443.545 308.484 442.793 306.775 436.704 305.236C425.348 302.366 416.26 306.069 410.598 316.223C408.097 320.707 406.04 325.449 403.94 330.145C384.21 374.27 350.85 403.718 306.099 420.776C299.614 423.248 292.824 425.017 286.058 426.616C283.167 427.3 282.205 428.71 281.97 431.274C281.636 434.912 281.203 438.542 280.926 442.183C280.704 445.123 279.848 446.627 276.584 445.003C274.702 444.066 272.338 442.746 270.546 444.498C268.883 446.123 270.814 448.226 271.077 450.121C271.211 451.088 271.717 452 272.037 452.943C273.573 457.465 273 458.139 268.173 457.478C267.514 457.388 266.872 457.188 266.216 457.08C256.646 455.506 255.85 454.411 257.451 444.995C258.599 438.24 257.33 435.166 252.719 433.539C248.37 432.004 245.821 433.455 245.094 438.163C244.563 441.611 244.272 445.105 244.061 448.59C243.661 455.22 241.583 457.037 234.426 456.622Z" fill="#E1B800"/>
<path d="M112.064 236.119C118.825 230.542 125.597 224.978 132.346 219.386C183.047 177.383 223.337 127.268 250.931 67.2516C251.512 65.9889 251.598 64.2795 254.656 63.3018C241.026 100.502 222.878 134.111 198.819 164.4C174.721 194.738 146.05 219.946 112.245 239.123C110.041 238.355 110.024 238.062 112.064 236.119Z" fill="#D06E03"/>
<path d="M238.003 86.1056C224.329 110.098 208.451 132.583 191.324 154.207C178.111 170.889 164.302 187.072 148.253 201.108C136.264 211.593 123.741 221.467 111.496 231.662C107.556 234.943 103.742 238.376 99.8702 241.74C99.0323 241.997 98.5642 241.874 98.964 240.859C106.721 230.035 116.853 221.672 127.546 214.041C145.574 201.176 158.683 183.844 171.793 166.467C191.29 140.625 210.389 114.475 231.327 89.753C233.04 87.7306 234.95 85.8752 236.768 83.9422C238.606 83.8492 238.725 84.7377 238.003 86.1056Z" fill="#D16E03"/>
<path d="M206.109 72.2258C188.397 87.015 171.179 102.315 155.588 119.396C136.354 140.466 119.896 163.44 106.853 188.832C105.007 188.83 105.626 187.745 105.955 186.787C113.285 164.066 124.825 143.615 139.707 125.052C149.833 112.422 161.96 101.918 174.508 91.6738C182.452 85.1888 190.528 79.0733 199.092 73.5236C200.608 72.5413 202.314 71.8522 203.932 71.0278C205.211 70.4219 206.174 70.3891 206.109 72.2258Z" fill="#D06E03"/>
<path d="M266.896 468.308C275.126 466.018 282.846 465.327 290.695 465.866C292.719 466.005 294.596 466.595 296.392 467.528C300.644 469.736 300.892 470.992 297.625 474.574C296.057 476.293 294.247 477.809 292.812 479.627C291.209 481.658 290.295 483.976 291.943 486.509C292.964 488.078 294.126 489.464 296.262 489.253C299.257 488.958 300.423 486.847 301.087 484.28C301.544 482.513 301.745 480.636 302.48 478.996C303.273 477.228 302.155 473.635 306.118 474.464C309.657 475.205 313.607 479.686 312.989 482.23C312.05 486.098 310.819 489.899 310.005 493.79C309.541 496.012 308.462 496.793 306.308 496.932C297.262 497.517 288.6 494.427 279.612 494.231C276.902 494.172 276.906 490.682 276.29 488.624C274.194 481.618 272.222 474.606 266.896 468.308Z" fill="#E32235"/>
<path d="M119.957 210.772C133.282 194.842 146.471 178.797 159.967 163.013C175.737 144.568 191.771 126.349 207.705 108.044C208.352 107.3 209.137 106.675 209.858 105.995C212.862 106.896 209.945 108.104 210.021 109.157C200.541 123.423 189.64 136.615 178.967 149.968C163.521 169.291 149.033 189.461 130.43 206.058C128.949 207.379 127.438 208.666 125.941 209.969C123.41 209.51 123.548 212.281 122.104 213.138L122.159 213.114C119.867 213.797 119.211 212.944 119.957 210.772Z" fill="#D16E03"/>
<path d="M382.051 203.967C369.72 192.759 358.762 180.258 348.119 167.493C329.438 145.086 313.215 120.97 298.869 95.5827C298.465 94.8677 298.197 94.0755 297.866 93.3194C297.505 92.2458 296.994 91.0414 298.097 90.2227C298.878 89.6425 299.558 90.4148 300.094 91.0339C316.965 116.065 334.017 140.977 352.782 164.64C363.595 178.275 374.908 191.513 385.996 204.929C383.935 207.669 383.432 204.019 382.051 203.967Z" fill="#D06E04"/>
<path d="M207.022 94.1381C185.918 117.376 165.163 140.916 145.84 165.671C136.75 177.316 127.938 189.178 119 200.941C118.589 203.06 117.918 205.04 116.089 206.403C112.996 207.365 112.873 210.75 110.972 212.7C109.067 214.652 108.884 214.722 106.987 212.881C113.775 200.292 122.26 188.816 130.595 177.261C152.228 147.272 176.866 119.898 203.474 94.2666C203.944 93.8137 204.535 93.4861 205.069 93.1001C206.263 92.4248 207.151 92.3244 207.022 94.1381Z" fill="#D16E04"/>
<path d="M212.085 474.436C218.354 468.909 225.974 468.526 233.168 467.17C235.713 466.691 235.048 468.86 234.394 470.198C232.864 473.327 231.147 476.363 229.592 479.48C228.187 482.295 225.931 485.109 225.756 488.026C225.375 494.359 221.391 495.281 216.56 495.763C210.784 496.338 205.032 497.119 199.194 496.896C196.97 496.811 195.836 496.192 195.829 493.758C195.824 491.784 195.145 489.806 195.183 487.838C195.227 485.536 192.354 483.108 195.203 480.965C198.461 478.516 202.371 477.611 206.303 476.94C207.572 476.724 207.983 477.724 208.016 478.833C208.056 480.16 207.893 481.52 208.125 482.811C208.617 485.552 208.784 488.747 212.378 489.322C214.803 489.71 217.04 488.744 218.238 486.499C219.742 483.679 219.722 480.814 217.762 478.073C216.44 476.225 214.318 475.605 212.085 474.436Z" fill="#E22236"/>
<path d="M420.86 180.147C397.17 141.397 369.049 106.308 334.954 76.1541C335.475 74.6443 335.475 74.6443 338.091 76.0529C354.318 88.3414 368.57 102.781 382.625 117.39C397.339 132.683 409.384 149.9 418.091 169.337C419.51 172.506 420.699 175.778 421.995 179.003C422.289 180.052 421.797 180.32 420.86 180.147Z" fill="#D06E05"/>
<path d="M216.12 162.277C206.33 178.422 194.219 192.715 180.634 205.72C165.067 220.623 147.7 233.089 128.196 242.417C122.969 244.917 117.766 247.52 112.123 249.03C110.927 249.345 109.477 250.436 109.163 248.06C124.746 240.142 139.986 231.656 154.078 221.233C175.5 205.387 194.101 186.718 210.141 165.466C211.037 164.278 212.061 163.186 213.025 162.05C214.233 161.773 214.363 159.594 215.941 160.217C216.783 160.549 216.516 161.538 216.12 162.277Z" fill="#D16E04"/>
<path d="M341.074 489.101C334.165 494.488 325.734 494.841 317.606 496.2C315.426 496.565 315.019 495.479 315.329 493.599C316.616 485.795 319.455 478.589 323.62 471.893C324.57 470.365 325.896 469.441 327.807 470.014C332.754 471.496 337.656 473.111 341.726 476.46C344.814 479.002 345.492 482.177 343.875 485.837C343.323 487.253 342.003 488.009 341.074 489.101Z" fill="#E32235"/>
<path d="M422.706 208.159C414.572 196.47 406.563 184.691 398.276 173.112C384.959 154.504 370.502 136.779 355.937 119.144C355.736 118.092 356.102 117.634 357.197 117.942C360.883 119.108 363.069 121.904 365.315 124.869C378.227 141.914 392.766 157.667 405.322 174.994C412.418 184.785 419.181 194.808 423.954 206.009C424.648 207.37 424.514 208.25 422.706 208.159Z" fill="#D06E06"/>
<path d="M386.776 217.136C357.837 193.192 333.085 165.605 313.826 133.247C313.068 131.973 312.518 130.576 311.871 129.237C311.477 128.08 312.013 127.842 313.023 128.071C334.771 160.113 360.786 188.518 387.944 215.949C388.199 216.979 387.83 217.395 386.776 217.136Z" fill="#CF6F07"/>
<path d="M106.987 212.881C109.659 213.122 110.227 212.799 112.449 208.018C113.236 206.325 113.83 205.22 115.842 205.957C117.196 204.589 118.361 203.037 119.869 201.819C132.052 189.238 142.818 175.44 154.039 162.033C154.999 161.877 155.477 162.182 155.179 163.227C148.823 173.171 140.739 181.715 133.036 190.569C124.242 200.679 115.099 210.511 108.016 221.983C107.639 222.515 107.391 223.4 107.702 223.672C108.094 224.015 108.421 223.065 108.932 222.916C112.607 218.869 116.282 214.822 119.957 210.774C120.045 212.16 120.736 212.979 122.158 213.113C114.397 222 105.151 229.479 97.8085 238.766C97.2949 239.415 96.7172 240.037 96.0771 240.559C95.0293 241.412 94.6137 244.155 93.1756 243.02C92.0567 242.136 91.0164 239.634 92.1876 237.625C97.0289 229.323 101.112 220.565 106.987 212.881Z" fill="#CA7313"/>
<path d="M191.037 92.1412C177.795 105.699 164.545 119.239 152.528 133.938C138.623 150.949 125.671 168.638 113.742 187.081C113.399 187.611 113.312 188.307 113.105 188.926C112.261 190.106 111.263 190.781 109.8 189.932C109.858 187.405 110.471 185.141 112.003 182.994C133.296 153.154 154.764 123.46 181.517 98.0963C184.156 95.5951 187.009 93.3211 189.763 90.9417C190.866 90.6212 191.221 91.0946 191.037 92.1412Z" fill="#CD710B"/>
<path d="M416.966 227.003C408.527 218.913 402.428 208.919 395.02 199.984C381.115 183.212 367.528 166.176 353.826 149.235C352.741 147.893 351.11 146.781 352.146 144.147C375.953 170.521 398.692 197.756 419.059 226.936C418.381 227.591 417.683 227.597 416.966 227.003Z" fill="#CA6D08"/>
<path d="M333.982 81.0952C354.494 100.058 373.329 120.536 389.938 143.024C390.373 144.213 391.387 145.572 389.078 145.956C370.947 125.715 352.813 105.479 334.703 85.221C333.944 84.3719 333.411 83.3204 332.773 82.3633C332.49 81.2872 332.971 80.9386 333.982 81.0952Z" fill="#CF6F07"/>
<path d="M367.783 155.123C351.008 136.869 335.045 117.933 320.129 98.1293C318.967 96.5868 317.046 95.4775 316.828 93.2724C316.505 92.2346 317.003 91.9697 317.927 92.1065C327.813 96.5898 332.93 105.619 338.562 114.054C347.401 127.293 357.543 139.487 367.854 151.562C368.276 152.055 368.539 152.683 368.876 153.248C369.717 154.576 369.536 155.308 367.783 155.123Z" fill="#D06E06"/>
<path d="M178.012 479.844C186.244 474.379 188.875 475.163 189.571 484.849C190.51 497.902 192.207 498.169 178.328 495.855C170.297 494.515 169.31 492.306 172.952 484.857C174.41 482.955 176.049 481.237 178.012 479.844Z" fill="#E32237"/>
<path d="M395.759 238.137C385.852 235.132 377.996 228.722 370.113 222.451C360.152 214.528 350.91 205.744 340.413 198.43C336.902 195.984 334.688 191.675 331.882 188.217C331.583 187.137 332.017 186.766 333.068 186.991C352.421 206.133 374.709 221.514 397.021 236.862C397.264 237.944 396.955 238.48 395.759 238.137Z" fill="#CD700A"/>
<path d="M257.004 466.062C266.808 471.455 268.979 480.458 270.727 489.634C271.157 491.892 269.427 492.023 267.807 491.567C264.613 490.667 261.47 489.585 258.269 488.715C256.119 488.131 255.965 486.532 256.043 484.825C256.32 478.757 256.659 472.692 257.004 466.062Z" fill="#E22237"/>
<path d="M200.13 91.2577C187.216 105.224 174.303 119.19 161.389 133.156C160.231 133.591 159.821 135.471 158.295 135C157.422 134.73 157.422 133.815 158.046 133.071C169.652 117.121 182.802 102.612 198.131 90.1382C199.463 89.323 200.264 89.4564 200.13 91.2577Z" fill="#CF6F08"/>
<path d="M323.05 157.965C310.318 141.142 299.556 123.189 292.123 103.282C299.745 110.303 301.243 121.099 308.203 128.985C314.874 136.543 318.837 146.834 324.025 155.904C324.542 156.989 324.823 157.963 323.05 157.965Z" fill="#CC700C"/>
<path d="M367.783 155.123C368.61 154.768 368.897 154.097 368.876 153.248C384.931 171.385 400.358 190.024 414.085 210.01C414.795 211.044 416.813 212.472 415.04 213.697C413.628 214.673 412.291 212.938 411.528 211.693C407.37 204.915 403.633 197.896 398.375 191.81C389.045 181.013 379.921 170.038 370.735 159.117C369.671 157.852 368.763 156.458 367.783 155.123Z" fill="#C77319"/>
<path d="M183.051 188.084C197.797 172.553 211.016 155.812 222.823 137.951C224.635 137.83 224.743 138.667 223.974 139.997C212.953 158.489 199.788 175.276 184.143 190.092C182.326 190.212 182.388 189.311 183.051 188.084Z" fill="#CC700E"/>
<path d="M335.882 184.058C323.824 172.936 315.01 159.351 306.602 145.461C305.579 143.771 304.71 141.988 303.769 140.248C303.567 139.056 304.088 138.663 305.215 138.94C311.407 147.914 317.747 156.792 323.739 165.898C327.588 171.747 333.574 175.752 337.003 181.901C337.587 183.118 337.751 184.115 335.882 184.058Z" fill="#CD700C"/>
<path d="M243.796 476.447C243.675 486.144 242.273 488.233 234.037 490.979C233.162 491.271 232.188 492.147 231.353 491.148C230.651 490.308 231.067 489.239 231.431 488.327C233.636 482.794 235.866 477.27 239.621 472.541C240.395 471.567 240.831 469.777 242.485 470.425C243.542 470.839 243.735 472.288 243.787 473.469C243.831 474.46 243.796 475.454 243.796 476.447Z" fill="#DD253A"/>
<path d="M386.864 200.042C374.785 186.359 363.452 172.085 352.896 157.195C352.6 156.131 353.021 155.758 354.064 155.986C363.702 168.012 373.35 180.03 382.97 192.072C384.728 194.272 386.368 196.567 388.063 198.818C388.347 199.896 387.912 200.269 386.864 200.042Z" fill="#CB7110"/>
<path d="M215.153 93.2729C204.457 106.785 192.889 119.532 181.076 132.063C180.08 132.265 179.625 131.952 179.958 130.889C190.765 117.499 201.972 104.458 213.865 92.0144C214.963 91.7502 215.374 92.1883 215.153 93.2729Z" fill="#C97210"/>
<path d="M333.068 186.991C332.672 187.399 332.277 187.807 331.882 188.216C317.851 173.559 304.132 158.689 298.308 138.493C298.081 137.705 298.013 136.87 297.871 136.056C298.202 135.732 298.549 135.713 298.913 136C306.469 155.561 318.427 172.174 333.068 186.991Z" fill="#BE741F"/>
<path d="M404.027 192.999C398.604 186.88 394.575 179.802 390.185 172.967C385.816 166.165 381.183 159.547 374.612 153.929C377.271 152.54 378.416 154.183 379.669 155.233C386.025 160.557 390.156 167.552 394.309 174.567C397.769 180.412 401.517 186.088 405.137 191.839C405.412 192.842 404.922 193.114 404.027 192.999Z" fill="#CB7211"/>
<path d="M349.007 71.0376C362.24 80.4384 372.87 92.6267 384.289 103.971C383.875 104.464 383.38 104.569 382.802 104.286C373.079 97.1028 364.879 88.2652 356.254 79.8875C353.537 77.2486 350.714 74.7182 347.94 72.1381C347.674 71.1687 347.945 70.7199 349.007 71.0376Z" fill="#CB7414"/>
<path d="M406.935 141.052C397.979 128.181 387.117 116.995 375.987 106.045C375.755 105.131 376.001 104.702 377.005 105.044C390.525 113.861 399.201 126.991 408.081 139.94C408.375 141.007 407.891 141.273 406.935 141.052Z" fill="#C47216"/>
<path d="M344.201 182.917C353.032 192.68 362.258 202.052 371.992 210.92C372.272 211.956 371.892 212.334 370.856 212.057C358.242 205.536 350.558 194.192 342.572 183.143C343.051 182.612 343.594 182.536 344.201 182.917Z" fill="#CB7210"/>
<path d="M386.953 223.021C395.681 228.966 404.409 234.912 413.138 240.857C413.274 241.855 412.916 242.362 411.844 242.157C401.22 238.588 392.78 231.763 384.9 224.101C384.831 222.309 385.706 222.312 386.953 223.021Z" fill="#CB700E"/>
<path d="M335.916 128.077C327.066 119.13 320.095 108.65 312.419 98.7139C323.28 105.772 328.776 117.599 337.08 126.924C337.333 127.955 336.916 128.31 335.916 128.077Z" fill="#C47217"/>
<path d="M223.973 139.997C223.96 139.107 223.745 138.331 222.824 137.951C230.07 125.253 237.413 112.606 243.195 99.1389C244.027 99.0167 244.615 99.1041 244.076 100.162C238.943 114.232 232.23 127.503 223.973 139.997Z" fill="#BC7323"/>
<path d="M109.8 189.932C110.902 189.597 112.004 189.262 113.106 188.927C116.433 185.97 119.761 183.015 123.088 180.059C123.562 179.613 124.01 179.637 124.433 180.131C119.333 187.438 114.233 194.746 109.132 202.054C108.747 202.434 108.332 202.469 107.887 202.163C106.706 199.7 108.338 197.671 108.91 195.482C109.627 194.333 108.429 193.114 109.014 191.957C109.276 191.282 109.538 190.607 109.8 189.932Z" fill="#C9710E"/>
<path d="M299.994 36.0211C298.526 36.2505 297.057 36.4693 295.591 36.7129C294.503 36.8937 293.178 37.6852 292.553 36.2154C292.089 35.1217 293.171 34.3092 293.978 33.8652C297.589 31.8791 300.946 29.208 305.338 29.1216C306.755 29.0937 308.631 28.6137 308.857 30.8152C309.031 32.4982 309.761 34.6649 306.957 35.1383C304.746 36.2979 302.205 34.8582 299.994 36.0211Z" fill="#077C35"/>
<path d="M330.817 97.1837C325.228 93.9171 321.92 88.4298 317.788 83.7529C314.617 80.1636 311.574 76.4608 308.417 72.7412C313.382 74.0181 321.423 82.0934 331.881 96.2248C331.982 97.0498 331.808 97.5711 330.817 97.1837Z" fill="#C17216"/>
<path d="M346.999 116.031C354.145 124.472 361.29 132.912 368.435 141.353C357.986 135.963 352.319 126.188 345.955 117.054C345.627 116.023 346.059 115.768 346.999 116.031Z" fill="#C67217"/>
<path d="M107.972 201.994C108.359 202.014 108.745 202.034 109.132 202.054C107.922 204.129 107.164 206.495 105.235 208.108C104.517 208.564 103.628 208.61 102.928 209.095C101.945 209.836 101.27 210.963 100.058 211.419C99.6167 211.494 99.257 211.348 98.9675 211.014C99.4168 205.099 99.6079 199.136 105.736 195.626C107.086 194.853 107.935 193.203 109.014 191.957C109.202 193.069 111.956 193.166 110.232 195.035C108.349 196.207 107.661 198.349 106.317 199.966C104.311 202.38 107.472 201.24 107.972 201.994Z" fill="#C16F15"/>
<path d="M183.051 188.083C183.065 188.943 183.301 189.682 184.143 190.092C177.879 197.25 170.607 203.301 163.163 209.162C162.154 209.415 161.847 208.966 162.029 208.027C169.037 201.379 176.044 194.731 183.051 188.083Z" fill="#C07218"/>
<path d="M282.984 85.4043C290.002 92.3352 288.017 102.571 292.228 110.565C285.628 103.525 285.887 93.8748 282.984 85.4043Z" fill="#C37318"/>
<path d="M344.201 182.917C343.659 182.992 343.117 183.067 342.573 183.143C335.499 175.189 328.995 166.794 323.05 157.965C323.873 157.514 323.958 156.714 324.025 155.904C330.75 164.908 337.475 173.913 344.201 182.917Z" fill="#BB7521"/>
<path d="M303.991 46.0274C299.612 45.9226 295.352 48.0187 290.593 46.6647C292.469 43.0763 295.708 43.0658 298.937 43.0349C300.833 41.9335 303.091 43.301 304.979 42.1479C307.577 41.4409 310.635 39.9219 309.966 44.9759C308.168 46.4261 305.829 44.8063 303.991 46.0274Z" fill="#0E7938"/>
<path d="M237.006 55.5928C234.384 59.0904 231.25 61.4126 227.198 61.9794C225.35 62.2378 223.088 62.0586 222.453 60.1562C221.615 57.6456 224.316 57.1085 225.801 56.8225C229.478 56.114 233.264 55.966 237.006 55.5928Z" fill="#127739"/>
<path d="M311.024 93.0659C305.477 86.7443 299.444 80.7767 296.55 72.4814C302.59 78.2867 307.526 84.9892 312.029 92.0471C312.392 93.0753 311.919 93.2785 311.024 93.0659Z" fill="#C3721A"/>
<path d="M389.077 145.956C390.191 145.222 389.879 144.069 389.938 143.024C396.412 150.844 402.168 159.16 407.187 167.986C406.815 168.393 406.431 168.405 406.034 168.024C400.382 160.668 394.729 153.312 389.077 145.956Z" fill="#C0741E"/>
<path d="M238.003 86.1057C237.963 85.173 237.728 84.3515 236.769 83.9425C238.736 79.9632 240.576 75.9133 242.715 72.0279C244.361 69.0379 246.48 66.3461 250.729 63.7031C246.403 72.166 242.483 79.2871 238.003 86.1057Z" fill="#C87218"/>
<path d="M414.637 204.906C419.94 212.687 426.885 219.447 428.579 229.185C423.519 221.299 417.645 213.889 414.637 204.906Z" fill="#BD7221"/>
<path d="M315.052 466.808C316.414 467.275 319.56 466.094 319.063 469.066C318.716 471.145 317.417 473.865 314.824 474.56C313.055 475.035 309.111 470.67 309.316 468.887C309.502 467.272 311.051 466.678 315.052 466.808Z" fill="#DA263A"/>
<path d="M158.046 133.071C159.074 136.449 160.297 132.16 161.388 133.156C156.619 139.767 151.344 145.96 145.847 151.971C145.046 152.003 144.464 151.852 144.909 150.845C148.725 144.504 153.437 138.826 158.046 133.071Z" fill="#C77218"/>
<path d="M144.909 150.845C145.222 151.22 145.536 151.596 145.848 151.971C138.708 161.357 131.569 170.743 124.432 180.13C123.985 180.106 123.537 180.082 123.088 180.058C130.362 170.321 137.636 160.583 144.909 150.845Z" fill="#B7742D"/>
<path d="M333.981 81.0951C333.579 81.5172 333.176 81.9394 332.773 82.3624C327.194 76.6204 319.739 73.3528 312.827 67.0391C322.364 69.6014 328.353 75.0714 333.981 81.0951Z" fill="#BE731F"/>
<path d="M241.006 46.0278C242.19 46.2995 243.571 46.4747 242.021 48.0912C238.799 49.4192 235.295 47.7474 232.068 49.0277C229.781 49.1076 227.491 49.141 225.208 49.2869C224.039 49.3616 222.477 50.6121 222.146 48.4124C221.83 46.3108 223.426 46.101 225.006 46.0774C225.66 46.0676 226.314 46.0478 226.968 46.0326C231.647 45.3265 236.326 45.3357 241.006 46.0278Z" fill="#0A7937"/>
<path d="M216.12 162.277C215.352 158.603 213.962 163.425 213.025 162.05C216.687 156.717 220.349 151.383 224.011 146.049C225.728 146.032 225.696 146.889 225.019 148.068C222.48 153.072 219.65 157.894 216.12 162.277Z" fill="#C47116"/>
<path d="M358.05 86.9535C364.086 90.5243 368.373 95.9497 372.981 101.035C373.179 101.997 372.879 102.441 371.848 102.125C366.871 97.4335 361.894 92.7416 356.918 88.0497C356.732 87.1029 357.013 86.6386 358.05 86.9535Z" fill="#C3751C"/>
<path d="M300.094 91.034C297.471 89.9613 298.089 92.0491 297.866 93.3183C294.599 88.644 291.983 83.617 289.783 78.3651C289.528 77.2287 289.987 76.7849 291.116 76.9914C294.208 81.6086 297.642 86.0076 300.094 91.034Z" fill="#BD6C13"/>
<path d="M317.927 92.1063C317.561 92.4947 317.195 92.8831 316.828 93.2718C311.3 87.1238 307.096 80.104 303.347 72.7607C309.551 78.2108 312.48 86.109 317.927 92.1063Z" fill="#BE7524"/>
<path d="M266.078 48.1679C266.052 48.0082 266.025 47.8485 265.999 47.6887C265.609 45.2893 263.386 41.8495 266.063 40.8148C268.193 39.9915 268.667 44.1847 269.985 46.0724C270.773 48.0874 270.735 50.1062 270.013 52.1281C269.676 52.443 269.339 52.7578 269.002 53.0727C267.198 54.112 266.68 53.1098 266.525 51.5173C266.416 50.3957 266.776 49.211 266.078 48.1679Z" fill="#0E793B"/>
<path d="M337.502 133.319C331.125 130.505 326.947 125.822 325.478 118.882C329.486 123.694 333.494 128.506 337.502 133.319Z" fill="#BA721C"/>
<path d="M238.636 71.0127C237.471 77.5249 232.266 81.0017 228.318 85.4143C229.863 79.2614 234.821 75.5029 238.636 71.0127Z" fill="#B77225"/>
<path d="M357.197 117.942C356.777 118.342 356.357 118.742 355.937 119.143C351.689 114.314 347.441 109.485 343.193 104.655C350.526 106.375 352.279 113.78 357.197 117.942Z" fill="#C2751D"/>
<path d="M225.019 148.068C224.983 147.245 224.846 146.473 224.011 146.049C226.614 141.681 229.186 137.294 231.843 132.959C232.413 132.028 233.283 130.764 234.527 131.586C235.543 132.258 234.868 133.466 234.16 134.131C229.986 138.048 228.324 143.595 225.019 148.068Z" fill="#B87327"/>
<path d="M293.97 56.1128C293.648 56.1009 293.325 56.0868 293.003 56.0705C292.4 55.4145 292.397 54.7705 293.041 54.1396C296.814 53.9848 300.458 52.56 304.298 53.0181C305.281 53.1354 306.451 53.0121 306.738 54.211C307.042 55.4838 306.067 55.9063 305 56.0885C301.325 56.8597 297.648 56.8281 293.97 56.1128Z" fill="#057C33"/>
<path d="M386.953 223.021C386.089 223.039 385.322 223.242 384.9 224.101C380.219 220.086 375.538 216.072 370.857 212.057C371.235 211.678 371.614 211.299 371.992 210.92C376.979 214.954 381.966 218.987 386.953 223.021Z" fill="#C37420"/>
<path d="M210.021 109.157C209.595 108.123 211.286 106.979 209.858 105.995C213.899 101.347 217.603 96.3766 222.692 92.6934C219.604 99.0632 213.908 103.42 210.021 109.157Z" fill="#BD7525"/>
<path d="M202.695 471.559C199.67 473.583 197.318 475.83 193.788 475.854C192.665 475.862 191.767 475.382 191.479 474.338C191.107 472.991 192.285 472.667 193.212 472.419C196.119 471.642 198.937 469.871 202.695 471.559Z" fill="#CB2B41"/>
<path d="M112.064 236.119C111.614 237.151 110.533 238.22 112.244 239.123C108.572 242.055 104.362 244.053 100.163 246.069C99.0758 246.547 98.9423 246.002 99.1333 245.11C103.558 242.277 107.186 238.299 112.064 236.119Z" fill="#BD6E13"/>
<path d="M281.093 80.0937C276.923 76.1295 276.796 71.3522 277.039 66.3096C280.299 71.0229 281.842 76.052 281.093 80.0937Z" fill="#B46C1D"/>
<path d="M207.021 94.1385C206.634 93.2969 205.902 93.1036 205.069 93.1003C209.709 88.7293 214.349 84.358 218.988 79.9868C219.46 79.61 219.894 79.6502 220.288 80.1073C215.866 84.7844 211.444 89.4614 207.021 94.1385Z" fill="#BF7420"/>
<path d="M215.154 93.2731C214.725 92.8534 214.296 92.4337 213.866 92.0143C217.646 87.1498 221.837 82.6813 226.604 78.7432C223.423 84.1137 219.465 88.8338 215.154 93.2731Z" fill="#B67427"/>
<path d="M98.9676 211.014C99.3327 211.015 99.6978 211.016 100.063 211.017C101.161 210.292 102.705 209.858 102.037 207.984C103.168 206.351 104.177 207.831 105.234 208.109C102.727 212.242 100.218 216.375 97.2946 221.192C95.6637 216.786 100.414 214.451 98.9676 211.014Z" fill="#AE702A"/>
<path d="M386.864 200.043C387.264 199.635 387.663 199.228 388.062 198.819C392.507 203.556 396.6 208.576 400.228 213.969C399.83 214.37 399.419 214.383 398.996 214.008C394.952 209.353 390.908 204.698 386.864 200.043Z" fill="#BA7228"/>
<path d="M313.023 128.071C312.639 128.459 312.255 128.847 311.871 129.236C308.279 124.56 305.669 119.305 302.964 114.107C302.413 113.036 302.988 112.98 303.821 113.157C306.888 118.128 309.955 123.099 313.023 128.071Z" fill="#B3752E"/>
<path d="M200.13 91.2571C199.74 90.3902 199.014 90.1238 198.131 90.1373C202.608 86.2425 206.519 81.6414 212.007 79.0078L212.072 79.0822C208.588 83.6279 204.314 87.3991 200.13 91.2571Z" fill="#C07725"/>
<path d="M162.029 208.027C162.407 208.405 162.785 208.783 163.163 209.161C158.975 213.432 153.869 216.48 148.424 219.194C152.959 215.472 157.494 211.75 162.029 208.027Z" fill="#A77132"/>
<path d="M109.163 248.061C109.859 249.272 111.078 248.883 112.123 249.03C107.358 251.576 102.19 252.848 96.6284 253.197C100.807 251.485 104.985 249.773 109.163 248.061Z" fill="#BC7525"/>
<path d="M354.063 155.987C353.674 156.389 353.285 156.792 352.896 157.195C349.086 153.223 346.345 148.47 343.479 143.756C347.629 147.281 351.038 151.461 354.063 155.987Z" fill="#B6722C"/>
<path d="M338.091 76.0534C337.058 76.4918 335.958 74.8414 334.954 76.1543C331.658 73.43 328.362 70.7053 325.066 67.9806C324.82 67.0898 324.97 66.6004 326.029 67.0301C330.192 69.8474 334.481 72.497 338.091 76.0534Z" fill="#BE7520"/>
<path d="M386.776 217.136C387.165 216.741 387.555 216.345 387.944 215.949C392.084 219.245 395.692 223.087 399.248 226.982C398.812 227.447 398.351 227.474 397.865 227.063C394.169 223.754 390.472 220.445 386.776 217.136Z" fill="#B97A2D"/>
<path d="M229.013 37.1351C233.114 36.0503 237.293 35.8279 241.489 36.204C242.524 36.2968 244.624 36.6632 242.026 38.0734C238.05 39.1549 234.003 38.378 229.991 38.4953C229.274 38.5162 228.935 37.883 229.013 37.1351Z" fill="#057D3B"/>
<path d="M335.916 128.077C336.303 127.693 336.691 127.308 337.079 126.924C340.183 130.081 343.286 133.239 346.389 136.396C342.302 134.356 338.665 131.769 335.916 128.077Z" fill="#AE702F"/>
<path d="M382.051 203.968C383.588 203.378 384.262 206.327 385.996 204.93C389.027 207.066 390.981 210.185 393.322 212.951C392.874 213.425 392.371 213.493 391.813 213.154C388.559 210.092 385.305 207.03 382.051 203.968Z" fill="#BD6C1C"/>
<path d="M291.116 76.9914C290.673 77.4484 290.229 77.9054 289.784 78.3637C287.104 75.0069 285.382 71.1488 283.925 67.1518C283.572 66.71 283.607 66.3006 284.028 65.9238C286.77 69.3704 289.049 73.1134 291.116 76.9914Z" fill="#A36929"/>
<path d="M179.958 130.889C180.33 131.28 180.703 131.671 181.076 132.062C178.056 135.381 175.036 138.7 172.015 142.019C171.097 142.276 170.715 141.97 170.957 141.01C173.957 137.636 176.958 134.262 179.958 130.889Z" fill="#BB7727"/>
<path d="M331.944 63.1044C334.604 65.4301 337.263 67.7557 339.923 70.0814C340.133 71.0522 339.836 71.5072 338.787 71.1992C335.878 68.7899 332.97 66.3807 330.061 63.9714C330.073 62.3456 330.848 62.3748 331.944 63.1044Z" fill="#B86C1A"/>
<path d="M66.1306 266.647C69.6257 263.707 72.9615 265.586 76.0008 264.92C73.4313 268.254 70.2909 268.049 66.1306 266.647Z" fill="#E6E3E2"/>
<path d="M229.013 37.1348C233.22 39.2539 237.704 37.5398 242.026 38.0733C236.705 40.5065 231.049 38.0639 225.072 39.6822C226.256 37.6789 227.505 37.1934 229.013 37.1348Z" fill="#4D6853"/>
<path d="M335.882 184.058C336.841 183.644 336.938 182.781 337.003 181.901C339.746 184.926 342.489 187.952 345.232 190.978C344.825 191.473 344.394 191.496 343.937 191.046C341.121 188.867 337.942 187.108 335.882 184.058Z" fill="#BA7728"/>
<path d="M191.037 92.141C190.613 91.7413 190.189 91.3417 189.764 90.9417C192.035 88.1189 195.009 86.1099 197.861 83.9603C198.439 83.5954 198.956 83.6687 199.41 84.18C196.619 86.8336 193.828 89.4873 191.037 92.141Z" fill="#C27B24"/>
<path d="M127.732 234.472C129.144 230.88 132.388 230.411 136.174 229.238C134.164 233.274 130.238 232.698 127.732 234.472Z" fill="#A56C2D"/>
<path d="M209.339 452.991C212.64 452.432 214.411 454.652 217.01 455.033C213.327 458.249 212.69 458.068 209.339 452.991Z" fill="#F0EDEC"/>
<path d="M405.978 226.022C407.404 227.392 408.856 228.735 410.234 230.152C410.536 230.462 410.572 231.032 410.808 231.706C407.023 232.292 405.935 229.645 404.743 227.139C404.543 226.09 404.966 225.731 405.978 226.022Z" fill="#AE681C"/>
<path d="M404.027 192.999C404.397 192.612 404.767 192.226 405.137 191.839C407.568 194.231 409.999 196.623 412.43 199.016C409.086 197.697 405.884 196.245 404.027 192.999Z" fill="#9D6934"/>
<path d="M422.706 208.158C423.724 207.791 423.864 206.915 423.954 206.009C426.139 208.73 427.049 211.969 428.404 216.419C425.221 213.506 423.984 210.818 422.706 208.158Z" fill="#AD702F"/>
<path d="M75.7394 276.209C75.8156 278.176 74.7165 278.861 73.2981 279.035C72.0612 279.188 71.417 278.039 71.327 277.189C71.1135 275.173 73.318 275.188 74.3917 274.573C75.5791 273.893 75.3488 275.736 75.7394 276.209Z" fill="#C9C4C4"/>
<path d="M331.944 63.1048C331.189 63.1184 330.449 63.163 330.061 63.9723C327.58 62.5253 325.099 61.0787 321.799 59.1547C326.456 59.0951 329.277 60.9106 331.944 63.1048Z" fill="#946631"/>
<path d="M99.133 245.109C99.4757 245.429 99.8185 245.749 100.162 246.069C99.0742 247.284 97.6247 247.811 96.1048 248.205L95.8442 247.903C96.9652 245.591 96.0273 242.368 98.9639 240.859C99.2658 241.154 99.5677 241.449 99.8698 241.742C100.546 243.065 97.3644 243.546 99.133 245.109Z" fill="#9B6430"/>
<path d="M257.746 43.3477C259.493 46.991 259.051 49.2232 258.107 51.4527C256.548 49.2098 256.804 46.9766 257.746 43.3477Z" fill="#177244"/>
<path d="M244.076 100.162C243.782 99.8209 243.488 99.4797 243.194 99.1387C244.551 95.9581 245.908 92.7774 247.264 89.5967C247.435 93.5486 245.831 96.8802 244.076 100.162Z" fill="#9D7041"/>
<path d="M199.409 84.1802C198.893 84.1072 198.377 84.0342 197.861 83.9608C200.207 81.9814 202.554 80.0024 204.901 78.0234C203.727 80.7918 202.171 83.0879 199.409 84.1802Z" fill="#9D6F35"/>
<path d="M155.179 163.227C154.799 162.829 154.419 162.431 154.039 162.033C155.898 159.476 157.543 156.746 159.988 154.662C160.473 155.103 160.514 155.583 160.111 156.1C158.61 158.574 157.363 161.225 155.179 163.227Z" fill="#B6752E"/>
<path d="M303.821 113.158C303.536 113.474 303.25 113.79 302.965 114.107C300.721 111.313 299.521 108.025 298.907 104.409C300.545 107.325 302.183 110.241 303.821 113.158Z" fill="#8F693C"/>
<path d="M170.957 141.01C171.31 141.346 171.663 141.683 172.016 142.019C170.447 144.698 167.995 146.444 165.045 147.782C167.016 145.525 168.986 143.267 170.957 141.01Z" fill="#6D5434"/>
<path d="M241.006 46.0275C236.327 46.0294 231.647 46.0312 226.968 46.0326C231.646 44.5209 236.326 44.4852 241.006 46.0275Z" fill="#4A6C52"/>
<path d="M206.109 72.2253C205.721 71.2135 204.817 71.1395 203.933 71.0274C205.7 69.5083 207.669 68.4339 210.712 68.0498C209.625 70.4667 208.17 71.6466 206.109 72.2253Z" fill="#976530"/>
<path d="M349.006 71.0375C348.651 71.4041 348.295 71.7708 347.94 72.1377C345.596 70.633 343.253 69.1259 340.483 65.7275C344.488 67.4151 346.786 69.1573 349.006 71.0375Z" fill="#A37036"/>
<path d="M398.996 214.008C399.405 213.995 399.815 213.982 400.226 213.969C402.403 215.676 404.285 217.646 405.102 220.683C403.067 218.458 401.031 216.233 398.996 214.008Z" fill="#956E42"/>
<path d="M279.043 451.94C278.989 452.718 279.037 453.74 278.035 453.809C276.275 453.93 276.089 452.451 275.899 451.191C275.787 450.453 275.662 449.327 276.725 449.327C278.254 449.328 278.846 450.533 279.043 451.94Z" fill="#CCAC15"/>
<path d="M105.955 186.787C106.255 187.469 106.555 188.152 106.854 188.833C106.184 191.186 105.048 193.295 103.146 195.911C103.544 192.169 104.486 189.402 105.955 186.787Z" fill="#A46A33"/>
<path d="M406.034 168.023C406.418 168.011 406.801 167.999 407.186 167.986C409.399 169.949 410.694 172.476 411.049 175.66C409.377 173.114 407.706 170.569 406.034 168.023Z" fill="#9A6D43"/>
<path d="M298.913 136C298.566 136.019 298.219 136.038 297.872 136.057C296.868 133.733 295.865 131.409 294.861 129.085C294.538 128.621 294.612 128.211 295.028 127.847C296.871 130.304 298.199 133.006 298.913 136Z" fill="#99723F"/>
<path d="M338.787 71.1995C339.166 70.8271 339.545 70.4547 339.923 70.082C341.756 71.1408 343.174 72.6288 344.817 74.8325C341.827 74.4871 340.194 73.042 338.787 71.1995Z" fill="#986638"/>
<path d="M293.97 56.1122C297.647 56.1041 301.323 56.096 305 56.0879C301.327 57.7277 297.65 57.6633 293.97 56.1122Z" fill="#446D57"/>
<path d="M212.007 79.0077C212.668 76.2954 215.342 75.8879 217.056 74.3779C215.944 76.563 214.769 78.6695 212.071 79.0821L212.007 79.0077Z" fill="#795938"/>
<path d="M371.848 102.126C372.225 101.763 372.603 101.399 372.981 101.036C374.646 102.046 375.912 103.458 377.004 105.044C376.665 105.378 376.326 105.712 375.987 106.046C374.253 105.113 372.909 103.768 371.848 102.126Z" fill="#A86E2E"/>
<path d="M406.935 141.052C407.316 140.681 407.698 140.311 408.081 139.94C409.465 141.723 410.564 143.631 410.871 146.133C408.556 145.012 407.907 142.907 406.935 141.052Z" fill="#956E42"/>
<path d="M391.813 213.154C392.315 213.087 392.817 213.019 393.32 212.951C394.888 214.263 396.455 215.576 398.021 216.889C397.694 217.224 397.367 217.559 397.04 217.894C394.897 216.809 393.335 215.007 391.813 213.154Z" fill="#996936"/>
<path d="M232.068 49.0275C235.242 47.1884 238.712 48.4966 242.021 48.091C238.867 50.1351 235.383 48.6802 232.068 49.0275Z" fill="#466E58"/>
<path d="M178.011 479.845C176.808 482.002 175.028 483.58 172.952 484.857C173.697 482.237 175.325 480.506 178.011 479.845Z" fill="#A0353B"/>
<path d="M420.86 180.147C421.238 179.765 421.617 179.384 421.995 179.003C423.197 180.425 423.592 182.137 423.556 184.112C422.424 182.954 421.084 181.978 420.86 180.147Z" fill="#A76F37"/>
<path d="M411.844 242.157C412.274 241.724 412.705 241.291 413.137 240.857C414.495 241.31 415.899 241.706 416.317 243.667C414.639 243.402 413.087 243.315 411.844 242.157Z" fill="#9B6D39"/>
<path d="M311.024 93.066C311.359 92.7262 311.693 92.3865 312.029 92.0469C313.14 93.3748 314.47 94.574 314.824 96.9406C312.914 95.872 311.843 94.6024 311.024 93.066Z" fill="#A27137"/>
<path d="M395.759 238.138C396.18 237.713 396.601 237.288 397.022 236.863C398.543 237.198 399.763 237.95 400.709 239.702C398.739 239.643 397.162 239.223 395.759 238.138Z" fill="#AF7731"/>
<path d="M220.288 80.1069C219.855 80.0671 219.421 80.0273 218.988 79.987C220.082 78.3741 221.344 76.9769 223.648 76.0684C222.879 78.203 221.64 79.2036 220.288 80.1069Z" fill="#886646"/>
<path d="M382.802 104.286C383.297 104.181 383.792 104.077 384.288 103.972C385.837 104.24 386.723 105.226 387.579 106.778C385.221 106.82 383.963 105.642 382.802 104.286Z" fill="#8E6635"/>
<path d="M346.999 116.031C346.651 116.373 346.303 116.714 345.954 117.055C344.963 115.772 343.973 114.49 342.626 112.748C345.219 113.112 346.124 114.553 346.999 116.031Z" fill="#9E6D3F"/>
<path d="M326.028 67.0302C325.707 67.3472 325.386 67.6642 325.065 67.981C323.382 67.3491 322.288 66.1385 321.161 64.3203C323.548 64.5651 324.708 65.9366 326.028 67.0302Z" fill="#906439"/>
<path d="M405.978 226.022C405.567 226.394 405.157 226.765 404.745 227.138C403.863 225.822 402.982 224.506 401.363 222.086C404.09 223.345 405.134 224.559 405.978 226.022Z" fill="#846241"/>
<path d="M108.932 222.916C108.331 224.626 107.029 225.628 105.207 226.926C105.688 224.535 106.766 223.209 108.017 221.983C108.322 222.294 108.627 222.605 108.932 222.916Z" fill="#5B442E"/>
<path d="M122.104 213.138C122.864 211.453 122.774 208.739 125.941 209.969C125.045 211.49 123.944 212.762 122.104 213.138Z" fill="#CA7313"/>
<path d="M266.078 48.168C268.084 49.1881 265.633 52.8646 269.002 53.0729C267.442 54.5684 266.332 54.3614 266.053 52.1347C265.89 50.8338 266.059 49.4916 266.078 48.168Z" fill="#417152"/>
<path d="M415.905 183.452C415.113 182.18 414.322 180.909 413.053 178.873C415.849 179.875 416.126 181.541 415.905 183.452Z" fill="#654B2A"/>
<path d="M119.869 201.819C119.063 203.719 117.858 205.231 115.844 205.958C116.266 203.89 117.628 202.413 119 200.942C119.29 201.234 119.579 201.526 119.869 201.819Z" fill="#724D32"/>
<path d="M330.816 97.1841C331.171 96.864 331.526 96.544 331.881 96.2246C333.07 96.5662 333.891 97.2974 334.372 98.656C332.561 99.5497 331.72 98.2845 330.816 97.1841Z" fill="#99652C"/>
<path d="M299.994 36.021C302.133 34.2882 304.625 35.3432 306.957 35.1379C304.827 36.9355 302.327 35.8235 299.994 36.021Z" fill="#44704E"/>
<path d="M397.865 227.063C398.324 227.036 398.784 227.009 399.245 226.982C400.296 227.544 401.122 228.311 401.68 229.772C399.628 229.706 398.794 228.311 397.865 227.063Z" fill="#936A39"/>
<path d="M295.027 127.847C294.973 128.26 294.918 128.673 294.862 129.085C293.84 127.901 292.861 126.701 293.252 124.834C294.56 125.522 294.886 126.629 295.027 127.847Z" fill="#736051"/>
<path d="M293.041 54.1392C293.028 54.7829 293.015 55.4267 293.003 56.0703C292.102 56.0199 290.664 56.3397 290.584 55.2994C290.452 53.572 292.081 54.2908 293.041 54.1392Z" fill="#3F644C"/>
<path d="M270.012 52.1278C270.003 50.1094 269.994 48.091 269.985 46.0723C271.506 48.0837 271.534 50.1022 270.012 52.1278Z" fill="#3D6B4F"/>
<path d="M303.991 46.0279C305.744 44.318 308.002 45.4821 309.966 44.9775C308.276 47.0423 305.994 45.7417 303.991 46.0279Z" fill="#546E52"/>
<path d="M304.979 42.1483C303.169 43.8271 300.967 42.8396 298.938 43.0357C300.747 41.3478 302.947 42.3185 304.979 42.1483Z" fill="#46634B"/>
<path d="M343.938 191.046C344.368 191.024 344.798 191.001 345.23 190.979C346.514 191.002 347.165 191.833 348.342 193.388C346.041 193.025 344.95 192.115 343.938 191.046Z" fill="#88663A"/>
<path d="M358.05 86.954C357.673 87.3197 357.296 87.6853 356.918 88.0506C356.027 87.6128 354.682 86.7825 355.291 86.0521C356.192 84.9707 357.252 86.1661 358.05 86.954Z" fill="#A26C3A"/>
<path d="M96.1049 248.205C95.3477 249.257 94.5597 250.246 92.78 249.645C93.6099 248.526 94.6132 248.032 95.8465 247.904C95.8444 247.903 96.1049 248.205 96.1049 248.205Z" fill="#69544D"/>
<path d="M416.966 227.002C417.663 226.981 418.361 226.959 419.059 226.937C419.716 227.311 420.735 228.15 420.025 228.517C418.808 229.146 417.799 227.941 416.966 227.002Z" fill="#93602E"/>
<path d="M284.028 65.9238C283.994 66.3328 283.96 66.7419 283.925 67.1514C283.139 66.1386 281.634 65.2342 282.759 63.8052C282.978 63.5267 283.961 64.9382 284.028 65.9238Z" fill="#745B46"/>
<path d="M305.215 138.94C304.734 139.376 304.252 139.811 303.77 140.247C303.037 139.444 301.867 138.257 302.723 137.518C303.818 136.574 304.531 138.133 305.215 138.94Z" fill="#BA7C33"/>
<path d="M160.111 156.1C160.07 155.622 160.029 155.145 159.988 154.665C160.034 153.608 160.563 152.971 161.651 152.521C161.854 154.223 161.02 155.178 160.111 156.1Z" fill="#7E603F"/>
<path d="M341.074 489.101C341.466 487.549 342.56 486.599 343.875 485.838C343.921 487.766 342.714 488.619 341.074 489.101Z" fill="#AF313E"/>
<path d="M245.104 329.184C235.465 329.083 221.218 326.341 210.135 314.693C205.862 310.202 203.712 304.697 202.312 298.796C201.85 296.85 202.544 296.15 204.495 295.907C208.726 295.379 212.399 296.649 214.455 300.201C220.563 310.752 229.663 316.796 241.498 318.545C255.019 320.544 268.044 318.461 280.186 312.056C290.92 306.394 299.621 298.684 303.989 286.921C305.738 282.212 309.595 283.644 312.896 284.163C317.161 284.833 315.607 287.931 314.967 290.341C311.364 303.911 302.61 313.272 290.495 319.749C278.611 326.103 265.694 329.088 245.104 329.184Z" fill="#362E2E"/>
<path d="M247.682 266.184C240.646 266.293 233.681 264.359 229.952 256.882C226.534 250.028 226.848 242.962 231.403 236.597C235.079 231.461 240.634 229.237 246.618 227.891C253.232 226.404 259.78 226.086 266.141 228.883C277.784 234.004 280.595 246.941 272.06 256.422C265.775 263.405 257.685 266.262 247.682 266.184Z" fill="#362E2E"/>
<path d="M270.856 202.944C270.673 197.396 272.435 192.489 275.896 188.214C280.254 182.831 287.668 181.241 293.891 184.095C295.77 184.957 296.479 186.448 297.163 188.201C299.861 195.106 299.235 201.818 296.232 208.444C292.687 216.266 287.423 219.412 280.265 217.972C274.152 216.742 270.785 211.365 270.856 202.944Z" fill="#362E2E"/>
<path d="M248.228 196.604C248.385 201.923 246.958 206.739 243.971 211.148C240.845 215.763 236.291 216.786 231.272 215.959C226.522 215.175 224.012 211.852 222.764 207.307C219.967 197.121 225.591 185.531 234.664 183.043C242.611 180.864 246.18 183.02 247.825 191.152C248.183 192.924 248.105 194.784 248.228 196.604Z" fill="#362E2E"/>
<path d="M310.16 257.036C308.394 256.389 305.927 256.952 305.942 254.297C305.959 251.438 308.126 250.254 310.568 250.069C313.139 249.874 314.731 251.713 314.778 254.027C314.843 257.206 311.736 256.145 310.16 257.036Z" fill="#3C3030"/>
<path d="M324.231 257.981C322.391 257.854 319.795 258.138 319.923 254.547C319.996 252.478 320.522 250.9 323.034 251.016C325.99 251.152 327.588 252.724 327.943 255.628C328.275 258.343 326.355 257.974 324.231 257.981Z" fill="#382E2E"/>
<path d="M306.338 258.021C307.597 259.582 310.889 259.708 310.703 262.457C310.557 264.61 308.9 266.268 306.199 266.171C303.703 266.081 302.798 264.473 303.384 262.59C303.873 261.018 302.901 258.204 306.338 258.021Z" fill="#3B302E"/>
<path d="M197.163 250.472C197.342 252.494 196.27 253.436 193.951 253.051C191.298 252.612 189.778 251.179 190.146 248.402C190.407 246.424 191.889 245.5 193.701 246.125C195.484 246.741 198.113 247.028 197.163 250.472Z" fill="#3D322D"/>
<path d="M193.162 264.245C191.145 264.181 189.077 264.1 189.094 261.586C189.11 259.173 190.973 258.151 193.115 258.09C195.247 258.028 196.904 258.735 197.063 261.428C197.264 264.826 194.728 263.823 193.162 264.245Z" fill="#382F2D"/>
<path d="M298.012 256.114C298.084 258.285 296.824 259.252 294.881 258.96C293.068 258.688 290.445 258.645 290.8 255.914C290.998 254.39 291.475 251.807 293.928 252.158C295.927 252.445 298.375 253.036 298.012 256.114Z" fill="#3E322E"/>
<path d="M213.303 262.355C213.007 264.571 211.653 265.945 209.421 265.925C207.126 265.904 205.884 264.437 205.854 262.104C205.82 259.45 207.971 259.384 209.64 259.399C211.345 259.414 213.426 259.642 213.303 262.355Z" fill="#382D30"/>
<path d="M305.099 245.962C303.376 245.415 301.096 244.913 301.091 242.476C301.086 239.93 303.425 240.034 305.187 240.056C307.138 240.08 309.011 240.825 308.796 243.181C308.632 244.982 307.305 246.082 305.099 245.962Z" fill="#3F322E"/>
<path d="M319.718 248.161C318.321 247.767 316.078 248.982 316.04 246.218C316.003 243.645 317.698 242.864 319.934 242.889C322.115 242.914 324.056 243.639 323.917 246.163C323.76 249 321.241 247.721 319.718 248.161Z" fill="#3C312F"/>
<path d="M207.569 243.126C206.06 242.813 203.467 243.622 203.308 241.101C203.157 238.717 205.315 237.95 207.49 237.894C209.34 237.847 210.833 238.396 210.999 240.544C211.186 242.954 209.56 243.195 207.569 243.126Z" fill="#3E302C"/>
<path d="M207.012 254.155C205.676 253.835 203.396 254.555 203.536 252.021C203.637 250.206 204.364 248.449 206.939 248.81C208.812 249.072 210.802 249.227 210.956 251.583C211.136 254.323 208.941 254.068 207.012 254.155Z" fill="#3E322D"/>
<path d="M95.2744 235.731C95.9655 234.026 96.0737 233.541 96.3319 233.157C98.2617 230.284 100.221 227.432 102.609 224.841C100.964 228.451 100.933 233.017 95.2744 235.731Z" fill="#362E2E"/>
<path d="M107.972 201.994C106.758 202.517 105.39 204.355 104.309 202.865C103.48 201.723 103.68 199.519 105.699 198.831C107.754 198.13 107.137 194.379 110.232 195.035C109.479 197.354 108.725 199.674 107.972 201.994Z" fill="#66472E"/>
<path d="M102.037 207.984C102.945 210.164 102.464 210.904 100.063 211.017C100.721 210.006 101.379 208.995 102.037 207.984Z" fill="#47332E"/>
<path d="M240.283 248.932C240.738 240.648 251.6 233.417 259.179 236.228C262.833 237.582 264.818 240 263.598 244.355C261.256 252.718 252.305 257.585 243.953 255.026C240.497 253.967 241.062 251.021 240.283 248.932Z" fill="#FCD202"/>
</svg>
