<svg width="512" height="512" viewBox="0 0 512 512" fill="none" xmlns="http://www.w3.org/2000/svg">
<path d="M233.081 67.5474C230.57 66.4684 228.226 65.4294 225.857 64.4534C223.993 63.6844 222.195 62.7964 220.945 61.1754C219.829 59.7284 218.622 58.0174 219.671 56.2124C220.904 54.0914 222.775 55.2354 224.542 55.7714C230.575 57.6024 236.657 59.2684 242.697 61.0764C244.903 61.7364 245.831 61.2124 246.43 58.8124C247.673 53.8334 249.541 49.0124 250.875 44.0524C256.113 24.5684 282.502 7.08943 309.392 16.5924C327.059 22.8364 335.334 35.0894 335.856 55.0264C336.03 61.6814 335.892 68.3544 335.624 75.0074C335.509 77.8594 335.978 79.1544 339.261 79.2064C345.41 79.3034 351.545 80.0664 357.696 80.2964C360.532 80.4024 362.493 81.5594 363.763 83.9114C365.67 87.4414 364.05 90.1564 360.014 90.0084C356.867 89.8924 353.736 89.3474 350.598 88.9914C347.637 88.6554 344.704 87.8024 341.294 88.5844C342.569 92.4314 345.7 95.0254 347.622 98.3364C354.376 109.971 354.012 122.059 351.164 134.517C349.815 140.416 346.948 145.676 344.332 151.039C343.444 152.86 343.439 154.07 344.984 155.769C352.836 164.403 355.704 174.629 353.611 186.098C353.222 188.23 353.512 189.534 354.697 191.439C367.537 212.083 379.077 233.371 383.649 257.599C384.297 261.035 386.491 261.743 388.692 262.942C402.019 270.201 406.206 278.22 403.685 293.048C402.548 299.737 400.601 306.219 397.553 312.433C394.45 318.76 390.215 323.579 383.527 325.713C380.402 326.71 381.481 328.744 381.634 330.459C382.833 343.858 381.916 357.163 378.442 370.079C374.513 384.686 365.701 396.424 354.467 406.38C339.765 419.41 321.599 423.866 302.929 426.803C299.663 427.317 298.449 428.396 297.814 431.468C295.233 443.947 295.244 443.675 306.91 448.184C319.584 453.083 329.759 461.497 337.714 472.441C342.567 479.117 340.04 490.071 333.04 494.557C327.071 498.382 320.333 499.517 313.482 499.571C296.068 499.708 279.768 494.727 263.962 487.935C261.593 486.917 259.925 486.809 257.533 488.062C246.121 494.044 235.196 501.154 222.148 503.472C211.752 505.319 201.718 504.896 192.007 500.292C184.976 496.959 182.754 488.718 187.502 482.459C193.169 474.988 200.815 470.002 208.977 465.717C213.388 463.401 217.798 461.066 222.318 458.979C224.595 457.928 225.606 456.775 225.092 454.088C223.905 447.889 222.928 441.645 222.075 435.391C221.657 432.325 220.283 431.284 217.168 431.259C204.075 431.154 191.254 428.815 179.18 423.931C146.969 410.901 118.779 379.326 123.644 338.027C124.229 333.059 124.712 328.077 126.437 323.386C127.286 321.076 126.618 320.567 124.565 320.059C109.835 316.421 105.186 307.922 109.592 293.397C112.535 283.697 118.473 276.084 125.607 269.222C126.184 268.667 126.985 268.079 127.731 268.007C134.426 267.36 135.185 262.624 135.982 257.21C139.409 233.934 149.67 214.085 166.734 197.816C171.413 193.355 175.421 188.138 180.984 184.677C182.815 183.538 182.667 182.155 182.592 180.458C182.037 167.889 185.378 156.427 192.842 146.302C194.323 144.293 194.482 142.657 193.781 140.437C187.102 119.306 192.637 100.613 206.374 84.3014C212.022 77.5944 220.366 73.7344 228.452 70.0974C229.905 69.4414 231.713 69.4234 233.081 67.5474Z" fill="#1D1D1B"/>
<path d="M348.686 197.55C356.009 208.425 361.801 219.742 366.765 231.463C370.624 240.573 374.866 249.59 375.14 259.853C375.223 262.941 376.774 265.757 380.235 267.135C396.914 273.776 395.936 283.095 394.518 295.9C393.737 302.957 390.956 309.708 385.748 315.034C380.219 320.689 373.3 321.848 367.8 318.065C361.872 313.987 359.149 304.524 362.076 298.168C363.052 296.049 364.426 293.709 362.25 291.777C359.912 289.702 357.53 291.265 355.503 292.723C349.432 297.089 343.088 296.731 336.604 293.963C332.753 292.32 332.083 289.904 334.362 286.491C337.437 281.886 342.964 279.642 348.572 280.722C353.668 281.703 355.477 279.945 354.373 274.849C353.079 268.875 351.52 262.958 350.264 256.976C349.52 253.433 347.244 251.706 344.051 252.456C340.561 253.276 341.917 256.4 342.371 258.707C343.105 262.437 344.124 266.11 344.925 269.828C345.471 272.36 345.483 274.533 341.746 274.02C339.553 273.719 337.526 274.617 335.577 275.594C328.473 279.158 323.922 285.319 324.898 290.912C326.14 298.029 332.313 299.629 337.952 301.552C339.975 302.242 342.296 303.08 344.267 302.711C350.363 301.569 351.962 304.367 353.098 309.883C354.896 318.609 360.626 324.596 369.505 326.703C371.924 327.277 372.371 328.473 372.583 330.324C376.849 367.475 360.996 403.177 322.096 414.612C313.728 417.072 305.615 420.422 296.416 419.085C292.776 418.556 289.988 420.639 289.761 425.709C289.483 431.924 287.362 438.022 286.884 444.324C286.524 449.075 288.61 450.739 293.283 451.695C301.647 453.407 310.217 455.335 316.435 462.037C320.71 466.644 326.487 469.644 329.881 475.236C332.855 480.137 330.366 488.108 324.844 489.912C316.747 492.557 308.51 492.53 300.238 490.894C289.381 488.746 278.532 486.577 268.415 481.798C264.067 479.744 262.305 476.583 261.888 471.675C260.701 457.713 260.468 443.791 261.7 429.84C261.922 427.331 260.919 425.237 258.359 425.301C256.016 425.359 253.069 425.13 252.795 429.215C251.722 445.195 251.491 461.132 253.833 477.03C254.12 478.976 254.387 480.808 252.158 482.249C238.578 491.03 224.314 497.599 207.63 496.873C204.788 496.749 202.054 496.116 199.447 495.002C193.629 492.514 192.551 488.626 196.455 483.659C198.724 480.772 201.447 478.223 204.678 476.472C213.655 471.608 221.625 464.758 232.071 462.74C234.399 462.29 235.477 460.432 235.001 457.783C233.275 448.174 231.647 438.548 230.032 428.92C229.309 424.615 227.473 423.156 222.587 423.506C189.082 425.907 148.735 408.546 134.95 368.78C131.751 359.552 131.33 349.943 132.74 340.248C133.639 334.063 133.114 327.701 135.897 321.74C136.657 320.112 137.094 318.945 138.816 318.404C141.596 317.53 143.96 315.842 145.662 313.587C147.588 311.034 148.482 311.201 150.593 313.664C158.283 322.637 170.452 323.507 178.402 316.026C186.935 307.998 187.565 293.397 179.658 285.537C178.494 284.38 177.179 282.965 175.704 282.601C169.468 281.061 171.185 277.954 173.564 274.223C176.868 269.043 179.759 263.608 180.81 257.452C181.192 255.214 181.795 252.444 178.289 252.063C175.741 251.786 173.436 251.332 172.679 255.477C171.33 262.863 167.502 269.367 163.302 275.595C160.058 280.406 160.858 282.58 166.347 284.782C178.778 289.768 181.378 303.242 171.517 311.799C168.985 313.996 166.293 316.146 162.584 314.454C158.586 312.631 155.759 309.752 155.026 305.265C154.815 303.974 155.111 302.609 155.033 301.287C154.942 299.749 155.812 297.486 153.488 297.156C151.183 296.829 148.468 295.962 146.715 298.714C145.023 301.37 143.422 304.107 141.495 306.585C138.363 310.612 134.586 313.706 129.157 314.175C120.417 314.93 114.278 308.188 116.422 299.752C118.626 291.08 122.988 283.507 129.06 276.923C131.392 274.394 134.224 272.644 137.596 272.162C141.158 271.652 142.668 269.834 142.967 266.294C145.564 235.602 161.522 212.31 183.911 192.576C185.416 191.25 186.138 191.274 187.332 192.852C197.009 205.641 210.007 213.513 225.151 218.156C226.975 218.715 227.9 220.11 229.103 221.54C235.432 229.071 235.016 236.866 233.328 246.281C228.949 270.713 225.438 295.294 218.995 319.314C217.756 323.932 216.122 328.449 214.537 332.967C213.536 335.822 214.1 338.222 217.064 338.841C220.055 339.466 223.549 339.826 224.073 335.081C224.327 332.786 225.068 330.546 225.347 328.252C225.765 324.818 227.679 324.057 230.816 324.48C234.316 324.953 233.406 327.177 233.103 329.302C232.962 330.288 232.94 331.293 232.905 332.291C232.832 334.413 231.975 337.463 234.207 338.153C236.622 338.899 238.028 336.046 239.091 334.032C239.928 332.446 240.904 330.61 240.83 328.928C240.643 324.667 242.872 325.037 245.875 325.411C248.799 325.775 249.55 327.1 248.804 329.662C247.664 333.576 247.9 337.572 248.001 341.561C248.054 343.678 248.901 345.066 251.288 344.997C253.487 344.933 253.863 343.529 254.128 341.678C254.692 337.745 255.814 333.873 256.132 329.929C256.472 325.725 259.134 325.752 262.003 326.12C265.61 326.582 263.813 329.381 263.681 331.109C263.405 334.739 262.582 338.323 262.164 341.947C261.898 344.254 261.9 346.584 262.656 348.869C263.409 351.146 265.179 352.209 267.217 351.795C269.42 351.347 270.481 349.369 269.753 347.144C267.613 340.596 271.148 334.798 272.013 328.657C272.377 326.072 274.612 327.275 276.062 327.068C277.673 326.838 278.965 327.111 279.058 329.308C279.141 331.28 279.961 333.238 279.935 335.195C279.879 339.49 281.797 341.451 286.029 340.931C290.554 340.375 290.721 336.934 289.824 333.805C287.65 326.216 286.797 318.389 287.111 310.694C287.651 297.466 288.86 284.149 289.139 271.013C289.379 259.72 293.203 248.932 292.058 237.701C291.87 235.855 293.259 236.011 294.158 235.553C296.694 234.26 299.46 232.954 300.839 230.522C303.904 225.117 309.059 223.386 314.373 221.401C327.65 216.441 339.224 208.856 348.686 197.55Z" fill="#FEFEFE"/>
<path d="M273.317 179.637C256.418 179.918 240.808 175.585 226.295 166.975C201.758 152.417 194.167 126.104 207.566 100.835C216.737 83.5401 233.032 77.0071 250.9 73.2801C253.031 72.8361 255.507 73.6881 257.755 74.2231C279.083 79.2991 300.503 83.8351 322.343 86.1571C329.349 86.9021 333.398 92.0031 336.86 97.3011C344.418 108.867 344.666 121.418 340.503 134.152C337.383 143.696 332.242 152.232 326.07 160.141C315.962 173.094 301.731 177.378 286.269 178.954C281.974 179.392 277.636 179.421 273.317 179.637Z" fill="#FEFEFE"/>
<path d="M251.938 297.824C259.246 297.93 266.547 297.893 273.811 299.025C276.869 299.501 278.158 300.757 277.805 303.938C277.33 308.218 276.723 312.504 277.452 316.849C277.951 319.824 275.373 319.023 274.08 318.969C265.625 318.616 257.176 318.112 248.732 317.547C243.437 317.193 238.156 316.638 232.867 316.188C230.913 316.022 229.549 315.477 230.683 313.125C230.754 312.978 230.757 312.799 230.821 312.647C232.856 307.816 230.576 300.443 236.129 298.201C240.704 296.354 246.618 297.824 251.938 297.824Z" fill="#E1052D"/>
<path d="M253.008 292.113C248.348 292.113 243.685 292 239.031 292.156C236.263 292.249 234.598 292.187 235.608 288.487C236.738 284.348 237.247 280.022 237.797 275.748C238.078 273.57 239.108 272.987 241.096 273.14C253.32 274.077 265.709 273.801 277.344 278.766C278.883 279.423 279.593 279.751 279.141 281.372C279.097 281.53 279.094 281.702 279.087 281.868C278.637 292.967 278.643 292.866 267.481 292.212C262.672 291.93 257.833 292.165 253.008 292.165C253.008 292.147 253.008 292.13 253.008 292.113Z" fill="#FDFDFD"/>
<path d="M279.838 265.61C279.929 273.174 279.971 272.835 273.301 272.013C263.25 270.775 253.354 268.316 243.2 268.018C240.34 267.934 239.797 266.719 240.137 264.342C240.373 262.695 240.733 261.041 240.731 259.391C240.727 256.609 241.945 255.863 244.681 255.755C254.17 255.381 263.461 255.596 272.891 257.701C278.624 258.98 281.147 260.61 279.838 265.61Z" fill="#E1052E"/>
<path d="M254.007 219.453C253.464 209.331 256.027 199.729 258.82 190.149C260.401 184.725 264.587 187.452 267.519 187.592C270.795 187.748 269.137 190.721 268.71 192.283C265.218 205.074 264.336 218.099 265.099 231.252C265.227 233.464 264.954 233.999 262.731 234.033C256.155 234.134 254.097 232.344 254.013 225.933C253.985 223.771 254.009 221.609 254.007 219.453Z" fill="#E1062E"/>
<path d="M247.291 184.976C253.16 185.092 253.711 185.847 252.189 191.491C249.191 202.607 247.492 213.895 247.725 225.445C247.746 226.498 248.428 227.966 247.117 228.591C245.938 229.153 244.891 228.076 244.076 227.379C242.574 226.095 241.053 224.724 239.943 223.112C233.675 214.006 234.474 196.786 241.52 188.347C242.97 186.608 244.351 184.51 247.291 184.976Z" fill="#FDFDFD"/>
<path d="M271.302 233.479C270.87 220.962 269.93 208.375 273.996 196.237C275.058 193.068 274.222 187.47 279.886 188.198C284.845 188.836 282.641 193.674 283.144 196.64C284.77 206.246 283.782 215.761 281.651 225.249C280.348 231.043 277.551 234.273 271.302 233.479Z" fill="#FDFDFD"/>
<path d="M281.97 244.629C281.97 245.618 282 246.117 281.965 246.613C281.501 253.188 280.918 254.077 274.691 252.839C265.209 250.953 255.759 249.624 246.075 250.286C243.14 250.487 241.2 249.637 242.572 246.039C243.156 244.508 243.538 242.867 243.771 241.241C244.149 238.592 245.306 237.941 247.807 239.007C257.479 243.129 267.483 243.205 277.58 241.04C281.248 240.253 283.731 240.278 281.97 244.629Z" fill="#FCFCFC"/>
<path d="M320.058 200.013C320.053 209.358 319.131 210.759 311.8 213.418C309.352 214.306 308.132 214.448 308.496 211.109C309.384 202.955 307.46 195.291 303.303 188.297C301.725 185.641 302.445 184.905 305 183.962C314.35 180.512 315.812 182.639 319.112 191.661C320.099 194.363 320.048 197.194 320.058 200.013Z" fill="#FCFCFC"/>
<path d="M207.369 199.855C205.041 200.03 197.959 193.052 198.518 190.798C200.354 183.392 201.863 175.823 206.203 169.332C207.359 167.603 208.51 164.541 211.442 166.97C213.973 169.067 218.763 170.017 216.418 175.187C213.062 182.586 209.123 189.797 208.764 198.199C208.727 199.061 208.467 199.839 207.369 199.855Z" fill="#E0062D"/>
<path d="M225.073 208.583C213.646 205.658 213.389 205.136 215.765 194.199C216.938 188.798 218.867 183.737 221.379 178.837C222.614 176.427 223.844 175.929 226.274 177.45C228.617 178.916 231.315 179.816 234.063 181.057C227.671 189.24 224.956 198.268 225.073 208.583Z" fill="#FCFCFC"/>
<path d="M287.659 228.159C289.255 220.478 290.471 213.346 290.222 206.048C290.046 200.893 289.98 195.751 289.056 190.657C288.81 189.303 288.845 187.858 290.475 187.351C292.206 186.813 293.091 187.801 293.976 189.278C299.901 199.168 300.07 209.415 295.969 219.895C294.566 223.48 292.363 226.516 287.659 228.159Z" fill="#DF072D"/>
<path d="M327.259 204.032C326.381 199.239 327.42 194.873 326.009 190.738C324.882 187.437 324.134 184.001 321.348 181.537C318.941 179.409 320.077 177.984 322.267 176.523C330.125 171.28 330.682 171.516 333.397 180.654C335.162 186.596 334.613 192.537 333.562 198.413C333.025 201.409 329.846 202.191 327.259 204.032Z" fill="#E0062D"/>
<path d="M341.296 187.884C340.557 184.526 339.774 181.178 339.091 177.809C338.421 174.507 337.387 171.333 334.732 169.14C333.051 167.751 333.701 166.847 334.629 165.52C338.044 160.634 339.493 160.647 342.114 166.09C345.578 173.282 345.671 180.558 341.296 187.884Z" fill="#F7F7F6"/>
<path d="M199.02 154.798C201.581 156.287 202.503 158.529 204.037 160.224C204.86 161.133 204.677 161.809 203.908 162.702C199.046 168.347 196.592 175.141 194.71 182.206C194.559 182.771 194.006 183.23 193.429 184.03C190.538 173.072 194.992 164.092 199.02 154.798Z" fill="#F8F7F7"/>
<path d="M308.06 135.561C305.905 133.587 300.806 134.829 301.56 131.253C302.342 127.543 306.846 128.873 309.817 128.923C316.575 129.035 323.294 133.639 325.112 139.035C325.647 140.624 326.384 142.453 324.676 143.571C323.23 144.518 321.496 143.502 320.762 142.323C318.597 138.844 317.114 140.897 315.794 142.805C307.265 155.137 294.793 160.983 280.801 164.606C261.495 169.605 238.131 159.027 229.399 141.068C228.894 140.029 228.193 138.904 228.204 137.825C228.25 133.408 227.142 130.934 222.051 133.008C220.645 133.581 218.975 132.907 218.229 131.385C217.468 129.833 218.856 128.941 219.756 128.045C222.431 125.386 225.709 123.812 229.404 123.209C236.376 122.072 237.586 123.4 237.491 130.313C237.393 137.425 240.987 143.362 246.121 147.616C268.567 166.214 295.666 153.593 308.06 135.561Z" fill="#1D1D1B"/>
<path d="M307.425 101.349C307.308 106.714 302.517 110.918 296.626 110.823C291.102 110.734 287.229 106.794 287.261 101.297C287.293 95.8452 291.285 92.1092 296.96 92.2212C302.991 92.3402 307.535 96.3032 307.425 101.349Z" fill="#1E1E1C"/>
<path d="M253.758 87.3586C261.236 87.5556 265.356 90.6416 265.033 95.8046C264.722 100.766 258.781 105.019 252.532 104.754C247.312 104.532 243.96 101.519 243.978 97.0636C243.999 91.6916 248.506 87.2196 253.758 87.3586Z" fill="#1E1E1C"/>
<path d="M283.693 119.627C283.587 124.637 278.322 130.233 273.978 129.955C269.474 129.667 264.157 124.562 264.314 120.677C264.482 116.516 269.596 112.963 275.109 113.178C280.131 113.372 283.768 116.105 283.693 119.627Z" fill="#1F1F1D"/>
</svg>
