<?xml version="1.0" encoding="utf-8"?>
<!-- Generator: Adobe Illustrator 25.4.1, SVG Export Plug-In . SVG Version: 6.00 Build 0)  -->
<svg version="1.1" id="Layer_1" xmlns="http://www.w3.org/2000/svg" xmlns:xlink="http://www.w3.org/1999/xlink" x="0px" y="0px"
	 viewBox="0 0 955 173.5" style="enable-background:new 0 0 955 173.5;" xml:space="preserve">
<style type="text/css">
	.st0{fill:#231F20;}
</style>
<path class="st0" d="M11.2,170.2l24.6-161h36.8l32.3,99.5l31.6-99.5H174l24.4,161h-35.6L149.8,65l-34.7,105.3H93.9l-35-107.4
	l-12,107.4H11.2V170.2z"/>
<path class="st0" d="M465.4,170.2L490,9.3h36.8l32.4,99.5l31.6-99.5h37.4l24.4,161h-35.7L603.9,65l-34.7,105.3H548L513,62.8
	l-12,107.4H465.4z"/>
<path class="st0" d="M289.1,98.9c0,0,32-8.9,32-42.5S298.8,9.2,265.4,9.2h-49.6v161.1h36v-64.9l1.5-0.4l35.1,65.2h42.8L289.1,98.9z
	 M251.5,76.7V39.6c0,0,33.9-4.2,33.9,18.6S251.5,76.8,251.5,76.7L251.5,76.7z"/>
<path class="st0" d="M366.3,173.5c11.1,0,20.1-9.2,20.1-20.6s-9-20.6-20.1-20.6s-20.1,9.2-20.1,20.6
	C346.2,164.3,355.2,173.5,366.3,173.5z"/>
<path class="st0" d="M670.1,9.3v161h94.2v-32.9H706v-34.5h58.3V69.7H706V42.2h58.3V9.3H670.1z"/>
<path class="st0" d="M791.7,170.2V9.3h37.6l75.9,103.5V9.3h35.5v161H906L827.1,64.8v105.5h-35.4V170.2z"/>
</svg>
