<?xml version="1.0" encoding="utf-8"?>
<!-- Generator: Adobe Illustrator 25.4.1, SVG Export Plug-In . SVG Version: 6.00 Build 0)  -->
<svg version="1.1" id="Layer_1" xmlns="http://www.w3.org/2000/svg" xmlns:xlink="http://www.w3.org/1999/xlink" x="0px" y="0px"
	 viewBox="0 0 1199.8 174.2" style="enable-background:new 0 0 1199.8 174.2;" xml:space="preserve">
<style type="text/css">
	.st0{fill:#231F20;}
</style>
<path class="st0" d="M700.3,170.8l24.6-161h36.8l32.3,99.5l31.6-99.5H863l24.4,161h-35.7l-13-105.3l-34.7,105.3H783L748,63.3
	l-12,107.4L700.3,170.8L700.3,170.8z"/>
<path class="st0" d="M526.1,9.8v161h94.1v-32.9H562v-34.5h58.3V70.2H562V42.7h58.3V9.8L526.1,9.8L526.1,9.8z"/>
<path class="st0" d="M16.1,9.8v160.6h89.2v-31.8H53.5V9.8H16.1z"/>
<path class="st0" d="M421.3,9.8v160.6h89.2v-31.8h-51.7V9.8H421.3z"/>
<path class="st0" d="M159.9,9.8h-37.5v160.6h37.5V9.8z"/>
<path class="st0" d="M943.6,9.8h-37.5v160.6h37.5V9.8z"/>
<path class="st0" d="M289.1,9.8H176.3v33h37.5v127.6h37.8V42.8h37.5V9.8z"/>
<path class="st0" d="M405.6,9.8H292.9v33h37.5v127.6h37.8V42.8h37.5L405.6,9.8L405.6,9.8z"/>
<path class="st0" d="M1043.5,51.3l22.3-22.6c0,0-11.4-22.4-47.5-22.4c-36.1,0-52.5,24-52.5,49.2s28,40.5,53.3,52.5
	c22.8,10.9,18.4,36.6-5.6,36.6c-24,0-28.5-20-28.5-20L963,149.2c0,0,7.5,25,51.4,25s55.9-27.2,55.9-48.2c0-21-11.2-41.2-43-51.7
	c-35.7-11.8-30.2-38.3-6.8-38.3C1036.9,36.1,1043.5,51.3,1043.5,51.3z"/>
<path class="st0" d="M1163.2,51.3l22.3-22.6c0,0-11.4-22.4-47.5-22.4c-36.1,0-52.5,24-52.5,49.2s27.9,40.5,53.3,52.5
	c22.9,10.9,18.4,36.6-5.6,36.6s-28.5-20-28.5-20l-21.9,24.6c0,0,7.6,25,51.4,25s55.9-27.2,55.9-48.2c0-21-11.2-41.2-43-51.7
	c-35.7-11.8-30.2-38.3-6.8-38.3C1156.6,36.1,1163.2,51.3,1163.2,51.3z"/>
</svg>
