<?xml version="1.0" encoding="utf-8"?>
<!-- Generator: Adobe Illustrator 25.2.3, SVG Export Plug-In . SVG Version: 6.00 Build 0)  -->
<svg version="1.1" id="Layer_1" xmlns="http://www.w3.org/2000/svg" xmlns:xlink="http://www.w3.org/1999/xlink" x="0px" y="0px"
	 viewBox="0 0 1032.51 84.77" style="enable-background:new 0 0 1032.51 84.77;" xml:space="preserve">
<style type="text/css">
	.st0{fill:#231F20;}
</style>
<path class="st0" d="M8.43,78.92L19.82,5.39h17.05l15,45.46L66.49,5.39H83.8L95.1,78.92H78.59l-6.01-48.08L56.53,78.92h-9.81
	L30.5,29.84l-5.56,49.08H8.43z"/>
<path class="st0" d="M218.75,78.92l11.39-73.53h17.05l15,45.46L276.8,5.39h17.32l11.31,73.53h-16.51l-6.01-48.08l-16.06,48.08h-9.81
	l-16.22-49.08l-5.56,49.08H218.75z"/>
<path class="st0" d="M799.52,78.96l11.39-73.53h17.05l15,45.46l14.62-45.46h17.31l11.31,73.53h-16.51l-6.01-48.08l-16.06,48.08
	h-9.81l-16.22-49.08l-5.56,49.08H799.52z"/>
<path class="st0" d="M137.1,46.36c0,0,14.82-4.08,14.82-19.44c0-15.36-10.32-21.55-25.76-21.55h-22.98v73.58h16.69V49.3l0.71-0.18
	l16.25,29.79h19.8L137.1,46.36z M119.69,36.21V19.24c0,0,15.71-1.9,15.71,8.51c0,10.41-15.71,8.51-15.71,8.51V36.21z"/>
<path class="st0" d="M172.88,80.42c5.15,0,9.32-4.21,9.32-9.4s-4.17-9.4-9.32-9.4c-5.14,0-9.31,4.21-9.31,9.4
	S167.73,80.42,172.88,80.42z"/>
<path class="st0" d="M313.58,5.39v73.53h43.61V63.88h-27.01V48.12h27.01V33h-27.01V20.43h27.01V5.39H313.58z"/>
<path class="st0" d="M718.86,5.43v73.53h43.61V63.92h-27.02V48.18h27.02V33.06h-27.02V20.47h27.02V5.43H718.86z"/>
<path class="st0" d="M369.86,78.92V5.39h17.4l35.17,47.27V5.39h16.43v73.53h-16.07l-36.51-48.18v48.18H369.86z"/>
<path class="st0" d="M482.63,5.43v73.35h41.33V64.24h-23.97V5.43H482.63z"/>
<path class="st0" d="M670.29,5.43v73.35h41.33V64.24h-23.97V5.43H670.29z"/>
<path class="st0" d="M549.26,5.43H531.9v73.35h17.36V5.43z"/>
<path class="st0" d="M912.23,5.43h-17.36v73.35h17.36V5.43z"/>
<path class="st0" d="M609.08,5.43h-52.21v15.08h17.36v58.27h17.49V20.51h17.36V5.43z"/>
<path class="st0" d="M663.06,5.43h-52.23v15.08h17.36v58.27h17.5V20.51h17.36V5.43z"/>
<path class="st0" d="M958.46,24.37l10.32-10.33c0,0-5.28-10.23-22.01-10.23s-24.31,10.95-24.31,22.46s12.93,18.47,24.67,23.99
	c10.59,4.98,8.53,16.74-2.6,16.74c-11.13,0-13.19-9.14-13.19-9.14l-10.14,11.22c0,0,3.51,11.41,23.83,11.41s25.88-12.4,25.88-22.01
	s-5.2-18.83-19.91-23.6c-16.51-5.37-14.01-17.48-3.15-17.48C955.42,17.38,958.46,24.37,958.46,24.37z"/>
<path class="st0" d="M1013.92,24.37l10.31-10.33c0,0-5.29-10.23-22.01-10.23c-16.72,0-24.33,10.95-24.33,22.46
	s12.95,18.47,24.68,23.99c10.58,4.98,8.52,16.74-2.61,16.74c-11.13,0-13.18-9.14-13.18-9.14l-10.17,11.22
	c0,0,3.49,11.41,23.82,11.41c20.32,0,25.9-12.4,25.9-22.01s-5.2-18.83-19.93-23.6c-16.51-5.37-13.99-17.48-3.14-17.48
	C1010.86,17.38,1013.92,24.37,1013.92,24.37z"/>
</svg>
