<?xml version="1.0" encoding="utf-8"?>
<!-- Generator: Adobe Illustrator 25.2.3, SVG Export Plug-In . SVG Version: 6.00 Build 0)  -->
<svg version="1.1" id="Layer_1" xmlns="http://www.w3.org/2000/svg" xmlns:xlink="http://www.w3.org/1999/xlink" x="0px" y="0px"
	 viewBox="0 0 1199.82 392.17" style="enable-background:new 0 0 1199.82 392.17;" xml:space="preserve">
<style type="text/css">
	.st0{fill:#231F20;}
</style>
<path class="st0" d="M128.24,170.22l24.6-160.97h36.84l32.35,99.51L253.6,9.25h37.37l24.42,160.97h-35.65L266.76,64.96
	l-34.67,105.26h-21.18L175.89,62.78l-12,107.44H128.24z"/>
<path class="st0" d="M582.37,170.22l24.6-160.97h36.81l32.38,99.51l31.58-99.51h37.37l24.42,160.97h-35.65L720.9,64.96
	l-34.67,105.26h-21.18L630.02,62.78l-12,107.44H582.37z"/>
<path class="st0" d="M700.31,379.55l24.6-160.97h36.81l32.35,99.51l31.58-99.51h37.4l24.42,160.97h-35.65l-12.98-105.26
	l-34.7,105.26h-21.15L747.96,272.1l-12,107.44H700.31z"/>
<path class="st0" d="M406.06,98.94c0,0,31.99-8.94,31.99-42.55S415.77,9.22,382.44,9.22h-49.61v161.09h36.04v-64.92l1.54-0.4
	l35.08,65.23h42.75L406.06,98.94z M368.48,76.73V39.58c0,0,33.93-4.16,33.93,18.63s-33.93,18.63-33.93,18.63V76.73z"/>
<path class="st0" d="M483.33,173.5c11.11,0,20.11-9.21,20.11-20.58c0-11.37-9.01-20.58-20.11-20.58c-11.11,0-20.11,9.21-20.11,20.58
	C463.22,164.29,472.22,173.5,483.33,173.5z"/>
<path class="st0" d="M787.14,9.25v160.97h94.17V137.3H823v-34.5h58.32V69.7H823V42.17h58.32V9.25H787.14z"/>
<path class="st0" d="M526.14,218.58v160.97h94.14v-32.92h-58.32v-34.5h58.32v-33.1h-58.32v-27.54h58.32v-32.92H526.14z"/>
<path class="st0" d="M908.65,170.22V9.25h37.58l75.93,103.46V9.25h35.47v160.97h-34.66L944.09,64.75v105.47H908.65z"/>
<path class="st0" d="M16.06,218.58v160.57h89.21v-31.82H53.55V218.58H16.06z"/>
<path class="st0" d="M421.27,218.58v160.57h89.21v-31.82h-51.72V218.58H421.27z"/>
<path class="st0" d="M159.91,218.58h-37.49v160.57h37.49V218.58z"/>
<path class="st0" d="M943.64,218.58h-37.49v160.57h37.49V218.58z"/>
<path class="st0" d="M289.1,218.58H176.33v33.01h37.49v127.57h37.79V251.59h37.49V218.58z"/>
<path class="st0" d="M405.64,218.58H292.88v33.01h37.49v127.57h37.79V251.59h37.49V218.58z"/>
<path class="st0" d="M1043.48,260.04l22.28-22.58c0,0-11.43-22.4-47.53-22.4c-36.09,0-52.52,23.98-52.52,49.15
	c0,25.17,27.96,40.46,53.3,52.55c22.84,10.88,18.38,36.65-5.62,36.65c-24,0-28.49-20.03-28.49-20.03l-21.89,24.59
	c0,0,7.54,24.99,51.42,24.99c43.88,0,55.91-27.17,55.91-48.18c0-21-11.23-41.24-43.02-51.67c-35.65-11.76-30.21-38.27-6.77-38.27
	C1036.89,244.84,1043.48,260.04,1043.48,260.04z"/>
<path class="st0" d="M1163.2,260.04l22.28-22.58c0,0-11.4-22.4-47.53-22.4c-36.12,0-52.49,23.98-52.49,49.15
	c0,25.17,27.93,40.46,53.27,52.55c22.87,10.88,18.41,36.65-5.62,36.65c-24.03,0-28.49-20.03-28.49-20.03l-21.89,24.59
	c0,0,7.57,24.99,51.45,24.99s55.88-27.17,55.88-48.18c0-21-11.23-41.24-42.99-51.67c-35.65-11.76-30.24-38.27-6.8-38.27
	C1156.64,244.84,1163.2,260.04,1163.2,260.04z"/>
</svg>
