<svg width="1126" height="324" viewBox="0 0 1126 324" fill="none" xmlns="http://www.w3.org/2000/svg">
<path d="M143.232 194.939C137.476 171.916 109.656 125.869 75.1208 159.445C47.4926 186.306 84.7139 209.649 106.778 217.963C86.6326 226.597 63.609 256.335 87.5919 278.399C106.778 296.051 132.68 280.638 143.232 270.725C137.476 288.952 141.313 326.365 180.645 317.731C212.111 310.824 209.105 281.597 203.669 267.847C224.774 278.399 256.431 282.237 262.187 247.702C266.791 220.073 235.326 210.608 219.018 209.329C225.413 207.41 239.931 201.271 246.838 192.061C255.472 180.55 251.634 164.241 234.367 159.445C220.553 155.608 202.39 169.358 195.035 176.712C197.913 166.48 201.366 142.561 192.157 128.747C180.645 111.479 154.744 116.276 148.988 132.584C143.232 148.892 136.517 170.957 109.656 170.957C82.7953 170.957 81.836 156.567 81.836 125.869C81.836 95.1708 36.1585 109.593 17.9316 99.9996C-0.295365 90.4065 -2.92929 43.2674 23.9316 26C45.8716 11.896 93.042 -1.78852 148.988 6.99948C219.018 17.9998 228.132 49.9545 324.542 49.9548C403.931 49.9549 428.518 39.8774 465.931 36.9994C495.862 34.6971 563.1 46.4373 574.931 49.9548C620.334 62.2351 686.131 92.9994 744.931 88.9994C803.731 84.9994 956.931 85.9994 1123.93 14.443" stroke="#FFB800" stroke-width="8"/>
<path d="M133.639 222.76C132.73 214.126 132.68 204.534 143.233 194.94C149.628 187.266 171.053 183.429 185.443 191.103C199.833 198.778 205.588 224.679 185.443 240.987C165.297 257.296 135.559 240.987 133.639 222.76Z" stroke="#FFB800" stroke-width="8"/>
</svg>
