<svg width="202" height="141" viewBox="0 0 202 141" fill="none" xmlns="http://www.w3.org/2000/svg">
<path d="M2.29207 12.8284C2.29207 16.9899 2.61219 26.2734 2.93231 31.0752C3.38047 37.7977 2.93228 43.88 2.93228 53.8037C2.93228 63.7274 1.33171 70.77 1.01159 75.8919C0.691469 81.0139 7.09386 81.0139 9.01458 76.2121C10.9353 71.4103 9.3347 61.1664 9.01458 57.6451C8.69446 54.1238 10.2951 52.5232 12.2158 51.2427C14.1365 49.9622 15.417 54.1238 15.417 57.9652C15.417 61.8067 15.7371 70.4499 19.8986 70.1298C24.0602 69.8097 24.0602 64.6878 23.42 61.1664C22.7797 57.6451 19.2584 51.2427 18.9383 44.8403C18.6182 38.4379 21.4992 27.874 22.7797 18.2704C24.0602 8.66681 21.1791 6.74609 19.5785 6.74609C17.9779 6.74609 14.4566 8.02657 14.7767 12.5082C15.0969 16.9899 14.4566 27.874 14.4566 31.0752C14.4566 34.2764 13.1761 35.877 11.5755 35.877C9.97494 35.877 9.01458 34.5965 9.01458 31.0752C9.01458 27.5539 9.65482 22.432 9.65482 15.3893C9.65482 8.34669 7.7341 7.38633 6.45362 7.38633C5.17314 7.38633 2.29207 8.66681 2.29207 12.8284Z" fill="#CED1D5" stroke="#14303F"/>
<path d="M45.8282 10.2674C47.1087 12.8284 51.1216 24.3527 52.8708 30.435C54.0677 34.5965 55.4318 32.9959 55.4318 30.1149V14.1089C55.4318 8.34672 56.3921 3.54492 59.2732 3.54492C62.1543 3.54492 63.7549 6.10588 63.7549 10.9077C63.7549 15.7095 61.514 27.874 61.1939 36.5173C60.8738 45.1605 59.5933 49.322 57.9927 50.2824C56.3921 51.2428 53.1909 51.2428 51.2702 46.7611C49.3495 42.2794 43.9075 29.7947 41.0264 23.7125C38.1453 17.6302 37.5051 10.2674 39.7459 8.66684C41.9868 7.06624 44.5477 7.70648 45.8282 10.2674Z" fill="#CED1D5" stroke="#14303F"/>
<path d="M74.3188 1.30421C76.5597 2.58469 81.6816 2.58469 83.6023 2.90481C88.4041 3.37706 89.0443 7.7066 87.7639 10.2676C86.4834 12.8285 81.6816 12.1883 78.8005 11.8682C75.9194 11.548 74.9591 12.5084 74.3188 15.0694C73.8066 17.1181 74.1054 19.7644 74.3188 20.8315C75.1725 20.1913 77.392 18.7187 79.4407 17.9504C82.0017 16.9901 84.2425 18.5907 84.2425 20.8315C84.2425 23.0724 82.3218 25.6333 80.081 27.2339C78.2883 28.5144 74.4255 29.4747 72.7182 29.7949C71.9713 30.5418 70.6695 32.4839 71.4378 34.2765C72.3981 36.5174 75.9194 32.3558 78.8005 32.0357C81.6816 31.7156 84.8828 33.6363 85.2029 37.1576C85.523 40.6789 83.9224 43.56 81.6816 44.2002C79.4407 44.8405 76.2395 43.2399 71.4378 44.2002C66.636 45.1606 62.7945 42.5997 62.4744 37.7979C62.1543 32.9961 65.0354 29.7949 65.9957 25.9534C66.9561 22.112 66.3158 12.5084 66.9561 7.7066C67.5963 2.90481 72.078 0.0237296 74.3188 1.30421Z" fill="#CED1D5" stroke="#14303F"/>
<path fill-rule="evenodd" clip-rule="evenodd" d="M93.0577 34.7374C93.4306 29.9958 94.1386 20.9921 95.767 14.7497C97.6878 7.38695 100.569 2.90527 102.81 2.90527C105.051 2.90527 106.971 8.98755 109.212 17.3107C109.833 19.6154 110.649 22.0674 111.452 24.4764C113.548 30.7669 115.546 36.764 113.694 39.0788C111.133 42.28 106.651 39.3989 105.691 36.5178C105.082 34.6913 104.859 33.7654 104.696 33.0876C104.602 32.6963 104.527 32.3877 104.41 32.0362C104.09 31.0758 103.77 30.7557 102.81 31.3959C102.726 31.4519 102.637 31.5103 102.545 31.571C101.582 32.2041 100.249 33.0805 100.249 33.9569C100.249 34.0774 100.259 34.2585 100.271 34.4843C100.359 36.0572 100.567 39.7994 98.328 40.3593C95.767 40.9995 92.2457 41.6397 92.886 36.838C92.9347 36.3021 92.9908 35.5884 93.0577 34.7374ZM100.569 24.0327C100.569 21.1516 100.569 16.6699 101.209 16.0297C101.849 15.3894 102.17 16.6699 102.49 18.5906C102.524 18.7967 102.562 19.0138 102.601 19.2384C102.929 21.1074 103.347 23.4955 102.49 24.3528C101.529 25.3132 100.566 25.6333 100.569 24.0327Z" fill="#CED1D5"/>
<path d="M95.767 14.7497L95.2832 14.6235L95.767 14.7497ZM93.0577 34.7374L92.5592 34.6982L93.0577 34.7374ZM109.212 17.3107L109.695 17.1807L109.212 17.3107ZM111.452 24.4764L111.926 24.3183L111.452 24.4764ZM113.694 39.0788L113.303 38.7664L113.694 39.0788ZM105.691 36.5178L105.216 36.6759L105.691 36.5178ZM104.696 33.0876L105.182 32.9706H105.182L104.696 33.0876ZM102.81 31.3959L103.087 31.8119L103.087 31.8119L102.81 31.3959ZM102.545 31.571L102.27 31.1532H102.27L102.545 31.571ZM100.271 34.4843L99.7722 34.5121V34.5121L100.271 34.4843ZM98.328 40.3593L98.4493 40.8443H98.4493L98.328 40.3593ZM92.886 36.838L93.3816 36.904L93.383 36.8937L93.3839 36.8832L92.886 36.838ZM101.209 16.0297L100.856 15.6761L101.209 16.0297ZM100.569 24.0327L101.069 24.0337V24.0327H100.569ZM102.49 18.5906L101.997 18.6728V18.6728L102.49 18.5906ZM102.601 19.2384L102.109 19.3246L102.601 19.2384ZM102.49 24.3528L102.843 24.7064L102.49 24.3528ZM95.2832 14.6235C93.6413 20.9175 92.9311 29.9695 92.5592 34.6982L93.5562 34.7766C93.93 30.0222 94.6359 21.0667 96.2508 14.8759L95.2832 14.6235ZM102.81 2.40527C102.081 2.40527 101.368 2.76695 100.706 3.34334C100.039 3.92377 99.3772 4.76011 98.741 5.80675C97.4675 7.90187 96.2514 10.9123 95.2832 14.6235L96.2508 14.8759C97.2034 11.2244 98.3881 8.31257 99.5956 6.32616C100.2 5.33203 100.799 4.58779 101.362 4.09781C101.93 3.6038 102.418 3.40527 102.81 3.40527V2.40527ZM109.695 17.1807C108.575 13.0222 107.528 9.39219 106.474 6.79861C105.948 5.50429 105.409 4.43626 104.839 3.68386C104.281 2.94644 103.611 2.40527 102.81 2.40527V3.40527C103.129 3.40527 103.54 3.6244 104.042 4.2875C104.532 4.93562 105.033 5.90835 105.548 7.17499C106.575 9.70332 107.608 13.276 108.729 17.4406L109.695 17.1807ZM111.926 24.3183C111.123 21.9063 110.311 19.4686 109.695 17.1807L108.729 17.4406C109.354 19.7621 110.176 22.2285 110.978 24.6344L111.926 24.3183ZM114.084 39.3911C114.64 38.6958 114.876 37.7653 114.919 36.7257C114.962 35.6819 114.812 34.4738 114.543 33.1677C114.006 30.5575 112.971 27.4545 111.926 24.3183L110.978 24.6344C112.028 27.7889 113.041 30.8297 113.563 33.3693C113.825 34.6382 113.958 35.7565 113.92 36.6848C113.882 37.6172 113.673 38.3044 113.303 38.7664L114.084 39.3911ZM105.216 36.6759C105.746 38.2645 107.215 39.8066 108.892 40.5375C109.739 40.9067 110.669 41.0822 111.582 40.9272C112.504 40.7706 113.371 40.2823 114.084 39.3911L113.303 38.7664C112.736 39.4759 112.082 39.8279 111.414 39.9414C110.736 40.0565 110.005 39.9319 109.292 39.6208C107.847 38.9912 106.596 37.6522 106.165 36.3597L105.216 36.6759ZM104.21 33.2046C104.375 33.8918 104.602 34.8321 105.216 36.6759L106.165 36.3597C105.562 34.5505 105.343 33.639 105.182 32.9706L104.21 33.2046ZM103.936 32.1943C104.045 32.5225 104.115 32.8109 104.21 33.2046L105.182 32.9706C105.088 32.5817 105.01 32.2529 104.885 31.878L103.936 32.1943ZM103.087 31.8119C103.307 31.6655 103.454 31.599 103.548 31.5742C103.592 31.5626 103.615 31.5625 103.623 31.563C103.627 31.5632 103.628 31.5637 103.628 31.5635C103.628 31.5635 103.627 31.5634 103.627 31.5632C103.627 31.5631 103.626 31.563 103.626 31.563C103.626 31.563 103.628 31.564 103.633 31.5672C103.637 31.5704 103.643 31.5761 103.653 31.5857C103.671 31.6055 103.697 31.6386 103.728 31.692C103.792 31.8026 103.859 31.9643 103.936 32.1943L104.885 31.878C104.801 31.6279 104.708 31.3894 104.593 31.1899C104.477 30.9907 104.315 30.7892 104.074 30.6686C103.561 30.4124 103.015 30.658 102.532 30.9799L103.087 31.8119ZM102.819 31.9888C102.911 31.9283 103.001 31.869 103.087 31.8119L102.532 30.9799C102.45 31.0348 102.362 31.0924 102.27 31.1532L102.819 31.9888ZM100.749 33.9569C100.749 33.8662 100.784 33.7415 100.891 33.576C100.999 33.4109 101.161 33.2324 101.37 33.0445C101.79 32.6666 102.331 32.3098 102.819 31.9888L102.27 31.1532C101.795 31.4653 101.188 31.8633 100.701 32.3009C100.457 32.5208 100.226 32.7653 100.053 33.0308C99.8805 33.2959 99.7487 33.6094 99.7487 33.9569H100.749ZM100.771 34.4565C100.758 34.2237 100.749 34.0599 100.749 33.9569H99.7487C99.7487 34.0949 99.76 34.2933 99.7722 34.5121L100.771 34.4565ZM98.4493 40.8443C99.8771 40.4874 100.441 39.1291 100.664 37.8904C100.893 36.6216 100.814 35.2354 100.771 34.4565L99.7722 34.5121C99.8164 35.306 99.8851 36.5774 99.6803 37.7129C99.47 38.8785 99.0184 39.6713 98.2067 39.8742L98.4493 40.8443ZM92.3903 36.7719C92.2238 38.021 92.3166 38.9887 92.6523 39.714C92.998 40.461 93.5769 40.8979 94.2535 41.1154C94.9103 41.3265 95.6511 41.3298 96.3621 41.2514C97.0778 41.1725 97.8054 41.0053 98.4493 40.8443L98.2067 39.8742C97.5701 40.0333 96.8972 40.1863 96.2524 40.2574C95.6028 40.3291 95.0232 40.3124 94.5595 40.1634C94.1158 40.0207 93.7743 39.7574 93.5598 39.2939C93.3352 38.8088 93.228 38.0558 93.3816 36.904L92.3903 36.7719ZM92.5592 34.6982C92.4922 35.5505 92.4364 36.2606 92.388 36.7927L93.3839 36.8832C93.433 36.3437 93.4894 35.6264 93.5562 34.7766L92.5592 34.6982ZM100.856 15.6761C100.689 15.8431 100.589 16.0779 100.522 16.2853C100.45 16.5084 100.393 16.7747 100.346 17.0651C100.251 17.6471 100.19 18.3785 100.15 19.1653C100.069 20.741 100.069 22.5951 100.069 24.0327H101.069C101.069 22.5892 101.069 20.7619 101.148 19.2165C101.188 18.4426 101.247 17.7536 101.333 17.2251C101.376 16.9603 101.423 16.7489 101.474 16.5931C101.529 16.4216 101.57 16.3763 101.563 16.3832L100.856 15.6761ZM102.983 18.5084C102.825 17.5602 102.657 16.7005 102.431 16.1575C102.372 16.0169 102.303 15.8796 102.218 15.7606C102.134 15.644 102.016 15.518 101.851 15.4389C101.671 15.3525 101.473 15.3403 101.283 15.4007C101.109 15.4561 100.968 15.564 100.856 15.6761L101.563 16.3832C101.611 16.3353 101.619 16.3432 101.587 16.3535C101.538 16.3689 101.473 16.3667 101.418 16.3404C101.378 16.3213 101.378 16.3053 101.405 16.3437C101.431 16.3798 101.467 16.4426 101.508 16.5421C101.682 16.9595 101.834 17.7003 101.997 18.6728L102.983 18.5084ZM103.094 19.1521C103.054 18.9271 103.017 18.7121 102.983 18.5084L101.997 18.6728C102.031 18.8813 102.07 19.1005 102.109 19.3246L103.094 19.1521ZM102.843 24.7064C103.153 24.3964 103.318 23.98 103.405 23.5548C103.492 23.1261 103.509 22.6443 103.489 22.1546C103.449 21.1773 103.256 20.0787 103.094 19.1521L102.109 19.3246C102.274 20.2671 102.454 21.297 102.49 22.1954C102.509 22.6434 102.49 23.0362 102.425 23.3549C102.359 23.6769 102.255 23.8806 102.136 23.9992L102.843 24.7064ZM100.069 24.0317C100.068 24.4666 100.13 24.8518 100.301 25.1447C100.493 25.4754 100.806 25.6531 101.168 25.6531C101.484 25.6531 101.79 25.5181 102.048 25.3577C102.316 25.1913 102.586 24.9638 102.843 24.7064L102.136 23.9992C101.913 24.222 101.703 24.3947 101.52 24.5084C101.327 24.628 101.212 24.6531 101.168 24.6531C101.154 24.6531 101.16 24.6507 101.173 24.6582C101.186 24.6656 101.18 24.6681 101.165 24.6413C101.126 24.574 101.068 24.3991 101.069 24.0337L100.069 24.0317Z" fill="#14303F"/>
<path d="M120.736 31.0755C120.95 27.7676 121.248 20.3835 120.736 17.3103C120.487 9.30735 120.736 2.90491 124.898 3.54515C129.059 4.18539 131.3 16.3499 133.541 21.4719C135.782 26.5938 135.142 20.8316 134.822 17.3103C134.501 13.789 134.822 3.22505 139.303 3.86529C143.785 4.50553 141.864 13.789 140.904 18.2707C139.943 22.7524 140.904 30.4352 141.224 37.4779C141.544 44.5205 140.264 45.1607 138.663 45.1607C136.102 45.1607 133.541 42.9199 132.581 37.4779C131.62 32.0358 128.419 22.1121 127.139 20.1914C125.858 18.2707 126.819 20.8316 127.139 24.3529C127.459 27.8743 127.459 35.237 127.459 37.4779C127.459 39.7187 126.819 43.5601 122.977 42.9199C119.136 42.2797 120.096 35.237 120.736 31.0755Z" fill="#CED1D5" stroke="#14303F"/>
<path d="M151.148 2.58448C148.587 2.26436 146.986 5.46556 147.306 10.5875C148.587 17.9502 147.306 26.9136 145.386 31.0751C143.465 35.2367 141.544 40.9988 144.745 42.5994C147.947 44.2 150.508 40.0385 152.108 35.8769C153.709 31.7153 154.349 24.9928 154.989 15.3892C155.629 5.78566 153.709 2.9046 151.148 2.58448Z" fill="#CED1D5" stroke="#14303F"/>
<path d="M163.632 4.18498C169.074 2.9045 172.596 8.34653 173.556 12.188C175.477 27.2336 169.394 21.4715 168.114 19.5507C166.991 17.8662 163.952 17.63 162.352 22.1117C160.751 26.5934 160.431 38.7579 162.352 43.2396C164.273 47.7213 167.474 47.7213 169.074 45.8005C170.675 43.8798 166.834 38.1177 170.995 38.1177C175.157 38.1177 177.718 43.5597 178.038 47.081C178.358 50.6023 177.397 60.2059 172.276 61.1663C167.154 62.1266 162.032 59.2456 157.55 50.2822C153.068 41.3189 152.576 27.8738 154.349 20.191C155.679 14.4288 158.19 5.46546 163.632 4.18498Z" fill="#CED1D5" stroke="#14303F"/>
<path d="M178.358 35.2366C178.678 30.4348 177.398 19.2306 177.078 14.4288C176.289 5.14533 182.84 3.54474 185.401 4.18497C187.962 4.82521 191.483 5.14533 195.645 5.14533C199.806 5.14533 201.087 9.30689 200.767 15.3892C200.446 21.4714 193.724 19.8708 190.843 18.5904C187.962 17.3099 186.041 18.2702 185.721 22.7519C185.401 27.2336 186.361 31.3951 190.523 29.7945C194.684 28.1939 198.846 26.9135 199.486 32.3555C200.126 37.7975 193.724 39.7183 190.523 40.3585C187.322 40.9987 185.721 41.3188 185.081 47.081C184.44 52.8432 190.523 53.8035 193.724 54.4437C196.925 55.084 198.846 56.3645 198.846 59.5657V68.8491C198.846 72.3704 196.285 72.6906 191.163 70.7699C186.041 68.8491 176.438 60.2059 176.438 51.5627C176.438 42.9194 178.038 40.0384 178.358 35.2366Z" fill="#CED1D5" stroke="#14303F"/>
<path d="M47.1089 68.209C47.1089 71.7303 53.1912 73.9711 55.432 74.9315C59.9137 76.5321 59.5936 79.093 59.9137 85.4954C60.2338 91.8978 58.6332 97.0197 58.3131 99.9008C57.993 102.782 58.3131 108.544 62.1545 108.224C65.9959 107.904 69.5173 101.501 69.8374 94.4588C70.1575 87.4161 68.877 81.3339 68.5569 78.7729C68.2368 76.212 68.5569 75.2516 70.4776 73.9711C72.3983 72.6906 77.8404 67.5687 79.1208 63.087C80.4013 58.6054 77.5203 56.6847 74.9593 56.3645C72.3983 56.0444 69.1971 59.8858 66.6362 61.8066C64.0752 63.7273 58.9533 64.3675 54.1515 63.087C49.3497 61.8066 47.1089 64.6876 47.1089 68.209Z" fill="#CED1D5" stroke="#14303F"/>
<path fill-rule="evenodd" clip-rule="evenodd" d="M80.0808 71.0901C81.0412 76.2121 81.6814 80.0535 80.0808 86.4559C78.4802 92.8583 78.4802 99.2607 82.6418 99.2607C86.8033 99.2607 89.3643 93.1784 90.0045 88.3766C90.043 88.0877 90.0804 87.8023 90.1171 87.5215C90.6914 83.1346 91.1189 79.8682 93.5258 81.9742C94.6597 82.9664 95.9192 84.7116 97.2207 86.5153C98.8588 88.7853 100.564 91.1478 102.169 92.218C105.05 94.1388 109.532 93.8186 110.812 89.9772C112.093 86.1358 107.931 81.0139 105.05 78.773C104.62 78.4382 104.211 78.1319 103.832 77.8489C101.681 76.238 100.535 75.3805 102.169 74.2913C102.32 74.1905 102.489 74.0818 102.672 73.9642C104.812 72.5878 108.841 69.9963 108.251 64.6877C107.611 58.9256 99.9282 53.8037 90.9649 53.8037C82.0015 53.8037 77.84 57.0049 78.1601 60.5262C78.4349 63.5496 79.6005 68.884 79.9703 70.5767C80.0312 70.8555 80.0706 71.0355 80.0808 71.0901ZM90.0194 71.2066C90.1467 71.5488 90.2523 71.8326 90.3249 72.0505C90.645 73.0109 92.3244 72.726 94.1663 71.4103C96.4072 69.8097 97.3676 68.2091 97.3675 66.6085C97.3675 64.6878 94.8066 62.767 90.3249 63.0872C88.4091 63.224 87.8166 63.7274 88.4042 65.9682C88.8992 68.1956 89.5855 70.0404 90.0194 71.2066Z" fill="#CED1D5"/>
<path d="M80.0808 86.4559L79.5957 86.3346L80.0808 86.4559ZM80.0808 71.0901L79.5893 71.182L79.5894 71.1823L80.0808 71.0901ZM90.0045 88.3766L89.5089 88.3105L90.0045 88.3766ZM90.1171 87.5215L89.6214 87.4566L90.1171 87.5215ZM93.5258 81.9742L93.8551 81.5979V81.5979L93.5258 81.9742ZM97.2207 86.5153L97.6262 86.2227L97.2207 86.5153ZM102.169 92.218L102.446 91.802L102.169 92.218ZM110.812 89.9772L111.287 90.1353L110.812 89.9772ZM105.05 78.773L104.743 79.1677L105.05 78.773ZM103.832 77.8489L103.533 78.2491H103.533L103.832 77.8489ZM102.169 74.2913L102.446 74.7074H102.446L102.169 74.2913ZM102.672 73.9642L102.943 74.3847L102.672 73.9642ZM108.251 64.6877L108.748 64.6325L108.251 64.6877ZM78.1601 60.5262L78.658 60.4809L78.1601 60.5262ZM79.9703 70.5767L80.4588 70.47L79.9703 70.5767ZM90.3249 72.0505L89.8506 72.2086L90.3249 72.0505ZM90.0194 71.2066L90.488 71.0322V71.0322L90.0194 71.2066ZM94.1663 71.4103L94.457 71.8171L94.1663 71.4103ZM97.3675 66.6085L97.8675 66.6085V66.6085L97.3675 66.6085ZM90.3249 63.0872L90.2893 62.5884L90.3249 63.0872ZM88.4042 65.9682L88.8923 65.8598L88.8902 65.8505L88.8878 65.8414L88.4042 65.9682ZM80.5659 86.5772C82.1929 80.0692 81.5368 76.1422 80.5722 70.998L79.5894 71.1823C80.5455 76.2819 81.1699 80.0378 79.5957 86.3346L80.5659 86.5772ZM82.6418 98.7607C81.7497 98.7607 81.1144 98.4268 80.6513 97.8479C80.1707 97.2471 79.8501 96.3482 79.6961 95.1931C79.3882 92.884 79.7716 89.7544 80.5659 86.5772L79.5957 86.3346C78.7894 89.5598 78.3725 92.8326 78.7049 95.3253C78.871 96.5711 79.2306 97.6729 79.8704 98.4726C80.5278 99.2943 81.4531 99.7607 82.6418 99.7607V98.7607ZM89.5089 88.3105C89.1953 90.6626 88.4114 93.3164 87.212 95.3669C86.0019 97.4357 84.4525 98.7607 82.6418 98.7607V99.7607C84.9925 99.7607 86.8044 98.0445 88.0752 95.8717C89.3568 93.6806 90.1735 90.8924 90.5001 88.4427L89.5089 88.3105ZM89.6214 87.4566C89.5846 87.7375 89.5473 88.0223 89.5089 88.3105L90.5001 88.4427C90.5387 88.1531 90.5762 87.8671 90.6129 87.5864L89.6214 87.4566ZM93.8551 81.5979C93.2278 81.0491 92.5887 80.7179 91.9592 80.8456C91.3196 80.9753 90.9309 81.5273 90.6758 82.1135C90.4115 82.7206 90.2211 83.5225 90.0613 84.4202C89.9004 85.3241 89.7645 86.3631 89.6214 87.4566L90.6129 87.5864C90.7569 86.4864 90.8898 85.4721 91.0458 84.5955C91.2029 83.7128 91.3774 83.0071 91.5927 82.5126C91.8171 81.997 92.0225 81.8531 92.158 81.8256C92.3035 81.7961 92.6204 81.8463 93.1966 82.3505L93.8551 81.5979ZM97.6262 86.2227C96.339 84.4391 95.0421 82.6366 93.8551 81.5979L93.1966 82.3505C94.2773 83.2962 95.4993 84.9842 96.8153 86.8079L97.6262 86.2227ZM102.446 91.802C101.706 91.3086 100.916 90.4966 100.093 89.4984C99.2734 88.505 98.4474 87.3607 97.6262 86.2227L96.8153 86.8079C97.6322 87.9399 98.4776 89.1118 99.3214 90.1347C100.161 91.1528 101.026 92.0572 101.892 92.6341L102.446 91.802ZM110.338 89.8191C109.76 91.5517 108.477 92.4785 106.995 92.7677C105.492 93.0609 103.785 92.6942 102.446 91.802L101.892 92.6341C103.434 93.6626 105.408 94.0962 107.187 93.7492C108.986 93.3981 110.584 92.2442 111.287 90.1353L110.338 89.8191ZM104.743 79.1677C106.14 80.2544 107.859 82.0505 109.065 84.0346C110.283 86.0386 110.907 88.1129 110.338 89.8191L111.287 90.1353C111.998 88 111.182 85.5927 109.919 83.5152C108.644 81.4177 106.841 79.5325 105.357 78.3783L104.743 79.1677ZM103.533 78.2491C103.911 78.5324 104.317 78.8361 104.743 79.1677L105.357 78.3783C104.922 78.0403 104.51 77.7314 104.132 77.4486L103.533 78.2491ZM101.892 73.8753C101.451 74.1691 101.106 74.504 100.964 74.9179C100.81 75.3663 100.932 75.7859 101.159 76.1428C101.378 76.4858 101.72 76.8182 102.113 77.1489C102.511 77.4841 102.999 77.8492 103.533 78.2491L104.132 77.4486C103.591 77.0431 103.128 76.6969 102.757 76.3842C102.381 76.0671 102.136 75.815 102.003 75.6061C101.879 75.4111 101.886 75.3115 101.91 75.2424C101.946 75.1388 102.07 74.9581 102.446 74.7074L101.892 73.8753ZM102.402 73.5437C102.22 73.6607 102.047 73.7718 101.892 73.8753L102.446 74.7074C102.594 74.6093 102.759 74.5029 102.943 74.3847L102.402 73.5437ZM107.754 64.743C108.307 69.7152 104.566 72.1517 102.402 73.5437L102.943 74.3847C105.058 73.024 109.375 70.2774 108.748 64.6325L107.754 64.743ZM90.9649 54.3037C95.3551 54.3037 99.4223 55.559 102.459 57.5058C105.507 59.4593 107.457 62.065 107.754 64.743L108.748 64.6325C108.406 61.5484 106.194 58.712 102.999 56.664C99.7939 54.6093 95.5379 53.3037 90.9649 53.3037V54.3037ZM78.658 60.4809C78.5204 58.967 79.3281 57.4491 81.3336 56.276C83.3498 55.0968 86.5325 54.3037 90.9649 54.3037V53.3037C86.4339 53.3037 83.0542 54.1112 80.8287 55.4128C78.5926 56.7207 77.4796 58.5641 77.6621 60.5715L78.658 60.4809ZM80.4588 70.47C80.0863 68.765 78.9294 63.4661 78.658 60.4809L77.6621 60.5715C77.9405 63.6332 79.1147 69.003 79.4819 70.6835L80.4588 70.47ZM80.5723 70.9982C80.5602 70.9338 80.5182 70.7419 80.4588 70.47L79.4819 70.6835C79.5443 70.9691 79.5809 71.1372 79.5893 71.182L80.5723 70.9982ZM90.7992 71.8924C90.7233 71.6644 90.6141 71.3712 90.488 71.0322L89.5507 71.3809C89.6793 71.7265 89.7813 72.0008 89.8506 72.2086L90.7992 71.8924ZM93.8757 71.0034C92.9901 71.636 92.1808 71.9922 91.5923 72.0908C91.2974 72.1402 91.0976 72.1184 90.9786 72.0732C90.8794 72.0355 90.829 71.9818 90.7992 71.8924L89.8506 72.2086C89.9808 72.5994 90.2604 72.8702 90.6237 73.0081C90.9672 73.1385 91.3624 73.1433 91.7576 73.077C92.5493 72.9444 93.5006 72.5002 94.457 71.8171L93.8757 71.0034ZM96.8675 66.6085C96.8676 67.9794 96.0528 69.4484 93.8757 71.0034L94.457 71.8171C96.7615 70.171 97.8676 68.4388 97.8675 66.6085L96.8675 66.6085ZM90.3605 63.5859C92.5286 63.431 94.1854 63.8221 95.2803 64.4425C96.3821 65.0668 96.8675 65.8862 96.8675 66.6085L97.8675 66.6085C97.8675 65.4101 97.0725 64.3087 95.7734 63.5725C94.4674 62.8324 92.6029 62.4232 90.2893 62.5884L90.3605 63.5859ZM88.8878 65.8414C88.7457 65.2996 88.6846 64.8967 88.687 64.5959C88.6893 64.3002 88.7524 64.1375 88.8272 64.0368C88.9022 63.9357 89.0333 63.8374 89.2869 63.756C89.5455 63.6729 89.8947 63.6192 90.3605 63.5859L90.2893 62.5884C89.7972 62.6236 89.3539 62.6841 88.981 62.8039C88.603 62.9253 88.2634 63.1186 88.0243 63.4406C87.785 63.763 87.6904 64.1548 87.687 64.5881C87.6837 65.0161 87.7688 65.5165 87.9205 66.0951L88.8878 65.8414ZM90.488 71.0322C90.0547 69.8675 89.3792 68.0507 88.8923 65.8598L87.9161 66.0767C88.4192 68.3405 89.1163 70.2132 89.5507 71.3809L90.488 71.0322Z" fill="#14303F"/>
<path d="M110.813 74.9319C112.093 67.8892 114.654 60.8466 116.255 57.9655C117.618 55.0844 121.697 51.8832 124.258 54.1241C126.819 56.3649 125.538 60.5265 122.977 67.5691C120.416 74.6117 120.736 80.0538 124.258 88.0568C127.779 96.0598 121.056 102.782 114.654 95.7396C108.299 88.7496 109.513 82.0749 110.784 75.0895L110.813 74.9319Z" fill="#CED1D5" stroke="#14303F"/>
<path fill-rule="evenodd" clip-rule="evenodd" d="M129.379 69.8101C130.66 75.8923 131.94 82.2947 130.34 89.6575C128.739 97.0202 127.459 103.102 133.541 105.663C139.623 108.224 141.544 97.9806 140.264 90.938C145.812 89.6575 156.846 84.7276 156.59 75.2521C156.27 63.4077 150.507 55.7248 139.623 56.0449C128.739 56.365 128.419 61.8071 129.379 69.8101ZM138.663 68.5295C139.303 70.7703 139.943 74.6118 139.943 76.5325C139.943 78.4532 141.544 78.4532 143.465 76.5325C145.385 74.6118 146.346 72.2112 145.385 68.8496C144.288 65.0081 137.776 64.3679 138.663 68.5295Z" fill="#CED1D5"/>
<path d="M130.34 89.6575L129.851 89.5513L130.34 89.6575ZM129.379 69.8101L128.883 69.8696L128.886 69.8915L128.89 69.9131L129.379 69.8101ZM133.541 105.663L133.347 106.124H133.347L133.541 105.663ZM140.264 90.938L140.151 90.4508L139.686 90.558L139.772 91.0274L140.264 90.938ZM156.59 75.2521L156.09 75.2656L156.59 75.2521ZM139.623 56.0449L139.609 55.5451L139.623 56.0449ZM138.663 68.5295L138.174 68.6337L138.178 68.6504L138.182 68.6668L138.663 68.5295ZM143.465 76.5325L143.818 76.886L143.465 76.5325ZM145.385 68.8496L145.866 68.7122L145.385 68.8496ZM130.828 89.7637C132.454 82.2854 131.149 75.7872 129.869 69.7071L128.89 69.9131C130.171 75.9975 131.427 82.3041 129.851 89.5513L130.828 89.7637ZM133.735 105.203C132.289 104.594 131.311 103.79 130.663 102.837C130.014 101.88 129.672 100.738 129.557 99.4178C129.325 96.7485 130.023 93.4698 130.828 89.7637L129.851 89.5513C129.056 93.2079 128.313 96.6517 128.561 99.5044C128.687 100.945 129.065 102.264 129.836 103.398C130.609 104.536 131.752 105.453 133.347 106.124L133.735 105.203ZM139.772 91.0274C140.4 94.4834 140.237 98.7153 139.191 101.738C138.666 103.253 137.943 104.4 137.051 105.024C136.194 105.623 135.118 105.785 133.735 105.203L133.347 106.124C135.005 106.822 136.45 106.664 137.624 105.843C138.763 105.046 139.58 103.672 140.136 102.066C141.25 98.8465 141.408 94.4352 140.755 90.8485L139.772 91.0274ZM156.09 75.2656C156.212 79.7802 153.652 83.2452 150.303 85.7688C146.951 88.2941 142.875 89.8223 140.151 90.4508L140.376 91.4251C143.201 90.7732 147.416 89.1962 150.904 86.5675C154.395 83.9372 157.224 80.1995 157.089 75.2386L156.09 75.2656ZM139.638 56.5447C144.948 56.3885 148.956 58.1794 151.686 61.4096C154.43 64.6558 155.932 69.4132 156.09 75.2656L157.089 75.2386C156.928 69.2465 155.388 64.2403 152.45 60.764C149.498 57.2717 145.182 55.3812 139.609 55.5451L139.638 56.5447ZM129.876 69.7505C129.636 67.7546 129.481 65.9467 129.544 64.3478C129.607 62.7494 129.889 61.3945 130.498 60.2874C131.689 58.121 134.258 56.7029 139.638 56.5447L139.609 55.5451C134.104 55.707 131.071 57.17 129.622 59.8055C128.91 61.0992 128.611 62.6254 128.545 64.3082C128.478 65.9906 128.642 67.8641 128.883 69.8696L129.876 69.7505ZM140.443 76.5325C140.443 74.5519 139.792 70.6626 139.144 68.3921L138.182 68.6668C138.814 70.8781 139.443 74.6716 139.443 76.5325H140.443ZM143.111 76.1789C142.654 76.6363 142.228 76.9661 141.856 77.1788C141.479 77.3944 141.186 77.473 140.984 77.473C140.803 77.473 140.699 77.4132 140.624 77.3129C140.533 77.1917 140.443 76.9535 140.443 76.5325H139.443C139.443 77.0718 139.554 77.5539 139.824 77.9129C140.108 78.2927 140.525 78.473 140.984 78.473C141.422 78.473 141.889 78.3115 142.352 78.047C142.82 77.7795 143.315 77.389 143.818 76.886L143.111 76.1789ZM144.905 68.987C145.363 70.5922 145.355 71.9366 145.025 73.094C144.693 74.2538 144.027 75.2629 143.111 76.1789L143.818 76.886C144.823 75.8813 145.597 74.7298 145.986 73.3687C146.376 72.0053 146.368 70.4686 145.866 68.7122L144.905 68.987ZM139.152 68.4253C138.957 67.5123 139.181 66.9679 139.524 66.6507C139.892 66.3108 140.501 66.1332 141.244 66.1871C142.743 66.2958 144.427 67.3153 144.905 68.987L145.866 68.7122C145.246 66.5425 143.126 65.3211 141.316 65.1897C140.405 65.1236 139.484 65.3261 138.845 65.9166C138.182 66.5297 137.925 67.4658 138.174 68.6337L139.152 68.4253Z" fill="#14303F"/>
<path d="M65.996 121.67C68.2368 122.31 69.8374 120.709 70.7978 119.109C73.0386 115.374 76.2398 118.469 73.6789 122.95C71.8199 126.203 67.2765 131.914 65.6759 133.194C64.0753 134.475 63.4351 137.996 66.3161 139.276C69.1972 140.557 71.1179 137.676 73.0386 137.356C74.9594 137.036 76.56 138.316 79.1209 139.276C81.6819 140.237 83.2825 138.956 83.6026 137.356C83.9227 135.755 83.6026 133.194 81.6819 131.273C79.7612 129.353 77.2002 129.353 75.2795 130.633C73.3588 131.914 74.6392 129.673 76.2398 127.432C77.8404 125.191 83.6026 115.908 77.8404 112.386C72.7084 109.25 67.9167 111.106 65.3558 113.347C62.4151 115.92 63.7552 121.03 65.996 121.67Z" fill="#CED1D5" stroke="#14303F"/>
<path d="M104.181 117.253C106.421 117.893 108.022 116.292 108.982 114.692C111.223 110.957 114.424 114.052 111.863 118.533C110.004 121.786 105.461 127.497 103.86 128.777C102.26 130.058 101.62 133.579 104.501 134.859C107.382 136.14 109.302 133.259 111.223 132.939C113.144 132.619 114.745 133.899 117.305 134.859C119.866 135.82 121.467 134.539 121.787 132.939C122.107 131.338 121.787 128.777 119.866 126.856C117.946 124.936 115.385 124.936 113.464 126.216C111.543 127.497 112.824 125.256 114.424 123.015C116.025 120.774 121.787 111.491 116.025 107.969C110.893 104.833 106.101 106.689 103.54 108.93C100.6 111.503 101.94 116.613 104.181 117.253Z" fill="#CED1D5" stroke="#14303F"/>
<path fill-rule="evenodd" clip-rule="evenodd" d="M85.8433 108.733C83.6025 111.162 81.3616 114.815 81.3616 122.178C81.3616 128.931 86.154 135.303 91.6055 135.303C97.0475 135.303 100.889 126.055 100.889 120.257C100.889 113.534 99.6084 110.653 95.767 107.772C91.9256 104.891 88.0841 106.303 85.8433 108.733ZM88.7243 117.187C88.084 119.748 87.7639 121.669 88.084 124.87C88.4041 128.071 91.2852 128.712 92.5657 125.831C93.8462 122.95 94.7348 118.429 94.1663 115.587C93.5261 112.386 90.3248 111.745 88.7243 117.187Z" fill="#CED1D5"/>
<path d="M85.8433 108.733L85.4758 108.394L85.4758 108.394L85.8433 108.733ZM95.767 107.772L96.067 107.372L95.767 107.772ZM88.084 124.87L88.5815 124.82L88.084 124.87ZM88.7243 117.187L88.2446 117.046L88.2417 117.056L88.2392 117.066L88.7243 117.187ZM92.5657 125.831L93.0226 126.034L92.5657 125.831ZM94.1663 115.587L94.6566 115.489L94.1663 115.587ZM81.8616 122.178C81.8616 114.942 84.0541 111.41 86.2108 109.072L85.4758 108.394C83.1508 110.914 80.8616 114.688 80.8616 122.178H81.8616ZM91.6055 134.803C89.0812 134.803 86.6526 133.324 84.8352 130.967C83.0213 128.615 81.8616 125.441 81.8616 122.178H80.8616C80.8616 125.668 82.0981 129.056 84.0433 131.578C85.985 134.096 88.6782 135.803 91.6055 135.803V134.803ZM100.389 120.257C100.389 123.065 99.4529 126.746 97.8481 129.716C96.2247 132.721 94.0317 134.803 91.6055 134.803V135.803C94.6212 135.803 97.07 133.26 98.7279 130.192C100.404 127.089 101.389 123.246 101.389 120.257H100.389ZM95.467 108.172C97.3408 109.578 98.5511 110.952 99.307 112.766C100.069 114.596 100.389 116.919 100.389 120.257H101.389C101.389 116.873 101.068 114.393 100.23 112.382C99.3853 110.354 98.0347 108.848 96.067 107.372L95.467 108.172ZM86.2108 109.072C87.2715 107.922 88.6976 107.028 90.2899 106.754C91.8681 106.482 93.6508 106.81 95.467 108.172L96.067 107.372C94.0418 105.853 91.983 105.447 90.12 105.768C88.2709 106.087 86.656 107.114 85.4758 108.394L86.2108 109.072ZM88.5815 124.82C88.2688 121.693 88.5783 119.833 89.2093 117.309L88.2392 117.066C87.5898 119.664 87.259 121.645 87.5865 124.92L88.5815 124.82ZM92.1088 125.628C91.5255 126.94 90.6766 127.274 90.0709 127.143C89.4399 127.006 88.7291 126.297 88.5815 124.82L87.5865 124.92C87.759 126.645 88.6489 127.857 89.8585 128.12C91.0936 128.388 92.3254 127.602 93.0226 126.034L92.1088 125.628ZM93.676 115.685C93.9434 117.022 93.8726 118.794 93.5663 120.611C93.2611 122.421 92.7296 124.231 92.1088 125.628L93.0226 126.034C93.6823 124.549 94.2353 122.658 94.5524 120.777C94.8684 118.903 94.9577 116.994 94.6566 115.489L93.676 115.685ZM89.2039 117.328C89.592 116.009 90.0669 115.095 90.547 114.508C91.0274 113.919 91.4886 113.684 91.8606 113.643C92.5483 113.566 93.3748 114.179 93.676 115.685L94.6566 115.489C94.3176 113.794 93.2234 112.485 91.7502 112.649C91.0418 112.728 90.3626 113.153 89.7726 113.875C89.1823 114.598 88.6568 115.645 88.2446 117.046L89.2039 117.328Z" fill="#14303F"/>
<path d="M124.578 119.108C126.819 119.748 128.099 118.66 129.06 117.507C130.02 116.355 131.941 115.586 132.581 116.547C133.221 117.507 131.941 119.748 129.06 121.349C126.178 122.949 124.578 124.23 124.578 126.15C124.578 128.071 127.779 127.751 130.02 127.751C132.261 127.751 132.901 129.672 131.941 131.592C130.98 133.513 128.099 133.833 124.578 132.873C121.057 131.913 120.416 134.153 121.057 135.754C121.697 137.355 124.578 139.595 129.38 139.595C134.181 139.595 139.303 137.034 139.944 131.913C140.584 126.791 138.023 124.55 136.422 123.91C134.822 123.269 134.181 122.629 134.822 122.309C135.462 121.989 138.663 120.068 138.663 117.827C138.663 115.586 137.703 113.025 134.822 110.785C131.941 108.544 126.499 109.504 123.938 111.425C121.377 113.346 122.337 118.467 124.578 119.108Z" fill="#CED1D5" stroke="#14303F"/>
<path fill-rule="evenodd" clip-rule="evenodd" d="M25.7028 29.3056C26.7161 21.5761 27.9082 12.4831 28.5422 9.94715C29.5025 6.10572 32.0635 4.185 34.9445 4.50512C37.8256 4.82524 39.4262 11.8679 39.7463 19.8709C39.8104 21.4715 39.8616 23.0977 39.9128 24.7239C40.1177 31.2287 40.3226 37.7336 41.3469 42.5994C41.6442 44.0113 42.0277 45.3887 42.3893 46.6876C43.5855 50.984 44.5424 54.4209 41.3469 55.4041C37.1854 56.6846 35.2647 53.4834 35.2647 49.3219C35.2647 45.1603 34.3043 43.8798 32.0635 44.2C30.1664 44.471 29.6459 48.8718 29.1424 53.1292C29.0512 53.9007 28.9605 54.6675 28.8623 55.4041C28.222 60.2059 26.8482 61.562 24.7007 60.8462C22.78 60.2059 21.8196 58.6053 22.1398 54.7639C22.3959 51.6908 23.7404 43.0262 24.3806 39.078C24.707 36.9023 25.1812 33.2846 25.7028 29.3056ZM30.4632 34.5972C30.7833 30.7558 31.7437 24.0333 32.3839 24.0333C33.0242 24.0333 33.3443 26.9143 33.6644 30.1155C33.7559 31.0302 33.8996 31.8925 34.0284 32.6653C34.3504 34.5972 34.579 35.9692 33.6644 36.1978C33.4722 36.2459 33.2579 36.3156 33.0337 36.3885C31.7647 36.8014 30.1772 37.3178 30.4632 34.5972Z" fill="#CED1D5"/>
<path d="M28.5422 9.94715L29.0272 10.0684L28.5422 9.94715ZM25.7028 29.3056L25.2071 29.2406L25.7028 29.3056ZM34.9445 4.50512L34.9998 4.00818L34.9445 4.50512ZM39.7463 19.8709L40.2459 19.8509L39.7463 19.8709ZM39.9128 24.7239L40.4126 24.7081L39.9128 24.7239ZM41.3469 42.5994L41.8362 42.4964L41.3469 42.5994ZM42.3893 46.6876L41.9077 46.8217L42.3893 46.6876ZM41.3469 55.4041L41.1999 54.9263L41.3469 55.4041ZM32.0635 44.2L31.9928 43.705L32.0635 44.2ZM29.1424 53.1292L29.639 53.1879L29.1424 53.1292ZM28.8623 55.4041L29.3579 55.4702L28.8623 55.4041ZM24.7007 60.8462L24.8588 60.3718L24.7007 60.8462ZM22.1398 54.7639L21.6415 54.7224L22.1398 54.7639ZM24.3806 39.078L24.8742 39.1581L24.8751 39.1522L24.3806 39.078ZM30.4632 34.5972L30.9606 34.6495L30.9615 34.6387L30.4632 34.5972ZM33.6644 30.1155L33.1669 30.1653L33.6644 30.1155ZM34.0284 32.6653L34.5216 32.5831L34.0284 32.6653ZM33.6644 36.1978L33.5431 35.7127L33.6644 36.1978ZM33.0337 36.3885L33.1884 36.864H33.1884L33.0337 36.3885ZM28.0571 9.82588C27.414 12.3983 26.2171 21.5359 25.2071 29.2406L26.1986 29.3706C27.2151 21.6163 28.4024 12.5679 29.0272 10.0684L28.0571 9.82588ZM34.9998 4.00818C33.4261 3.83332 31.931 4.27269 30.7057 5.27919C29.4854 6.28157 28.5574 7.82465 28.0571 9.82588L29.0272 10.0684C29.4873 8.22822 30.3199 6.89023 31.3405 6.05192C32.356 5.21773 33.5819 4.85679 34.8893 5.00206L34.9998 4.00818ZM40.2459 19.8509C40.0851 15.8289 39.602 12.0237 38.7866 9.16956C38.3795 7.74491 37.8816 6.52808 37.2797 5.636C36.6815 4.74924 35.9292 4.11145 34.9998 4.00818L34.8893 5.00206C35.4005 5.05885 35.9287 5.42144 36.4508 6.1953C36.9693 6.96384 37.4318 8.06788 37.825 9.44428C38.6102 12.1922 39.0875 15.9099 39.2467 19.8909L40.2459 19.8509ZM40.4126 24.7081C40.3614 23.0823 40.3101 21.454 40.2459 19.8509L39.2467 19.8909C39.3107 21.489 39.3618 23.113 39.4131 24.7396L40.4126 24.7081ZM41.8362 42.4964C40.823 37.6834 40.6179 31.229 40.4126 24.7081L39.4131 24.7396C39.6174 31.2284 39.8222 37.7837 40.8577 42.7024L41.8362 42.4964ZM42.871 46.5535C42.5087 45.2524 42.1296 43.8901 41.8362 42.4964L40.8577 42.7024C41.1587 44.1325 41.5466 45.5251 41.9077 46.8217L42.871 46.5535ZM41.494 55.882C42.3831 55.6085 43.0297 55.1473 43.4461 54.503C43.8565 53.8679 44.0093 53.1072 44.015 52.2918C44.0263 50.6863 43.4616 48.6746 42.871 46.5535L41.9077 46.8217C42.5133 48.997 43.0251 50.852 43.015 52.2848C43.0101 52.9887 42.8777 53.5401 42.6062 53.9602C42.3406 54.3711 41.9086 54.7082 41.1999 54.9263L41.494 55.882ZM34.7647 49.3219C34.7647 51.4598 35.2549 53.4408 36.3665 54.7302C36.9292 55.383 37.6483 55.8536 38.5234 56.0652C39.3944 56.2758 40.3879 56.2224 41.494 55.882L41.1999 54.9263C40.2252 55.2262 39.418 55.2527 38.7585 55.0932C38.1029 54.9347 37.5616 54.585 37.1239 54.0773C36.2348 53.0459 35.7647 51.3455 35.7647 49.3219H34.7647ZM32.1342 44.6949C32.6479 44.6215 33.0413 44.6474 33.3457 44.7526C33.6383 44.8537 33.8814 45.0393 34.0852 45.3528C34.5184 46.0193 34.7647 47.2459 34.7647 49.3219H35.7647C35.7647 47.2363 35.5307 45.7419 34.9236 44.8078C34.6072 44.321 34.19 43.9864 33.6724 43.8074C33.1664 43.6325 32.5994 43.6183 31.9928 43.705L32.1342 44.6949ZM29.639 53.1879C29.8921 51.0479 30.1446 48.9211 30.5645 47.2947C30.7747 46.4805 31.0179 45.8293 31.3015 45.3759C31.5848 44.9229 31.8643 44.7335 32.1342 44.6949L31.9928 43.705C31.3142 43.8019 30.8172 44.2642 30.4536 44.8457C30.0903 45.4267 29.8162 46.1926 29.5962 47.0447C29.1558 48.7507 28.8963 50.953 28.6459 53.0704L29.639 53.1879ZM29.3579 55.4702C29.4567 54.7292 29.5478 53.9587 29.639 53.1879L28.6459 53.0704C28.5546 53.8427 28.4643 54.6057 28.3667 55.3381L29.3579 55.4702ZM24.5426 61.3205C25.1368 61.5186 25.7223 61.5885 26.2791 61.4604C26.8438 61.3303 27.329 61.0078 27.7344 60.51C28.5204 59.5447 29.0362 57.8828 29.3579 55.4702L28.3667 55.3381C28.0481 57.7273 27.5569 59.1443 26.959 59.8786C26.6724 60.2305 26.3715 60.4129 26.0547 60.4859C25.7298 60.5606 25.3383 60.5317 24.8588 60.3718L24.5426 61.3205ZM21.6415 54.7224C21.4786 56.6773 21.6327 58.1389 22.1254 59.2138C22.632 60.3191 23.4721 60.9637 24.5426 61.3205L24.8588 60.3718C24.0086 60.0884 23.4082 59.6126 23.0345 58.7972C22.6468 57.9513 22.4808 56.692 22.638 54.8054L21.6415 54.7224ZM23.887 38.998C23.2481 42.938 21.8996 51.6253 21.6415 54.7224L22.638 54.8054C22.8921 51.7563 24.2326 43.1144 24.8742 39.1581L23.887 38.998ZM25.2071 29.2406C24.6851 33.2221 24.2116 36.8339 23.8861 39.0039L24.8751 39.1522C25.2023 36.9706 25.6773 33.3471 26.1986 29.3706L25.2071 29.2406ZM32.3839 23.5333C32.1188 23.5333 31.9501 23.7019 31.878 23.7875C31.7939 23.8873 31.7285 24.0076 31.6766 24.1204C31.5705 24.3507 31.4705 24.6608 31.3758 25.0142C31.1844 25.7279 30.9912 26.707 30.8103 27.7925C30.4478 29.9673 30.1261 32.6219 29.9649 34.5557L30.9615 34.6387C31.1204 32.7311 31.4389 30.1037 31.7967 27.9569C31.9759 26.8816 32.1629 25.94 32.3417 25.2732C32.432 24.9363 32.5146 24.6912 32.5848 24.5389C32.6016 24.5024 32.6158 24.4754 32.6272 24.4561C32.6389 24.4362 32.6445 24.4298 32.6427 24.4319C32.642 24.4327 32.6246 24.4539 32.5874 24.477C32.5477 24.5018 32.4775 24.5333 32.3839 24.5333V23.5333ZM34.1619 30.0658C34.0023 28.4698 33.8405 26.9291 33.6364 25.7861C33.535 25.2184 33.4183 24.7188 33.2748 24.3515C33.2039 24.1701 33.1143 23.9884 32.9942 23.8438C32.874 23.6992 32.6715 23.5333 32.3839 23.5333V24.5333C32.2564 24.5333 32.2039 24.4574 32.225 24.4829C32.2462 24.5083 32.2892 24.5767 32.3433 24.7154C32.45 24.9883 32.5533 25.4091 32.652 25.9619C32.848 27.0597 33.0063 28.5601 33.1669 30.1653L34.1619 30.0658ZM34.5216 32.5831C34.3925 31.8087 34.2515 30.9618 34.1619 30.0658L33.1669 30.1653C33.2602 31.0986 33.4067 31.9764 33.5352 32.7475L34.5216 32.5831ZM33.7857 36.6829C34.1528 36.5911 34.4253 36.371 34.5933 36.0569C34.7485 35.7667 34.8006 35.4235 34.8099 35.0841C34.8285 34.4111 34.6791 33.5285 34.5216 32.5831L33.5352 32.7475C33.6996 33.734 33.8256 34.5033 33.8103 35.0565C33.8028 35.3302 33.7606 35.4935 33.7115 35.5852C33.6752 35.6531 33.6333 35.6902 33.5431 35.7127L33.7857 36.6829ZM33.1884 36.864C33.4171 36.7896 33.6137 36.7259 33.7857 36.6829L33.5431 35.7127C33.3306 35.7659 33.0987 35.8416 32.8791 35.913L33.1884 36.864ZM29.9659 34.545C29.8908 35.2596 29.9296 35.8299 30.1002 36.2654C30.2823 36.73 30.6079 37.02 31.0188 37.146C31.3964 37.2617 31.8021 37.2255 32.1537 37.1559C32.5109 37.0851 32.8771 36.9653 33.1884 36.864L32.8791 35.913C32.5559 36.0182 32.2477 36.1178 31.9593 36.1749C31.6653 36.2332 31.454 36.2335 31.3119 36.1899C31.203 36.1565 31.106 36.0913 31.0313 35.9005C30.945 35.6805 30.8926 35.2952 30.9605 34.6495L29.9659 34.545Z" fill="#14303F"/>
</svg>
