<svg width="350" height="187" viewBox="0 0 350 187" fill="none" xmlns="http://www.w3.org/2000/svg">
<path d="M92.5341 79.4661V83.2361H75.7141V89.2101H92.7951V92.9511H71.2771V79.4661H92.5341ZM79.6871 99.5921H69.9721V95.8221H93.8681V99.5921H84.0951V106.378H79.6871V99.5921Z" fill="#2E6684" fill-opacity="0.2"/>
<path d="M111.615 79.6401V89.3841H114.515V79.1761H118.894V105.943H114.515V93.1251H111.615C111.47 100.172 109.063 103.333 103.466 105.16V101.274C106.192 99.9691 107.381 97.7361 107.381 92.1971V83.3521H104.452V90.8341C104.452 98.0261 102.219 101.535 96.303 103.594V99.6501C99.029 98.3451 100.189 96.1121 100.189 90.6601V83.3521H96.448V79.6401H111.615Z" fill="#2E6684" fill-opacity="0.2"/>
<path d="M123.214 84.8601C123.214 83.1781 123.881 81.9601 124.983 81.0901C126.955 79.6111 130.29 79.1761 134.147 79.1761C138.004 79.1761 141.31 79.6111 143.282 81.0901C144.413 81.9601 145.08 83.1781 145.08 84.8601C145.08 86.4841 144.413 87.7021 143.282 88.5721C141.31 90.0511 138.004 90.5151 134.147 90.5151C130.29 90.5151 126.955 90.0511 124.983 88.5721C123.881 87.7021 123.214 86.4841 123.214 84.8601ZM127.593 84.8601C127.593 85.3531 127.825 85.7591 128.289 86.0491C129.246 86.7451 131.218 86.9481 134.147 86.9481C137.047 86.9481 139.048 86.7451 140.005 86.0491C140.44 85.7591 140.672 85.3531 140.672 84.8601C140.672 84.3091 140.44 83.9031 140.005 83.6131C139.048 82.9171 137.047 82.7141 134.147 82.7141C131.218 82.7141 129.246 82.9171 128.289 83.6131C127.825 83.9031 127.593 84.3091 127.593 84.8601ZM132.291 95.8801H122.025V92.1971H146.211V95.8801H136.67V100.433H132.291V95.8801ZM123.649 97.9391H128.086V102.405H145.022V106.088H123.649V97.9391Z" fill="#2E6684" fill-opacity="0.2"/>
<path d="M155.43 84.8021V81.2061H158.939V78.3931H163.086V81.2061H166.624V84.8021H163.086C163.202 88.5141 164.333 89.6451 166.943 90.2541V93.9951C164.449 93.6471 162.361 92.6031 161.085 91.0661C159.838 92.6321 157.576 93.9661 155.111 94.3141V90.5441C157.692 89.9351 158.852 88.5721 158.939 84.8021H155.43ZM177.963 79.1761V94.1981H173.845V88.3981H171.989V94.0241H168.016V79.3211H171.989V84.6281H173.845V79.1761H177.963ZM161.81 97.2721H173.555V94.9521H177.963V106.233H157.402V94.9521H161.81V97.2721ZM173.555 102.666V100.868H161.81V102.666H173.555Z" fill="#2E6684" fill-opacity="0.2"/>
<path d="M192.346 104.203H181.993V79.6401H195.217V83.3521H186.343V89.9351H193.97V93.6471H186.343V100.52H192.549C194.405 100.52 195.942 100.433 197.16 100.085V103.652C195.942 104.087 194.318 104.203 192.346 104.203ZM199.248 79.1761H203.656V105.943H199.248V93.2991H195.014V89.5001H199.248V79.1761Z" fill="#2E6684" fill-opacity="0.2"/>
<path d="M229.639 86.3391H213.138V87.2381H229.784V90.2831H208.73V83.3811H225.26V82.5111H208.73V79.4661H229.639V86.3391ZM231.292 94.4011H207.106V91.2401H231.292V94.4011ZM229.639 102.289H213.138V103.304H230.219V106.233H208.73V99.4181H225.26V98.4031H208.73V95.5031H229.639V102.289Z" fill="#2E6684" fill-opacity="0.2"/>
<path d="M240.83 83.1781V79.4661H254.982V83.1781H250.052C250.052 87.7021 252.024 89.5001 255.475 90.1961V93.9371C252.343 93.5311 249.501 92.1681 247.964 90.1381C246.34 92.1971 243.382 93.8791 240.308 94.2561V90.4861C243.73 89.7901 245.702 87.7601 245.702 83.1781H240.83ZM262.667 79.1761V94.4301H258.259V88.2241H253.474V84.5701H258.259V79.1761H262.667ZM242.019 100.665C242.019 98.8091 242.947 97.4751 244.397 96.5471C246.427 95.2131 249.53 94.7491 252.662 94.7491C255.765 94.7491 258.897 95.2131 260.927 96.5471C262.348 97.4751 263.276 98.8091 263.276 100.665C263.276 102.521 262.348 103.855 260.927 104.812C258.897 106.146 255.765 106.581 252.662 106.581C249.53 106.581 246.427 106.146 244.397 104.812C242.947 103.855 242.019 102.521 242.019 100.665ZM246.427 100.665C246.427 101.274 246.746 101.651 247.297 101.999C248.428 102.695 250.458 102.898 252.662 102.898C254.837 102.898 256.896 102.695 257.998 101.999C258.578 101.651 258.868 101.274 258.868 100.665C258.868 100.085 258.578 99.6791 257.998 99.3311C256.896 98.6641 254.837 98.4321 252.662 98.4321C250.458 98.4321 248.428 98.6641 247.297 99.3311C246.746 99.6791 246.427 100.085 246.427 100.665Z" fill="#2E6684" fill-opacity="0.2"/>
<path d="M279.109 104.203H267.074V89.9351H275.803V83.3521H267.074V79.6401H280.153V93.6471H271.453V100.52H279.805C281.98 100.52 283.459 100.201 284.329 99.4181V79.1761H288.737V105.943H284.329V102.927C283.43 103.826 281.632 104.203 279.109 104.203Z" fill="#2E6684" fill-opacity="0.2"/>
<path d="M307.354 85.6431H292.042V81.9021H297.494V78.3931H301.902V81.9021H307.354V85.6431ZM297.349 95.8221C297.349 98.0841 297.639 99.5921 298.335 100.404C298.683 100.839 299.205 101.042 299.814 101.042C300.423 101.042 300.916 100.839 301.293 100.404C301.989 99.5921 302.25 98.0841 302.25 95.8221C302.25 93.5601 301.989 92.0811 301.293 91.2691C300.916 90.8341 300.423 90.6311 299.814 90.6311C299.205 90.6311 298.683 90.8341 298.335 91.2691C297.639 92.0811 297.349 93.5601 297.349 95.8221ZM293.028 95.8221C293.028 92.5451 293.753 89.9931 295.377 88.4851C296.45 87.4411 297.929 86.8901 299.814 86.8901C301.699 86.8901 303.149 87.4411 304.251 88.4851C305.875 89.9931 306.6 92.5451 306.6 95.8221C306.6 99.1281 305.875 101.651 304.251 103.188C303.149 104.203 301.699 104.754 299.814 104.754C297.929 104.754 296.45 104.203 295.377 103.188C293.753 101.651 293.028 99.1281 293.028 95.8221ZM309.761 79.1761H314.169V89.6451H318.084V93.4441H314.169V105.943H309.761V79.1761Z" fill="#2E6684" fill-opacity="0.2"/>
<path d="M336.585 89.9641V83.3811H319.591V79.6401H340.993V89.1231C340.993 92.1101 340.732 95.3581 340.268 97.7071H335.86C336.295 95.5031 336.585 92.4871 336.585 89.9641ZM325.913 101.1V89.3841H330.35V101.1H342.327V104.841H318.431V101.1H325.913Z" fill="#2E6684" fill-opacity="0.2"/>
<path d="M349.489 99.3311V104.058C349.489 106.407 347.952 108.118 344.733 108.205V106.146C346.299 106.088 347.14 105.392 347.14 104.058H344.733V99.3311H349.489Z" fill="#2E6684" fill-opacity="0.2"/>
<path d="M84.2111 119.64V144.203H70.8131V119.64H84.2111ZM75.1631 140.52H79.8321V123.352H75.1631V140.52ZM88.0681 119.176H92.4761V145.943H88.0681V119.176Z" fill="#2E6684" fill-opacity="0.2"/>
<path d="M96.622 123.352V119.64H111.296V123.352H106.163V129.326C106.163 136.779 108.512 139.041 111.528 140.375V144.261C108.367 143.507 105.438 141.39 103.959 138.954C102.451 141.419 99.464 143.536 96.361 144.261V140.375C99.348 139.07 101.726 136.779 101.726 129.326V123.352H96.622ZM114.167 119.176H118.575V145.943H114.167V119.176Z" fill="#2E6684" fill-opacity="0.2"/>
<path d="M123.04 127.818C123.04 124.744 123.939 122.395 125.679 120.916C126.897 119.872 128.637 119.321 130.522 119.321C132.436 119.321 134.176 119.872 135.394 120.916C137.134 122.395 138.004 124.744 138.004 127.818C138.004 130.892 137.134 133.241 135.394 134.749C134.176 135.764 132.436 136.315 130.522 136.315C128.637 136.315 126.897 135.764 125.679 134.749C123.939 133.241 123.04 130.892 123.04 127.818ZM127.39 127.818C127.39 129.645 127.709 131.095 128.492 131.878C128.985 132.4 129.71 132.603 130.522 132.603C131.363 132.603 132.03 132.4 132.523 131.878C133.335 131.095 133.683 129.645 133.683 127.818C133.683 125.991 133.335 124.57 132.523 123.758C132.03 123.265 131.363 123.004 130.522 123.004C129.71 123.004 128.985 123.265 128.492 123.758C127.709 124.57 127.39 125.991 127.39 127.818ZM144.674 119.176V145.943H140.266V143.246C139.367 144.116 137.569 144.551 135.046 144.551H122.257V140.839H135.742C137.917 140.839 139.396 140.491 140.266 139.708V119.176H144.674Z" fill="#2E6684" fill-opacity="0.2"/>
<path d="M162.39 135.242V123.207H160.766V140.665H162.1C162.361 139.07 162.39 137.214 162.39 135.242ZM156.88 140.665V123.207H155.488V119.64H167.436V123.207H166.247V135.097C166.247 137.069 166.16 139.012 165.899 140.636C166.682 140.578 167.407 140.491 168.045 140.317V143.71C167.03 144.087 165.667 144.174 164.246 144.174H155.169V140.665H156.88ZM168.712 133.009H166.798V129.181H168.712V119.321H172.627V145.711H168.712V133.009ZM177.963 119.176V145.943H173.932V119.176H177.963Z" fill="#2E6684" fill-opacity="0.2"/>
<path d="M195.855 131.907C195.855 136.866 195.362 140.462 193.651 142.521C192.549 143.913 190.809 144.58 188.75 144.58C186.72 144.58 185.009 143.913 183.849 142.521C182.138 140.462 181.645 136.866 181.645 131.907C181.645 126.977 182.138 123.381 183.849 121.322C185.009 119.901 186.72 119.205 188.75 119.205C190.809 119.205 192.549 119.901 193.651 121.322C195.362 123.381 195.855 126.977 195.855 131.907ZM186.024 131.907C186.024 136.112 186.256 138.867 187.068 140.056C187.445 140.607 188.083 140.897 188.75 140.897C189.446 140.897 190.055 140.607 190.461 140.056C191.273 138.867 191.505 136.112 191.505 131.907C191.505 127.731 191.273 124.976 190.461 123.787C190.055 123.236 189.446 122.917 188.75 122.917C188.083 122.917 187.445 123.236 187.068 123.787C186.256 124.976 186.024 127.731 186.024 131.907ZM199.248 119.176H203.656V145.943H199.248V119.176Z" fill="#2E6684" fill-opacity="0.2"/>
<path d="M207.802 123.352V119.64H222.476V123.352H217.343V129.326C217.343 136.779 219.692 139.041 222.708 140.375V144.261C219.547 143.507 216.618 141.39 215.139 138.954C213.631 141.419 210.644 143.536 207.541 144.261V140.375C210.528 139.07 212.906 136.779 212.906 129.326V123.352H207.802ZM225.347 119.176H229.755V145.943H225.347V119.176Z" fill="#2E6684" fill-opacity="0.2"/>
<path d="M255.738 126.339H239.237V127.238H255.883V130.283H234.829V123.381H251.359V122.511H234.829V119.466H255.738V126.339ZM257.391 134.401H233.205V131.24H257.391V134.401ZM255.738 142.289H239.237V143.304H256.318V146.233H234.829V139.418H251.359V138.403H234.829V135.503H255.738V142.289Z" fill="#2E6684" fill-opacity="0.2"/>
<path d="M78.2081 184.232C76.7871 183.478 75.4241 182.26 74.5831 180.839C73.6551 182.318 71.5381 183.826 69.5371 184.261V180.404C71.6831 179.07 72.4081 177.62 72.4081 172.632V159.64H76.6711V172.516C76.6711 176.721 77.2801 178.345 78.2081 179.621C79.1651 178.374 79.7451 176.75 79.7451 172.516V159.64H84.0371V172.632C84.0371 177.591 84.7621 179.07 86.8791 180.404V184.232C84.8781 183.826 82.8771 182.318 81.8331 180.839C80.9631 182.231 79.5711 183.507 78.2081 184.232ZM85.0811 168.456H88.4161V159.176H92.7951V185.943H88.4161V172.197H85.0811V168.456Z" fill="#2E6684" fill-opacity="0.2"/>
<path d="M110.54 184.174H103.551V159.466H107.785V180.52H111.265C113.15 180.52 114.542 180.23 115.383 179.592V159.321H119.501V169.355H121.589V159.176H125.765V185.943H121.589V173.096H119.501V185.711H115.383V183.13C114.484 183.855 112.889 184.174 110.54 184.174Z" fill="#2E6684" fill-opacity="0.2"/>
<path d="M139.945 184.203H129.795V169.935H137.393V163.352H129.795V159.64H141.772V173.647H134.145V180.52H140.119C141.975 180.52 143.541 180.433 144.759 180.085V183.652C143.541 184.087 141.888 184.203 139.945 184.203ZM147.05 159.176H151.458V185.943H147.05V176.895H142.961V173.096H147.05V168.63H142.961V164.889H147.05V159.176Z" fill="#2E6684" fill-opacity="0.2"/>
<path d="M164.304 163.178H155.43V159.466H168.712V161.641C168.712 169.442 164.101 173.125 154.792 173.879V170.138C160.998 169.674 164.217 167.093 164.304 163.178ZM172.482 159.176H176.89V164.541H180.573V168.311H176.89V173.415H172.482V159.176ZM161.23 177.011H172.511V174.372H176.89V186.233H156.822V174.372H161.23V177.011ZM172.511 182.666V180.607H161.23V182.666H172.511Z" fill="#2E6684" fill-opacity="0.2"/>
<path d="M194.028 184.203H181.993V159.466H186.372V180.52H194.724C196.899 180.52 198.378 180.172 199.248 179.389V159.176H203.656V185.943H199.248V182.927C198.349 183.826 196.551 184.203 194.028 184.203Z" fill="#2E6684" fill-opacity="0.2"/>
<path d="M219.489 184.203H207.947V159.64H221.258V163.352H212.297V180.52H220.185C222.331 180.52 223.781 180.172 224.68 179.447V159.176H229.088V169.645H233.003V173.444H229.088V185.943H224.68V182.985C223.752 183.826 221.925 184.203 219.489 184.203Z" fill="#2E6684" fill-opacity="0.2"/>
<path d="M238.309 179.331V184.058H233.553V179.331H238.309Z" fill="#2E6684" fill-opacity="0.2"/>
<path fill-rule="evenodd" clip-rule="evenodd" d="M7.29505 5.8787C4.12928 8.7818 1.79735 12.5796 0.699888 16.8715L7.29505 23.027V5.8787ZM0.167611 19.701C0.0569648 20.6054 0 21.5264 0 22.4607C0 29.0241 2.81113 34.9309 7.29505 39.0428V26.3533L0.167611 19.701ZM9.72673 40.9824C13.0415 43.2714 17.0008 44.6937 21.2772 44.9215V39.4033L9.72673 28.6229V40.9824ZM23.7088 44.9215C27.9852 44.6937 31.9445 43.2715 35.2593 40.9824V29.2788L23.7088 39.4251V44.9215ZM37.691 39.0428C42.1749 34.9309 44.9861 29.0241 44.9861 22.4607C44.9861 21.8982 44.9654 21.3405 44.9248 20.7883L37.691 27.1427V39.0428ZM44.5242 17.9036C43.554 13.1887 41.1083 9.0124 37.691 5.87866V23.9061L44.5242 17.9036ZM35.2593 3.93907C31.9445 1.64999 27.9852 0.227779 23.7088 0V14.3029L35.2593 4.15668V3.93907ZM21.2772 2.4383e-06C17.1409 0.220331 13.3011 1.55815 10.0544 3.71702L21.2772 14.1916V2.4383e-06ZM21.2772 36.077L9.72673 25.2966V6.73744L21.2772 17.5178V36.077ZM35.2593 26.0422L23.7088 36.1884V17.5396L35.2593 7.39331V26.0422Z" fill="#2E6684" fill-opacity="0.2"/>
<path d="M70.7871 35.4236L73.5775 11.6968H79.0246L86.9781 27.1693L94.7979 11.6968H100.245L102.835 35.4236H96.3853L95.1405 24.4541L89.0166 35.4236H84.3381L78.2477 24.6212L76.9026 35.4236H70.7871Z" fill="#2E6684" fill-opacity="0.2"/>
<path d="M112.089 18.2467V35.4236H105.873V18.2467H112.089ZM108.947 16.9434C107.789 16.9434 106.864 16.5981 106.174 15.9075C105.483 15.1946 105.138 14.348 105.138 13.3677C105.138 12.3875 105.472 11.552 106.14 10.8614C106.831 10.1485 107.767 9.79199 108.947 9.79199C110.128 9.79199 111.053 10.1485 111.721 10.8614C112.412 11.552 112.757 12.3875 112.757 13.3677C112.757 14.348 112.412 15.1946 111.721 15.9075C111.053 16.5981 110.128 16.9434 108.947 16.9434Z" fill="#2E6684" fill-opacity="0.2"/>
<path d="M115.231 35.4236V18.2467H121.414L121.18 21.4883C121.893 20.3966 122.761 19.55 123.786 18.9485C124.833 18.3247 125.992 18.0128 127.262 18.0128C129.378 18.0128 130.971 18.7257 132.041 20.1516C133.11 21.5551 133.633 23.6382 133.611 26.4007L133.544 35.4236H127.329L127.395 26.7349C127.395 24.7298 126.738 23.7273 125.424 23.7273C124.889 23.7273 124.388 23.9055 123.92 24.262C123.452 24.5962 123.04 25.1977 122.683 26.0666C122.327 26.9131 122.037 28.105 121.815 29.6423C121.592 31.1572 121.458 33.0843 121.414 35.4236H115.231Z" fill="#2E6684" fill-opacity="0.2"/>
<path d="M166.441 35.4236H159.891V11.6968H168.88C172.556 11.6968 175.263 12.3652 177.001 13.7019C178.761 15.0163 179.641 16.9434 179.641 19.4832C179.641 21.1764 179.184 22.6356 178.271 23.861C177.357 25.0863 176.065 26.0331 174.394 26.7015C172.724 27.3476 170.73 27.6706 168.413 27.6706H166.441V35.4236ZM169.081 17.0771H166.441V22.2569H168.747C170.128 22.2569 171.175 22.0453 171.888 21.622C172.623 21.1987 172.991 20.508 172.991 19.55C172.991 18.7035 172.679 18.0797 172.055 17.6786C171.431 17.2776 170.44 17.0771 169.081 17.0771Z" fill="#2E6684" fill-opacity="0.2"/>
<path d="M198.149 18.3804V35.4236H191.967L192.134 32.9841C190.998 34.8555 189.249 35.7912 186.887 35.7912C184.637 35.7912 182.844 35.056 181.507 33.5856C180.17 32.1152 179.502 30.099 179.502 27.5369C179.502 25.621 179.903 23.9501 180.705 22.5242C181.529 21.0984 182.61 19.9956 183.946 19.2159C185.283 18.4138 186.72 18.0128 188.257 18.0128C189.438 18.0128 190.441 18.2245 191.265 18.6478C192.112 19.0488 192.769 19.6169 193.237 20.3521L193.738 18.3804H198.149ZM189.227 23.3597C188.202 23.3597 187.389 23.7496 186.787 24.5293C186.185 25.2868 185.885 26.2225 185.885 27.3364C185.885 28.339 186.119 29.1076 186.587 29.6423C187.054 30.177 187.689 30.4443 188.491 30.4443C189.405 30.4443 190.196 30.0656 190.864 29.3081C191.555 28.5506 191.9 27.5592 191.9 26.3339C191.9 25.4205 191.655 24.6964 191.165 24.1617C190.697 23.627 190.051 23.3597 189.227 23.3597Z" fill="#2E6684" fill-opacity="0.2"/>
<path d="M201.283 42.1072V18.2467H207.498L207.298 20.7865C208.434 18.9374 210.183 18.0128 212.544 18.0128C214.795 18.0128 216.588 18.748 217.925 20.2184C219.261 21.6888 219.93 23.705 219.93 26.2671C219.93 28.183 219.518 29.8539 218.693 31.2798C217.891 32.7056 216.822 33.8195 215.485 34.6216C214.171 35.4013 212.734 35.7912 211.174 35.7912C209.682 35.7912 208.445 35.457 207.465 34.7886L207.498 35.4236V42.1072H201.283ZM210.205 30.4443C211.252 30.4443 212.065 30.0656 212.645 29.3081C213.246 28.5283 213.547 27.5815 213.547 26.4676C213.547 25.465 213.313 24.6964 212.845 24.1617C212.377 23.627 211.742 23.3597 210.94 23.3597C210.049 23.3597 209.258 23.7384 208.568 24.4959C207.877 25.2311 207.532 26.2225 207.532 27.4701C207.532 28.3613 207.766 29.0853 208.234 29.6423C208.724 30.177 209.381 30.4443 210.205 30.4443Z" fill="#2E6684" fill-opacity="0.2"/>
<path d="M230.917 35.7912C228.956 35.7912 227.252 35.4459 225.804 34.7552C224.355 34.0423 223.23 33.0286 222.428 31.7142C221.649 30.3997 221.259 28.8514 221.259 27.0691C221.259 25.2645 221.649 23.6827 222.428 22.3237C223.23 20.9647 224.311 19.9065 225.67 19.149C227.029 18.3916 228.544 18.0128 230.215 18.0128C232.264 18.0128 233.902 18.4584 235.127 19.3495C236.353 20.2407 237.188 21.4771 237.634 23.0589C238.101 24.6184 238.191 26.423 237.901 28.4726H227.608C227.764 29.0296 228.165 29.5197 228.811 29.943C229.457 30.3441 230.326 30.5446 231.418 30.5446C232.042 30.5446 232.632 30.4443 233.189 30.2438C233.768 30.021 234.236 29.7202 234.593 29.3415L237.834 33.1177C237.21 33.8529 236.341 34.4879 235.227 35.0226C234.136 35.535 232.699 35.7912 230.917 35.7912ZM230.482 22.3906C229.791 22.3906 229.201 22.5799 228.711 22.9587C228.221 23.3374 227.887 23.8721 227.708 24.5627H232.755C232.688 23.1146 231.93 22.3906 230.482 22.3906Z" fill="#2E6684" fill-opacity="0.2"/>
<path d="M252.864 24.2954C252.374 24.0726 251.795 23.9612 251.126 23.9612C249.366 23.9612 248.152 24.8858 247.484 26.7349C246.815 28.584 246.481 31.4803 246.481 35.4236H240.299V24.262L240.232 18.2467H246.414L246.147 22.6579C246.682 21.0539 247.45 19.8842 248.453 19.149C249.455 18.3916 250.569 18.0128 251.795 18.0128C252.173 18.0128 252.53 18.0351 252.864 18.0797C253.22 18.1242 253.599 18.2133 254 18.347L252.864 24.2954Z" fill="#2E6684" fill-opacity="0.2"/>
<path fill-rule="evenodd" clip-rule="evenodd" d="M144.922 14.9272H138.033V18.4345H135.152V23.4446H138.033V35.4687H144.922V23.4446H149.305V18.4345H144.922V14.9272Z" fill="#2E6684" fill-opacity="0.2"/>
</svg>
