<svg width="363" height="167" viewBox="0 0 363 167" fill="none" xmlns="http://www.w3.org/2000/svg">
<path d="M29.2561 100.496C31.0161 98.208 33.2454 96.3894 35.9441 95.04C38.6428 93.6907 41.6641 93.016 45.0081 93.016C50.1708 93.016 54.3068 94.7174 57.4161 98.12C60.5841 101.523 62.1681 106.187 62.1681 112.112C62.1681 113.989 61.9921 116.043 61.6401 118.272C60.7014 123.376 58.9708 127.864 56.4481 131.736C53.9254 135.549 50.8748 138.483 47.2961 140.536C43.7761 142.589 40.0508 143.616 36.1201 143.616C32.7761 143.616 29.9894 142.941 27.7601 141.592C25.5894 140.243 24.0054 138.424 23.0081 136.136L17.6401 166.584H0.39209L13.2401 93.632H30.4881L29.2561 100.496ZM44.0401 118.272C44.2161 117.392 44.3041 116.541 44.3041 115.72C44.3041 113.315 43.6001 111.437 42.1921 110.088C40.8428 108.739 39.0828 108.064 36.9121 108.064C34.3894 108.064 32.0721 108.973 29.9601 110.792C27.9068 112.611 26.6161 115.104 26.0881 118.272C25.9121 119.152 25.8241 119.973 25.8241 120.736C25.8241 123.2 26.4988 125.136 27.8481 126.544C29.2561 127.893 31.0454 128.568 33.2161 128.568C35.7974 128.568 38.1148 127.659 40.1681 125.84C42.2214 123.963 43.5121 121.44 44.0401 118.272Z" fill="#14303F"/>
<path d="M85.4606 143.616C81.1779 143.616 77.3646 142.765 74.0206 141.064C70.7353 139.363 68.1833 136.957 66.3646 133.848C64.5459 130.739 63.6366 127.101 63.6366 122.936C63.6366 117.304 64.9566 112.2 67.5966 107.624C70.2953 103.048 73.9913 99.4694 78.6846 96.888C83.3779 94.3067 88.6286 93.016 94.4366 93.016C98.7193 93.016 102.503 93.8667 105.789 95.568C109.133 97.2694 111.714 99.704 113.533 102.872C115.41 105.981 116.349 109.619 116.349 113.784C116.349 119.475 114.999 124.608 112.301 129.184C109.602 133.701 105.906 137.251 101.213 139.832C96.5193 142.355 91.2686 143.616 85.4606 143.616ZM88.1006 128.744C90.1539 128.744 91.9726 128.099 93.5566 126.808C95.1993 125.517 96.4313 123.845 97.2526 121.792C98.1326 119.739 98.5726 117.627 98.5726 115.456C98.5726 112.992 97.9273 111.115 96.6366 109.824C95.4046 108.533 93.7913 107.888 91.7966 107.888C89.6846 107.888 87.8366 108.533 86.2526 109.824C84.7273 111.115 83.5246 112.787 82.6446 114.84C81.8233 116.893 81.4126 119.035 81.4126 121.264C81.4126 123.728 82.0286 125.605 83.2606 126.896C84.4926 128.128 86.1059 128.744 88.1006 128.744Z" fill="#14303F"/>
<path d="M141.494 100.496C143.254 98.208 145.483 96.3894 148.182 95.04C150.881 93.6907 153.902 93.016 157.246 93.016C162.409 93.016 166.545 94.7174 169.654 98.12C172.822 101.523 174.406 106.187 174.406 112.112C174.406 113.989 174.23 116.043 173.878 118.272C172.939 123.376 171.209 127.864 168.686 131.736C166.163 135.549 163.113 138.483 159.534 140.536C156.014 142.589 152.289 143.616 148.358 143.616C145.014 143.616 142.227 142.941 139.998 141.592C137.827 140.243 136.243 138.424 135.246 136.136L129.878 166.584H112.63L125.478 93.632H142.726L141.494 100.496ZM156.278 118.272C156.454 117.392 156.542 116.541 156.542 115.72C156.542 113.315 155.838 111.437 154.43 110.088C153.081 108.739 151.321 108.064 149.15 108.064C146.627 108.064 144.31 108.973 142.198 110.792C140.145 112.611 138.854 115.104 138.326 118.272C138.15 119.152 138.062 119.973 138.062 120.736C138.062 123.2 138.737 125.136 140.086 126.544C141.494 127.893 143.283 128.568 145.454 128.568C148.035 128.568 150.353 127.659 152.406 125.84C154.459 123.963 155.75 121.44 156.278 118.272Z" fill="#14303F"/>
<path d="M199.546 100.496C201.306 98.208 203.536 96.3894 206.234 95.04C208.933 93.6907 211.954 93.016 215.298 93.016C220.461 93.016 224.597 94.7174 227.706 98.12C230.874 101.523 232.458 106.187 232.458 112.112C232.458 113.989 232.282 116.043 231.93 118.272C230.992 123.376 229.261 127.864 226.738 131.736C224.216 135.549 221.165 138.483 217.586 140.536C214.066 142.589 210.341 143.616 206.41 143.616C203.066 143.616 200.28 142.941 198.05 141.592C195.88 140.243 194.296 138.424 193.298 136.136L187.93 166.584H170.682L183.53 93.632H200.778L199.546 100.496ZM214.33 118.272C214.506 117.392 214.594 116.541 214.594 115.72C214.594 113.315 213.89 111.437 212.482 110.088C211.133 108.739 209.373 108.064 207.202 108.064C204.68 108.064 202.362 108.973 200.25 110.792C198.197 112.611 196.906 115.104 196.378 118.272C196.202 119.152 196.114 119.973 196.114 120.736C196.114 123.2 196.789 125.136 198.138 126.544C199.546 127.893 201.336 128.568 203.506 128.568C206.088 128.568 208.405 127.659 210.458 125.84C212.512 123.963 213.802 121.44 214.33 118.272Z" fill="#14303F"/>
<path d="M251.087 89.056C248.388 89.056 246.247 88.3814 244.663 87.032C243.138 85.6827 242.375 83.952 242.375 81.84C242.375 79.9627 242.874 78.232 243.871 76.648C244.927 75.0054 246.335 73.7147 248.095 72.776C249.914 71.7787 251.938 71.28 254.167 71.28C256.866 71.28 258.978 71.984 260.503 73.392C262.087 74.7414 262.879 76.5014 262.879 78.672C262.879 80.5494 262.351 82.28 261.295 83.864C260.298 85.448 258.89 86.7094 257.071 87.648C255.252 88.5867 253.258 89.056 251.087 89.056ZM258.831 93.632L250.119 143H232.783L241.583 93.632H258.831Z" fill="#14303F"/>
<path d="M299.277 93.192C304.088 93.192 307.843 94.6 310.541 97.416C313.299 100.173 314.677 104.016 314.677 108.944C314.677 110.587 314.501 112.347 314.149 114.224L309.045 143H291.797L296.461 116.512C296.637 115.632 296.725 114.84 296.725 114.136C296.725 112.024 296.109 110.381 294.877 109.208C293.704 108.035 292.032 107.448 289.861 107.448C287.397 107.448 285.315 108.211 283.613 109.736C281.912 111.261 280.768 113.373 280.181 116.072L275.429 143H258.093L266.893 93.632H284.141L282.909 100.672C284.845 98.4427 287.221 96.6534 290.037 95.304C292.853 93.896 295.933 93.192 299.277 93.192Z" fill="#14303F"/>
<path d="M338.221 143.616C334.115 143.616 330.448 143 327.221 141.768C323.995 140.536 321.472 138.805 319.653 136.576C317.835 134.288 316.925 131.677 316.925 128.744C316.925 128.216 316.984 127.424 317.101 126.368H333.733C333.675 128.011 334.173 129.272 335.229 130.152C336.285 131.032 337.752 131.472 339.629 131.472C341.096 131.472 342.299 131.179 343.237 130.592C344.235 130.005 344.733 129.243 344.733 128.304C344.733 127.189 344.117 126.339 342.885 125.752C341.653 125.107 339.6 124.315 336.725 123.376C333.381 122.32 330.624 121.293 328.453 120.296C326.283 119.299 324.376 117.832 322.733 115.896C321.149 113.96 320.357 111.467 320.357 108.416C320.357 105.483 321.208 102.843 322.909 100.496C324.669 98.1494 327.133 96.3307 330.301 95.04C333.469 93.6907 337.136 93.016 341.301 93.016C345.76 93.016 349.603 93.7787 352.829 95.304C356.115 96.7707 358.549 98.824 360.133 101.464C361.776 104.104 362.509 107.037 362.333 110.264H346.845C346.904 108.68 346.435 107.448 345.437 106.568C344.44 105.629 343.003 105.16 341.125 105.16C339.776 105.16 338.661 105.453 337.781 106.04C336.901 106.627 336.461 107.389 336.461 108.328C336.461 109.443 337.077 110.323 338.309 110.968C339.6 111.613 341.741 112.435 344.733 113.432C348.019 114.488 350.747 115.544 352.917 116.6C355.147 117.597 357.053 119.035 358.637 120.912C360.221 122.731 361.013 125.077 361.013 127.952C361.013 132.821 358.901 136.664 354.677 139.48C350.453 142.237 344.968 143.616 338.221 143.616Z" fill="#14303F"/>
<path d="M12.1001 21.6309C12.1001 11.1759 13.1201 5.05594 15.9761 2.14894C17.3021 0.924937 18.8831 0.261937 21.0251 0.261937C23.1161 0.261937 24.7481 0.924937 26.0231 2.14894C28.6751 4.80094 29.7461 10.2069 29.8991 19.1829H36.7841V0.465937H39.8441V44.9379H36.7841V21.9369H29.8991C29.8991 32.2389 28.8791 38.3079 26.0231 41.1129C24.7481 42.3879 23.1161 42.8979 21.0251 42.8979C18.8831 42.8979 17.3021 42.3879 15.9761 41.1129C13.1201 38.2569 12.1001 32.1369 12.1001 21.6309ZM15.1091 21.6309C15.1091 31.1679 15.8231 36.6759 17.9651 39.0219C18.7811 39.8889 19.7501 40.2969 21.0251 40.2969C22.2491 40.2969 23.3201 39.8889 24.0341 39.0219C26.1761 36.6759 26.8901 31.1679 26.8901 21.6309C26.8901 12.1959 26.1761 6.63694 24.0341 4.29094C23.3201 3.42394 22.2491 2.96494 21.0251 2.96494C19.7501 2.96494 18.7811 3.42394 17.9651 4.29094C15.8231 6.63694 15.1091 12.1959 15.1091 21.6309ZM46.4741 0.210938H49.5341V45.4479H46.4741V0.210938Z" fill="#14303F"/>
<path d="M77.3271 13.3689C74.6751 19.7439 68.5041 25.4049 57.9981 27.5469V24.6909C68.5041 22.3959 75.7461 15.3579 75.7461 5.46394V0.822939H78.8571V5.46394C78.8571 15.3579 86.4561 22.3959 96.6561 24.6909V27.5469C86.3031 25.3029 79.9791 19.7439 77.3271 13.3689ZM57.2331 43.3569V40.7559H97.4721V43.3569H57.2331Z" fill="#14303F"/>
<path d="M105.63 19.2849V16.5819H122.256C127.56 16.5819 133.833 16.2249 137.76 15.2049V3.88294H105.63V1.07794H140.871V17.3979C140.871 22.8549 140.463 28.4139 139.698 32.3409H136.587C137.352 28.4139 137.76 22.8039 137.76 17.9589V17.8569C133.833 18.9279 127.662 19.2849 122.205 19.2849H105.63ZM103.131 43.3569V40.7559H117.768V25.8129H120.879V40.7559H143.37V43.3569H103.131Z" fill="#14303F"/>
<path d="M170.143 21.6309C170.143 13.6749 169.276 7.96294 166.726 5.10694C165.502 3.72994 163.819 2.96494 161.728 2.96494C159.688 2.96494 158.005 3.72994 156.73 5.10694C154.231 7.96294 153.364 13.6749 153.364 21.6309C153.364 29.6379 154.231 35.4009 156.73 38.2569C158.005 39.5829 159.688 40.2969 161.728 40.2969C163.819 40.2969 165.502 39.5829 166.726 38.2569C169.276 35.4009 170.143 29.6379 170.143 21.6309ZM150.253 21.6309C150.253 12.9609 151.324 6.63694 154.486 3.21994C156.22 1.28194 158.719 0.261937 161.728 0.261937C164.737 0.261937 167.185 1.28194 168.97 3.21994C171.877 6.33094 173.05 11.7879 173.203 19.2339H183.352V0.261937H186.463V45.4479H183.352V21.9879H173.254C173.203 30.4539 172.132 36.7269 168.97 40.0929C167.185 42.0819 164.737 42.8979 161.728 42.8979C158.719 42.8979 156.22 42.0819 154.486 40.0929C151.324 36.6759 150.253 30.3009 150.253 21.6309Z" fill="#14303F"/>
<path d="M244.349 3.88294H212.219V23.5689H244.859V26.2719H209.108V1.12894H244.349V3.88294ZM206.609 43.3569V40.7559H246.848V43.3569H206.609Z" fill="#14303F"/>
<path d="M275.151 24.7929H253.833V11.3799H271.785V3.47494H253.833V0.822939H274.896V14.0829H256.944V22.1919H275.763C280.506 22.1919 284.382 21.3759 287.034 19.3869V0.261937H290.145V27.0879H287.034V21.9369C284.484 24.0279 280.353 24.7929 275.151 24.7929ZM256.74 46.0089V31.2699H290.145V46.0089H256.74ZM287.034 33.9729H259.851V43.3569H287.034V33.9729Z" fill="#14303F"/>
</svg>
