<svg width="1185" height="50" viewBox="0 0 1185 50" fill="none" xmlns="http://www.w3.org/2000/svg">
<path fill-rule="evenodd" clip-rule="evenodd" d="M1135 8.5001L26 8.5L26 7.5L1135 7.5001L1135 8.5001Z" fill="#677593"/>
<path d="M8.19629 34.3281H2.69434V35.5762H7.72168V37.2988H2.69434V38.6172C4.26465 38.6113 5.52441 38.585 6.47363 38.5381C7.42871 38.4912 8.37793 38.3887 9.32129 38.2305L9.5498 39.9707C8.48926 40.1523 7.41699 40.2695 6.33301 40.3223C5.24902 40.3691 3.74316 40.3926 1.81543 40.3926H0.444336V32.5352H8.19629V34.3281ZM12.96 41.1309H10.71V31.6387H12.96V41.1309ZM12.96 47.4414H2.2373V41.7812H12.96V47.4414ZM4.45215 45.6484H10.7627V43.5215H4.45215V45.6484Z" fill="#14303F"/>
<path d="M32.7529 39.6719H30.5205V38.4414H26.8643V36.7363H30.5205V35.3301H27.0312C26.5449 36.5254 25.7334 37.5127 24.5967 38.292C23.46 39.0713 22.001 39.6543 20.2197 40.041L19.4639 38.2129C21.2393 37.8613 22.5869 37.3311 23.5068 36.6221C24.4268 35.9072 24.9629 35.0488 25.1152 34.0469H20.3604V32.2363H27.6025C27.6025 32.7227 27.5674 33.1855 27.4971 33.625H30.5205V31.6211H32.7529V39.6719ZM32.7529 44.6289H24.3857V45.6836H33.1045V47.459H22.1357V42.9766H30.5029V42.0098H22.1182V40.252H32.7529V44.6289Z" fill="#14303F"/>
<path d="M40.874 33.8008C40.8682 34.5391 40.9941 35.2305 41.252 35.875C41.5156 36.5195 41.9199 37.0879 42.4648 37.5801C43.0156 38.0723 43.7041 38.4473 44.5303 38.7051L43.3525 40.4629C42.5088 40.1699 41.7881 39.7568 41.1904 39.2236C40.5986 38.6904 40.1328 38.0547 39.793 37.3164C39.4238 38.1777 38.9111 38.9219 38.2549 39.5488C37.5986 40.1699 36.8018 40.6387 35.8643 40.9551L34.6865 39.1621C35.5654 38.8809 36.2979 38.4736 36.8838 37.9404C37.4697 37.4014 37.9004 36.7891 38.1758 36.1035C38.457 35.4121 38.6006 34.6797 38.6064 33.9062V32.4473H40.874V33.8008ZM48.3096 40.9902H46.0771V36.3848H43.0713V34.5566H46.0771V31.6211H48.3096V40.9902ZM42.8428 41.4121C43.9736 41.4121 44.9521 41.5352 45.7783 41.7812C46.6045 42.0273 47.2402 42.3848 47.6855 42.8535C48.1309 43.3164 48.3564 43.873 48.3623 44.5234C48.3564 45.1738 48.1309 45.7305 47.6855 46.1934C47.2402 46.6562 46.6045 47.0078 45.7783 47.248C44.958 47.4941 43.9795 47.6172 42.8428 47.6172C41.7061 47.6172 40.7246 47.4941 39.8984 47.248C39.0781 47.0078 38.4453 46.6562 38 46.1934C37.5605 45.7305 37.3408 45.1738 37.3408 44.5234C37.3408 43.873 37.5605 43.3164 38 42.8535C38.4453 42.3848 39.0811 42.0273 39.9072 41.7812C40.7334 41.5352 41.7119 41.4121 42.8428 41.4121ZM42.8428 43.1523C41.7705 43.1523 40.9561 43.2666 40.3994 43.4951C39.8486 43.7236 39.5732 44.0664 39.5732 44.5234C39.5732 44.9629 39.8516 45.2998 40.4082 45.5342C40.9707 45.7627 41.7822 45.877 42.8428 45.877C43.9092 45.877 44.7236 45.7627 45.2861 45.5342C45.8486 45.2998 46.1299 44.9629 46.1299 44.5234C46.1299 44.0723 45.8486 43.7324 45.2861 43.5039C44.7295 43.2695 43.915 43.1523 42.8428 43.1523Z" fill="#14303F"/>
<path d="M134.935 32.834C134.935 34.3691 134.694 35.7197 134.214 36.8857C133.739 38.0459 132.963 39.0596 131.885 39.9268C130.812 40.7881 129.392 41.5 127.622 42.0625L126.761 40.3398C127.886 39.9766 128.826 39.5664 129.582 39.1094C130.344 38.6523 130.95 38.1426 131.401 37.5801L127.077 37.9316L126.761 36.1562L132.28 35.9629C132.421 35.541 132.515 35.1016 132.562 34.6445H127.569V32.834H134.935ZM139.979 43.4336H137.747V38.2832H134.847V36.4727H137.747V31.6387H139.979V43.4336ZM140.384 47.3359H129.45V42.291H131.718V45.543H140.384V47.3359Z" fill="#14303F"/>
<path d="M155.8 40.498H153.673V31.6387H155.8V40.498ZM152.565 40.4102H150.438V36.3848H148.487V34.5566H150.438V31.8848H152.565V40.4102ZM147.081 42.5195H153.585V41.0957H155.8V47.4414H144.866V41.0957H147.081V42.5195ZM153.585 45.6484V44.2598H147.081V45.6484H153.585ZM147.099 34.0996C147.099 35.0254 147.333 35.875 147.802 36.6484C148.276 37.416 148.991 38.0137 149.946 38.4414L148.733 40.1113C148.106 39.8535 147.564 39.4961 147.107 39.0391C146.656 38.5762 146.296 38.0371 146.026 37.4219C145.722 38.1074 145.317 38.7109 144.813 39.2324C144.31 39.748 143.712 40.1523 143.021 40.4453L141.825 38.7402C142.528 38.4355 143.111 38.0371 143.574 37.5449C144.037 37.0527 144.377 36.5166 144.594 35.9365C144.811 35.3506 144.919 34.75 144.919 34.1348V32.4121H147.099V34.0996Z" fill="#14303F"/>
<path d="M175.206 47.6172H172.974V31.6211H175.206V47.6172ZM162.655 43.0996C163.083 43.0938 163.619 43.0879 164.264 43.082C164.914 43.0762 165.462 43.0674 165.907 43.0557V41.7021C165.321 41.5967 164.809 41.4092 164.369 41.1396C163.936 40.8701 163.602 40.5361 163.367 40.1377C163.133 39.7334 163.019 39.2852 163.024 38.793C163.019 38.2012 163.183 37.6797 163.517 37.2285C163.851 36.7715 164.319 36.417 164.923 36.165C165.526 35.9131 166.218 35.7871 166.997 35.7871C167.782 35.7871 168.479 35.9131 169.089 36.165C169.698 36.417 170.173 36.7715 170.513 37.2285C170.853 37.6797 171.022 38.2012 171.022 38.793C171.022 39.2852 170.902 39.7334 170.662 40.1377C170.428 40.5361 170.091 40.8701 169.651 41.1396C169.218 41.4092 168.708 41.5967 168.122 41.7021V42.9854C169.622 42.9092 170.946 42.7949 172.095 42.6426L172.253 44.2949C170.7 44.5586 169.106 44.7314 167.472 44.8135C165.843 44.8896 164.062 44.9277 162.128 44.9277L161.829 43.0996H162.655ZM171.866 35.1543H162.146V33.3965H165.907V31.6914H168.14V33.3965H171.866V35.1543ZM166.997 37.4922C166.44 37.4922 165.992 37.6094 165.652 37.8438C165.312 38.0723 165.146 38.3887 165.151 38.793C165.146 39.2031 165.31 39.5225 165.644 39.751C165.983 39.9795 166.435 40.0938 166.997 40.0938C167.571 40.0938 168.028 39.9824 168.368 39.7598C168.708 39.5312 168.878 39.209 168.878 38.793C168.878 38.3828 168.705 38.0635 168.359 37.835C168.02 37.6064 167.565 37.4922 166.997 37.4922Z" fill="#14303F"/>
<path d="M182.501 32.6934C183.333 32.6875 184.086 32.8545 184.76 33.1943C185.439 33.5283 185.97 33.9941 186.351 34.5918C186.737 35.1895 186.931 35.8633 186.931 36.6133C186.931 37.3691 186.737 38.0459 186.351 38.6436C185.97 39.2412 185.442 39.71 184.769 40.0498C184.095 40.3838 183.339 40.5508 182.501 40.5508C181.663 40.5508 180.904 40.3838 180.225 40.0498C179.551 39.71 179.021 39.2412 178.634 38.6436C178.247 38.0459 178.054 37.3691 178.054 36.6133C178.054 35.8633 178.247 35.1895 178.634 34.5918C179.021 33.9941 179.554 33.5283 180.233 33.1943C180.913 32.8545 181.669 32.6875 182.501 32.6934ZM182.501 34.627C182.079 34.627 181.698 34.7061 181.358 34.8643C181.019 35.0225 180.752 35.2539 180.559 35.5586C180.371 35.8574 180.28 36.209 180.286 36.6133C180.28 37.0234 180.371 37.3779 180.559 37.6768C180.752 37.9756 181.016 38.2041 181.35 38.3623C181.689 38.5205 182.073 38.5996 182.501 38.5996C182.929 38.5996 183.31 38.5205 183.644 38.3623C183.983 38.2041 184.25 37.9756 184.443 37.6768C184.643 37.3779 184.745 37.0234 184.751 36.6133C184.745 36.2031 184.646 35.8486 184.452 35.5498C184.259 35.251 183.992 35.0225 183.652 34.8643C183.312 34.7061 182.929 34.627 182.501 34.627ZM190.763 47.6523H188.53V31.6211H190.763V47.6523ZM178.265 42.5547C182.021 42.5547 185.138 42.3848 187.616 42.0449L187.792 43.6621C186.222 43.9668 184.619 44.1631 182.984 44.251C181.35 44.3389 179.571 44.3828 177.649 44.3828L177.386 42.5547H178.265Z" fill="#14303F"/>
<path d="M194.946 46.1582C194.677 46.1582 194.428 46.0908 194.199 45.9561C193.971 45.8213 193.789 45.6426 193.654 45.4199C193.525 45.1914 193.464 44.9453 193.47 44.6816C193.464 44.418 193.525 44.1748 193.654 43.9521C193.789 43.7295 193.971 43.5537 194.199 43.4248C194.428 43.29 194.677 43.2227 194.946 43.2227C195.198 43.2227 195.436 43.29 195.658 43.4248C195.887 43.5537 196.068 43.7295 196.203 43.9521C196.338 44.1748 196.405 44.418 196.405 44.6816C196.405 44.9453 196.338 45.1914 196.203 45.4199C196.068 45.6426 195.887 45.8213 195.658 45.9561C195.436 46.0908 195.198 46.1582 194.946 46.1582Z" fill="#14303F"/>
<path d="M214.915 47.6523H212.647V31.6211H214.915V47.6523ZM210.274 34.8555H204.737V41.9395C206.296 41.9336 207.556 41.9043 208.517 41.8516C209.478 41.793 210.433 41.6758 211.382 41.5L211.593 43.3457C210.544 43.5449 209.463 43.6768 208.35 43.7412C207.236 43.8057 205.745 43.8379 203.876 43.8379H202.487V33.0273H210.274V34.8555Z" fill="#14303F"/>
<path d="M222.983 35.9805C222.978 36.8184 223.121 37.6592 223.414 38.5029C223.713 39.3467 224.158 40.1201 224.75 40.8232C225.342 41.5205 226.06 42.0625 226.903 42.4492L225.655 44.207C224.788 43.8086 224.035 43.2314 223.396 42.4756C222.758 41.7139 222.254 40.835 221.885 39.8389C221.516 40.9346 221 41.8984 220.338 42.7305C219.682 43.5625 218.905 44.1895 218.009 44.6113L216.708 42.8359C217.563 42.4375 218.293 41.8721 218.896 41.1396C219.5 40.4014 219.954 39.584 220.259 38.6875C220.569 37.791 220.728 36.8887 220.733 35.9805V34.9961H217.341V33.168H226.2V34.9961H222.983V35.9805ZM229.698 37.7207H232.054V39.6016H229.698V47.6172H227.448V31.6211H229.698V37.7207Z" fill="#14303F"/>
<path d="M246.028 43.1348H243.778V31.6387H246.028V43.1348ZM246.45 47.3359H235.306V41.9746H237.573V45.543H246.45V47.3359ZM237.257 32.6582C238.071 32.6582 238.81 32.8311 239.472 33.1768C240.14 33.5225 240.667 34.0029 241.054 34.6182C241.44 35.2275 241.634 35.916 241.634 36.6836C241.634 37.4629 241.44 38.1631 241.054 38.7842C240.673 39.3994 240.148 39.8799 239.48 40.2256C238.812 40.5713 238.071 40.7441 237.257 40.7441C236.442 40.7441 235.701 40.5713 235.033 40.2256C234.365 39.8799 233.838 39.3994 233.451 38.7842C233.07 38.1631 232.88 37.4629 232.88 36.6836C232.88 35.916 233.073 35.2275 233.46 34.6182C233.847 34.0029 234.371 33.5225 235.033 33.1768C235.701 32.8311 236.442 32.6582 237.257 32.6582ZM237.257 34.6094C236.841 34.6035 236.466 34.6855 236.132 34.8555C235.798 35.0195 235.537 35.2598 235.35 35.5762C235.162 35.8926 235.071 36.2617 235.077 36.6836C235.071 37.1172 235.162 37.4951 235.35 37.8174C235.537 38.1338 235.795 38.377 236.123 38.5469C236.457 38.7109 236.835 38.793 237.257 38.793C237.667 38.793 238.033 38.7109 238.355 38.5469C238.684 38.377 238.941 38.1338 239.129 37.8174C239.322 37.4951 239.419 37.1172 239.419 36.6836C239.419 36.2617 239.322 35.8926 239.129 35.5762C238.941 35.2598 238.684 35.0195 238.355 34.8555C238.027 34.6855 237.661 34.6035 237.257 34.6094Z" fill="#14303F"/>
<path d="M258.579 34.7852C258.579 35.4473 258.717 36.0859 258.992 36.7012C259.273 37.3105 259.698 37.8584 260.267 38.3447C260.841 38.8252 261.55 39.1914 262.394 39.4434L261.251 41.2012C260.378 40.9258 259.622 40.5156 258.983 39.9707C258.345 39.4258 257.841 38.7812 257.472 38.0371C257.097 38.8457 256.581 39.5488 255.925 40.1465C255.269 40.7441 254.483 41.1953 253.569 41.5L252.409 39.7422C253.265 39.4668 253.982 39.0713 254.562 38.5557C255.143 38.04 255.576 37.457 255.863 36.8066C256.15 36.1562 256.294 35.4824 256.294 34.7852V34.5566H253.007V32.7637H261.796V34.5566H258.579V34.7852ZM265.733 43.2051H263.483V31.6387H265.733V43.2051ZM266.155 47.3359H255.011V42.1504H257.278V45.543H266.155V47.3359Z" fill="#14303F"/>
<path d="M281.642 41.6582H279.515V37.4043H278.231V41.1309H276.14V31.9199H278.231V35.5762H279.515V31.6211H281.642V41.6582ZM275.665 35.0137H267.808V33.2734H270.638V31.7617H272.87V33.2734H275.665V35.0137ZM271.763 35.541C272.437 35.541 273.037 35.6582 273.564 35.8926C274.092 36.127 274.505 36.4551 274.804 36.877C275.103 37.2988 275.255 37.7852 275.261 38.3359C275.255 38.8809 275.103 39.3643 274.804 39.7861C274.505 40.2021 274.092 40.5273 273.564 40.7617C273.037 40.9961 272.437 41.1133 271.763 41.1133C271.101 41.1133 270.506 40.9961 269.979 40.7617C269.451 40.5273 269.038 40.2021 268.739 39.7861C268.446 39.3643 268.3 38.8809 268.3 38.3359C268.3 37.791 268.446 37.3076 268.739 36.8857C269.038 36.458 269.451 36.127 269.979 35.8926C270.506 35.6582 271.101 35.541 271.763 35.541ZM271.763 37.1582C271.317 37.1582 270.963 37.2637 270.699 37.4746C270.436 37.6855 270.304 37.9727 270.304 38.3359C270.304 38.7051 270.436 38.998 270.699 39.2148C270.969 39.4258 271.323 39.5254 271.763 39.5137C272.202 39.5254 272.557 39.4258 272.826 39.2148C273.096 38.998 273.233 38.7051 273.239 38.3359C273.233 37.9668 273.096 37.6797 272.826 37.4746C272.562 37.2637 272.208 37.1582 271.763 37.1582ZM276.175 41.7988C277.329 41.7988 278.319 41.9131 279.146 42.1416C279.978 42.3701 280.613 42.7041 281.053 43.1436C281.498 43.5771 281.724 44.1016 281.729 44.7168C281.724 45.3262 281.498 45.8477 281.053 46.2812C280.613 46.7148 279.978 47.0459 279.146 47.2744C278.313 47.5029 277.323 47.6172 276.175 47.6172C275.026 47.6172 274.036 47.5029 273.204 47.2744C272.378 47.0459 271.742 46.7148 271.297 46.2812C270.857 45.8477 270.638 45.3262 270.638 44.7168C270.638 44.1016 270.857 43.5771 271.297 43.1436C271.742 42.7041 272.378 42.3701 273.204 42.1416C274.036 41.9131 275.026 41.7988 276.175 41.7988ZM276.175 43.4863C273.966 43.4863 272.87 43.8965 272.888 44.7168C272.882 45.1211 273.157 45.4258 273.714 45.6309C274.271 45.8301 275.091 45.9297 276.175 45.9297C278.366 45.9297 279.462 45.5254 279.462 44.7168C279.462 44.3008 279.189 43.9932 278.645 43.7939C278.1 43.5889 277.276 43.4863 276.175 43.4863Z" fill="#14303F"/>
<path d="M370.12 34.8379H368.556V41.9131C369.224 41.8662 369.874 41.8047 370.507 41.7285L370.647 43.3457C369.194 43.5977 367.656 43.7676 366.033 43.8555C364.416 43.9375 362.726 43.9785 360.962 43.9785L360.751 42.1328L362.562 42.124V34.8379H361.19V33.0273H370.12V34.8379ZM374.321 47.6172H372.106V39.2324H369.646V37.4395H372.106V31.6211H374.321V47.6172ZM364.741 42.0889C365.292 42.0771 365.843 42.0596 366.394 42.0361V34.8379H364.741V42.0889Z" fill="#14303F"/>
<path d="M380.456 33.0098H386.872V31.8848H389.104V37.2637H378.241V31.8848H380.456V33.0098ZM386.872 35.5938V34.627H380.456V35.5938H386.872ZM390.968 39.8828H376.378V38.1426H390.968V39.8828ZM389.192 44.875H380.28V45.8242H389.614V47.5117H378.083V43.3105H386.978V42.4668H378.065V40.832H389.192V44.875Z" fill="#14303F"/>
<path d="M405.347 47.6523H403.114V31.6211H405.347V47.6523ZM400.39 39.127H395.116V42.0625C396.37 42.0566 397.539 42.0127 398.623 41.9307C399.713 41.8486 400.829 41.7168 401.972 41.5352L402.165 43.3457C400.923 43.5625 399.687 43.7119 398.456 43.7939C397.226 43.8701 395.819 43.9082 394.237 43.9082H392.796V37.3516H398.104V34.7676H392.778V32.957H400.39V39.127Z" fill="#14303F"/>
<path d="M420.886 41.0957H418.636V31.6387H420.886V41.0957ZM415.472 41.3594C416.591 41.3594 417.561 41.4824 418.381 41.7285C419.207 41.9746 419.843 42.332 420.288 42.8008C420.739 43.2637 420.968 43.8203 420.974 44.4707C420.968 45.1152 420.739 45.6689 420.288 46.1318C419.843 46.5947 419.207 46.9492 418.381 47.1953C417.555 47.4414 416.585 47.5645 415.472 47.5645C414.347 47.5645 413.371 47.4414 412.545 47.1953C411.719 46.9492 411.083 46.5947 410.638 46.1318C410.192 45.6689 409.97 45.1152 409.97 44.4707C409.97 43.8203 410.189 43.2637 410.629 42.8008C411.074 42.332 411.71 41.9746 412.536 41.7285C413.368 41.4824 414.347 41.3594 415.472 41.3594ZM415.472 43.0996C413.292 43.0996 412.202 43.5566 412.202 44.4707C412.202 44.9219 412.478 45.2617 413.028 45.4902C413.585 45.7129 414.399 45.8242 415.472 45.8242C416.538 45.8242 417.353 45.7129 417.915 45.4902C418.478 45.2617 418.759 44.9219 418.759 44.4707C418.759 44.0137 418.478 43.6709 417.915 43.4424C417.358 43.2139 416.544 43.0996 415.472 43.0996ZM413.626 33.8535C413.62 34.5391 413.752 35.1895 414.021 35.8047C414.291 36.4199 414.707 36.9678 415.27 37.4482C415.838 37.9287 416.544 38.2949 417.388 38.5469L416.28 40.3223C415.39 40.041 414.625 39.6338 413.986 39.1006C413.348 38.5615 412.844 37.9229 412.475 37.1846C412.105 38.0107 411.59 38.7314 410.928 39.3467C410.271 39.9561 409.483 40.416 408.563 40.7266L407.438 38.9336C408.294 38.6582 409.009 38.2568 409.583 37.7295C410.163 37.2021 410.591 36.6045 410.866 35.9365C411.147 35.2627 411.288 34.5684 411.288 33.8535V32.3066H413.626V33.8535Z" fill="#14303F"/>
<path d="M439.817 37.7559H442.085V39.6016H439.817V47.582H437.567V31.6211H439.817V37.7559ZM435.546 33.2559C435.534 35.8047 434.96 38.0576 433.823 40.0146C432.692 41.9658 430.847 43.5684 428.286 44.8223L427.021 43.0996C428.925 42.1445 430.387 41.0137 431.406 39.707C432.432 38.4004 433.05 36.8594 433.261 35.084H427.935V33.2559H435.546Z" fill="#14303F"/>
<path d="M456.147 47.6523H453.88V31.6211H456.147V47.6523ZM447.464 32.7461C448.267 32.7461 448.984 32.9805 449.617 33.4492C450.256 33.918 450.757 34.583 451.12 35.4443C451.483 36.3057 451.665 37.3047 451.665 38.4414C451.665 39.5898 451.483 40.5977 451.12 41.4648C450.757 42.3262 450.256 42.9912 449.617 43.46C448.984 43.9229 448.267 44.1543 447.464 44.1543C446.644 44.1543 445.911 43.9229 445.267 43.46C444.622 42.9912 444.118 42.3262 443.755 41.4648C443.397 40.5977 443.222 39.5898 443.228 38.4414C443.222 37.3047 443.397 36.3057 443.755 35.4443C444.118 34.583 444.622 33.918 445.267 33.4492C445.911 32.9805 446.644 32.7461 447.464 32.7461ZM447.464 34.7676C447.048 34.7676 446.682 34.9111 446.365 35.1982C446.055 35.4795 445.814 35.8955 445.645 36.4463C445.475 36.9971 445.39 37.6621 445.39 38.4414C445.39 39.2266 445.475 39.8945 445.645 40.4453C445.814 40.9961 446.055 41.4121 446.365 41.6934C446.682 41.9746 447.048 42.1152 447.464 42.1152C447.874 42.1152 448.231 41.9746 448.536 41.6934C448.841 41.4062 449.078 40.9873 449.248 40.4365C449.418 39.8857 449.503 39.2207 449.503 38.4414C449.503 37.668 449.418 37.0059 449.248 36.4551C449.078 35.8984 448.838 35.4795 448.527 35.1982C448.223 34.9111 447.868 34.7676 447.464 34.7676Z" fill="#14303F"/>
<path d="M471.353 40.8145H460.032V32.957H471.229V34.7676H462.247V39.0215H471.353V40.8145ZM472.952 45.666H458.31V43.8203H472.952V45.666Z" fill="#14303F"/>
<path d="M487.103 34.3457H483.921C483.927 34.9961 484.062 35.623 484.325 36.2266C484.595 36.8242 485.008 37.3633 485.564 37.8438C486.121 38.3242 486.815 38.6992 487.647 38.9688L486.505 40.709C485.638 40.4336 484.894 40.0264 484.272 39.4873C483.657 38.9424 483.171 38.3008 482.813 37.5625C482.444 38.3711 481.938 39.0684 481.293 39.6543C480.648 40.2402 479.872 40.6797 478.964 40.9727L477.769 39.25C478.618 38.9746 479.33 38.582 479.904 38.0723C480.484 37.5625 480.918 36.9883 481.205 36.3496C481.492 35.7051 481.642 35.0371 481.653 34.3457H478.384V32.5527H487.103V34.3457ZM490.706 35.5059H492.868V37.3691H490.706V41.2715H488.456V31.6211H490.706V35.5059ZM490.706 47.6172H488.456V43.7324H479.931V41.957H490.706V47.6172Z" fill="#14303F"/>
<path d="M499.618 33.8008C499.612 34.5391 499.738 35.2305 499.996 35.875C500.26 36.5195 500.664 37.0879 501.209 37.5801C501.76 38.0723 502.448 38.4473 503.274 38.7051L502.097 40.4629C501.253 40.1699 500.532 39.7568 499.935 39.2236C499.343 38.6904 498.877 38.0547 498.537 37.3164C498.168 38.1777 497.655 38.9219 496.999 39.5488C496.343 40.1699 495.546 40.6387 494.608 40.9551L493.431 39.1621C494.31 38.8809 495.042 38.4736 495.628 37.9404C496.214 37.4014 496.645 36.7891 496.92 36.1035C497.201 35.4121 497.345 34.6797 497.351 33.9062V32.4473H499.618V33.8008ZM507.054 40.9902H504.821V36.3848H501.815V34.5566H504.821V31.6211H507.054V40.9902ZM501.587 41.4121C502.718 41.4121 503.696 41.5352 504.522 41.7812C505.349 42.0273 505.984 42.3848 506.43 42.8535C506.875 43.3164 507.101 43.873 507.106 44.5234C507.101 45.1738 506.875 45.7305 506.43 46.1934C505.984 46.6562 505.349 47.0078 504.522 47.248C503.702 47.4941 502.724 47.6172 501.587 47.6172C500.45 47.6172 499.469 47.4941 498.643 47.248C497.822 47.0078 497.189 46.6562 496.744 46.1934C496.305 45.7305 496.085 45.1738 496.085 44.5234C496.085 43.873 496.305 43.3164 496.744 42.8535C497.189 42.3848 497.825 42.0273 498.651 41.7812C499.478 41.5352 500.456 41.4121 501.587 41.4121ZM501.587 43.1523C500.515 43.1523 499.7 43.2666 499.144 43.4951C498.593 43.7236 498.317 44.0664 498.317 44.5234C498.317 44.9629 498.596 45.2998 499.152 45.5342C499.715 45.7627 500.526 45.877 501.587 45.877C502.653 45.877 503.468 45.7627 504.03 45.5342C504.593 45.2998 504.874 44.9629 504.874 44.5234C504.874 44.0723 504.593 43.7324 504.03 43.5039C503.474 43.2695 502.659 43.1523 501.587 43.1523Z" fill="#14303F"/>
<path d="M574.104 33.2734H576.74V38.5469H582.26V33.2734H584.914V46H582.26V40.7266H576.74V46H574.104V33.2734Z" fill="#14303F"/>
<path d="M586.566 33.2734H596.99V35.4531H593.088V46H590.469V35.4531H586.566V33.2734Z" fill="#14303F"/>
<path d="M601.895 33.2734L605.428 41.9043H605.568L609.102 33.2734H612.371V46H609.805V37.668H609.699L606.377 45.9473H604.619L601.297 37.6328H601.191V46H598.625V33.2734H601.895Z" fill="#14303F"/>
<path d="M614.516 33.2734H617.152V43.8203H622.637V46H614.516V33.2734Z" fill="#14303F"/>
<path d="M625.607 49.709H623.744L624.623 44.6992H627.119L625.607 49.709Z" fill="#14303F"/>
<path d="M641.586 37.7031C641.516 37.2402 641.354 36.8389 641.103 36.499C640.851 36.1533 640.528 35.8896 640.136 35.708C639.743 35.5264 639.301 35.4355 638.809 35.4355C638.146 35.4355 637.566 35.6025 637.068 35.9365C636.576 36.2646 636.195 36.7451 635.926 37.3779C635.656 38.0049 635.521 38.7578 635.521 39.6367C635.521 40.5332 635.656 41.2979 635.926 41.9307C636.195 42.5576 636.576 43.0322 637.068 43.3545C637.561 43.6768 638.135 43.8379 638.791 43.8379C639.523 43.8379 640.139 43.6445 640.637 43.2578C641.141 42.8711 641.457 42.3379 641.586 41.6582L644.258 41.6758C644.158 42.4785 643.874 43.2227 643.405 43.9082C642.937 44.5938 642.304 45.1445 641.507 45.5605C640.71 45.9707 639.793 46.1758 638.756 46.1758C637.613 46.1758 636.594 45.918 635.697 45.4023C634.801 44.8809 634.098 44.1279 633.588 43.1436C633.084 42.1592 632.832 40.9902 632.832 39.6367C632.832 38.2891 633.087 37.123 633.597 36.1387C634.112 35.1484 634.818 34.3955 635.715 33.8799C636.617 33.3584 637.631 33.0977 638.756 33.0977C639.734 33.0977 640.619 33.2793 641.41 33.6426C642.201 34.0059 642.843 34.5361 643.335 35.2334C643.833 35.9248 644.141 36.748 644.258 37.7031H641.586Z" fill="#14303F"/>
<path d="M653.012 36.9121C652.959 36.4082 652.739 36.0156 652.353 35.7344C651.966 35.4531 651.453 35.3125 650.814 35.3125C650.375 35.3125 649.997 35.377 649.681 35.5059C649.37 35.6289 649.133 35.8018 648.969 36.0244C648.805 36.2471 648.723 36.502 648.723 36.7891C648.723 37.1992 648.907 37.5273 649.276 37.7734C649.646 38.0195 650.141 38.2129 650.762 38.3535L651.904 38.6348C653.082 38.8984 654.011 39.335 654.69 39.9443C655.376 40.5479 655.719 41.3535 655.719 42.3613C655.719 43.1406 655.522 43.8174 655.13 44.3916C654.737 44.96 654.172 45.3994 653.434 45.71C652.695 46.0205 651.816 46.1758 650.797 46.1758C649.766 46.1758 648.869 46.0176 648.107 45.7012C647.352 45.3848 646.763 44.9189 646.341 44.3037C645.925 43.6826 645.705 42.9238 645.682 42.0273H648.248C648.289 42.6543 648.535 43.1348 648.986 43.4688C649.443 43.7969 650.035 43.9609 650.762 43.9609C651.219 43.9609 651.62 43.8936 651.966 43.7588C652.312 43.624 652.578 43.4365 652.766 43.1963C652.953 42.9561 653.047 42.6777 653.047 42.3613C653.047 41.9512 652.868 41.626 652.511 41.3857C652.159 41.1455 651.611 40.9316 650.867 40.7441L649.479 40.4102C647.17 39.8418 646.016 38.6875 646.016 36.9473C646.016 36.1855 646.221 35.5146 646.631 34.9346C647.047 34.3486 647.621 33.8975 648.354 33.5811C649.086 33.2588 649.912 33.0977 650.832 33.0977C651.758 33.0977 652.575 33.2588 653.284 33.5811C653.993 33.9033 654.544 34.3545 654.937 34.9346C655.329 35.5088 655.531 36.168 655.543 36.9121H653.012Z" fill="#14303F"/>
<path d="M664.35 36.9121C664.297 36.4082 664.077 36.0156 663.69 35.7344C663.304 35.4531 662.791 35.3125 662.152 35.3125C661.713 35.3125 661.335 35.377 661.019 35.5059C660.708 35.6289 660.471 35.8018 660.307 36.0244C660.143 36.2471 660.061 36.502 660.061 36.7891C660.061 37.1992 660.245 37.5273 660.614 37.7734C660.983 38.0195 661.479 38.2129 662.1 38.3535L663.242 38.6348C664.42 38.8984 665.349 39.335 666.028 39.9443C666.714 40.5479 667.057 41.3535 667.057 42.3613C667.057 43.1406 666.86 43.8174 666.468 44.3916C666.075 44.96 665.51 45.3994 664.771 45.71C664.033 46.0205 663.154 46.1758 662.135 46.1758C661.104 46.1758 660.207 46.0176 659.445 45.7012C658.689 45.3848 658.101 44.9189 657.679 44.3037C657.263 43.6826 657.043 42.9238 657.02 42.0273H659.586C659.627 42.6543 659.873 43.1348 660.324 43.4688C660.781 43.7969 661.373 43.9609 662.1 43.9609C662.557 43.9609 662.958 43.8936 663.304 43.7588C663.649 43.624 663.916 43.4365 664.104 43.1963C664.291 42.9561 664.385 42.6777 664.385 42.3613C664.385 41.9512 664.206 41.626 663.849 41.3857C663.497 41.1455 662.949 40.9316 662.205 40.7441L660.816 40.4102C658.508 39.8418 657.354 38.6875 657.354 36.9473C657.354 36.1855 657.559 35.5146 657.969 34.9346C658.385 34.3486 658.959 33.8975 659.691 33.5811C660.424 33.2588 661.25 33.0977 662.17 33.0977C663.096 33.0977 663.913 33.2588 664.622 33.5811C665.331 33.9033 665.882 34.3545 666.274 34.9346C666.667 35.5088 666.869 36.168 666.881 36.9121H664.35Z" fill="#14303F"/>
<path d="M686.164 47.6172H684.037V31.6211H686.164V47.6172ZM682.895 46.8789H680.785V38.916H678.676V37.1055H680.785V31.8848H682.895V46.8789ZM677.393 35.9102C677.393 37.3633 677.645 38.6846 678.148 39.874C678.658 41.0576 679.461 41.9629 680.557 42.5898L679.238 44.2422C678.547 43.832 677.958 43.2871 677.472 42.6074C676.991 41.9277 676.613 41.1426 676.338 40.252C676.051 41.2246 675.658 42.083 675.16 42.8271C674.662 43.5713 674.059 44.1602 673.35 44.5938L671.996 42.9414C672.746 42.4844 673.361 41.8838 673.842 41.1396C674.328 40.3896 674.68 39.5693 674.896 38.6787C675.119 37.7881 675.23 36.8652 675.23 35.9102V35.0488H672.611V33.2559H679.818V35.0488H677.393V35.9102Z" fill="#14303F"/>
<path d="M696.975 34.3457H693.793C693.799 34.9961 693.934 35.623 694.197 36.2266C694.467 36.8242 694.88 37.3633 695.437 37.8438C695.993 38.3242 696.688 38.6992 697.52 38.9688L696.377 40.709C695.51 40.4336 694.766 40.0264 694.145 39.4873C693.529 38.9424 693.043 38.3008 692.686 37.5625C692.316 38.3711 691.81 39.0684 691.165 39.6543C690.521 40.2402 689.744 40.6797 688.836 40.9727L687.641 39.25C688.49 38.9746 689.202 38.582 689.776 38.0723C690.356 37.5625 690.79 36.9883 691.077 36.3496C691.364 35.7051 691.514 35.0371 691.525 34.3457H688.256V32.5527H696.975V34.3457ZM700.578 35.5059H702.74V37.3691H700.578V41.2715H698.328V31.6211H700.578V35.5059ZM700.578 47.6172H698.328V43.7324H689.803V41.957H700.578V47.6172Z" fill="#14303F"/>
<path d="M753.192 33.2734V42.1504C753.192 42.9648 753.01 43.6768 752.647 44.2861C752.289 44.8896 751.785 45.3555 751.135 45.6836C750.485 46.0117 749.735 46.1758 748.885 46.1758C748.1 46.1758 747.397 46.0381 746.776 45.7627C746.154 45.4814 745.665 45.0625 745.308 44.5059C744.956 43.9434 744.783 43.2578 744.789 42.4492H747.426C747.432 42.9473 747.578 43.3398 747.865 43.627C748.152 43.9082 748.533 44.0488 749.008 44.0488C749.512 44.0488 749.899 43.8877 750.168 43.5654C750.438 43.2432 750.572 42.7715 750.572 42.1504V33.2734H753.192Z" fill="#14303F"/>
<path d="M754.826 43.3281C754.826 42.3438 755.157 41.623 755.819 41.166C756.482 40.709 757.334 40.4512 758.377 40.3926C759.022 40.3516 759.813 40.3105 760.75 40.2695V39.4961C760.738 39.0977 760.601 38.7871 760.337 38.5645C760.073 38.3418 759.701 38.2305 759.221 38.2305C758.787 38.2305 758.433 38.3242 758.157 38.5117C757.882 38.6992 757.709 38.957 757.639 39.2852H755.16C755.213 38.7227 755.406 38.2188 755.74 37.7734C756.08 37.3281 756.552 36.9766 757.155 36.7188C757.759 36.4609 758.471 36.332 759.291 36.332C760.018 36.332 760.686 36.4463 761.295 36.6748C761.91 36.9033 762.402 37.2607 762.772 37.7471C763.147 38.2275 763.334 38.834 763.334 39.5664V46H760.873V44.6816H760.803C760.551 45.1445 760.191 45.5107 759.722 45.7803C759.259 46.0439 758.688 46.1758 758.008 46.1758C757.387 46.1758 756.836 46.0703 756.356 45.8594C755.881 45.6426 755.506 45.3203 755.231 44.8926C754.961 44.4648 754.826 43.9434 754.826 43.3281ZM757.322 43.2578C757.322 43.6152 757.451 43.8936 757.709 44.0928C757.973 44.2861 758.319 44.3828 758.746 44.3828C759.133 44.3828 759.479 44.3037 759.783 44.1455C760.094 43.9873 760.334 43.7705 760.504 43.4951C760.674 43.2197 760.756 42.918 760.75 42.5898V41.8955C760.475 41.9014 760.135 41.916 759.731 41.9395C759.326 41.9629 759.016 41.9863 758.799 42.0098C758.342 42.0566 757.982 42.1855 757.718 42.3965C757.454 42.6074 757.322 42.8945 757.322 43.2578Z" fill="#14303F"/>
<path d="M770.471 46H767.553L764.213 36.4551H766.955L768.959 43.3105H769.065L771.069 36.4551H773.828L770.471 46Z" fill="#14303F"/>
<path d="M774.373 43.3281C774.373 42.3438 774.704 41.623 775.366 41.166C776.028 40.709 776.881 40.4512 777.924 40.3926C778.569 40.3516 779.36 40.3105 780.297 40.2695V39.4961C780.285 39.0977 780.148 38.7871 779.884 38.5645C779.62 38.3418 779.248 38.2305 778.768 38.2305C778.334 38.2305 777.98 38.3242 777.704 38.5117C777.429 38.6992 777.256 38.957 777.186 39.2852H774.707C774.76 38.7227 774.953 38.2188 775.287 37.7734C775.627 37.3281 776.099 36.9766 776.702 36.7188C777.306 36.4609 778.018 36.332 778.838 36.332C779.565 36.332 780.233 36.4463 780.842 36.6748C781.457 36.9033 781.949 37.2607 782.319 37.7471C782.694 38.2275 782.881 38.834 782.881 39.5664V46H780.42V44.6816H780.35C780.098 45.1445 779.737 45.5107 779.269 45.7803C778.806 46.0439 778.235 46.1758 777.555 46.1758C776.934 46.1758 776.383 46.0703 775.902 45.8594C775.428 45.6426 775.053 45.3203 774.777 44.8926C774.508 44.4648 774.373 43.9434 774.373 43.3281ZM776.869 43.2578C776.869 43.6152 776.998 43.8936 777.256 44.0928C777.52 44.2861 777.865 44.3828 778.293 44.3828C778.68 44.3828 779.026 44.3037 779.33 44.1455C779.641 43.9873 779.881 43.7705 780.051 43.4951C780.221 43.2197 780.303 42.918 780.297 42.5898V41.8955C780.022 41.9014 779.682 41.916 779.277 41.9395C778.873 41.9629 778.563 41.9863 778.346 42.0098C777.889 42.0566 777.528 42.1855 777.265 42.3965C777.001 42.6074 776.869 42.8945 776.869 43.2578Z" fill="#14303F"/>
<path d="M790.317 39.2852C790.264 38.9512 790.097 38.6846 789.816 38.4854C789.534 38.2803 789.18 38.1777 788.752 38.1777C788.471 38.1777 788.216 38.2217 787.987 38.3096C787.765 38.3916 787.589 38.5088 787.46 38.6611C787.331 38.8076 787.27 38.9746 787.276 39.1621C787.258 39.6133 787.668 39.9297 788.506 40.1113L790.211 40.4629C791.137 40.6562 791.825 40.9639 792.277 41.3857C792.734 41.8076 792.965 42.3613 792.971 43.0469C792.965 43.668 792.783 44.2158 792.426 44.6904C792.074 45.165 791.579 45.5342 790.941 45.7979C790.302 46.0615 789.567 46.1934 788.735 46.1934C787.885 46.1934 787.15 46.0732 786.528 45.833C785.907 45.5869 785.418 45.2383 785.061 44.7871C784.709 44.3301 784.498 43.791 784.428 43.1699H787.047C787.106 43.5449 787.281 43.8291 787.574 44.0225C787.867 44.2158 788.254 44.3125 788.735 44.3125C789.209 44.3125 789.59 44.2217 789.877 44.04C790.17 43.8584 790.317 43.6152 790.317 43.3105C790.317 43.0645 790.211 42.8652 790 42.7129C789.795 42.5547 789.467 42.4258 789.016 42.3262L787.434 42.0098C786.531 41.834 785.846 41.5146 785.377 41.0518C784.908 40.5889 784.68 40.0059 784.692 39.3027C784.686 38.6992 784.847 38.1748 785.175 37.7295C785.503 37.2783 785.972 36.9326 786.581 36.6924C787.191 36.4521 787.902 36.332 788.717 36.332C789.508 36.332 790.199 36.4521 790.791 36.6924C791.383 36.9326 791.846 37.2754 792.18 37.7207C792.52 38.1602 792.713 38.6816 792.76 39.2852H790.317Z" fill="#14303F"/>
<path d="M798.86 46.1934C797.904 46.1934 797.072 45.9854 796.363 45.5693C795.66 45.1533 795.121 44.5732 794.746 43.8291C794.371 43.085 794.184 42.2266 794.184 41.2539C794.184 40.2812 794.371 39.4258 794.746 38.6875C795.127 37.9434 795.669 37.3662 796.372 36.9561C797.081 36.54 797.91 36.332 798.86 36.332C799.674 36.332 800.395 36.4814 801.022 36.7803C801.649 37.0791 802.141 37.5039 802.498 38.0547C802.861 38.5996 803.061 39.2324 803.096 39.9531H800.652C800.57 39.4668 800.377 39.0801 800.072 38.793C799.768 38.5 799.375 38.3535 798.895 38.3535C798.479 38.3535 798.112 38.4678 797.796 38.6963C797.485 38.9189 797.245 39.2471 797.075 39.6807C796.905 40.1143 796.82 40.627 796.82 41.2188C796.82 41.8281 796.905 42.3496 797.075 42.7832C797.245 43.2168 797.485 43.5479 797.796 43.7764C798.107 44.0049 798.473 44.1191 798.895 44.1191C799.358 44.1191 799.747 43.9814 800.064 43.7061C800.38 43.4307 800.576 43.041 800.652 42.5371H803.096C803.055 43.2578 802.859 43.8936 802.507 44.4443C802.155 44.9951 801.666 45.4258 801.039 45.7363C800.418 46.041 799.692 46.1934 798.86 46.1934Z" fill="#14303F"/>
<path d="M804.713 36.4551H807.227V38.1074H807.332C807.502 37.5273 807.792 37.085 808.202 36.7803C808.612 36.4697 809.09 36.3145 809.635 36.3145C809.934 36.3145 810.209 36.3438 810.461 36.4023V38.7227C810.332 38.6875 810.159 38.6553 809.943 38.626C809.726 38.5967 809.529 38.582 809.354 38.582C808.967 38.582 808.618 38.667 808.308 38.8369C807.997 39.0068 807.754 39.2441 807.578 39.5488C807.402 39.8477 807.315 40.1875 807.315 40.5684V46H804.713V36.4551Z" fill="#14303F"/>
<path d="M811.727 36.4551H814.328V46H811.727V36.4551ZM813.027 35.207C812.77 35.207 812.529 35.1484 812.307 35.0312C812.09 34.9082 811.917 34.7471 811.788 34.5479C811.665 34.3428 811.604 34.123 811.604 33.8887C811.604 33.6484 811.665 33.4258 811.788 33.2207C811.917 33.0156 812.09 32.8545 812.307 32.7373C812.529 32.6143 812.77 32.5527 813.027 32.5527C813.279 32.5527 813.514 32.6143 813.731 32.7373C813.947 32.8545 814.117 33.0156 814.24 33.2207C814.369 33.4258 814.434 33.6484 814.434 33.8887C814.434 34.123 814.369 34.3428 814.24 34.5479C814.117 34.7471 813.947 34.9082 813.731 35.0312C813.514 35.1484 813.279 35.207 813.027 35.207Z" fill="#14303F"/>
<path d="M816.35 36.4551H818.916V38.0547H819.022C819.238 37.5742 819.567 37.167 820.006 36.833C820.445 36.499 821.026 36.332 821.746 36.332C822.467 36.332 823.12 36.5195 823.706 36.8945C824.292 37.2637 824.755 37.8174 825.095 38.5557C825.441 39.2881 825.613 40.1816 825.613 41.2363C825.613 42.2676 825.444 43.1553 825.104 43.8994C824.77 44.6377 824.31 45.2002 823.724 45.5869C823.144 45.9678 822.485 46.1582 821.746 46.1582C821.037 46.1582 820.46 45.9971 820.015 45.6748C819.575 45.3467 819.244 44.9453 819.022 44.4707H818.951V49.5859H816.35V36.4551ZM818.899 41.2188C818.899 41.793 818.978 42.2969 819.136 42.7305C819.294 43.1582 819.526 43.4922 819.83 43.7324C820.135 43.9668 820.498 44.084 820.92 44.084C821.57 44.084 822.071 43.8232 822.423 43.3018C822.78 42.7803 822.959 42.0859 822.959 41.2188C822.959 40.3633 822.78 39.6807 822.423 39.1709C822.071 38.6611 821.57 38.4062 820.92 38.4062C820.276 38.4062 819.777 38.6582 819.426 39.1621C819.074 39.6602 818.899 40.3457 818.899 41.2188Z" fill="#14303F"/>
<path d="M832.328 38.4062H830.535V43.0645C830.535 43.416 830.611 43.6621 830.764 43.8027C830.916 43.9434 831.139 44.0195 831.432 44.0312C831.807 44.0312 832.152 44.0137 832.469 43.9785V46.0352C832.158 46.0938 831.695 46.123 831.08 46.123C830.102 46.123 829.331 45.8975 828.769 45.4463C828.206 44.9951 827.928 44.3242 827.934 43.4336V38.4062H826.615V36.4551H827.934V34.1699H830.535V36.4551H832.328V38.4062Z" fill="#14303F"/>
<path d="M835.281 49.709H833.418L834.297 44.6992H836.793L835.281 49.709Z" fill="#14303F"/>
<path d="M845.301 36.4551V46.4746C845.301 48.5488 844.106 49.5859 841.715 49.5859H841.469C841.41 49.5742 841.317 49.5684 841.188 49.5684V47.5293C841.252 47.5293 841.314 47.5322 841.372 47.5381C841.425 47.5439 841.481 47.5469 841.539 47.5469C841.949 47.5469 842.245 47.4531 842.427 47.2656C842.609 47.084 842.699 46.8086 842.699 46.4395V36.4551H845.301ZM843.983 35.207C843.725 35.207 843.485 35.1484 843.262 35.0312C843.045 34.9082 842.872 34.7471 842.743 34.5479C842.62 34.3428 842.559 34.123 842.559 33.8887C842.559 33.6484 842.62 33.4258 842.743 33.2207C842.872 33.0156 843.045 32.8545 843.262 32.7373C843.485 32.6143 843.725 32.5527 843.983 32.5527C844.235 32.5527 844.469 32.6143 844.686 32.7373C844.902 32.8545 845.072 33.0156 845.195 33.2207C845.324 33.4258 845.389 33.6484 845.389 33.8887C845.389 34.123 845.324 34.3428 845.195 34.5479C845.072 34.7471 844.902 34.9082 844.686 35.0312C844.469 35.1484 844.235 35.207 843.983 35.207Z" fill="#14303F"/>
<path d="M854.424 41.5879L855.391 42.8359C855.701 42.4727 855.936 42.0244 856.094 41.4912C856.258 40.9521 856.34 40.334 856.34 39.6367C856.34 38.7402 856.205 37.9785 855.936 37.3516C855.672 36.7246 855.297 36.25 854.811 35.9277C854.324 35.5996 853.75 35.4355 853.088 35.4355C852.426 35.4355 851.849 35.5996 851.357 35.9277C850.87 36.25 850.492 36.7275 850.223 37.3604C849.953 37.9873 849.819 38.7461 849.819 39.6367C849.819 40.5273 849.953 41.2891 850.223 41.9219C850.492 42.5488 850.87 43.0264 851.357 43.3545C851.849 43.6768 852.426 43.8379 853.088 43.8379C853.328 43.8379 853.571 43.8145 853.818 43.7676L852.156 41.5879H854.424ZM859.029 39.6367C859.029 40.7441 858.851 41.7344 858.493 42.6074C858.142 43.4746 857.647 44.1924 857.008 44.7607L858.819 47.0547H856.34L855.312 45.7803C854.638 46.0439 853.897 46.1758 853.088 46.1758C851.951 46.1758 850.932 45.915 850.029 45.3936C849.127 44.8721 848.418 44.1191 847.902 43.1348C847.387 42.1445 847.129 40.9785 847.129 39.6367C847.129 38.2891 847.387 37.123 847.902 36.1387C848.418 35.1484 849.127 34.3955 850.029 33.8799C850.932 33.3584 851.951 33.0977 853.088 33.0977C854.219 33.0977 855.233 33.3584 856.129 33.8799C857.031 34.3955 857.74 35.1484 858.256 36.1387C858.772 37.123 859.029 38.2891 859.029 39.6367Z" fill="#14303F"/>
<path d="M867.01 36.4551H869.611V46H867.115V44.2773H867.01C866.781 44.8457 866.415 45.2969 865.911 45.6309C865.413 45.959 864.813 46.123 864.11 46.123C863.471 46.123 862.908 45.9795 862.422 45.6924C861.942 45.4053 861.567 44.9922 861.297 44.4531C861.027 43.9082 860.893 43.2695 860.893 42.5371V36.4551H863.494V42.0801C863.494 42.6426 863.644 43.0908 863.943 43.4248C864.247 43.7588 864.654 43.9258 865.164 43.9258C865.492 43.9258 865.797 43.8496 866.078 43.6973C866.36 43.5391 866.585 43.3105 866.755 43.0117C866.925 42.7129 867.01 42.3555 867.01 41.9395V36.4551Z" fill="#14303F"/>
<path d="M875.957 46.1934C874.99 46.1934 874.152 45.9941 873.443 45.5957C872.74 45.1973 872.198 44.6289 871.818 43.8906C871.437 43.1465 871.246 42.2734 871.246 41.2715C871.246 40.293 871.434 39.4316 871.809 38.6875C872.19 37.9375 872.729 37.3574 873.426 36.9473C874.123 36.5371 874.932 36.332 875.852 36.332C876.707 36.332 877.472 36.5137 878.146 36.877C878.825 37.2344 879.359 37.7764 879.745 38.5029C880.138 39.2295 880.334 40.1172 880.334 41.166V41.9043H873.813C873.813 42.3789 873.901 42.792 874.076 43.1436C874.258 43.4951 874.513 43.7676 874.841 43.9609C875.175 44.1484 875.565 44.2422 876.01 44.2422C876.438 44.2422 876.807 44.1572 877.117 43.9873C877.428 43.8115 877.651 43.5742 877.785 43.2754H880.264C880.141 43.8613 879.889 44.374 879.508 44.8135C879.127 45.2529 878.632 45.5928 878.023 45.833C877.419 46.0732 876.731 46.1934 875.957 46.1934ZM877.873 40.2695C877.873 39.8887 877.788 39.5488 877.618 39.25C877.454 38.9453 877.223 38.708 876.924 38.5381C876.625 38.3682 876.285 38.2832 875.904 38.2832C875.518 38.2832 875.166 38.3711 874.85 38.5469C874.539 38.7227 874.29 38.9629 874.103 39.2676C873.921 39.5723 873.824 39.9062 873.813 40.2695H877.873Z" fill="#14303F"/>
<path d="M881.969 36.4551H884.483V38.1074H884.588C884.758 37.5273 885.048 37.085 885.458 36.7803C885.868 36.4697 886.346 36.3145 886.891 36.3145C887.19 36.3145 887.465 36.3438 887.717 36.4023V38.7227C887.588 38.6875 887.415 38.6553 887.198 38.626C886.982 38.5967 886.785 38.582 886.61 38.582C886.223 38.582 885.874 38.667 885.564 38.8369C885.253 39.0068 885.01 39.2441 884.834 39.5488C884.658 39.8477 884.57 40.1875 884.57 40.5684V46H881.969V36.4551Z" fill="#14303F"/>
<path d="M890.811 49.5859C890.266 49.5859 889.826 49.5684 889.492 49.5332V47.5117C889.938 47.5352 890.289 47.5469 890.547 47.5469C890.752 47.5469 890.922 47.5293 891.057 47.4941C891.197 47.459 891.329 47.377 891.452 47.248C891.581 47.1191 891.695 46.9258 891.795 46.668L891.953 46.2637L888.526 36.4551H891.25L893.254 43.4863H893.36L895.381 36.4551H898.141L894.414 47.0547C894.127 47.8691 893.696 48.4932 893.122 48.9268C892.548 49.3662 891.777 49.5859 890.811 49.5859Z" fill="#14303F"/>
<path d="M917.635 40.7617H903.01V38.9336H917.635V40.7617ZM915.965 37.8086H904.785V32.043H915.877V33.8535H907.018V36.0332H915.965V37.8086ZM910.287 41.7285C911.442 41.7285 912.435 41.8428 913.267 42.0713C914.099 42.2998 914.737 42.6338 915.183 43.0732C915.628 43.5127 915.854 44.043 915.86 44.6641C915.854 45.291 915.628 45.8242 915.183 46.2637C914.737 46.709 914.099 47.0459 913.267 47.2744C912.435 47.5029 911.442 47.6172 910.287 47.6172C909.121 47.6172 908.116 47.5029 907.273 47.2744C906.435 47.0459 905.793 46.709 905.348 46.2637C904.902 45.8242 904.68 45.291 904.68 44.6641C904.68 44.043 904.902 43.5127 905.348 43.0732C905.799 42.6338 906.443 42.2998 907.281 42.0713C908.119 41.8428 909.121 41.7285 910.287 41.7285ZM910.287 43.4336C909.18 43.4336 908.345 43.5391 907.782 43.75C907.226 43.9551 906.953 44.2598 906.965 44.6641C906.947 45.4961 908.055 45.9121 910.287 45.9121C912.485 45.9121 913.592 45.4961 913.61 44.6641C913.604 44.2598 913.319 43.9551 912.757 43.75C912.194 43.5391 911.371 43.4336 910.287 43.4336Z" fill="#14303F"/>
<path d="M931.135 33.7305C931.135 34.5273 931.36 35.3066 931.812 36.0684C932.269 36.8301 932.928 37.4922 933.789 38.0547C934.656 38.6172 935.67 38.998 936.83 39.1973L935.846 41.0605C934.475 40.791 933.279 40.29 932.26 39.5576C931.246 38.8252 930.476 37.9346 929.948 36.8857C929.409 37.9287 928.63 38.8164 927.61 39.5488C926.597 40.2812 925.41 40.7852 924.051 41.0605L923.084 39.1973C924.227 38.9922 925.226 38.6084 926.081 38.0459C926.937 37.4834 927.593 36.8213 928.05 36.0596C928.507 35.292 928.738 34.5156 928.744 33.7305V32.5703H931.135V33.7305ZM937.358 45.6484H922.715V43.8027H937.358V45.6484Z" fill="#14303F"/>
<path d="M951.367 34.8906C951.367 35.916 951.356 36.7861 951.332 37.501C951.309 38.21 951.241 39.0186 951.13 39.9268C951.025 40.835 950.858 41.8281 950.629 42.9062L948.397 42.6953C948.672 41.541 948.874 40.3457 949.003 39.1094L939.731 39.5664L939.449 37.7734L949.117 37.4219C949.135 37.1055 949.147 36.7334 949.152 36.3057C949.158 35.8779 949.164 35.5469 949.17 35.3125V34.8906V34.8203H939.942V33.0273H951.367V34.8906ZM952.861 45.7012H938.272V43.873H952.861V45.7012Z" fill="#14303F"/>
<path d="M967.223 40.5508H964.973V31.6387H967.223V40.5508ZM962.072 37.1055H956.869V38.4326C958.41 38.4209 959.664 38.3887 960.631 38.3359C961.604 38.2832 962.588 38.1719 963.584 38.002L963.865 39.7949C962.723 39.9883 961.583 40.1172 960.446 40.1816C959.316 40.2402 957.86 40.2695 956.078 40.2695H954.672V35.4004H959.84V34.1348H954.654V32.3418H962.072V37.1055ZM958.75 42.5898H964.99V41.2188H967.223V47.4414H956.518V41.2188H958.75V42.5898ZM964.99 45.6484V44.3301H958.75V45.6484H964.99Z" fill="#14303F"/>
<path d="M982.428 41.6582H971.108V32.7988H982.305V34.6094H973.393V36.2969H981.936V38.0547H973.393V39.8828H982.428V41.6582ZM984.027 45.7539H969.385V43.9258H984.027V45.7539Z" fill="#14303F"/>
<path d="M1003.68 43.0293H997.475V47.6348H995.26V43.0293H989.09V41.2012H1003.68V43.0293ZM1002.34 35.2246H997.545C997.633 35.7168 997.897 36.1973 998.336 36.666C998.776 37.1348 999.385 37.542 1000.16 37.8877C1000.94 38.2334 1001.86 38.4648 1002.91 38.582L1002.1 40.3398C1000.78 40.1875 999.631 39.8594 998.652 39.3555C997.68 38.8516 996.924 38.2217 996.385 37.4658C995.852 38.2217 995.093 38.8516 994.109 39.3555C993.13 39.8594 991.973 40.1875 990.637 40.3398L989.828 38.582C990.877 38.4648 991.791 38.2334 992.57 37.8877C993.356 37.542 993.971 37.1348 994.416 36.666C994.861 36.1973 995.131 35.7168 995.225 35.2246H990.408V33.4668H995.26V31.6387H997.475V33.4668H1002.34V35.2246Z" fill="#14303F"/>
<path d="M1017.27 37.7559H1019.54V39.6016H1017.27V47.582H1015.02V31.6211H1017.27V37.7559ZM1013 33.2559C1012.98 35.8047 1012.41 38.0576 1011.27 40.0146C1010.14 41.9658 1008.3 43.5684 1005.74 44.8223L1004.47 43.0996C1006.38 42.1445 1007.84 41.0137 1008.86 39.707C1009.88 38.4004 1010.5 36.8594 1010.71 35.084H1005.38V33.2559H1013Z" fill="#14303F"/>
<path d="M1092.85 43.7148H1085.17V33.1328H1092.85V43.7148ZM1087.38 41.9395H1090.62V34.8906H1087.38V41.9395ZM1097.28 37.6504H1099.63V39.5137H1097.28V47.6172H1095.03V31.6211H1097.28V37.6504Z" fill="#14303F"/>
<path d="M1114.84 42.3613H1108.58V47.5996H1106.37V42.3613H1100.2V40.5684H1114.84V42.3613ZM1113.08 38.8457H1101.92V32.3945H1113.08V38.8457ZM1104.13 37.0879H1110.85V34.1699H1104.13V37.0879Z" fill="#14303F"/>
<path d="M1129.18 47.6523H1126.95V31.6211H1129.18V47.6523ZM1124.22 39.127H1118.95V42.0625C1120.21 42.0566 1121.37 42.0127 1122.46 41.9307C1123.55 41.8486 1124.66 41.7168 1125.81 41.5352L1126 43.3457C1124.76 43.5625 1123.52 43.7119 1122.29 43.7939C1121.06 43.8701 1119.65 43.9082 1118.07 43.9082H1116.63V37.3516H1121.94V34.7676H1116.61V32.957H1124.22V39.127Z" fill="#14303F"/>
<path d="M1144.11 39.3203H1136.28V32.5879H1144.11V39.3203ZM1138.5 37.5625H1141.87V34.3281H1138.5V37.5625ZM1148.85 40.6914H1146.62V31.6211H1148.85V40.6914ZM1149.13 43.2402H1144.65C1144.74 43.6211 1144.99 43.9961 1145.4 44.3652C1145.81 44.7344 1146.39 45.0566 1147.13 45.332C1147.87 45.6074 1148.75 45.7949 1149.75 45.8945L1148.99 47.582C1147.7 47.4648 1146.58 47.1865 1145.63 46.7471C1144.69 46.3076 1143.97 45.7627 1143.46 45.1123C1142.96 45.7686 1142.23 46.3135 1141.28 46.7471C1140.33 47.1807 1139.21 47.459 1137.9 47.582L1137.13 45.8945C1138.15 45.8125 1139.03 45.6367 1139.77 45.3672C1140.52 45.0918 1141.1 44.7666 1141.51 44.3916C1141.93 44.0166 1142.18 43.6328 1142.26 43.2402H1137.78V41.5703H1142.33V40.252H1144.58V41.5703H1149.13V43.2402Z" fill="#14303F"/>
<path d="M1163.67 32.8691C1163.67 33.5137 1163.89 34.1494 1164.32 34.7764C1164.75 35.3975 1165.39 35.9365 1166.24 36.3936C1167.08 36.8506 1168.09 37.1523 1169.26 37.2988L1168.38 39.1094C1167.01 38.9102 1165.82 38.5117 1164.8 37.9141C1163.8 37.3105 1163.02 36.5664 1162.48 35.6816C1161.95 36.5664 1161.18 37.3105 1160.18 37.9141C1159.18 38.5117 1158 38.9102 1156.64 39.1094L1155.74 37.2988C1156.9 37.1523 1157.9 36.8506 1158.75 36.3936C1159.59 35.9365 1160.23 35.3975 1160.66 34.7764C1161.1 34.1494 1161.31 33.5137 1161.31 32.8691V32.0957H1163.67V32.8691ZM1169.77 42.1504H1163.55V47.6172H1161.33V42.1504H1155.18V40.3223H1169.77V42.1504Z" fill="#14303F"/>
<path d="M1184.22 41.1133H1181.99V37.334H1179.49V35.5234H1181.99V31.6211H1184.22V41.1133ZM1178.75 41.4648C1179.89 41.4707 1180.87 41.5967 1181.69 41.8428C1182.51 42.083 1183.15 42.4346 1183.59 42.8975C1184.04 43.3604 1184.27 43.9141 1184.27 44.5586C1184.27 45.1973 1184.04 45.748 1183.59 46.2109C1183.15 46.6738 1182.51 47.0254 1181.69 47.2656C1180.86 47.5117 1179.88 47.6348 1178.75 47.6348C1177.62 47.6348 1176.64 47.5117 1175.82 47.2656C1174.99 47.0254 1174.35 46.6738 1173.91 46.2109C1173.47 45.748 1173.25 45.1973 1173.25 44.5586C1173.25 43.9141 1173.47 43.3604 1173.91 42.8975C1174.35 42.4346 1174.99 42.083 1175.81 41.8428C1176.63 41.5967 1177.62 41.4707 1178.75 41.4648ZM1178.75 43.1875C1176.57 43.1875 1175.48 43.6445 1175.48 44.5586C1175.48 45.0156 1175.76 45.3584 1176.31 45.5869C1176.87 45.8154 1177.68 45.9297 1178.75 45.9297C1179.82 45.9297 1180.64 45.8154 1181.2 45.5869C1181.76 45.3525 1182.04 45.0098 1182.04 44.5586C1182.04 43.6445 1180.94 43.1875 1178.75 43.1875ZM1179.96 34.3809H1176.78C1176.8 35.0254 1176.94 35.6465 1177.21 36.2441C1177.49 36.8359 1177.9 37.3691 1178.44 37.8438C1178.98 38.3184 1179.65 38.6875 1180.46 38.9512L1179.35 40.709C1178.49 40.4336 1177.76 40.0234 1177.13 39.4785C1176.52 38.9277 1176.03 38.2803 1175.68 37.5361C1175.31 38.3799 1174.8 39.1123 1174.15 39.7334C1173.5 40.3486 1172.71 40.8145 1171.79 41.1309L1170.63 39.3555C1171.47 39.0742 1172.18 38.6758 1172.75 38.1602C1173.32 37.6387 1173.75 37.0527 1174.03 36.4023C1174.32 35.752 1174.47 35.0781 1174.5 34.3809H1171.28V32.5879H1179.96V34.3809Z" fill="#14303F"/>
<path d="M31 8C31 12.4183 27.4183 16 23 16C18.5817 16 15 12.4183 15 8C15 3.58172 18.5817 0 23 0C27.4183 0 31 3.58172 31 8Z" fill="#E9EBEF"/>
<path fill-rule="evenodd" clip-rule="evenodd" d="M23 15C26.866 15 30 11.866 30 8C30 4.13401 26.866 1 23 1C19.134 1 16 4.13401 16 8C16 11.866 19.134 15 23 15ZM23 16C27.4183 16 31 12.4183 31 8C31 3.58172 27.4183 0 23 0C18.5817 0 15 3.58172 15 8C15 12.4183 18.5817 16 23 16Z" fill="#677593"/>
<path d="M211 8C211 12.4183 207.418 16 203 16C198.582 16 195 12.4183 195 8C195 3.58172 198.582 0 203 0C207.418 0 211 3.58172 211 8Z" fill="#E9EBEF"/>
<path fill-rule="evenodd" clip-rule="evenodd" d="M203 15C206.866 15 210 11.866 210 8C210 4.13401 206.866 1 203 1C199.134 1 196 4.13401 196 8C196 11.866 199.134 15 203 15ZM203 16C207.418 16 211 12.4183 211 8C211 3.58172 207.418 0 203 0C198.582 0 195 3.58172 195 8C195 12.4183 198.582 16 203 16Z" fill="#677593"/>
<path d="M441 8C441 12.4183 437.418 16 433 16C428.582 16 425 12.4183 425 8C425 3.58172 428.582 0 433 0C437.418 0 441 3.58172 441 8Z" fill="#E9EBEF"/>
<path fill-rule="evenodd" clip-rule="evenodd" d="M433 15C436.866 15 440 11.866 440 8C440 4.13401 436.866 1 433 1C429.134 1 426 4.13401 426 8C426 11.866 429.134 15 433 15ZM433 16C437.418 16 441 12.4183 441 8C441 3.58172 437.418 0 433 0C428.582 0 425 3.58172 425 8C425 12.4183 428.582 16 433 16Z" fill="#677593"/>
<path d="M645 8C645 12.4183 641.418 16 637 16C632.582 16 629 12.4183 629 8C629 3.58172 632.582 0 637 0C641.418 0 645 3.58172 645 8Z" fill="#E9EBEF"/>
<path fill-rule="evenodd" clip-rule="evenodd" d="M637 15C640.866 15 644 11.866 644 8C644 4.13401 640.866 1 637 1C633.134 1 630 4.13401 630 8C630 11.866 633.134 15 637 15ZM637 16C641.418 16 645 12.4183 645 8C645 3.58172 641.418 0 637 0C632.582 0 629 3.58172 629 8C629 12.4183 632.582 16 637 16Z" fill="#677593"/>
<path d="M887 8C887 12.4183 883.418 16 879 16C874.582 16 871 12.4183 871 8C871 3.58172 874.582 0 879 0C883.418 0 887 3.58172 887 8Z" fill="#E9EBEF"/>
<path fill-rule="evenodd" clip-rule="evenodd" d="M879 15C882.866 15 886 11.866 886 8C886 4.13401 882.866 1 879 1C875.134 1 872 4.13401 872 8C872 11.866 875.134 15 879 15ZM879 16C883.418 16 887 12.4183 887 8C887 3.58172 883.418 0 879 0C874.582 0 871 3.58172 871 8C871 12.4183 874.582 16 879 16Z" fill="#677593"/>
<path d="M1142 8C1142 12.4183 1138.42 16 1134 16C1129.58 16 1126 12.4183 1126 8C1126 3.58172 1129.58 0 1134 0C1138.42 0 1142 3.58172 1142 8Z" fill="#E9EBEF"/>
<path fill-rule="evenodd" clip-rule="evenodd" d="M1134 15C1137.87 15 1141 11.866 1141 8C1141 4.13401 1137.87 1 1134 1C1130.13 1 1127 4.13401 1127 8C1127 11.866 1130.13 15 1134 15ZM1134 16C1138.42 16 1142 12.4183 1142 8C1142 3.58172 1138.42 0 1134 0C1129.58 0 1126 3.58172 1126 8C1126 12.4183 1129.58 16 1134 16Z" fill="#677593"/>
</svg>
