<svg width="590" height="109" viewBox="0 0 590 109" fill="none" xmlns="http://www.w3.org/2000/svg">
<path d="M202 0H387V109H202V0Z" fill="#01C2C1"/>
<path fill-rule="evenodd" clip-rule="evenodd" d="M386 1H203V108H386V1ZM202 0V109H387V0H202Z" fill="black"/>
<path d="M0 0H185V109H0V0Z" fill="#FFB800"/>
<path fill-rule="evenodd" clip-rule="evenodd" d="M184 1H1V108H184V1ZM0 0V109H185V0H0Z" fill="black"/>
<path d="M405 0H590V109H405V0Z" fill="#ED5029"/>
<path fill-rule="evenodd" clip-rule="evenodd" d="M589 1H406V108H589V1ZM405 0V109H590V0H405Z" fill="black"/>
<path d="M52.7498 66.042L53.6318 61.905H51.0068L50.1038 66.042H47.1638L48.0668 61.905H45.8408V59.385H48.6128L49.3268 56.088H46.6598V53.568H49.8518L50.7758 49.431H53.7158L52.8128 53.568H55.4378L56.3618 49.431H59.2808L58.3778 53.568H60.6248V56.088H57.8528L57.1178 59.385H59.8058V61.905H56.5718L55.6898 66.042H52.7498ZM52.2668 56.088L51.5528 59.385H54.1778L54.9128 56.088H52.2668Z" fill="white"/>
<path d="M62.4669 66.042V49.431H72.6519V52.308H65.9109V56.319H71.9169V59.196H65.9109V66.042H62.4669Z" fill="white"/>
<path d="M74.423 66.042V49.431H84.608V52.308H77.867V56.319H83.873V59.196H77.867V66.042H74.423Z" fill="white"/>
<path d="M93.099 66.042H86.358V49.431H92.742C96.27 49.431 98.055 50.985 98.055 53.967C98.055 55.71 97.173 56.886 95.682 57.39C97.446 57.873 98.538 59.322 98.538 61.254C98.538 64.383 96.711 66.042 93.099 66.042ZM95.073 61.065C95.073 59.49 94.275 58.902 92.574 58.902H89.823V63.249H92.574C94.275 63.249 95.073 62.64 95.073 61.065ZM94.653 54.198C94.653 52.728 93.813 52.245 92.196 52.245H89.823V56.151H92.196C93.813 56.151 94.653 55.689 94.653 54.198Z" fill="white"/>
<path d="M105.802 66.336C102.316 66.336 99.9644 64.404 99.9644 61.338C99.9644 59.259 101.077 57.873 102.883 57.222C101.455 56.676 100.468 55.269 100.468 53.589C100.468 51.027 102.463 49.137 105.802 49.137C109.12 49.137 111.115 51.027 111.115 53.589C111.115 55.269 110.149 56.676 108.7 57.222C110.506 57.873 111.619 59.259 111.619 61.338C111.619 64.404 109.267 66.336 105.802 66.336ZM103.765 53.883C103.765 55.143 104.542 55.92 105.802 55.92C107.041 55.92 107.839 55.143 107.839 53.883C107.839 52.644 107.041 51.867 105.802 51.867C104.542 51.867 103.765 52.644 103.765 53.883ZM103.324 61.065C103.324 62.661 104.311 63.606 105.802 63.606C107.272 63.606 108.259 62.661 108.259 61.065C108.259 59.469 107.272 58.524 105.802 58.524C104.311 58.524 103.324 59.469 103.324 61.065Z" fill="white"/>
<path d="M124.722 57.726C124.722 61.317 124.155 63.396 122.979 64.761C122.076 65.811 120.732 66.336 118.989 66.336C117.246 66.336 115.902 65.811 114.999 64.761C113.802 63.396 113.256 61.317 113.256 57.726C113.256 54.156 113.802 52.077 114.999 50.712C115.902 49.662 117.246 49.137 118.989 49.137C120.732 49.137 122.076 49.662 122.979 50.712C124.155 52.077 124.722 54.156 124.722 57.726ZM116.616 57.726C116.616 60.54 116.784 61.989 117.33 62.787C117.729 63.354 118.254 63.606 118.989 63.606C119.703 63.606 120.228 63.354 120.648 62.787C121.194 61.989 121.362 60.54 121.362 57.726C121.362 54.933 121.194 53.484 120.648 52.686C120.228 52.119 119.703 51.867 118.989 51.867C118.254 51.867 117.729 52.119 117.33 52.686C116.784 53.484 116.616 54.933 116.616 57.726Z" fill="white"/>
<path d="M137.908 57.726C137.908 61.317 137.341 63.396 136.165 64.761C135.262 65.811 133.918 66.336 132.175 66.336C130.432 66.336 129.088 65.811 128.185 64.761C126.988 63.396 126.442 61.317 126.442 57.726C126.442 54.156 126.988 52.077 128.185 50.712C129.088 49.662 130.432 49.137 132.175 49.137C133.918 49.137 135.262 49.662 136.165 50.712C137.341 52.077 137.908 54.156 137.908 57.726ZM129.802 57.726C129.802 60.54 129.97 61.989 130.516 62.787C130.915 63.354 131.44 63.606 132.175 63.606C132.889 63.606 133.414 63.354 133.834 62.787C134.38 61.989 134.548 60.54 134.548 57.726C134.548 54.933 134.38 53.484 133.834 52.686C133.414 52.119 132.889 51.867 132.175 51.867C131.44 51.867 130.915 52.119 130.516 52.686C129.97 53.484 129.802 54.933 129.802 57.726Z" fill="white"/>
<path d="M252.738 66.042L253.62 61.905H250.995L250.092 66.042H247.152L248.055 61.905H245.829V59.385H248.601L249.315 56.088H246.648V53.568H249.84L250.764 49.431H253.704L252.801 53.568H255.426L256.35 49.431H259.269L258.366 53.568H260.613V56.088H257.841L257.106 59.385H259.794V61.905H256.56L255.678 66.042H252.738ZM252.255 56.088L251.541 59.385H254.166L254.901 56.088H252.255Z" fill="white"/>
<path d="M273.543 57.726C273.543 61.317 272.976 63.396 271.8 64.761C270.897 65.811 269.553 66.336 267.81 66.336C266.067 66.336 264.723 65.811 263.82 64.761C262.623 63.396 262.077 61.317 262.077 57.726C262.077 54.156 262.623 52.077 263.82 50.712C264.723 49.662 266.067 49.137 267.81 49.137C269.553 49.137 270.897 49.662 271.8 50.712C272.976 52.077 273.543 54.156 273.543 57.726ZM265.437 57.726C265.437 60.54 265.605 61.989 266.151 62.787C266.55 63.354 267.075 63.606 267.81 63.606C268.524 63.606 269.049 63.354 269.469 62.787C270.015 61.989 270.183 60.54 270.183 57.726C270.183 54.933 270.015 53.484 269.469 52.686C269.049 52.119 268.524 51.867 267.81 51.867C267.075 51.867 266.55 52.119 266.151 52.686C265.605 53.484 265.437 54.933 265.437 57.726Z" fill="white"/>
<path d="M283.936 66.042H280.576V52.644L277.006 54.261V51.279L281.059 49.431H283.936V66.042Z" fill="white"/>
<path d="M288.471 57.726C288.471 55.269 288.828 53.022 290.067 51.384C291.138 49.956 292.734 49.137 295.17 49.137C299.118 49.137 301.47 51.447 301.68 55.101H298.236C298.11 53.19 297.06 52.035 295.17 52.035C294.078 52.035 293.28 52.434 292.776 53.19C292.188 54.051 291.936 55.29 291.936 57.726C291.936 60.183 292.188 61.422 292.776 62.283C293.28 63.039 294.078 63.438 295.17 63.438C297.06 63.438 298.11 62.283 298.236 60.372H301.68C301.47 64.026 299.118 66.336 295.17 66.336C292.734 66.336 291.138 65.517 290.067 64.089C288.828 62.451 288.471 60.204 288.471 57.726Z" fill="white"/>
<path d="M314.363 54.156C314.363 55.857 313.964 56.781 312.704 58.23L308.273 63.333H314.615V66.042H303.947V63.564L309.932 56.655C310.709 55.752 311.003 55.08 311.003 54.156C311.003 52.728 310.31 51.867 309.05 51.867C307.79 51.867 307.076 52.707 307.076 54.156V54.765H303.716V54.156C303.716 51.405 305.606 49.137 309.05 49.137C312.494 49.137 314.363 51.405 314.363 54.156Z" fill="white"/>
<path d="M316.566 57.726C316.566 55.269 316.923 53.022 318.162 51.384C319.233 49.956 320.829 49.137 323.265 49.137C327.213 49.137 329.565 51.447 329.775 55.101H326.331C326.205 53.19 325.155 52.035 323.265 52.035C322.173 52.035 321.375 52.434 320.871 53.19C320.283 54.051 320.031 55.29 320.031 57.726C320.031 60.183 320.283 61.422 320.871 62.283C321.375 63.039 322.173 63.438 323.265 63.438C325.155 63.438 326.205 62.283 326.331 60.372H329.775C329.565 64.026 327.213 66.336 323.265 66.336C320.829 66.336 319.233 65.517 318.162 64.089C316.923 62.451 316.566 60.204 316.566 57.726Z" fill="white"/>
<path d="M340.128 66.042H336.768V52.644L333.198 54.261V51.279L337.251 49.431H340.128V66.042Z" fill="white"/>
<path d="M456.999 66.042L457.881 61.905H455.256L454.353 66.042H451.413L452.316 61.905H450.09V59.385H452.862L453.576 56.088H450.909V53.568H454.101L455.025 49.431H457.965L457.062 53.568H459.687L460.611 49.431H463.53L462.627 53.568H464.874V56.088H462.102L461.367 59.385H464.055V61.905H460.821L459.939 66.042H456.999ZM456.516 56.088L455.802 59.385H458.427L459.162 56.088H456.516Z" fill="white"/>
<path d="M466.716 66.042V49.431H477.027V52.308H470.16V56.088H476.166V58.965H470.16V63.165H477.132V66.042H466.716Z" fill="white"/>
<path d="M488.425 57.726C488.425 53.463 487.459 52.266 485.128 52.266H482.608V63.228H485.128C487.459 63.228 488.425 62.01 488.425 57.726ZM485.338 66.042H479.143V49.431H485.338C490.798 49.431 491.869 53.295 491.869 57.726C491.869 62.199 490.798 66.042 485.338 66.042Z" fill="white"/>
<path d="M499.409 57.894C498.611 57.894 498.065 58.293 497.75 58.839H494.558L494.978 49.431H503.987V52.14H498.086L497.876 56.319C498.317 55.668 499.178 55.269 500.312 55.269C502.958 55.269 504.848 57.054 504.848 60.813C504.848 64.257 502.853 66.336 499.409 66.336C496.112 66.336 494.159 64.446 493.991 61.422H497.351C497.477 62.871 498.212 63.606 499.409 63.606C500.732 63.606 501.509 62.703 501.509 60.75C501.509 58.986 500.879 57.894 499.409 57.894Z" fill="white"/>
<path d="M518.286 57.726C518.286 61.317 517.719 63.396 516.543 64.761C515.64 65.811 514.296 66.336 512.553 66.336C510.81 66.336 509.466 65.811 508.563 64.761C507.366 63.396 506.82 61.317 506.82 57.726C506.82 54.156 507.366 52.077 508.563 50.712C509.466 49.662 510.81 49.137 512.553 49.137C514.296 49.137 515.64 49.662 516.543 50.712C517.719 52.077 518.286 54.156 518.286 57.726ZM510.18 57.726C510.18 60.54 510.348 61.989 510.894 62.787C511.293 63.354 511.818 63.606 512.553 63.606C513.267 63.606 513.792 63.354 514.212 62.787C514.758 61.989 514.926 60.54 514.926 57.726C514.926 54.933 514.758 53.484 514.212 52.686C513.792 52.119 513.267 51.867 512.553 51.867C511.818 51.867 511.293 52.119 510.894 52.686C510.348 53.484 510.18 54.933 510.18 57.726Z" fill="white"/>
<path d="M531.011 54.156C531.011 55.857 530.612 56.781 529.352 58.23L524.921 63.333H531.263V66.042H520.595V63.564L526.58 56.655C527.357 55.752 527.651 55.08 527.651 54.156C527.651 52.728 526.958 51.867 525.698 51.867C524.438 51.867 523.724 52.707 523.724 54.156V54.765H520.364V54.156C520.364 51.405 522.254 49.137 525.698 49.137C529.142 49.137 531.011 51.405 531.011 54.156Z" fill="white"/>
<path d="M533.634 61.989H537.015C537.141 63.102 537.708 63.711 538.8 63.711C540.354 63.711 540.984 62.262 541.047 58.776C540.543 59.658 539.493 60.204 538.149 60.204C535.419 60.204 533.319 58.188 533.319 54.702C533.319 51.258 535.545 49.137 538.821 49.137C540.711 49.137 542.328 49.851 543.315 51.426C544.239 52.875 544.428 54.849 544.428 57.243C544.428 63.732 542.706 66.336 538.758 66.336C535.86 66.336 533.928 64.761 533.634 61.989ZM541.047 54.723C541.047 52.896 540.228 51.867 538.863 51.867C537.477 51.867 536.658 52.896 536.658 54.723C536.658 56.55 537.477 57.579 538.863 57.579C540.228 57.579 541.047 56.55 541.047 54.723Z" fill="white"/>
</svg>
