<svg width="251" height="232" viewBox="0 0 251 232" fill="none" xmlns="http://www.w3.org/2000/svg">
<g clip-path="url(#clip0_235_647)">
<path d="M251 0H0V232.281H251V0Z" fill="#FA9F9F"/>
<path d="M158.091 82.7883C150.575 78.9339 150.127 67.2638 150.843 61.9105C150.843 58.6985 152.454 50.6151 158.896 43.977C166.95 35.6794 186.545 40.4973 195.135 42.6387C203.725 44.78 215.268 63.5165 203.994 77.435C192.719 91.3536 167.486 87.6063 158.091 82.7883Z" fill="#70573A"/>
<path d="M149.258 28.145C147.376 29.4894 148.989 48.0413 151.947 57.1829C163.777 52.2357 169.602 43.2913 171.036 39.4375C166.197 35.1356 151.14 26.8007 149.258 28.145Z" fill="#333333"/>
<path d="M227.497 35.2593C225.346 35.2593 210.021 34.9904 197.653 44.6697C197.653 49.832 203.926 56.6792 207.063 59.4575C223.195 53.0046 229.648 35.2593 227.497 35.2593Z" fill="#333333"/>
<path d="M165.388 93.8726C160.656 90.0009 158.667 83.3867 161.355 79.0848C165.388 72.632 169.421 70.212 180.714 73.4385C192.006 76.6649 193.082 87.1509 187.705 92.5283C181.521 98.7122 171.304 98.7122 165.388 93.8726Z" fill="white"/>
<path d="M168.884 92.2593C171.483 92.5281 177.272 93.0659 179.638 93.0659" stroke="black"/>
<path d="M171.841 61.0708C169.421 63.7594 168.077 59.9952 164.851 57.3065C162.162 55.9622 160.28 57.8443 157.86 57.3065C155.44 56.7688 165.388 49.7783 170.228 51.3915C173.835 52.594 174.261 58.3821 171.841 61.0708Z" fill="#FCD13A"/>
<path d="M184.209 54.8866C181.52 56.7687 182.058 62.4149 184.209 64.8347C187.436 67.2545 186.091 61.0706 188.511 58.9196C190.931 56.7687 197.921 58.6507 195.502 57.0375C193.082 55.4243 186.898 53.0045 184.209 54.8866Z" fill="#FCD13A"/>
<path d="M167.539 80.6983C167.539 85.0002 171.483 87.2408 173.454 88.2266C176.681 88.2266 181.252 86.6134 182.058 82.0426C182.865 77.4718 179.638 75.8586 175.874 75.5898C172.11 75.3209 167.539 75.3209 167.539 80.6983Z" fill="#6C6C6C"/>
<path d="M172.648 81.5047C172.863 80.2141 172.02 79.3537 171.572 79.0849C168.615 78.816 168.884 81.7736 169.421 82.3113C169.959 82.849 172.379 83.1179 172.648 81.5047Z" fill="#3E3E3E"/>
<path d="M180.983 82.0425C181.252 80.6981 179.37 79.6226 178.294 79.3538C175.605 79.3538 176.681 83.1179 177.756 83.1179C178.832 83.1179 180.714 83.3868 180.983 82.0425Z" fill="#3E3E3E"/>
<path d="M162.431 58.9195C166.195 59.7261 165.926 63.4902 165.657 64.028C160.28 67.0393 158.398 63.1318 158.129 60.8016C158.308 59.9053 159.419 58.2742 162.431 58.9195Z" fill="#202020"/>
<path d="M192.006 61.3395C188.995 61.7697 188.063 64.7452 187.973 66.1792C188.69 67.0754 190.823 68.7603 193.62 68.3301C196.416 67.8999 196.756 65.1037 196.577 63.7593C196.308 62.7735 195.018 60.9093 192.006 61.3395Z" fill="#202020"/>
<path d="M47.6414 194.764C40.1252 190.91 39.6778 179.239 40.3936 173.886C40.3936 170.674 42.0042 162.591 48.4467 155.953C56.4998 147.655 76.0957 152.473 84.6857 154.614C93.2756 156.756 104.818 175.492 93.5441 189.411C82.2697 203.329 57.0367 199.582 47.6414 194.764Z" fill="#70573A"/>
<path d="M38.8083 140.12C36.9263 141.464 38.5395 160.016 41.497 169.158C53.3273 164.211 59.1528 155.266 60.5867 151.413C55.7471 147.111 40.6904 138.776 38.8083 140.12Z" fill="#333333"/>
<path d="M117.047 147.235C114.897 147.235 99.5711 146.966 87.2031 156.645C87.2031 161.808 93.4767 168.655 96.6135 171.433C112.746 164.98 119.198 147.235 117.047 147.235Z" fill="#333333"/>
<path d="M54.9388 205.848C50.2067 201.976 48.2171 195.362 50.9058 191.06C54.9388 184.608 58.9719 182.188 70.2644 185.414C81.5569 188.64 82.6323 199.126 77.255 204.504C71.071 210.688 60.8539 210.688 54.9388 205.848Z" fill="white"/>
<path d="M58.4341 204.235C61.0331 204.504 66.8228 205.042 69.1888 205.042" stroke="black"/>
<path d="M61.3913 173.046C58.9715 175.735 57.6273 171.971 54.4009 169.282C51.7122 167.938 49.8301 169.82 47.4103 169.282C44.9905 168.744 54.9386 161.754 59.7781 163.367C63.3854 164.57 63.8112 170.358 61.3913 173.046Z" fill="#FCD13A"/>
<path d="M73.7594 166.862C71.0707 168.744 71.6085 174.391 73.7594 176.81C76.9859 179.23 75.6415 173.046 78.0613 170.895C80.4811 168.744 87.4717 170.626 85.0519 169.013C82.632 167.4 76.4481 164.98 73.7594 166.862Z" fill="#FCD13A"/>
<path d="M57.0896 192.674C57.0896 196.975 61.033 199.216 63.0047 200.202C66.2312 200.202 70.8019 198.589 71.6086 194.018C72.4152 189.447 69.1887 187.834 65.4246 187.565C61.6604 187.296 57.0896 187.296 57.0896 192.674Z" fill="#6C6C6C"/>
<path d="M62.1983 193.48C62.4134 192.19 61.571 191.329 61.1228 191.06C58.1653 190.792 58.4342 193.749 58.9719 194.287C59.5096 194.825 61.9295 195.093 62.1983 193.48Z" fill="#3E3E3E"/>
<path d="M70.5331 194.018C70.802 192.674 68.9199 191.598 67.8445 191.329C65.1558 191.329 66.2312 195.094 67.3067 195.094C68.3822 195.094 70.2643 195.362 70.5331 194.018Z" fill="#3E3E3E"/>
<path d="M51.9811 170.895C55.7453 171.702 55.4764 175.466 55.2076 176.004C49.8302 179.015 47.9481 175.108 47.6792 172.777C47.8585 171.881 48.9698 170.25 51.9811 170.895Z" fill="#202020"/>
<path d="M81.5569 173.315C78.5456 173.745 77.6135 176.721 77.5239 178.155C78.2409 179.051 80.3739 180.736 83.1702 180.306C85.9664 179.876 86.307 177.079 86.1277 175.735C85.8588 174.749 84.5683 172.885 81.5569 173.315Z" fill="#202020"/>
</g>
<defs>
<clipPath id="clip0_235_647">
<rect width="251" height="232" fill="white"/>
</clipPath>
</defs>
</svg>
