<svg width="55" height="80" viewBox="0 0 55 80" fill="none" xmlns="http://www.w3.org/2000/svg">
<path d="M27.5063 40C27.5063 32.5533 33.5412 26.506 41.0003 26.506C48.447 26.506 54.4943 32.5408 54.4943 40C54.4943 47.4592 48.4595 53.494 41.0003 53.494C33.5412 53.494 27.5063 47.4592 27.5063 40Z" fill="#14303F"/>
<path d="M0 66.747C0 59.4333 6.03481 53.494 13.494 53.494H26.988V66.747C26.988 74.0607 20.9531 80 13.494 80C6.03481 80 0 74.0729 0 66.747Z" fill="#14303F"/>
<path d="M27.5063 0.0124914V26.988H41.0003C48.447 26.988 54.4943 20.9531 54.4943 13.494C54.4943 6.03481 48.4595 0 41.0003 0H27.5063V0.0124914Z" fill="#14303F"/>
<path d="M0 13.4877C0 20.9378 6.03481 26.988 13.494 26.988H26.988V0H13.494C6.03481 0 0 6.0376 0 13.4877Z" fill="#14303F"/>
<path d="M0 40.2348C0 47.5519 6.03481 53.494 13.494 53.494H26.988V26.988H13.494C6.03481 26.988 0 32.9178 0 40.2348Z" fill="#14303F"/>
</svg>
