<svg width="75" height="80" viewBox="0 0 75 80" fill="none" xmlns="http://www.w3.org/2000/svg">
<path d="M0.713497 27.8967C0.713497 27.8967 -1.1131 26.4769 1.07888 24.5812L6.18473 19.657C6.18473 19.657 7.64627 17.9993 9.1913 19.4438L56.3215 57.9178V76.3655C56.3215 76.3655 56.2985 79.2623 52.8506 78.9424L0.713497 27.8967Z" fill="#14303F"/>
<path d="M12.8592 39.7884L0.713875 51.6962C0.713875 51.6962 -0.534189 52.6977 0.713875 54.4867L6.35411 60.0199C6.35411 60.0199 7.69352 61.5692 9.6727 59.8063L22.5499 49.2752L12.8592 39.7884Z" fill="#14303F"/>
<path d="M34.1873 39.8869L56.466 21.5466L56.3213 3.19638C56.3213 3.19638 55.3698 -0.808536 52.196 1.276L22.5493 30.3672L34.1873 39.8869Z" fill="#14303F"/>
<path d="M52.851 78.9672C54.1449 80.3952 55.7129 79.9263 55.7129 79.9263L73.0746 70.7022C75.2984 69.0691 74.985 67.0422 74.985 67.0422V11.9594C74.985 9.53845 72.6866 8.70146 72.6866 8.70146L57.6387 0.881238C54.3505 -1.3099 52.1965 1.2752 52.1965 1.2752C52.1965 1.2752 54.9677 -0.874991 56.3218 3.19558V76.0299C56.3241 76.5265 56.2226 77.0174 56.0249 77.4659C55.6294 78.3276 54.7693 79.1318 52.7063 78.7939L52.851 78.9672Z" fill="#14303F"/>
</svg>
