<svg width="81" height="80" viewBox="0 0 81 80" fill="none" xmlns="http://www.w3.org/2000/svg">
<path d="M65.9193 0H14.6539C6.71907 0 0.286621 6.58479 0.286621 14.7075V65.2925C0.286621 73.4152 6.71907 80 14.6539 80H65.9193C73.8542 80 80.2866 73.4152 80.2866 65.2925V14.7075C80.2866 6.58479 73.8542 0 65.9193 0Z" fill="#14303F"/>
<path d="M29.098 23.5092H21.4431V59.7633H29.098V23.5092Z" fill="white"/>
<path d="M51.4746 20.2368V31.3454H46.804C43.6522 31.3454 40.6295 32.6271 38.4009 34.9085C36.1722 37.19 34.9202 40.2843 34.9202 43.5107V47.598C34.9202 50.8244 36.1722 53.9187 38.4009 56.2001C40.6295 58.4816 43.6522 59.7633 46.804 59.7633H51.4778C51.4778 59.7633 59.0488 59.1652 59.1333 56.8351V20.2368H51.4746ZM51.4746 53.3043H48.6193C47.7681 53.3044 46.9251 53.1328 46.1387 52.7994C45.3522 52.4659 44.6376 51.9772 44.0357 51.361C43.4338 50.7448 42.9563 50.0133 42.6306 49.2082C42.3049 48.4031 42.1373 47.5402 42.1374 46.6688V44.4398C42.1373 43.5684 42.3049 42.7055 42.6306 41.9004C42.9563 41.0952 43.4338 40.3637 44.0357 39.7474C44.6376 39.1312 45.3522 38.6424 46.1386 38.3089C46.9251 37.9754 47.768 37.8037 48.6193 37.8037H51.4746V53.3043Z" fill="white"/>
</svg>
