<svg width="80" height="90" viewBox="0 0 80 90" fill="none" xmlns="http://www.w3.org/2000/svg">
<path fill-rule="evenodd" clip-rule="evenodd" d="M0 0L80 0.125071L72.4031 81.4051L42.8821 90L7.20695 81.345L0 0Z" fill="#14303F"/>
<g clip-path="url(#clip0_64_6513)">
<path d="M18.8155 29.8783C14.1761 36.4975 14.7499 45.1073 18.2975 52.159C18.3794 52.3281 18.4696 52.494 18.5565 52.6599L18.7204 52.977C18.7532 53.0388 18.7893 53.099 18.8237 53.1592C18.8844 53.273 18.9467 53.3771 19.009 53.4877L19.3483 54.0634L19.5417 54.3789L19.9352 54.9888L20.1024 55.2458C20.2877 55.519 20.4762 55.7922 20.6713 56.0589L20.7827 56.2086C20.9517 56.439 21.1244 56.6667 21.3008 56.8916L21.4975 57.1388L21.9762 57.7243L22.1598 57.9422C22.3779 58.1976 22.6024 58.4513 22.827 58.6985C22.85 58.7229 22.8598 58.731 22.8664 58.7407C23.0891 58.9804 23.3154 59.2168 23.5451 59.4498L23.7631 59.6677L24.3041 60.1947L24.5254 60.4061C24.7689 60.6339 25.0165 60.8572 25.2681 61.0761L26.0812 61.7592L26.3599 61.9804L26.9222 62.4162L27.2222 62.6439L27.8533 63.0928L28.1484 63.2993C28.3501 63.4376 28.555 63.5693 28.7615 63.701L29.0271 63.8767C29.3436 64.076 29.6633 64.2701 29.9862 64.4589L30.2517 64.6215L30.9731 65.0216C31.1042 65.0915 31.2386 65.1582 31.3714 65.2249L31.8862 65.49L32.0059 65.5469L32.219 65.6478L33.0354 66.0218L33.2075 66.0982C33.5227 66.2344 33.8402 66.3651 34.16 66.4902L34.3895 66.5813L35.2879 66.9114L35.4026 66.9504C35.7343 67.0637 36.0677 67.1722 36.4026 67.2757L36.6453 67.3473C36.9731 67.4497 37.3272 67.575 37.6781 67.6367C60.1276 71.6977 66.6457 54.2521 66.6457 54.2521C61.1702 61.3299 51.4487 63.1969 42.2191 61.1184C41.8699 61.0404 41.5306 60.933 41.1912 60.8322L40.9355 60.7558C40.6036 60.6546 40.2735 60.5477 39.9453 60.4354L39.8092 60.3866C39.5171 60.2837 39.2263 60.1769 38.9371 60.0662L38.6912 59.9686C38.3743 59.8449 38.06 59.7148 37.7486 59.5783L37.56 59.497L36.7649 59.1294L36.5354 59.0205C36.3289 58.9229 36.1256 58.8139 35.9207 58.6952L35.5108 58.4838C35.2616 58.3537 35.019 58.2138 34.7731 58.0739L34.5239 57.9357C34.2012 57.7466 33.8815 57.5525 33.5649 57.3535C33.478 57.2982 33.3928 57.2396 33.3059 57.1827L32.6239 56.7322C32.5485 56.6834 32.46 56.6281 32.4042 56.5794L31.7583 56.1159L31.4714 55.9012L30.8894 55.4491L30.6304 55.2425L29.9058 54.6359C29.8795 54.613 29.8521 54.5913 29.8239 54.5708L29.0616 53.8829L28.8484 53.678L28.3042 53.1413L28.091 52.9299C27.8615 52.6973 27.6386 52.4631 27.4353 52.2241C27.4238 52.2127 27.4123 52.2013 27.4025 52.1883C27.1704 51.9355 26.943 51.6785 26.7205 51.4174L26.5566 51.206L26.0648 50.6042L25.9009 50.3814L25.3336 49.6333C20.1893 42.7182 18.3499 33.1586 22.4385 25.3197M33.2255 24.3033C29.8681 29.0961 30.0501 35.5249 32.6682 40.5796C33.1069 41.4315 33.6031 42.253 34.1534 43.0386C34.6567 43.7541 35.2141 44.6047 35.8813 45.1788C36.1239 45.4439 36.3764 45.6992 36.6354 45.9546L36.8321 46.1497C37.0827 46.3921 37.3391 46.6285 37.601 46.8588C37.6125 46.8669 37.6207 46.8783 37.6338 46.8864C37.9322 47.1467 38.2338 47.3743 38.5404 47.6313L38.7437 47.7891C39.0512 48.0244 39.365 48.2516 39.6846 48.4705L39.7125 48.49C39.8535 48.5876 39.9978 48.677 40.142 48.7714C40.2109 48.8153 40.2765 48.8624 40.3453 48.9047C40.5745 49.0506 40.8068 49.1916 41.042 49.3276L41.1404 49.3845L41.7568 49.7098C41.8289 49.7504 41.9207 49.7846 41.9765 49.8236L42.4076 50.0448C42.4289 50.0562 42.4519 50.0643 42.4732 50.074C42.7689 50.2201 43.0685 50.3584 43.3716 50.4888L43.5683 50.5701C43.8125 50.6729 44.0584 50.7716 44.306 50.8661L44.6208 50.9799C44.8453 51.0609 45.071 51.1384 45.2978 51.2125L45.6044 51.3101C45.9274 51.4076 46.2602 51.5377 46.5831 51.5914C63.9161 54.4407 67.9178 41.1829 67.9178 41.1829C64.3112 46.3384 57.3275 48.7941 49.8717 46.8751C49.5421 46.789 49.2147 46.6952 48.8897 46.5937C48.7913 46.5644 48.693 46.5319 48.5946 46.4994L47.9061 46.2652L47.5782 46.1514C47.3307 46.0566 47.0848 45.9579 46.8405 45.8554L46.6405 45.774C46.3355 45.6425 46.0338 45.5037 45.7356 45.3577L45.2814 45.13L45.0191 44.9967C44.8263 44.8928 44.635 44.786 44.4454 44.6763L44.3077 44.5998C44.0731 44.4635 43.8414 44.3226 43.6126 44.177C43.5421 44.1331 43.4732 44.0843 43.4027 44.0388L42.9519 43.7428C42.6344 43.5244 42.3228 43.2978 42.0175 43.063L41.8043 42.9003C38.5256 40.3437 35.9551 36.8504 34.7256 32.8919C33.437 28.7854 33.7141 24.1748 35.9469 20.4342M45.3437 20.1366C43.3667 23.0396 43.1699 26.6143 44.5437 29.8051C45.9913 33.1928 48.9585 35.8486 52.4225 37.1236L52.852 37.2862L53.0422 37.3448L53.6603 37.5074C63.2309 39.3419 65.8244 32.6349 66.5178 31.6478C64.244 34.8955 60.4226 35.6746 55.7341 34.5459C55.3636 34.4564 54.957 34.3231 54.5996 34.1978C54.1409 34.0366 53.6911 33.8515 53.252 33.6433C52.4187 33.2457 51.6274 32.7668 50.8897 32.2137C46.6946 29.057 44.088 23.0169 46.8257 18.1119" fill="white"/>
</g>
<defs>
<clipPath id="clip0_64_6513">
<rect width="52.4597" height="52.0424" fill="white" transform="translate(15.3008 17.3475)"/>
</clipPath>
</defs>
</svg>
