<svg width="80" height="80" viewBox="0 0 80 80" fill="none" xmlns="http://www.w3.org/2000/svg">
<path d="M65.6327 0H14.3673C6.43245 0 0 6.58479 0 14.7075V65.2925C0 73.4152 6.43245 80 14.3673 80H65.6327C73.5676 80 80 73.4152 80 65.2925V14.7075C80 6.58479 73.5676 0 65.6327 0Z" fill="#14303F"/>
<path d="M31.3777 20.4951H18.3376V56.0606H25.6575V44.9519H31.3777C34.5454 44.951 37.583 43.6623 39.8226 41.369C42.0622 39.0758 43.3203 35.9659 43.3203 32.7232C43.3229 25.9708 37.9745 20.4951 31.3777 20.4951ZM34.4382 36.8038C33.9151 37.3401 33.2937 37.7654 32.6096 38.0553C31.9256 38.3451 31.1923 38.4939 30.452 38.4929H25.6575V26.9541H30.452C31.566 26.9549 32.6549 27.2935 33.581 27.9274C34.5072 28.5612 35.2291 29.4617 35.6556 30.5153C36.0821 31.5688 36.1941 32.7281 35.9774 33.8468C35.7608 34.9654 35.2251 35.9933 34.4382 36.8005V36.8038Z" fill="white"/>
<path d="M66.1623 48.0863C66.1623 50.4468 65.0868 52.6996 63.3865 54.2737C61.4737 56.0481 58.8173 56.8047 56.2919 57.0016C55.9907 57.0254 55.6877 57.0404 55.383 57.0466C52.5774 57.1054 49.6266 56.4948 47.0767 55.2881L46.9954 55.2498C46.9997 53.1558 47.004 51.0618 47.0083 48.9679C47.0083 49.0822 49.0366 49.5844 49.2884 49.669C51.6033 50.4462 54.3662 51.0284 56.8051 50.7085C57.3215 50.6424 57.8496 50.5103 58.2486 50.1706C59.7533 48.8912 58.2285 47.3006 57.002 46.6906C55.6728 46.0298 54.241 45.6108 52.8828 45.0128C51.5956 44.4458 50.3651 43.7109 49.3426 42.7329C45.9509 39.4981 46.0826 34.0654 49.5395 30.9225C51.4961 29.1435 54.1396 28.5785 56.6915 28.4635C59.3432 28.3478 61.9878 28.8229 64.4426 29.8559C64.5362 29.8955 64.6362 29.9411 64.6879 30.0297C64.7255 30.1098 64.7414 30.1988 64.7337 30.2874L64.7415 36.7015C64.3425 36.3532 63.7983 36.2091 63.3264 35.9977C62.8146 35.7684 62.2917 35.5662 61.7597 35.3917C59.876 34.7738 57.43 34.2022 55.4979 34.8815C54.7878 35.1307 54.2578 35.6494 54.2578 36.455C54.2578 37.7006 55.4508 38.3 56.4255 38.7553C57.634 39.319 58.9219 39.662 60.1265 40.2336C63.2554 41.7185 66.1623 44.2654 66.1623 48.0863Z" fill="white"/>
</svg>
