<svg width="80" height="80" viewBox="0 0 80 80" fill="none" xmlns="http://www.w3.org/2000/svg">
<g clip-path="url(#clip0_64_6494)">
<path d="M65.6327 0H14.3673C6.43245 0 0 6.58479 0 14.7075V65.2925C0 73.4152 6.43245 80 14.3673 80H65.6327C73.5675 80 80 73.4152 80 65.2925V14.7075C80 6.58479 73.5675 0 65.6327 0Z" fill="#14303F"/>
<path d="M61.9472 32.0346H54.6287V59.419H61.9472V32.0346Z" fill="white"/>
<path d="M58.2884 29.1931C60.6115 29.1931 62.4948 27.2652 62.4948 24.8871C62.4948 22.5089 60.6115 20.5811 58.2884 20.5811C55.9653 20.5811 54.082 22.5089 54.082 24.8871C54.082 27.2652 55.9653 29.1931 58.2884 29.1931Z" fill="white"/>
<path d="M38.778 23.3367H29.3485C29.3483 24.9589 29.0733 26.5688 28.5357 28.0947L17.5046 59.4183H25.228L28.0038 50.7878L40.3809 50.696L43.2084 59.419H51.3752L38.778 23.3367ZM30.0341 43.7255L34.0584 29.7158L38.2803 43.7255H30.0341Z" fill="white"/>
</g>
<defs>
<clipPath id="clip0_64_6494">
<rect width="80" height="80" fill="white"/>
</clipPath>
</defs>
</svg>
