<svg width="80" height="90" viewBox="0 0 80 90" fill="none" xmlns="http://www.w3.org/2000/svg">
<path fill-rule="evenodd" clip-rule="evenodd" d="M0 0L7.20937 81.3422L41.5359 90L72.4033 81.4052L80 0.125353L0 0ZM21.703 36.0971H69.5252L67.0627 69.7382L41.4652 77.5346L41.4051 77.3427L41.3677 77.4947L13.1359 71.2228L12.1867 54.6726L22.2268 54.667L22.7378 63.2751L41.3132 67.1562L57.3576 62.268L58.1457 46.061H13.519V45.9986L12.0757 46.061C12.0757 46.0519 12.0757 46.0378 12.0757 46.0196C11.9866 44.5014 9.66056 12.4591 9.66056 12.4591H70.4455L69.1011 22.4209H21.1015L21.703 36.0971Z" fill="#14303F"/>
<path fill-rule="evenodd" clip-rule="evenodd" d="M69.5253 36.097L67.0628 69.7381L41.4653 77.5346L41.4052 77.3427L41.3678 77.4947L13.136 71.2228L12.1868 54.6726L22.2269 54.6669L22.7379 63.2751L41.3133 67.1561L57.3577 62.268L58.1458 46.0609H13.5191V45.9986L12.0758 46.0609C12.0758 46.0518 12.0758 46.0378 12.0758 46.0196C11.9867 44.5014 9.66064 12.459 9.66064 12.459H70.4455L69.1012 22.4208H21.1016L21.7031 36.0949L69.5253 36.097Z" fill="white"/>
</svg>
