<svg width="80" height="79" viewBox="0 0 80 79" fill="none" xmlns="http://www.w3.org/2000/svg">
<path fill-rule="evenodd" clip-rule="evenodd" d="M40.0288 0C17.8922 0 0 17.9255 0 40.1009C0 57.8276 11.4657 72.8327 27.3712 78.1432C29.3631 78.5425 30.0885 77.2807 30.0885 76.2189C30.0885 75.2893 30.0242 72.1025 30.0242 68.7821C18.8887 71.1729 16.5699 64.0019 16.5699 64.0019C14.7805 59.3546 12.1288 58.1599 12.1288 58.1599C8.4838 55.7033 12.3942 55.7033 12.3942 55.7033C16.4369 55.9691 18.5585 59.8197 18.5585 59.8197C22.1367 65.9275 27.9026 64.2019 30.2227 63.142C30.5536 60.5525 31.6151 58.7598 32.7414 57.7644C23.8599 56.8348 14.5158 53.3822 14.5158 37.9791C14.5158 33.5969 16.1053 30.0121 18.624 27.2239C18.2263 26.2279 16.8346 22.1128 19.0224 16.6004C19.0224 16.6004 22.402 15.5379 30.0236 20.7168C36.5766 18.9458 43.4862 18.9458 50.0393 20.7168C57.6614 15.5379 61.0411 16.6004 61.0411 16.6004C63.2257 22.1109 61.8359 26.2279 61.4388 27.2239C64.0237 30.0121 65.5509 33.5969 65.5509 37.9791C65.5509 53.3822 56.2068 56.7677 47.2591 57.7644C48.7176 59.0256 49.9756 61.415 49.9756 65.1998C49.9756 70.5774 49.9114 74.8932 49.9114 76.2208C49.9114 77.2833 50.6407 78.5451 52.6286 78.1471C68.5354 72.8346 79.9999 57.8302 79.9999 40.1034C80.059 17.9255 62.098 0 40.0288 0Z" fill="#14303F"/>
</svg>
