<svg width="54" height="80" viewBox="0 0 54 80" fill="none" xmlns="http://www.w3.org/2000/svg">
<path d="M26.5063 40C26.5063 32.5533 32.5412 26.506 40.0003 26.506C47.447 26.506 53.4943 32.5408 53.4943 40C53.4943 47.4592 47.4595 53.494 40.0003 53.494C32.5412 53.494 26.5063 47.4592 26.5063 40Z" fill="#14303F"/>
<path d="M0 66.747C0 59.4333 6.03481 53.494 13.494 53.494H26.988V66.747C26.988 74.0607 20.9531 80 13.494 80C6.03481 80 0 74.0729 0 66.747Z" fill="#14303F"/>
<path d="M26.5063 0.0124914V26.988H40.0003C47.447 26.988 53.4943 20.9531 53.4943 13.494C53.4943 6.03481 47.4595 0 40.0003 0H26.5063V0.0124914Z" fill="#1A3B4D"/>
<path d="M0 13.4877C0 20.9378 6.03481 26.9879 13.494 26.9879H26.988V0H13.494C6.03481 0 0 6.0376 0 13.4877Z" fill="#14303F"/>
<path d="M0 40.2348C0 47.5519 6.03481 53.494 13.494 53.494H26.988V26.988H13.494C6.03481 26.988 0 32.9178 0 40.2348Z" fill="#1A3B4D"/>
</svg>
