<svg width="80" height="90" viewBox="0 0 80 90" fill="none" xmlns="http://www.w3.org/2000/svg">
<path fill-rule="evenodd" clip-rule="evenodd" d="M0 0L80 0.125071L72.4031 81.4051L42.8821 90L7.20695 81.345L0 0Z" fill="#14303F"/>
<path fill-rule="evenodd" clip-rule="evenodd" d="M24.8373 67.1239L32.8602 68.3802L32.8769 59.6882L32.9086 59.5022L32.8772 59.4982L32.9547 19.0345L23.6512 19.0226L23.5992 58.3236L11.2087 56.7548L12.1184 65.7145L24.8373 67.1239Z" fill="white"/>
<path fill-rule="evenodd" clip-rule="evenodd" d="M66.6645 19.0296L65.4262 28.3177L51.5817 28.2074L51.6149 38.6749H65.4378L64.8433 47.8931L64.7632 47.8933L64.2477 58.7707L64.2779 58.7701L63.9267 67.9834H42.5386L42.6902 59.1516L54.2193 58.9479L54.8113 47.9189L42.2634 47.9511V38.6749H42.3107L42.2773 28.1333L42.2639 28.1332V23.9091L42.2617 23.2337L42.2639 23.2337V19.0296H66.6645Z" fill="white"/>
</svg>
