<svg width="80" height="90" viewBox="0 0 80 90" fill="none" xmlns="http://www.w3.org/2000/svg">
<path fill-rule="evenodd" clip-rule="evenodd" d="M0 0L80 0.125359L72.4026 81.4049L38.978 90L7.20654 81.3453L0 0Z" fill="#14303F"/>
<path fill-rule="evenodd" clip-rule="evenodd" d="M65.4272 35.95L64.567 46.104L62.2466 68.4838L38.0394 73.2607L38.0881 73.2649L16.7427 68.8955L15.3503 58.2064L15.3129 58.2302L14.5813 52.9364L26.0025 52.9939L27.4776 60.5966L38.1008 63.031V62.9876L52.8193 60.1449L54.2788 46.104L14.3693 45.8862L12.9345 36.1117H13.0052L40.4757 28.5209L12.2984 28.5482L11.0261 18.3675H67.8529L66.4393 30.5091L49.1792 35.95H65.4272Z" fill="white"/>
</svg>
