<svg width="62" height="63" viewBox="0 0 62 63" fill="none" xmlns="http://www.w3.org/2000/svg">
<path d="M50.3826 14.1213C49.0017 13.0101 43.195 10.0579 41.8422 9.97245C40.0926 9.67655 39.6421 11.9646 39.2473 12.8292C38.8525 13.6938 38.8183 14.1179 38.9745 15.022C39.1307 15.926 38.8424 17.6684 38.0031 19.3712C37.1638 21.0741 35.9974 23.9934 26.1874 25.2359C16.3774 26.4784 16.4042 34.5787 16.2152 36.3737C16.0262 38.1686 16.7508 45.3123 16.9017 46.4662C17.0525 47.6201 17.8107 50.8648 18.9959 51.7459C20.1811 52.6269 23.502 54.514 27.549 56.47C31.5959 58.4261 33.5427 56.5523 39.0235 53.6463C44.5043 50.7402 49.1874 45.2634 49.5655 41.6735C49.9436 38.0836 45.6191 32.6954 44.3045 29.661C42.9899 26.6267 45.251 22.9612 46.3122 21.4391C47.3734 19.9171 48.8803 19.8316 49.3167 19.3681C49.7531 18.9046 50.6601 17.5534 51.0523 16.8138C51.4445 16.0741 51.7635 15.2325 50.3826 14.1213Z" fill="black" fill-opacity="0.5"/>
<path d="M48.3826 10.9886C47.0017 9.87746 41.195 6.92525 39.8422 6.83976C38.0926 6.54386 37.6421 8.83194 37.2473 9.69653C36.8525 10.5611 36.8183 10.9852 36.9745 11.8893C37.1307 12.7933 36.8424 14.5357 36.0031 16.2386C35.1638 17.9414 33.9974 20.8607 24.1874 22.1032C14.3774 23.3458 14.4042 31.446 14.2152 33.241C14.0262 35.0359 14.7508 42.1796 14.9017 43.3335C15.0525 44.4874 15.8107 47.7321 16.9959 48.6132C18.1811 49.4942 21.502 51.3813 25.549 53.3373C29.5959 55.2934 31.5427 53.4196 37.0235 50.5136C42.5043 47.6075 47.1874 42.1307 47.5655 38.5408C47.9436 34.9509 43.6191 29.5627 42.3045 26.5284C40.9899 23.494 43.251 19.8285 44.3122 18.3065C45.3734 16.7844 46.8803 16.6989 47.3167 16.2354C47.7531 15.7719 48.6601 14.4207 49.0523 13.6811C49.4445 12.9414 49.7635 12.0998 48.3826 10.9886Z" fill="white" stroke="black" stroke-width="0.5"/>
<path d="M41.7395 4.91742C41.3416 5.09491 40.7973 7.33102 40.5749 8.42689C40.5707 9.03155 40.8427 9.11513 41.3107 9.54531C41.7787 9.97549 42.5681 10.5154 43.5066 11.013C44.4451 11.5105 45.854 12.0754 46.497 12.2949C47.1399 12.5144 47.4899 12.0931 47.8398 11.6717L47.8398 11.6717C48.1898 11.2503 48.9433 9.82913 49.4422 9.36539C49.9412 8.90165 48.4117 7.84798 47.9178 7.58611C47.4238 7.32424 47.2506 7.29305 47.0287 7.11475C46.8069 6.93644 46.1681 6.11227 45.7227 5.99752C45.2774 5.88277 44.6846 5.56853 44.0919 5.25429C43.4992 4.94005 42.2368 4.69555 41.7395 4.91742Z" fill="#CEAF89" stroke="black" stroke-width="0.5"/>
<path d="M38.4596 7.77261C38.1803 8.1395 38.2181 9.3322 40.6044 11.1678" stroke="black" stroke-width="0.5"/>
<path d="M41.4857 11.6351C42.0733 11.9466 43.5128 12.7098 44.5703 13.2705" stroke="black" stroke-width="0.5"/>
<path d="M49.1711 12.3225C49.2915 12.6903 49.3146 13.4799 48.4432 13.6953C47.3539 13.9646 45.5575 13.6635 45.011 13.5041" stroke="black" stroke-width="0.5"/>
<path d="M36.8188 10.8544C36.8577 11.4395 37.4303 12.985 39.4096 14.486" stroke="black" stroke-width="0.5"/>
<path d="M46.7204 16.6685C46.2688 16.8323 44.8795 16.9989 42.9349 16.3551" stroke="black" stroke-width="0.5"/>
<path d="M37.0998 17.7776C36.4029 19.1285 33.9745 22.0562 29.8367 22.9593" stroke="black" stroke-width="0.5"/>
<path d="M41.6068 20.1671C40.5126 21.4714 38.918 25.0708 41.2939 29.0336" stroke="black" stroke-width="0.5"/>
<path d="M35.6274 25.465C32.0694 23.5786 29.1291 23.3537 28.1036 23.4771C15.3268 26.0831 17.0285 29.4866 16.6603 32.5431C16.292 35.5996 17.3178 43.5849 17.6252 45.2487C17.9327 46.9125 18.5565 47.7435 20.0889 47.8055C21.6213 47.8676 22.9438 48.4436 24.019 49.0137C25.0942 49.5837 25.9365 50.5931 26.6322 51.5247C27.3278 52.4564 28.1214 52.3768 29.9701 51.606C31.8188 50.8352 38.1325 48.4921 42.7013 43.5355C47.2702 38.5789 44.795 35.4531 43.398 32.7739C42.001 30.0947 40.0749 27.8229 35.6274 25.465Z" fill="#28FFCB" stroke="black" stroke-width="0.5"/>
<path d="M29.6896 27.1786C30.5864 27.9886 33.1233 29.6891 35.6154 31.0104C39.449 33.0429 44.8085 34.1907 40.5597 30.2445" stroke="white" stroke-width="0.5"/>
<path d="M33.4949 19.2535C34.0238 19.8887 35.5347 21.4116 37.3471 22.4226C39.1595 23.4336 41.1159 23.6904 41.8675 23.6925" stroke="black" stroke-width="2" stroke-linecap="round" stroke-linejoin="round"/>
<path d="M28.2384 20.1659C29.6181 20.4499 30.7364 21.1067 31.1251 21.6964C31.3753 22.7879 29.3073 25.8466 28.9338 26.6713C28.5603 27.4961 28.5307 27.6722 27.994 27.963C27.4573 28.2537 22.7622 30.4949 18.1836 33.1175C14.5208 35.2155 10.988 38.9125 9.67943 40.4987C9.08905 39.5677 7.62184 37.2599 6.4761 35.4763C5.33036 33.6926 4.69088 30.5452 4.51436 29.1944C6.96796 26.8516 10.4591 24.3556 13.1132 23.0779C15.7672 21.8002 21.9012 19.4909 23.015 19.3143C24.1288 19.1377 26.8587 19.8819 28.2384 20.1659Z" fill="#FBFBFB" stroke="black" stroke-width="0.5"/>
<path d="M41.6464 4.94592C41.5462 5.09498 41.5119 5.53504 42.176 6.10283C43.0063 6.81256 43.4586 6.91758 43.5236 7.15423C43.5886 7.39089 44.2918 8.10067 44.7163 8.2583C45.1407 8.41593 46.2002 8.57332 46.3489 8.65216C46.4976 8.731 46.9592 9.17789 47.6656 9.28282C48.372 9.38775 49.3603 9.43998 49.5493 9.20323" stroke="black" stroke-width="0.5"/>
<path d="M28.9553 22.492C30.1612 21.6856 32.8869 20.0905 34.1426 20.1614" stroke="black" stroke-width="2" stroke-linecap="round"/>
</svg>
