<svg width="342" height="478" viewBox="0 0 342 478" fill="none" xmlns="http://www.w3.org/2000/svg">
<path d="M123.995 128.055C128.72 128.055 132.185 130.925 132.185 135.09C132.185 139.22 128.72 142.09 123.995 142.09C119.305 142.09 115.84 139.22 115.84 135.09C115.84 130.925 119.305 128.055 123.995 128.055ZM123.995 130.435C120.95 130.435 118.64 132.36 118.64 135.09C118.64 137.82 120.95 139.71 123.995 139.71C127.075 139.71 129.35 137.82 129.35 135.09C129.35 132.36 127.075 130.435 123.995 130.435ZM138.135 126.9H141.075V143.105H138.135V126.9ZM120.6 144.645H141.075V152.345H123.505V157.105H120.67V150.175H138.205V146.99H120.6V144.645ZM120.67 155.81H142.125V158.12H120.67V155.81ZM170.437 126.865H173.342V158.575H170.437V126.865ZM164.417 139.045H171.137V141.425H164.417V139.045ZM148.492 148.565H150.907C156.507 148.565 160.462 148.39 165.117 147.55L165.397 149.965C160.637 150.805 156.612 151.015 150.907 151.015H148.492V148.565ZM148.422 129.84H162.562V140.935H151.362V149.3H148.492V138.555H159.692V132.22H148.422V129.84ZM192.205 129.07H194.725V131.485C194.725 138.38 188.32 143.735 181.985 145.17L180.69 142.755C186.255 141.705 192.205 136.875 192.205 131.485V129.07ZM192.73 129.07H195.25V131.485C195.25 136.91 201.235 141.705 206.765 142.755L205.47 145.17C199.17 143.735 192.73 138.415 192.73 131.485V129.07ZM179.535 151.89H208.2V154.27H179.535V151.89ZM215.407 143.945H237.142V146.29H215.407V143.945ZM211.732 152.065H240.397V154.48H211.732V152.065ZM215.407 129.595H236.792V131.975H218.347V144.68H215.407V129.595ZM217.402 136.665H236.127V138.975H217.402V136.665Z" fill="#C8C8C8"/>
<path d="M109.321 197.788C105.734 194.452 110.816 148.213 113.806 125.511L216.946 147.75C218.901 151.572 222.81 159.426 222.81 160.26C222.81 161.094 217.751 186.784 215.221 199.526L109.321 197.788Z" fill="#2D3E47" stroke="black" stroke-width="5"/>
<path d="M103.153 88.5691C108.129 106.932 118.567 144.921 120.511 149.973C122.941 156.289 132.314 167.517 144.812 173.132C157.309 178.746 167.377 182.255 179.527 177.693C191.677 173.132 211.465 161.202 213.548 156.64C215.214 152.991 225.351 118.628 230.211 101.903C229.864 96.0546 229.17 83.9375 229.17 82.2533C229.17 80.569 187.974 42.9545 167.377 24.3578L103.153 88.5691Z" fill="#CCCED2"/>
<path d="M132.532 196.875C138.435 190.407 140.581 176.887 140.916 170.935C143.935 174.641 160.034 179.357 170.431 179.357C178.749 179.357 193.574 170.598 199.946 166.219L204.306 204.623C203.524 208.441 201.757 216.818 200.952 219.783C200.147 222.747 200.617 224.162 200.952 224.499C200.617 227.531 186.866 234.943 182.506 237.638C179.017 239.794 174.568 246.846 172.779 250.102C170.431 243.028 155.674 233.595 144.606 226.184C135.751 220.255 132.196 205.522 131.525 198.896L132.532 196.875Z" fill="#CCCED2"/>
<path d="M134.557 190.323C137.336 184.076 138.725 175.272 139.073 171.651L200.206 166.219C202.985 193.039 203.332 192.02 204.721 203.903C206.111 215.785 209.584 247.018 202.29 255.506C194.996 263.993 155.398 261.956 139.073 256.185C126.013 251.568 116.264 227.328 113.022 215.785L129 199.489C129.694 199.037 131.778 196.57 134.557 190.323Z" stroke="#14303F" stroke-width="4" stroke-linejoin="round"/>
<path d="M208.266 200.099C209.096 189.909 207.92 182.313 207.229 179.788C209.764 183.69 215.872 192.457 220.022 196.313C225.208 201.132 240.421 206.984 249.065 209.738C257.709 212.492 285.716 221.787 291.939 238.311C298.163 254.836 304.387 276.524 306.461 294.425C308.536 312.326 322.02 359.489 328.244 384.619C333.223 404.724 338.156 443.946 340 461.044H278.8H148.795V449.683L151.216 327.817L164.355 274.458C167.236 266.426 173.967 249.121 177.839 244.164C182.68 237.967 194.09 233.148 199.276 228.672C204.462 224.197 207.229 212.837 208.266 200.099Z" fill="#E9EBEF" stroke="#14303F" stroke-width="3" stroke-linejoin="round"/>
<path d="M140.049 223.489C132.594 216.308 130.96 197.942 131.075 189.657C128.314 194.145 122.24 203.466 120.032 204.847C117.271 206.573 96.5633 210.37 77.2365 220.036C57.9097 229.703 48.5914 251.797 43.4146 268.022C38.2377 284.248 22.017 353.983 16.15 372.625C10.2829 391.267 12.0085 422.337 8.21219 431.313C5.17512 438.493 2.80528 462.843 2 474.12L61.0158 475.846C60.0954 472.97 58.807 466.111 61.0158 461.692C63.2245 457.273 70.219 450.645 73.4401 447.883V463.764H181.118C181.808 458.24 184.569 407.492 184.569 390.576C184.569 373.661 181.118 288.736 181.118 278.379C181.118 268.022 175.941 252.833 169.039 244.892C162.136 236.952 149.367 232.464 140.049 223.489Z" fill="#E9EBEF" stroke="#14303F" stroke-width="3" stroke-linejoin="round"/>
<path d="M206.933 176.088C206.969 176.106 207.005 176.132 207.04 176.167C215.865 182.704 228.675 199.973 231.38 206.762C234.096 213.578 242.925 236.413 244.622 242.548C246.304 248.626 242.32 246.341 237.624 243.646L237.492 243.57C232.738 240.844 211.686 228.574 208.291 227.211C204.896 225.848 201.84 224.825 201.84 222.78C201.84 220.735 205.575 212.215 206.933 202.672C208.291 193.129 208.291 185.318 208.291 183.245C208.291 180.017 207.682 176.789 207.04 176.167C207.004 176.14 206.969 176.114 206.933 176.088Z" fill="#E9EBEF"/>
<path d="M206.933 176.088C207.612 176.428 208.291 179.837 208.291 183.245C208.291 185.318 208.291 193.129 206.933 202.672C205.575 212.215 201.84 220.735 201.84 222.78C201.84 224.825 204.896 225.848 208.291 227.211C211.686 228.574 232.738 240.844 237.492 243.57C242.245 246.297 246.32 248.683 244.622 242.548C242.925 236.413 234.096 213.578 231.38 206.762C228.664 199.945 215.761 182.563 206.933 176.088Z" stroke="#14303F" stroke-width="3" stroke-linejoin="round"/>
<path d="M118.487 200.189C120.494 197.659 126.968 190.469 129.954 187.19C130.193 188.478 129.629 193.454 130.671 199.837C132.104 208.62 134.971 217.403 138.555 222.673C141.422 226.889 154.8 234.969 161.131 238.483C155.756 236.375 147.514 235.321 141.78 233.564C136.046 231.808 132.821 225.132 130.671 224.079C128.521 223.025 126.012 226.538 124.221 231.456C122.429 236.375 109.528 247.968 104.511 252.887C99.4939 257.805 96.9854 256.4 96.9854 254.643C96.9854 252.887 96.9854 241.996 97.7021 233.564C98.4188 225.132 102.002 215.647 105.228 212.836C108.453 210.026 115.978 203.351 118.487 200.189Z" fill="#E9EBEF" stroke="#14303F" stroke-width="3" stroke-linejoin="round"/>
<path d="M156.197 235.299C159.481 241.915 170.228 263.153 170.527 280.213C170.825 297.274 171.423 368.649 170.527 392.325C169.81 411.265 167.641 448.496 166.646 464.744" stroke="#14303F" stroke-width="3" stroke-linejoin="round"/>
<path d="M170.824 258.737C169.79 258.737 168.533 258.532 168.533 256.476C168.533 255.242 169.061 253.803 170.471 253.803C171.881 253.803 172.233 255.242 172.233 256.476C172.233 257.709 171.858 258.737 170.824 258.737Z" fill="#EEEEEE" stroke="#14303F" stroke-width="2"/>
<path d="M176.522 292.044C175.143 292.044 173.467 291.787 173.467 289.217C173.467 287.675 174.172 285.876 176.052 285.876C177.931 285.876 178.401 287.675 178.401 289.217C178.401 290.759 177.9 292.044 176.522 292.044Z" fill="#EEEEEE" stroke="#14303F" stroke-width="2"/>
<path d="M177.462 325.35C176.772 325.35 175.934 325.145 175.934 323.089C175.934 321.855 176.287 320.416 177.227 320.416C178.167 320.416 178.401 321.855 178.401 323.089C178.401 324.322 178.151 325.35 177.462 325.35Z" fill="#EEEEEE" stroke="#14303F" stroke-width="2"/>
<path d="M177.462 357.423C176.772 357.423 175.934 357.218 175.934 355.162C175.934 353.928 176.287 352.489 177.227 352.489C178.167 352.489 178.401 353.928 178.401 355.162C178.401 356.395 178.151 357.423 177.462 357.423Z" fill="#EEEEEE" stroke="#14303F" stroke-width="2"/>
<path d="M177.462 390.73C176.772 390.73 175.934 390.576 175.934 389.034C175.934 388.109 176.287 387.029 177.227 387.029C178.167 387.029 178.401 388.109 178.401 389.034C178.401 389.959 178.151 390.73 177.462 390.73Z" fill="#EEEEEE" stroke="#14303F" stroke-width="2"/>
<path d="M176.522 425.27C175.143 425.27 173.467 424.962 173.467 421.878C173.467 420.027 174.172 417.869 176.052 417.869C177.931 417.869 178.401 420.027 178.401 421.878C178.401 423.728 177.9 425.27 176.522 425.27Z" fill="#EEEEEE" stroke="#14303F" stroke-width="2"/>
<path d="M77.498 270.174C77.9251 274.897 78.5658 294.602 78.8328 303.864L79.6337 352.489C81.0575 345.543 83.7984 327.899 83.3712 312.894C82.8373 294.139 80.4346 276.078 78.8328 268.09C77.231 260.102 76.964 264.269 77.498 270.174Z" fill="#A8B8C1"/>
<path d="M68.4933 316.981C74.8055 327.104 76.9096 349.096 79.7151 360.615V380.861C76.6758 369.109 70.5974 343.79 70.5974 336.529C70.5974 327.453 62.181 306.858 68.4933 316.981Z" fill="#A8B8C1"/>
<path d="M49.0685 399.355C65.3688 411.112 70.4281 430.47 71.0801 436.694V447.413L64.7168 453.642C65.3689 450.876 66.6464 446.099 67.168 440.843C67.8201 434.273 62.93 424.937 57.0619 418.713C51.1938 412.489 43.8523 407.654 31.4641 395.552C19.0758 383.45 32.7682 387.599 49.0685 399.355Z" fill="#A8B8C1"/>
<path d="M71.0801 451.175C73.2399 434.576 77.8585 396.642 79.0546 377.698C80.2508 358.754 79.553 321.748 79.0546 305.613" stroke="#14303F" stroke-width="3" stroke-linejoin="round"/>
<path d="M118.267 411.87C117.893 421.422 113.396 458.214 113.022 461.044H118.267C120.141 444.063 118.642 402.318 118.267 411.87Z" fill="#A8B8C1"/>
<path d="M245.257 357.83C245.856 377.399 253.05 452.778 253.649 458.576H245.257C242.259 423.786 244.657 338.261 245.257 357.83Z" fill="#A8B8C1"/>
<path d="M136.46 178.555C133.132 180.363 131.301 184.774 130.292 186.407L131.427 195.825L132.939 193.564C135.965 188.29 139.788 176.747 136.46 178.555Z" fill="#E9EBEF" stroke="#14303F" stroke-width="3"/>
<path d="M202.291 172.387C204.556 172.97 206.773 174.331 207.599 174.938C207.953 177.489 208.307 185.872 207.599 192.797C207.033 198.337 206.183 202.881 205.83 204.46C204.65 196.199 202.22 179.166 201.937 177.125C201.654 175.084 202.055 173.116 202.291 172.387Z" fill="#E9EBEF" stroke="#14303F" stroke-width="3"/>
<path d="M286.898 298.986C281.729 308.398 275.737 338.894 273.387 352.966L277.499 416.635C278.282 406.6 280.436 380.856 282.786 358.157C285.723 329.782 293.36 287.221 286.898 298.986Z" fill="#A8B8C1"/>
<path d="M270.034 261.287C270.928 266.83 272.642 289.922 273.387 300.775V336.452C271.524 316.131 267.5 272.095 266.308 258.516C264.817 241.544 268.916 254.36 270.034 261.287Z" fill="#A8B8C1"/>
<path d="M272.153 299.445C272.844 306.411 272.844 357.955 274.225 381.289C275.331 399.957 279.061 442.237 280.788 461.044" stroke="#14303F" stroke-width="3"/>
<path d="M165.425 165.809C157.627 165.526 137.109 159.334 127.825 156.273C128.869 159.452 132.043 165.352 141.403 171.106C152.892 178.17 159.855 181.349 170.648 180.995C181.44 180.642 204.767 163.337 211.381 158.039C217.996 152.741 224.263 132.61 225.308 126.606C226.143 121.803 227.28 112.361 227.745 108.241C221.362 122.015 207.343 150.905 202.329 156.273C196.063 162.983 175.174 166.162 165.425 165.809Z" fill="#BABEC7"/>
<path d="M148.509 75.747C142.458 73.5009 126.893 72.5283 114.256 76.6059" stroke="#14303F" stroke-width="5" stroke-linecap="round"/>
<path d="M185.328 73.3778C191.435 71.0737 207.184 69.952 220.009 73.9085" stroke="#14303F" stroke-width="5" stroke-linecap="round"/>
<path d="M234.381 88.5037C237.757 89.932 243.671 94.6456 240.318 102.073C236.965 109.5 230.539 114.214 227.745 115.642" stroke="black" stroke-width="3"/>
<ellipse cx="140.161" cy="100.84" rx="4.9343" ry="6.16788" fill="#14303F"/>
<circle cx="140.522" cy="100.378" r="1.03666" fill="white"/>
<circle cx="138.794" cy="102.797" r="0.691109" fill="white"/>
<ellipse cx="194.438" cy="100.84" rx="4.9343" ry="6.16788" fill="#14303F"/>
<circle cx="194.576" cy="100.378" r="1.03666" fill="white"/>
<circle cx="192.848" cy="102.797" r="0.691109" fill="white"/>
<path d="M169.493 31.7592C161.587 44.0474 136.426 75.5276 103.153 89.7372C111.632 73.4274 137.595 36.317 169.493 31.7592L205.241 54.2131L235.146 89.7372C214.866 75.9968 186.336 47.1753 169.493 31.7592Z" fill="#2D3E47"/>
<path d="M169.493 31.7592C161.587 44.0474 136.426 75.5276 103.153 89.7372C111.632 73.4274 137.595 36.317 169.493 31.7592ZM169.493 31.7592C186.336 47.1753 214.866 75.9968 235.146 89.7372L205.241 54.2131L169.493 31.7592Z" stroke="#14303F" stroke-width="3"/>
<path d="M110.583 22.6426C126.818 2.43984 155.694 -1.65703 165.41 5.28524L168.533 30.6261C164.716 32.3617 153.681 38.0547 140.078 46.9414C123.075 58.0497 116.482 70.5469 115.094 71.2411C113.983 71.7966 105.262 85.4733 103.296 88.2504C105.378 95.7716 110.652 114.91 115.094 131.295C119.535 147.68 119.258 194.821 122.382 198.292C110.121 197.829 51.9391 193.779 67.5545 148.652C95.9023 66.7286 88.266 50.4132 110.583 22.6426Z" fill="#434F55" stroke="#14303F" stroke-width="3"/>
<path d="M223.076 22.6518C207.823 2.45009 173.96 -1.65954 164.832 5.28237L168.63 30.6348C172.216 32.3704 182.584 38.0631 195.364 46.9493C211.339 58.057 221.772 78.5369 223.076 79.2311C224.119 79.7865 231.341 86.0159 233.188 88.7929C231.232 96.3137 224.933 115.724 220.76 132.107C216.587 148.491 214.925 194.821 211.991 198.292C223.51 197.829 278.174 193.779 263.503 148.654C236.869 66.7355 244.044 50.421 223.076 22.6518Z" fill="#434F55" stroke="#14303F" stroke-width="3"/>
<path d="M112.854 36.8491C125.259 17.7778 152.941 10.7067 165.232 9.55505L167.299 18.8834C157.306 19.5744 139.732 25.1023 129.394 34.0851C117.596 44.3376 106.307 75.1989 103.895 84.1818C101.483 93.1646 87.01 129.441 82.1857 150.862C78.3264 167.999 80.5777 186.333 82.1857 193.358C76.6723 184.03 73.2264 174.01 73.571 158.117C73.9156 142.225 87.6991 105.948 91.8342 92.4736C95.9693 78.9994 97.3476 60.6882 112.854 36.8491Z" fill="#2D3E47" stroke="#14303F" stroke-width="3"/>
<path d="M103.153 89.7242C109.083 108.639 117.891 147.786 125.426 157.936C134.844 170.625 158.914 179.788 168.681 179.788C178.448 179.788 201.122 168.157 211.238 157.936C221.354 147.715 231.819 93.438 233.912 88.5037" stroke="#14303F" stroke-width="4" stroke-linecap="round"/>
<path d="M175.781 127.662C176.765 125.757 172.771 109.901 170.518 102.073L169.766 129.046C171.815 129.272 174.798 129.568 175.781 127.662Z" fill="#ADB1BC"/>
<path d="M238.214 63.7506C229.037 12.1911 187.114 3.89651 167.299 6.19417V14.1212C185.723 18.787 225.144 37.6577 235.433 75.8134C245.723 113.969 257.596 149.568 256.291 184.723C267.415 164.388 249.686 128.2 238.214 63.7506Z" fill="#2D3E47" stroke="#14303F" stroke-width="2"/>
<path d="M227.425 38.712C213.837 15.9147 181.68 8.13032 167.299 7.08777V14.0381C178.736 14.8725 205.685 22.0179 221.99 43.9247C238.295 65.8316 242.371 152.675 242.371 193.358C251.203 175.982 244.41 67.2085 227.425 38.712Z" fill="#2D3E47" stroke="#14303F" stroke-width="2"/>
<path d="M222.81 194.591C228.794 177.693 230.456 151.252 228.794 136.308L237.77 98.3723C244.951 144.723 234.113 181.831 222.81 194.591Z" fill="#2D3E47" stroke="#14303F" stroke-width="3"/>
<path d="M125.358 208.161C118.946 191.045 117.165 164.266 118.946 149.13L109.33 110.708C101.636 157.653 113.247 195.237 125.358 208.161Z" fill="#1B3442" stroke="#14303F" stroke-width="3"/>
<path d="M224.293 64.9293C213.94 39.8679 181.738 25.0168 166.931 20.7238L164.832 12.022C226.741 21.42 238.284 70.8466 237.584 100.781C237.027 124.603 221.657 154.074 213.921 166.032C213.88 166.096 213.84 166.158 213.8 166.219C213.84 166.157 213.881 166.095 213.921 166.032C221.32 154.438 237.164 96.0846 224.293 64.9293Z" fill="#2D3E47"/>
<path d="M166.931 20.7238C181.738 25.0168 213.94 39.8679 224.293 64.9293C237.234 96.256 221.145 155.081 213.8 166.219C221.495 154.384 237.024 124.728 237.584 100.781C238.284 70.8466 226.741 21.42 164.832 12.022L166.931 20.7238Z" stroke="#14303F" stroke-width="3"/>
<path d="M92.9696 190.891C83.1254 172.21 97.0713 120.606 105.275 97.1388L108.087 110.383C103.587 120.978 96.1338 168.469 92.9696 190.891Z" fill="#243944" stroke="#14303F" stroke-width="3"/>
<path d="M156.145 146.156C161.952 147.634 175.498 149.341 183.223 144.346" stroke="#14303F" stroke-width="3" stroke-linecap="round"/>
<path d="M139.996 114.409C135.916 114.409 135.123 109.474 135.236 107.007C139.044 110.391 143.395 108.417 145.095 107.007C145.095 109.474 144.075 114.409 139.996 114.409Z" fill="#ADB1BC"/>
<path d="M194.273 114.409C190.193 114.409 189.4 109.474 189.514 107.007C193.321 110.391 197.672 108.417 199.372 107.007C199.372 109.474 198.352 114.409 194.273 114.409Z" fill="#ADB1BC"/>
</svg>
