<svg width="590" height="159" viewBox="0 0 590 159" fill="none" xmlns="http://www.w3.org/2000/svg">
<path d="M202 0H387V159H202V0Z" fill="#F7B303"/>
<path fill-rule="evenodd" clip-rule="evenodd" d="M386 1H203V158H386V1ZM202 0V159H387V0H202Z" fill="#14303F"/>
<path d="M0 0H185V159H0V0Z" fill="#F4474D"/>
<path fill-rule="evenodd" clip-rule="evenodd" d="M184 1H1V158H184V1ZM0 0V159H185V0H0Z" fill="#14303F"/>
<path d="M405 0H590V159H405V0Z" fill="#0071E4"/>
<path fill-rule="evenodd" clip-rule="evenodd" d="M589 1H406V158H589V1ZM405 0V159H590V0H405Z" fill="#14303F"/>
<path d="M52.032 91.0419L52.956 86.7579H50.079L49.155 91.0419H46.509L47.433 86.7579H45.165V84.4689H47.916L48.672 81.0039H45.984V78.7359H49.155L50.1 74.4309H52.767L51.822 78.7359H54.699L55.644 74.4309H58.29L57.345 78.7359H59.613V81.0039H56.841L56.085 84.4689H58.815V86.7579H55.602L54.678 91.0419H52.032ZM51.318 81.0039L50.562 84.4689H53.46L54.216 81.0039H51.318Z" fill="#14303F"/>
<path d="M61.6285 91.0419V74.4309H71.6245V77.0559H64.7155V81.4659H70.8895V84.0699H64.7155V91.0419H61.6285Z" fill="#14303F"/>
<path d="M75.9581 85.2039H79.7381V78.8409L75.9581 85.2039ZM84.5051 85.2039V87.7029H82.7201V91.0419H79.7381V87.7029H73.0391V85.2039L79.4441 74.4309H82.7201V85.2039H84.5051Z" fill="#14303F"/>
<path d="M89.0626 85.2039H92.8426V78.8409L89.0626 85.2039ZM97.6096 85.2039V87.7029H95.8246V91.0419H92.8426V87.7029H86.1436V85.2039L92.5486 74.4309H95.8246V85.2039H97.6096Z" fill="#14303F"/>
<path d="M99.7521 76.9299V74.4309H110.189V76.6779L104.813 91.0419H101.705L107.165 76.9299H99.7521Z" fill="#14303F"/>
<path d="M115.272 85.2039H119.052V78.8409L115.272 85.2039ZM123.819 85.2039V87.7029H122.034V91.0419H119.052V87.7029H112.353V85.2039L118.758 74.4309H122.034V85.2039H123.819Z" fill="#14303F"/>
<path d="M135.453 82.7259C135.453 78.3369 134.382 77.0559 131.841 77.0559H129.069V88.4169H131.841C134.403 88.4169 135.453 87.1569 135.453 82.7259ZM138.519 82.7259C138.519 87.0099 137.553 91.0419 132.072 91.0419H125.982V74.4309H132.072C137.595 74.4309 138.519 78.5679 138.519 82.7259Z" fill="#14303F"/>
<path d="M254.922 91.042L255.846 86.758H252.969L252.045 91.042H249.399L250.323 86.758H248.055V84.469H250.806L251.562 81.004H248.874V78.736H252.045L252.99 74.431H255.657L254.712 78.736H257.589L258.534 74.431H261.18L260.235 78.736H262.503V81.004H259.731L258.975 84.469H261.705V86.758H258.492L257.568 91.042H254.922ZM254.208 81.004L253.452 84.469H256.35L257.106 81.004H254.208Z" fill="#14303F"/>
<path d="M264.518 91.042V74.431H274.514V77.056H267.605V81.466H273.779V84.07H267.605V91.042H264.518Z" fill="#14303F"/>
<path d="M276.433 76.93V74.431H286.87V76.678L281.494 91.042H278.386L283.846 76.93H276.433Z" fill="#14303F"/>
<path d="M296.278 91.042H289.558V74.431H295.837C299.302 74.431 301.066 75.943 301.066 78.925C301.066 80.689 300.142 81.886 298.651 82.39C300.457 82.831 301.549 84.322 301.549 86.275C301.549 89.383 299.827 91.042 296.278 91.042ZM298.462 86.128C298.462 84.448 297.559 83.818 295.669 83.818H292.645V88.417H295.669C297.559 88.417 298.462 87.808 298.462 86.128ZM298 79.135C298 77.539 297.034 77.056 295.27 77.056H292.645V81.214H295.27C297.034 81.214 298 80.731 298 79.135Z" fill="#14303F"/>
<path d="M303.291 86.338V86.002H306.294V86.17C306.294 87.871 307.344 88.837 308.793 88.837C310.242 88.837 311.292 87.871 311.292 86.17C311.292 84.427 310.242 83.461 308.709 83.461H307.071V81.025H308.709C309.969 81.025 310.83 80.227 310.83 78.82C310.83 77.476 309.99 76.657 308.793 76.657C307.575 76.657 306.735 77.476 306.735 78.82V78.967H303.795V78.589C303.795 76.048 305.622 74.137 308.793 74.137C311.964 74.137 313.77 76.048 313.77 78.589C313.77 80.311 312.804 81.718 311.313 82.222C313.161 82.726 314.274 84.175 314.274 86.338C314.274 89.404 312.027 91.336 308.793 91.336C305.559 91.336 303.291 89.404 303.291 86.338Z" fill="#14303F"/>
<path d="M327.567 82.726C327.567 86.443 326.979 88.501 325.782 89.824C324.879 90.832 323.577 91.336 321.939 91.336C320.28 91.336 318.978 90.832 318.075 89.824C316.878 88.501 316.29 86.443 316.29 82.726C316.29 79.051 316.878 76.993 318.075 75.649C318.978 74.662 320.28 74.137 321.939 74.137C323.577 74.137 324.879 74.662 325.782 75.649C326.979 76.993 327.567 79.051 327.567 82.726ZM324.585 82.726C324.585 79.786 324.375 78.337 323.766 77.497C323.304 76.93 322.716 76.657 321.939 76.657C321.141 76.657 320.553 76.93 320.112 77.497C319.482 78.337 319.272 79.786 319.272 82.726C319.272 85.708 319.482 87.157 320.112 87.976C320.553 88.564 321.141 88.837 321.939 88.837C322.716 88.837 323.304 88.564 323.766 87.976C324.375 87.157 324.585 85.708 324.585 82.726Z" fill="#14303F"/>
<path d="M329.5 86.338V86.002H332.503V86.17C332.503 87.871 333.553 88.837 335.002 88.837C336.451 88.837 337.501 87.871 337.501 86.17C337.501 84.427 336.451 83.461 334.918 83.461H333.28V81.025H334.918C336.178 81.025 337.039 80.227 337.039 78.82C337.039 77.476 336.199 76.657 335.002 76.657C333.784 76.657 332.944 77.476 332.944 78.82V78.967H330.004V78.589C330.004 76.048 331.831 74.137 335.002 74.137C338.173 74.137 339.979 76.048 339.979 78.589C339.979 80.311 339.013 81.718 337.522 82.222C339.37 82.726 340.483 84.175 340.483 86.338C340.483 89.404 338.236 91.336 335.002 91.336C331.768 91.336 329.5 89.404 329.5 86.338Z" fill="#14303F"/>
<path d="M457.286 91.042L458.21 86.758H455.333L454.409 91.042H451.763L452.687 86.758H450.419V84.469H453.17L453.926 81.004H451.238V78.736H454.409L455.354 74.431H458.021L457.076 78.736H459.953L460.898 74.431H463.544L462.599 78.736H464.867V81.004H462.095L461.339 84.469H464.069V86.758H460.856L459.932 91.042H457.286ZM456.572 81.004L455.816 84.469H458.714L459.47 81.004H456.572Z" fill="#14303F"/>
<path d="M466.882 91.042V74.431H477.004V77.056H469.969V81.235H476.143V83.839H469.969V88.417H477.109V91.042H466.882Z" fill="#14303F"/>
<path d="M488.781 82.726C488.781 78.337 487.71 77.056 485.169 77.056H482.397V88.417H485.169C487.731 88.417 488.781 87.157 488.781 82.726ZM491.847 82.726C491.847 87.01 490.881 91.042 485.4 91.042H479.31V74.431H485.4C490.923 74.431 491.847 78.568 491.847 82.726Z" fill="#14303F"/>
<path d="M499.429 82.747C498.568 82.747 497.938 83.146 497.581 83.755H494.662L495.103 74.431H503.881V76.93H497.875L497.644 81.403C498.064 80.752 498.988 80.269 500.122 80.269C502.831 80.269 504.784 82.096 504.784 85.813C504.784 89.299 502.747 91.336 499.429 91.336C496.258 91.336 494.284 89.509 494.095 86.506H497.077C497.224 88.039 498.106 88.837 499.429 88.837C500.899 88.837 501.802 87.829 501.802 85.792C501.802 83.818 500.962 82.747 499.429 82.747Z" fill="#14303F"/>
<path d="M518.098 82.726C518.098 86.443 517.51 88.501 516.313 89.824C515.41 90.832 514.108 91.336 512.47 91.336C510.811 91.336 509.509 90.832 508.606 89.824C507.409 88.501 506.821 86.443 506.821 82.726C506.821 79.051 507.409 76.993 508.606 75.649C509.509 74.662 510.811 74.137 512.47 74.137C514.108 74.137 515.41 74.662 516.313 75.649C517.51 76.993 518.098 79.051 518.098 82.726ZM515.116 82.726C515.116 79.786 514.906 78.337 514.297 77.497C513.835 76.93 513.247 76.657 512.47 76.657C511.672 76.657 511.084 76.93 510.643 77.497C510.013 78.337 509.803 79.786 509.803 82.726C509.803 85.708 510.013 87.157 510.643 87.976C511.084 88.564 511.672 88.837 512.47 88.837C513.247 88.837 513.835 88.564 514.297 87.976C514.906 87.157 515.116 85.708 515.116 82.726Z" fill="#14303F"/>
<path d="M530.762 79.156C530.762 80.836 530.384 81.718 529.145 83.125L524.441 88.543H530.993V91.042H520.535V88.774L526.709 81.655C527.465 80.773 527.78 80.08 527.78 79.177C527.78 77.623 526.94 76.657 525.533 76.657C524.147 76.657 523.286 77.602 523.286 79.177V79.681H520.304V79.156C520.304 76.405 522.194 74.137 525.533 74.137C528.893 74.137 530.762 76.405 530.762 79.156Z" fill="#14303F"/>
<path d="M533.471 87.094H536.516C536.684 88.207 537.356 88.879 538.532 88.879C540.275 88.879 540.947 87.241 541.01 83.734C540.548 84.616 539.498 85.204 538.07 85.204C535.235 85.204 533.156 83.146 533.156 79.702C533.156 76.258 535.445 74.137 538.574 74.137C540.359 74.137 541.829 74.83 542.795 76.174C543.782 77.539 544.076 79.471 544.076 82.054C544.076 88.69 542.396 91.336 538.511 91.336C535.76 91.336 533.849 89.866 533.471 87.094ZM536.138 79.702C536.138 81.613 537.062 82.747 538.595 82.747C540.128 82.747 541.052 81.613 541.052 79.702C541.052 77.791 540.128 76.657 538.595 76.657C537.062 76.657 536.138 77.791 536.138 79.702Z" fill="#14303F"/>
</svg>
