<svg width="367" height="205" viewBox="0 0 367 205" fill="none" xmlns="http://www.w3.org/2000/svg">
<path d="M0.367188 146.023H18.5449C22.2819 146.023 25.4984 146.784 28.1943 148.306C30.917 149.8 32.9857 151.882 34.4004 154.552C35.8418 157.221 36.5625 160.251 36.5625 163.641C36.5625 167.004 35.8418 170.02 34.4004 172.689C32.9857 175.332 30.9303 177.414 28.2344 178.936C25.5384 180.43 22.3353 181.178 18.625 181.178H4.53125V204H0.367188V146.023ZM18.4648 177.414C21.3743 177.414 23.8701 176.827 25.9521 175.652C28.0609 174.478 29.6624 172.863 30.7568 170.808C31.8512 168.726 32.3984 166.337 32.3984 163.641C32.3984 160.918 31.8512 158.516 30.7568 156.434C29.6624 154.352 28.0609 152.723 25.9521 151.549C23.8701 150.374 21.3743 149.787 18.4648 149.787H4.53125V177.414H18.4648Z" fill="#14303F"/>
<path d="M45.4928 160.518H49.4166V167.324H49.737C50.6712 165.082 52.2461 163.28 54.4616 161.919C56.6771 160.558 59.1862 159.877 61.9889 159.877C62.4694 159.877 62.8431 159.904 63.11 159.957H64.0709V164.041C63.11 163.881 62.3359 163.801 61.7487 163.801C59.4264 163.801 57.331 164.308 55.4625 165.322C53.5941 166.337 52.126 167.738 51.0582 169.526C50.0172 171.315 49.4967 173.33 49.4967 175.572V204H45.4928V160.518Z" fill="#14303F"/>
<path d="M85.7337 204.881C81.8365 204.881 78.4065 203.933 75.4436 202.038C72.4807 200.116 70.1985 197.46 68.597 194.07C66.9954 190.654 66.1946 186.783 66.1946 182.459C66.1946 178.161 66.9954 174.304 68.597 170.888C70.1985 167.444 72.4274 164.748 75.2835 162.8C78.1396 160.851 81.3561 159.877 84.9329 159.877C88.2161 159.877 91.2457 160.731 94.0218 162.439C96.7978 164.121 99.0133 166.563 100.668 169.767C102.35 172.97 103.191 176.72 103.191 181.018V183.26H70.2786C70.332 186.757 70.986 189.866 72.2405 192.589C73.5218 195.285 75.3102 197.394 77.6057 198.915C79.928 200.437 82.6373 201.197 85.7337 201.197C88.8033 201.197 91.3391 200.517 93.3411 199.155C95.3697 197.794 96.8645 196.232 97.8255 194.471H102.15C101.509 196.339 100.441 198.074 98.9466 199.676C97.4518 201.251 95.5699 202.519 93.3011 203.479C91.0589 204.414 88.5364 204.881 85.7337 204.881ZM99.1067 179.656C99.1067 176.667 98.4794 173.944 97.2249 171.488C95.997 169.033 94.302 167.097 92.1399 165.683C89.9778 164.268 87.5755 163.561 84.9329 163.561C82.2903 163.561 79.888 164.268 77.7259 165.683C75.5638 167.097 73.8287 169.033 72.5208 171.488C71.2128 173.944 70.4788 176.667 70.3186 179.656H99.1067Z" fill="#14303F"/>
<path d="M127.576 164.041H118.447V193.35C118.447 195.832 119.115 197.701 120.449 198.955C121.81 200.183 123.519 200.797 125.574 200.797C126.215 200.797 126.749 200.77 127.176 200.717H128.697V204.48C127.896 204.641 126.749 204.721 125.254 204.721C123.359 204.721 121.584 204.307 119.929 203.479C118.3 202.625 116.979 201.411 115.965 199.836C114.95 198.234 114.443 196.339 114.443 194.15V164.041H108.037V160.518H114.443V150.107H118.447V160.518H127.576V164.041Z" fill="#14303F"/>
<path d="M153.403 204.881C149.506 204.881 146.076 203.933 143.113 202.038C140.15 200.116 137.868 197.46 136.266 194.07C134.665 190.654 133.864 186.783 133.864 182.459C133.864 178.161 134.665 174.304 136.266 170.888C137.868 167.444 140.097 164.748 142.953 162.8C145.809 160.851 149.025 159.877 152.602 159.877C155.885 159.877 158.915 160.731 161.691 162.439C164.467 164.121 166.683 166.563 168.337 169.767C170.019 172.97 170.86 176.72 170.86 181.018V183.26H137.948C138.001 186.757 138.655 189.866 139.91 192.589C141.191 195.285 142.979 197.394 145.275 198.915C147.597 200.437 150.307 201.197 153.403 201.197C156.473 201.197 159.008 200.517 161.01 199.155C163.039 197.794 164.534 196.232 165.495 194.471H169.819C169.178 196.339 168.111 198.074 166.616 199.676C165.121 201.251 163.239 202.519 160.97 203.479C158.728 204.414 156.206 204.881 153.403 204.881ZM166.776 179.656C166.776 176.667 166.149 173.944 164.894 171.488C163.666 169.033 161.971 167.097 159.809 165.683C157.647 164.268 155.245 163.561 152.602 163.561C149.96 163.561 147.557 164.268 145.395 165.683C143.233 167.097 141.498 169.033 140.19 171.488C138.882 173.944 138.148 176.667 137.988 179.656H166.776Z" fill="#14303F"/>
<path d="M183.314 204H179.31V160.518H183.234V167.404H183.634C184.648 165.109 186.263 163.294 188.479 161.959C190.721 160.624 193.377 159.957 196.446 159.957C199.383 159.957 201.959 160.584 204.174 161.839C206.416 163.067 208.151 164.855 209.379 167.204C210.634 169.526 211.261 172.289 211.261 175.492V204H207.257V175.732C207.257 173.33 206.763 171.221 205.776 169.406C204.815 167.564 203.453 166.15 201.692 165.162C199.93 164.148 197.888 163.641 195.566 163.641C193.217 163.641 191.108 164.161 189.239 165.202C187.398 166.243 185.943 167.711 184.875 169.606C183.834 171.502 183.314 173.677 183.314 176.133V204Z" fill="#14303F"/>
<path d="M237.248 204.881C233.778 204.881 230.708 203.933 228.039 202.038C225.396 200.143 223.341 197.5 221.873 194.11C220.431 190.694 219.711 186.783 219.711 182.379C219.711 178.001 220.445 174.118 221.913 170.728C223.381 167.311 225.45 164.655 228.119 162.76C230.788 160.838 233.858 159.877 237.328 159.877C240.825 159.877 243.721 160.811 246.016 162.68C248.339 164.548 250.034 166.924 251.101 169.807H251.422V146.023H255.426V204H251.502V194.951H251.101C249.98 197.834 248.259 200.21 245.936 202.078C243.641 203.947 240.745 204.881 237.248 204.881ZM237.648 201.197C240.504 201.197 242.973 200.396 245.056 198.795C247.138 197.167 248.726 194.924 249.82 192.068C250.941 189.212 251.502 185.956 251.502 182.299C251.502 178.669 250.941 175.439 249.82 172.609C248.726 169.78 247.138 167.564 245.056 165.963C242.973 164.361 240.504 163.561 237.648 163.561C234.792 163.561 232.31 164.375 230.201 166.003C228.119 167.631 226.531 169.873 225.436 172.729C224.342 175.559 223.795 178.749 223.795 182.299C223.795 185.876 224.342 189.105 225.436 191.988C226.531 194.844 228.119 197.1 230.201 198.755C232.31 200.383 234.792 201.197 237.648 201.197Z" fill="#14303F"/>
<path d="M267.159 191.988C267.159 188.171 268.493 185.168 271.163 182.979C273.859 180.791 277.756 179.496 282.854 179.096C284.829 178.936 286.991 178.775 289.34 178.615C291.689 178.455 293.665 178.335 295.266 178.255V173.57C295.266 171.515 294.812 169.74 293.905 168.245C292.997 166.724 291.689 165.549 289.981 164.722C288.299 163.894 286.297 163.48 283.975 163.48C281.012 163.48 278.503 164.134 276.448 165.442C274.392 166.75 273.084 168.525 272.524 170.768H268.36C268.68 168.579 269.548 166.67 270.962 165.042C272.404 163.387 274.259 162.119 276.528 161.238C278.823 160.331 281.359 159.877 284.135 159.877C286.751 159.877 289.207 160.357 291.502 161.318C293.798 162.279 295.666 163.814 297.108 165.923C298.549 168.032 299.27 170.688 299.27 173.891V204H295.266V196.473H294.946C293.771 198.955 291.983 200.997 289.581 202.599C287.205 204.174 284.375 204.961 281.092 204.961C278.53 204.961 276.181 204.454 274.045 203.439C271.937 202.398 270.255 200.904 269 198.955C267.773 197.007 267.159 194.684 267.159 191.988ZM271.163 192.148C271.163 193.99 271.616 195.605 272.524 196.993C273.431 198.381 274.673 199.449 276.248 200.196C277.822 200.917 279.597 201.277 281.573 201.277C284.215 201.277 286.578 200.637 288.66 199.355C290.742 198.074 292.357 196.326 293.504 194.11C294.679 191.868 295.266 189.372 295.266 186.623V181.698L292.624 181.898C288.273 182.245 285.283 182.459 283.655 182.539C279.331 182.833 276.167 183.82 274.165 185.502C272.164 187.184 271.163 189.399 271.163 192.148Z" fill="#14303F"/>
<path d="M310.202 160.518H314.126V167.324H314.446C315.381 165.082 316.956 163.28 319.171 161.919C321.387 160.558 323.896 159.877 326.698 159.877C327.179 159.877 327.553 159.904 327.819 159.957H328.78V164.041C327.819 163.881 327.045 163.801 326.458 163.801C324.136 163.801 322.04 164.308 320.172 165.322C318.304 166.337 316.835 167.738 315.768 169.526C314.727 171.315 314.206 173.33 314.206 175.572V204H310.202V160.518Z" fill="#14303F"/>
<path d="M348.441 204.881C344.971 204.881 341.901 203.933 339.232 202.038C336.59 200.143 334.534 197.5 333.066 194.11C331.625 190.694 330.904 186.783 330.904 182.379C330.904 178.001 331.638 174.118 333.106 170.728C334.574 167.311 336.643 164.655 339.312 162.76C341.982 160.838 345.051 159.877 348.521 159.877C352.018 159.877 354.914 160.811 357.21 162.68C359.532 164.548 361.227 166.924 362.295 169.807H362.615V146.023H366.619V204H362.695V194.951H362.295C361.174 197.834 359.452 200.21 357.13 202.078C354.834 203.947 351.938 204.881 348.441 204.881ZM348.842 201.197C351.698 201.197 354.167 200.396 356.249 198.795C358.331 197.167 359.919 194.924 361.013 192.068C362.135 189.212 362.695 185.956 362.695 182.299C362.695 178.669 362.135 175.439 361.013 172.609C359.919 169.78 358.331 167.564 356.249 165.963C354.167 164.361 351.698 163.561 348.842 163.561C345.985 163.561 343.503 164.375 341.394 166.003C339.312 167.631 337.724 169.873 336.63 172.729C335.535 175.559 334.988 178.749 334.988 182.299C334.988 185.876 335.535 189.105 336.63 191.988C337.724 194.844 339.312 197.1 341.394 198.755C343.503 200.383 345.985 201.197 348.842 201.197Z" fill="#14303F"/>
<path d="M0.570312 96.0001V4.35007H9.93031L46.7203 87.4201H42.9503L79.7403 4.35007H89.1003V96.0001H79.2203V18.2601H83.1203L48.4103 96.0001H41.2603L6.42031 18.2601H10.3203V96.0001H0.570312Z" fill="#14303F"/>
<path d="M126.072 97.1701C118.359 97.1701 112.509 95.0467 108.522 90.8001C104.622 86.5534 102.672 80.0534 102.672 71.3001V30.7401H113.202V71.0401C113.202 77.0201 114.415 81.4401 116.842 84.3001C119.269 87.0734 123.039 88.4601 128.152 88.4601C133.872 88.4601 138.465 86.5967 141.932 82.8701C145.399 79.1434 147.132 74.1601 147.132 67.9201V30.7401H157.662V96.0001H147.392V81.3101H149.082C147.262 86.3367 144.315 90.2367 140.242 93.0101C136.255 95.7834 131.532 97.1701 126.072 97.1701Z" fill="#14303F"/>
<path d="M170.291 96.0001V0.320068H180.821V96.0001H170.291Z" fill="#14303F"/>
<path d="M193.468 96.0001V30.7401H203.998V96.0001H193.468ZM192.168 15.9201V4.09007H205.168V15.9201H192.168Z" fill="#14303F"/>
<path d="M238.355 97.1701C233.155 97.1701 228.301 96.4767 223.795 95.0901C219.288 93.6167 215.561 91.5801 212.615 88.9801L216.255 81.5701C219.461 84.0834 222.928 85.9467 226.655 87.1601C230.468 88.3734 234.411 88.9801 238.485 88.9801C243.685 88.9801 247.585 88.0701 250.185 86.2501C252.871 84.3434 254.215 81.7434 254.215 78.4501C254.215 75.9367 253.348 73.9434 251.615 72.4701C249.968 70.9101 247.238 69.6967 243.425 68.8301L231.335 66.3601C225.788 65.1467 221.628 63.1101 218.855 60.2501C216.081 57.3034 214.695 53.5767 214.695 49.0701C214.695 45.2567 215.691 41.9201 217.685 39.0601C219.678 36.1134 222.581 33.8167 226.395 32.1701C230.208 30.4367 234.671 29.5701 239.785 29.5701C244.551 29.5701 248.928 30.3067 252.915 31.7801C256.988 33.1667 260.368 35.2034 263.055 37.8901L259.285 45.1701C256.685 42.6567 253.695 40.7934 250.315 39.5801C247.021 38.2801 243.598 37.6301 240.045 37.6301C234.931 37.6301 231.075 38.6701 228.475 40.7501C225.961 42.7434 224.705 45.3867 224.705 48.6801C224.705 51.1934 225.485 53.2734 227.045 54.9201C228.691 56.4801 231.205 57.6501 234.585 58.4301L246.675 60.9001C252.568 62.2001 256.945 64.2367 259.805 67.0101C262.751 69.6967 264.225 73.3367 264.225 77.9301C264.225 81.8301 263.141 85.2534 260.975 88.2001C258.808 91.0601 255.775 93.2701 251.875 94.8301C248.061 96.3901 243.555 97.1701 238.355 97.1701Z" fill="#14303F"/>
<path d="M273.337 96.0001V0.320068H283.867V45.1701H282.177C283.997 40.0567 287.03 36.2001 291.277 33.6001C295.61 30.9134 300.593 29.5701 306.227 29.5701C314.027 29.5701 319.833 31.6934 323.647 35.9401C327.46 40.1001 329.367 46.4267 329.367 54.9201V96.0001H318.837V55.5701C318.837 49.5034 317.623 45.0834 315.197 42.3101C312.857 39.5367 309.043 38.1501 303.757 38.1501C297.69 38.1501 292.837 40.0134 289.197 43.7401C285.643 47.4667 283.867 52.3634 283.867 58.4301V96.0001H273.337Z" fill="#14303F"/>
</svg>
