<svg width="70" height="78" viewBox="0 0 70 78" fill="none" xmlns="http://www.w3.org/2000/svg">
<g clip-path="url(#clip0_165_6)">
<path fill-rule="evenodd" clip-rule="evenodd" d="M65.1696 68.9404H65.1345L65.1696 68.9106V68.9404ZM17.4681 78.481H48.474V78.3484L48.3763 78.3811C45.8526 78.8864 44.9334 77.2896 44.9334 75.946C44.9334 75.5389 44.9432 74.7899 44.9559 73.8102C44.98 71.9586 45.0149 69.2831 45.0149 66.5353C59.1243 69.5606 62.0624 60.4864 62.0624 60.4864C64.3297 54.6055 67.6896 53.0937 67.6896 53.0937C72.3081 49.9851 67.3534 49.9851 67.3534 49.9851C62.231 50.3214 59.5428 55.1941 59.5428 55.1941C55.0089 62.9231 47.7031 60.7394 44.7633 59.3982C44.344 56.1214 42.9991 53.8529 41.572 52.5933C52.8255 51.4169 64.6652 47.048 64.6652 27.5565C64.6652 22.0112 62.651 17.4749 59.4597 13.9467C59.9636 12.6863 61.727 7.47894 58.955 0.503452C58.955 0.503452 54.6727 -0.841035 45.0157 5.71243C36.7125 3.47136 27.9575 3.47136 19.6544 5.71243C9.99652 -0.841035 5.71427 0.503452 5.71427 0.503452C2.94628 7.47652 4.70722 12.6863 5.21034 13.9467C1.93515 17.4749 0 22.0112 0 27.5565C0 47.048 11.8397 51.332 23.177 52.5933C21.329 54.1892 19.735 57.2129 19.735 62.0023C19.735 66.5462 19.7713 70.4911 19.7954 73.1111V73.1127V73.1138V73.1159C19.8074 74.4171 19.8164 75.3909 19.8164 75.9484C19.8164 77.0766 19.1657 78.3824 17.4681 78.4757V78.481Z" fill="#14303F"/>
</g>
<defs>
<clipPath id="clip0_165_6">
<rect width="70" height="78" fill="white"/>
</clipPath>
</defs>
</svg>
