<svg width="70" height="78" viewBox="0 0 70 78" fill="none" xmlns="http://www.w3.org/2000/svg">
<g clip-path="url(#clip0_244_2)">
<mask id="mask0_244_2" style="mask-type:luminance" maskUnits="userSpaceOnUse" x="0" y="0" width="70" height="78">
<path d="M70 0H0V78H70V0Z" fill="white"/>
</mask>
<g mask="url(#mask0_244_2)">
<path fill-rule="evenodd" clip-rule="evenodd" d="M4.48897 68.9404H4.52407L4.48897 68.9106V68.9404ZM52.1905 78.481H21.1846V78.3484L21.2823 78.3811C23.806 78.8864 24.7252 77.2896 24.7252 75.946C24.7252 75.5389 24.7154 74.7899 24.7027 73.8102C24.6786 71.9586 24.6437 69.2831 24.6437 66.5353C10.5343 69.5606 7.59617 60.4864 7.59617 60.4864C5.32887 54.6055 1.96897 53.0937 1.96897 53.0937C-2.64953 49.9851 2.30517 49.9851 2.30517 49.9851C7.42757 50.3214 10.1158 55.1941 10.1158 55.1941C14.6497 62.9231 21.9555 60.7394 24.8953 59.3982C25.3146 56.1214 26.6595 53.8529 28.0866 52.5933C16.8331 51.4169 4.99337 47.048 4.99337 27.5565C4.99337 22.0112 7.00757 17.4749 10.1989 13.9467C9.69497 12.6863 7.93157 7.47894 10.7036 0.503452C10.7036 0.503452 14.9859 -0.841035 24.6429 5.71243C32.9461 3.47136 41.7011 3.47136 50.0042 5.71243C59.662 -0.841035 63.9443 0.503452 63.9443 0.503452C66.7123 7.47652 64.9513 12.6863 64.4482 13.9467C67.7234 17.4749 69.6586 22.0112 69.6586 27.5565C69.6586 47.048 57.8189 51.332 46.4816 52.5933C48.3296 54.1892 49.9236 57.2129 49.9236 62.0023C49.9236 66.5462 49.8873 70.4911 49.8632 73.1111V73.1127V73.1138V73.1159C49.8512 74.4171 49.8422 75.3909 49.8422 75.9484C49.8422 77.0766 50.4929 78.3824 52.1905 78.4757V78.481Z" fill="#14303F"/>
</g>
</g>
<defs>
<clipPath id="clip0_244_2">
<rect width="70" height="78" fill="white"/>
</clipPath>
</defs>
</svg>
