<svg width="54" height="60" viewBox="0 0 54 60" fill="none" xmlns="http://www.w3.org/2000/svg">
<path fill-rule="evenodd" clip-rule="evenodd" d="M37.6041 15.3189C36.1889 13.9292 33.8011 10.8693 35.7111 7.23484C37.6212 3.60034 42.3339 3.26942 44.9704 5.04895C47.6069 6.82849 49.2498 10.6165 46.8994 14.0986C44.5491 17.5808 41.3599 17.8539 37.6041 15.3189ZM37.5551 12.4058C37.1318 12.1926 36.3059 11.36 36.3885 9.73583C36.4916 7.70564 37.2253 6.02861 39.6684 5.25191C42.1114 4.47521 44.8282 6.77955 45.1155 8.9285C45.4028 11.0774 44.1419 13.2675 41.6571 14.0523C39.6931 14.6726 37.8979 13.0958 37.5551 12.4058Z" fill="black" fill-opacity="0.5"/>
<path d="M28.047 15.1606C32.2935 15.1876 36.6957 17.501 37.8474 18.2091C46.7738 25.4806 46.6635 31.5002 45.7038 38.47C44.7441 45.4399 36.8698 52.1747 28.5828 52.3291C20.2958 52.4835 12.4713 46.302 10.2885 39.9812C8.10576 33.6603 9.34159 25.665 14.0422 21.0124C18.7428 16.3597 23.8004 15.1336 28.047 15.1606Z" fill="black" fill-opacity="0.5"/>
<path fill-rule="evenodd" clip-rule="evenodd" d="M37.1791 13.3904C35.8237 12.0595 33.5369 9.12905 35.3662 5.64827C37.1955 2.16749 41.7088 1.85056 44.2338 3.55483C46.7588 5.2591 48.3322 8.88688 46.0813 12.2218C43.8304 15.5567 40.776 15.8182 37.1791 13.3904ZM37.78 11.4728C37.3746 11.2685 36.5837 10.4712 36.6627 8.91572C36.7615 6.97139 37.4642 5.3653 39.8039 4.62145C42.1436 3.8776 44.7454 6.08448 45.0206 8.14254C45.2958 10.2006 44.0882 12.298 41.7086 13.0496C39.8276 13.6437 38.1083 12.1336 37.78 11.4728Z" fill="#E6B537"/>
<path d="M35.3662 5.64827L35.1449 5.53197L35.3662 5.64827ZM37.1791 13.3904L37.0039 13.5688L37.0203 13.5848L37.0392 13.5976L37.1791 13.3904ZM36.6627 8.91572L36.413 8.90304L36.6627 8.91572ZM37.78 11.4728L38.0038 11.3615L37.9668 11.287L37.8925 11.2495L37.78 11.4728ZM39.8039 4.62145L39.7282 4.3832L39.8039 4.62145ZM45.0206 8.14254L45.2684 8.10941L45.0206 8.14254ZM41.7086 13.0496L41.7838 13.288L41.7086 13.0496ZM35.1449 5.53197C34.1917 7.34575 34.3109 9.02485 34.845 10.4152C35.3757 11.7966 36.3141 12.8914 37.0039 13.5688L37.3543 13.212C36.6887 12.5585 35.806 11.5226 35.3118 10.2359C34.8209 8.95806 34.7114 7.43157 35.5875 5.76457L35.1449 5.53197ZM44.3737 3.34762C43.0521 2.45564 41.2253 2.0994 39.4948 2.41112C37.7586 2.72387 36.1008 3.71306 35.1449 5.53197L35.5875 5.76457C36.4609 4.1027 37.9744 3.19304 39.5834 2.9032C41.1982 2.61233 42.8905 2.94976 44.0939 3.76205L44.3737 3.34762ZM46.2885 12.3616C48.6368 8.88243 46.9807 5.1073 44.3737 3.34762L44.0939 3.76205C46.5368 5.41091 48.0276 8.89133 45.8741 12.0819L46.2885 12.3616ZM37.0392 13.5976C38.8641 14.8293 40.5874 15.404 42.1646 15.2153C43.7507 15.0256 45.1348 14.071 46.2885 12.3616L45.8741 12.0819C44.7769 13.7075 43.5084 14.551 42.1052 14.7188C40.6934 14.8877 39.0911 14.3793 37.319 13.1832L37.0392 13.5976ZM36.413 8.90304C36.3292 10.5536 37.1704 11.4456 37.6675 11.6961L37.8925 11.2495C37.5788 11.0915 36.8382 10.3888 36.9124 8.92841L36.413 8.90304ZM39.7282 4.3832C38.5125 4.76967 37.7004 5.38852 37.1835 6.18195C36.6699 6.97032 36.4637 7.9069 36.413 8.90304L36.9124 8.92841C36.9606 7.98021 37.1551 7.14158 37.6024 6.45487C38.0465 5.7732 38.7555 5.21708 39.8796 4.8597L39.7282 4.3832ZM45.2684 8.10941C45.1197 6.9971 44.3521 5.8753 43.3342 5.12961C42.3139 4.38211 40.9962 3.98005 39.7282 4.3832L39.8796 4.8597C40.9513 4.519 42.1044 4.84846 43.0387 5.53295C43.9755 6.21925 44.6464 7.22992 44.7728 8.17567L45.2684 8.10941ZM41.7838 13.288C44.2763 12.5007 45.5601 10.2909 45.2684 8.10941L44.7728 8.17567C45.0315 10.1103 43.9 12.0953 41.6333 12.8112L41.7838 13.288ZM37.5561 11.584C37.7494 11.9732 38.3058 12.5487 39.0421 12.9512C39.7874 13.3585 40.7591 13.6116 41.7838 13.288L41.6333 12.8112C40.777 13.0816 39.9486 12.8768 39.2819 12.5124C38.6062 12.1431 38.1388 11.6332 38.0038 11.3615L37.5561 11.584Z" fill="black"/>
<path fill-rule="evenodd" clip-rule="evenodd" d="M37.0677 13.3053C37.0783 13.3158 37.0889 13.3262 37.0994 13.3365C40.6963 15.7643 43.7507 15.5028 46.0016 12.1679C48.2525 8.83304 46.6791 5.20526 44.1541 3.50099C44.0865 3.4554 44.0176 3.41125 43.9473 3.36857C46.3362 5.13267 47.7484 8.64102 45.5662 11.8741C43.4 15.0835 40.4897 15.4465 37.0677 13.3053Z" fill="#8A6D21"/>
<path d="M36.0538 13.8246C35.952 13.57 36.0691 13.1601 36.1403 12.9869L36.3404 12.6905L38.5197 14.3273C38.5564 14.3743 38.5758 14.5179 38.3593 14.7169C38.1429 14.916 37.7366 15.0821 37.5605 15.1403C37.8069 15.5456 37.693 15.7718 37.6052 15.8342C38.0833 16.1902 38.0551 16.5362 37.9166 16.7414C37.778 16.9466 37.5682 17.0041 37.2862 16.8137L34.8184 15.1481C34.2732 14.7801 34.0996 14.5744 34.0809 14.5176C34.2623 13.8434 34.997 14.1402 35.3417 14.3729C35.4189 14.2922 35.6092 14.1286 35.7525 14.1191C35.9315 14.1072 36.1811 14.1429 36.0538 13.8246Z" fill="#8A6D21" stroke="black" stroke-width="0.5"/>
<path d="M26.047 12.1606C30.2935 12.1876 34.6957 14.501 35.8474 15.2091C44.7738 22.4806 44.6635 28.5002 43.7038 35.47C42.7441 42.4399 34.8698 49.1747 26.5828 49.3291C18.2958 49.4835 10.4713 43.302 8.28854 36.9812C6.10576 30.6603 7.34159 22.665 12.0422 18.0124C16.7428 13.3597 21.8004 12.1336 26.047 12.1606Z" fill="#E6B537" stroke="black" stroke-width="0.5"/>
<path fill-rule="evenodd" clip-rule="evenodd" d="M15.1488 45.5876C18.3969 47.8665 22.3876 49.3441 26.4917 49.2676C34.7787 49.1132 42.653 42.3784 43.6127 35.4085C44.5724 28.4387 44.6828 22.4191 35.7564 15.1476C35.6487 15.0814 35.5126 15.0012 35.3509 14.9101C44.0277 22.0908 43.9105 28.063 42.9598 34.9678C42 41.9376 34.1257 48.6724 25.8387 48.8268C22.0056 48.8983 18.2715 47.6141 15.1488 45.5876Z" fill="#8A6D21"/>
<path d="M19.9542 16.1333C26.8004 13.8333 32.307 16.3044 34.3648 17.6933C39.9136 22.269 40.8656 24.7802 41.1649 32.1799C41.4642 39.5796 34.5582 46.1993 26.1992 46.5093C17.2211 45.3632 11.6092 40.468 10.2869 33.1392C8.96462 25.8103 13.108 18.4332 19.9542 16.1333Z" fill="white" stroke="black" stroke-width="0.5"/>
<path fill-rule="evenodd" clip-rule="evenodd" d="M33.4942 17.1056C31.4364 15.7167 25.9298 13.2457 19.0836 15.5456C12.2374 17.8456 8.09401 25.2226 9.41629 32.5515C10.2177 36.9932 12.5946 40.541 16.3417 42.9021C13.0959 40.5569 11.0243 37.2265 10.2868 33.1391C8.96454 25.8102 13.1079 18.4332 19.9541 16.1332C26.1763 14.0429 31.2921 15.8935 33.7177 17.2909C33.644 17.2295 33.5695 17.1678 33.4942 17.1056Z" fill="#8A6D21"/>
<path fill-rule="evenodd" clip-rule="evenodd" d="M32.5159 24.6233L37.2715 20.9418L32.6208 24.795C32.6794 24.9276 32.7524 25.2198 32.5759 25.3277C32.3993 25.4356 32.2335 25.4471 32.1726 25.4394L32.1141 25.5089C32.2054 25.8236 32.2586 26.5388 31.7409 26.8822C31.0938 27.3114 30.5666 26.7243 30.4453 26.3605C30.3482 26.0696 30.5338 25.9359 30.6387 25.9055C30.5774 26.044 30.4867 26.3622 30.6142 26.5267C30.7736 26.7324 31.1494 26.9406 31.621 26.686C32.0926 26.4315 32.0964 25.7555 31.7925 25.3686C31.4887 24.9817 30.8184 24.9873 30.3239 25.3906C29.8294 25.7939 29.6197 26.6631 29.7274 27.1699C29.8096 27.3778 30.0086 27.8063 30.1471 27.8564C30.3201 27.9191 30.4795 28.1248 30.2969 28.1017C30.2698 28.0982 30.2426 28.0934 30.2156 28.0886C30.0607 28.061 29.9128 28.0346 29.8351 28.2829C29.8219 28.3253 29.8088 28.3761 29.794 28.4333C29.7075 28.7692 29.5646 29.324 28.9988 29.6698C28.4691 29.9936 27.7827 29.8294 27.5056 29.7068L26.4485 30.6224L26.0357 30.1674L26.9334 29.0461C26.7694 28.686 26.6049 27.8255 27.2588 27.2641C28.0762 26.5624 29.207 27.4206 28.9278 28.2312C28.6486 29.0418 28.0151 28.7217 27.9401 28.5991C27.9153 28.5586 27.9298 28.5641 27.973 28.5806C28.0603 28.614 28.2653 28.6924 28.5014 28.5255C28.8542 28.2762 28.8721 27.8095 28.5367 27.4261C28.2013 27.0427 27.3664 27.1646 27.1444 27.7382C26.9224 28.3118 26.917 28.854 27.3394 29.2695C27.7618 29.685 28.6146 29.7026 28.9279 29.4437C29.2412 29.1848 29.4755 28.9069 29.628 28.2747C29.7806 27.6426 29.3418 27.035 29.1879 26.8934C29.0339 26.7517 29.0925 26.6822 29.241 26.7598C29.2701 26.7751 29.2997 26.7953 29.3288 26.8151C29.4477 26.8962 29.558 26.9715 29.5952 26.6781C29.6415 26.3129 29.745 25.7108 30.1359 25.3034C30.5269 24.896 31.2748 24.742 31.8007 25.1615L31.8892 25.1411C31.8588 25.0362 31.7968 24.8136 31.9887 24.6425C32.1805 24.4713 32.4364 24.5484 32.5159 24.6233ZM32.4138 24.7868C32.3143 24.6792 31.9261 24.8155 32.1059 25.1097C32.2858 25.404 32.6917 25.0211 32.4138 24.7868Z" fill="black"/>
<path fill-rule="evenodd" clip-rule="evenodd" d="M24.8304 31.9163L23.3855 32.4018C23.3734 32.4781 23.3842 32.642 23.5243 32.6873C23.6994 32.7439 23.9689 32.8877 24.0133 33.086C24.0576 33.2843 23.579 34.0494 23.4148 34.2652C23.2507 34.4809 23.0524 34.5253 22.8976 34.5224C22.7429 34.5195 22.0091 34.3671 21.8072 34.3206C21.6052 34.2741 21.4766 34.0155 21.5398 33.7765C21.3652 33.8836 20.9602 34.1126 20.7371 34.1725C20.4581 34.2474 19.8799 34.3434 20.084 33.9896C19.9406 34.0438 19.6195 34.1101 19.4817 33.941L16.4148 35.2556L19.4105 33.7528C19.3507 33.6218 19.3385 33.3191 19.7686 33.1564C19.6518 33.1186 19.4533 33.0053 19.5927 32.8542C19.767 32.6653 20.1026 32.4153 20.8421 32.2583C20.7072 32.1455 20.4736 31.8692 20.6183 31.667C20.7992 31.4141 21.4325 30.652 21.5466 30.5474C21.6606 30.4427 21.9062 30.442 22.0544 30.5088C22.2026 30.5756 22.9908 30.9533 23.1492 31.047C23.3076 31.1407 23.4232 31.5271 23.2728 31.8606L24.4518 31.3221L24.8304 31.9163ZM20.9172 32.0508C21.0858 32.1714 21.8936 32.3572 22.1086 32.2758C22.5127 32.1229 22.3621 31.5653 22.1972 31.5356C22.1073 31.5193 22.0815 31.5519 22.0462 31.5963C22.0168 31.6335 21.9806 31.679 21.895 31.7114C21.7068 31.7826 21.6422 31.5306 21.7395 31.463C21.8368 31.3954 22.1223 31.2566 22.365 31.4106C22.6076 31.5646 22.5212 31.9046 22.4711 32.0157C22.421 32.1269 22.3644 32.302 22.5358 32.2678C22.7072 32.2336 22.9557 32.0781 23.0726 31.8188C23.1895 31.5594 23.1517 31.2971 22.9832 31.1766C22.8146 31.056 22.1745 30.7452 22.0365 30.7052C21.8985 30.6653 21.69 30.6828 21.5491 30.7976C21.4385 30.8876 21.1857 31.2018 21.0107 31.4193L21.0107 31.4193C20.9627 31.479 20.9206 31.5314 20.8888 31.5699C20.7414 31.7486 20.7487 31.9302 20.9172 32.0508ZM21.7694 32.435C21.5776 32.4154 20.8475 32.3537 20.4712 32.4962C20.0949 32.6386 19.8632 32.7571 19.9141 32.8915C19.965 33.0258 21.0031 32.9348 21.3939 32.823C21.7266 32.7277 22.2723 32.4645 21.7694 32.435ZM20.2085 33.1925C20.278 33.2722 20.3784 33.3875 20.4103 33.4718C20.451 33.5793 20.5317 33.5488 20.592 33.4645C20.6522 33.3803 21.0481 33.046 21.1556 33.0053C20.8841 33.0185 20.3235 33.0476 20.2539 33.0586C20.1669 33.0723 20.1208 33.0898 20.1604 33.1362C20.1727 33.1514 20.1895 33.1706 20.2085 33.1925L20.2085 33.1925ZM19.5735 33.6964C19.6345 33.8577 19.83 33.9681 20.1423 33.8191C20.4547 33.6701 20.2585 33.3142 20.0565 33.2677C19.8882 33.229 19.5219 33.3165 19.5735 33.6964ZM20.4155 34.0537C20.4017 33.936 20.6261 33.636 20.8978 33.3795C21.1694 33.123 21.7942 32.8251 21.9017 32.7844C22.3048 32.6318 21.6381 33.468 21.4267 33.6402C21.2153 33.8124 20.4293 34.1714 20.4155 34.0537ZM22.167 32.954C22.039 33.1476 21.752 33.5819 21.7064 33.8109C21.6534 34.0768 21.8859 34.2039 22.1416 34.23C22.2439 34.2405 22.3818 34.2669 22.5196 34.2934C22.7264 34.3332 22.9332 34.3729 23.0199 34.3585C23.1645 34.3345 23.2683 34.203 23.3453 34.0817C23.4223 33.9603 23.7767 33.273 23.6954 33.058C23.614 32.843 23.149 32.5888 22.9405 32.6063C22.732 32.6237 22.6078 32.7015 22.7393 32.8053C22.8708 32.9092 23.2217 33.268 22.9602 33.5514C22.6988 33.8347 22.3413 33.5399 22.4081 33.3916C22.4749 33.2434 22.7306 33.2696 22.7982 33.3669C22.8658 33.4642 22.9631 33.3967 22.9493 33.279C22.9355 33.1613 22.3789 32.6652 22.2148 32.881C22.2041 32.8978 22.1876 32.9228 22.167 32.954Z" fill="black"/>
<path d="M25.8191 30.9096C25.8869 30.8091 25.9068 30.6763 25.827 30.6225C25.7152 30.547 25.4054 30.9715 25.5332 31.0578C25.6609 31.144 25.7513 31.01 25.8191 30.9096Z" fill="white"/>
<path fill-rule="evenodd" clip-rule="evenodd" d="M32.2472 18.591L32.9142 19.0412C32.9618 19.0733 32.9613 19.177 32.8499 19.1365C32.7608 19.1041 32.7226 19.0853 32.7147 19.0799L32.2675 20.6157L33.5407 19.6027C33.4666 19.5412 33.3043 19.4085 33.2471 19.3699C33.1756 19.3217 33.2399 19.2264 33.3591 19.3068L33.764 19.5801C33.7831 19.593 33.7664 19.6279 33.7557 19.6438C34.0203 19.834 34.5733 20.2304 34.6686 20.2947C34.7877 20.3751 34.827 20.4709 34.8109 20.4948C34.7981 20.5138 34.673 20.4594 34.612 20.4299C34.406 20.6837 33.9521 21.2535 33.7849 21.5012C33.6177 21.7489 32.8796 22.774 32.5314 23.2556L32.6976 23.4718C32.7529 23.5438 32.7202 23.6951 32.538 23.5027C32.5081 23.4712 32.4753 23.4358 32.4401 23.3979C32.2606 23.2044 32.0198 22.9449 31.8007 22.7971C31.6342 22.6847 31.4959 22.5773 31.395 22.499C31.3371 22.4541 31.2915 22.4187 31.26 22.3974C31.1736 22.3391 31.2356 22.3116 31.3082 22.326C31.3663 22.3375 31.4285 22.3725 31.4523 22.3886L31.7941 21.163C31.5301 21.3315 30.9571 21.7353 30.777 22.0021L31.0152 22.1629C31.0629 22.195 31.0384 22.2826 30.7842 22.1456C30.638 22.0669 30.5259 22.0226 30.4435 21.99C30.3824 21.9659 30.3376 21.9482 30.3072 21.9277C30.2357 21.8794 30.3316 21.8401 30.4352 21.8407C30.5181 21.8412 30.6289 21.879 30.674 21.8979C30.9463 21.6656 31.5358 21.1759 31.7149 21.0749C31.9388 20.9486 32.1925 19.8023 32.2336 19.5873C32.2664 19.4153 32.3139 19.0059 32.3336 18.8226C32.2121 18.6944 32.0247 18.4686 32.2472 18.591ZM33.6378 19.7156C33.2029 20.0346 32.3042 20.7154 32.1884 20.887C32.0726 21.0585 31.8412 22.1205 31.74 22.63C31.7505 22.6487 31.7844 22.6669 31.8359 22.5907C31.8681 22.5431 32.3281 21.9001 32.7881 21.257C33.2481 20.614 33.7081 19.971 33.7403 19.9234C33.8046 19.8281 33.7015 19.7239 33.6378 19.7156ZM34.1458 20.0931C34.2411 20.1574 34.2488 20.1973 34.1845 20.2926C34.1331 20.3688 32.8772 22.1609 32.2557 23.0474C32.1974 23.0312 32.0904 22.9636 32.1295 22.8235C32.1655 22.6944 32.3017 22.5007 32.461 22.2741C32.5176 22.1936 32.5772 22.1089 32.6362 22.0214C32.7771 21.8127 33.217 21.1811 33.5462 20.7085L33.5462 20.7084L33.5463 20.7083L33.5463 20.7082C33.743 20.4258 33.9002 20.2002 33.9302 20.1556C34.0106 20.0365 34.1002 20.0579 34.1458 20.0931Z" fill="black"/>
<path d="M34.5508 25.9771C34.532 25.8791 34.6669 26.0672 34.7367 26.1735C34.8128 26.1657 35.027 26.121 35.2754 26.0046C35.5239 25.8882 37.1449 25.0176 37.9244 24.5968C37.758 24.1093 37.9031 24.1564 37.9432 24.2544C37.9832 24.3524 38.3205 25.0062 38.4005 25.2023C38.4805 25.3983 38.3825 25.4387 38.3504 25.3815C38.3246 25.3357 38.2382 25.1282 38.1982 25.0302L34.9775 26.6557C34.9956 26.7862 35.0204 27.0326 34.9752 26.9737C34.9188 26.9001 34.5743 26.0995 34.5508 25.9771Z" fill="black"/>
<path fill-rule="evenodd" clip-rule="evenodd" d="M39.5182 31.4038C39.5224 31.8049 39.5282 32.3581 39.5008 32.5018C39.4597 32.7167 39.4192 32.8281 39.3644 32.6524C39.3465 32.5951 39.3404 32.5531 39.3359 32.522C39.3266 32.4577 39.324 32.4398 39.2381 32.4285C39.1107 32.4119 37.9876 32.2779 37.5493 32.2594C37.111 32.241 36.0111 32.2267 35.9313 32.2422C35.882 32.2518 35.8843 32.283 35.8875 32.3261C35.8895 32.3527 35.8918 32.3839 35.8825 32.4173C35.858 32.5048 35.7294 32.6954 35.7634 32.3369C35.7815 32.1453 35.7845 31.8147 35.7872 31.5192C35.7895 31.2619 35.7916 31.0312 35.8032 30.9422C35.8282 30.7511 35.8604 30.7034 35.9074 30.8392C35.9451 30.9478 35.9751 31.0814 35.9855 31.1346C36.36 31.1447 37.2048 31.1671 37.5874 31.1756C37.9699 31.1842 38.9104 31.2018 39.3328 31.2095C39.3657 31.0237 39.4488 30.7192 39.5174 30.9874C39.5144 31.0429 39.5161 31.2046 39.5182 31.4038ZM39.3143 31.6479C39.3614 31.7837 39.3685 31.9272 39.1375 31.91C38.9064 31.8927 37.5278 31.829 37.1372 31.8427C36.8516 31.8528 36.5025 31.8198 36.2699 31.7979C36.1843 31.7898 36.1145 31.7832 36.0694 31.7808C35.9021 31.7719 36.0075 31.4616 36.1111 31.4622C36.6848 31.5027 37.899 31.5872 38.1668 31.6015C38.3628 31.612 38.5781 31.6116 38.7564 31.6113C38.8825 31.6111 38.9901 31.6109 39.0594 31.6146C39.1039 31.617 39.1419 31.618 39.174 31.6188C39.2628 31.6211 39.3062 31.6223 39.3143 31.6479Z" fill="black"/>
<path fill-rule="evenodd" clip-rule="evenodd" d="M34.6119 35.7897C34.8286 35.5199 34.7393 35.8064 34.6429 35.9493C34.5955 36.0342 34.7796 36.1522 34.9243 36.245L34.9243 36.245C34.9513 36.2624 34.977 36.2789 34.9996 36.2941C35.1425 36.3906 37.3578 37.8858 37.4692 37.9263C37.4911 37.9343 37.506 37.9428 37.5173 37.9494C37.5284 37.9558 37.5361 37.9602 37.5438 37.9603C37.5616 37.9604 37.5795 37.9375 37.6385 37.8621C37.6608 37.8336 37.689 37.7975 37.7252 37.7524C37.942 37.4826 37.9408 37.6899 37.8122 37.8804C37.7607 37.9567 37.5885 38.1954 37.3818 38.4819L37.3818 38.482L37.3818 38.482C37.0717 38.9118 36.6841 39.449 36.5105 39.7063C36.2211 40.1351 36.383 39.6896 36.4956 39.5229C36.6081 39.3561 36.5605 39.324 36.4176 39.2275C36.3622 39.1901 36.2366 39.0949 36.0826 38.9783L36.0826 38.9783L36.0826 38.9783C35.8393 38.7939 35.5252 38.5559 35.3063 38.4081C35.0205 38.2152 34.1494 37.6735 33.7496 37.4268C33.7389 37.4426 33.6727 37.4997 33.4936 37.6007C33.3081 37.7053 33.4471 37.5054 33.6099 37.2712C33.6437 37.2227 33.6784 37.1727 33.7115 37.1237C33.767 37.0415 33.847 36.9186 33.9381 36.7789C34.1639 36.4324 34.4574 35.9819 34.6119 35.7897ZM35.4693 36.9066L35.4693 36.9066L35.4693 36.9066C35.1703 36.6959 34.8623 36.4788 34.7519 36.4043C34.7044 36.3719 34.5852 36.2917 34.4893 36.3311C34.3934 36.3704 34.3368 36.5055 34.3922 36.5776C34.4476 36.6497 35.1146 37.0998 35.9483 37.6626C36.782 38.2253 37.1554 38.4426 37.2197 38.3474C37.2841 38.2521 37.2048 38.1639 37.078 38.0437C36.9512 37.9234 36.308 37.4893 36.1174 37.3606C36.025 37.2982 35.7512 37.1053 35.4693 36.9066ZM34.8815 37.3009C35.2889 37.5859 35.8146 37.9537 36.0335 38.1014L36.8195 38.632C36.891 38.6803 37.0101 38.7606 36.9458 38.8559C36.9345 38.8727 36.9244 38.8892 36.9149 38.9048C36.8702 38.978 36.8375 39.0316 36.7457 38.9983C36.6859 38.9765 36.4729 38.8413 36.2416 38.6946C36.0421 38.568 35.8291 38.4329 35.6893 38.3545C35.4794 38.237 34.9589 37.8595 34.5971 37.5971C34.4385 37.4821 34.3104 37.3892 34.2523 37.35C34.0617 37.2213 33.9349 37.101 34.0313 36.9581C34.1278 36.8152 34.2401 36.8544 34.3583 36.9361C34.4136 36.9735 34.6239 37.1206 34.8815 37.3009Z" fill="black"/>
<path fill-rule="evenodd" clip-rule="evenodd" d="M29.5896 40.2875C29.996 40.1358 30.5552 39.9271 30.771 39.785C31.083 39.5796 31.5147 39.3509 31.5463 39.4069C31.5715 39.4516 31.4762 39.5792 31.4254 39.6373C31.559 39.9702 31.8721 40.7016 32.0555 40.9641C32.1837 41.1475 32.4274 41.5931 32.6313 41.9659C32.7921 42.2599 32.9282 42.5087 32.9631 42.5475C33.0372 42.63 33.091 42.6076 33.1762 42.5722L33.1941 42.5648C33.29 42.5255 33.5372 42.5189 33.3531 42.6374C33.1691 42.7559 32.5052 43.1746 31.9299 43.4104C31.6411 43.5288 31.3381 43.6813 31.0948 43.8037C30.8534 43.9251 30.6708 44.017 30.6192 44.0167C30.5156 44.0161 30.5239 43.9524 30.668 43.8416C30.6607 43.7326 30.6113 43.4427 30.4727 43.155C30.2994 42.7953 29.4251 40.957 29.3543 40.8052C29.2834 40.6533 29.2119 40.6051 29.156 40.6366C29.1 40.6682 28.6456 40.6736 29.181 40.4455C29.2574 40.4115 29.4083 40.3552 29.5896 40.2875L29.5896 40.2875L29.5896 40.2875ZM30.5049 41.6253C30.658 41.9362 30.7973 42.219 30.852 42.3362C30.9111 42.463 30.991 42.6218 31.0673 42.7737L31.0673 42.7737C31.1738 42.9857 31.2736 43.1843 31.301 43.2634C31.3481 43.3992 31.3314 43.5266 31.2516 43.5421C31.1718 43.5576 31.1081 43.5492 30.958 43.3092C30.8585 43.1501 30.3362 42.0801 29.9775 41.345L29.9775 41.345L29.9774 41.3449C29.7954 40.9719 29.6554 40.6851 29.6341 40.6474C29.575 40.5426 29.6203 40.5082 29.6855 40.4588L29.699 40.4485C29.7711 40.3931 29.8908 40.3699 29.9539 40.4818C29.9828 40.5652 30.2613 41.1308 30.5049 41.6253ZM30.593 40.2542C30.5459 40.1185 30.4423 40.1179 30.3625 40.1334C30.2726 40.1637 30.2744 40.2126 30.3137 40.3084L30.334 40.3589C30.3942 40.5085 30.5386 40.8677 30.6835 41.1475C30.7318 41.2408 30.8204 41.4233 30.9257 41.6404C31.1812 42.167 31.5354 42.897 31.653 43.0501C31.7644 43.1949 31.8011 43.2427 31.842 43.2467C31.8622 43.2486 31.8834 43.2399 31.9151 43.227C32.0109 43.1877 32.0115 43.084 31.9484 42.9721C31.8853 42.8601 31.5857 42.2765 31.444 41.9728C31.3838 41.8439 31.2299 41.5393 31.069 41.221C30.8509 40.7893 30.62 40.3324 30.593 40.2542ZM30.9936 39.866C31.0895 39.8267 31.1449 39.8987 31.2396 40.0667C31.2612 40.1051 31.3073 40.1853 31.3677 40.2908C31.5716 40.6463 31.9398 41.2882 32.0918 41.578C32.2889 41.9538 32.5408 42.5052 32.5879 42.641C32.5895 42.6456 32.591 42.6501 32.5926 42.6546C32.6373 42.7832 32.6689 42.8737 32.5146 42.9036C32.3978 42.9263 32.3627 42.8555 32.3181 42.7656C32.3018 42.7328 32.2842 42.6973 32.2609 42.663C32.2198 42.6025 32.0326 42.2419 31.8308 41.8531C31.6056 41.4195 31.3622 40.9507 31.2831 40.8241C31.133 40.5842 30.9365 40.1048 30.8972 40.0089C30.8657 39.9322 30.9484 39.8817 30.9936 39.866Z" fill="black"/>
<path d="M25.5597 42.7489C25.6286 43.0673 25.8819 44.1673 25.9999 44.6775C26.0779 44.6735 26.2744 44.6724 26.4363 44.7001C26.6387 44.7348 26.5978 44.8431 26.4841 44.8683C26.3703 44.8935 25.6241 44.8997 25.3774 44.8351C25.1307 44.7705 25.4562 44.7184 25.5099 44.6866C25.5636 44.6549 25.5444 44.5399 25.5409 44.4017C25.5375 44.2634 25.0716 42.1815 25.0367 42.0899C25.0017 41.9984 24.8574 42.5467 24.7569 42.8868C24.6564 43.2268 24.3806 44.4002 24.3618 44.5235C24.3469 44.6222 24.417 44.6967 24.4539 44.7217C24.6943 44.7479 24.6628 44.7946 24.6091 44.8264C24.5554 44.8581 24.3436 44.8851 24.1855 44.8804C24.0274 44.8756 23.825 44.841 23.8344 44.7793C23.8437 44.7176 24.0934 44.6823 24.1629 44.6272C24.2323 44.5721 24.1934 44.104 24.3505 43.6322C24.5077 43.1604 24.9598 41.6302 25.0638 41.4284C25.1677 41.2267 25.212 41.2566 25.2534 41.3865C25.2947 41.5164 25.4735 42.3508 25.5597 42.7489Z" fill="black"/>
<path fill-rule="evenodd" clip-rule="evenodd" d="M19.0828 38.8654C18.9852 38.7533 18.8169 38.5403 18.925 38.5855C19.0602 38.6421 19.4651 38.9154 19.5997 39.0756C19.7343 39.2358 19.8606 39.4597 19.4318 39.1703C19.2982 39.2997 18.9764 39.6396 18.7577 39.9635C18.6556 40.1149 18.4525 40.4014 18.236 40.7068C17.8732 41.2186 17.473 41.7833 17.4476 41.8531C17.4072 41.9645 17.3821 42.1556 17.5983 41.9895C17.8145 41.8233 19.3294 40.3494 19.6021 40.0481C19.8749 39.7467 20.2995 39.3745 20.1542 39.6925C20.0089 40.0105 19.5319 41.1795 19.3699 41.625C19.2404 41.9813 18.9174 42.7064 18.7721 43.0244C18.968 43.1451 19.2883 43.359 19.002 43.2489C18.6441 43.1114 18.1355 42.8374 17.7704 42.5564C17.6769 42.4844 17.5568 42.3944 17.4288 42.2986C17.0572 42.0203 16.6192 41.6922 16.5722 41.609C16.5091 41.497 16.8194 41.6024 17.0415 41.787C17.5344 41.091 18.5555 39.6467 18.697 39.4371L19.0828 38.8654ZM17.7972 42.0544C17.9496 41.8799 19.0078 40.8258 19.168 40.6912C19.1804 40.6808 19.1925 40.6705 19.2042 40.6606C19.3431 40.5429 19.4236 40.4746 19.3193 40.724C19.3024 40.7642 19.2759 40.828 19.2426 40.908C19.0523 41.3651 18.6409 42.3531 18.5517 42.5289C18.5241 42.5834 18.5037 42.6308 18.4869 42.6697C18.44 42.7786 18.4212 42.8222 18.351 42.7749C18.2558 42.7106 17.827 42.4212 17.7478 42.333C17.6686 42.2449 17.6778 42.1818 17.7972 42.0544Z" fill="black"/>
<path fill-rule="evenodd" clip-rule="evenodd" d="M12.7408 36.4069C12.629 36.1273 12.5244 35.8656 12.4769 35.7587C12.3667 35.511 12.3125 35.2317 12.4155 35.3359C12.498 35.4193 12.5499 35.5306 12.5656 35.5759C13.0023 35.4083 13.9253 35.0512 14.1234 34.9631C14.2011 34.9285 14.3432 34.8693 14.5086 34.8003C14.8706 34.6493 15.3442 34.4518 15.4979 34.3651C15.5346 34.3444 15.5659 34.3275 15.5926 34.3132C15.7287 34.2399 15.7444 34.2314 15.7384 34.1114C15.7313 33.9679 15.7879 33.8327 15.9058 34.1204C15.9441 34.2139 16.0124 34.3717 16.088 34.5461C16.2448 34.9081 16.4326 35.342 16.4483 35.4227C16.4715 35.5424 16.3679 35.5418 16.3048 35.4299L16.2101 35.2619C15.9332 35.364 15.2915 35.6058 14.9399 35.7568C14.5004 35.9456 13.5578 36.3149 13.3261 36.4012C13.0945 36.4876 12.9902 36.5906 13.0373 36.7264C13.0843 36.8621 13.1475 36.9741 13.3231 36.9193C13.3924 36.8977 13.6093 36.8249 13.8599 36.7409C14.2451 36.6117 14.7099 36.4557 14.8405 36.4179C14.9044 36.3993 15.0646 36.3511 15.2615 36.292C15.7282 36.1517 16.4011 35.9494 16.4852 35.9331C16.6049 35.9098 16.7639 35.9825 16.6038 36.1171C16.4436 36.2517 14.931 37.3111 14.675 37.485C14.4189 37.6589 13.9145 38.0466 13.8264 38.1258C13.7503 38.1941 13.7931 38.2394 13.8572 38.3072C13.8674 38.318 13.8781 38.3293 13.8889 38.3414C13.9681 38.4295 14.0152 38.5653 13.9354 38.5808C13.8589 38.5956 13.776 38.4788 13.6441 38.2931C13.6382 38.2849 13.6323 38.2766 13.6263 38.2681C13.484 38.068 13.3345 37.7244 13.3351 37.6208C13.3354 37.5707 13.3761 37.6047 13.429 37.6486C13.4855 37.6957 13.5559 37.7543 13.6054 37.734C13.7013 37.6947 14.7494 37.0151 14.9655 36.849C15.1817 36.6828 15.4461 36.4452 15.1108 36.531C14.7756 36.6168 13.4422 36.9997 13.3464 37.039C13.2505 37.0783 13.1862 37.1736 13.2255 37.2695C13.2648 37.3653 13.2642 37.469 13.1058 37.2927C13.0476 37.1746 12.8879 36.7752 12.7408 36.4069ZM12.9145 35.8808L12.9146 35.8808L12.9146 35.8807C13.1069 35.8019 15.4073 34.8588 15.6151 34.7564C15.823 34.654 15.9903 34.6629 16.0135 34.7826C16.0367 34.9023 15.9885 34.9737 15.7569 35.0601C15.666 35.094 15.2786 35.2587 14.8284 35.4501C14.1311 35.7466 13.2831 36.1072 13.1521 36.1452C13.1376 36.1494 13.1236 36.1535 13.11 36.1575C12.9237 36.2123 12.8348 36.2384 12.7538 36.119C12.6842 36.0166 12.832 35.9175 12.9145 35.8808Z" fill="black"/>
<path fill-rule="evenodd" clip-rule="evenodd" d="M11.6829 28.2536C11.6656 28.4847 11.5531 30.0384 11.5752 30.3653C11.5699 30.743 11.6472 30.5497 11.6865 30.4058C11.9361 30.4471 12.5418 30.5462 12.9687 30.6124C13.5022 30.6952 13.4379 30.7904 13.1985 30.8369C13.007 30.8741 12.1457 30.9584 11.739 30.9959C11.6531 30.6606 11.5561 30.9072 11.5627 31.1544C11.5692 31.4015 11.6794 31.6492 11.7193 31.6415C11.7512 31.6353 11.7497 31.4424 11.7449 31.3467C12.1306 31.2719 12.9674 31.1178 13.2289 31.1001C13.5558 31.0781 14.6164 30.9965 14.9594 30.9506C15.3025 30.9047 15.2233 30.8166 14.9922 30.7993C14.7611 30.7821 11.9658 30.3516 11.8068 30.279C11.6478 30.2063 11.7842 30.0556 11.9039 30.0324C11.9691 30.0198 12.4948 30.0712 13.031 30.1237L13.031 30.1237C13.4794 30.1675 13.935 30.2121 14.1347 30.2205C14.4853 30.2353 14.9445 30.3049 15.1303 30.3378C15.2078 30.7368 15.3203 30.5701 15.2971 30.4504C15.2739 30.3307 15.2685 29.8763 15.2941 29.5815C15.3013 29.4984 15.3189 29.3671 15.3386 29.221L15.3386 29.221L15.3386 29.221C15.3886 28.8488 15.4516 28.3801 15.3887 28.3625C15.3187 28.343 15.2571 28.6089 15.2351 28.7442C15.1182 28.7462 14.8302 28.7483 14.6134 28.7407C14.3966 28.7331 12.6802 28.5569 11.8491 28.4698C11.8633 28.2945 11.8744 27.9391 11.8044 27.9196C11.7168 27.8951 11.7002 28.0226 11.6829 28.2536ZM14.6039 29.0117C14.3728 28.9944 12.5405 28.8325 12.2219 28.7908C11.671 28.7337 11.7979 29.0594 11.9092 29.0999C12.0206 29.1404 12.634 29.2076 13.0085 29.2177C13.2545 29.2244 13.9674 29.2921 14.4754 29.3404L14.4754 29.3404C14.7411 29.3656 14.9508 29.3855 15.0083 29.3886C15.1756 29.3975 15.1607 29.2141 15.1053 29.1421C15.0499 29.07 14.835 29.0289 14.6039 29.0117ZM12.9889 29.5202C13.596 29.5763 14.2801 29.6395 14.4568 29.6405C14.7677 29.6423 15.0785 29.644 15.094 29.7238C15.0951 29.7296 15.0964 29.7359 15.0978 29.7425C15.1159 29.828 15.1476 29.9781 14.9332 29.962C14.8136 29.9531 14.5614 29.9477 14.2996 29.9421C14.0557 29.9368 13.8035 29.9314 13.6422 29.9228C13.3075 29.9049 12.0724 29.8341 11.9611 29.7936C11.9364 29.7846 11.9114 29.7788 11.8871 29.7731C11.8019 29.7533 11.7267 29.7357 11.7151 29.5929C11.7007 29.4158 11.8512 29.4257 11.9813 29.4342C11.9859 29.4345 11.9905 29.4348 11.995 29.4351C12.1119 29.4392 12.5283 29.4777 12.9889 29.5202Z" fill="black"/>
<path fill-rule="evenodd" clip-rule="evenodd" d="M13.4766 23.8551C13.3963 23.9839 13.2974 24.1425 13.2608 24.1178C13.2132 24.0857 13.1899 23.966 13.3745 23.7438C13.5024 23.5899 13.5843 23.4549 13.6546 23.3389C13.6858 23.2875 13.7147 23.2399 13.7443 23.196C13.7744 23.1514 13.8077 23.0922 13.8431 23.0291C13.9213 22.8898 14.0099 22.7318 14.0981 22.6719C14.2005 22.6024 14.1721 22.7334 14.1451 22.8077C14.3571 22.9046 14.8161 23.108 14.9562 23.1471C14.9858 23.1554 15.017 23.1657 15.0477 23.1758C15.1988 23.2258 15.3391 23.2722 15.2277 23.053C15.1205 22.842 14.7722 22.341 14.6114 22.1169C14.5498 22.1909 14.4109 22.3214 14.3476 22.2509C14.2684 22.1628 14.7811 21.7113 14.821 21.7036C14.8609 21.6959 14.8764 21.7757 14.7317 21.99C14.9683 22.4271 15.5099 23.3336 15.7834 23.4627C16.0568 23.5918 17.1121 23.8742 17.6056 23.9992C17.6672 23.9252 17.7997 23.7835 17.8379 23.8092C17.8855 23.8414 17.7807 24.048 17.5961 24.2702C17.4115 24.4923 17.2912 24.6191 17.2436 24.587C17.2055 24.5613 17.2444 24.4488 17.2686 24.3958C16.9744 24.2666 16.359 23.9969 16.2508 23.9516C16.1157 23.895 15.996 23.9183 16.1306 24.0784C16.1872 24.1458 16.2952 24.3276 16.4057 24.5134C16.5579 24.7694 16.7145 25.0329 16.7469 25.0146C16.768 25.0027 16.8017 24.9648 16.8381 24.924C16.8982 24.8564 16.9656 24.7807 16.9952 24.8008C17.0429 24.8329 17.0661 24.9526 16.8333 25.2462C16.7073 25.405 16.6117 25.564 16.5365 25.6891C16.4727 25.7952 16.4236 25.8768 16.3831 25.9132C16.295 25.9924 16.208 25.8644 16.2884 25.7453C16.3527 25.65 16.3958 25.5519 16.4093 25.5148C16.1659 25.3274 15.595 24.9028 15.2582 24.7032C14.8371 24.4536 13.7015 23.7218 13.6777 23.7057C13.6538 23.6896 13.5885 23.6802 13.5419 23.7528C13.5233 23.7803 13.5008 23.8164 13.4766 23.8551ZM14.6277 23.3913C14.9719 23.505 15.3597 23.6331 15.4475 23.6521C15.5987 23.6848 15.8131 23.8295 16.0341 24.2213C16.1326 24.3961 16.269 24.5963 16.3821 24.7625C16.5228 24.969 16.6275 25.1228 16.579 25.1092C16.4914 25.0848 15.7447 24.6501 15.3236 24.4006C14.991 24.2035 14.4108 23.796 14.1231 23.5939C14.0467 23.5402 13.9909 23.501 13.9659 23.4842C13.8468 23.4038 13.8402 23.1566 14.079 23.2138C14.1525 23.2343 14.3787 23.309 14.6277 23.3913Z" fill="black"/>
<path d="M18.7594 18.3776C18.8486 18.2971 19.3565 18.1126 19.4696 18.0483C19.7854 17.9099 19.6698 18.1131 19.5969 18.1694C19.5241 18.2257 19.7777 18.5727 19.9682 18.8067C20.1587 19.0408 20.2707 19.0812 20.2794 19.0168C20.2863 18.9652 20.263 18.2322 20.2505 17.8722C20.2316 17.8829 20.1763 17.8995 20.1058 17.88C20.0177 17.8557 20.0101 17.8154 20.1069 17.7752C20.2036 17.7351 20.4298 17.6065 20.5984 17.6148C20.767 17.6232 20.5572 17.7276 20.4604 17.7677C20.3636 17.8079 20.4078 19.0331 20.4307 19.154C20.4536 19.275 20.4918 19.4765 20.6746 19.6703C20.8209 19.8253 21.4816 20.6603 21.7936 21.0584C21.8418 21.0558 21.9446 21.0619 21.9699 21.107C22.0014 21.1635 21.6143 21.3241 21.276 21.4122C20.9378 21.5003 21.1487 21.2911 21.2618 21.2268C21.3749 21.1625 21.3117 21.0496 21.1931 20.864C21.0744 20.6784 20.7729 20.2991 20.6063 20.0812C20.4398 19.8633 20.455 19.944 20.4443 20.218C20.4357 20.4372 20.5116 21.2713 20.5506 21.6609C20.5829 21.6475 20.67 21.6079 20.7605 21.5565C20.8736 21.4922 20.8237 21.6694 20.7508 21.7257C20.678 21.782 20.5649 21.8463 20.2984 21.9829C20.032 22.1195 20.0743 21.902 20.1472 21.8457C20.2054 21.8006 20.3114 21.7573 20.357 21.7412C20.3143 21.185 20.2325 20.0258 20.2472 19.8389C20.2656 19.6051 20.0425 19.4194 19.8041 19.153C19.6134 18.9399 19.2798 18.5531 19.1369 18.3863C19.0992 18.4077 18.9931 18.465 18.8705 18.5229C18.7171 18.5952 18.6703 18.4581 18.7594 18.3776Z" fill="black"/>
<path d="M25.5011 16.9073C25.3258 16.9593 25.4462 17.0406 25.55 17.0425C25.6132 17.0527 25.6223 17.0913 25.6388 17.1706L25.8956 18.3999C25.9453 18.6378 25.9717 18.9622 25.8927 19.0793C25.8137 19.1963 25.4745 19.7508 25.3564 19.9777C25.2383 20.2046 25.2 20.4171 25.136 20.408C25.0721 20.3989 24.8005 20.3859 24.8569 20.4581C24.9133 20.5303 25.1932 20.5829 25.337 20.5777C25.4807 20.5725 25.4001 20.4841 25.352 20.4516C25.3038 20.4191 25.3903 20.239 25.54 19.9653C25.6597 19.7464 25.8998 19.3111 26.0048 19.1209C26.0633 19.4669 26.1934 20.202 26.2458 20.3736C26.3113 20.5881 26.1676 20.5933 26.0239 20.5985C25.8802 20.6037 25.9366 20.6759 26.0886 20.7103C26.2406 20.7448 26.3685 20.763 26.4964 20.7812C26.6243 20.7994 26.6717 20.7292 26.6476 20.7129C26.6236 20.6967 26.5912 20.6408 26.5257 20.4263C26.4602 20.2117 26.2493 18.7068 26.2718 18.5176C26.2944 18.3284 26.7584 17.3812 26.7975 17.2714C26.8366 17.1615 26.86 17.075 26.9239 17.0841C26.9879 17.0932 27.0277 17.0861 27.0285 17.1888C27.0293 17.2915 27.0414 17.8447 27.0204 18.2393C26.9994 18.634 26.8838 20.2592 26.8771 20.425C26.8717 20.5576 26.8227 20.6267 26.7989 20.6447C26.6559 20.7526 26.7282 20.8014 26.8561 20.8196C26.984 20.8378 27.3278 20.8995 27.4715 20.8943C27.6152 20.8891 27.4226 20.7591 27.3346 20.7338C27.2465 20.7084 27.1984 20.6759 27.2059 20.6128C27.2134 20.5498 27.2479 19.8236 27.2531 19.4524C27.2583 19.0812 27.3889 17.3299 27.428 17.22C27.4671 17.1101 27.6349 17.1212 27.6989 17.1303C27.7628 17.1394 27.89 17.0549 27.674 17.0113C27.5013 16.9765 27.1601 16.9938 27.0112 17.0068C26.9497 16.9766 26.7901 16.9189 26.6432 16.9288C26.4597 16.9411 26.4604 17.0438 26.5244 17.0529C26.5755 17.0602 26.6897 17.085 26.7403 17.0965C26.6225 17.3576 26.3679 17.9079 26.2921 18.0203C26.1973 18.1607 26.1815 18.1841 26.1649 18.1048C26.1484 18.0255 26.049 17.5496 26.0233 17.3279C25.9977 17.1062 26.0376 17.0991 26.085 17.0289C26.188 16.9281 26.1241 16.919 26.0601 16.9099L26.0601 16.9099C25.9962 16.9008 25.6764 16.8553 25.5011 16.9073Z" fill="black"/>
<path fill-rule="evenodd" clip-rule="evenodd" d="M24.4166 30.2953C24.7965 29.3728 25.8738 29.1638 26.5247 29.6378C28.073 30.6829 26.6034 32.6034 25.5446 32.3742C24.4857 32.1449 24.0367 31.2177 24.4166 30.2953ZM26.4079 29.8371C25.8697 29.4452 24.977 29.6278 24.6573 30.397C24.4982 30.7799 24.5088 31.1647 24.6702 31.4774C24.8317 31.7903 25.1424 32.0279 25.5769 32.1194C25.8 32.1664 26.0428 32.0987 26.26 31.9611C26.4774 31.8233 26.6719 31.6139 26.7997 31.372C26.9275 31.1301 26.9894 30.854 26.9386 30.5837C26.8878 30.3128 26.7245 30.0509 26.4079 29.8371ZM26.3745 29.8839C25.8664 29.5134 25.0159 29.6839 24.7104 30.419C24.5569 30.7883 24.5686 31.1552 24.7213 31.4511C24.8739 31.7468 25.169 31.9747 25.5887 32.0632C25.7927 32.1061 26.0201 32.045 26.2292 31.9126C26.438 31.7803 26.6257 31.5784 26.7489 31.3451C26.872 31.112 26.93 30.8491 26.8821 30.5943C26.8344 30.3401 26.681 30.0908 26.3753 29.8845L26.3749 29.8842L26.3745 29.8839ZM25.0731 30.5843C25.2758 30.1046 25.826 29.9809 26.1556 30.2213C26.3479 30.3513 26.4465 30.5131 26.4754 30.6819C26.5043 30.8502 26.4636 31.0224 26.3832 31.1733C26.3028 31.3243 26.1819 31.4557 26.0474 31.5431C25.9132 31.6303 25.7625 31.6754 25.6238 31.6477C25.3581 31.5948 25.1686 31.4499 25.0717 31.2558C24.9749 31.062 24.9723 30.8228 25.0731 30.5843ZM25.126 30.6067C25.3153 30.1587 25.8244 30.0505 26.1221 30.2681L26.1226 30.2684L26.123 30.2687C26.3039 30.3908 26.3927 30.5396 26.4188 30.6917C26.445 30.8445 26.4084 31.0037 26.3325 31.1463C26.2566 31.2889 26.1422 31.413 26.0161 31.4949C25.8896 31.5771 25.7542 31.6151 25.635 31.5914C25.3846 31.5415 25.2111 31.4064 25.1231 31.2301C25.035 31.0536 25.0307 30.8321 25.126 30.6067Z" fill="black"/>
<path d="M36.1375 13.9792C36.3787 14.2477 37.0065 14.8509 37.5876 15.1164" stroke="black" stroke-width="0.5"/>
<path d="M35.3704 14.4118C35.7449 14.7174 36.7193 15.4173 37.6204 15.7721" stroke="black" stroke-width="0.5"/>
<path d="M36.5455 6.33426C35.7794 7.84478 35.9434 9.72963 36.1212 10.4832L36.7442 9.79489C36.3551 7.78979 37.1304 5.93702 38.6648 5.07182C40.1993 4.20662 41.5106 4.14129 43.0696 5.35193C44.3167 6.32044 44.9858 7.7542 45.0557 8.27657C44.7781 5.87154 44.0544 5.06625 42.0574 4.03518C40.0605 3.00412 37.5031 4.44612 36.5455 6.33426Z" fill="#8A6D21"/>
<path d="M40.4662 14.8417L41.568 13.2093L41.6414 13.1004L40.9858 13.1331L39.7751 14.692L40.4662 14.8417Z" fill="#8A6D21"/>
<path d="M36.6626 8.91567C36.5836 10.4711 37.3745 11.2685 37.7799 11.4727C38.1082 12.1335 39.8275 13.6436 41.7085 13.0495C44.0881 12.2979 45.2957 10.2005 45.0205 8.14249C44.7454 6.08443 42.1435 3.87755 39.8038 4.6214C37.4641 5.36525 36.7614 6.97134 36.6626 8.91567Z" stroke="black" stroke-width="0.5"/>
<path d="M19.9542 16.1333C26.8004 13.8333 32.307 16.3044 34.3648 17.6933C39.9136 22.269 40.8656 24.7802 41.1649 32.1799C41.4642 39.5796 34.5582 46.1993 26.1992 46.5093C17.2211 45.3632 11.6092 40.468 10.2869 33.1392C8.96462 25.8103 13.108 18.4332 19.9542 16.1333Z" stroke="black" stroke-width="0.5"/>
<path d="M26.047 12.1606C30.2935 12.1876 34.6957 14.501 35.8474 15.2091C44.7738 22.4806 44.6635 28.5002 43.7038 35.47C42.7441 42.4399 34.8698 49.1747 26.5828 49.3291C18.2958 49.4835 10.4713 43.302 8.28854 36.9812C6.10576 30.6603 7.34159 22.665 12.0422 18.0124C16.7428 13.3597 21.8004 12.1336 26.047 12.1606Z" stroke="black" stroke-width="0.5"/>
<path d="M35.3662 5.64827C33.5369 9.12905 35.8237 12.0595 37.1791 13.3904C40.776 15.8182 43.8304 15.5567 46.0813 12.2218C48.3322 8.88688 46.7588 5.2591 44.2338 3.55483C41.7088 1.85056 37.1955 2.16749 35.3662 5.64827Z" stroke="black" stroke-width="0.5"/>
<path d="M36.7526 9.80851L35.1225 11.9628C35.0354 12.7177 37.3 14.317 38.0178 14.7661C38.7355 15.2151 39.2857 15.3388 39.4247 15.185C39.5359 15.062 40.503 13.7785 40.9727 13.1522C40.774 12.6643 40.1219 11.5026 39.1035 10.7585C38.085 10.0145 37.1118 9.81516 36.7526 9.80851Z" fill="#E6B537" stroke="black" stroke-width="0.5"/>
<path d="M37.3047 13.6582C36.2317 12.8072 35.6514 11.9615 35.4954 11.645L35.0928 12.0068C35.1254 12.6625 36.3225 13.4705 37.1197 14.167C37.9169 14.8634 38.7167 15.0865 39.1167 15.198C39.4366 15.2873 39.591 15.0429 39.6281 14.9096C39.3008 14.8471 38.3777 14.5092 37.3047 13.6582Z" fill="#8A6D21"/>
<path d="M36.7526 9.80851L35.1225 11.9628C35.0354 12.7177 37.3 14.317 38.0178 14.7661C38.7355 15.2151 39.2857 15.3388 39.4247 15.185C39.5359 15.062 40.503 13.7785 40.9727 13.1522C40.774 12.6643 40.1219 11.5026 39.1035 10.7585C38.085 10.0145 37.1118 9.81516 36.7526 9.80851Z" stroke="black" stroke-width="0.5"/>
</svg>
