<svg width="318" height="222" viewBox="0 0 318 222" fill="none" xmlns="http://www.w3.org/2000/svg">
<path d="M3.89816 20.5511C3.89816 27.1146 4.40305 41.7562 4.90793 49.3294C5.61477 59.932 4.9079 69.5248 4.9079 85.1762C4.9079 100.828 2.38351 111.935 1.87863 120.013C1.37375 128.091 11.4714 128.091 14.5007 120.518C17.53 112.945 15.0056 96.7885 14.5007 91.2348C13.9958 85.6811 16.5203 83.1567 19.5496 81.1371C22.5789 79.1176 24.5984 85.6811 24.5984 91.7397C24.5984 97.7983 25.1033 111.43 31.6668 110.925C38.2303 110.42 38.2303 102.342 37.2205 96.7885C36.2107 91.2348 30.657 81.1371 30.1521 71.0394C29.6472 60.9418 34.1912 44.2806 36.2107 29.1341C38.2303 13.9876 33.6863 10.9583 31.1619 10.9583C28.6375 10.9583 23.0837 12.9778 23.5886 20.0462C24.0935 27.1146 23.0837 44.2806 23.0837 49.3294C23.0837 54.3783 21.0642 56.9027 18.5398 56.9027C16.0154 56.9027 14.5007 54.8832 14.5007 49.3294C14.5007 43.7757 15.5105 35.6976 15.5105 24.5901C15.5105 13.4827 12.4812 11.968 10.4617 11.968C8.44212 11.968 3.89816 13.9876 3.89816 20.5511Z" fill="#CED1D5" stroke="#14303F" stroke-width="2"/>
<path d="M72.5622 16.5119C74.5818 20.551 80.9108 38.7268 83.6697 48.3196C85.5574 54.8831 87.7087 52.3587 87.7087 47.8147V22.5705C87.7087 13.4826 89.2234 5.90933 93.7673 5.90933C98.3113 5.90933 100.836 9.9484 100.836 17.5217C100.836 25.0949 97.3015 44.2805 96.7966 57.9124C96.2917 71.5442 94.2722 78.1077 91.7478 79.6224C89.2234 81.137 84.1745 81.137 81.1452 74.0687C78.1159 67.0003 69.5329 47.3098 64.989 37.717C60.445 28.1242 59.4353 16.5119 62.9695 13.9875C66.5036 11.4631 70.5427 12.4728 72.5622 16.5119Z" fill="#CED1D5" stroke="#14303F" stroke-width="2"/>
<path d="M117.497 2.37517C121.031 4.39471 129.109 4.39471 132.139 4.89959C139.712 5.64442 140.722 12.4729 138.702 16.5119C136.683 20.551 129.109 19.5412 124.565 19.0364C120.022 18.5315 118.507 20.0461 117.497 24.0852C116.689 27.3165 117.161 31.4902 117.497 33.1731C118.843 32.1633 122.344 29.8409 125.575 28.6291C129.614 27.1145 133.149 29.6389 133.149 33.1731C133.149 36.7073 130.119 40.7464 126.585 43.2708C123.758 45.2903 117.665 46.805 114.973 47.3099C113.795 48.4879 111.741 51.5509 112.953 54.3782C114.468 57.9124 120.022 51.3489 124.565 50.844C129.109 50.3392 134.158 53.3685 134.663 58.9222C135.168 64.4759 132.644 69.0199 129.109 70.0296C125.575 71.0394 120.526 68.515 112.953 70.0296C105.38 71.5443 99.3213 67.5052 98.8164 59.9319C98.3115 52.3587 102.855 47.3099 104.37 41.2512C105.885 35.1926 104.875 20.0461 105.885 12.4729C106.895 4.89959 113.963 0.355639 117.497 2.37517Z" fill="#CED1D5" stroke="#14303F" stroke-width="2"/>
<path fill-rule="evenodd" clip-rule="evenodd" d="M147.051 55.1044C147.639 47.6261 148.756 33.4257 151.324 23.5803C154.354 11.968 158.898 4.89961 162.432 4.89961C165.966 4.89961 168.995 14.4924 172.529 27.6194C173.508 31.2544 174.796 35.1216 176.062 38.921C179.367 48.8423 182.518 58.3007 179.598 61.9515C175.559 67.0003 168.49 62.4564 166.976 57.9124C166.016 55.0317 165.664 53.5714 165.407 52.5024C165.258 51.8852 165.141 51.3984 164.956 50.844C164.451 49.3294 163.946 48.8245 162.432 49.8343C162.299 49.9226 162.159 50.0147 162.014 50.1104C160.495 51.1089 158.393 52.4911 158.393 53.8733C158.393 54.0635 158.409 54.3491 158.428 54.7051C158.567 57.1858 158.896 63.088 155.363 63.971C151.324 64.9808 145.771 65.9906 146.78 58.4173C146.857 57.5722 146.946 56.4466 147.051 55.1044ZM158.898 38.222C158.898 33.678 158.898 26.6097 159.907 25.5999C160.917 24.5901 161.422 26.6097 161.927 29.639C161.981 29.9639 162.041 30.3063 162.103 30.6606C162.619 33.6083 163.279 37.3747 161.927 38.7269C160.412 40.2415 158.892 40.7464 158.898 38.222Z" fill="#CED1D5"/>
<path d="M151.324 23.5803L150.357 23.3279L151.324 23.5803ZM147.051 55.1044L148.048 55.1828L148.048 55.1828L147.051 55.1044ZM172.529 27.6194L173.495 27.3594L173.495 27.3594L172.529 27.6194ZM176.062 38.921L177.011 38.6049L176.062 38.921ZM179.598 61.9515L180.379 62.5762L180.379 62.5762L179.598 61.9515ZM166.976 57.9124L166.027 58.2286L166.027 58.2286L166.976 57.9124ZM165.407 52.5024L164.435 52.7364L164.435 52.7364L165.407 52.5024ZM164.956 50.844L164.008 51.1603L164.008 51.1603L164.956 50.844ZM162.432 49.8343L162.987 50.6663L162.987 50.6663L162.432 49.8343ZM162.014 50.1104L161.464 49.2748L161.464 49.2748L162.014 50.1104ZM158.428 54.7051L159.427 54.6495L159.427 54.6495L158.428 54.7051ZM155.363 63.971L155.606 64.9412L155.606 64.9412L155.363 63.971ZM146.78 58.4173L147.772 58.5495L147.774 58.5287L147.776 58.5078L146.78 58.4173ZM158.898 38.222L159.898 38.224V38.222H158.898ZM161.927 29.639L162.913 29.4746L162.913 29.4746L161.927 29.639ZM162.103 30.6606L163.088 30.488L163.088 30.488L162.103 30.6606ZM161.927 38.7269L162.634 39.434L162.634 39.434L161.927 38.7269ZM150.357 23.3279C147.761 33.2764 146.64 47.5734 146.054 55.026L148.048 55.1828C148.638 47.6788 149.751 33.5749 152.292 23.8327L150.357 23.3279ZM162.432 3.89961C161.212 3.89961 160.04 4.50454 158.975 5.43102C157.901 6.36557 156.844 7.7041 155.834 9.36593C153.812 12.6933 151.887 17.4621 150.357 23.3279L152.292 23.8327C153.791 18.0862 155.653 13.5147 157.543 10.4048C158.49 8.84794 159.421 7.69362 160.288 6.93996C161.163 6.17823 161.884 5.89961 162.432 5.89961V3.89961ZM173.495 27.3594C171.73 20.8021 170.074 15.0648 168.407 10.9605C167.575 8.91329 166.716 7.20867 165.801 5.99996C164.908 4.8212 163.797 3.89961 162.432 3.89961V5.89961C162.833 5.89961 163.426 6.17712 164.206 7.20723C164.964 8.20739 165.745 9.7214 166.554 11.7133C168.169 15.6871 169.795 21.3097 171.564 27.8794L173.495 27.3594ZM177.011 38.6049C175.743 34.7994 174.465 30.9609 173.495 27.3594L171.564 27.8794C172.552 31.5478 173.85 35.4438 175.113 39.237L177.011 38.6049ZM180.379 62.5762C181.296 61.4301 181.673 59.9112 181.742 58.2489C181.81 56.5782 181.57 54.6538 181.144 52.5861C180.294 48.4544 178.657 43.5472 177.011 38.6049L175.113 39.237C176.772 44.216 178.364 48.9987 179.185 52.9893C179.596 54.9826 179.802 56.7275 179.743 58.1671C179.684 59.615 179.36 60.6475 178.817 61.3268L180.379 62.5762ZM166.027 58.2286C166.883 60.7967 169.247 63.2718 171.941 64.446C173.304 65.0405 174.813 65.3281 176.302 65.0752C177.81 64.8191 179.224 64.0201 180.379 62.5762L178.817 61.3268C177.953 62.4073 176.968 62.9336 175.967 63.1035C174.948 63.2766 173.837 63.0909 172.74 62.6126C170.511 61.641 168.583 59.5721 167.924 57.5962L166.027 58.2286ZM164.435 52.7364C164.696 53.8242 165.055 55.3134 166.027 58.2286L167.924 57.5962C166.976 54.75 166.632 53.3186 166.379 52.2684L164.435 52.7364ZM164.008 51.1603C164.177 51.668 164.285 52.1144 164.435 52.7364L166.379 52.2684C166.232 51.656 166.105 51.1289 165.905 50.5278L164.008 51.1603ZM162.987 50.6663C163.324 50.4411 163.534 50.3504 163.65 50.3198C163.743 50.2953 163.703 50.3259 163.625 50.2869C163.572 50.2604 163.606 50.251 163.697 50.4074C163.787 50.563 163.888 50.8018 164.008 51.1603L165.905 50.5278C165.772 50.129 165.62 49.7367 165.427 49.4031C165.233 49.0704 164.952 48.7139 164.52 48.4981C163.597 48.0365 162.64 48.4937 161.877 49.0022L162.987 50.6663ZM162.563 50.946C162.708 50.8507 162.851 50.7567 162.987 50.6663L161.877 49.0022C161.748 49.0884 161.61 49.1788 161.464 49.2748L162.563 50.946ZM159.393 53.8733C159.393 53.7845 159.427 53.6278 159.583 53.3878C159.739 53.1487 159.98 52.8812 160.302 52.5917C160.951 52.0081 161.79 51.4542 162.563 50.946L161.464 49.2748C160.719 49.7651 159.747 50.4015 158.965 51.1043C158.572 51.4579 158.193 51.8576 157.907 52.2975C157.621 52.7366 157.393 53.271 157.393 53.8733H159.393ZM159.427 54.6495C159.406 54.2794 159.393 54.0285 159.393 53.8733H157.393C157.393 54.0984 157.411 54.4187 157.43 54.7608L159.427 54.6495ZM155.606 64.9412C157.988 64.3456 158.901 62.0838 159.256 60.1147C159.622 58.0855 159.495 55.8749 159.427 54.6495L157.43 54.7608C157.5 56.0161 157.606 57.9969 157.288 59.7597C156.959 61.5827 156.271 62.7134 155.121 63.0009L155.606 64.9412ZM145.789 58.2851C145.524 60.2758 145.667 61.8474 146.22 63.042C146.793 64.2802 147.756 65.006 148.873 65.3648C149.949 65.7109 151.152 65.7133 152.286 65.5882C153.43 65.4621 154.589 65.1954 155.606 64.9412L155.121 63.0009C154.118 63.2515 153.069 63.4898 152.067 63.6003C151.055 63.7118 150.175 63.6827 149.485 63.4608C148.834 63.2516 148.346 62.873 148.035 62.202C147.704 61.4875 147.532 60.3454 147.772 58.5495L145.789 58.2851ZM146.054 55.026C145.949 56.3707 145.861 57.4892 145.785 58.3268L147.776 58.5078C147.854 57.6553 147.943 56.5225 148.048 55.1828L146.054 55.026ZM159.2 24.8928C158.9 25.1929 158.731 25.6033 158.623 25.9381C158.504 26.304 158.412 26.7356 158.336 27.199C158.186 28.1283 158.089 29.2909 158.025 30.5344C157.897 33.0261 157.898 35.956 157.898 38.222H159.898C159.898 35.9441 159.898 33.0678 160.022 30.6368C160.085 29.4191 160.177 28.3412 160.311 27.5192C160.377 27.1069 160.451 26.7851 160.525 26.5535C160.61 26.2907 160.662 26.2594 160.614 26.307L159.2 24.8928ZM162.913 29.4746C162.665 27.9842 162.397 26.6031 162.029 25.7202C161.933 25.4897 161.817 25.2575 161.669 25.0523C161.525 24.8518 161.314 24.6231 161.011 24.4775C160.677 24.3175 160.309 24.2952 159.96 24.4065C159.642 24.5078 159.391 24.7023 159.2 24.8928L160.614 26.307C160.676 26.2451 160.662 26.2818 160.567 26.3121C160.44 26.3524 160.281 26.3459 160.145 26.2805C160.039 26.2296 160.013 26.1745 160.044 26.2185C160.073 26.2579 160.122 26.3412 160.183 26.4894C160.447 27.1211 160.684 28.2645 160.94 29.8034L162.913 29.4746ZM163.088 30.488C163.026 30.1329 162.967 29.7947 162.913 29.4746L160.94 29.8034C160.995 30.1332 161.056 30.4797 161.118 30.8331L163.088 30.488ZM162.634 39.434C163.163 38.9046 163.436 38.203 163.577 37.5105C163.72 36.8113 163.747 36.0325 163.715 35.2512C163.651 33.6932 163.343 31.9461 163.088 30.488L161.118 30.8331C161.379 32.3228 161.659 33.9327 161.716 35.3329C161.745 36.0307 161.715 36.6313 161.618 37.1107C161.518 37.5968 161.366 37.8731 161.22 38.0198L162.634 39.434ZM157.898 38.22C157.896 38.9206 157.995 39.5727 158.292 40.0822C158.633 40.6676 159.195 40.9891 159.842 40.9891C160.399 40.9891 160.921 40.7529 161.342 40.4913C161.782 40.2177 162.221 39.8473 162.634 39.434L161.22 38.0198C160.876 38.3638 160.556 38.6245 160.286 38.7927C160.152 38.876 160.043 38.9284 159.96 38.9584C159.876 38.989 159.839 38.9891 159.842 38.9891C159.852 38.9891 159.9 38.9928 159.957 39.0258C160.013 39.0584 160.029 39.0911 160.02 39.0756C159.986 39.0171 159.896 38.7856 159.898 38.224L157.898 38.22Z" fill="#14303F"/>
<path d="M190.705 49.3295C191.042 44.1123 191.513 32.4663 190.705 27.6195C190.312 14.9974 190.705 4.89964 197.269 5.90941C203.832 6.91918 207.366 26.1048 210.9 34.1829C214.435 42.2611 213.425 33.1732 212.92 27.6195C212.415 22.0657 212.92 5.40456 219.988 6.41432C227.057 7.42409 224.027 22.0657 222.513 29.1341C220.998 36.2025 222.513 48.3197 223.018 59.4271C223.523 70.5346 221.503 71.5444 218.979 71.5444C214.94 71.5444 210.9 68.0102 209.386 59.4271C207.871 50.8441 202.822 35.1927 200.803 32.1634C198.783 29.1341 200.298 33.1732 200.803 38.7269C201.308 44.2806 201.308 55.8929 201.308 59.4271C201.308 62.9613 200.298 69.0199 194.239 68.0102C188.181 67.0004 189.695 55.8929 190.705 49.3295Z" fill="#CED1D5" stroke="#14303F" stroke-width="2"/>
<path d="M238.669 4.39474C234.63 3.88986 232.106 8.9387 232.611 17.0168C234.63 28.6292 232.611 42.7659 229.581 49.3294C226.552 55.8929 223.523 64.9808 228.571 67.5052C233.62 70.0296 237.659 63.4661 240.184 56.9026C242.708 50.3391 243.718 39.7366 244.728 24.5901C245.738 9.44355 242.708 4.89963 238.669 4.39474Z" fill="#CED1D5" stroke="#14303F" stroke-width="2"/>
<path d="M258.36 6.91909C266.943 4.89955 272.496 13.4826 274.011 19.5412C277.04 43.2707 267.447 34.1828 265.428 31.1535C263.657 28.4967 258.864 28.1242 256.34 35.1926C253.816 42.261 253.311 61.4466 256.34 68.5149C259.369 75.5833 264.418 75.5833 266.943 72.554C269.467 69.5247 263.408 60.4368 269.972 60.4368C276.535 60.4368 280.574 69.0198 281.079 74.5735C281.584 80.1273 280.07 95.2738 271.991 96.7884C263.913 98.3031 255.835 93.7591 248.767 79.6224C241.698 65.4856 240.922 44.2805 243.718 32.1633C245.815 23.0754 249.776 8.93862 258.36 6.91909Z" fill="#CED1D5" stroke="#14303F" stroke-width="2"/>
<path d="M281.584 55.893C282.089 48.3198 280.07 30.6488 279.565 23.0756C278.321 8.43395 288.653 5.90953 292.692 6.9193C296.731 7.92906 302.284 8.43395 308.848 8.43395C315.411 8.43395 317.431 14.9974 316.926 24.5902C316.421 34.183 305.819 31.6586 301.275 29.6391C296.731 27.6195 293.701 29.1342 293.197 36.2026C292.692 43.2709 294.206 49.8344 300.77 47.31C307.333 44.7856 313.897 42.766 314.907 51.3491C315.916 59.9321 305.819 62.9614 300.77 63.9712C295.721 64.9809 293.197 65.4858 292.187 74.5737C291.177 83.6616 300.77 85.1763 305.819 86.1861C310.867 87.1958 313.897 89.2154 313.897 94.2642V108.906C313.897 114.46 309.858 114.964 301.78 111.935C293.701 108.906 278.555 95.274 278.555 81.6421C278.555 68.0102 281.079 63.4663 281.584 55.893Z" fill="#CED1D5" stroke="#14303F" stroke-width="2"/>
<path d="M74.582 107.896C74.582 113.45 84.1748 116.984 87.709 118.499C94.7774 121.023 94.2725 125.062 94.7774 135.16C95.2823 145.257 92.7578 153.336 92.253 157.879C91.7481 162.423 92.253 171.511 98.3116 171.006C104.37 170.502 109.924 160.404 110.429 149.296C110.934 138.189 108.914 128.596 108.409 124.557C107.904 120.518 108.409 119.003 111.439 116.984C114.468 114.964 123.051 106.886 125.07 99.8178C127.09 92.7494 122.546 89.7201 118.507 89.2152C114.468 88.7104 109.419 94.769 105.38 97.7983C101.341 100.828 93.2627 101.837 85.6895 99.8178C78.1162 97.7983 74.582 102.342 74.582 107.896Z" fill="#CED1D5" stroke="#14303F" stroke-width="2"/>
<path fill-rule="evenodd" clip-rule="evenodd" d="M126.585 112.44C128.1 120.518 129.109 126.577 126.585 136.674C124.06 146.772 124.06 156.87 130.624 156.87C137.187 156.87 141.226 147.277 142.236 139.704C142.297 139.248 142.356 138.798 142.414 138.355C143.32 131.436 143.994 126.284 147.79 129.606C149.578 131.171 151.565 133.923 153.617 136.768C156.201 140.348 158.89 144.074 161.422 145.762C165.966 148.792 173.034 148.287 175.054 142.228C177.073 136.17 170.51 128.091 165.966 124.557C165.287 124.029 164.642 123.546 164.045 123.1C160.652 120.559 158.845 119.207 161.422 117.489C161.66 117.33 161.927 117.158 162.215 116.973C165.59 114.802 171.945 110.715 171.015 102.342C170.005 93.2544 157.888 85.1762 143.751 85.1762C129.614 85.1762 123.051 90.2251 123.556 95.7788C123.989 100.547 125.827 108.961 126.411 111.63C126.507 112.07 126.569 112.354 126.585 112.44ZM142.259 112.624C142.46 113.163 142.627 113.611 142.741 113.955C143.246 115.469 145.895 115.02 148.8 112.945C152.334 110.42 153.849 107.896 153.849 105.372C153.849 102.342 149.81 99.3129 142.741 99.8178C139.72 100.034 138.785 100.828 139.712 104.362C140.493 107.875 141.575 110.784 142.259 112.624Z" fill="#CED1D5"/>
<path d="M126.585 136.674L127.555 136.917L127.555 136.917L126.585 136.674ZM126.585 112.44L125.602 112.624L125.602 112.624L126.585 112.44ZM142.236 139.704L141.245 139.572L141.245 139.572L142.236 139.704ZM142.414 138.355L143.405 138.485L143.405 138.485L142.414 138.355ZM147.79 129.606L147.131 130.359L147.131 130.359L147.79 129.606ZM153.617 136.768L154.428 136.183L154.428 136.183L153.617 136.768ZM161.422 145.762L160.867 146.594L160.867 146.594L161.422 145.762ZM175.054 142.228L176.002 142.544L176.002 142.544L175.054 142.228ZM165.966 124.557L166.58 123.768L166.58 123.768L165.966 124.557ZM164.045 123.1L164.645 122.299L164.645 122.299L164.045 123.1ZM161.422 117.489L160.867 116.657L160.867 116.657L161.422 117.489ZM162.215 116.973L161.674 116.132L161.674 116.132L162.215 116.973ZM171.015 102.342L170.021 102.453L170.021 102.453L171.015 102.342ZM123.556 95.7788L122.56 95.8693L122.56 95.8693L123.556 95.7788ZM126.411 111.63L125.434 111.844L125.434 111.844L126.411 111.63ZM142.741 113.955L143.69 113.638L143.69 113.638L142.741 113.955ZM142.259 112.624L143.197 112.275L143.197 112.275L142.259 112.624ZM148.8 112.945L149.381 113.758L149.381 113.758L148.8 112.945ZM153.849 105.372L152.849 105.372L152.849 105.372L153.849 105.372ZM142.741 99.8178L142.67 98.8203L142.67 98.8203L142.741 99.8178ZM139.712 104.362L140.688 104.145L140.684 104.126L140.679 104.108L139.712 104.362ZM127.555 136.917C130.132 126.608 129.091 120.378 127.568 112.256L125.602 112.624C127.108 120.658 128.086 126.545 125.615 136.432L127.555 136.917ZM130.624 155.87C129.28 155.87 128.339 155.371 127.65 154.51C126.925 153.604 126.428 152.229 126.188 150.427C125.707 146.824 126.305 141.918 127.555 136.917L125.615 136.432C124.341 141.529 123.676 146.721 124.205 150.691C124.47 152.675 125.045 154.456 126.088 155.759C127.166 157.106 128.686 157.87 130.624 157.87V155.87ZM141.245 139.572C140.753 143.26 139.524 147.418 137.65 150.622C135.754 153.863 133.366 155.87 130.624 155.87V157.87C134.446 157.87 137.359 155.08 139.376 151.632C141.415 148.146 142.71 143.72 143.227 139.836L141.245 139.572ZM141.422 138.225C141.364 138.668 141.306 139.117 141.245 139.572L143.227 139.836C143.288 139.379 143.348 138.928 143.405 138.485L141.422 138.225ZM148.448 128.853C147.448 127.978 146.372 127.397 145.277 127.619C144.162 127.845 143.51 128.802 143.101 129.741C142.674 130.723 142.37 132.008 142.118 133.427C141.863 134.858 141.648 136.502 141.422 138.225L143.405 138.485C143.633 136.749 143.842 135.154 144.087 133.777C144.334 132.388 144.606 131.296 144.935 130.539C145.282 129.741 145.568 129.601 145.675 129.579C145.802 129.553 146.234 129.573 147.131 130.359L148.448 128.853ZM154.428 136.183C152.404 133.378 150.343 130.511 148.448 128.853L147.131 130.359C148.814 131.83 150.725 134.469 152.807 137.353L154.428 136.183ZM161.977 144.93C160.836 144.17 159.606 142.909 158.31 141.338C157.023 139.778 155.724 137.979 154.428 136.183L152.807 137.353C154.094 139.137 155.432 140.991 156.768 142.611C158.096 144.221 159.476 145.667 160.867 146.594L161.977 144.93ZM174.105 141.912C173.221 144.565 171.263 145.979 168.993 146.422C166.681 146.873 164.044 146.309 161.977 144.93L160.867 146.594C163.344 148.245 166.513 148.943 169.376 148.385C172.28 147.818 174.867 145.95 176.002 142.544L174.105 141.912ZM165.352 125.347C167.537 127.046 170.229 129.86 172.117 132.965C174.028 136.11 174.972 139.312 174.105 141.912L176.002 142.544C177.155 139.086 175.827 135.219 173.826 131.927C171.8 128.595 168.938 125.602 166.58 123.768L165.352 125.347ZM163.446 123.9C164.043 124.347 164.681 124.825 165.352 125.347L166.58 123.768C165.892 123.233 165.24 122.745 164.645 122.299L163.446 123.9ZM160.867 116.657C160.158 117.129 159.568 117.69 159.322 118.408C159.052 119.196 159.271 119.925 159.651 120.522C160.013 121.092 160.575 121.633 161.197 122.157C161.83 122.691 162.605 123.271 163.446 123.9L164.645 122.299C163.789 121.658 163.065 121.116 162.486 120.628C161.896 120.131 161.53 119.75 161.339 119.449C161.165 119.176 161.204 119.086 161.213 119.057C161.247 118.96 161.397 118.707 161.977 118.321L160.867 116.657ZM161.674 116.132C161.388 116.316 161.114 116.492 160.867 116.657L161.977 118.321C162.207 118.167 162.466 118.001 162.756 117.814L161.674 116.132ZM170.021 102.453C170.876 110.153 165.098 113.93 161.674 116.132L162.756 117.814C166.083 115.674 173.014 111.277 172.009 102.232L170.021 102.453ZM143.751 86.1762C150.636 86.1762 157.011 88.1454 161.766 91.1932C166.541 94.2541 169.561 98.315 170.021 102.453L172.009 102.232C171.459 97.2817 167.915 92.7596 162.845 89.5094C157.754 86.2462 151.002 84.1762 143.751 84.1762V86.1762ZM124.551 95.6883C124.344 93.4049 125.553 91.0796 128.668 89.2581C131.803 87.424 136.781 86.1762 143.751 86.1762V84.1762C136.584 84.1762 131.212 85.4529 127.658 87.5317C124.082 89.623 122.262 92.599 122.56 95.8693L124.551 95.6883ZM127.388 111.417C126.799 108.723 124.978 100.38 124.551 95.6883L122.56 95.8693C123 100.714 124.856 109.199 125.434 111.844L127.388 111.417ZM127.568 112.256C127.548 112.15 127.481 111.843 127.388 111.417L125.434 111.844C125.533 112.297 125.589 112.557 125.602 112.624L127.568 112.256ZM143.69 113.638C143.569 113.274 143.395 112.808 143.197 112.275L141.322 112.972C141.525 113.519 141.685 113.947 141.793 114.271L143.69 113.638ZM148.219 112.131C146.837 113.118 145.59 113.661 144.705 113.81C144.261 113.884 143.987 113.846 143.847 113.793C143.747 113.754 143.716 113.716 143.69 113.638L141.793 114.271C142.019 114.951 142.509 115.424 143.137 115.662C143.727 115.886 144.391 115.89 145.036 115.782C146.327 115.566 147.858 114.847 149.381 113.758L148.219 112.131ZM152.849 105.372C152.849 107.437 151.625 109.698 148.219 112.131L149.381 113.758C153.043 111.143 154.849 108.355 154.849 105.371L152.849 105.372ZM142.812 100.815C146.201 100.573 148.77 101.186 150.453 102.139C152.148 103.1 152.849 104.333 152.849 105.372L154.849 105.371C154.849 103.381 153.529 101.584 151.439 100.399C149.334 99.2068 146.35 98.5575 142.67 98.8203L142.812 100.815ZM140.679 104.108C140.457 103.261 140.366 102.646 140.369 102.199C140.373 101.762 140.466 101.554 140.549 101.442C140.632 101.329 140.795 101.194 141.169 101.074C141.552 100.951 142.083 100.867 142.812 100.815L142.67 98.8203C141.888 98.8762 141.169 98.973 140.557 99.1698C139.934 99.3698 139.355 99.6947 138.943 100.249C138.531 100.804 138.375 101.471 138.369 102.183C138.364 102.885 138.503 103.695 138.745 104.615L140.679 104.108ZM143.197 112.275C142.513 110.438 141.453 107.585 140.688 104.145L138.736 104.579C139.533 108.165 140.637 111.13 141.322 112.972L143.197 112.275Z" fill="#14303F"/>
<path d="M175.054 118.498C177.073 107.391 181.112 96.2835 183.637 91.7395C185.786 87.1956 192.22 82.1467 196.259 85.6809C200.298 89.2151 198.278 95.7787 194.239 106.886C190.2 117.994 190.705 126.577 196.259 139.199C201.813 151.821 191.21 162.423 181.112 151.316C171.09 140.291 173.005 129.764 175.009 118.747L175.054 118.498Z" fill="#CED1D5" stroke="#14303F" stroke-width="2"/>
<path fill-rule="evenodd" clip-rule="evenodd" d="M204.337 110.42C206.357 120.013 208.376 130.111 205.852 141.723C203.327 153.335 201.308 162.928 210.901 166.967C220.493 171.006 223.523 154.85 221.503 143.742C230.254 141.723 247.656 133.948 247.252 119.003C246.747 100.322 237.659 88.2052 220.493 88.7101C203.327 89.215 202.822 97.798 204.337 110.42ZM218.979 108.401C219.988 111.935 220.998 117.994 220.998 121.023C220.998 124.052 223.523 124.052 226.552 121.023C229.581 117.994 231.096 114.208 229.581 108.906C227.85 102.847 217.58 101.837 218.979 108.401Z" fill="#CED1D5"/>
<path d="M205.852 141.723L204.875 141.51L204.875 141.51L205.852 141.723ZM204.337 110.42L203.344 110.539L203.349 110.583L203.358 110.626L204.337 110.42ZM221.503 143.742L221.278 142.768L220.349 142.983L220.519 143.921L221.503 143.742ZM247.252 119.003L246.253 119.03L246.253 119.03L247.252 119.003ZM220.493 88.7101L220.523 89.7097L220.493 88.7101ZM218.979 108.401L218.001 108.609L218.008 108.643L218.017 108.676L218.979 108.401ZM229.581 108.906L228.62 109.18L228.62 109.18L229.581 108.906ZM206.829 141.935C209.404 130.092 207.334 119.803 205.316 110.214L203.358 110.626C205.379 120.223 207.349 130.129 204.875 141.51L206.829 141.935ZM211.289 166.045C209.039 165.098 207.532 163.854 206.537 162.39C205.538 160.919 205.007 159.156 204.828 157.098C204.466 152.927 205.556 147.791 206.829 141.935L204.875 141.51C203.623 147.267 202.441 152.734 202.836 157.272C203.036 159.569 203.641 161.687 204.883 163.514C206.128 165.347 207.966 166.816 210.512 167.889L211.289 166.045ZM220.519 143.921C221.505 149.344 221.248 155.981 219.611 160.708C218.791 163.077 217.669 164.837 216.315 165.785C215.03 166.683 213.412 166.939 211.289 166.045L210.512 167.889C213.186 169.014 215.543 168.765 217.461 167.424C219.31 166.13 220.618 163.915 221.501 161.362C223.273 156.243 223.52 149.248 222.487 143.564L220.519 143.921ZM246.253 119.03C246.442 126.056 242.461 131.463 237.209 135.421C231.953 139.382 225.552 141.782 221.278 142.768L221.728 144.717C226.205 143.684 232.881 141.186 238.413 137.018C243.948 132.847 248.466 126.895 248.252 118.976L246.253 119.03ZM220.523 89.7097C228.842 89.465 235.098 92.2685 239.357 97.3076C243.643 102.379 246.004 109.829 246.253 119.03L248.252 118.976C247.996 109.496 245.56 101.548 240.884 96.0165C236.182 90.453 229.311 87.4503 220.464 87.7105L220.523 89.7097ZM205.33 110.301C204.952 107.155 204.708 104.318 204.808 101.814C204.907 99.3104 205.347 97.2098 206.286 95.5031C208.111 92.1855 212.064 89.9584 220.523 89.7097L220.464 87.7105C211.756 87.9666 206.874 90.2835 204.534 94.5392C203.39 96.6191 202.915 99.0624 202.809 101.734C202.703 104.405 202.964 107.374 203.344 110.539L205.33 110.301ZM221.998 121.023C221.998 117.874 220.967 111.719 219.94 108.126L218.017 108.676C219.01 112.151 219.998 118.113 219.998 121.023H221.998ZM225.845 120.316C225.133 121.028 224.477 121.535 223.91 121.859C223.333 122.189 222.907 122.295 222.639 122.295C222.413 122.295 222.314 122.226 222.24 122.127C222.134 121.986 221.998 121.662 221.998 121.023H219.998C219.998 121.899 220.178 122.71 220.64 123.327C221.134 123.985 221.856 124.295 222.639 124.295C223.381 124.295 224.154 124.023 224.902 123.595C225.661 123.162 226.456 122.533 227.259 121.73L225.845 120.316ZM228.62 109.18C229.334 111.68 229.318 113.76 228.809 115.542C228.299 117.328 227.271 118.89 225.845 120.316L227.259 121.73C228.862 120.127 230.107 118.281 230.732 116.091C231.359 113.897 231.343 111.433 230.543 108.631L228.62 109.18ZM219.957 108.192C219.661 106.806 220.008 106.031 220.481 105.593C221.003 105.11 221.898 104.835 223.034 104.917C225.332 105.084 227.897 106.649 228.62 109.18L230.543 108.631C229.535 105.104 226.099 103.135 223.179 102.923C221.706 102.816 220.187 103.14 219.123 104.125C218.01 105.154 217.597 106.713 218.001 108.609L219.957 108.192Z" fill="#14303F"/>
<path d="M104.37 192.212C107.904 193.222 110.429 190.697 111.943 188.173C115.478 182.282 120.526 187.163 116.487 194.231C113.555 199.362 106.39 208.368 103.865 210.388C101.341 212.407 100.331 217.961 104.875 219.98C109.419 222 112.448 217.456 115.478 216.951C118.507 216.446 121.031 218.466 125.07 219.98C129.109 221.495 131.634 219.475 132.139 216.951C132.644 214.427 132.139 210.388 129.109 207.358C126.08 204.329 122.041 204.329 119.012 206.349C115.982 208.368 118.002 204.834 120.526 201.3C123.051 197.765 132.139 183.124 123.051 177.57C114.957 172.624 107.399 175.55 103.36 179.085C98.7224 183.143 100.836 191.202 104.37 192.212Z" fill="#CED1D5" stroke="#14303F" stroke-width="2"/>
<path d="M164.594 185.246C168.128 186.255 170.653 183.731 172.167 181.207C175.702 175.316 180.75 180.197 176.711 187.265C173.779 192.396 166.614 201.402 164.089 203.421C161.565 205.441 160.555 210.995 165.099 213.014C169.643 215.034 172.672 210.49 175.702 209.985C178.731 209.48 181.255 211.5 185.294 213.014C189.333 214.529 191.858 212.509 192.363 209.985C192.868 207.46 192.363 203.421 189.333 200.392C186.304 197.363 182.265 197.363 179.236 199.382C176.206 201.402 178.226 197.868 180.75 194.333C183.275 190.799 192.363 176.158 183.275 170.604C175.181 165.658 167.623 168.584 163.584 172.119C158.946 176.177 161.06 184.236 164.594 185.246Z" fill="#CED1D5" stroke="#14303F" stroke-width="2"/>
<path fill-rule="evenodd" clip-rule="evenodd" d="M135.673 171.809C132.139 175.64 128.604 181.401 128.604 193.014C128.604 203.664 136.163 213.714 144.761 213.714C153.344 213.714 159.402 199.128 159.402 189.985C159.402 179.382 157.383 174.838 151.324 170.294C145.266 165.75 139.207 167.977 135.673 171.809ZM140.216 185.143C139.207 189.182 138.702 192.212 139.207 197.26C139.712 202.309 144.255 203.319 146.275 198.775C148.295 194.231 149.696 187.102 148.799 182.619C147.79 177.57 142.741 176.56 140.216 185.143Z" fill="#CED1D5"/>
<path d="M135.673 171.809L136.408 172.487L136.408 172.487L135.673 171.809ZM151.324 170.294L150.724 171.094L150.724 171.094L151.324 170.294ZM139.207 197.26L140.202 197.161L140.202 197.161L139.207 197.26ZM140.216 185.143L139.257 184.861L139.251 184.881L139.246 184.901L140.216 185.143ZM148.799 182.619L147.819 182.815L147.819 182.815L148.799 182.619ZM129.604 193.014C129.604 181.656 133.042 176.136 136.408 172.487L134.938 171.131C131.235 175.145 127.604 181.147 127.604 193.014H129.604ZM144.761 212.714C140.865 212.714 137.09 210.43 134.25 206.747C131.417 203.074 129.604 198.112 129.604 193.014H127.604C127.604 198.566 129.571 203.955 132.666 207.969C135.755 211.973 140.059 214.714 144.761 214.714V212.714ZM158.402 189.985C158.402 194.376 156.936 200.146 154.42 204.803C151.867 209.528 148.463 212.714 144.761 212.714V214.714C149.642 214.714 153.558 210.607 156.18 205.754C158.839 200.832 160.402 194.737 160.402 189.985H158.402ZM150.724 171.094C153.66 173.296 155.539 175.436 156.712 178.252C157.899 181.099 158.402 184.729 158.402 189.985H160.402C160.402 184.637 159.896 180.694 158.558 177.483C157.207 174.24 155.047 171.836 151.924 169.494L150.724 171.094ZM136.408 172.487C138.055 170.7 140.265 169.319 142.722 168.896C145.151 168.477 147.904 168.979 150.724 171.094L151.924 169.494C148.686 167.065 145.38 166.408 142.382 166.925C139.411 167.437 136.824 169.085 134.938 171.131L136.408 172.487ZM140.202 197.161C139.712 192.26 140.195 189.351 141.187 185.386L139.246 184.901C138.218 189.013 137.692 192.163 138.212 197.36L140.202 197.161ZM145.361 198.369C144.465 200.385 143.207 200.817 142.385 200.638C141.512 200.448 140.429 199.436 140.202 197.161L138.212 197.36C138.489 200.133 139.93 202.151 141.96 202.592C144.041 203.045 146.065 201.71 147.189 199.181L145.361 198.369ZM147.819 182.815C148.233 184.888 148.126 187.655 147.645 190.508C147.166 193.348 146.332 196.184 145.361 198.369L147.189 199.181C148.237 196.822 149.114 193.821 149.617 190.84C150.117 187.872 150.262 184.833 149.78 182.423L147.819 182.815ZM141.176 185.425C141.783 183.362 142.521 181.949 143.255 181.05C143.989 180.151 144.671 179.82 145.186 179.763C146.105 179.661 147.352 180.48 147.819 182.815L149.78 182.423C149.237 179.709 147.455 177.499 144.965 177.775C143.777 177.907 142.66 178.617 141.706 179.785C140.752 180.953 139.912 182.633 139.257 184.861L141.176 185.425Z" fill="#14303F"/>
<path d="M196.764 188.172C200.298 189.182 202.317 187.466 203.832 185.648C205.347 183.83 208.376 182.619 209.386 184.133C210.396 185.648 208.376 189.182 203.832 191.707C199.288 194.231 196.764 196.251 196.764 199.28C196.764 202.309 201.813 201.804 205.347 201.804C208.881 201.804 209.891 204.834 208.376 207.863C206.861 210.892 202.317 211.397 196.764 209.882C191.21 208.368 190.2 211.902 191.21 214.426C192.22 216.951 196.764 220.485 204.337 220.485C211.91 220.485 219.988 216.446 220.998 208.368C222.008 200.29 217.969 196.755 215.444 195.746C212.92 194.736 211.91 193.726 212.92 193.221C213.93 192.716 218.979 189.687 218.979 186.153C218.979 182.619 217.464 178.58 212.92 175.045C208.376 171.511 199.793 173.026 195.754 176.055C191.715 179.084 193.23 187.163 196.764 188.172Z" fill="#CED1D5" stroke="#14303F" stroke-width="2"/>
<path fill-rule="evenodd" clip-rule="evenodd" d="M40.8205 46.5385C42.4186 34.3478 44.2987 20.0065 45.2986 16.0068C46.8132 9.94822 50.8523 6.91892 55.3963 7.4238C59.9402 7.92869 62.4646 19.0361 62.9695 31.6582C63.0705 34.1827 63.1513 36.7475 63.2321 39.3123C63.5552 49.5715 63.8783 59.8308 65.4939 67.505C65.9627 69.7319 66.5676 71.9043 67.138 73.9529C69.0246 80.729 70.5338 86.1496 65.4939 87.7004C58.9304 89.7199 55.9011 84.6711 55.9011 78.1076C55.9011 71.5441 54.3865 69.5245 50.8523 70.0294C47.8603 70.4568 47.0394 77.3976 46.2453 84.1123C46.1014 85.3291 45.9584 86.5385 45.8035 87.7004C44.7937 95.2736 42.6268 97.4123 39.24 96.2834C36.2106 95.2736 34.696 92.7492 35.2009 86.6906C35.6048 81.8437 37.7253 68.1782 38.7351 61.9513C39.2498 58.5197 39.9978 52.814 40.8205 46.5385ZM48.3281 54.8831C48.833 48.8245 50.3476 38.222 51.3574 38.222C52.3672 38.222 52.872 42.7659 53.3769 47.8148C53.5212 49.2573 53.7479 50.6174 53.951 51.8362C54.4588 54.8831 54.8194 57.0469 53.3769 57.4076C53.0737 57.4833 52.7358 57.5933 52.3823 57.7083C50.3807 58.3595 47.8771 59.174 48.3281 54.8831Z" fill="#CED1D5"/>
<path d="M45.2986 16.0068L46.2687 16.2494L46.2687 16.2494L45.2986 16.0068ZM40.8205 46.5385L41.812 46.6684L40.8205 46.5385ZM55.3963 7.4238L55.2858 8.41769L55.2858 8.41769L55.3963 7.4238ZM62.9695 31.6582L61.9703 31.6982L61.9703 31.6982L62.9695 31.6582ZM63.2321 39.3123L64.2316 39.2808L64.2316 39.2808L63.2321 39.3123ZM65.4939 67.505L66.4725 67.299L66.4725 67.299L65.4939 67.505ZM67.138 73.9529L68.1013 73.6847L68.1013 73.6847L67.138 73.9529ZM65.4939 87.7004L65.1998 86.7446L65.1998 86.7446L65.4939 87.7004ZM50.8523 70.0294L50.9937 71.0194L50.9937 71.0194L50.8523 70.0294ZM46.2453 84.1123L47.2384 84.2298L47.2384 84.2298L46.2453 84.1123ZM45.8035 87.7004L46.7947 87.8325L46.7947 87.8325L45.8035 87.7004ZM39.24 96.2834L38.9237 97.2321L38.9237 97.2321L39.24 96.2834ZM35.2009 86.6906L34.2044 86.6075L34.2044 86.6075L35.2009 86.6906ZM38.7351 61.9513L39.7223 62.1113L39.724 62.0996L38.7351 61.9513ZM48.3281 54.8831L49.3226 54.9877L49.3237 54.9769L49.3246 54.9662L48.3281 54.8831ZM53.3769 47.8148L52.3819 47.9143L52.3819 47.9143L53.3769 47.8148ZM53.951 51.8362L52.9646 52.0006L52.9646 52.0006L53.951 51.8362ZM53.3769 57.4076L53.6195 58.3777L53.6195 58.3777L53.3769 57.4076ZM52.3823 57.7083L52.6917 58.6592L52.6917 58.6592L52.3823 57.7083ZM44.3284 15.7643C43.3103 19.8369 41.4206 34.2674 39.829 46.4085L41.812 46.6684C43.4166 34.4281 45.2871 20.176 46.2687 16.2494L44.3284 15.7643ZM55.5067 6.42992C52.9684 6.14789 50.5536 6.85742 48.5767 8.48128C46.6099 10.0969 45.126 12.574 44.3284 15.7643L46.2687 16.2494C46.9858 13.3811 48.2788 11.3142 49.8462 10.0267C51.4035 8.7475 53.2801 8.19483 55.2858 8.41769L55.5067 6.42992ZM63.9687 31.6183C63.7146 25.2662 62.9516 19.2463 61.6591 14.7223C61.0142 12.4652 60.2214 10.5222 59.2545 9.08915C58.2948 7.66671 57.061 6.60262 55.5067 6.42992L55.2858 8.41769C56.0035 8.49743 56.7892 9.0111 57.5966 10.2077C58.3968 11.3938 59.1187 13.1112 59.736 15.2718C60.9679 19.5833 61.7195 25.4282 61.9703 31.6982L63.9687 31.6183ZM64.2316 39.2808C64.1508 36.7168 64.0699 34.1477 63.9687 31.6183L61.9703 31.6982C62.0711 34.2177 62.1517 36.7782 62.2325 39.3438L64.2316 39.2808ZM66.4725 67.299C64.8791 59.7304 64.5557 49.5722 64.2316 39.2808L62.2325 39.3438C62.5547 49.5709 62.8775 59.9311 64.5154 67.711L66.4725 67.299ZM68.1013 73.6847C67.5297 71.6316 66.9336 69.4895 66.4725 67.299L64.5154 67.711C64.9918 69.9742 65.6055 72.1771 66.1746 74.2211L68.1013 73.6847ZM65.788 88.6561C67.2284 88.2129 68.2936 87.4593 68.9822 86.3938C69.6589 85.3467 69.9041 84.1026 69.9133 82.7932C69.9314 80.2245 69.0295 77.0186 68.1013 73.6847L66.1746 74.2211C67.133 77.6633 67.929 80.5558 67.9134 82.7791C67.9057 83.8657 67.7012 84.6911 67.3024 85.3082C66.9155 85.907 66.2794 86.4124 65.1998 86.7446L65.788 88.6561ZM54.9011 78.1076C54.9011 81.5036 55.6785 84.6872 57.4788 86.7755C58.3928 87.8357 59.5645 88.6035 60.991 88.9484C62.4095 89.2915 64.0157 89.2015 65.788 88.6561L65.1998 86.7446C63.6904 87.209 62.4566 87.2452 61.4611 87.0045C60.4737 86.7657 59.6574 86.2397 58.9936 85.4697C57.6384 83.8976 56.9011 81.2751 56.9011 78.1076H54.9011ZM50.9937 71.0194C51.7843 70.9064 52.3681 70.9496 52.8055 71.1008C53.2195 71.2439 53.566 71.505 53.8636 71.9628C54.5102 72.9575 54.9011 74.8355 54.9011 78.1076H56.9011C56.9011 74.8162 56.5348 72.4026 55.5405 70.8729C55.0177 70.0685 54.3228 69.5092 53.4589 69.2105C52.6182 68.9199 51.6874 68.9 50.7109 69.0395L50.9937 71.0194ZM47.2384 84.2298C47.6381 80.8499 48.0349 77.5115 48.6929 74.9631C49.0223 73.687 49.3994 72.6843 49.8298 71.9962C50.2595 71.3089 50.6544 71.0678 50.9937 71.0194L50.7109 69.0395C49.5542 69.2047 48.7245 69.9916 48.134 70.9357C47.5441 71.8791 47.1054 73.1113 46.7564 74.4632C46.0573 77.1707 45.6466 80.6601 45.2522 83.9949L47.2384 84.2298ZM46.7947 87.8325C46.9508 86.662 47.0947 85.4451 47.2384 84.2298L45.2522 83.9949C45.1082 85.2131 44.966 86.415 44.8122 87.5682L46.7947 87.8325ZM38.9237 97.2321C39.8852 97.5525 40.8496 97.6715 41.7767 97.458C42.7198 97.2409 43.5241 96.7026 44.1886 95.8866C45.468 94.3154 46.2867 91.6424 46.7947 87.8325L44.8122 87.5682C44.3105 91.3315 43.5409 93.5145 42.6377 94.6238C42.2109 95.148 41.7753 95.406 41.328 95.5091C40.8647 95.6157 40.2882 95.5787 39.5562 95.3347L38.9237 97.2321ZM34.2044 86.6075C33.9462 89.7052 34.1868 92.0532 34.986 93.797C35.8131 95.6014 37.1888 96.6537 38.9237 97.2321L39.5562 95.3347C38.2619 94.9033 37.3656 94.1885 36.8042 92.9636C36.2149 91.6781 35.9507 89.7346 36.1974 86.7736L34.2044 86.6075ZM37.748 61.7912C36.7409 68.0018 34.6123 81.7127 34.2044 86.6075L36.1974 86.7736C36.5974 81.9747 38.7098 68.3546 39.7222 62.1113L37.748 61.7912ZM39.829 46.4085C39.0056 52.689 38.2592 58.3829 37.7462 61.8029L39.724 62.0996C40.2405 58.6564 40.99 52.9391 41.812 46.6684L39.829 46.4085ZM51.3574 37.222C50.8441 37.222 50.5242 37.5482 50.3978 37.6981C50.2474 37.8766 50.1351 38.0858 50.0498 38.2709C49.8749 38.6505 49.7136 39.1534 49.5632 39.7143C49.2587 40.8499 48.9527 42.402 48.667 44.1162C48.0943 47.5522 47.5862 51.7447 47.3315 54.8001L49.3246 54.9662C49.5749 51.963 50.0765 47.8249 50.6398 44.445C50.9221 42.7512 51.2156 41.274 51.4949 40.2323C51.6364 39.7045 51.7631 39.3317 51.8662 39.1079C51.92 38.9912 51.9442 38.9667 51.9272 38.9869C51.9169 38.9991 51.8731 39.0496 51.7901 39.1013C51.702 39.1562 51.5531 39.222 51.3574 39.222V37.222ZM54.372 47.7153C54.1204 45.2001 53.8645 42.7615 53.5409 40.9493C53.3805 40.0509 53.1935 39.2463 52.9594 38.647C52.8441 38.3518 52.6929 38.0412 52.4825 37.788C52.272 37.5347 51.8987 37.222 51.3574 37.222V39.222C51.2235 39.222 51.1128 39.1821 51.0378 39.1385C51.0029 39.1181 50.9788 39.0989 50.9645 39.0862C50.9573 39.0798 50.9521 39.0746 50.9489 39.0713C50.9473 39.0696 50.9461 39.0683 50.9454 39.0675C50.9446 39.0666 50.9442 39.0661 50.9442 39.0661C50.9442 39.0661 50.9446 39.0666 50.9452 39.0674C50.9459 39.0683 50.9469 39.0696 50.9481 39.0713C50.9507 39.0748 50.9543 39.0799 50.9588 39.0868C50.9679 39.1008 50.9799 39.1206 50.9943 39.1474C51.0235 39.2019 51.0581 39.2764 51.0965 39.3747C51.2568 39.7852 51.4169 40.4321 51.5721 41.3008C51.8795 43.0228 52.1285 45.3806 52.3819 47.9143L54.372 47.7153ZM54.9374 51.6718C54.7337 50.4497 54.5125 49.1205 54.372 47.7153L52.3819 47.9143C52.5299 49.3941 52.762 50.7851 52.9646 52.0006L54.9374 51.6718ZM53.6195 58.3777C54.257 58.2183 54.7356 57.8324 55.0284 57.285C55.2956 56.7854 55.3798 56.206 55.395 55.6568C55.4249 54.5701 55.1844 53.1542 54.9374 51.6718L52.9646 52.0006C53.2253 53.5651 53.4191 54.7545 53.3957 55.6017C53.3842 56.0194 53.3198 56.239 53.2648 56.3417C53.2354 56.3967 53.2181 56.4165 53.1344 56.4374L53.6195 58.3777ZM52.6917 58.6592C53.0543 58.5413 53.3568 58.4434 53.6195 58.3777L53.1344 56.4374C52.7907 56.5233 52.4174 56.6453 52.0729 56.7574L52.6917 58.6592ZM47.3336 54.7786C47.2136 55.9202 47.2718 56.8589 47.5588 57.5912C47.8687 58.382 48.4305 58.8868 49.1423 59.1051C49.7876 59.3029 50.4686 59.2382 51.0354 59.1259C51.6134 59.0114 52.2031 58.8182 52.6917 58.6592L52.0729 56.7574C51.5607 56.924 51.0868 57.0768 50.6466 57.1641C50.195 57.2535 49.903 57.2464 49.7286 57.1929C49.6207 57.1599 49.5161 57.1045 49.4209 56.8615C49.3027 56.56 49.2171 55.9915 49.3226 54.9877L47.3336 54.7786Z" fill="#14303F"/>
</svg>
