<svg width="319" height="222" viewBox="0 0 319 222" fill="none" xmlns="http://www.w3.org/2000/svg">
<path d="M3.89816 20.5511C3.89816 27.1146 4.40305 41.7562 4.90793 49.3294C5.61477 59.932 4.9079 69.5248 4.9079 85.1762C4.9079 100.828 2.38351 111.935 1.87863 120.013C1.37375 128.091 11.4714 128.091 14.5007 120.518C17.53 112.945 15.0056 96.7885 14.5007 91.2348C13.9958 85.6811 16.5203 83.1567 19.5496 81.1371C22.5789 79.1176 24.5984 85.6811 24.5984 91.7397C24.5984 97.7983 25.1033 111.43 31.6668 110.925C38.2303 110.42 38.2303 102.342 37.2205 96.7885C36.2107 91.2348 30.657 81.1371 30.1521 71.0394C29.6472 60.9418 34.1912 44.2806 36.2107 29.1341C38.2303 13.9876 33.6863 10.9583 31.1619 10.9583C28.6375 10.9583 23.0837 12.9778 23.5886 20.0462C24.0935 27.1146 23.0837 44.2806 23.0837 49.3294C23.0837 54.3783 21.0642 56.9027 18.5398 56.9027C16.0154 56.9027 14.5007 54.8832 14.5007 49.3294C14.5007 43.7757 15.5105 35.6976 15.5105 24.5901C15.5105 13.4827 12.4812 11.968 10.4617 11.968C8.44212 11.968 3.89816 13.9876 3.89816 20.5511Z" fill="#CED1D5" stroke="#14303F" stroke-width="2.5"/>
<path d="M72.5622 16.5119C74.5818 20.551 80.9108 38.7268 83.6697 48.3196C85.5574 54.8831 87.7087 52.3587 87.7087 47.8147V22.5705C87.7087 13.4826 89.2234 5.90933 93.7673 5.90933C98.3113 5.90933 100.836 9.9484 100.836 17.5217C100.836 25.0949 97.3015 44.2805 96.7966 57.9124C96.2917 71.5442 94.2722 78.1077 91.7478 79.6224C89.2234 81.137 84.1745 81.137 81.1452 74.0687C78.1159 67.0003 69.5329 47.3098 64.989 37.717C60.445 28.1242 59.4353 16.5119 62.9695 13.9875C66.5036 11.4631 70.5427 12.4728 72.5622 16.5119Z" fill="#CED1D5" stroke="#14303F" stroke-width="2.5"/>
<path d="M117.497 2.37517C121.031 4.39471 129.109 4.39471 132.139 4.89959C139.712 5.64442 140.722 12.4729 138.702 16.5119C136.683 20.551 129.109 19.5412 124.565 19.0364C120.022 18.5315 118.507 20.0461 117.497 24.0852C116.689 27.3165 117.161 31.4902 117.497 33.1731C118.843 32.1633 122.344 29.8409 125.575 28.6291C129.614 27.1145 133.149 29.6389 133.149 33.1731C133.149 36.7073 130.119 40.7464 126.585 43.2708C123.758 45.2903 117.665 46.805 114.973 47.3099C113.795 48.4879 111.741 51.5509 112.953 54.3782C114.468 57.9124 120.022 51.3489 124.565 50.844C129.109 50.3392 134.158 53.3685 134.663 58.9222C135.168 64.4759 132.644 69.0199 129.109 70.0296C125.575 71.0394 120.526 68.515 112.953 70.0296C105.38 71.5443 99.3213 67.5052 98.8164 59.9319C98.3115 52.3587 102.855 47.3099 104.37 41.2512C105.885 35.1926 104.875 20.0461 105.885 12.4729C106.895 4.89959 113.963 0.355639 117.497 2.37517Z" fill="#CED1D5" stroke="#14303F" stroke-width="2.5"/>
<path fill-rule="evenodd" clip-rule="evenodd" d="M147.051 55.1044C147.639 47.6261 148.756 33.4257 151.324 23.5803C154.354 11.968 158.898 4.89961 162.432 4.89961C165.966 4.89961 168.995 14.4924 172.529 27.6194C173.508 31.2544 174.796 35.1216 176.062 38.921C179.367 48.8423 182.518 58.3007 179.598 61.9515C175.559 67.0003 168.49 62.4564 166.976 57.9124C166.015 55.0317 165.664 53.5714 165.407 52.5024C165.258 51.8852 165.141 51.3984 164.956 50.844C164.451 49.3294 163.946 48.8245 162.432 49.8343C162.299 49.9226 162.159 50.0147 162.014 50.1104C160.495 51.1089 158.393 52.4911 158.393 53.8733C158.393 54.0635 158.409 54.3491 158.428 54.7051C158.567 57.1858 158.895 63.088 155.363 63.971C151.324 64.9808 145.771 65.9906 146.78 58.4173C146.857 57.5722 146.946 56.4466 147.051 55.1044ZM158.897 38.222C158.897 33.678 158.897 26.6097 159.907 25.5999C160.917 24.5901 161.422 26.6097 161.927 29.639C161.981 29.9639 162.041 30.3063 162.103 30.6606C162.619 33.6083 163.279 37.3747 161.927 38.7269C160.412 40.2415 158.892 40.7464 158.897 38.222Z" fill="#CED1D5"/>
<path d="M151.324 23.5803L150.115 23.2648L151.324 23.5803ZM147.051 55.1044L148.297 55.2024L147.051 55.1044ZM172.529 27.6194L173.736 27.2944L172.529 27.6194ZM176.062 38.921L177.248 38.5259L176.062 38.921ZM179.598 61.9515L180.574 62.7324L179.598 61.9515ZM166.976 57.9124L165.79 58.3077L166.976 57.9124ZM165.407 52.5024L164.191 52.7949H164.191L165.407 52.5024ZM164.956 50.844L163.77 51.2393V51.2393L164.956 50.844ZM162.432 49.8343L163.125 50.8743L162.432 49.8343ZM162.014 50.1104L161.327 49.0659H161.327L162.014 50.1104ZM158.428 54.7051L159.677 54.6356L158.428 54.7051ZM155.363 63.971L155.667 65.1837H155.667L155.363 63.971ZM146.78 58.4173L148.019 58.5825L148.023 58.5566L148.025 58.5305L146.78 58.4173ZM158.897 38.222L160.147 38.2245V38.222H158.897ZM161.927 29.639L163.16 29.4335L161.927 29.639ZM162.103 30.6606L163.334 30.4449H163.334L162.103 30.6606ZM161.927 38.7269L162.811 39.6108L162.811 39.6108L161.927 38.7269ZM150.115 23.2648C147.513 33.2391 146.391 47.5602 145.805 55.0064L148.297 55.2024C148.888 47.6919 149.999 33.6122 152.534 23.8958L150.115 23.2648ZM162.432 3.64961C161.128 3.64961 159.9 4.29533 158.811 5.2424C157.711 6.19956 156.639 7.56113 155.621 9.23607C153.582 12.5906 151.649 17.384 150.115 23.2648L152.534 23.8958C154.029 18.1643 155.883 13.6174 157.757 10.5346C158.695 8.99092 159.611 7.85962 160.452 7.12858C161.304 6.38745 161.968 6.14961 162.432 6.14961V3.64961ZM173.736 27.2944C171.971 20.7387 170.313 14.987 168.639 10.8664C167.804 8.81228 166.935 7.08383 166 5.84905C165.094 4.65171 163.918 3.64961 162.432 3.64961V6.14961C162.713 6.14961 163.241 6.34661 164.007 7.35814C164.744 8.33223 165.516 9.82241 166.323 11.8074C167.93 15.7649 169.553 21.3731 171.322 27.9444L173.736 27.2944ZM177.248 38.5259C175.98 34.7188 174.704 30.8875 173.736 27.2944L171.322 27.9444C172.312 31.6212 173.613 35.5244 174.876 39.316L177.248 38.5259ZM180.574 62.7324C181.537 61.528 181.922 59.9483 181.991 58.2591C182.061 56.5595 181.817 54.6127 181.389 52.5357C180.535 48.3863 178.893 43.4636 177.248 38.5259L174.876 39.316C176.537 44.2996 178.123 49.0668 178.94 53.0397C179.349 55.0237 179.551 56.7462 179.493 58.1569C179.435 59.578 179.119 60.5496 178.622 61.1706L180.574 62.7324ZM165.79 58.3077C166.671 60.9498 169.089 63.4756 171.841 64.6751C173.238 65.2842 174.796 65.5846 176.344 65.3217C177.916 65.0548 179.382 64.2217 180.574 62.7324L178.622 61.1706C177.794 62.2057 176.862 62.6979 175.925 62.857C174.965 63.0201 173.904 62.8472 172.84 62.3834C170.669 61.4371 168.796 59.419 168.162 57.5171L165.79 58.3077ZM164.191 52.7949C164.454 53.8874 164.815 55.3838 165.79 58.3077L168.162 57.5171C167.216 54.6796 166.874 53.2554 166.622 52.2099L164.191 52.7949ZM163.77 51.2393C163.936 51.7354 164.041 52.1717 164.191 52.7949L166.622 52.2099C166.475 51.5987 166.346 51.0615 166.142 50.4488L163.77 51.2393ZM163.125 50.8743C163.453 50.6559 163.637 50.582 163.714 50.5614C163.763 50.5486 163.658 50.5829 163.514 50.5105C163.4 50.4537 163.403 50.3986 163.481 50.5329C163.558 50.6662 163.653 50.8859 163.77 51.2393L166.142 50.4488C166.007 50.0449 165.849 49.6334 165.643 49.2776C165.437 48.9229 165.124 48.5206 164.632 48.2745C163.572 47.7448 162.503 48.2848 161.738 48.7942L163.125 50.8743ZM162.7 51.1549C162.845 51.0597 162.989 50.9652 163.125 50.8743L161.738 48.7942C161.61 48.8799 161.473 48.9698 161.327 49.0659L162.7 51.1549ZM159.643 53.8733C159.643 53.8487 159.653 53.7392 159.793 53.5241C159.932 53.3101 160.156 53.0592 160.469 52.7776C161.102 52.209 161.924 51.6654 162.7 51.1549L161.327 49.0659C160.585 49.554 159.596 50.2007 158.798 50.9184C158.396 51.28 157.999 51.6962 157.697 52.1612C157.395 52.6253 157.143 53.2069 157.143 53.8733H159.643ZM159.677 54.6356C159.656 54.262 159.643 54.0198 159.643 53.8733H157.143C157.143 54.1072 157.162 54.4361 157.18 54.7747L159.677 54.6356ZM155.667 65.1837C158.203 64.5497 159.144 62.1464 159.502 60.1591C159.875 58.0966 159.745 55.8573 159.677 54.6356L157.18 54.7747C157.251 56.0337 157.354 57.9859 157.042 59.7153C156.717 61.52 156.056 62.5094 155.06 62.7584L155.667 65.1837ZM145.541 58.2521C145.273 60.2671 145.412 61.8924 145.993 63.1471C146.599 64.4561 147.621 65.2253 148.796 65.6028C149.921 65.9644 151.164 65.9635 152.313 65.8367C153.475 65.7086 154.648 65.4384 155.667 65.1837L155.06 62.7584C154.06 63.0085 153.024 63.2432 152.039 63.3518C151.043 63.4617 150.203 63.4292 149.561 63.2228C148.969 63.0323 148.54 62.6971 148.262 62.097C147.959 61.4426 147.783 60.3541 148.019 58.5825L145.541 58.2521ZM145.805 55.0064C145.699 56.3517 145.611 57.4684 145.536 58.3041L148.025 58.5305C148.103 57.676 148.192 56.5414 148.297 55.2024L145.805 55.0064ZM159.023 24.716C158.68 25.0596 158.496 25.5174 158.385 25.8611C158.261 26.2439 158.166 26.6892 158.09 27.159C157.937 28.1017 157.839 29.2749 157.775 30.5216C157.647 33.0209 157.647 35.9575 157.647 38.222H160.147C160.147 35.9426 160.148 33.073 160.272 30.6497C160.334 29.4351 160.426 28.3679 160.557 27.5592C160.623 27.1533 160.694 26.8453 160.763 26.6305C160.845 26.3766 160.882 26.3927 160.791 26.4838L159.023 24.716ZM163.16 29.4335C162.912 27.9492 162.641 26.5384 162.26 25.624C162.16 25.3832 162.035 25.1324 161.872 24.9065C161.714 24.6864 161.473 24.4223 161.119 24.2521C160.727 24.0639 160.293 24.0381 159.884 24.1683C159.514 24.286 159.23 24.5095 159.023 24.716L160.791 26.4838C160.837 26.4379 160.789 26.5036 160.643 26.5503C160.457 26.6095 160.232 26.5994 160.037 26.5059C159.88 26.4304 159.824 26.3398 159.841 26.3643C159.855 26.3829 159.895 26.4477 159.953 26.5856C160.203 27.1858 160.436 28.2995 160.694 29.8445L163.16 29.4335ZM163.334 30.4449C163.272 30.0896 163.213 29.7524 163.16 29.4335L160.694 29.8445C160.749 30.1755 160.81 30.5231 160.872 30.8762L163.334 30.4449ZM162.811 39.6108C163.388 39.0336 163.676 38.2788 163.822 37.5605C163.97 36.8337 163.997 36.0328 163.965 35.241C163.9 33.6633 163.589 31.899 163.334 30.4449L160.872 30.8762C161.133 32.3699 161.41 33.9627 161.467 35.3431C161.495 36.0305 161.465 36.6089 161.373 37.0607C161.279 37.5211 161.142 37.7441 161.043 37.843L162.811 39.6108ZM157.647 38.2195C157.646 38.9375 157.746 39.6421 158.076 40.208C158.46 40.8687 159.104 41.2391 159.842 41.2391C160.467 41.2391 161.036 40.9754 161.474 40.7036C161.935 40.4169 162.389 40.0327 162.811 39.6108L161.043 37.843C160.708 38.1784 160.403 38.4253 160.154 38.5803C159.88 38.7503 159.787 38.7391 159.842 38.7391C159.89 38.7391 159.982 38.7516 160.082 38.8096C160.181 38.8672 160.226 38.9337 160.236 38.9497C160.241 38.9589 160.216 38.918 160.191 38.7904C160.166 38.6648 160.147 38.4809 160.147 38.2245L157.647 38.2195Z" fill="#14303F"/>
<path d="M190.705 49.3295C191.042 44.1123 191.513 32.4663 190.705 27.6195C190.312 14.9974 190.705 4.89964 197.269 5.90941C203.832 6.91918 207.366 26.1048 210.9 34.1829C214.435 42.2611 213.425 33.1732 212.92 27.6195C212.415 22.0657 212.92 5.40456 219.988 6.41432C227.057 7.42409 224.027 22.0657 222.513 29.1341C220.998 36.2025 222.513 48.3197 223.018 59.4271C223.523 70.5346 221.503 71.5444 218.979 71.5444C214.94 71.5444 210.9 68.0102 209.386 59.4271C207.871 50.8441 202.822 35.1927 200.803 32.1634C198.783 29.1341 200.298 33.1732 200.803 38.7269C201.308 44.2806 201.308 55.8929 201.308 59.4271C201.308 62.9613 200.298 69.0199 194.239 68.0102C188.181 67.0004 189.695 55.8929 190.705 49.3295Z" fill="#CED1D5" stroke="#14303F" stroke-width="2.5"/>
<path d="M238.669 4.39474C234.63 3.88986 232.106 8.9387 232.611 17.0168C234.63 28.6292 232.611 42.7659 229.581 49.3294C226.552 55.8929 223.523 64.9808 228.571 67.5052C233.62 70.0296 237.659 63.4661 240.184 56.9026C242.708 50.3391 243.718 39.7366 244.728 24.5901C245.738 9.44355 242.708 4.89963 238.669 4.39474Z" fill="#CED1D5" stroke="#14303F" stroke-width="2.5"/>
<path d="M258.36 6.91909C266.943 4.89955 272.496 13.4826 274.011 19.5412C277.04 43.2707 267.447 34.1828 265.428 31.1535C263.657 28.4967 258.864 28.1242 256.34 35.1926C253.816 42.261 253.311 61.4466 256.34 68.5149C259.369 75.5833 264.418 75.5833 266.943 72.554C269.467 69.5247 263.408 60.4368 269.972 60.4368C276.535 60.4368 280.574 69.0198 281.079 74.5735C281.584 80.1273 280.07 95.2738 271.991 96.7884C263.913 98.3031 255.835 93.7591 248.767 79.6224C241.698 65.4856 240.922 44.2805 243.718 32.1633C245.815 23.0754 249.776 8.93862 258.36 6.91909Z" fill="#CED1D5" stroke="#14303F" stroke-width="2.5"/>
<path d="M281.584 55.893C282.089 48.3198 280.07 30.6488 279.565 23.0756C278.321 8.43395 288.653 5.90953 292.692 6.9193C296.731 7.92906 302.284 8.43395 308.848 8.43395C315.411 8.43395 317.431 14.9974 316.926 24.5902C316.421 34.183 305.819 31.6586 301.275 29.6391C296.731 27.6195 293.701 29.1342 293.197 36.2026C292.692 43.2709 294.206 49.8344 300.77 47.31C307.333 44.7856 313.897 42.766 314.907 51.3491C315.916 59.9321 305.819 62.9614 300.77 63.9712C295.721 64.9809 293.197 65.4858 292.187 74.5737C291.177 83.6616 300.77 85.1763 305.819 86.1861C310.867 87.1958 313.897 89.2154 313.897 94.2642V108.906C313.897 114.46 309.858 114.964 301.78 111.935C293.701 108.906 278.555 95.274 278.555 81.6421C278.555 68.0102 281.079 63.4663 281.584 55.893Z" fill="#CED1D5" stroke="#14303F" stroke-width="2.5"/>
<path d="M74.582 107.896C74.582 113.45 84.1748 116.984 87.709 118.499C94.7774 121.023 94.2725 125.062 94.7774 135.16C95.2823 145.257 92.7578 153.336 92.253 157.879C91.7481 162.423 92.253 171.511 98.3116 171.006C104.37 170.502 109.924 160.404 110.429 149.296C110.934 138.189 108.914 128.596 108.409 124.557C107.904 120.518 108.409 119.003 111.439 116.984C114.468 114.964 123.051 106.886 125.07 99.8178C127.09 92.7494 122.546 89.7201 118.507 89.2152C114.468 88.7104 109.419 94.769 105.38 97.7983C101.341 100.828 93.2627 101.837 85.6895 99.8178C78.1162 97.7983 74.582 102.342 74.582 107.896Z" fill="#CED1D5" stroke="#14303F" stroke-width="2.5"/>
<path fill-rule="evenodd" clip-rule="evenodd" d="M126.585 112.44C128.1 120.518 129.109 126.577 126.585 136.674C124.06 146.772 124.06 156.87 130.624 156.87C137.187 156.87 141.227 147.277 142.236 139.704C142.297 139.248 142.356 138.798 142.414 138.355C143.32 131.436 143.994 126.284 147.79 129.606C149.578 131.171 151.565 133.923 153.618 136.768C156.201 140.348 158.89 144.074 161.422 145.762C165.966 148.792 173.034 148.287 175.054 142.228C177.073 136.17 170.51 128.091 165.966 124.557C165.287 124.029 164.642 123.546 164.045 123.1C160.652 120.559 158.845 119.207 161.422 117.489C161.66 117.33 161.927 117.158 162.215 116.973C165.59 114.802 171.945 110.715 171.015 102.342C170.005 93.2544 157.888 85.1762 143.751 85.1762C129.614 85.1762 123.051 90.2251 123.556 95.7788C123.989 100.547 125.827 108.961 126.411 111.63C126.507 112.07 126.569 112.354 126.585 112.44ZM142.259 112.624C142.46 113.163 142.627 113.611 142.741 113.955C143.246 115.469 145.895 115.02 148.8 112.945C152.334 110.42 153.849 107.896 153.849 105.372C153.849 102.342 149.81 99.3129 142.741 99.8178C139.72 100.034 138.785 100.828 139.712 104.362C140.493 107.875 141.575 110.784 142.259 112.624Z" fill="#CED1D5"/>
<path d="M126.585 136.674L127.798 136.978L126.585 136.674ZM126.585 112.44L125.356 112.67L125.356 112.67L126.585 112.44ZM142.236 139.704L140.997 139.538L142.236 139.704ZM142.414 138.355L143.653 138.517L142.414 138.355ZM147.79 129.606L146.967 130.547H146.967L147.79 129.606ZM153.618 136.768L154.631 136.037L153.618 136.768ZM161.422 145.762L160.729 146.802L161.422 145.762ZM175.054 142.228L176.24 142.623V142.623L175.054 142.228ZM165.966 124.557L166.733 123.57L165.966 124.557ZM164.045 123.1L164.795 122.099H164.795L164.045 123.1ZM161.422 117.489L160.729 116.449L160.729 116.449L161.422 117.489ZM162.215 116.973L161.539 115.922L162.215 116.973ZM171.015 102.342L169.772 102.48L171.015 102.342ZM123.556 95.7788L122.311 95.892L123.556 95.7788ZM126.411 111.63L125.189 111.897L126.411 111.63ZM142.741 113.955L143.927 113.559L142.741 113.955ZM142.259 112.624L143.431 112.188V112.188L142.259 112.624ZM148.8 112.945L149.526 113.962L148.8 112.945ZM153.849 105.372L152.599 105.372V105.372L153.849 105.372ZM142.741 99.8178L142.652 98.571L142.741 99.8178ZM139.712 104.362L140.932 104.091L140.927 104.068L140.921 104.045L139.712 104.362ZM127.798 136.978C130.388 126.616 129.339 120.344 127.813 112.21L125.356 112.67C126.86 120.693 127.831 126.538 125.372 136.371L127.798 136.978ZM130.624 155.62C129.354 155.62 128.486 155.154 127.845 154.353C127.16 153.498 126.673 152.173 126.435 150.393C125.961 146.836 126.55 141.966 127.798 136.978L125.372 136.371C124.095 141.48 123.422 146.708 123.957 150.724C124.225 152.731 124.81 154.562 125.893 155.915C127.019 157.323 128.612 158.12 130.624 158.12V155.62ZM140.997 139.538C140.509 143.203 139.287 147.327 137.434 150.496C135.553 153.711 133.231 155.62 130.624 155.62V158.12C134.581 158.12 137.559 155.232 139.592 151.758C141.651 148.237 142.954 143.778 143.475 139.869L140.997 139.538ZM141.175 138.193C141.117 138.636 141.058 139.085 140.997 139.538L143.475 139.869C143.536 139.412 143.595 138.96 143.653 138.517L141.175 138.193ZM148.613 128.665C147.6 127.779 146.444 127.127 145.227 127.374C143.986 127.626 143.288 128.685 142.872 129.641C142.433 130.651 142.125 131.96 141.872 133.383C141.616 134.821 141.4 136.471 141.175 138.193L143.653 138.517C143.881 136.779 144.089 135.191 144.333 133.821C144.579 132.436 144.847 131.367 145.164 130.639C145.321 130.279 145.465 130.06 145.579 129.937C145.632 129.879 145.671 129.851 145.692 129.838C145.711 129.827 145.721 129.825 145.724 129.824C145.731 129.823 146.082 129.772 146.967 130.547L148.613 128.665ZM154.631 136.037C152.614 133.242 150.534 130.346 148.613 128.665L146.967 130.547C148.622 131.995 150.515 134.605 152.604 137.5L154.631 136.037ZM162.115 144.722C161.006 143.983 159.794 142.745 158.503 141.179C157.222 139.626 155.928 137.834 154.631 136.037L152.604 137.5C153.89 139.282 155.233 141.143 156.575 142.77C157.907 144.385 159.306 145.854 160.729 146.802L162.115 144.722ZM173.868 141.833C173.015 144.392 171.136 145.749 168.945 146.176C166.702 146.614 164.132 146.067 162.115 144.722L160.729 146.802C163.256 148.487 166.492 149.202 169.424 148.63C172.408 148.048 175.073 146.123 176.24 142.623L173.868 141.833ZM165.198 125.544C167.362 127.227 170.033 130.018 171.903 133.095C173.803 136.222 174.699 139.34 173.868 141.833L176.24 142.623C177.428 139.058 176.052 135.107 174.039 131.797C171.997 128.436 169.114 125.422 166.733 123.57L165.198 125.544ZM163.296 124.1C163.893 124.547 164.53 125.024 165.198 125.544L166.733 123.57C166.044 123.034 165.39 122.545 164.795 122.099L163.296 124.1ZM160.729 116.449C160.004 116.932 159.358 117.531 159.085 118.327C158.783 119.209 159.034 120.019 159.44 120.657C159.824 121.259 160.409 121.821 161.036 122.349C161.676 122.888 162.457 123.472 163.296 124.1L164.795 122.099C163.937 121.457 163.22 120.92 162.647 120.437C162.061 119.943 161.72 119.582 161.549 119.315C161.471 119.191 161.455 119.127 161.453 119.115C161.452 119.11 161.453 119.114 161.452 119.123C161.452 119.133 161.45 119.139 161.45 119.138C161.457 119.118 161.552 118.904 162.115 118.529L160.729 116.449ZM161.539 115.922C161.253 116.106 160.977 116.283 160.729 116.449L162.115 118.529C162.344 118.377 162.601 118.211 162.892 118.024L161.539 115.922ZM169.772 102.48C170.609 110.012 164.975 113.712 161.539 115.922L162.892 118.024C166.206 115.892 173.281 111.417 172.257 102.204L169.772 102.48ZM143.751 86.4262C150.591 86.4262 156.918 88.3828 161.631 91.4036C166.369 94.4409 169.324 98.4441 169.772 102.48L172.257 102.204C171.696 97.1526 168.087 92.5728 162.98 89.2989C157.847 86.0088 151.048 83.9262 143.751 83.9262V86.4262ZM124.8 95.6656C124.604 93.5056 125.737 91.2617 128.794 89.4739C131.877 87.6704 136.806 86.4262 143.751 86.4262V83.9262C136.559 83.9262 131.138 85.2065 127.532 87.3159C123.898 89.4409 122.002 92.4983 122.311 95.892L124.8 95.6656ZM127.632 111.363C127.042 108.663 125.225 100.338 124.8 95.6656L122.311 95.892C122.753 100.756 124.613 109.258 125.189 111.897L127.632 111.363ZM127.814 112.21C127.793 112.1 127.724 111.786 127.632 111.363L125.189 111.897C125.289 112.354 125.345 112.608 125.356 112.67L127.814 112.21ZM143.927 113.559C143.804 113.19 143.629 112.719 143.431 112.188L141.088 113.059C141.292 113.607 141.449 114.031 141.555 114.35L143.927 113.559ZM148.073 111.928C146.709 112.902 145.498 113.423 144.664 113.563C144.245 113.633 144.02 113.591 143.936 113.559C143.902 113.546 143.928 113.561 143.927 113.559L141.555 114.35C141.807 115.105 142.354 115.632 143.049 115.896C143.694 116.141 144.408 116.141 145.077 116.029C146.419 115.804 147.986 115.063 149.526 113.962L148.073 111.928ZM152.599 105.372C152.599 107.322 151.448 109.517 148.073 111.928L149.526 113.962C153.22 111.324 155.099 108.47 155.099 105.371L152.599 105.372ZM142.83 101.065C146.183 100.825 148.7 101.433 150.329 102.357C151.976 103.29 152.599 104.452 152.599 105.372L155.099 105.371C155.099 103.262 153.702 101.395 151.562 100.182C149.405 98.9594 146.368 98.3055 142.652 98.571L142.83 101.065ZM140.921 104.045C140.701 103.207 140.616 102.617 140.619 102.201C140.622 101.798 140.708 101.647 140.75 101.591C140.792 101.533 140.903 101.422 141.245 101.312C141.6 101.198 142.108 101.116 142.83 101.065L142.652 98.571C141.864 98.6273 141.121 98.7259 140.481 98.9317C139.827 99.1417 139.195 99.4904 138.742 100.1C138.289 100.711 138.125 101.435 138.119 102.181C138.114 102.915 138.259 103.749 138.503 104.679L140.921 104.045ZM143.431 112.188C142.748 110.352 141.693 107.512 140.932 104.091L138.492 104.633C139.293 108.237 140.402 111.216 141.088 113.059L143.431 112.188Z" fill="#14303F"/>
<path d="M175.054 118.498C177.073 107.391 181.112 96.2835 183.637 91.7395C185.786 87.1956 192.22 82.1467 196.259 85.6809C200.298 89.2151 198.278 95.7787 194.239 106.886C190.2 117.994 190.705 126.577 196.259 139.199C201.813 151.821 191.21 162.423 181.112 151.316C171.09 140.291 173.005 129.764 175.009 118.747L175.054 118.498Z" fill="#CED1D5" stroke="#14303F" stroke-width="2.5"/>
<path fill-rule="evenodd" clip-rule="evenodd" d="M204.337 110.42C206.357 120.013 208.376 130.111 205.852 141.723C203.327 153.335 201.308 162.928 210.901 166.967C220.493 171.006 223.523 154.85 221.503 143.743C230.254 141.723 247.656 133.948 247.252 119.003C246.747 100.323 237.659 88.2054 220.493 88.7103C203.327 89.2151 202.822 97.7982 204.337 110.42ZM218.979 108.401C219.988 111.935 220.998 117.994 220.998 121.023C220.998 124.052 223.523 124.052 226.552 121.023C229.581 117.994 231.096 114.208 229.581 108.906C227.85 102.847 217.58 101.838 218.979 108.401Z" fill="#CED1D5"/>
<path d="M205.852 141.723L204.63 141.458L205.852 141.723ZM204.337 110.42L203.096 110.569L203.102 110.624L203.114 110.678L204.337 110.42ZM221.503 143.743L221.222 142.525L220.06 142.793L220.273 143.966L221.503 143.743ZM247.252 119.003L246.003 119.037L247.252 119.003ZM220.493 88.7103L220.53 89.9597L220.493 88.7103ZM218.979 108.401L217.756 108.662L217.765 108.703L217.777 108.744L218.979 108.401ZM229.581 108.906L228.379 109.249L229.581 108.906ZM207.073 141.989C209.66 130.087 207.579 119.75 205.56 110.163L203.114 110.678C205.134 120.276 207.092 130.134 204.63 141.458L207.073 141.989ZM211.386 165.815C209.173 164.884 207.707 163.668 206.744 162.249C205.775 160.823 205.254 159.104 205.077 157.077C204.719 152.951 205.797 147.857 207.073 141.989L204.63 141.458C203.381 147.202 202.188 152.71 202.587 157.293C202.789 159.62 203.404 161.783 204.676 163.654C205.952 165.533 207.831 167.031 210.415 168.119L211.386 165.815ZM220.273 143.966C221.253 149.357 220.994 155.948 219.375 160.626C218.563 162.973 217.464 164.676 216.172 165.58C214.966 166.423 213.44 166.68 211.386 165.815L210.415 168.119C213.157 169.274 215.607 169.026 217.605 167.629C219.515 166.292 220.846 164.019 221.738 161.444C223.526 156.276 223.772 149.236 222.733 143.519L220.273 143.966ZM246.003 119.037C246.189 125.952 242.276 131.29 237.059 135.222C231.836 139.157 225.47 141.544 221.222 142.525L221.784 144.961C226.287 143.921 232.998 141.412 238.563 137.218C244.134 133.021 248.719 127 248.502 118.97L246.003 119.037ZM220.53 89.9597C228.784 89.717 234.962 92.4956 239.166 97.4691C243.404 102.483 245.755 109.871 246.003 119.037L248.502 118.97C248.245 109.455 245.799 101.444 241.075 95.8553C236.317 90.2262 229.369 87.1987 220.457 87.4608L220.53 89.9597ZM205.578 110.271C205.201 107.128 204.959 104.307 205.057 101.824C205.156 99.3416 205.592 97.2838 206.505 95.6237C208.265 92.4234 212.103 90.2076 220.53 89.9597L220.457 87.4608C211.718 87.7178 206.72 90.0459 204.315 94.4189C203.145 96.5455 202.666 99.0316 202.559 101.725C202.453 104.417 202.716 107.402 203.096 110.569L205.578 110.271ZM222.248 121.023C222.248 117.844 221.211 111.666 220.181 108.058L217.777 108.744C218.765 112.205 219.748 118.143 219.748 121.023H222.248ZM225.668 120.139C224.968 120.84 224.329 121.332 223.786 121.642C223.23 121.959 222.848 122.045 222.639 122.045C222.482 122.045 222.462 122.006 222.44 121.977C222.379 121.896 222.248 121.633 222.248 121.023H219.748C219.748 121.928 219.933 122.801 220.44 123.477C220.986 124.205 221.786 124.545 222.639 124.545C223.44 124.545 224.257 124.252 225.026 123.812C225.809 123.365 226.622 122.721 227.436 121.907L225.668 120.139ZM228.379 109.249C229.083 111.711 229.063 113.743 228.569 115.473C228.073 117.209 227.072 118.736 225.668 120.139L227.436 121.907C229.061 120.281 230.333 118.4 230.972 116.16C231.614 113.915 231.594 111.402 230.783 108.562L228.379 109.249ZM220.201 108.14C219.919 106.818 220.257 106.14 220.651 105.777C221.105 105.356 221.921 105.087 223.016 105.167C225.236 105.328 227.692 106.843 228.379 109.249L230.783 108.562C229.74 104.911 226.195 102.891 223.197 102.673C221.682 102.563 220.085 102.894 218.953 103.941C217.76 105.045 217.339 106.702 217.756 108.662L220.201 108.14Z" fill="#14303F"/>
<path d="M104.37 192.212C107.904 193.222 110.429 190.697 111.943 188.173C115.478 182.282 120.526 187.163 116.487 194.231C113.555 199.362 106.39 208.368 103.865 210.388C101.341 212.407 100.331 217.961 104.875 219.98C109.419 222 112.448 217.456 115.478 216.951C118.507 216.446 121.031 218.466 125.07 219.98C129.109 221.495 131.634 219.475 132.139 216.951C132.644 214.427 132.139 210.388 129.109 207.358C126.08 204.329 122.041 204.329 119.012 206.349C115.982 208.368 118.002 204.834 120.526 201.3C123.051 197.765 132.139 183.124 123.051 177.57C114.957 172.624 107.399 175.55 103.36 179.085C98.7224 183.143 100.836 191.202 104.37 192.212Z" fill="#CED1D5" stroke="#14303F" stroke-width="2.5"/>
<path d="M164.594 185.246C168.128 186.255 170.653 183.731 172.167 181.207C175.702 175.316 180.75 180.197 176.711 187.265C173.779 192.396 166.614 201.402 164.089 203.421C161.565 205.441 160.555 210.995 165.099 213.014C169.643 215.034 172.672 210.49 175.702 209.985C178.731 209.48 181.255 211.5 185.294 213.014C189.333 214.529 191.858 212.509 192.363 209.985C192.868 207.46 192.363 203.421 189.333 200.392C186.304 197.363 182.265 197.363 179.236 199.382C176.206 201.402 178.226 197.868 180.75 194.333C183.275 190.799 192.363 176.158 183.275 170.604C175.181 165.658 167.623 168.584 163.584 172.119C158.946 176.177 161.06 184.236 164.594 185.246Z" fill="#CED1D5" stroke="#14303F" stroke-width="2.5"/>
<path fill-rule="evenodd" clip-rule="evenodd" d="M135.673 171.809C132.139 175.64 128.604 181.401 128.604 193.014C128.604 203.664 136.163 213.714 144.761 213.714C153.344 213.714 159.402 199.128 159.402 189.985C159.402 179.382 157.383 174.838 151.324 170.294C145.266 165.75 139.207 167.977 135.673 171.809ZM140.216 185.143C139.207 189.182 138.702 192.212 139.207 197.26C139.712 202.309 144.255 203.319 146.275 198.775C148.295 194.231 149.696 187.102 148.799 182.619C147.79 177.57 142.741 176.56 140.216 185.143Z" fill="#CED1D5"/>
<path d="M135.673 171.809L136.592 172.656L135.673 171.809ZM151.324 170.294L150.574 171.294V171.294L151.324 170.294ZM139.207 197.26L140.45 197.136L139.207 197.26ZM140.216 185.143L139.017 184.791L139.01 184.815L139.004 184.84L140.216 185.143ZM148.799 182.619L147.574 182.864L148.799 182.619ZM129.854 193.014C129.854 181.719 133.268 176.26 136.592 172.656L134.754 170.961C131.009 175.021 127.354 181.084 127.354 193.014H129.854ZM144.761 212.464C140.965 212.464 137.257 210.237 134.448 206.594C131.648 202.964 129.854 198.056 129.854 193.014H127.354C127.354 198.623 129.34 204.065 132.468 208.121C135.588 212.166 139.958 214.964 144.761 214.964V212.464ZM158.152 189.985C158.152 194.33 156.698 200.06 154.2 204.684C151.656 209.394 148.315 212.464 144.761 212.464V214.964C149.789 214.964 153.769 210.742 156.4 205.872C159.077 200.917 160.652 194.782 160.652 189.985H158.152ZM150.574 171.294C153.486 173.478 155.33 175.585 156.481 178.348C157.649 181.15 158.152 184.741 158.152 189.985H160.652C160.652 184.626 160.146 180.643 158.789 177.386C157.416 174.09 155.221 171.654 152.074 169.294L150.574 171.294ZM136.592 172.656C138.209 170.902 140.371 169.555 142.764 169.142C145.122 168.736 147.806 169.218 150.574 171.294L152.074 169.294C148.784 166.826 145.409 166.15 142.339 166.679C139.305 167.202 136.67 168.883 134.754 170.961L136.592 172.656ZM140.45 197.136C139.964 192.272 140.442 189.394 141.429 185.446L139.004 184.84C137.971 188.971 137.439 192.151 137.963 197.385L140.45 197.136ZM145.133 198.267C144.265 200.219 143.103 200.538 142.438 200.394C141.71 200.235 140.672 199.349 140.45 197.136L137.963 197.385C138.246 200.221 139.733 202.364 141.907 202.837C144.146 203.323 146.265 201.875 147.417 199.283L145.133 198.267ZM147.574 182.864C147.98 184.894 147.877 187.627 147.398 190.466C146.922 193.289 146.094 196.105 145.133 198.267L147.417 199.283C148.476 196.902 149.358 193.88 149.863 190.882C150.366 187.9 150.516 184.827 150.025 182.374L147.574 182.864ZM141.416 185.496C142.016 183.453 142.742 182.074 143.449 181.209C144.156 180.343 144.782 180.059 145.214 180.011C145.936 179.931 147.116 180.576 147.574 182.864L150.025 182.374C149.473 179.613 147.624 177.228 144.938 177.527C143.666 177.668 142.494 178.426 141.512 179.627C140.531 180.829 139.679 182.542 139.017 184.791L141.416 185.496Z" fill="#14303F"/>
<path d="M196.764 188.172C200.298 189.182 202.317 187.466 203.832 185.648C205.347 183.83 208.376 182.619 209.386 184.133C210.396 185.648 208.376 189.182 203.832 191.707C199.288 194.231 196.764 196.251 196.764 199.28C196.764 202.309 201.813 201.804 205.347 201.804C208.881 201.804 209.891 204.834 208.376 207.863C206.861 210.892 202.317 211.397 196.764 209.882C191.21 208.368 190.2 211.902 191.21 214.426C192.22 216.951 196.764 220.485 204.337 220.485C211.91 220.485 219.988 216.446 220.998 208.368C222.008 200.29 217.969 196.755 215.444 195.746C212.92 194.736 211.91 193.726 212.92 193.221C213.93 192.716 218.979 189.687 218.979 186.153C218.979 182.619 217.464 178.58 212.92 175.045C208.376 171.511 199.793 173.026 195.754 176.055C191.715 179.084 193.23 187.163 196.764 188.172Z" fill="#CED1D5" stroke="#14303F" stroke-width="2.5"/>
<path fill-rule="evenodd" clip-rule="evenodd" d="M40.8205 46.5385C42.4186 34.3478 44.2987 20.0065 45.2986 16.0069C46.8132 9.94827 50.8523 6.91896 55.3963 7.42385C59.9402 7.92873 62.4646 19.0362 62.9695 31.6583C63.0705 34.1827 63.1513 36.7475 63.232 39.3123C63.5552 49.5716 63.8783 59.8308 65.4939 67.505C65.9627 69.7319 66.5676 71.9044 67.138 73.9529C69.0246 80.7291 70.5338 86.1497 65.4939 87.7004C58.9304 89.7199 55.9011 84.6711 55.9011 78.1076C55.9011 71.5441 54.3865 69.5246 50.8523 70.0295C47.8603 70.4569 47.0394 77.3977 46.2453 84.1124C46.1014 85.3292 45.9584 86.5386 45.8035 87.7004C44.7937 95.2737 42.6268 97.4124 39.24 96.2834C36.2106 95.2737 34.696 92.7492 35.2009 86.6906C35.6048 81.8438 37.7253 68.1782 38.7351 61.9513C39.2498 58.5197 39.9978 52.8141 40.8205 46.5385ZM48.3281 54.8832C48.833 48.8246 50.3476 38.222 51.3574 38.222C52.3671 38.222 52.872 42.766 53.3769 47.8148C53.5212 49.2573 53.7479 50.6174 53.951 51.8362C54.4588 54.8832 54.8194 57.047 53.3769 57.4076C53.0737 57.4834 52.7358 57.5933 52.3823 57.7084C50.3807 58.3595 47.8771 59.1741 48.3281 54.8832Z" fill="#CED1D5"/>
<path d="M45.2986 16.0069L46.5113 16.31L45.2986 16.0069ZM40.8205 46.5385L42.0599 46.701L40.8205 46.5385ZM55.3963 7.42385L55.2582 8.6662L55.3963 7.42385ZM62.9695 31.6583L61.7205 31.7083L62.9695 31.6583ZM63.232 39.3123L64.4814 39.273L63.232 39.3123ZM65.4939 67.505L66.7171 67.2475L65.4939 67.505ZM67.138 73.9529L68.3422 73.6177L67.138 73.9529ZM65.4939 87.7004L65.1263 86.5057H65.1263L65.4939 87.7004ZM50.8523 70.0295L51.0291 71.2669H51.0291L50.8523 70.0295ZM46.2453 84.1124L47.4867 84.2592L46.2453 84.1124ZM45.8035 87.7004L47.0425 87.8656L45.8035 87.7004ZM39.24 96.2834L38.8447 97.4693L38.8447 97.4693L39.24 96.2834ZM35.2009 86.6906L33.9552 86.5868L35.2009 86.6906ZM38.7351 61.9513L39.969 62.1514L39.9702 62.1441L39.9713 62.1367L38.7351 61.9513ZM48.3281 54.8832L49.5712 55.0138L49.5726 55.0004L49.5738 54.987L48.3281 54.8832ZM53.3769 47.8148L52.1331 47.9392V47.9392L53.3769 47.8148ZM53.951 51.8362L52.718 52.0417L53.951 51.8362ZM53.3769 57.4076L53.6801 58.6203L53.3769 57.4076ZM52.3823 57.7084L52.769 58.897H52.769L52.3823 57.7084ZM44.0859 15.7037C43.0632 19.7946 41.1711 34.2473 39.5811 46.376L42.0599 46.701C43.6661 34.4483 45.5342 20.2185 46.5113 16.31L44.0859 15.7037ZM55.5343 6.18149C52.9295 5.89207 50.4473 6.62121 48.418 8.28814C46.4012 9.94477 44.8935 12.4731 44.0859 15.7037L46.5113 16.31C47.2183 13.482 48.4874 11.4664 50.0049 10.22C51.5097 8.98381 53.3191 8.45074 55.2582 8.6662L55.5343 6.18149ZM64.2185 31.6083C63.964 25.246 63.1996 19.2043 61.8994 14.6537C61.2511 12.3845 60.4495 10.4133 59.4618 8.94937C58.483 7.4987 57.1931 6.36581 55.5343 6.18149L55.2582 8.6662C55.8713 8.73433 56.601 9.1792 57.3893 10.3476C58.1687 11.5027 58.8818 13.192 59.4956 15.3405C60.7199 19.6254 61.4701 25.4485 61.7205 31.7083L64.2185 31.6083ZM64.4814 39.273C64.4007 36.7091 64.3197 34.139 64.2185 31.6083L61.7205 31.7083C61.8212 34.2265 61.9019 36.7859 61.9827 39.3517L64.4814 39.273ZM66.7171 67.2475C65.1293 59.7054 64.8058 49.5724 64.4814 39.273L61.9827 39.3517C62.3045 49.5708 62.6273 59.9563 64.2707 67.7626L66.7171 67.2475ZM68.3422 73.6177C67.7702 71.5635 67.1764 69.429 66.7171 67.2475L64.2707 67.7626C64.7491 70.0349 65.365 72.2453 65.9338 74.2882L68.3422 73.6177ZM65.8615 88.8951C67.347 88.438 68.4659 87.6534 69.1921 86.5295C69.9036 85.4286 70.1539 84.1323 70.1633 82.795C70.1817 80.1831 69.2666 76.938 68.3422 73.6177L65.9338 74.2882C66.8959 77.744 67.6787 80.5973 67.6634 82.7774C67.6559 83.8361 67.4565 84.6092 67.0924 85.1726C66.7432 85.713 66.1607 86.1874 65.1263 86.5057L65.8615 88.8951ZM54.6511 78.1076C54.6511 81.5322 55.4335 84.786 57.2895 86.9388C58.2347 88.0353 59.4508 88.8332 60.9323 89.1915C62.4036 89.5473 64.0564 89.4506 65.8615 88.8951L65.1263 86.5057C63.6498 86.96 62.4625 86.9895 61.5199 86.7615C60.5873 86.536 59.8155 86.0402 59.183 85.3065C57.8834 83.7989 57.1511 81.2465 57.1511 78.1076H54.6511ZM51.0291 71.2669C51.7965 71.1573 52.3368 71.2033 52.7238 71.3371C53.0816 71.4608 53.3845 71.6846 53.654 72.0991C54.2571 73.027 54.6511 74.8379 54.6511 78.1076H57.1511C57.1511 74.8138 56.7879 72.3333 55.7501 70.7367C55.1991 69.889 54.4607 69.2924 53.5406 68.9743C52.6495 68.6663 51.6752 68.6492 50.6755 68.792L51.0291 71.2669ZM47.4867 84.2592C47.8871 80.8736 48.2821 77.5541 48.9349 75.0257C49.2619 73.7591 49.6313 72.785 50.0417 72.1288C50.4514 71.4736 50.7919 71.3008 51.0291 71.2669L50.6755 68.792C49.4167 68.9719 48.5326 69.8269 47.9221 70.8032C47.3122 71.7785 46.8658 73.0394 46.5143 74.4007C45.8101 77.1282 45.3977 80.6364 45.004 83.9656L47.4867 84.2592ZM47.0425 87.8656C47.1989 86.6929 47.343 85.4742 47.4867 84.2592L45.004 83.9656C44.8598 85.1842 44.7179 86.3842 44.5644 87.5352L47.0425 87.8656ZM38.8447 97.4693C39.8348 97.7993 40.8478 97.9286 41.8328 97.7017C42.8379 97.4703 43.6883 96.897 44.3824 96.0445C45.7088 94.4156 46.5337 91.6814 47.0425 87.8656L44.5644 87.5352C44.0634 91.2927 43.3 93.4145 42.4438 94.466C42.0467 94.9537 41.6572 95.1767 41.2719 95.2655C40.8665 95.3588 40.3386 95.332 39.6353 95.0976L38.8447 97.4693ZM33.9552 86.5868C33.6957 89.7015 33.9333 92.1002 34.7588 93.9012C35.619 95.778 37.0546 96.8726 38.8447 97.4693L39.6353 95.0976C38.396 94.6845 37.5596 94.012 37.0314 92.8595C36.4685 91.6312 36.2013 89.7383 36.4466 86.7944L33.9552 86.5868ZM37.5012 61.7512C36.4948 67.9577 34.3641 81.68 33.9552 86.5868L36.4466 86.7944C36.8455 82.0075 38.9559 68.3987 39.969 62.1514L37.5012 61.7512ZM39.5811 46.376C38.7576 52.6577 38.0115 58.3488 37.4989 61.7659L39.9713 62.1367C40.4882 58.6907 41.238 52.9704 42.0599 46.701L39.5811 46.376ZM51.3574 36.972C50.7315 36.972 50.3479 37.3694 50.2066 37.5371C50.0353 37.7403 49.912 37.9727 49.8227 38.1663C49.6388 38.5654 49.4732 39.0845 49.3217 39.6496C49.0141 40.7969 48.7065 42.3584 48.4204 44.0751C47.8466 47.5182 47.3376 51.7174 47.0824 54.7794L49.5738 54.987C49.8235 51.9903 50.3242 47.859 50.8864 44.4861C51.1683 42.7948 51.4603 41.327 51.7364 40.297C51.8768 39.7735 51.9991 39.4169 52.0933 39.2125C52.1431 39.1044 52.1563 39.1031 52.1184 39.1481C52.1105 39.1574 51.857 39.472 51.3574 39.472V36.972ZM54.6207 47.6904C54.3694 45.1776 54.1126 42.7289 53.787 40.9054C53.6259 40.0032 53.4356 39.1789 53.1923 38.5561C53.0727 38.2501 52.9099 37.9113 52.6748 37.6283C52.4396 37.3452 52.0025 36.972 51.3574 36.972V39.472C50.9648 39.472 50.7643 39.2408 50.7519 39.226C50.7396 39.2112 50.7859 39.2668 50.8636 39.4657C51.0147 39.8526 51.1715 40.4799 51.3259 41.3448C51.6314 43.0555 51.8795 45.4032 52.1331 47.9392L54.6207 47.6904ZM55.184 51.6307C54.9802 50.4078 54.7603 49.0863 54.6207 47.6904L52.1331 47.9392C52.282 49.4283 52.5155 50.8271 52.718 52.0417L55.184 51.6307ZM53.6801 58.6203C54.3869 58.4436 54.9231 58.0119 55.2488 57.403C55.5426 56.8538 55.6292 56.2294 55.6449 55.6638C55.6757 54.5471 55.4293 53.1029 55.184 51.6307L52.718 52.0417C52.9805 53.6165 53.1684 54.7776 53.1458 55.5948C53.1347 55.9961 53.0728 56.1707 53.0444 56.2238C53.0363 56.2389 53.0414 56.2247 53.0658 56.2056C53.0904 56.1863 53.1016 56.188 53.0737 56.1949L53.6801 58.6203ZM52.769 58.897C53.1339 58.7783 53.4275 58.6834 53.6801 58.6203L53.0737 56.1949C52.72 56.2834 52.3378 56.4083 51.9956 56.5197L52.769 58.897ZM47.0849 54.7525C46.9631 55.9114 47.0179 56.8963 47.326 57.6825C47.6627 58.5417 48.2817 59.1027 49.069 59.3441C49.7732 59.56 50.5028 59.4864 51.0839 59.3712C51.6792 59.2532 52.2834 59.055 52.769 58.897L51.9956 56.5197C51.4804 56.6873 51.021 56.8351 50.598 56.9189C50.1609 57.0055 49.9174 56.9894 49.8019 56.954C49.7695 56.944 49.722 56.9448 49.6536 56.7703C49.5566 56.5227 49.4675 56.0004 49.5712 55.0138L47.0849 54.7525Z" fill="#14303F"/>
</svg>
