<svg width="353" height="199" viewBox="0 0 353 199" fill="none" xmlns="http://www.w3.org/2000/svg">
<path d="M20 171.341V117H28C26.8571 134.56 24.5714 170.013 24.5714 171.341C24.5714 173 23.4286 173 21.7143 173C20 173 20 172.585 20 171.341Z" fill="#D0D3D7"/>
<path fill-rule="evenodd" clip-rule="evenodd" d="M20 117H29L28.9661 117.511C28.393 126.141 27.5334 139.167 26.817 150.199C26.0995 161.25 25.5286 170.259 25.5286 170.89C25.5286 171.351 25.4482 171.75 25.2565 172.078C25.0596 172.414 24.7723 172.628 24.4443 172.762C24.127 172.891 23.7661 172.946 23.3981 172.973C23.0319 173 22.6238 173 22.2028 173H22.1912C21.7499 173 21.3846 172.975 21.0898 172.905C20.7898 172.833 20.5232 172.707 20.3282 172.476C20.1358 172.248 20.0632 171.976 20.0308 171.723C20 171.482 20 171.2 20 170.913L20 117ZM20.9439 117.957V170.89C20.9439 171.207 20.9448 171.427 20.9669 171.6C20.9882 171.767 21.023 171.827 21.0455 171.854C21.0654 171.877 21.1212 171.929 21.3047 171.972C21.4934 172.017 21.773 172.043 22.1912 172.043C22.6257 172.043 23.0015 172.042 23.3304 172.018C23.6609 171.994 23.9089 171.948 24.0931 171.873C24.2664 171.803 24.3731 171.711 24.4449 171.589C24.5218 171.458 24.5847 171.245 24.5847 170.89C24.5847 170.217 25.16 161.151 25.8752 150.136C26.5776 139.319 27.4177 126.585 27.9904 117.957H20.9439Z" fill="#14303F"/>
<path d="M336 171.341V117H328C329.143 134.56 331.429 170.013 331.429 171.341C331.429 173 332.571 173 334.286 173C336 173 336 172.585 336 171.341Z" fill="#D0D3D7"/>
<path fill-rule="evenodd" clip-rule="evenodd" d="M337 117H328L328.034 117.511C328.607 126.141 329.467 139.167 330.183 150.199C330.9 161.25 331.471 170.259 331.471 170.89C331.471 171.351 331.552 171.75 331.744 172.078C331.94 172.414 332.228 172.628 332.556 172.762C332.873 172.891 333.234 172.946 333.602 172.973C333.968 173 334.376 173 334.797 173H334.809C335.25 173 335.615 172.975 335.91 172.905C336.21 172.833 336.477 172.707 336.672 172.476C336.864 172.248 336.937 171.976 336.969 171.723C337 171.482 337 171.2 337 170.913L337 117ZM336.056 117.957V170.89C336.056 171.207 336.055 171.427 336.033 171.6C336.012 171.767 335.977 171.827 335.954 171.854C335.935 171.877 335.879 171.929 335.695 171.972C335.507 172.017 335.227 172.043 334.809 172.043C334.374 172.043 333.999 172.042 333.67 172.018C333.339 171.994 333.091 171.948 332.907 171.873C332.734 171.803 332.627 171.711 332.555 171.589C332.478 171.458 332.415 171.245 332.415 170.89C332.415 170.217 331.84 161.151 331.125 150.136C330.422 139.319 329.582 126.585 329.01 117.957H336.056Z" fill="#14303F"/>
<path fill-rule="evenodd" clip-rule="evenodd" d="M2 108L2 107L351 107L351 108L2 108Z" fill="#14303F"/>
<path d="M97.5821 164.393L23 165V116H334V162.975H260.142C260.142 152.446 243.126 137.718 237.695 137.718H137.769C122.419 137.718 104.582 155.011 97.5821 164.393Z" fill="#D0D3D7"/>
<path fill-rule="evenodd" clip-rule="evenodd" d="M22 116H335V163.011H259.929V162.531C259.929 160.073 258.909 157.323 257.245 154.554C255.585 151.791 253.308 149.05 250.854 146.62C248.4 144.191 245.782 142.086 243.447 140.592C242.28 139.845 241.191 139.255 240.235 138.854C239.271 138.449 238.478 138.251 237.892 138.251H137.634C130.093 138.251 121.874 142.412 114.621 147.782C107.382 153.141 101.184 159.646 97.6989 164.211L97.5552 164.399L22 165V116ZM22.9675 116.961V164.032L97.0724 163.442C100.634 158.821 106.826 152.355 114.043 147.012C121.344 141.606 129.774 137.29 137.634 137.29H237.892C238.667 137.29 239.599 137.544 240.612 137.969C241.633 138.398 242.772 139.017 243.971 139.784C246.37 141.32 249.042 143.469 251.537 145.94C254.032 148.41 256.364 151.214 258.076 154.061C259.682 156.735 260.763 159.483 260.885 162.05H334.032V116.961H22.9675Z" fill="#14303F"/>
<path d="M347.757 107H4.1026C2.4133 107 0 108.667 0 111.167C0 113.667 0.48267 117 6.03326 117H330.948C350.321 117 351.539 115.712 351.86 113.364C352.181 111.015 352.342 107 347.757 107Z" fill="#DDE1E7"/>
<path fill-rule="evenodd" clip-rule="evenodd" d="M2.23363 108.123C1.49766 108.847 0.9658 109.868 0.9658 111.083C0.9658 112.45 1.0917 113.919 1.81948 115.045C2.51937 116.128 3.85137 117 6.51674 117H331.463C341.159 117 346.251 116.644 348.954 115.982C350.303 115.652 350.984 115.262 351.35 114.868C351.702 114.49 351.821 114.05 351.898 113.436C352.058 112.148 352.161 110.504 351.71 109.2C351.49 108.56 351.143 108.022 350.617 107.64C350.091 107.257 349.344 107 348.274 107H4.5859C3.89169 107 2.9798 107.388 2.23363 108.123ZM1.56807 107.398C2.45103 106.529 3.59065 106 4.5859 106H348.274C349.496 106 350.449 106.295 351.172 106.821C351.896 107.348 352.348 108.075 352.62 108.863C353.155 110.413 353.017 112.269 352.856 113.564C352.771 114.241 352.618 114.948 352.046 115.562C351.488 116.16 350.593 116.609 349.176 116.955C346.346 117.648 341.142 118 331.463 118H6.51674C3.63099 118 1.94607 117.039 1.01681 115.601C0.115454 114.206 0 112.467 0 111.083C0 109.549 0.674906 108.278 1.56807 107.398Z" fill="#14303F"/>
<path d="M134.048 114.737C104.999 114.737 32.7559 114.221 1.152 114C0.367002 114.78 2.79282 116.313 4.53041 116.739C12.7346 117.325 37.8618 116.744 57.3918 116.722C81.599 116.696 304.541 116.722 330.766 116.722C351.745 116.722 352 115.494 352 114.391C349.104 114.391 343.441 114.207 333.758 114.737C321.654 115.399 170.359 114.737 134.048 114.737Z" fill="#AEB1B5"/>
<path d="M14 195.6V117H25C23.4286 142.4 20.2857 193.68 20.2857 195.6C20.2857 198 18.7143 198 16.3571 198C14 198 14 197.4 14 195.6Z" fill="#D0D3D7"/>
<path fill-rule="evenodd" clip-rule="evenodd" d="M14 117H25L24.9713 117.51C23.5392 142.938 20.6786 194.214 20.6786 196.117C20.6786 196.76 20.5836 197.293 20.3707 197.721C20.1516 198.162 19.8235 198.461 19.422 198.653C19.034 198.839 18.5883 198.921 18.1289 198.961C17.6726 199 17.1637 199 16.6374 199H16.6238C16.0729 199 15.6196 198.962 15.2555 198.861C14.8801 198.756 14.573 198.575 14.3588 198.275C14.1537 197.988 14.0735 197.647 14.0364 197.304C14 196.968 14 196.571 14 196.138L14 117ZM14.9541 117.965V196.117C14.9541 196.576 14.9547 196.921 14.9848 197.199C15.0147 197.475 15.0688 197.621 15.1319 197.71C15.1861 197.785 15.2815 197.867 15.5098 197.931C15.7495 197.998 16.1012 198.035 16.6238 198.035C17.166 198.035 17.6362 198.035 18.048 198C18.4606 197.964 18.7753 197.896 19.0133 197.782C19.238 197.674 19.4018 197.522 19.5181 197.288C19.6407 197.041 19.7246 196.674 19.7246 196.117C19.7246 194.19 22.5506 143.529 23.99 117.965H14.9541Z" fill="#14303F"/>
<path d="M343 195.6V117H332C333.571 142.4 336.714 193.68 336.714 195.6C336.714 198 338.286 198 340.643 198C343 198 343 197.4 343 195.6Z" fill="#D0D3D7"/>
<path fill-rule="evenodd" clip-rule="evenodd" d="M343 117H332L332.029 117.511C333.467 142.94 336.338 194.215 336.338 196.117C336.338 196.763 336.434 197.298 336.649 197.729C336.87 198.172 337.198 198.468 337.595 198.657C337.979 198.84 338.421 198.922 338.88 198.961C339.336 199 339.846 199 340.375 199H340.388C340.939 199 341.39 198.962 341.75 198.862C342.12 198.759 342.424 198.582 342.638 198.284C342.844 197.996 342.926 197.652 342.963 197.306C343 196.969 343 196.571 343 196.139L343 117ZM342.086 117.965V196.117C342.086 196.576 342.085 196.92 342.055 197.196C342.025 197.47 341.972 197.614 341.909 197.701C341.854 197.778 341.754 197.863 341.517 197.929C341.271 197.998 340.914 198.035 340.388 198.035C339.844 198.035 339.37 198.035 338.954 197.999C338.538 197.964 338.216 197.895 337.972 197.778C337.74 197.667 337.574 197.513 337.458 197.28C337.337 197.036 337.253 196.671 337.253 196.117C337.253 194.19 334.416 143.529 332.97 117.965H342.086Z" fill="#14303F"/>
<path d="M341.667 197.754L341 117H343V195.947C343 198.357 342.111 198.156 341.667 197.754Z" fill="#B1B6BD"/>
<path fill-rule="evenodd" clip-rule="evenodd" d="M343 117H332L332.029 117.511C333.467 142.94 336.338 194.215 336.338 196.117C336.338 196.763 336.434 197.298 336.649 197.729C336.87 198.172 337.198 198.468 337.595 198.657C337.979 198.84 338.421 198.922 338.88 198.961C339.336 199 339.846 199 340.375 199H340.388C340.939 199 341.39 198.962 341.75 198.862C342.12 198.759 342.424 198.582 342.638 198.284C342.844 197.996 342.926 197.652 342.963 197.306C343 196.969 343 196.571 343 196.139L343 117ZM342.086 117.965V196.117C342.086 196.576 342.085 196.92 342.055 197.196C342.025 197.47 341.972 197.614 341.909 197.701C341.854 197.778 341.754 197.863 341.517 197.929C341.271 197.998 340.914 198.035 340.388 198.035C339.844 198.035 339.37 198.035 338.954 197.999C338.538 197.964 338.216 197.895 337.972 197.778C337.74 197.667 337.574 197.513 337.458 197.28C337.337 197.036 337.253 196.671 337.253 196.117C337.253 194.19 334.416 143.529 332.97 117.965H342.086Z" fill="#14303F"/>
<path fill-rule="evenodd" clip-rule="evenodd" d="M2.23324 108.123C1.49725 108.848 0.965416 109.868 0.965416 111.083C0.965416 112.45 1.09132 113.919 1.81908 115.045C2.51898 116.128 3.85106 117 6.51656 117H331.463C341.16 117 346.251 116.644 348.954 115.982C350.304 115.652 350.984 115.262 351.351 114.868C351.703 114.49 351.822 114.05 351.898 113.436C352.058 112.148 352.161 110.504 351.711 109.2C351.49 108.561 351.143 108.022 350.617 107.64C350.091 107.257 349.344 107 348.274 107L4.58571 107C3.89138 107 2.97942 107.388 2.23324 108.123ZM1.56808 107.398C2.45103 106.529 3.59058 106 4.58571 106L348.274 106C349.496 106 350.449 106.295 351.172 106.821C351.896 107.348 352.348 108.075 352.62 108.863C353.155 110.412 353.017 112.269 352.856 113.564C352.771 114.241 352.618 114.948 352.046 115.562C351.488 116.16 350.593 116.609 349.176 116.955C346.346 117.648 341.142 118 331.463 118H6.51656C3.63092 118 1.94607 117.039 1.01683 115.601C0.115456 114.206 0 112.467 0 111.083C0 109.548 0.674939 108.277 1.56808 107.398Z" fill="#14303F"/>
<path d="M1.62222 108.227C1.41042 108.49 1.20292 108.747 1 109C1.14961 108.698 1.36301 108.443 1.62222 108.227C11.1449 96.4138 29.3478 74.7174 30.6692 73.1923C32.3577 71.2436 32.1165 71 36.4583 71H312.888C315.059 71 315.542 71 316.989 72.7051C318.147 74.0692 340.145 96.6581 351 107.782C350.437 107.538 348.926 107.051 347.382 107.051H7.03032C5.80746 107.051 3.03471 107.051 1.62222 108.227Z" fill="#DDE1E7"/>
<path fill-rule="evenodd" clip-rule="evenodd" d="M315.676 71.1636C315.202 70.9864 314.639 70.9795 313.52 70.9795H36.9128C35.8267 70.9795 35.0457 70.995 34.4537 71.0466C33.8621 71.0982 33.4913 71.1836 33.2132 71.3063C32.9442 71.4249 32.7311 71.592 32.4749 71.8623C32.3065 72.04 32.1378 72.2412 31.9297 72.4895C31.7995 72.6447 31.6539 72.8184 31.4833 73.0162C30.2236 74.4768 13.5288 94.4665 3.73814 106.597C4.08127 106.508 4.428 106.444 4.76333 106.395C5.82047 106.243 6.8477 106.243 7.45909 106.243H348.036C348.722 106.243 349.399 106.334 349.999 106.458C338.784 94.9076 318.384 73.8573 317.257 72.5227C316.54 71.6743 316.125 71.3315 315.676 71.1636ZM2.39705 108.263C2.99907 107.779 3.91864 107.507 4.89933 107.365C5.88474 107.223 6.85286 107.222 7.46596 107.222H348.036C349.498 107.222 350.944 107.69 351.466 107.917L352 107.123C341.125 95.9263 319.134 73.2394 317.99 71.8852C317.258 71.0194 316.708 70.5052 316.01 70.2445C315.355 69.9997 314.613 69.9998 313.601 70L36.9128 70C35.8266 70 35.0086 70.0151 34.3711 70.0707C33.7332 70.1263 33.2441 70.2245 32.8283 70.408C32.4034 70.5954 32.0885 70.8569 31.779 71.1834C31.5925 71.3802 31.391 71.6202 31.1652 71.8892C31.0374 72.0414 30.9018 72.203 30.7567 72.3712C29.4313 73.908 11.2488 95.6814 1.70912 107.569C1.42175 107.816 1.17624 108.115 1 108.472L1.80667 109C1.9994 108.759 2.19628 108.513 2.39705 108.263Z" fill="#14303F"/>
<path fill-rule="evenodd" clip-rule="evenodd" d="M61.5687 126.916C61.9927 126.373 62.6662 126 63.5952 126C64.5321 126 65.1698 126.381 65.546 126.942C65.9002 127.471 66 128.121 66 128.67C66 129.224 65.8922 129.793 65.5777 130.237C65.2427 130.711 64.7018 131 63.9762 131C63.412 131 62.6713 130.962 62.066 130.639C61.4053 130.287 61 129.652 61 128.67C61 128.092 61.1598 127.438 61.5687 126.916ZM62.3837 127.442C62.1259 127.772 62 128.226 62 128.67C62 129.394 62.274 129.696 62.572 129.855C62.9254 130.044 63.4228 130.091 63.9762 130.091C64.3682 130.091 64.5892 129.954 64.7367 129.746C64.9047 129.508 65 129.139 65 128.67C65 128.197 64.9093 127.739 64.6921 127.416C64.4969 127.124 64.1822 126.909 63.5952 126.909C63.0005 126.909 62.6263 127.132 62.3837 127.442Z" fill="#14303F"/>
<path fill-rule="evenodd" clip-rule="evenodd" d="M295.569 125.916C295.993 125.373 296.666 125 297.595 125C298.532 125 299.17 125.381 299.546 125.942C299.9 126.471 300 127.121 300 127.67C300 128.224 299.892 128.793 299.578 129.237C299.243 129.711 298.702 130 297.976 130C297.412 130 296.671 129.962 296.066 129.639C295.405 129.287 295 128.652 295 127.67C295 127.092 295.16 126.438 295.569 125.916ZM296.384 126.442C296.126 126.772 296 127.226 296 127.67C296 128.394 296.274 128.696 296.572 128.855C296.925 129.044 297.423 129.091 297.976 129.091C298.368 129.091 298.589 128.954 298.737 128.746C298.905 128.508 299 128.139 299 127.67C299 127.197 298.909 126.739 298.692 126.416C298.497 126.124 298.182 125.909 297.595 125.909C297 125.909 296.626 126.132 296.384 126.442Z" fill="#14303F"/>
<path fill-rule="evenodd" clip-rule="evenodd" d="M132.569 125.916C132.993 125.373 133.666 125 134.595 125C135.532 125 136.17 125.381 136.546 125.942C136.9 126.471 137 127.121 137 127.67C137 128.224 136.892 128.793 136.578 129.237C136.243 129.711 135.702 130 134.976 130C134.412 130 133.671 129.962 133.066 129.639C132.405 129.287 132 128.652 132 127.67C132 127.092 132.16 126.438 132.569 125.916ZM133.384 126.442C133.126 126.772 133 127.226 133 127.67C133 128.394 133.274 128.696 133.572 128.855C133.925 129.044 134.423 129.091 134.976 129.091C135.368 129.091 135.589 128.954 135.737 128.746C135.905 128.508 136 128.139 136 127.67C136 127.197 135.909 126.739 135.692 126.416C135.497 126.124 135.182 125.909 134.595 125.909C134 125.909 133.626 126.132 133.384 126.442Z" fill="#14303F"/>
<path fill-rule="evenodd" clip-rule="evenodd" d="M223.569 125.916C223.993 125.373 224.666 125 225.595 125C226.532 125 227.17 125.381 227.546 125.942C227.9 126.471 228 127.121 228 127.67C228 128.224 227.892 128.793 227.578 129.237C227.243 129.711 226.702 130 225.976 130C225.412 130 224.671 129.962 224.066 129.639C223.405 129.287 223 128.652 223 127.67C223 127.092 223.16 126.438 223.569 125.916ZM224.384 126.442C224.126 126.772 224 127.226 224 127.67C224 128.394 224.274 128.696 224.572 128.855C224.925 129.044 225.423 129.091 225.976 129.091C226.368 129.091 226.589 128.954 226.737 128.746C226.905 128.508 227 128.139 227 127.67C227 127.197 226.909 126.739 226.692 126.416C226.497 126.124 226.182 125.909 225.595 125.909C225 125.909 224.626 126.132 224.384 126.442Z" fill="#14303F"/>
<path fill-rule="evenodd" clip-rule="evenodd" d="M60.5839 148.804C61.0212 148.306 61.6958 148 62.5952 148C63.5321 148 64.1698 148.378 64.546 148.933C64.9002 149.457 65 150.101 65 150.645C65 151.216 64.8589 151.727 64.5247 152.136C64.1873 152.549 63.6937 152.808 63.0948 152.94C62.4468 153.082 61.6749 152.976 61.0589 152.57C60.4252 152.153 60 151.448 60 150.476C60 149.902 60.1609 149.286 60.5839 148.804ZM61.3685 149.363C61.1248 149.64 61 150.038 61 150.476C61 151.193 61.301 151.614 61.6495 151.844C62.0155 152.085 62.4818 152.148 62.8576 152.065C63.2825 151.972 63.5507 151.809 63.7193 151.602C63.8911 151.392 64 151.087 64 150.645C64 150.176 63.9093 149.723 63.6921 149.402C63.4969 149.114 63.1822 148.9 62.5952 148.9C61.9708 148.9 61.5978 149.101 61.3685 149.363Z" fill="#14303F"/>
<path fill-rule="evenodd" clip-rule="evenodd" d="M295.584 148.804C296.021 148.306 296.696 148 297.595 148C298.532 148 299.17 148.378 299.546 148.933C299.9 149.457 300 150.101 300 150.645C300 151.216 299.859 151.727 299.525 152.136C299.187 152.549 298.694 152.808 298.095 152.94C297.447 153.082 296.675 152.976 296.059 152.57C295.425 152.153 295 151.448 295 150.476C295 149.902 295.161 149.286 295.584 148.804ZM296.369 149.363C296.125 149.64 296 150.038 296 150.476C296 151.193 296.301 151.614 296.649 151.844C297.016 152.085 297.482 152.148 297.858 152.065C298.282 151.972 298.551 151.809 298.719 151.602C298.891 151.392 299 151.087 299 150.645C299 150.176 298.909 149.723 298.692 149.402C298.497 149.114 298.182 148.9 297.595 148.9C296.971 148.9 296.598 149.101 296.369 149.363Z" fill="#14303F"/>
<path d="M96 133H26V135L96 134.5V133Z" fill="#B1B6BD"/>
<path d="M331 133H261V135L331 134.5V133Z" fill="#B1B6BD"/>
<path d="M258 133H98V135L258 134.5V133Z" fill="#B1B6BD"/>
<path d="M96 159H26V160L96 159.75V159Z" fill="#B1B6BD"/>
<path d="M331 159H261V160L331 159.75V159Z" fill="#B1B6BD"/>
<path fill-rule="evenodd" clip-rule="evenodd" d="M96.034 120.938H26.966V134.062H96.034V120.938ZM26 120V135H97V120H26Z" fill="#14303F"/>
<path fill-rule="evenodd" clip-rule="evenodd" d="M331.034 120.938H261.966V134.062H331.034V120.938ZM261 120V135H332V120H261Z" fill="#14303F"/>
<path fill-rule="evenodd" clip-rule="evenodd" d="M96.034 120.938H26.966V134.062H96.034V120.938ZM26 120V135H97V120H26Z" fill="#14303F"/>
<path fill-rule="evenodd" clip-rule="evenodd" d="M331.034 120.938H261.966V134.062H331.034V120.938ZM261 120V135H332V120H261Z" fill="#14303F"/>
<path fill-rule="evenodd" clip-rule="evenodd" d="M96.034 138.958H26.966V160.042H96.034V138.958ZM26 138V161H97V138H26Z" fill="#14303F"/>
<path fill-rule="evenodd" clip-rule="evenodd" d="M331.034 138.958H261.966V160.042H331.034V138.958ZM261 138V161H332V138H261Z" fill="#14303F"/>
<path fill-rule="evenodd" clip-rule="evenodd" d="M258.036 120.938H98.9641V134.062H258.036V120.938ZM98 120V135H259V120H98Z" fill="#14303F"/>
<path d="M144.047 84.481V39.0842C144.047 37.4969 145.317 37.6557 146.587 37.6557H221.349C221.983 37.6557 223.095 37.9731 223.095 39.0842V84.481C226.11 87.5498 232.206 93.7508 232.46 94.0048C232.632 94.177 232.687 94.3629 232.658 94.5425C232.663 94.7709 232.618 95.0228 232.618 95.2746V98.7667C232.618 99.0841 231.983 100.037 230.396 100.037H136.587C135.952 100.037 135.158 99.2429 135.158 98.4492V94.7984C135.158 94.5452 135.207 94.3404 135.288 94.1635C135.462 93.786 135.786 93.5354 136.111 93.2111C136.492 92.8302 141.56 87.2323 144.047 84.481Z" fill="#B1B6BD"/>
<path fill-rule="evenodd" clip-rule="evenodd" d="M144.667 38.4591C144.597 38.5639 144.53 38.7486 144.53 39.0842V83.9983L222.612 83.9983V39.0842C222.612 38.7246 222.447 38.5113 222.208 38.3651C221.946 38.2048 221.602 38.1383 221.349 38.1383H146.587C146.468 38.1383 146.356 38.1371 146.248 38.136C146.046 38.1338 145.858 38.1318 145.67 38.1381C145.388 38.1475 145.165 38.1753 144.993 38.2326C144.831 38.2867 144.733 38.3605 144.667 38.4591ZM222.892 84.9637L144.261 84.9637C141.736 87.757 136.837 93.1675 136.452 93.5524C136.36 93.6441 136.288 93.7129 136.221 93.7754C136.143 93.8499 136.073 93.9155 135.992 94.0004C135.875 94.1231 135.793 94.2299 135.738 94.3426C135.7 94.4701 135.705 94.6193 135.767 94.7197C135.816 94.7971 135.983 94.9794 136.587 94.9794H231.19C231.441 94.9794 231.7 94.8984 231.898 94.7744C232.073 94.6645 232.147 94.5571 232.172 94.4955C232.168 94.4555 232.162 94.4272 232.155 94.4067C232.147 94.3818 232.136 94.3641 232.118 94.3461C231.866 94.0941 225.951 88.0766 222.892 84.9637ZM232.801 93.6634C232.803 93.665 232.804 93.6666 232.806 93.6682C233.059 93.9237 233.18 94.2412 233.141 94.573C233.141 94.703 233.13 94.832 233.121 94.9395L233.121 94.9407L233.121 94.9434C233.11 95.07 233.101 95.1738 233.101 95.2746V98.7667C233.101 98.9766 233.009 99.1876 232.903 99.3562C232.787 99.5399 232.62 99.73 232.399 99.9016C231.952 100.249 231.291 100.519 230.396 100.519H136.587C136.086 100.519 135.61 100.222 135.282 99.8698C134.946 99.5098 134.676 99.0008 134.676 98.4492V94.7984C134.676 94.4797 134.737 94.2055 134.85 93.9615C134.968 93.7052 135.132 93.504 135.294 93.3343C135.377 93.2468 135.488 93.1403 135.591 93.0425C135.658 92.9787 135.721 92.9186 135.769 92.8698C136.133 92.5063 141.029 87.1 143.564 84.2951V39.0842C143.564 38.6262 143.656 38.2355 143.864 37.9236C144.076 37.6056 144.374 37.4214 144.688 37.3168C144.992 37.2153 145.325 37.1836 145.638 37.1732C145.846 37.1663 146.072 37.1686 146.288 37.1708C146.391 37.1719 146.491 37.1729 146.587 37.1729H221.349C221.73 37.1729 222.26 37.2653 222.711 37.5414C223.187 37.8318 223.577 38.3327 223.577 39.0842V84.2835C226.639 87.3986 232.553 93.4152 232.801 93.6634ZM232.136 95.7389C231.848 95.8678 231.521 95.9448 231.19 95.9448H136.587C136.22 95.9448 135.904 95.8911 135.641 95.7876V98.4492C135.641 98.6913 135.768 98.9759 135.987 99.2111C136.214 99.4543 136.453 99.5538 136.587 99.5538H230.396C231.089 99.5538 231.538 99.3479 231.806 99.1396C231.943 99.0335 232.033 98.926 232.086 98.8418C232.121 98.7856 232.133 98.7525 232.136 98.7437V95.7389Z" fill="#14303F"/>
<path fill-rule="evenodd" clip-rule="evenodd" d="M167.826 88.284H197.563L197.677 88.606C197.989 89.4919 198.667 91.4467 198.801 91.983C198.919 92.4558 198.802 92.9215 198.439 93.2509C198.1 93.559 197.608 93.6938 197.063 93.6938H167.857C167.537 93.6938 167.245 93.613 167.012 93.429C166.779 93.2451 166.652 92.9957 166.593 92.7463C166.481 92.2704 166.598 91.7242 166.773 91.2858C167.021 90.6665 167.503 89.2521 167.716 88.6141L167.826 88.284ZM168.521 89.2494C168.28 89.9624 167.891 91.0905 167.67 91.6444C167.528 91.9996 167.486 92.3265 167.533 92.5252C167.553 92.6131 167.585 92.6514 167.61 92.6709C167.634 92.6903 167.7 92.7284 167.857 92.7284H197.063C197.47 92.7284 197.692 92.6252 197.79 92.5365C197.864 92.4691 197.905 92.3792 197.864 92.2171C197.757 91.7885 197.222 90.2282 196.88 89.2494H168.521Z" fill="#14303F"/>
<path d="M146.745 44.381C146.745 41.9817 148.69 40.0366 151.09 40.0366H216.052C218.451 40.0366 220.396 41.9817 220.396 44.381V77.9144C220.396 80.3137 218.451 82.2588 216.052 82.2588H151.09C148.69 82.2588 146.745 80.3137 146.745 77.9144V44.381Z" fill="#14303F"/>
<path d="M54.546 8.44741C53.1944 11.1506 52.5347 16.0098 52.3738 18.1016C58.649 20.5151 70.7167 21.2392 70.7167 21.2392C70.7167 21.2392 79.4054 21.4805 88.5769 21.2392C95.914 21.0461 101.771 20.676 103.782 20.5151C103.702 19.2279 102.865 15.3501 100.162 10.1369C96.7829 3.62033 91.2318 0.965435 87.3701 0.724081C83.5084 0.482727 75.7851 0.482727 67.8204 0.482727C59.8558 0.482727 56.2354 5.06845 54.546 8.44741Z" fill="#D0D3D7"/>
<path fill-rule="evenodd" clip-rule="evenodd" d="M59.1179 3.58543C57.0856 5.09515 55.8009 7.01689 54.9778 8.66326C54.332 9.95469 53.839 11.793 53.4872 13.5962C53.1753 15.1946 52.9803 16.7333 52.8855 17.7775C55.9514 18.8908 60.2971 19.6315 63.9593 20.0966C65.8519 20.3369 67.5498 20.5022 68.7744 20.6074C69.3866 20.6599 69.8802 20.6975 70.2204 20.7219C70.3905 20.734 70.5222 20.7429 70.6112 20.7488C70.637 20.7504 70.6592 20.7519 70.6776 20.7531C70.6911 20.7539 70.7026 20.7546 70.7121 20.7552L70.7375 20.7568L70.8291 20.7593C70.8946 20.761 70.9921 20.7634 71.1196 20.7665C71.3744 20.7726 71.749 20.7811 72.2272 20.7905C73.1836 20.8093 74.5546 20.8319 76.2119 20.847C79.5271 20.8771 83.9861 20.8771 88.5642 20.7566C95.3633 20.5777 100.888 20.2466 103.25 20.0718C103.031 18.5137 102.129 14.9797 99.7334 10.3591C96.4309 3.99003 91.0293 1.43641 87.3401 1.20583C83.4976 0.965679 75.7947 0.965416 67.8205 0.965416C63.9382 0.965416 61.1436 2.0806 59.1179 3.58543ZM70.7167 21.2392C70.6878 21.721 70.6877 21.721 70.6876 21.721L70.6853 21.7208L70.6517 21.7188C70.6404 21.7181 70.6265 21.7172 70.61 21.7161C70.5923 21.715 70.5716 21.7136 70.5481 21.7121C70.4573 21.7062 70.3236 21.6971 70.1515 21.6848C69.8072 21.6601 69.309 21.6223 68.6918 21.5692C67.4576 21.4632 65.7464 21.2967 63.8377 21.0543C60.0341 20.5713 55.3973 19.7816 52.2005 18.5521C52.0014 18.4755 51.8762 18.2773 51.8925 18.0645C51.9743 17.0015 52.1818 15.2452 52.5396 13.4113C52.8958 11.5861 53.4084 9.64325 54.1143 8.23152C54.9806 6.49893 56.3508 4.43833 58.5422 2.81045C60.7402 1.17768 63.7381 6.26798e-10 67.8205 6.26798e-10H67.8463C75.7924 -2.8709e-07 83.5236 -4.89118e-07 87.4003 0.242294C91.4344 0.494427 97.135 3.25059 100.59 9.91467C103.314 15.167 104.178 19.111 104.264 20.485C104.28 20.7478 104.083 20.9753 103.821 20.9963C101.8 21.1579 95.9346 21.5284 88.5896 21.7217C83.9963 21.8426 79.5252 21.8425 76.2031 21.8123C74.5419 21.7972 73.1675 21.7746 72.2082 21.7557C71.7285 21.7463 71.3526 21.7378 71.0964 21.7316C70.9683 21.7285 70.8702 21.7261 70.804 21.7243L70.705 21.7217L70.7038 21.7217C70.7037 21.7217 70.7033 21.7217 70.7167 21.2392ZM70.7167 21.2392L70.7038 21.7217C70.6986 21.7215 70.6928 21.7213 70.6876 21.721L70.7167 21.2392Z" fill="#14303F"/>
<path d="M55.758 26.3076C55.758 24.1837 57.0453 20.9174 57.6889 19.5497L59.8611 20.0324C59.4588 21.0783 58.5577 23.701 58.1716 25.8249C57.6889 28.4798 59.3783 32.1001 59.8611 33.0655C60.2472 33.8378 65.6536 43.5242 68.3084 48.2708C68.7107 48.4317 69.5635 48.8983 69.7566 49.4776C69.9497 50.0568 69.5152 51.0061 69.2739 51.4084L69.5152 52.6152C70.9633 52.6152 72.1701 53.8219 72.1701 55.0287V66.4779C72.1701 67.3348 71.0438 68.3736 70.4806 68.7859C71.6391 69.5582 72.0897 70.5558 72.1701 70.9581C72.7333 71.6017 73.1355 72.1648 74.5836 73.1303C77.0101 74.7479 78.4453 74.7083 80.3761 75.3025C82.8862 76.0748 83.8355 77.8769 83.9965 78.6814C86.1686 80.3709 88.8235 83.9912 88.0995 86.8874C87.3754 89.7837 78.928 91.9559 66.8603 92.1972C54.7926 92.4386 46.5866 89.0596 46.8279 84.9566C47.021 81.6742 49.6437 79.2446 50.931 78.4401C51.655 76.0265 54.3099 75.0611 56.9648 74.337C59.0887 73.7578 61.7114 72.1648 62.7573 71.4408C62.6769 71.119 62.6125 70.3788 62.9987 69.9927L64.4468 68.5445C64.0445 68.2227 63.24 67.3589 63.24 66.4779V55.7528C63.24 54.546 63.4814 54.0633 63.9641 53.3392C64.3502 52.76 65.4122 52.6152 65.8949 52.6152L66.3776 51.4084C66.2167 51.2475 65.8466 50.7809 65.6536 50.2016C65.4605 49.6224 65.734 49.1558 65.8949 48.9949C63.4009 44.3287 58.2198 34.7067 57.4475 33.5482C56.4821 32.1001 55.758 28.9625 55.758 26.3076Z" fill="#D0D3D7"/>
<path d="M87.3938 51.4084C86.4284 51.4084 86.3479 52.5347 86.4284 53.0979H88.3592C88.4396 52.5347 88.3592 51.4084 87.3938 51.4084Z" fill="#D0D3D7"/>
<path fill-rule="evenodd" clip-rule="evenodd" d="M86.6483 52.8565H88.139C88.1492 52.6259 88.127 52.3539 88.0423 52.126C87.9874 51.9782 87.9108 51.8609 87.8117 51.7812C87.716 51.7041 87.5846 51.6498 87.3937 51.6498C87.2028 51.6498 87.0713 51.7041 86.9756 51.7812C86.8765 51.8609 86.7999 51.9782 86.745 52.126C86.6604 52.3539 86.6381 52.6259 86.6483 52.8565ZM86.6728 51.4052C86.8612 51.2535 87.1019 51.1671 87.3937 51.1671C87.6855 51.1671 87.9261 51.2535 88.1145 51.4052C88.2995 51.5542 88.419 51.7538 88.4948 51.9579C88.6444 52.3606 88.6416 52.827 88.598 53.132C88.581 53.2509 88.4792 53.3392 88.3591 53.3392H86.4283C86.3081 53.3392 86.2063 53.2509 86.1893 53.132C86.1458 52.827 86.143 52.3606 86.2925 51.9579C86.3683 51.7538 86.4878 51.5542 86.6728 51.4052Z" fill="#14303F"/>
<path fill-rule="evenodd" clip-rule="evenodd" d="M87.1289 51.4084V21.7219H87.6116V51.4084H87.1289Z" fill="#14303F"/>
<path d="M87.8529 21.4805C87.8529 21.7471 87.6368 21.9632 87.3702 21.9632C87.1036 21.9632 86.8875 21.7471 86.8875 21.4805C86.8875 21.2139 87.1036 20.9978 87.3702 20.9978C87.6368 20.9978 87.8529 21.2139 87.8529 21.4805Z" fill="#D0D3D7"/>
<path fill-rule="evenodd" clip-rule="evenodd" d="M87.3701 21.2392C87.2368 21.2392 87.1287 21.3472 87.1287 21.4805C87.1287 21.6138 87.2368 21.7219 87.3701 21.7219C87.5034 21.7219 87.6114 21.6138 87.6114 21.4805C87.6114 21.3472 87.5034 21.2392 87.3701 21.2392ZM86.646 21.4805C86.646 21.0806 86.9702 20.7565 87.3701 20.7565C87.7699 20.7565 88.0941 21.0806 88.0941 21.4805C88.0941 21.8804 87.7699 22.2046 87.3701 22.2046C86.9702 22.2046 86.646 21.8804 86.646 21.4805Z" fill="#14303F"/>
<path d="M87.8529 22.9286C87.8529 23.1952 87.6368 23.4113 87.3702 23.4113C87.1036 23.4113 86.8875 23.1952 86.8875 22.9286C86.8875 22.662 87.1036 22.4459 87.3702 22.4459C87.6368 22.4459 87.8529 22.662 87.8529 22.9286Z" fill="#D0D3D7"/>
<path fill-rule="evenodd" clip-rule="evenodd" d="M87.3701 22.6873C87.2368 22.6873 87.1287 22.7954 87.1287 22.9287C87.1287 23.0619 87.2368 23.17 87.3701 23.17C87.5034 23.17 87.6114 23.0619 87.6114 22.9287C87.6114 22.7954 87.5034 22.6873 87.3701 22.6873ZM86.646 22.9287C86.646 22.5288 86.9702 22.2046 87.3701 22.2046C87.7699 22.2046 88.0941 22.5288 88.0941 22.9287C88.0941 23.3285 87.7699 23.6527 87.3701 23.6527C86.9702 23.6527 86.646 23.3285 86.646 22.9287Z" fill="#14303F"/>
<path d="M87.8529 24.3768C87.8529 24.6433 87.6368 24.8595 87.3702 24.8595C87.1036 24.8595 86.8875 24.6433 86.8875 24.3768C86.8875 24.1102 87.1036 23.894 87.3702 23.894C87.6368 23.894 87.8529 24.1102 87.8529 24.3768Z" fill="#D0D3D7"/>
<path fill-rule="evenodd" clip-rule="evenodd" d="M87.3701 24.1354C87.2368 24.1354 87.1287 24.2435 87.1287 24.3768C87.1287 24.5101 87.2368 24.6181 87.3701 24.6181C87.5034 24.6181 87.6114 24.5101 87.6114 24.3768C87.6114 24.2435 87.5034 24.1354 87.3701 24.1354ZM86.646 24.3768C86.646 23.9769 86.9702 23.6527 87.3701 23.6527C87.7699 23.6527 88.0941 23.9769 88.0941 24.3768C88.0941 24.7767 87.7699 25.1008 87.3701 25.1008C86.9702 25.1008 86.646 24.7767 86.646 24.3768Z" fill="#14303F"/>
<path d="M87.8529 25.8249C87.8529 26.0915 87.6368 26.3076 87.3702 26.3076C87.1036 26.3076 86.8875 26.0915 86.8875 25.8249C86.8875 25.5583 87.1036 25.3422 87.3702 25.3422C87.6368 25.3422 87.8529 25.5583 87.8529 25.8249Z" fill="#D0D3D7"/>
<path fill-rule="evenodd" clip-rule="evenodd" d="M87.3701 25.5835C87.2368 25.5835 87.1287 25.6916 87.1287 25.8249C87.1287 25.9582 87.2368 26.0662 87.3701 26.0662C87.5034 26.0662 87.6114 25.9582 87.6114 25.8249C87.6114 25.6916 87.5034 25.5835 87.3701 25.5835ZM86.646 25.8249C86.646 25.425 86.9702 25.1008 87.3701 25.1008C87.7699 25.1008 88.0941 25.425 88.0941 25.8249C88.0941 26.2248 87.7699 26.549 87.3701 26.549C86.9702 26.549 86.646 26.2248 86.646 25.8249Z" fill="#14303F"/>
<path d="M87.8529 27.273C87.8529 27.5396 87.6368 27.7557 87.3702 27.7557C87.1036 27.7557 86.8875 27.5396 86.8875 27.273C86.8875 27.0064 87.1036 26.7903 87.3702 26.7903C87.6368 26.7903 87.8529 27.0064 87.8529 27.273Z" fill="#D0D3D7"/>
<path fill-rule="evenodd" clip-rule="evenodd" d="M87.3701 27.0317C87.2368 27.0317 87.1287 27.1397 87.1287 27.273C87.1287 27.4063 87.2368 27.5144 87.3701 27.5144C87.5034 27.5144 87.6114 27.4063 87.6114 27.273C87.6114 27.1397 87.5034 27.0317 87.3701 27.0317ZM86.646 27.273C86.646 26.8731 86.9702 26.549 87.3701 26.549C87.7699 26.549 88.0941 26.8731 88.0941 27.273C88.0941 27.6729 87.7699 27.9971 87.3701 27.9971C86.9702 27.9971 86.646 27.6729 86.646 27.273Z" fill="#14303F"/>
<path d="M87.8529 28.7211C87.8529 28.9877 87.6368 29.2038 87.3702 29.2038C87.1036 29.2038 86.8875 28.9877 86.8875 28.7211C86.8875 28.4545 87.1036 28.2384 87.3702 28.2384C87.6368 28.2384 87.8529 28.4545 87.8529 28.7211Z" fill="#D0D3D7"/>
<path fill-rule="evenodd" clip-rule="evenodd" d="M87.3701 28.4798C87.2368 28.4798 87.1287 28.5878 87.1287 28.7211C87.1287 28.8544 87.2368 28.9625 87.3701 28.9625C87.5034 28.9625 87.6114 28.8544 87.6114 28.7211C87.6114 28.5878 87.5034 28.4798 87.3701 28.4798ZM86.646 28.7211C86.646 28.3212 86.9702 27.9971 87.3701 27.9971C87.7699 27.9971 88.0941 28.3212 88.0941 28.7211C88.0941 29.121 87.7699 29.4452 87.3701 29.4452C86.9702 29.4452 86.646 29.121 86.646 28.7211Z" fill="#14303F"/>
<path d="M87.8529 30.1692C87.8529 30.4358 87.6368 30.6519 87.3702 30.6519C87.1036 30.6519 86.8875 30.4358 86.8875 30.1692C86.8875 29.9026 87.1036 29.6865 87.3702 29.6865C87.6368 29.6865 87.8529 29.9026 87.8529 30.1692Z" fill="#D0D3D7"/>
<path fill-rule="evenodd" clip-rule="evenodd" d="M87.3701 29.9279C87.2368 29.9279 87.1287 30.036 87.1287 30.1693C87.1287 30.3025 87.2368 30.4106 87.3701 30.4106C87.5034 30.4106 87.6114 30.3025 87.6114 30.1693C87.6114 30.036 87.5034 29.9279 87.3701 29.9279ZM86.646 30.1693C86.646 29.7694 86.9702 29.4452 87.3701 29.4452C87.7699 29.4452 88.0941 29.7694 88.0941 30.1693C88.0941 30.5691 87.7699 30.8933 87.3701 30.8933C86.9702 30.8933 86.646 30.5691 86.646 30.1693Z" fill="#14303F"/>
<path d="M87.8529 31.6174C87.8529 31.8839 87.6368 32.1001 87.3702 32.1001C87.1036 32.1001 86.8875 31.8839 86.8875 31.6174C86.8875 31.3508 87.1036 31.1346 87.3702 31.1346C87.6368 31.1346 87.8529 31.3508 87.8529 31.6174Z" fill="#D0D3D7"/>
<path fill-rule="evenodd" clip-rule="evenodd" d="M87.3701 31.376C87.2368 31.376 87.1287 31.4841 87.1287 31.6174C87.1287 31.7507 87.2368 31.8587 87.3701 31.8587C87.5034 31.8587 87.6114 31.7507 87.6114 31.6174C87.6114 31.4841 87.5034 31.376 87.3701 31.376ZM86.646 31.6174C86.646 31.2175 86.9702 30.8933 87.3701 30.8933C87.7699 30.8933 88.0941 31.2175 88.0941 31.6174C88.0941 32.0173 87.7699 32.3414 87.3701 32.3414C86.9702 32.3414 86.646 32.0173 86.646 31.6174Z" fill="#14303F"/>
<path d="M87.8529 33.0655C87.8529 33.3321 87.6368 33.5482 87.3702 33.5482C87.1036 33.5482 86.8875 33.3321 86.8875 33.0655C86.8875 32.7989 87.1036 32.5828 87.3702 32.5828C87.6368 32.5828 87.8529 32.7989 87.8529 33.0655Z" fill="#D0D3D7"/>
<path fill-rule="evenodd" clip-rule="evenodd" d="M87.3701 32.8241C87.2368 32.8241 87.1287 32.9322 87.1287 33.0655C87.1287 33.1988 87.2368 33.3068 87.3701 33.3068C87.5034 33.3068 87.6114 33.1988 87.6114 33.0655C87.6114 32.9322 87.5034 32.8241 87.3701 32.8241ZM86.646 33.0655C86.646 32.6656 86.9702 32.3414 87.3701 32.3414C87.7699 32.3414 88.0941 32.6656 88.0941 33.0655C88.0941 33.4654 87.7699 33.7896 87.3701 33.7896C86.9702 33.7896 86.646 33.4654 86.646 33.0655Z" fill="#14303F"/>
<path d="M87.8529 34.5136C87.8529 34.7802 87.6368 34.9963 87.3702 34.9963C87.1036 34.9963 86.8875 34.7802 86.8875 34.5136C86.8875 34.247 87.1036 34.0309 87.3702 34.0309C87.6368 34.0309 87.8529 34.247 87.8529 34.5136Z" fill="#D0D3D7"/>
<path fill-rule="evenodd" clip-rule="evenodd" d="M87.3701 34.2723C87.2368 34.2723 87.1287 34.3803 87.1287 34.5136C87.1287 34.6469 87.2368 34.755 87.3701 34.755C87.5034 34.755 87.6114 34.6469 87.6114 34.5136C87.6114 34.3803 87.5034 34.2723 87.3701 34.2723ZM86.646 34.5136C86.646 34.1137 86.9702 33.7896 87.3701 33.7896C87.7699 33.7896 88.0941 34.1137 88.0941 34.5136C88.0941 34.9135 87.7699 35.2377 87.3701 35.2377C86.9702 35.2377 86.646 34.9135 86.646 34.5136Z" fill="#14303F"/>
<path d="M87.8529 35.9618C87.8529 36.2284 87.6368 36.4445 87.3702 36.4445C87.1036 36.4445 86.8875 36.2284 86.8875 35.9618C86.8875 35.6952 87.1036 35.4791 87.3702 35.4791C87.6368 35.4791 87.8529 35.6952 87.8529 35.9618Z" fill="#D0D3D7"/>
<path fill-rule="evenodd" clip-rule="evenodd" d="M87.3701 35.7204C87.2368 35.7204 87.1287 35.8284 87.1287 35.9617C87.1287 36.095 87.2368 36.2031 87.3701 36.2031C87.5034 36.2031 87.6114 36.095 87.6114 35.9617C87.6114 35.8284 87.5034 35.7204 87.3701 35.7204ZM86.646 35.9617C86.646 35.5618 86.9702 35.2377 87.3701 35.2377C87.7699 35.2377 88.0941 35.5618 88.0941 35.9617C88.0941 36.3616 87.7699 36.6858 87.3701 36.6858C86.9702 36.6858 86.646 36.3616 86.646 35.9617Z" fill="#14303F"/>
<path d="M87.8529 37.4099C87.8529 37.6765 87.6368 37.8926 87.3702 37.8926C87.1036 37.8926 86.8875 37.6765 86.8875 37.4099C86.8875 37.1433 87.1036 36.9272 87.3702 36.9272C87.6368 36.9272 87.8529 37.1433 87.8529 37.4099Z" fill="#D0D3D7"/>
<path fill-rule="evenodd" clip-rule="evenodd" d="M87.3701 37.1685C87.2368 37.1685 87.1287 37.2766 87.1287 37.4099C87.1287 37.5431 87.2368 37.6512 87.3701 37.6512C87.5034 37.6512 87.6114 37.5431 87.6114 37.4099C87.6114 37.2766 87.5034 37.1685 87.3701 37.1685ZM86.646 37.4099C86.646 37.01 86.9702 36.6858 87.3701 36.6858C87.7699 36.6858 88.0941 37.01 88.0941 37.4099C88.0941 37.8097 87.7699 38.1339 87.3701 38.1339C86.9702 38.1339 86.646 37.8097 86.646 37.4099Z" fill="#14303F"/>
<path d="M87.8529 38.858C87.8529 39.1246 87.6368 39.3407 87.3702 39.3407C87.1036 39.3407 86.8875 39.1246 86.8875 38.858C86.8875 38.5914 87.1036 38.3753 87.3702 38.3753C87.6368 38.3753 87.8529 38.5914 87.8529 38.858Z" fill="#D0D3D7"/>
<path fill-rule="evenodd" clip-rule="evenodd" d="M87.3701 38.6166C87.2368 38.6166 87.1287 38.7247 87.1287 38.858C87.1287 38.9913 87.2368 39.0993 87.3701 39.0993C87.5034 39.0993 87.6114 38.9913 87.6114 38.858C87.6114 38.7247 87.5034 38.6166 87.3701 38.6166ZM86.646 38.858C86.646 38.4581 86.9702 38.1339 87.3701 38.1339C87.7699 38.1339 88.0941 38.4581 88.0941 38.858C88.0941 39.2579 87.7699 39.582 87.3701 39.582C86.9702 39.582 86.646 39.2579 86.646 38.858Z" fill="#14303F"/>
<path d="M87.8529 40.3061C87.8529 40.5727 87.6368 40.7888 87.3702 40.7888C87.1036 40.7888 86.8875 40.5727 86.8875 40.3061C86.8875 40.0395 87.1036 39.8234 87.3702 39.8234C87.6368 39.8234 87.8529 40.0395 87.8529 40.3061Z" fill="#D0D3D7"/>
<path fill-rule="evenodd" clip-rule="evenodd" d="M87.3701 40.0647C87.2368 40.0647 87.1287 40.1728 87.1287 40.3061C87.1287 40.4394 87.2368 40.5474 87.3701 40.5474C87.5034 40.5474 87.6114 40.4394 87.6114 40.3061C87.6114 40.1728 87.5034 40.0647 87.3701 40.0647ZM86.646 40.3061C86.646 39.9062 86.9702 39.582 87.3701 39.582C87.7699 39.582 88.0941 39.9062 88.0941 40.3061C88.0941 40.706 87.7699 41.0302 87.3701 41.0302C86.9702 41.0302 86.646 40.706 86.646 40.3061Z" fill="#14303F"/>
<path d="M87.8529 41.7543C87.8529 42.0208 87.6368 42.237 87.3702 42.237C87.1036 42.237 86.8875 42.0208 86.8875 41.7543C86.8875 41.4877 87.1036 41.2715 87.3702 41.2715C87.6368 41.2715 87.8529 41.4877 87.8529 41.7543Z" fill="#D0D3D7"/>
<path fill-rule="evenodd" clip-rule="evenodd" d="M87.3701 41.5129C87.2368 41.5129 87.1287 41.6209 87.1287 41.7542C87.1287 41.8875 87.2368 41.9956 87.3701 41.9956C87.5034 41.9956 87.6114 41.8875 87.6114 41.7542C87.6114 41.6209 87.5034 41.5129 87.3701 41.5129ZM86.646 41.7542C86.646 41.3543 86.9702 41.0302 87.3701 41.0302C87.7699 41.0302 88.0941 41.3543 88.0941 41.7542C88.0941 42.1541 87.7699 42.4783 87.3701 42.4783C86.9702 42.4783 86.646 42.1541 86.646 41.7542Z" fill="#14303F"/>
<path d="M87.8529 43.2024C87.8529 43.469 87.6368 43.6851 87.3702 43.6851C87.1036 43.6851 86.8875 43.469 86.8875 43.2024C86.8875 42.9358 87.1036 42.7197 87.3702 42.7197C87.6368 42.7197 87.8529 42.9358 87.8529 43.2024Z" fill="#D0D3D7"/>
<path fill-rule="evenodd" clip-rule="evenodd" d="M87.3701 42.961C87.2368 42.961 87.1287 43.069 87.1287 43.2023C87.1287 43.3356 87.2368 43.4437 87.3701 43.4437C87.5034 43.4437 87.6114 43.3356 87.6114 43.2023C87.6114 43.069 87.5034 42.961 87.3701 42.961ZM86.646 43.2023C86.646 42.8024 86.9702 42.4783 87.3701 42.4783C87.7699 42.4783 88.0941 42.8024 88.0941 43.2023C88.0941 43.6022 87.7699 43.9264 87.3701 43.9264C86.9702 43.9264 86.646 43.6022 86.646 43.2023Z" fill="#14303F"/>
<path d="M87.8529 44.6505C87.8529 44.9171 87.6368 45.1332 87.3702 45.1332C87.1036 45.1332 86.8875 44.9171 86.8875 44.6505C86.8875 44.3839 87.1036 44.1678 87.3702 44.1678C87.6368 44.1678 87.8529 44.3839 87.8529 44.6505Z" fill="#D0D3D7"/>
<path fill-rule="evenodd" clip-rule="evenodd" d="M87.3701 44.4092C87.2368 44.4092 87.1287 44.5172 87.1287 44.6505C87.1287 44.7838 87.2368 44.8919 87.3701 44.8919C87.5034 44.8919 87.6114 44.7838 87.6114 44.6505C87.6114 44.5172 87.5034 44.4092 87.3701 44.4092ZM86.646 44.6505C86.646 44.2506 86.9702 43.9265 87.3701 43.9265C87.7699 43.9265 88.0941 44.2506 88.0941 44.6505C88.0941 45.0504 87.7699 45.3746 87.3701 45.3746C86.9702 45.3746 86.646 45.0504 86.646 44.6505Z" fill="#14303F"/>
<path d="M87.8529 46.0986C87.8529 46.3652 87.6368 46.5813 87.3702 46.5813C87.1036 46.5813 86.8875 46.3652 86.8875 46.0986C86.8875 45.832 87.1036 45.6159 87.3702 45.6159C87.6368 45.6159 87.8529 45.832 87.8529 46.0986Z" fill="#D0D3D7"/>
<path fill-rule="evenodd" clip-rule="evenodd" d="M87.3701 45.8573C87.2368 45.8573 87.1287 45.9653 87.1287 46.0986C87.1287 46.2319 87.2368 46.34 87.3701 46.34C87.5034 46.34 87.6114 46.2319 87.6114 46.0986C87.6114 45.9653 87.5034 45.8573 87.3701 45.8573ZM86.646 46.0986C86.646 45.6987 86.9702 45.3746 87.3701 45.3746C87.7699 45.3746 88.0941 45.6987 88.0941 46.0986C88.0941 46.4985 87.7699 46.8227 87.3701 46.8227C86.9702 46.8227 86.646 46.4985 86.646 46.0986Z" fill="#14303F"/>
<path d="M87.8529 47.5467C87.8529 47.8133 87.6368 48.0294 87.3702 48.0294C87.1036 48.0294 86.8875 47.8133 86.8875 47.5467C86.8875 47.2801 87.1036 47.064 87.3702 47.064C87.6368 47.064 87.8529 47.2801 87.8529 47.5467Z" fill="#D0D3D7"/>
<path fill-rule="evenodd" clip-rule="evenodd" d="M87.3701 47.3054C87.2368 47.3054 87.1287 47.4135 87.1287 47.5468C87.1287 47.6801 87.2368 47.7881 87.3701 47.7881C87.5034 47.7881 87.6114 47.6801 87.6114 47.5468C87.6114 47.4135 87.5034 47.3054 87.3701 47.3054ZM86.646 47.5468C86.646 47.1469 86.9702 46.8227 87.3701 46.8227C87.7699 46.8227 88.0941 47.1469 88.0941 47.5468C88.0941 47.9466 87.7699 48.2708 87.3701 48.2708C86.9702 48.2708 86.646 47.9466 86.646 47.5468Z" fill="#14303F"/>
<path d="M87.8529 48.9949C87.8529 49.2614 87.6368 49.4776 87.3702 49.4776C87.1036 49.4776 86.8875 49.2614 86.8875 48.9949C86.8875 48.7283 87.1036 48.5121 87.3702 48.5121C87.6368 48.5121 87.8529 48.7283 87.8529 48.9949Z" fill="#D0D3D7"/>
<path fill-rule="evenodd" clip-rule="evenodd" d="M87.3701 48.7535C87.2368 48.7535 87.1287 48.8616 87.1287 48.9949C87.1287 49.1282 87.2368 49.2362 87.3701 49.2362C87.5034 49.2362 87.6114 49.1282 87.6114 48.9949C87.6114 48.8616 87.5034 48.7535 87.3701 48.7535ZM86.646 48.9949C86.646 48.595 86.9702 48.2708 87.3701 48.2708C87.7699 48.2708 88.0941 48.595 88.0941 48.9949C88.0941 49.3948 87.7699 49.7189 87.3701 49.7189C86.9702 49.7189 86.646 49.3948 86.646 48.9949Z" fill="#14303F"/>
<path d="M87.8529 50.443C87.8529 50.7096 87.6368 50.9257 87.3702 50.9257C87.1036 50.9257 86.8875 50.7096 86.8875 50.443C86.8875 50.1764 87.1036 49.9603 87.3702 49.9603C87.6368 49.9603 87.8529 50.1764 87.8529 50.443Z" fill="#D0D3D7"/>
<path fill-rule="evenodd" clip-rule="evenodd" d="M87.3701 50.2016C87.2368 50.2016 87.1287 50.3097 87.1287 50.443C87.1287 50.5763 87.2368 50.6843 87.3701 50.6843C87.5034 50.6843 87.6114 50.5763 87.6114 50.443C87.6114 50.3097 87.5034 50.2016 87.3701 50.2016ZM86.646 50.443C86.646 50.0431 86.9702 49.7189 87.3701 49.7189C87.7699 49.7189 88.0941 50.0431 88.0941 50.443C88.0941 50.8429 87.7699 51.1671 87.3701 51.1671C86.9702 51.1671 86.646 50.8429 86.646 50.443Z" fill="#14303F"/>
<path fill-rule="evenodd" clip-rule="evenodd" d="M65.4316 52.4625L65.9143 51.0143L66.8302 51.3196L66.3475 52.7678L65.4316 52.4625Z" fill="#14303F"/>
<path fill-rule="evenodd" clip-rule="evenodd" d="M68.94 52.1324L68.7924 51.2464L69.7447 51.0876L69.925 52.1699C70.4214 52.2564 71.0052 52.5017 71.5074 52.9947C72.1699 53.6452 72.6475 54.6837 72.6475 56.2354V66.855C72.6475 67.3061 72.4448 67.7148 72.1548 68.0546C71.8643 68.3951 71.4644 68.6937 71.0049 68.9398C70.0858 69.4322 68.8603 69.7513 67.579 69.7513C67.5612 69.7513 67.5434 69.7503 67.5257 69.7483C66.7819 69.6657 65.6317 69.465 64.6533 68.991C63.6773 68.5182 62.752 67.7059 62.752 66.3723V55.5114C62.752 54.8241 62.9555 53.9947 63.4494 53.3244C63.957 52.6355 64.7612 52.1324 65.8896 52.1324H68.94ZM64.2267 53.8971C63.8759 54.3731 63.7174 54.9919 63.7174 55.5114V66.3723C63.7174 67.1626 64.2401 67.718 65.0743 68.1221C65.8955 68.52 66.9024 68.7058 67.6056 68.7858C68.728 68.7814 69.7847 68.4983 70.549 68.0888C70.9343 67.8824 71.2283 67.653 71.4205 67.4279C71.6132 67.202 71.6821 67.0073 71.6821 66.855V56.2354C71.6821 54.891 71.2747 54.1192 70.831 53.6836C70.3762 53.2371 69.8376 53.0978 69.5099 53.0978H65.8896C65.087 53.0978 64.5638 53.4394 64.2267 53.8971Z" fill="#14303F"/>
<path fill-rule="evenodd" clip-rule="evenodd" d="M67.8204 55.9941C65.2632 55.9941 63.5896 55.5045 63.0188 55.2191L63.4505 54.3556C63.8451 54.5529 65.3574 55.0287 67.8204 55.0287C69.0453 55.0287 69.9546 54.9108 70.5867 54.7689C71.2369 54.6229 71.5551 54.4602 71.6338 54.4012L72.213 55.1735C71.9699 55.3559 71.4916 55.5552 70.7982 55.7109C70.0869 55.8706 69.1056 55.9941 67.8204 55.9941ZM72.4325 66.5326C71.85 66.921 70.1563 67.5791 67.579 67.5791C66.2829 67.5791 65.2537 67.413 64.4869 67.1994C63.7321 66.9891 63.2047 66.7252 62.9331 66.5079L63.5362 65.754C63.6668 65.8585 64.0566 66.0773 64.7459 66.2694C65.4233 66.458 66.365 66.6137 67.579 66.6137C70.0219 66.6137 71.5141 65.9846 71.897 65.7293L72.4325 66.5326Z" fill="#14303F"/>
<path d="M99.1966 20.7565C97.0727 11.6816 89.1402 3.62033 85.4394 0.724085C86.083 0.563182 83.943 0.337921 87.6116 0.724088C92.1974 1.2068 97.5072 4.82711 100.645 10.861C103.155 15.688 103.621 19.1475 103.541 20.2738H103.3L99.1966 20.7565Z" fill="#D0D3D7"/>
<path d="M65.8896 20.5151C65.8896 8.93009 60.6603 4.66617 58.4076 3.6203C55.7527 5.55113 55.27 6.99926 54.0633 9.4128C53.0978 11.3436 52.5347 16.0098 52.3738 18.1015C52.776 18.182 54.2081 18.536 56.7182 19.3083C59.2282 20.0806 63.8783 20.4346 65.8896 20.5151Z" fill="#D0D3D7"/>
<path fill-rule="evenodd" clip-rule="evenodd" d="M59.1179 3.58543C57.0856 5.09515 55.8009 7.01689 54.9778 8.66326C54.332 9.95469 53.839 11.793 53.4872 13.5962C53.1753 15.1946 52.9803 16.7333 52.8855 17.7775C55.9514 18.8908 60.2971 19.6315 63.9593 20.0966C65.8519 20.3369 67.5498 20.5022 68.7744 20.6074C69.3866 20.6599 69.8802 20.6975 70.2204 20.7219C70.3905 20.734 70.5222 20.7429 70.6112 20.7488C70.637 20.7504 70.6592 20.7519 70.6776 20.7531C70.6911 20.7539 70.7026 20.7546 70.7121 20.7552L70.7375 20.7568L70.8291 20.7593C70.8946 20.761 70.9921 20.7634 71.1196 20.7665C71.3744 20.7726 71.749 20.7811 72.2272 20.7905C73.1836 20.8093 74.5546 20.8319 76.2119 20.847C79.5271 20.8771 83.9861 20.8771 88.5642 20.7566C95.3633 20.5777 100.888 20.2466 103.25 20.0718C103.031 18.5137 102.129 14.9797 99.7334 10.3591C96.4309 3.99003 91.0293 1.43641 87.3401 1.20583C83.4976 0.965679 75.7947 0.965416 67.8205 0.965416C63.9382 0.965416 61.1436 2.0806 59.1179 3.58543ZM70.7167 21.2392C70.6878 21.721 70.6877 21.721 70.6876 21.721L70.6853 21.7208L70.6517 21.7188C70.6404 21.7181 70.6265 21.7172 70.61 21.7161C70.5923 21.715 70.5716 21.7136 70.5481 21.7121C70.4573 21.7062 70.3236 21.6971 70.1515 21.6848C69.8072 21.6601 69.309 21.6223 68.6918 21.5692C67.4576 21.4632 65.7464 21.2967 63.8377 21.0543C60.0341 20.5713 55.3973 19.7816 52.2005 18.5521C52.0014 18.4755 51.8762 18.2773 51.8925 18.0645C51.9743 17.0015 52.1818 15.2452 52.5396 13.4113C52.8958 11.5861 53.4084 9.64325 54.1143 8.23152C54.9806 6.49893 56.3508 4.43833 58.5422 2.81045C60.7402 1.17768 63.7381 6.26798e-10 67.8205 6.26798e-10H67.8463C75.7924 -2.8709e-07 83.5236 -4.89118e-07 87.4003 0.242294C91.4344 0.494427 97.135 3.25059 100.59 9.91467C103.314 15.167 104.178 19.111 104.264 20.485C104.28 20.7478 104.083 20.9753 103.821 20.9963C101.8 21.1579 95.9346 21.5284 88.5896 21.7217C83.9963 21.8426 79.5252 21.8425 76.2031 21.8123C74.5419 21.7972 73.1675 21.7746 72.2082 21.7557C71.7285 21.7463 71.3526 21.7378 71.0964 21.7316C70.9683 21.7285 70.8702 21.7261 70.804 21.7243L70.705 21.7217L70.7038 21.7217C70.7037 21.7217 70.7033 21.7217 70.7167 21.2392ZM70.7167 21.2392L70.7038 21.7217C70.6986 21.7215 70.6928 21.7213 70.6876 21.721L70.7167 21.2392Z" fill="#14303F"/>
<path d="M57.6837 10.6196C57.2975 10.6196 57.0401 10.9414 56.9596 11.1023L56.7183 14.4812C57.201 14.803 58.3112 15.2536 58.8904 14.4812C59.6145 13.5158 59.8559 12.5504 59.3732 11.585C58.8904 10.6196 58.1664 10.6196 57.6837 10.6196Z" fill="#D0D3D7"/>
<path fill-rule="evenodd" clip-rule="evenodd" d="M58.3492 11.1884C58.1449 11.1067 57.932 11.1023 57.6837 11.1023C57.6315 11.1023 57.5752 11.1229 57.5131 11.1739C57.4803 11.2008 57.4531 11.2304 57.4326 11.2564L57.2213 14.2143C57.4023 14.304 57.6207 14.384 57.8338 14.4133C58.1402 14.4554 58.3562 14.389 58.5043 14.1916C59.1653 13.3103 59.3126 12.5432 58.9415 11.8009C58.7484 11.4148 58.532 11.2615 58.3492 11.1884ZM58.7077 10.2921C59.1283 10.4603 59.5153 10.7898 59.8049 11.3691C60.3992 12.5575 60.0638 13.7213 59.2767 14.7709C58.8455 15.3457 58.2168 15.4403 57.7026 15.3698C57.2002 15.3008 56.7334 15.0715 56.4505 14.8829C56.3061 14.7865 56.2245 14.62 56.2368 14.4468L56.4782 11.0679C56.4827 11.0047 56.4996 10.943 56.5279 10.8864C56.5961 10.75 56.7219 10.5741 56.901 10.4273C57.0842 10.2771 57.3497 10.1369 57.6837 10.1369C57.6898 10.1369 57.696 10.1369 57.7022 10.1368C57.9384 10.1367 58.319 10.1366 58.7077 10.2921Z" fill="#14303F"/>
<path d="M45.1333 11.8264H54.5461C54.3852 12.1482 54.1599 12.9849 54.5461 13.7572C51.8912 13.8376 46.3883 13.9985 45.616 13.9985C44.6506 13.9985 43.9265 13.7572 43.9265 13.0331C43.9265 12.3091 44.1679 11.8264 45.1333 11.8264Z" fill="#D0D3D7"/>
<path fill-rule="evenodd" clip-rule="evenodd" d="M43.8012 11.8441C44.1106 11.4831 44.5777 11.3436 45.1331 11.3436H54.5459C54.7132 11.3436 54.8686 11.4303 54.9565 11.5726C55.0445 11.7149 55.0525 11.8926 54.9776 12.0422C54.8565 12.2846 54.6834 12.9528 54.9776 13.5413C55.0513 13.6886 55.0448 13.8633 54.9603 14.0047C54.8758 14.1461 54.7251 14.2347 54.5605 14.2397C51.9124 14.3199 46.3977 14.4812 45.6158 14.4812C45.1084 14.4812 44.5957 14.4204 44.1931 14.2191C43.985 14.115 43.7924 13.9665 43.6529 13.7572C43.5114 13.5449 43.4436 13.2986 43.4436 13.0331C43.4436 12.6365 43.5055 12.189 43.8012 11.8441ZM44.5342 12.4723C44.4678 12.5498 44.409 12.7056 44.409 13.0331C44.409 13.1297 44.4318 13.1851 44.4562 13.2217C44.4826 13.2613 44.5313 13.3088 44.6249 13.3556C44.8257 13.456 45.1577 13.5158 45.6158 13.5158C46.3215 13.5158 51.0756 13.3784 53.8905 13.294C53.8277 12.9391 53.844 12.5992 53.8951 12.309H45.1331C44.723 12.309 44.5868 12.4109 44.5342 12.4723Z" fill="#14303F"/>
<path d="M54.3047 13.0332C54.3047 11.8264 54.7874 11.585 55.2701 11.3437C55.839 11.0999 56.3532 11.0476 56.7849 11.1224C57.6355 11.2698 58.1664 11.9101 58.1664 12.5505C58.1664 13.5159 57.6836 14.2399 56.7182 14.4813C55.7528 14.7226 54.3047 14.2399 54.3047 13.0332Z" fill="#D0D3D7"/>
<path fill-rule="evenodd" clip-rule="evenodd" d="M55.08 10.8999C55.7237 10.6241 56.3325 10.5541 56.8674 10.6467C57.9096 10.8273 58.6491 11.6372 58.6491 12.5504C58.6491 13.1129 58.508 13.6406 58.1947 14.0712C57.8789 14.5055 57.4143 14.8048 56.8353 14.9495C56.24 15.0984 55.5186 15.0244 54.9336 14.732C54.3349 14.4326 53.822 13.867 53.822 13.0331C53.822 12.3686 53.9548 11.8907 54.2203 11.5367C54.4704 11.2032 54.8008 11.0383 55.0307 10.9236C55.0387 10.9197 55.0465 10.9157 55.0543 10.9119C55.0627 10.9076 55.0713 10.9037 55.08 10.8999ZM55.473 11.7819C55.229 11.9042 55.094 11.9808 54.9926 12.116C54.896 12.2447 54.7874 12.4908 54.7874 13.0331C54.7874 13.406 54.9986 13.6851 55.3653 13.8685C55.7458 14.0587 56.2312 14.1054 56.6012 14.0129C56.9877 13.9163 57.2471 13.7329 57.414 13.5034C57.5835 13.2704 57.6837 12.9533 57.6837 12.5504C57.6837 12.183 57.3614 11.7121 56.7026 11.598C56.3768 11.5415 55.9615 11.575 55.473 11.7819Z" fill="#14303F"/>
<path d="M53.0979 80.3709C54.6426 79.0193 61.4648 74.337 64.6829 72.1649H65.6483L56.7182 82.0604C54.9805 81.6742 53.5806 80.7731 53.0979 80.3709Z" fill="#D0D3D7"/>
<path fill-rule="evenodd" clip-rule="evenodd" d="M62.6522 69.6513C63.2545 69.049 64.0632 68.4059 64.3934 68.1583L64.9726 68.9307C64.6592 69.1658 63.8911 69.7777 63.3349 70.3339C63.1751 70.4937 63.1102 70.6008 63.0886 70.66C63.0773 70.691 63.0811 70.6924 63.0829 70.693C63.0833 70.6931 63.0835 70.6932 63.0836 70.6934C63.0984 70.72 63.1565 70.7939 63.3372 70.8985C63.5124 71 63.7648 71.1085 64.1116 71.2242C65.472 71.6776 67.0793 71.6821 68.5446 71.6821C69.2002 71.6821 69.9831 71.5155 70.5943 71.2655C70.9004 71.1403 71.1381 71.0043 71.2902 70.8776C71.4147 70.7738 71.4373 70.7153 71.4407 70.707C71.4375 70.5099 71.3352 70.2622 71.0836 69.9855C70.8315 69.7081 70.4617 69.4394 70.0182 69.2176L70.4499 68.3541C70.9717 68.615 71.4468 68.9497 71.798 69.336C72.1456 69.7185 72.4062 70.1913 72.4062 70.7167C72.4062 71.1152 72.1481 71.4193 71.9082 71.6192C71.653 71.8319 71.3175 72.0127 70.9598 72.159C70.2436 72.452 69.337 72.6475 68.5446 72.6475L68.5077 72.6475C67.0832 72.6475 65.329 72.6476 63.8063 72.14C63.4291 72.0143 63.1082 71.8815 62.8535 71.734C62.6043 71.5897 62.3758 71.4073 62.2397 71.1623C62.0897 70.8922 62.082 70.6014 62.1819 70.3283C62.2734 70.0783 62.45 69.8535 62.6522 69.6513Z" fill="#14303F"/>
<path d="M48.9948 88.0942C48.8018 84.8118 51.3279 81.8994 52.6152 80.8536L56.9594 82.3017C55.6078 83.8464 54.7872 88.7378 54.5459 90.9904C51.8427 90.6043 49.7189 88.8987 48.9948 88.0942Z" fill="#D0D3D7"/>
<path d="M61.5452 83.0258C62.3175 81.288 64.9241 75.222 66.1309 72.4062H67.3377C66.5653 77.0402 66.0504 81.5776 65.8895 83.2671C64.538 83.4602 62.4301 83.1867 61.5452 83.0258Z" fill="#D0D3D7"/>
<path d="M59.8556 91.9559C59.6626 88.0942 60.9015 84.3934 61.5451 83.0258C62.7036 83.2188 65.4068 83.2671 66.6136 83.2671C66.8067 84.6187 67.1768 89.7837 67.3377 92.1972C64.8276 92.5834 61.3038 92.1972 59.8556 91.9559Z" fill="#D0D3D7"/>
<path fill-rule="evenodd" clip-rule="evenodd" d="M48.5627 79.9043C49.3375 79.0377 50.1407 78.3832 50.658 78.0384L51.1935 78.8417C50.7453 79.1404 50.0038 79.741 49.2823 80.5478C48.5599 81.3557 47.8802 82.3452 47.522 83.4198C47.093 84.7069 47.2416 86.0835 48.5252 87.3944C49.8448 88.7421 52.3887 90.0432 56.8202 91.0013C61.2216 91.953 66.4798 92.0158 71.2232 91.6555C75.968 91.2952 80.1521 90.5152 82.3977 89.8061C83.5428 89.4444 84.5017 89.1192 85.2829 88.776C86.0661 88.432 86.6374 88.0839 87.0288 87.6925C87.4088 87.3125 87.6293 86.8821 87.6982 86.3366C87.7692 85.7757 87.683 85.066 87.3921 84.1351C86.4656 81.1703 84.5397 79.5304 83.76 79.1051L84.2223 78.2576C85.2125 78.7977 87.3092 80.6334 88.3135 83.8472C88.626 84.8472 88.751 85.7063 88.656 86.4577C88.5591 87.2246 88.2365 87.8501 87.7114 88.3752C87.1978 88.8888 86.502 89.295 85.6711 89.6599C84.8382 90.0258 83.8361 90.3642 82.6884 90.7267C80.3482 91.4657 76.085 92.2545 71.2963 92.6182C66.5063 92.982 61.1449 92.9241 56.6162 91.9449C52.1177 90.9723 49.3518 89.6185 47.8354 88.0699C46.2831 86.4845 46.0697 84.7236 46.6061 83.1145C47.0203 81.8721 47.7887 80.7698 48.5627 79.9043Z" fill="#14303F"/>
<path fill-rule="evenodd" clip-rule="evenodd" d="M72.3095 70.4271C74.3764 73.183 76.6473 73.874 79.5224 74.5928C81.0321 74.9702 82.2478 75.604 83.0961 76.3218C83.9249 77.0231 84.4738 77.8695 84.4738 78.6814C84.4738 78.9551 84.3674 79.2299 84.2063 79.4837C84.042 79.7423 83.8025 80.0089 83.4888 80.2751C82.8615 80.8075 81.9031 81.3677 80.5403 81.8788C77.8132 82.9014 73.4065 83.7499 66.6136 83.7499C61.1644 83.7499 57.3616 82.9798 54.8128 81.9979C52.2885 81.0255 50.9299 79.8182 50.4893 78.8881C50.4587 78.8235 50.4429 78.7529 50.4429 78.6814C50.4429 77.5511 51.39 75.4129 54.6702 74.5928C57.6785 73.8407 61.2921 71.7535 62.7255 70.7978L63.261 71.6011C61.7982 72.5763 58.0746 74.7368 54.9043 75.5294C52.1557 76.2166 51.4762 77.8598 51.4133 78.5733C51.7627 79.1872 52.8527 80.2082 55.1599 81.0971C57.5709 82.0259 61.2502 82.7844 66.6136 82.7844C73.3365 82.7844 77.6185 81.9434 80.2013 80.9749C81.4933 80.4903 82.3451 79.9795 82.8642 79.539C83.1237 79.3188 83.2915 79.1233 83.3912 78.9662C83.4941 78.8043 83.5084 78.7094 83.5084 78.6814C83.5084 78.2866 83.2125 77.6849 82.4725 77.0588C81.752 76.4491 80.6748 75.8761 79.2883 75.5294C76.3709 74.8001 73.8147 74.043 71.5372 71.0064L72.3095 70.4271Z" fill="#14303F"/>
<path d="M56.7183 25.1008C57.1045 23.17 57.8446 20.7564 58.1664 19.791L57.4424 19.7005C56.7183 21.0581 55.0287 25.8249 55.9941 29.9279C56.9596 34.0309 61.7866 41.2715 62.2693 42.2369C62.6555 43.0093 64.8438 47.064 65.8897 48.9948L66.6137 48.5121C65.8897 47.2249 64.1519 44.0229 62.9934 41.5129C61.5453 38.3753 58.1664 34.0309 57.4424 31.6174C56.7183 29.2038 56.2356 27.5143 56.7183 25.1008Z" fill="#D0D3D7"/>
<path fill-rule="evenodd" clip-rule="evenodd" d="M55.8071 22.954C56.2477 21.3978 56.8411 20.072 57.2616 19.3152L58.1055 19.7841C57.7214 20.4755 57.1564 21.7321 56.7361 23.217C56.315 24.7044 56.0492 26.386 56.2321 27.9407C56.7011 31.9268 58.0942 34.26 60.5064 38.1194C62.4505 41.23 65.1946 46.5256 66.3213 48.779L65.4578 49.2107C64.3319 46.9588 61.6053 41.6993 59.6877 38.6311C57.2728 34.7673 55.7697 32.2733 55.2733 28.0535C55.07 26.3257 55.3674 24.5076 55.8071 22.954ZM58.0238 23.8614C58.426 22.2527 59.0035 20.7407 59.4163 19.8326L60.2952 20.2321C59.9034 21.094 59.3466 22.5506 58.9604 24.0956C58.5698 25.6577 58.374 27.2332 58.6366 28.3712C58.7674 28.9379 59.2516 30.0927 59.9892 31.6431C60.7176 33.1742 61.6691 35.0428 62.7026 37.0104C64.7693 40.9449 67.1562 45.2606 68.7233 48.0333L67.8829 48.5083C66.3124 45.7298 63.9205 41.4051 61.8479 37.4594C60.8119 35.4868 59.8537 33.6055 59.1174 32.0578C58.3903 30.5294 57.8547 29.2767 57.6959 28.5883C57.3793 27.2163 57.6259 25.453 58.0238 23.8614Z" fill="#14303F"/>
<path fill-rule="evenodd" clip-rule="evenodd" d="M68.1621 48.7508C67.705 48.7027 67.2551 48.8518 67.0709 48.9439C67.059 48.9499 67.0468 48.9553 67.0343 48.9603C66.484 49.1804 66.263 49.4141 66.1844 49.6029C66.1095 49.7825 66.1115 50.0488 66.3213 50.4684C66.4076 50.641 66.5027 50.7369 66.5981 50.7978C66.6978 50.8615 66.8277 50.9057 67.0093 50.9299C67.1946 50.9546 67.4105 50.9559 67.6748 50.9485C67.7492 50.9464 67.8285 50.9435 67.9112 50.9406C68.1086 50.9335 68.3259 50.9256 68.5445 50.9256C68.9489 50.9256 69.1459 50.7434 69.2526 50.5122C69.3736 50.2501 69.3795 49.9056 69.2992 49.6482C69.0121 48.9944 68.5739 48.7942 68.1621 48.7508ZM68.2632 47.7907C68.9938 47.8676 69.7577 48.2672 70.1949 49.2874C70.2002 49.2997 70.205 49.3122 70.2092 49.3249C70.3642 49.7898 70.3674 50.4006 70.1292 50.9167C69.8739 51.47 69.3469 51.8911 68.5445 51.8911C68.3437 51.8911 68.1558 51.8978 67.9662 51.9047C67.879 51.9078 67.7914 51.911 67.702 51.9135C67.4308 51.9211 67.149 51.9225 66.8817 51.8868C66.6108 51.8507 66.3334 51.7742 66.0787 51.6116C65.8196 51.4462 65.6129 51.2103 65.4578 50.9002C65.185 50.3544 65.0664 49.7759 65.2932 49.2315C65.5143 48.7011 66.0103 48.3332 66.6581 48.0711C66.964 47.9224 67.5882 47.7197 68.2632 47.7907Z" fill="#14303F"/>
</svg>
