<svg width="349" height="176" viewBox="0 0 349 176" fill="none" xmlns="http://www.w3.org/2000/svg">
<rect y="90.9056" width="348.679" height="85.0943" fill="#B3B9C0"/>
<rect width="13.6981" height="90.9057" fill="#CED1D5"/>
<rect x="27.6038" width="13.6981" height="90.9057" fill="#CED1D5"/>
<rect x="55" width="14.1132" height="90.9057" fill="#CED1D5"/>
<rect x="83.0189" width="14.1132" height="90.9057" fill="#CED1D5"/>
<rect x="111.038" width="14.3208" height="90.9057" fill="#CED1D5"/>
<rect x="139.057" width="14.5283" height="90.9057" fill="#CED1D5"/>
<rect x="167.491" width="13.6981" height="90.9057" fill="#CED1D5"/>
<rect x="195.094" width="13.9057" height="90.9057" fill="#CED1D5"/>
<rect x="222.698" width="14.3208" height="90.9057" fill="#CED1D5"/>
<rect x="250.924" width="14.1132" height="90.9057" fill="#CED1D5"/>
<rect x="278.943" width="14.1132" height="90.9057" fill="#CED1D5"/>
<rect x="306.755" width="14.3208" height="90.9057" fill="#CED1D5"/>
<rect x="334.981" width="13.6981" height="90.9057" fill="#CED1D5"/>
<path d="M172.38 24.4906C116.409 24.4906 61.6053 68.7327 41.3019 90.9057C59.8218 111.151 108.589 157.528 177.731 157.528C233.044 157.528 283.708 114.456 306.755 90.9057C281.238 65.7029 229.998 24.4906 172.38 24.4906Z" fill="#E0E2E8" stroke="#14303E" stroke-width="2"/>
<circle cx="173.5" cy="91.5" r="57.5" fill="#CED1D5" stroke="#14303E" stroke-width="2"/>
<ellipse cx="172.5" cy="91.5" rx="29.5" ry="28.5" fill="#14303E"/>
</svg>
