<svg width="261" height="219" viewBox="0 0 261 219" fill="none" xmlns="http://www.w3.org/2000/svg">
<path d="M103.123 202.447C101.532 201.885 99.9406 201.322 98.3494 200.759C97.4215 200.098 96.4807 199.467 95.2783 199.448C93.8791 198.322 92.2678 197.654 90.5348 197.246C83.1413 193.156 75.499 189.424 69.745 182.954C68.0444 181.042 66.2503 179.205 65.6793 176.539C64.741 172.158 65.8236 170.074 70.014 168.451C75.0118 166.515 79.8813 167.57 84.6732 169.19C89.649 170.873 94.5925 172.662 99.495 174.547C101.372 175.268 102.235 174.798 102.953 172.983C104.643 168.71 106.515 164.51 108.487 159.871C104.844 159.52 101.471 159.302 98.1294 158.854C86.1427 157.249 76.6831 151.478 70.028 141.345C68.979 139.748 68.3653 139.182 66.6103 140.475C64.6646 141.909 62.4811 143.058 60.3019 144.129C48.0426 150.152 36.3255 144.512 33.2152 131.141C32.0495 126.13 32.4774 120.605 34.818 111.158C30.2034 112.134 25.664 112.711 21.0684 112.404C15.5516 112.037 10.4797 110.462 6.25576 106.737C0.586703 101.737 -1.4391 93.9124 1.04517 86.8001C6.09865 72.3347 17.9148 64.9748 33.7495 66.4144C35.8951 66.6094 38.0315 67.1553 40.4553 66.7041C36.4874 54.3837 39.3929 43.7351 49.4748 36.0293C59.2321 28.5716 70.2927 27.143 81.7341 33.2919C82.651 26.36 83.8033 20.0399 87.3555 14.5145C94.3749 3.59636 104.975 -0.388605 117.338 0.0295131C124.44 0.269748 128.313 5.49318 131.171 11.3957C132.043 13.1966 132.642 15.1301 133.525 17.412C137.28 13.4142 140.934 9.90176 145.41 7.35331C150.779 4.29628 156.47 2.6831 162.665 2.83164C169.913 3.00586 174.416 7.47679 174.42 14.6796C174.421 17.1033 174.201 19.527 174.064 22.3072C180.635 19.1462 187.102 16.1124 194.226 14.9864C199.221 14.1973 204.184 14.0683 209.073 15.698C221.413 19.8101 226.889 33.0169 221.099 44.6392C219.271 48.3088 216.994 51.6855 213.693 56.198C236.515 49.535 252.147 56.6938 260.973 77.7384C260.982 80.0436 260.991 82.3487 261 84.6539C260.941 85.1344 260.883 85.6155 260.825 86.0965C260.257 86.8062 260.015 87.6095 260.133 88.5148C259.92 88.6639 259.88 88.8498 260.014 89.0729C259.851 89.3962 259.688 89.7196 259.524 90.043C259.452 90.2912 259.38 90.54 259.308 90.7881C258.771 91.1812 258.532 91.7142 258.558 92.3732L258.556 92.3775C257.976 93.3513 257.396 94.325 256.816 95.2988L256.858 95.2511C256.637 95.569 256.417 95.8863 256.196 96.2041L256.215 96.1772C255.995 96.4603 255.774 96.7433 255.553 97.0257L255.507 97.0984C255.318 97.3136 255.129 97.5282 254.94 97.7433C253.472 99.2477 252.005 100.752 250.537 102.256C249.53 103.036 248.522 103.816 247.515 104.596C247.243 104.543 247.063 104.648 246.973 104.91C246.723 105.098 246.472 105.287 246.222 105.474H246.222C245.858 105.693 245.495 105.913 245.132 106.131C244.894 106.053 244.739 106.134 244.668 106.373C244.352 106.564 244.035 106.754 243.719 106.944C243.449 106.862 243.25 106.947 243.122 107.199C242.827 107.379 242.532 107.559 242.237 107.738L241.874 107.721L241.584 107.94C241.22 108.107 240.857 108.275 240.493 108.441C240.085 108.538 239.676 108.635 239.268 108.732C238.751 108.926 238.235 109.119 237.719 109.312L237.731 109.309C235.459 110.058 231.274 109.546 234.634 114.008C234.71 114.252 234.786 114.496 234.862 114.739C235.039 115.026 235.215 115.313 235.393 115.6C235.307 115.875 235.378 116.101 235.605 116.278C235.78 116.597 235.953 116.914 236.127 117.233C236.033 117.486 236.102 117.68 236.335 117.817C236.506 118.2 236.677 118.583 236.848 118.965C236.94 119.354 237.032 119.743 237.124 120.132C237.297 120.747 237.47 121.362 237.642 121.976C237.707 123.158 237.771 124.34 237.836 125.521C237.786 128.075 237.736 130.629 237.687 133.183L237.696 133.151C237.133 133.849 237.004 134.656 237.098 135.52C237.027 135.954 236.955 136.388 236.883 136.822C236.356 137.307 236.183 137.914 236.263 138.609C236.046 138.75 235.998 138.934 236.118 139.163C235.952 139.489 235.786 139.815 235.621 140.141C235.557 140.4 235.492 140.659 235.428 140.918C234.939 141.317 234.627 141.799 234.71 142.463C234.594 142.687 234.478 142.911 234.363 143.135C222.932 161.627 205.428 168.434 184.649 169.303C173.355 169.775 162.401 168.451 151.722 164.779C151.001 164.53 150.266 164.32 149.532 164.117C149.442 164.093 149.31 164.228 149.005 164.394C151.886 170.086 155.744 175.145 159.348 180.363C161.679 183.737 163.941 187.163 166.412 190.431C167.879 192.37 167.761 193.507 165.765 195.092C153.233 205.045 139.833 213.367 124.356 217.961C123.869 218.015 123.382 218.07 122.895 218.124C120.032 218.207 117.141 218.559 114.42 217.254C113.647 216.219 112.874 215.183 112.101 214.148C112.087 212.862 112.073 211.576 112.059 210.291C113.194 208.299 114.328 206.307 115.464 204.316L115.415 204.364C117.161 202.541 118.908 200.718 120.655 198.895C121.361 198.313 122.068 197.731 122.775 197.149C123.352 196.696 123.928 196.243 124.505 195.79C124.778 195.592 125.05 195.393 125.323 195.194C127.852 193.506 130.38 191.818 132.909 190.129C134.203 189.413 135.498 188.696 136.792 187.979C137.55 187.646 138.308 187.311 139.066 186.977C139.928 186.567 140.792 186.156 141.654 185.746C142.333 185.609 143.53 185.715 142.546 184.532C141.826 183.667 140.828 183.033 139.953 182.296C138.72 181.063 137.486 179.829 136.253 178.596C132.361 173.963 128.302 169.467 124.985 163.918C120.373 173.102 116.66 181.917 113.562 190.991C112.763 191.884 112.314 192.927 112.208 194.119C111.639 194.771 111.213 195.482 111.251 196.389C109.582 198.345 109.466 201.482 106.59 202.519C105.434 202.495 104.278 202.471 103.123 202.447ZM180.649 165.823C183.728 165.688 186.811 165.614 189.885 165.405C203.551 164.476 215.18 159.17 224.537 149.092C235.834 136.925 236.376 122.094 226.016 109.44C225.519 108.833 224.975 108.219 225.415 107.396C225.957 106.38 226.868 106.473 227.756 106.842C231.829 108.533 235.655 107.159 239.307 105.623C248.541 101.74 254.628 95.091 256.486 85.0017C258.405 74.5818 252.15 67.9328 245.195 62.0743C240.082 57.7672 233.77 55.7689 226.85 56.7922C220.087 57.7922 213.517 59.3461 207.637 63.0743C206.282 63.9338 204.761 65.2371 203.234 63.3623C201.48 61.2099 204.026 60.8218 204.882 59.9385C210.35 54.303 215.906 48.7397 218.432 41.0235C222.172 29.5992 215.161 18.8045 203.227 17.6455C201.201 17.4487 199.093 17.4554 197.089 17.7757C187.145 19.3657 177.881 22.4912 170.795 30.1732C169.652 31.4116 168.454 32.257 166.823 31.0314C165.181 29.7972 166.148 28.6388 166.926 27.4163C169.265 23.7437 170.175 19.5986 170.496 15.3532C170.942 9.45797 167.527 5.94981 161.668 6.00177C150.052 6.10507 139.672 13.3439 135.602 24.2003C135.146 25.4149 134.8 26.9083 133.204 26.7512C131.623 26.5953 130.95 25.3342 130.766 23.7492C130.543 21.8432 130.373 19.8828 129.783 18.0759C125.564 5.15452 121.096 -0.161819 105.673 4.79325C91.1124 9.47141 84.3804 24.6472 86.5712 38.4261C86.746 39.524 87.4074 40.856 85.8462 41.3799C84.2373 41.9202 83.2868 40.7429 83.1321 39.4256C82.7647 36.3013 80.5721 35.3018 78.0798 34.3391C64.1756 28.9683 51.0525 34.4412 44.2092 48.5197C40.775 55.5849 41.0207 62.3701 45.7209 68.8277C46.3964 69.7557 47.3384 70.7295 46.3352 71.8842C45.4165 72.9417 44.4916 72.0138 43.5893 71.5987C29.2584 65.0109 14.8504 69.7997 7.36951 81.4465C0.303678 92.4478 4.04291 104.31 15.9593 108.19C18.2846 108.947 20.7102 109.217 23.1614 109.35C27.6183 109.594 31.7946 108.465 35.9789 107.134C37.361 106.695 39.1141 106.013 40.3074 107.45C41.5116 108.9 39.9375 110.05 39.413 111.25C36.0216 119.012 35.2997 126.875 38.7602 134.768C42.3277 142.904 49.734 145.726 57.8268 142.159C61.1326 140.702 64.0527 138.698 66.6048 136.042C69.4345 133.098 70.7493 133.414 72.5086 137.064C76.3438 145.019 82.7207 150.109 90.7689 153.272C96.9606 155.707 103.444 156.45 110.054 156.145C113.012 156.009 114.176 156.779 112.771 159.935C110.063 166.016 107.309 172.088 105.244 178.437C104.773 179.883 103.694 180.845 102.372 179.728C98.3904 176.364 93.258 175.765 88.718 173.769C84.3577 171.852 79.7523 170.616 74.9268 170.555C69.973 170.493 68.2602 173.497 70.7732 177.861C72.5924 181.02 75.054 183.621 78.0193 185.736C84.222 190.161 91.1992 193.182 97.9496 196.595C104.649 199.983 105.333 199.618 108.113 192.635C108.208 192.396 108.275 192.146 108.373 191.909C112.747 181.215 117.225 170.567 122.262 160.163C122.902 158.842 123.626 157.766 125.346 157.686C127.329 157.594 127.55 159.094 128.077 160.359C129.37 163.461 131.036 166.342 133.158 168.948C137.538 174.327 141.957 179.663 147.855 183.525C148.659 184.052 149.81 184.669 149.551 185.866C149.303 187.004 148.09 187.051 147.127 187.417C138.288 190.774 130.313 195.634 123.023 201.619C121.135 203.169 119.562 205.068 118.371 207.226C117.269 209.223 115.566 211.331 117.29 213.601C119.001 215.853 121.479 214.828 123.7 214.296C137.516 210.985 149.049 203.406 160.137 194.935C162.485 193.141 162.555 191.855 160.805 189.462C154.367 180.665 147.652 172.024 142.834 162.161C142.17 160.802 140.537 159.191 142.353 157.704C143.762 156.551 145.497 156.925 147.036 157.894C157.335 164.377 168.758 166.067 180.649 165.823Z" fill="#14303F"/>
<path d="M180.649 165.823C168.758 166.066 157.335 164.376 147.036 157.897C145.496 156.928 143.761 156.553 142.352 157.707C140.536 159.194 142.17 160.805 142.833 162.164C147.652 172.027 154.366 180.668 160.805 189.465C162.555 191.857 162.485 193.144 160.136 194.938C149.048 203.41 137.515 210.989 123.7 214.299C121.479 214.832 119.001 215.857 117.29 213.604C115.566 211.334 117.268 209.226 118.37 207.229C119.561 205.071 121.135 203.173 123.023 201.622C130.312 195.638 138.287 190.777 147.126 187.42C148.09 187.054 149.303 187.007 149.55 185.869C149.81 184.672 148.659 184.055 147.854 183.528C141.957 179.666 137.538 174.33 133.157 168.951C131.035 166.345 129.369 163.464 128.077 160.362C127.55 159.097 127.328 157.597 125.346 157.689C123.626 157.769 122.901 158.845 122.262 160.166C117.225 170.57 112.747 181.219 108.372 191.912C108.275 192.15 108.208 192.4 108.113 192.638C105.333 199.621 104.649 199.986 97.9492 196.599C91.1988 193.185 84.2216 190.163 78.0189 185.739C75.0535 183.623 72.5919 181.023 70.7727 177.864C68.2597 173.501 69.9725 170.497 74.9264 170.558C79.7519 170.619 84.3573 171.856 88.7176 173.773C93.2576 175.768 98.3899 176.367 102.371 179.731C103.693 180.848 104.773 179.885 105.244 178.44C107.309 172.091 110.064 166.02 112.77 159.938C114.175 156.782 113.012 156.012 110.054 156.149C103.444 156.453 96.9607 155.709 90.7684 153.276C82.7203 150.112 76.3439 145.022 72.5081 137.067C70.7489 133.417 69.4334 133.101 66.6044 136.045C64.0522 138.701 61.1321 140.704 57.8263 142.162C49.7335 145.729 42.3272 142.907 38.7597 134.771C35.2986 126.879 36.0206 119.015 39.4126 111.253C39.9371 110.053 41.5117 108.903 40.3069 107.453C39.1137 106.017 37.3605 106.698 35.9784 107.138C31.7948 108.468 27.6178 109.597 23.161 109.354C20.7091 109.22 18.2841 108.95 15.9588 108.193C4.04305 104.313 0.303212 92.4503 7.36905 81.4496C14.8499 69.8028 29.2573 65.014 43.5889 71.6018C44.4911 72.0163 45.416 72.9442 46.3348 71.8873C47.3379 70.7326 46.3959 69.7588 45.7204 68.8309C41.0203 62.3733 40.7745 55.5874 44.2087 48.5228C51.0521 34.4443 64.1751 28.9714 78.0794 34.3422C80.5716 35.305 82.7643 36.305 83.1317 39.4287C83.2863 40.746 84.2369 41.9227 85.8458 41.383C87.4076 40.8585 86.7456 39.5271 86.5707 38.4292C84.3799 24.6509 91.112 9.47452 105.673 4.79636C121.095 -0.158711 125.563 5.15825 129.782 18.079C130.372 19.8859 130.543 21.8463 130.765 23.7523C130.951 25.3374 131.622 26.5984 133.204 26.7543C134.799 26.9114 135.146 25.418 135.601 24.2034C139.671 13.347 150.052 6.10818 161.667 6.00487C167.526 5.95291 170.941 9.46107 170.495 15.3563C170.174 19.6017 169.264 23.7468 166.926 27.4194C166.148 28.6414 165.181 29.7997 166.823 31.0345C168.454 32.2608 169.652 31.4147 170.794 30.1763C177.88 22.4943 187.144 19.3688 197.089 17.7788C199.093 17.4585 201.201 17.4518 203.226 17.6486C215.161 18.8076 222.171 29.6023 218.432 41.0266C215.906 48.7428 210.35 54.3055 204.882 59.9416C204.025 60.8249 201.48 61.213 203.233 63.3654C204.76 65.2402 206.282 63.9369 207.637 63.0775C213.516 59.3486 220.087 57.7947 226.85 56.7953C233.77 55.772 240.081 57.7703 245.195 62.0774C252.15 67.9353 258.403 74.5849 256.485 85.0048C254.628 95.0941 248.541 101.744 239.307 105.626C235.654 107.162 231.828 108.536 227.755 106.845C226.868 106.476 225.956 106.383 225.414 107.399C224.975 108.222 225.518 108.836 226.016 109.443C236.375 122.096 235.834 136.927 224.536 149.095C215.179 159.173 203.55 164.479 189.885 165.408C186.812 165.614 183.728 165.688 180.649 165.823ZM137.785 119.605C153.369 118.994 170.153 110.602 181.335 92.2681C185.826 84.9046 188.113 76.8173 188.542 68.2019C188.633 66.3772 188.403 64.7994 186.142 64.572C184.026 64.3593 183.118 65.5134 182.891 67.4714C182.714 68.999 182.342 70.5101 182.255 72.0401C181.968 77.1211 180.607 81.9331 178.306 86.4077C162.109 117.912 130.086 121.777 101.956 106.416C87.5567 98.5534 80.3405 84.6148 77.7206 68.4837C77.363 66.2818 76.9448 64.223 74.0687 64.7188C71.1468 65.2224 71.9775 67.494 72.2972 69.2991C77.83 100.534 100.648 119.657 137.785 119.605ZM208.434 123.542C214.447 117.762 213.21 111.43 210.925 105C210.377 103.46 209.297 102.595 207.664 103.257C206.153 103.871 206.601 105.258 207.114 106.228C210.542 112.711 208.724 118.078 203.799 122.878C203.195 123.466 202.304 124.068 202.805 125.149C203.294 126.204 204.22 126.517 205.337 126.539C206.744 126.567 208.167 126.578 209.552 126.797C214.003 127.503 215.804 129.863 215.254 134.265C214.945 136.737 213.988 138.956 212.253 140.8C210.617 142.538 208.717 144.061 206.255 143.662C203.387 143.198 204.79 140.588 204.385 138.905C203.999 137.295 203.455 135.743 201.438 136.138C199.307 136.556 200.562 138.177 200.709 139.251C201.228 143.047 200.048 146.115 196.917 148.301C195.255 149.461 193.608 149.242 192.031 147.82C190.565 146.499 190.767 145.255 191.655 143.755C192.863 141.716 193.28 139.453 193.174 137.092C193.108 135.609 193.539 133.579 191.245 133.677C189.399 133.755 189.576 135.372 189.609 136.911C189.699 141.241 187.666 144.599 184.022 146.803C180.258 149.08 176.646 146.915 176.698 142.557C176.742 138.854 178.355 135.92 181.179 133.572C182.009 132.882 183.353 132.123 182.322 130.812C181.374 129.607 179.986 129.903 178.842 130.672C177.784 131.384 176.892 132.346 175.834 133.059C173.908 134.353 171.69 135.063 169.829 133.323C167.755 131.384 168.628 129.065 169.976 127.027C170.905 125.62 172.206 124.568 173.75 123.831C176.999 122.282 180.334 121.804 183.808 122.975C185.242 123.46 186.9 123.27 186.431 121.561C185.277 117.351 184.488 113.088 183.665 108.819C183.491 107.919 182.856 107.11 181.783 107.23C180.574 107.365 180.612 108.411 180.596 109.302C180.555 111.617 180.566 113.951 181.286 116.168C182.195 118.971 181.847 120.318 178.36 119.981C174.204 119.579 170.476 120.978 167.703 124.254C163.288 129.472 164.005 135.474 169.649 137.04C173.018 137.975 172.826 139.626 172.77 142.128C172.626 148.53 176.637 151.835 182.899 150.626C184.024 150.409 185.18 150.128 186.197 149.625C187.394 149.033 188.158 149.226 189.263 150.009C194.636 153.82 197.192 153.526 201.874 148.605C202.932 147.493 203.866 146.981 205.474 147.018C211.712 147.16 217.755 142.188 219.026 136.109C220.166 130.654 218.314 127.299 213.042 125.28C211.729 124.779 210.411 124.288 208.434 123.542ZM152.141 53.369C152.141 52.8073 152.152 51.9087 152.14 51.0101C152.093 47.8821 150.762 45.4908 147.781 44.4082C144.661 43.2749 141.704 44.1851 139.833 46.7341C135.858 52.1526 134.219 58.2208 136.298 64.8917C137.134 67.5759 138.999 69.2991 141.802 69.6433C144.427 69.966 146.621 68.8938 148.053 66.6584C150.572 62.7223 152.555 58.5802 152.141 53.369ZM124.129 52.1813C124.052 51.158 123.913 50.1353 123.909 49.1114C123.897 46.052 122.423 43.9491 119.638 42.8892C116.821 41.817 114.299 42.7541 112.212 44.7004C107.944 48.6829 106.082 58.8009 108.52 64.1619C110.638 68.8186 116.382 69.7649 119.515 65.7249C122.55 61.8097 124.393 57.3063 124.129 52.1813Z" fill="#D0D3D7"/>
<path d="M137.785 119.605C100.648 119.657 77.8299 100.534 72.2971 69.2997C71.9774 67.4946 71.1473 65.223 74.0686 64.7193C76.9441 64.2236 77.3622 66.2824 77.7204 68.4842C80.3404 84.6154 87.5572 98.5539 101.955 106.416C130.087 121.777 162.109 117.913 178.306 86.4083C180.607 81.9337 181.968 77.1217 182.255 72.0407C182.342 70.5106 182.713 68.9995 182.891 67.4719C183.118 65.514 184.026 64.3599 186.142 64.5726C188.403 64.8 188.633 66.3777 188.542 68.2024C188.113 76.8179 185.826 84.9045 181.335 92.2687C170.154 110.602 153.369 118.995 137.785 119.605Z" fill="#14303F"/>
<path d="M208.434 123.542C210.411 124.288 211.728 124.778 213.04 125.281C218.311 127.3 220.164 130.656 219.024 136.11C217.753 142.189 211.709 147.16 205.471 147.019C203.864 146.982 202.93 147.495 201.872 148.606C197.19 153.527 194.634 153.82 189.261 150.011C188.156 149.227 187.392 149.034 186.195 149.626C185.178 150.129 184.022 150.41 182.897 150.627C176.635 151.837 172.624 148.531 172.768 142.129C172.824 139.627 173.016 137.977 169.647 137.042C164.003 135.475 163.285 129.473 167.701 124.255C170.474 120.979 174.202 119.58 178.358 119.982C181.846 120.319 182.194 118.973 181.283 116.169C180.564 113.952 180.553 111.618 180.594 109.303C180.61 108.412 180.572 107.366 181.78 107.231C182.854 107.111 183.489 107.92 183.663 108.82C184.486 113.089 185.275 117.352 186.429 121.562C186.898 123.271 185.24 123.46 183.806 122.977C180.332 121.805 176.997 122.283 173.748 123.832C172.203 124.568 170.904 125.621 169.973 127.028C168.627 129.066 167.753 131.385 169.827 133.324C171.688 135.064 173.906 134.355 175.831 133.06C176.89 132.348 177.781 131.385 178.84 130.673C179.984 129.904 181.372 129.608 182.32 130.813C183.351 132.124 182.007 132.884 181.177 133.573C178.352 135.921 176.74 138.855 176.696 142.558C176.644 146.916 180.256 149.081 184.02 146.804C187.664 144.6 189.698 141.242 189.607 136.913C189.574 135.373 189.397 133.757 191.243 133.678C193.537 133.58 193.106 135.61 193.172 137.094C193.278 139.454 192.861 141.717 191.653 143.757C190.765 145.257 190.563 146.501 192.029 147.822C193.606 149.243 195.253 149.462 196.915 148.302C200.046 146.116 201.225 143.048 200.706 139.253C200.56 138.178 199.305 136.557 201.436 136.139C203.453 135.744 203.997 137.297 204.383 138.906C204.787 140.59 203.384 143.199 206.253 143.664C208.715 144.062 210.616 142.54 212.251 140.801C213.986 138.957 214.943 136.738 215.252 134.266C215.802 129.864 214.001 127.504 209.55 126.798C208.165 126.579 206.742 126.568 205.335 126.54C204.218 126.518 203.292 126.205 202.803 125.15C202.302 124.069 203.193 123.467 203.796 122.879C208.722 118.079 210.54 112.712 207.112 106.229C206.599 105.259 206.151 103.873 207.662 103.258C209.295 102.595 210.375 103.461 210.923 105.001C213.21 111.431 214.446 117.762 208.434 123.542Z" fill="#14303F"/>
<path d="M152.141 53.369C152.554 58.5802 150.571 62.7229 148.052 66.659C146.622 68.8938 144.427 69.966 141.801 69.6439C138.998 69.2997 137.134 67.5759 136.297 64.8923C134.218 58.222 135.858 52.1532 139.833 46.7348C141.703 44.1851 144.661 43.2755 147.781 44.4088C150.762 45.4914 152.093 47.8827 152.139 51.0107C152.153 51.9087 152.141 52.8073 152.141 53.369Z" fill="#14303F"/>
<path d="M124.128 52.1812C124.393 57.3063 122.55 61.8096 119.515 65.7255C116.382 69.7661 110.637 68.8192 108.52 64.1624C106.082 58.8008 107.944 48.6835 112.212 44.701C114.298 42.754 116.821 41.8169 119.638 42.8897C122.422 43.9497 123.897 46.0519 123.908 49.112C123.912 50.1347 124.051 51.158 124.128 52.1812Z" fill="#14303F"/>
</svg>
