<svg width="204" height="132" viewBox="0 0 204 132" fill="none" xmlns="http://www.w3.org/2000/svg">
<path d="M19.4146 98.0146V3.96862C19.4146 0.680302 22.0453 1.00913 24.6759 1.00913H179.556C180.871 1.00913 183.173 1.66682 183.173 3.96864V98.0146C189.421 104.372 202.048 117.218 202.574 117.745C202.931 118.101 203.046 118.487 202.984 118.859C202.995 119.332 202.903 119.853 202.903 120.375V127.61C202.903 128.267 201.588 130.24 198.299 130.24H3.95949C2.64416 130.24 1 128.596 1 126.952V119.389C1 118.864 1.10045 118.44 1.26929 118.073C1.62957 117.291 2.30128 116.772 2.97299 116.1C3.76219 115.311 14.2629 103.714 19.4146 98.0146Z" fill="#A6A6A6"/>
<path d="M19.4146 98.0146C19.4146 67.7621 19.4146 6.59928 19.4146 3.96862C19.4146 0.680302 22.0453 1.00913 24.6759 1.00913C27.3066 1.00913 178.241 1.00913 179.556 1.00913C180.871 1.00913 183.173 1.66682 183.173 3.96864C183.173 5.8101 183.173 67.4332 183.173 98.0146M19.4146 98.0146C14.2629 103.714 3.76219 115.311 2.97299 116.1C2.30128 116.772 1.62957 117.291 1.26929 118.073M19.4146 98.0146L183.173 98.0146M183.173 98.0146C189.421 104.372 202.048 117.218 202.574 117.745M202.574 117.745C203.232 118.402 202.903 119.389 202.903 120.375C202.903 121.362 202.903 126.952 202.903 127.61C202.903 128.267 201.588 130.24 198.299 130.24C195.011 130.24 5.27482 130.24 3.95949 130.24C2.64416 130.24 1 128.596 1 126.952C1 125.308 1 121.033 1 119.389C1 118.864 1.10045 118.44 1.26929 118.073M202.574 117.745C203.889 119.06 201.916 120.764 199.943 120.764C197.97 120.764 7.57664 120.764 3.95949 120.764C1.06577 120.764 0.960305 118.97 1.26929 118.073" stroke="black" stroke-width="2"/>
<path d="M129.573 106.893H69.3971C68.9586 108.208 67.9502 111.168 67.4241 112.483C66.7664 114.127 66.7664 116.1 68.7394 116.1H129.245C131.218 116.1 132.204 115.114 131.875 113.799C131.612 112.746 130.231 108.756 129.573 106.893Z" stroke="black" stroke-width="2"/>
<rect x="25.0046" y="5.94165" width="152.578" height="87.4694" fill="#202020"/>
</svg>
