<svg width="732" height="266" viewBox="0 0 732 266" fill="none" xmlns="http://www.w3.org/2000/svg">
<path d="M41 229.743V102.092L703 95V227.657C703 234.331 697.504 236 692.008 236H50.4928C44.4974 236 41 234.331 41 229.743Z" fill="#040404" fill-opacity="0.2"/>
<path d="M42 208.593V97H59C56.5714 133.062 51.7143 205.867 51.7143 208.593C51.7143 212 49.2857 212 45.6429 212C42 212 42 211.148 42 208.593Z" fill="#7A5F3E" stroke="black" stroke-width="2"/>
<path d="M697 208.593V97H680C682.429 133.062 687.286 205.867 687.286 208.593C687.286 212 689.714 212 693.357 212C697 212 697 211.148 697 208.593Z" fill="#7A5F3E" stroke="black" stroke-width="2"/>
<path d="M5 77L366.5 77L728 77.0001" stroke="black" stroke-width="2"/>
<path d="M201.68 193.76L47 195V95H692V190.868H538.822C538.822 169.38 503.531 139.322 492.268 139.322H285.027C253.19 139.322 216.197 174.614 201.68 193.76Z" fill="#A38056" stroke="black" stroke-width="2"/>
<path d="M721.213 75H9.49658C5.99801 75 1 78.6667 1 84.1667C1 89.6667 1.99962 97 13.495 97H686.401C726.522 97 729.044 94.1667 729.709 89C730.374 83.8333 730.709 75 721.213 75Z" fill="#81B7D5" stroke="black" stroke-width="2"/>
<path d="M277.572 91.7194C217.406 91.7194 67.7736 90.5148 2.31482 90C0.688917 91.8199 5.71333 95.3981 9.31227 96.3901C26.305 97.7594 78.3491 96.4024 118.8 96.3523C168.939 96.2903 630.702 96.3523 685.019 96.3523C728.473 96.3523 729 93.4867 729 90.9129C723.003 90.9129 711.272 90.4839 691.216 91.7194C666.147 93.2637 352.78 91.7194 277.572 91.7194Z" fill="#5D8397"/>
<path d="M30 260.022V97H51C48 149.681 42 256.04 42 260.022C42 265 39 265 34.5 265C30 265 30 263.756 30 260.022Z" fill="#A38056" stroke="black" stroke-width="2"/>
<path d="M710 260.022V97H688C691.143 149.681 697.429 256.04 697.429 260.022C697.429 265 700.571 265 705.286 265C710 265 710 263.756 710 260.022Z" fill="#A38056" stroke="black" stroke-width="2"/>
<path d="M707.333 264.491L706 97H710V260.741C710 265.741 708.222 265.324 707.333 264.491Z" fill="#6D5538"/>
<path d="M710 260.022V97H688C691.143 149.681 697.429 256.04 697.429 260.022C697.429 265 700.571 265 705.286 265C710 265 710 263.756 710 260.022Z" stroke="black" stroke-width="2"/>
<path d="M721.5 75L9.49997 75C6 75 1 78.6667 1 84.1667C1 89.6667 2.00002 97 13.5 97H686.675C726.812 97 729.335 94.1667 730 89C730.665 83.8333 731 75 721.5 75Z" stroke="black" stroke-width="2"/>
<path d="M3.28977 77.4129C2.85075 77.9522 2.42063 78.4815 2 79C2.31012 78.3798 2.75246 77.8557 3.28977 77.4129C23.029 53.1652 60.7609 8.63038 63.5 5.5C67 1.5 66.5 1 75.5 1H648.5C653 1 654 1 657 4.5C659.4 7.3 705 53.6667 727.5 76.5C726.333 76 723.2 75 720 75H14.5C11.9652 75 6.21766 75 3.28977 77.4129Z" fill="#8FC8E8"/>
<path d="M2 79C21.3333 55.1667 60.7 8.7 63.5 5.5C67 1.5 66.5 1 75.5 1C84.5 1 644 1 648.5 1C653 1 654 1 657 4.5C659.4 7.3 705 53.6667 727.5 76.5C726.333 76 723.2 75 720 75C716 75 17.5 75 14.5 75C11.5 75 4 75 2 79Z" stroke="black" stroke-width="2"/>
<path d="M129.952 122C127.717 122 125 121.625 125 117.875C125 115.625 126.143 113 129.19 113C132.238 113 133 115.625 133 117.875C133 120.125 132.188 122 129.952 122Z" fill="#EEEEEE" stroke="black" stroke-width="2"/>
<path d="M616.952 122C614.717 122 612 121.625 612 117.875C612 115.625 613.143 113 616.19 113C619.238 113 620 115.625 620 117.875C620 120.125 619.188 122 616.952 122Z" fill="#EEEEEE" stroke="black" stroke-width="2"/>
<path d="M278.952 122C276.717 122 274 121.625 274 117.875C274 115.625 275.143 113 278.19 113C281.238 113 282 115.625 282 117.875C282 120.125 281.188 122 278.952 122Z" fill="#EEEEEE" stroke="black" stroke-width="2"/>
<path d="M467.952 122C465.717 122 463 121.625 463 117.875C463 115.625 464.143 113 467.19 113C470.238 113 471 115.625 471 117.875C471 120.125 470.188 122 467.952 122Z" fill="#EEEEEE" stroke="black" stroke-width="2"/>
<path d="M129.952 171C127.905 171.5 125 170.25 125 166.5C125 164.25 126.143 162 129.19 162C132.238 162 133 164.625 133 166.875C133 169.125 132 170.5 129.952 171Z" fill="#EEEEEE" stroke="black" stroke-width="2"/>
<path d="M616.952 171C614.905 171.5 612 170.25 612 166.5C612 164.25 613.143 162 616.19 162C619.238 162 620 164.625 620 166.875C620 169.125 619 170.5 616.952 171Z" fill="#EEEEEE" stroke="black" stroke-width="2"/>
<path d="M198 130H54V134L198 133V130Z" fill="#70573A"/>
<path d="M685 130H541V134L685 133V130Z" fill="#70573A"/>
<path d="M535 130H204V134L535 133V130Z" fill="#70573A"/>
<path d="M198 183H54V186L198 185.25V183Z" fill="#70573A"/>
<path d="M685 183H541V186L685 185.25V183Z" fill="#70573A"/>
<rect x="54" y="103" width="145" height="30" stroke="black" stroke-width="2"/>
<rect x="541" y="103" width="145" height="30" stroke="black" stroke-width="2"/>
<rect x="54" y="103" width="145" height="30" stroke="black" stroke-width="2"/>
<rect x="541" y="103" width="145" height="30" stroke="black" stroke-width="2"/>
<rect x="54" y="140" width="145" height="46" stroke="black" stroke-width="2"/>
<rect x="541" y="140" width="145" height="46" stroke="black" stroke-width="2"/>
<rect x="203" y="103" width="332" height="30" stroke="black" stroke-width="2"/>
</svg>
