<svg width="157" height="62" viewBox="0 0 157 62" fill="none" xmlns="http://www.w3.org/2000/svg">
<rect x="5" y="1" width="145" height="30" fill="#4C4132" stroke="black" stroke-width="2"/>
<path d="M8.5 1L1 28H156L149 1H8.5Z" fill="#4C4132" stroke="black" stroke-width="2" stroke-linejoin="round"/>
<path d="M1.5 60L12 9V0.5" stroke="black" stroke-width="2" stroke-linejoin="round"/>
<path d="M156 60L145.5 9.42857V1" stroke="black" stroke-width="2" stroke-linejoin="round"/>
<path d="M12.5 8.5H145.5" stroke="black" stroke-width="2" stroke-linejoin="round"/>
<path d="M11.1165 38.7644L37.1848 9.2837L74.6513 12.566L57.6548 48.2623L11.1165 38.7644Z" fill="#D9D9D9" stroke="black" stroke-width="2"/>
<path d="M18.1165 42.7644L44.1848 13.2837L81.6513 16.566L64.6548 52.2623L18.1165 42.7644Z" fill="#D9D9D9" stroke="black" stroke-width="2"/>
<path d="M74.1165 40.7644L100.185 11.2837L137.651 14.566L120.655 50.2623L74.1165 40.7644Z" fill="#D9D9D9" stroke="black" stroke-width="2"/>
<path d="M146.5 16H9H4.5L9 0L148.5 1L152.5 16H146.5Z" fill="black" fill-opacity="0.3"/>
<path d="M105.272 21.4093L100.354 26.6234L107.019 34.1355L112.154 25.8697L105.272 21.4093Z" fill="white" stroke="black" stroke-linejoin="bevel"/>
<path d="M103.362 24.3074L108.205 31.094L105.197 33.41L102.739 29.2813L103.362 24.3074Z" fill="#8A8A8A"/>
<path d="M108.214 36.5572C108.549 36.3326 110.17 33.4257 110.938 32.0003L105.472 30.1876L102.097 21.5077L93.7643 23.1315L90.6255 31.6114L93.7812 34.058L95.8108 33.0042L100.509 36.8492L102.609 35.4452C104.337 35.9095 107.878 36.7819 108.214 36.5572Z" fill="white" stroke="black" stroke-linejoin="bevel"/>
<path d="M105.472 30.1877L101.482 31.9449L97.7652 28.6587" stroke="black" stroke-linejoin="bevel"/>
<path d="M98.4658 28.7975L104.771 30.0485L101.552 31.5944L98.4658 28.7975Z" fill="#8A8A8A"/>
<path d="M95.9442 28.6614C96.086 29.7819 96.3418 32.1629 96.2306 32.7234L95.53 32.5844L95.9442 28.6614Z" fill="#C8C8C8"/>
<path d="M101.975 33.1348L103.028 35.1644L102.328 35.0254L101.068 35.8678L101.975 33.1348Z" fill="#8A8A8A"/>
<path d="M97.2036 27.8191L95.9357 23.1983L93.6948 23.4819L97.2036 27.8191Z" fill="#D9D9D9"/>
<path d="M93.4863 24.5328L102.169 22.9785L102.027 21.8581L94.0451 23.5514L93.4863 24.5328Z" fill="#C8C8C8"/>
<path d="M83.4871 35.7137L84.5039 28.6185L74.7281 26.3174L75.2917 36.0322L83.4871 35.7137Z" fill="white" stroke="black" stroke-linejoin="bevel"/>
<path d="M83.3791 32.2445L75.5108 29.4869L76.6357 25.8609L81.023 27.82L83.3791 32.2445Z" fill="#8A8A8A"/>
<path d="M72.3568 25.0259C72.2117 25.403 72.5615 28.7126 72.7546 30.3203L78.2669 28.6534L86.0259 33.8044L91.9017 27.6773L89.5828 18.9375L85.594 18.7554L84.5419 20.7858L78.4862 20.3494L77.5791 22.7062C75.8988 23.3223 72.502 24.6488 72.3568 25.0259Z" fill="white" stroke="black" stroke-linejoin="bevel"/>
<path d="M78.2668 28.6534L80.5159 24.9189L85.4474 25.4638" stroke="black" stroke-linejoin="bevel"/>
<path d="M84.7947 25.7537L78.9197 28.3634L80.6609 25.2452L84.7947 25.7537Z" fill="#8A8A8A"/>
<path d="M86.9344 24.4127C86.1731 23.5785 84.5924 21.7796 84.3605 21.2573L85.0133 20.9674L86.9344 24.4127Z" fill="#C8C8C8"/>
<path d="M79.4282 24.2297L77.3977 23.1777L78.0505 22.8877L78.5947 21.4736L79.4282 24.2297Z" fill="#8A8A8A"/>
<path d="M86.3903 25.8267L90.0884 28.8735L91.7568 27.3508L86.3903 25.8267Z" fill="#D9D9D9"/>
<path d="M91.3218 26.3718L85.1196 32.6438L85.881 33.478L91.4304 27.4959L91.3218 26.3718Z" fill="#C8C8C8"/>
<rect x="1" y="27.9116" width="155" height="32.1769" fill="#A38056" stroke="black" stroke-width="2"/>
<path d="M82.1872 48.2722C79.8001 48.2722 76.8979 47.8716 76.8979 43.8665C76.8979 41.4635 78.1186 38.6599 81.3735 38.6599C84.6284 38.6599 85.4422 41.4635 85.4422 43.8665C85.4422 46.2696 84.5744 48.2722 82.1872 48.2722Z" fill="#EEEEEE" stroke="black" stroke-width="2"/>
<path d="M154.864 56.8164H1.06799V61.0885L154.864 60.0205V56.8164Z" fill="#70573A"/>
<rect x="1" y="27.9116" width="155" height="32.1769" stroke="black" stroke-width="2"/>
</svg>
