<svg width="137" height="233" viewBox="0 0 137 233" fill="none" xmlns="http://www.w3.org/2000/svg">
<path d="M96.8486 1H41.0176C34.5631 1 31.3359 2.27123 29.0769 3.86027C26.8178 5.44932 9.06806 19.7507 6.48628 22.611C3.9045 25.4712 1 28.9671 1 33.4164V196.452C1 203.444 1.96817 205.986 4.54995 208.847C7.13173 211.707 21.977 225.373 25.5269 227.915C29.0769 230.458 33.2723 233 39.7267 233H95.5577C103.948 233 108.144 231.093 109.757 229.822C111.371 228.551 127.83 215.203 131.38 211.389C134.93 207.575 136.543 203.762 136.543 198.995V36.5945C136.543 31.5096 135.575 28.3315 132.671 24.8356C129.766 21.3397 114.276 7.67397 110.403 4.8137C106.53 1.95342 101.367 1 96.8486 1Z" fill="black" fill-opacity="0.3"/>
<path d="M94.6196 1H40.087C33.7826 1 30.6304 2.26087 28.4239 3.83696C26.2174 5.41304 8.88043 19.5978 6.3587 22.4348C3.83696 25.2717 1 28.7391 1 33.1522V194.859C1 201.793 1.94565 204.315 4.46739 207.152C6.98913 209.989 21.4891 223.543 24.9565 226.065C28.4239 228.587 32.5217 231.109 38.8261 231.109H93.3587C101.554 231.109 105.652 229.217 107.228 227.957C108.804 226.696 124.88 213.457 128.348 209.674C131.815 205.891 133.391 202.109 133.391 197.38V36.3043C133.391 31.2609 132.446 28.1087 129.609 24.6413C126.772 21.1739 111.641 7.61957 107.859 4.78261C104.076 1.94565 99.0326 1 94.6196 1Z" fill="#B58A08" stroke="black" stroke-width="2"/>
<path d="M90.5217 14.239H42.2935C39.1413 14.239 36.3044 15.1847 33.7826 17.076C31.2609 18.9673 18.0217 30.9455 16.1304 32.8368C14.2391 34.7281 12.9783 35.989 12.9783 39.7716V191.706C12.9783 194.859 14.2391 197.696 15.5 198.956C16.7609 200.217 31.5761 214.402 34.0978 216.609C36.6196 218.815 40.4022 219.761 43.2391 219.761H86.7391C90.837 219.761 96.8261 218.5 98.7174 217.239C100.609 215.978 115.424 202.739 117.946 200.217C120.467 197.696 120.783 193.913 120.783 191.076V41.9781C120.783 38.826 120.152 35.989 118.891 34.0977C117.63 32.2064 101.87 18.3368 99.3478 16.4455C96.8261 14.5542 93.3587 14.239 90.5217 14.239Z" fill="#A4BCC1" stroke="black" stroke-width="2"/>
<path d="M95.5652 5.41309H40.4021C32.5217 5.41309 27.7934 10.4566 24.0108 13.2935C20.2282 16.1305 10.1413 25.587 7.93474 28.1087C5.72821 30.6305 5.72821 33.4674 5.72821 35.9892C5.72821 38.5109 5.09778 192.652 5.09778 196.435C5.09778 200.217 5.72821 202.109 7.3043 204.63C8.88039 207.152 26.2173 222.283 29.0543 224.174C31.8913 226.065 35.6739 227.011 38.1956 227.011H98.0869C102.185 227.011 104.706 224.174 106.913 222.598C109.12 221.022 125.511 206.837 126.772 204.946C128.033 203.054 129.293 200.217 129.293 195.804V37.8805C129.293 31.8913 128.033 29.6848 125.826 26.2174C123.62 22.75 106.598 9.51091 104.706 7.93482C102.815 6.35874 98.7173 5.41309 95.5652 5.41309Z" stroke="black"/>
<path d="M94.3043 8.56519H41.9783C34.413 8.56519 31.5761 12.0326 28.7391 14.2391C25.9022 16.4456 13.6087 27.163 11.4022 29.3695C9.19565 31.5761 8.25 34.7282 8.25 37.25V195.174C8.25 198.326 9.19565 201.163 10.7717 203.054C12.3478 204.946 26.2174 218.5 30 220.706C33.7826 222.913 36.6196 223.859 39.7717 223.859C42.9239 223.859 84.2174 224.174 91.1522 224.174C98.087 224.174 100.609 223.228 102.5 221.967C104.391 220.706 115.424 211.88 119.522 208.098C123.62 204.315 125.826 198.011 125.826 194.859C125.826 191.706 126.457 46.3913 126.457 40.4021C126.457 34.413 124.25 29.6847 122.359 27.4782C120.467 25.2717 106.283 13.2934 103.761 11.4021C101.239 9.51084 97.4565 8.56519 94.3043 8.56519Z" stroke="black"/>
<path d="M38.5109 23.3805L12.9783 65.6196L13.6087 90.837L52.6957 22.7501L45.6033 23.0653L38.5109 23.3805Z" fill="#D9D9D9"/>
<path d="M56.1631 22.7501L13.6087 96.8262L12.9783 112.272L64.3587 22.1196L56.1631 22.7501Z" fill="#D9D9D9"/>
<path fill-rule="evenodd" clip-rule="evenodd" d="M42.2935 14.239H90.5217C93.3587 14.239 96.8261 14.5542 99.3478 16.4455C101.87 18.3368 117.63 32.2064 118.891 34.0977C120.152 35.989 120.783 38.826 120.783 41.9781V191.076C120.783 193.913 120.467 197.696 117.946 200.217C115.424 202.739 100.609 215.978 98.7174 217.239C96.8261 218.5 90.837 219.761 86.7391 219.761H43.2391C40.4022 219.761 36.6196 218.815 34.0978 216.609C31.5761 214.402 16.7609 200.217 15.5 198.956C14.2391 197.696 12.9783 194.859 12.9783 191.706V39.7716C12.9783 35.989 14.2391 34.7281 16.1304 32.8368C18.0217 30.9455 31.2609 18.9673 33.7826 17.076C36.3044 15.1847 39.1413 14.239 42.2935 14.239ZM63.2518 15.9859C75.6879 15.9029 88.8578 15.8151 90.5217 15.8151C93.6739 15.8151 96.5109 16.1303 100.293 19.2825C104.076 22.4347 117.63 34.0977 118.261 35.6738C118.891 37.2499 119.522 39.1412 119.522 43.5542V96.5107C119.522 100.604 119.401 134.708 119.309 160.739C119.252 176.806 119.207 189.798 119.207 190.761C119.207 190.917 119.208 191.074 119.209 191.233C119.227 193.64 119.249 196.393 115.109 200.532C110.696 204.946 101.554 212.826 99.3478 214.717C97.1413 216.609 92.0978 218.185 88 218.185C87.1216 218.185 84.7371 218.199 81.5013 218.219C69.6413 218.291 46.3461 218.432 43.8695 218.185C40.7174 217.869 36.6195 216.609 33.4674 213.772C30.3152 210.935 17.3913 198.956 16.4456 197.38C16.3077 197.15 16.1697 196.934 16.0347 196.722C15.2442 195.481 14.5543 194.399 14.5543 191.706V41.3477C14.5543 38.826 14.5543 36.6194 16.7608 34.4129C18.9674 32.2064 31.8913 20.5434 33.4674 19.2825C33.53 19.2324 33.5937 19.1813 33.6584 19.1293C35.2204 17.8754 37.3753 16.1456 40.4022 16.1303C41.5928 16.1303 52.1287 16.06 63.2518 15.9859Z" fill="#878D8E"/>
<path d="M90.8369 14.239H42.6087C39.4565 14.239 36.6195 15.1847 34.0978 17.076C31.5761 18.9673 18.3369 30.9455 16.4456 32.8368C14.5543 34.7281 13.2935 35.989 13.2935 39.7716V191.706C13.2935 194.859 14.5543 197.696 15.8152 198.956C17.0761 200.217 31.8913 214.402 34.413 216.609C36.9348 218.815 40.7174 219.761 43.5543 219.761H87.0543C91.1521 219.761 97.1413 218.5 99.0326 217.239C100.924 215.978 115.739 202.739 118.261 200.217C120.783 197.696 121.098 193.913 121.098 191.076V41.9781C121.098 38.826 120.467 35.989 119.206 34.0977C117.946 32.2064 102.185 18.3368 99.663 16.4455C97.1413 14.5542 93.6739 14.239 90.8369 14.239Z" stroke="black" stroke-width="2"/>
</svg>
