<svg width="94" height="34" viewBox="0 0 94 34" fill="none" xmlns="http://www.w3.org/2000/svg">
<path d="M55.0241 27.9921L37.3795 1.47739L69.0458 1.50376L91.3395 28.0223L55.0241 27.9921Z" fill="white" stroke="black" stroke-width="2"/>
<path d="M29.536 31.5163L11.8914 5.00156L43.5576 5.02793L65.8513 31.5465L29.536 31.5163Z" fill="white" stroke="black" stroke-width="2"/>
<path d="M24.5 16.5L19 8H28L34 16.5H24.5Z" fill="#C9C9C9"/>
<path fill-rule="evenodd" clip-rule="evenodd" d="M31.5 9.04995V8.94995H42.5V9.04995H31.5Z" fill="#838383"/>
<path fill-rule="evenodd" clip-rule="evenodd" d="M33 10.05V9.94995H44V10.05H33Z" fill="#838383"/>
<path fill-rule="evenodd" clip-rule="evenodd" d="M36 14.05V13.95H47V14.05H36Z" fill="#838383"/>
<path fill-rule="evenodd" clip-rule="evenodd" d="M37 15.05V14.95H48V15.05H37Z" fill="#838383"/>
<path fill-rule="evenodd" clip-rule="evenodd" d="M28 20.05V19.95H52V20.05H28Z" fill="#838383"/>
<path fill-rule="evenodd" clip-rule="evenodd" d="M29 21.05V20.95H53V21.05H29Z" fill="#838383"/>
<path fill-rule="evenodd" clip-rule="evenodd" d="M30 22.05V21.95H54V22.05H30Z" fill="#838383"/>
<path d="M11.6667 32.5L17 24L5.8 15.5L1 28.25L11.6667 32.5Z" fill="white" stroke="black" stroke-width="2" stroke-linejoin="bevel"/>
<path d="M13.5 28L5 20L8.5 16L13 21L13.5 28Z" fill="#8A8A8A"/>
<path d="M3.5 12.4999C3.1 12.8999 1.66667 17.3332 1 19.4999L9 20.5L16 31.5L27 27L29 14.5L24 12L21.5 14L14 10L11.5 12.4999C9 12.3332 3.9 12.0999 3.5 12.4999Z" fill="white"/>
<path d="M9 20.5L14 17L20 20.5" stroke="black" stroke-width="2" stroke-linejoin="bevel"/>
<path d="M19 20.5H10L14 17.5L19 20.5Z" fill="#8A8A8A"/>
<path d="M22.5 20C22 18.5 21 15.3 21 14.5H22L22.5 20Z" fill="#C8C8C8"/>
<path d="M13 15.5L11 13H12L13.5 11.5L13 15.5Z" fill="#8A8A8A"/>
<path d="M21 21.5L24 27.5L27 26.5L21 21.5Z" fill="#D9D9D9"/>
<path d="M27 25L15.5 29.5L16 31L26.5 26.5L27 25Z" fill="#C8C8C8"/>
<path d="M3.5 12.4999C3.1 12.8999 1.66667 17.3332 1 19.4999L9 20.5L16 31.5L27 27L29 14.5L24 12L21.5 14L14 10L11.5 12.4999C9 12.3332 3.9 12.0999 3.5 12.4999Z" stroke="black" stroke-width="2" stroke-linejoin="bevel"/>
</svg>
