<svg width="387" height="318" viewBox="0 0 387 318" fill="none" xmlns="http://www.w3.org/2000/svg">
<path d="M20.5736 285.305C16.5897 283.495 22.2336 277.307 25.5535 274.44C40.4933 270.818 352.869 240.939 360.113 248.635C367.356 256.331 368.714 263.122 363.282 267.197C357.849 271.271 302.165 302.509 284.509 312.016C266.853 321.523 249.649 317.448 217.506 312.016C185.363 306.583 25.5535 287.569 20.5736 285.305Z" fill="#909090" fill-opacity="0.5"/>
<path d="M36.5759 94.2029C47.0256 92.0515 87.6718 85.3668 150.677 71.5364L247.106 89.5928L242.112 224.824L51.9432 219.829C49.382 205.231 44.2595 173.344 44.2595 162.587C44.2595 149.141 12.3727 104.576 15.8303 101.887C19.2879 99.1973 23.5139 96.8922 36.5759 94.2029Z" fill="#117AB5" stroke="black" stroke-width="3" stroke-linejoin="round"/>
<path d="M353.524 55.4008C351.372 54.4788 347.761 54.2483 346.224 54.2483L334.315 79.6041L312.032 88.4402L323.174 93.4345L359.671 87.6719C359.927 80.5005 360.439 65.4663 360.439 62.7002C360.439 59.2426 356.213 56.5534 353.524 55.4008Z" fill="#0F5983" stroke="black" stroke-width="3" stroke-linejoin="round"/>
<path d="M120.711 22.7457C119.943 29.6609 119.559 45.028 118.79 55.0167C118.79 62.7003 120.711 64.237 124.169 67.3104C127.626 70.3839 141.073 78.0674 144.914 79.9883C148.756 81.9092 146.835 98.0447 142.609 109.57C139.229 118.79 138.383 128.779 138.383 132.621C144.658 132.237 159.974 131.468 171.039 131.468C184.869 131.468 205.999 133.005 220.982 134.158C235.965 135.31 310.88 105.344 313.953 97.2764C317.027 89.2086 323.942 88.0561 331.625 86.1352C339.309 84.2143 345.84 78.4516 346.608 74.2256C347.377 69.9997 349.682 50.0224 351.987 36.1919C354.292 22.3615 349.298 18.1355 344.688 15.8304C340.077 13.5254 331.241 9.2994 321.253 8.91522C311.264 8.53104 151.061 2 137.999 2C124.937 2 121.48 15.8304 120.711 22.7457Z" fill="#117AB5" stroke="black" stroke-width="3" stroke-linejoin="round"/>
<path d="M119.175 60.011C119.687 62.7002 122.325 68.1556 128.779 68.4629C136.847 68.8471 147.604 72.3047 146.835 85.751" stroke="black" stroke-width="3" stroke-linejoin="round"/>
<path d="M288.982 113.796C289.75 109.058 291.978 98.1215 294.744 92.282C298.202 84.9826 304.733 80.7566 310.496 80.7566C316.258 80.7566 330.857 83.0617 333.162 68.0787C335.467 53.0958 337.772 30.045 338.157 25.4349C338.541 20.8247 338.541 9.68354 316.643 8.53101" stroke="black" stroke-width="3" stroke-linejoin="round"/>
<path d="M276.304 299.739L251.716 307.806L257.479 227.513L276.304 299.739Z" fill="#0A3953" stroke="black" stroke-width="3" stroke-linejoin="round"/>
<path d="M273.614 306.27L257.095 221.75L260.168 162.203L360.823 134.542C360.439 149.397 359.671 181.104 359.671 189.095C359.671 197.086 366.073 235.709 369.275 254.021C369.275 254.021 341.998 265.931 320.1 276.304C298.202 286.677 273.614 306.27 273.614 306.27Z" fill="#0F5983" stroke="black" stroke-width="3" stroke-linejoin="round"/>
<path d="M107.265 139.152C122.325 134.234 145.811 130.956 155.672 129.931L226.745 127.242L227.897 139.152C224.696 150.165 218.062 173.19 217.14 177.185C216.218 181.181 213.427 183.46 212.146 184.101L65.7738 179.106L62.3162 166.813C66.5421 159.513 88.4403 145.299 107.265 139.152Z" fill="#117AB5" stroke="black" stroke-width="3" stroke-linejoin="round"/>
<path d="M289.75 77.9715C281.759 81.967 277.456 95.0035 276.304 101.022L291.671 96.4121L297.049 86.4235C298.97 84.1184 304.502 79.6619 311.264 80.2766C318.026 80.8913 323.814 78.7079 325.863 77.6834C316.642 72.6891 299.739 72.9772 289.75 77.9715Z" fill="#0F5983"/>
<path d="M95.3084 136.364C79.1635 142.06 66.3303 150.341 61.9319 153.77V166.429C69.3058 156.143 93.3679 143.484 105.011 139.133C114.325 135.652 130.5 132.72 137.615 131.665L137.999 122.248C130.496 123.171 111.453 130.667 95.3084 136.364Z" fill="#0F5983"/>
<path d="M61.1636 163.739C61.1636 169.886 63.9809 172.191 65.3895 172.575L197.163 194.858C203.822 192.553 217.14 186.944 217.14 182.948V144.53C217.14 120.327 239.038 109.57 254.021 114.564C269.004 119.559 283.603 134.158 283.603 150.293C283.603 166.429 275.535 171.039 270.157 174.112C264.778 177.186 261.321 179.875 260.552 187.943C259.938 194.397 258.503 272.078 257.863 310.111C250.308 308.831 232.661 305.655 222.519 303.196C209.841 300.123 113.796 287.061 97.6606 283.219C84.7522 280.146 39.0092 279.377 17.7513 279.377C21.0809 244.161 27.74 172.422 27.74 167.197C27.74 160.666 26.9716 156.056 22.3615 153.751C17.7513 151.446 2 146.067 2 131.468C2 97.2763 25.0507 94.5871 40.8021 99.9656C56.5534 105.344 62.3161 123.016 62.3161 131.468C62.3161 139.92 61.1636 156.056 61.1636 163.739Z" stroke="black" stroke-width="3" stroke-linejoin="round" stroke-dasharray="6 12 18 24"/>
<path d="M261.705 105.728C233.276 114.18 229.818 119.175 226.361 122.248L261.705 180.643C288.982 173.344 323.942 161.818 348.145 152.214C361.976 146.726 380.032 132.621 382.721 127.242C385.411 121.864 388.1 99.5815 375.806 90.7454C363.512 81.9093 349.298 83.8301 342.767 84.9827C336.236 86.1352 290.134 97.2764 261.705 105.728Z" fill="#0F5983" stroke="black" stroke-width="3" stroke-linejoin="round"/>
<path d="M61.1636 163.739C61.1636 169.886 63.9809 172.191 65.3895 172.575L197.163 194.858C203.822 192.553 217.14 186.944 217.14 182.948V144.53C217.14 120.327 239.038 109.57 254.021 114.564C269.004 119.559 283.603 134.158 283.603 150.293C283.603 166.429 275.535 171.039 270.157 174.112C264.778 177.186 261.321 179.875 260.552 187.943C259.938 194.397 258.503 272.078 257.863 310.111C250.308 308.831 232.661 305.655 222.519 303.196C209.841 300.123 113.796 287.061 97.6606 283.219C84.7522 280.146 39.0092 279.377 17.7513 279.377C21.0809 244.161 27.74 172.422 27.74 167.197C27.74 160.666 26.9716 156.056 22.3615 153.751C17.7513 151.446 2 146.067 2 131.468C2 97.2763 25.0507 94.5871 40.8021 99.9656C56.5534 105.344 62.3161 123.016 62.3161 131.468C62.3161 139.92 61.1636 156.056 61.1636 163.739Z" fill="#117AB5" stroke="black" stroke-width="3" stroke-linejoin="round"/>
<path d="M61.9319 191.784V167.581C61.9319 166.429 63.0642 165.812 65.3895 166.044C69.2313 166.429 115.333 169.502 130.316 170.655C145.299 171.807 194.089 177.186 200.62 177.954C205.845 178.569 213.811 178.466 217.14 178.338C217.14 179.26 216.628 197.675 216.372 206.767C212.274 207.152 203.31 207.843 200.236 207.536L200.233 207.535C196.316 207.144 73.4555 194.858 68.0787 194.474C62.7002 194.09 61.9319 193.321 61.9319 191.784Z" fill="#117AB5" stroke="black" stroke-width="3" stroke-linejoin="round"/>
<path d="M358.134 85.3669C351.065 86.2889 285.268 104.064 253.253 113.028C268.236 117.638 277.84 128.779 282.451 139.152C286.139 147.45 283.987 159.001 282.451 163.739C306.142 155.928 355.291 139.229 362.36 134.926C369.429 130.623 379.648 120.839 383.874 116.485C384.642 110.339 382.721 101.502 380.032 97.2764C377.343 93.0505 366.97 84.2144 358.134 85.3669Z" fill="#117AB5"/>
<path d="M301.275 85.7511C298.509 87.5951 295.769 92.9224 294.744 95.3555L318.948 89.2087C322.789 87.2878 330.473 85.3669 334.315 84.2143C337.388 83.2923 341.23 79.9884 342.767 78.4517C339.309 79.6042 330.473 77.6833 328.552 78.8358C326.631 79.9884 323.558 81.1409 321.253 81.5251C318.948 81.9093 315.106 82.2935 311.264 81.9093C307.422 81.5251 304.733 83.446 301.275 85.7511Z" fill="#0F5983"/>
<path d="M136.847 74.2256C134.695 72.9963 131.084 70.64 129.547 69.6155C134.542 69.6155 138.383 71.9206 140.304 73.0731C141.841 73.9951 143.762 76.1465 144.915 78.8358C142.994 77.6832 138.998 75.455 136.847 74.2256Z" fill="#0F5983"/>
<path d="M136.078 66.542C133.005 66.542 126.986 66.7981 125.321 66.542C127.242 67.3104 131.084 67.3104 134.157 68.0787C137.231 68.8471 142.994 71.1521 145.299 74.6098C147.604 78.0674 148.756 84.5984 147.988 91.1294C147.219 97.6605 146.451 101.118 145.683 103.807C144.914 106.497 142.994 111.875 142.225 114.18C141.61 116.024 141.457 117.766 141.457 118.406C151.061 97.2763 151.83 86.9035 151.445 81.1408C151.061 75.3781 147.7 71.5363 145.299 69.6154C143.378 68.0787 139.92 66.542 136.078 66.542Z" fill="#0F5983"/>
<path d="M224.44 122.248C204.155 121.633 159.642 124.553 139.92 126.09C139.536 127.627 139.408 129.932 139.536 131.084C141.329 130.7 145.76 129.855 149.141 129.547C153.366 129.163 158.361 128.779 164.892 128.395C171.423 128.011 191.4 127.242 197.931 127.242C203.156 127.242 215.475 126.73 220.982 126.474C221.904 124.937 223.671 123.016 224.44 122.248Z" fill="#0F5983"/>
<path d="M110.338 83.0616C102.347 84.5983 58.0901 93.4344 36.9602 97.6604C36.0382 97.3531 32.222 96.764 30.4292 96.5079C32.3501 96.1237 42.7229 94.2028 45.028 93.8186C47.3331 93.4344 78.0674 87.6718 81.9092 86.9034C85.751 86.135 111.107 81.1407 114.564 80.3724C117.33 79.7577 129.547 76.9147 135.31 75.7622C135.617 76.0696 138.127 77.6831 138.768 78.0673C133.005 79.2198 118.329 81.5249 110.338 83.0616Z" fill="#0F5983"/>
<path d="M114.564 194.858C105.344 193.936 76.4027 191.144 63.0845 189.864V191.784C63.0845 192.937 64.6212 192.937 67.3104 193.321C69.9997 193.705 88.0561 195.242 91.5137 195.626C94.9713 196.01 112.259 197.547 115.717 197.931C119.175 198.315 155.287 201.773 157.977 202.157C160.666 202.541 192.937 205.615 196.01 205.999C199.084 206.383 202.157 206.383 205.231 206.383C207.689 206.383 212.914 205.871 215.219 205.615L215.604 202.926C213.426 203.054 207.92 203.387 203.31 203.694C197.547 204.078 184.101 202.541 174.112 201.389C164.124 200.236 126.09 196.01 114.564 194.858Z" fill="#0F5983"/>
</svg>
