<svg width="163" height="69" viewBox="0 0 163 69" fill="none" xmlns="http://www.w3.org/2000/svg">
<path d="M8.5 8L5 17H159L154 8H8.5Z" fill="#4D4132" stroke="black" stroke-width="2"/>
<path d="M9 8.5V16.5M154 8V16.5" stroke="black" stroke-width="2"/>
<path d="M99.5 6L45 17H103L99.5 6Z" fill="#D9D9D9" stroke="black" stroke-width="2"/>
<path d="M141.039 12.04L92.2684 38.7368L147.649 21.5033L141.039 12.04Z" fill="#D9D9D9" stroke="black" stroke-width="2"/>
<path d="M89.5 1.5L38 17H96L89.5 1.5Z" fill="#D9D9D9" stroke="black" stroke-width="2"/>
<rect x="1" y="16.3877" width="161" height="51.2245" fill="#A38056" stroke="black" stroke-width="2"/>
<path d="M160.782 64.177H1.10889V67.5035L160.782 66.6719V64.177Z" fill="#70573A"/>
<path d="M85.3281 50.8707C83.0576 51.4251 79.8367 50.0391 79.8367 45.8809C79.8367 43.386 81.1039 40.8911 84.4833 40.8911C87.8626 40.8911 88.7074 43.8018 88.7074 46.2967C88.7074 48.7916 87.5986 50.3163 85.3281 50.8707Z" fill="#EEEEEE" stroke="black" stroke-width="2"/>
<rect x="1" y="16.3877" width="161" height="51.2245" stroke="black" stroke-width="2"/>
</svg>
