<svg width="126" height="193" viewBox="0 0 126 193" fill="none" xmlns="http://www.w3.org/2000/svg">
<g clip-path="url(#clip0_154_675)">
<mask id="mask0_154_675" style="mask-type:luminance" maskUnits="userSpaceOnUse" x="0" y="0" width="126" height="193">
<path d="M126 0H0V193H126V0Z" fill="white"/>
</mask>
<g mask="url(#mask0_154_675)">
<path d="M23 17.5C20.2 23.1 18.8333 33.1667 18.5 37.5C31.5 42.5 56.5 44 56.5 44C56.5 44 74.5 44.5 93.5 44C108.7 43.6 120.833 42.8333 125 42.5C124.833 39.8333 123.1 31.8 117.5 21C110.5 7.5 99 2 91 1.5C83 1 67 1 50.5 1C34 1 26.5 10.5 23 17.5Z" fill="#B4FB43" stroke="black" stroke-width="2" stroke-linejoin="round"/>
<path d="M25.5107 54.5C25.5107 50.1 28.1774 43.3333 29.5107 40.5L34.0107 41.5C33.1774 43.6667 31.3107 49.1 30.5107 53.5C29.5107 59 33.0107 66.5 34.0107 68.5C34.8107 70.1 46.0107 90.1667 51.5107 100C52.3441 100.333 54.1107 101.3 54.5107 102.5C54.9107 103.7 54.0107 105.667 53.5107 106.5L54.0107 109C57.0107 109 59.5107 111.5 59.5107 114V137.719C59.5107 139.494 57.1774 141.646 56.0107 142.5C58.4107 144.1 59.3441 146.167 59.5107 147C60.6774 148.333 61.5107 149.5 64.5107 151.5C69.5376 154.851 72.5107 154.769 76.5107 156C81.7107 157.6 83.6774 161.333 84.0107 163C88.5107 166.5 94.0107 174 92.5107 180C91.0107 186 73.5107 190.5 48.5107 191C23.5107 191.5 6.51074 184.5 7.01074 176C7.41074 169.2 12.8441 164.167 15.5107 162.5C17.0107 157.5 22.5107 155.5 28.0107 154C32.4107 152.8 37.8441 149.5 40.0107 148C39.8441 147.333 39.7107 145.8 40.5107 145L43.5107 142C42.6774 141.333 41.0107 139.544 41.0107 137.719V115.5C41.0107 113 41.5107 112 42.5107 110.5C43.3107 109.3 45.5107 109 46.5107 109L47.5107 106.5C47.1774 106.167 46.4107 105.2 46.0107 104C45.6107 102.8 46.1774 101.833 46.5107 101.5C41.3441 91.8333 30.6107 71.9 29.0107 69.5C27.0107 66.5 25.5107 60 25.5107 54.5Z" fill="#B49744"/>
<path d="M47.5 106L46.5 109" stroke="black" stroke-width="2" stroke-linejoin="round"/>
<path d="M53.5 106L54 109M54 109C52.5 109 50.5 109 46.5 109C42.5 109 41 112.5 41 115C41 117.5 41 132 41 137.5C41 141.9 47 143.167 50 143.5C55 143.5 59.5 141 59.5 138.5C59.5 136 59.5 124 59.5 116.5C59.5 110.5 55.8333 109 54 109Z" stroke="black" stroke-width="2" stroke-linejoin="round"/>
<path d="M41 113.5C42 114 45.3 115 50.5 115C55.7 115 58.3333 114 59 113.5M41 137C41.8333 137.667 44.8 139 50 139C55.2 139 58.5 137.667 59.5 137" stroke="black" stroke-width="2" stroke-linejoin="round"/>
<path d="M115.5 43.0001C111.1 24.2001 94.6666 7.5001 86.9999 1.50006C88.3332 1.16673 83.9 0.700076 91.5 1.50007C101 2.50007 112 10.0001 118.5 22.5001C123.7 32.5001 124.667 39.6667 124.5 42.0001H124L115.5 43.0001Z" fill="#056507" fill-opacity="0.5"/>
<path d="M46.5 42.5C46.5 18.5 35.6667 9.6667 31 7.5C25.5 11.5 24.5 14.5 22 19.5C20 23.5 18.8333 33.1667 18.5 37.5C19.3333 37.6667 22.3 38.4 27.5 40C32.7 41.6 42.3333 42.3333 46.5 42.5Z" fill="#3E8F09"/>
<path d="M23 17.5C20.2 23.1 18.8333 33.1667 18.5 37.5C31.5 42.5 56.5 44 56.5 44C56.5 44 74.5 44.5 93.5 44C108.7 43.6 120.833 42.8333 125 42.5C124.833 39.8333 123.1 31.8 117.5 21C110.5 7.5 99 2 91 1.5C83 1 67 1 50.5 1C34 1 26.5 10.5 23 17.5Z" stroke="black" stroke-width="2" stroke-linejoin="round"/>
<path d="M29.5 22C28.7 22 28.1667 22.6667 28 23L27.5 30C28.5 30.6667 30.8 31.6 32 30C33.5 28 34 26 33 24C32 22 30.5 22 29.5 22Z" fill="#BBA35F" stroke="black" stroke-width="2" stroke-linejoin="round"/>
<path d="M3.5 24.5H23C22.6667 25.1667 22.2 26.9 23 28.5C17.5 28.6667 6.1 29 4.5 29C2.5 29 1 28.5 1 27C1 25.5 1.5 24.5 3.5 24.5Z" fill="#BBA35F" stroke="black" stroke-width="2" stroke-linejoin="round"/>
<path d="M22.5 27C22.5 24.5 23.5 24 24.5 23.5C25.6785 22.9949 26.7437 22.8867 27.6382 23.0417C29.4002 23.3469 30.5 24.6735 30.5 26C30.5 28 29.5 29.5 27.5 30C25.5 30.5 22.5 29.5 22.5 27Z" fill="#BBA35F" stroke="black" stroke-width="2" stroke-linejoin="round"/>
<path d="M20 166.5C23.2 163.7 37.3333 154 44 149.5H46L27.5 170C23.9 169.2 21 167.333 20 166.5Z" fill="#D0C298"/>
<path d="M44.0002 142C43.3336 142.5 41.7002 143.8 40.5002 145C39.0002 146.5 39.5002 147.5 42.5002 148.5C45.5002 149.5 49 149.5 52 149.5C55 149.5 59 148 59 146.5C59 145 57.5 143.5 55.5 142.5" stroke="black" stroke-width="2" stroke-linejoin="round"/>
<path d="M11.5002 182.5C11.1002 175.7 16.3335 169.667 19.0002 167.5L28 170.5C25.2 173.7 23.5 183.833 23 188.5C17.4 187.7 13.0001 184.167 11.5002 182.5Z" fill="#D4C8A6"/>
<path d="M37.5 172C39.1 168.4 44.5 155.833 47 150H49.5C47.9 159.6 46.8333 169 46.5 172.5C43.7 172.9 39.3333 172.333 37.5 172Z" fill="#D0C298"/>
<path d="M33.9998 190.5C33.5998 182.5 36.1665 174.833 37.4998 172C39.8997 172.4 45.4999 172.5 48 172.5C48.4 175.3 49.1667 186 49.5 191C44.3 191.8 36.9999 191 33.9998 190.5Z" fill="#D0C298"/>
<path d="M15.5002 162.5C13.5002 163.833 9.10015 167.7 7.50015 172.5C5.50015 178.5 9.00015 185.5 27.5002 189.5C46.0002 193.5 71.5 190 81 187C90.5 184 94.5 182 92 174C90 167.6 85.8333 164 84 163" stroke="black" stroke-width="2" stroke-linejoin="round"/>
<path d="M40.5 147.5C37.5 149.5 29.9 153.9 23.5 155.5C17.1 157.1 15.5 161.167 15.5 163C17 166.167 25.6 172.5 48 172.5C76 172.5 84 165.5 84 163C84 160.5 80.5 157 74.5 155.5C68.5 154 63.5 152.5 59 146.5" stroke="black" stroke-width="2" stroke-linejoin="round"/>
<path d="M27.5 52C28.3 48 29.8333 43 30.5 41L29 40.8125C27.5 43.625 23.9998 53.5 25.9998 62C27.9998 70.5 37.9998 85.5 38.9998 87.5C39.7998 89.1 44.3332 97.5 46.4998 101.5L47.9998 100.5C46.4998 97.833 42.8998 91.2 40.4998 86C37.4998 79.5 30.5 70.5 29 65.5C27.5 60.5 26.5 57 27.5 52Z" fill="#756127"/>
<path d="M29.5 40.5C27.8333 43.5 24.7 51.2 25.5 58C26.5 66.5 29.5 71.5 34.5 79.5C38.5 85.9 44.1667 96.833 46.5 101.5M34 41.5C32.3333 45.1667 29.3 53.8 30.5 59C31.7 64.2 45 88.5 51.5 100" stroke="black" stroke-width="2" stroke-linejoin="round"/>
<path d="M54.4999 102.5C52.9999 99 49.5 100 48.5 100.5C46.0001 101.5 45.4999 103 46.4999 105C47.4999 107 49.4999 106.5 51.9999 106.5C54.4999 106.5 54.9999 104 54.4999 102.5Z" stroke="black" stroke-width="2" stroke-linejoin="round"/>
<g style="mix-blend-mode:screen" opacity="0.9" filter="url(#filter0_f_154_675)">
<path d="M71.5 41C83.3741 41 93 32.7173 93 22.5C93 12.2827 83.3741 4 71.5 4C59.6259 4 50 12.2827 50 22.5C50 32.7173 59.6259 41 71.5 41Z" fill="white"/>
</g>
</g>
</g>
<defs>
<filter id="filter0_f_154_675" x="40" y="-6" width="63" height="57" filterUnits="userSpaceOnUse" color-interpolation-filters="sRGB">
<feFlood flood-opacity="0" result="BackgroundImageFix"/>
<feBlend mode="normal" in="SourceGraphic" in2="BackgroundImageFix" result="shape"/>
<feGaussianBlur stdDeviation="5" result="effect1_foregroundBlur_154_675"/>
</filter>
<clipPath id="clip0_154_675">
<rect width="126" height="193" fill="white"/>
</clipPath>
</defs>
</svg>
