<svg width="64" height="69" viewBox="0 0 64 69" fill="none" xmlns="http://www.w3.org/2000/svg">
<rect width="63.8088" height="69" fill="#1F231F"/>
<circle cx="6.87428" cy="6.22523" r="2.62879" fill="white"/>
<circle cx="6.87428" cy="10.7819" r="2.62879" fill="white"/>
<circle cx="11.4308" cy="6.22523" r="2.62879" fill="white"/>
<circle cx="11.4308" cy="10.7819" r="2.62879" fill="white"/>
<circle cx="30.7479" cy="17.9862" r="2.62879" fill="white"/>
<circle cx="30.7479" cy="22.5426" r="2.62879" fill="white"/>
<circle cx="35.3046" cy="17.9862" r="2.62879" fill="white"/>
<circle cx="35.3046" cy="22.5426" r="2.62879" fill="white"/>
<circle cx="53.2432" cy="17.9862" r="2.62879" fill="white"/>
<circle cx="53.2432" cy="22.5426" r="2.62879" fill="white"/>
<circle cx="57.7997" cy="17.9862" r="2.62879" fill="white"/>
<circle cx="57.7997" cy="22.5426" r="2.62879" fill="white"/>
<circle cx="42.1312" cy="30.9642" r="2.62879" fill="white"/>
<circle cx="42.1311" cy="35.5206" r="2.62879" fill="white"/>
<circle cx="46.6878" cy="30.9642" r="2.62879" fill="white"/>
<circle cx="46.6878" cy="35.5206" r="2.62879" fill="white"/>
<circle cx="6.73853" cy="44.3749" r="2.62879" fill="white"/>
<circle cx="6.73853" cy="48.9315" r="2.62879" fill="white"/>
<circle cx="11.2949" cy="44.3749" r="2.62879" fill="white"/>
<circle cx="11.2949" cy="48.9315" r="2.62879" fill="white"/>
<circle cx="18.4188" cy="57.7855" r="2.62879" fill="white"/>
<circle cx="18.4188" cy="62.3422" r="2.62879" fill="white"/>
<circle cx="22.9753" cy="57.7855" r="2.62879" fill="white"/>
<circle cx="22.9753" cy="62.3422" r="2.62879" fill="white"/>
<circle cx="18.4188" cy="17.9862" r="2.62879" fill="#60956F"/>
<circle cx="18.4188" cy="22.5426" r="2.62879" fill="#60956F"/>
<circle cx="22.9753" cy="17.9862" r="2.62879" fill="#60956F"/>
<circle cx="22.9753" cy="22.5426" r="2.62879" fill="#60956F"/>
<circle cx="18.4188" cy="44.1586" r="2.62879" fill="#60956F"/>
<circle cx="18.4188" cy="48.7152" r="2.62879" fill="#60956F"/>
<circle cx="22.9753" cy="44.1586" r="2.62879" fill="#60956F"/>
<circle cx="22.9753" cy="48.7152" r="2.62879" fill="#60956F"/>
<circle cx="30.5316" cy="57.7855" r="2.62879" fill="#60956F"/>
<circle cx="30.5316" cy="62.3422" r="2.62879" fill="#60956F"/>
<circle cx="35.0883" cy="57.7855" r="2.62879" fill="#60956F"/>
<circle cx="35.0883" cy="62.3422" r="2.62879" fill="#60956F"/>
<circle cx="53.6759" cy="57.7855" r="2.62879" fill="#60956F"/>
<circle cx="53.6759" cy="62.3422" r="2.62879" fill="#60956F"/>
<circle cx="58.2324" cy="57.7855" r="2.62879" fill="#60956F"/>
<circle cx="58.2324" cy="62.3422" r="2.62879" fill="#60956F"/>
<circle cx="9.08459" cy="8.65198" r="3.46081" fill="#78B0A6"/>
<circle cx="32.9585" cy="20.413" r="3.46081" fill="#78B0A6"/>
<circle cx="20.9812" cy="33.391" r="3.46081" fill="white"/>
<circle cx="55.4536" cy="20.413" r="3.46081" fill="#78B0A6"/>
<circle cx="44.3417" cy="33.391" r="3.46081" fill="#78B0A6"/>
<circle cx="8.94897" cy="46.8016" r="3.46081" fill="#78B0A6"/>
<circle cx="20.6293" cy="60.2123" r="3.46081" fill="#78B0A6"/>
<circle cx="9.08459" cy="20.413" r="3.46081" fill="white"/>
<circle cx="9.08459" cy="33.3102" r="3.46081" fill="white"/>
<circle cx="20.7649" cy="8.65198" r="3.46081" fill="white"/>
<circle cx="20.7649" cy="20.413" r="3.46081" fill="#60956F"/>
<circle cx="20.7649" cy="46.5853" r="3.46081" fill="#60956F"/>
<circle cx="32.8777" cy="60.2123" r="3.46081" fill="#60956F"/>
<circle cx="56.022" cy="60.2123" r="3.46081" fill="#60956F"/>
<ellipse cx="32.3369" cy="8.65198" rx="3.35266" ry="3.46081" fill="white"/>
<circle cx="43.9091" cy="8.65198" r="3.46081" fill="white"/>
<circle cx="43.9091" cy="20.413" r="3.46081" fill="white"/>
<circle cx="43.9091" cy="46.7211" r="3.46081" fill="white"/>
<circle cx="43.9091" cy="60.1317" r="3.46081" fill="white"/>
<circle cx="9.08459" cy="60.1317" r="3.46081" fill="white"/>
<circle cx="32.7971" cy="33.391" r="3.46081" fill="white"/>
<circle cx="32.7971" cy="46.7211" r="3.46081" fill="white"/>
<circle cx="56.022" cy="33.391" r="3.46081" fill="white"/>
<circle cx="56.022" cy="46.7211" r="3.46081" fill="white"/>
<circle cx="55.5894" cy="8.65198" r="3.46081" fill="white"/>
</svg>
