<svg width="74" height="49" viewBox="0 0 74 49" fill="none" xmlns="http://www.w3.org/2000/svg">
<g clip-path="url(#clip0_155_783)">
<path d="M2 41.9622C5.4 40.0531 34.47 27.2349 31.75 20.6894C35.3075 22.8908 49.5757 23.1179 64.7446 17.2394C66.3713 16.3401 68.1276 15.5629 70 14.9622C68.2462 15.8062 66.4894 16.5632 64.7446 17.2394C55.2941 22.4636 50.2162 31.8064 52.15 34.5985C43.99 28.7076 13.9 35.9728 2 41.9622Z" fill="white"/>
<path d="M2 41.9622C5.4 40.0531 34.47 27.2349 31.75 20.6894C35.7167 23.144 53 23.144 70 14.9622C57.25 19.0531 49.8833 31.3258 52.15 34.5985C43.99 28.7076 13.9 35.9728 2 41.9622Z" stroke="black" stroke-width="2"/>
<path fill-rule="evenodd" clip-rule="evenodd" d="M45.9888 43.7875C45.7899 46.6736 42.9608 48.9622 39.5 48.9622C35.9101 48.9622 33 46.4997 33 43.4622C33 40.4246 35.9101 37.9622 39.5 37.9622C41.3835 37.9622 43.0799 38.64 44.267 39.7232C44.7386 38.6845 45.785 37.9622 47 37.9622C48.6569 37.9622 50 39.3053 50 40.9622C50 42.619 48.6569 43.9622 47 43.9622C46.6452 43.9622 46.3048 43.9006 45.9888 43.7875Z" fill="black" fill-opacity="0.2"/>
<path fill-rule="evenodd" clip-rule="evenodd" d="M69.4289 26.6579C69.7926 26.0084 70 25.2595 70 24.4622C70 21.9769 67.9853 19.9622 65.5 19.9622C63.4089 19.9622 61.6509 21.3885 61.1459 23.3214C59.9853 22.467 58.5516 21.9622 57 21.9622C53.134 21.9622 50 25.0962 50 28.9622C50 32.8282 53.134 35.9622 57 35.9622C58.2833 35.9622 59.4859 35.6168 60.5201 35.014C61.512 37.3354 63.816 38.9622 66.5 38.9622C70.0899 38.9622 73 36.052 73 32.4622C73 29.926 71.5475 27.729 69.4289 26.6579Z" fill="black" fill-opacity="0.2"/>
<path d="M45.2415 41.0814L44.3087 40.7475L44.2406 41.736C44.0756 44.1298 41.6742 46.2122 38.5 46.2122C35.202 46.2122 32.75 43.973 32.75 41.4622C32.75 38.9514 35.202 36.7122 38.5 36.7122C40.2062 36.7122 41.7196 37.3266 42.7615 38.2772L43.5235 38.9725L43.9499 38.0333C44.3043 37.2526 45.0899 36.7122 46 36.7122C47.2427 36.7122 48.25 37.7195 48.25 38.9622C48.25 40.2048 47.2427 41.2122 46 41.2122C45.7326 41.2122 45.4776 41.1659 45.2415 41.0814Z" fill="white" stroke="black" stroke-width="1.5"/>
<path fill-rule="evenodd" clip-rule="evenodd" d="M34.5098 8.78168C32.5889 4.78307 27.9343 1.96216 22.4973 1.96216C15.3436 1.96216 9.54431 6.84573 9.54431 12.8699C9.54431 12.9971 9.5469 13.1238 9.55203 13.25C4.04806 14.5078 0 18.7448 0 23.7779C0 29.8021 5.79925 34.6857 12.953 34.6857C18.7228 34.6857 23.6115 31.5088 25.287 27.119C27.6518 29.2575 31.0247 30.5951 34.7685 30.5951C41.9223 30.5951 47.7215 25.7115 47.7215 19.6873C47.7215 13.6631 41.9223 8.77954 34.7685 8.77954C34.6821 8.77954 34.5958 8.78026 34.5098 8.78168Z" fill="black" fill-opacity="0.2"/>
<path d="M34.6084 7.25254L34.8858 7.82996L35.5263 7.81938C35.6069 7.81805 35.6877 7.81738 35.7685 7.81738C42.5379 7.81738 47.7215 12.4074 47.7215 17.7252C47.7215 23.0429 42.5379 27.6329 35.7685 27.6329C32.2591 27.6329 29.129 26.3787 26.9577 24.4151L25.8738 23.4349L25.3527 24.8002C23.8504 28.7363 19.3839 31.7235 13.953 31.7235C7.18361 31.7235 2 27.1335 2 21.8157C2 17.3651 5.60185 13.4449 10.7748 12.2627L11.5848 12.0776L11.5512 11.2474C11.5466 11.1346 11.5443 11.0214 11.5443 10.9078C11.5443 5.59001 16.728 1 23.4973 1C28.6099 1 32.8785 3.65158 34.6084 7.25254Z" fill="white" stroke="black" stroke-width="2"/>
<path d="M69.5564 25.1693L69.0466 26.0796L69.9777 26.5503C71.7728 27.4579 73 29.3176 73 31.4622C73 34.4997 70.5376 36.9622 67.5 36.9622C65.2305 36.9622 63.2798 35.5874 62.4397 33.6211L61.9948 32.5799L61.0165 33.1501C60.131 33.6662 59.1016 33.9622 58 33.9622C54.6863 33.9622 52 31.2759 52 27.9622C52 24.6485 54.6863 21.9622 58 21.9622C59.3311 21.9622 60.5584 22.3945 61.5531 23.1267L62.7406 24.001L63.1134 22.5742C63.5063 21.0706 64.875 19.9622 66.5 19.9622C68.433 19.9622 70 21.5292 70 23.4622C70 24.084 69.8387 24.6652 69.5564 25.1693Z" fill="white" stroke="black" stroke-width="2"/>
<mask id="mask0_155_783" style="mask-type:luminance" maskUnits="userSpaceOnUse" x="51" y="18" width="23" height="20">
<path fill-rule="evenodd" clip-rule="evenodd" d="M70.4289 25.6579C70.7926 25.0084 71 24.2595 71 23.4622C71 20.9769 68.9853 18.9622 66.5 18.9622C64.4089 18.9622 62.6509 20.3885 62.1459 22.3214C60.9853 21.467 59.5516 20.9622 58 20.9622C54.134 20.9622 51 24.0962 51 27.9622C51 31.8282 54.134 34.9622 58 34.9622C59.2833 34.9622 60.4859 34.6168 61.5201 34.014C62.512 36.3354 64.816 37.9622 67.5 37.9622C71.0899 37.9622 74 35.052 74 31.4622C74 28.926 72.5475 26.729 70.4289 25.6579Z" fill="black"/>
</mask>
<g mask="url(#mask0_155_783)">
<path d="M70.4289 25.6579L69.5564 25.1692L69.0466 26.0795L69.9777 26.5503L70.4289 25.6579ZM62.1459 22.3214L61.553 23.1267L62.7406 24.001L63.1134 22.5742L62.1459 22.3214ZM61.5201 34.014L62.4396 33.6211L61.9947 32.5799L61.0165 33.1501L61.5201 34.014ZM70 23.4622C70 24.084 69.8387 24.6652 69.5564 25.1692L71.3014 26.1465C71.7466 25.3516 72 24.435 72 23.4622H70ZM66.5 19.9622C68.433 19.9622 70 21.5292 70 23.4622H72C72 20.4246 69.5376 17.9622 66.5 17.9622V19.9622ZM63.1134 22.5742C63.5062 21.0706 64.8749 19.9622 66.5 19.9622V17.9622C63.9428 17.9622 61.7955 19.7065 61.1783 22.0686L63.1134 22.5742ZM58 21.9622C59.3312 21.9622 60.5584 22.3945 61.553 23.1267L62.7387 21.5161C61.4123 20.5395 59.7721 19.9622 58 19.9622V21.9622ZM52 27.9622C52 24.6484 54.6863 21.9622 58 21.9622V19.9622C53.5817 19.9622 50 23.5439 50 27.9622H52ZM58 33.9622C54.6863 33.9622 52 31.2759 52 27.9622H50C50 32.3804 53.5817 35.9622 58 35.9622V33.9622ZM61.0165 33.1501C60.1311 33.6662 59.1016 33.9622 58 33.9622V35.9622C59.465 35.9622 60.8408 35.5675 62.0237 34.878L61.0165 33.1501ZM67.5 36.9622C65.2305 36.9622 63.2798 35.5874 62.4396 33.6211L60.6005 34.407C61.7441 37.0834 64.4015 38.9622 67.5 38.9622V36.9622ZM73 31.4622C73 34.4997 70.5376 36.9622 67.5 36.9622V38.9622C71.6421 38.9622 75 35.6043 75 31.4622H73ZM69.9777 26.5503C71.7728 27.4579 73 29.3176 73 31.4622H75C75 28.5343 73.3221 26.0001 70.8801 24.7654L69.9777 26.5503Z" fill="black"/>
</g>
<path d="M52 34.4622C52.6667 34.7955 55 36.2622 59 39.4622" stroke="black" stroke-width="2"/>
</g>
<defs>
<clipPath id="clip0_155_783">
<rect width="74" height="49" fill="white"/>
</clipPath>
</defs>
</svg>
