<svg width="358" height="149" viewBox="0 0 358 149" fill="none" xmlns="http://www.w3.org/2000/svg">
<path d="M0.333333 3C0.333333 4.47276 1.52724 5.66667 3 5.66667C4.47276 5.66667 5.66667 4.47276 5.66667 3C5.66667 1.52724 4.47276 0.333333 3 0.333333C1.52724 0.333333 0.333333 1.52724 0.333333 3ZM3 148H2.5V148.5H3V148ZM2.5 3V4.00694H3.5V3H2.5ZM2.5 6.02083V8.03472H3.5V6.02083H2.5ZM2.5 10.0486V12.0625H3.5V10.0486H2.5ZM2.5 14.0764V16.0903H3.5V14.0764H2.5ZM2.5 18.1042V20.1181H3.5V18.1042H2.5ZM2.5 22.1319V24.1458H3.5V22.1319H2.5ZM2.5 26.1597V28.1736H3.5V26.1597H2.5ZM2.5 30.1875V32.2014H3.5V30.1875H2.5ZM2.5 34.2153V36.2292H3.5V34.2153H2.5ZM2.5 38.2431V40.257H3.5V38.2431H2.5ZM2.5 42.2708V44.2847H3.5V42.2708H2.5ZM2.5 46.2986V48.3125H3.5V46.2986H2.5ZM2.5 50.3264V52.3403H3.5V50.3264H2.5ZM2.5 54.3542V56.3681H3.5V54.3542H2.5ZM2.5 58.382V60.3958H3.5V58.382H2.5ZM2.5 62.4097V64.4236H3.5V62.4097H2.5ZM2.5 66.4375V68.4514H3.5V66.4375H2.5ZM2.5 70.4653V72.4792H3.5V70.4653H2.5ZM2.5 74.4931V76.5069H3.5V74.4931H2.5ZM2.5 78.5208V80.5347H3.5V78.5208H2.5ZM2.5 82.5486V84.5625H3.5V82.5486H2.5ZM2.5 86.5764V88.5903H3.5V86.5764H2.5ZM2.5 90.6041V92.618H3.5V90.6041H2.5ZM2.5 94.6319V96.6458H3.5V94.6319H2.5ZM2.5 98.6597V100.674H3.5V98.6597H2.5ZM2.5 102.687V104.701H3.5V102.687H2.5ZM2.5 106.715V108.729H3.5V106.715H2.5ZM2.5 110.743V112.757H3.5V110.743H2.5ZM2.5 114.771V116.785H3.5V114.771H2.5ZM2.5 118.799V120.812H3.5V118.799H2.5ZM2.5 122.826V124.84H3.5V122.826H2.5ZM2.5 126.854V128.868H3.5V126.854H2.5ZM2.5 130.882V132.896H3.5V130.882H2.5ZM2.5 134.91V136.924H3.5V134.91H2.5ZM2.5 138.937V140.951H3.5V138.937H2.5ZM2.5 142.965V144.979H3.5V142.965H2.5ZM2.5 146.993V148H3.5V146.993H2.5ZM3 148.5H4.00852V147.5H3V148.5ZM6.02557 148.5H8.04261V147.5H6.02557V148.5ZM10.0597 148.5H12.0767V147.5H10.0597V148.5ZM14.0938 148.5H16.1108V147.5H14.0938V148.5ZM18.1278 148.5H20.1449V147.5H18.1278V148.5ZM22.1619 148.5H24.179V147.5H22.1619V148.5ZM26.196 148.5H28.2131V147.5H26.196V148.5ZM30.2301 148.5H32.2472V147.5H30.2301V148.5ZM34.2642 148.5H36.2812V147.5H34.2642V148.5ZM38.2983 148.5H40.3153V147.5H38.2983V148.5ZM42.3324 148.5H44.3494V147.5H42.3324V148.5ZM46.3665 148.5H48.3835V147.5H46.3665V148.5ZM50.4006 148.5H52.4176V147.5H50.4006V148.5ZM54.4347 148.5H56.4517V147.5H54.4347V148.5ZM58.4687 148.5H60.4858V147.5H58.4687V148.5ZM62.5028 148.5H64.5199V147.5H62.5028V148.5ZM66.5369 148.5H68.554V147.5H66.5369V148.5ZM70.571 148.5H72.588V147.5H70.571V148.5ZM74.6051 148.5H76.6221V147.5H74.6051V148.5ZM78.6392 148.5H80.6562V147.5H78.6392V148.5ZM82.6733 148.5H84.6903V147.5H82.6733V148.5ZM86.7074 148.5H88.7244V147.5H86.7074V148.5ZM90.7414 148.5H92.7585V147.5H90.7414V148.5ZM94.7755 148.5H96.7926V147.5H94.7755V148.5ZM98.8096 148.5H100.827V147.5H98.8096V148.5ZM102.844 148.5H104.861V147.5H102.844V148.5ZM106.878 148.5H108.895V147.5H106.878V148.5ZM110.912 148.5H112.929V147.5H110.912V148.5ZM114.946 148.5H116.963V147.5H114.946V148.5ZM118.98 148.5H120.997V147.5H118.98V148.5ZM123.014 148.5H125.031V147.5H123.014V148.5ZM127.048 148.5H129.065V147.5H127.048V148.5ZM131.082 148.5H133.099V147.5H131.082V148.5ZM135.116 148.5H137.133V147.5H135.116V148.5ZM139.151 148.5H141.168V147.5H139.151V148.5ZM143.185 148.5H145.202V147.5H143.185V148.5ZM147.219 148.5H149.236V147.5H147.219V148.5ZM151.253 148.5H153.27V147.5H151.253V148.5ZM155.287 148.5H157.304V147.5H155.287V148.5ZM159.321 148.5H161.338V147.5H159.321V148.5ZM163.355 148.5H165.372V147.5H163.355V148.5ZM167.389 148.5H169.406V147.5H167.389V148.5ZM171.423 148.5H173.44V147.5H171.423V148.5ZM175.457 148.5H177.474V147.5H175.457V148.5ZM179.491 148.5H180.5V147.5H179.491V148.5ZM180.5 148.5H181.509V147.5H180.5V148.5ZM183.526 148.5H185.543V147.5H183.526V148.5ZM187.56 148.5H189.577V147.5H187.56V148.5ZM191.594 148.5H193.611V147.5H191.594V148.5ZM195.628 148.5H197.645V147.5H195.628V148.5ZM199.662 148.5H201.679V147.5H199.662V148.5ZM203.696 148.5H205.713V147.5H203.696V148.5ZM207.73 148.5H209.747V147.5H207.73V148.5ZM211.764 148.5H213.781V147.5H211.764V148.5ZM215.798 148.5H217.815V147.5H215.798V148.5ZM219.832 148.5H221.849V147.5H219.832V148.5ZM223.866 148.5H225.884V147.5H223.866V148.5ZM227.901 148.5H229.918V147.5H227.901V148.5ZM231.935 148.5H233.952V147.5H231.935V148.5ZM235.969 148.5H237.986V147.5H235.969V148.5ZM240.003 148.5H242.02V147.5H240.003V148.5ZM244.037 148.5H246.054V147.5H244.037V148.5ZM248.071 148.5H250.088V147.5H248.071V148.5ZM252.105 148.5H254.122V147.5H252.105V148.5ZM256.139 148.5H258.156V147.5H256.139V148.5ZM260.173 148.5H262.19V147.5H260.173V148.5ZM264.207 148.5H266.224V147.5H264.207V148.5ZM268.241 148.5H270.258V147.5H268.241V148.5ZM272.276 148.5H274.293V147.5H272.276V148.5ZM276.31 148.5H278.327V147.5H276.31V148.5ZM280.344 148.5H282.361V147.5H280.344V148.5ZM284.378 148.5H286.395V147.5H284.378V148.5ZM288.412 148.5H290.429V147.5H288.412V148.5ZM292.446 148.5H294.463V147.5H292.446V148.5ZM296.48 148.5H298.497V147.5H296.48V148.5ZM300.514 148.5H302.531V147.5H300.514V148.5ZM304.548 148.5H306.565V147.5H304.548V148.5ZM308.582 148.5H310.599V147.5H308.582V148.5ZM312.616 148.5H314.633V147.5H312.616V148.5ZM316.651 148.5H318.668V147.5H316.651V148.5ZM320.685 148.5H322.702V147.5H320.685V148.5ZM324.719 148.5H326.736V147.5H324.719V148.5ZM328.753 148.5H330.77V147.5H328.753V148.5ZM332.787 148.5H334.804V147.5H332.787V148.5ZM336.821 148.5H338.838V147.5H336.821V148.5ZM340.855 148.5H342.872V147.5H340.855V148.5ZM344.889 148.5H346.906V147.5H344.889V148.5ZM348.923 148.5H350.94V147.5H348.923V148.5ZM352.957 148.5H354.974V147.5H352.957V148.5ZM356.991 148.5H358V147.5H356.991V148.5Z" fill="#677593"/>
</svg>
