<svg width="958" height="53" viewBox="0 0 958 53" fill="none" xmlns="http://www.w3.org/2000/svg">
<path d="M0.333333 50C0.333333 51.4728 1.52724 52.6667 3 52.6667C4.47276 52.6667 5.66667 51.4728 5.66667 50C5.66667 48.5272 4.47276 47.3333 3 47.3333C1.52724 47.3333 0.333333 48.5272 0.333333 50ZM3 1V0.5H2.5V1H3ZM957 1H957.5V0.5H957V1ZM3.5 50V48.9792H2.5V50H3.5ZM3.5 46.9375V44.8958H2.5V46.9375H3.5ZM3.5 42.8542V40.8125H2.5V42.8542H3.5ZM3.5 38.7708V36.7292H2.5V38.7708H3.5ZM3.5 34.6875V32.6458H2.5V34.6875H3.5ZM3.5 30.6042V28.5625H2.5V30.6042H3.5ZM3.5 26.5208V24.4792H2.5V26.5208H3.5ZM3.5 22.4375V20.3958H2.5V22.4375H3.5ZM3.5 18.3542V16.3125H2.5V18.3542H3.5ZM3.5 14.2708V12.2292H2.5V14.2708H3.5ZM3.5 10.1875V8.14583H2.5V10.1875H3.5ZM3.5 6.10416V4.0625H2.5V6.10416H3.5ZM3.5 2.02083V1H2.5V2.02083H3.5ZM3 1.5H4.0021V0.5H3V1.5ZM6.0063 1.5H8.0105V0.5H6.0063V1.5ZM10.0147 1.5H12.0189V0.5H10.0147V1.5ZM14.0231 1.5H16.0273V0.5H14.0231V1.5ZM18.0315 1.5H20.0357V0.5H18.0315V1.5ZM22.0399 1.5H24.0441V0.5H22.0399V1.5ZM26.0483 1.5H28.0525V0.5H26.0483V1.5ZM30.0567 1.5H32.0609V0.5H30.0567V1.5ZM34.0651 1.5H36.0693V0.5H34.0651V1.5ZM38.0735 1.5H40.0777V0.5H38.0735V1.5ZM42.0819 1.5H44.0861V0.5H42.0819V1.5ZM46.0903 1.5H48.0945V0.5H46.0903V1.5ZM50.0987 1.5H52.1029V0.5H50.0987V1.5ZM54.1071 1.5H56.1113V0.5H54.1071V1.5ZM58.1155 1.5H60.1197V0.5H58.1155V1.5ZM62.1239 1.5H64.1281V0.5H62.1239V1.5ZM66.1323 1.5H68.1365V0.5H66.1323V1.5ZM70.1407 1.5H72.1449V0.5H70.1407V1.5ZM74.1491 1.5H76.1533V0.5H74.1491V1.5ZM78.1575 1.5H80.1618V0.5H78.1575V1.5ZM82.166 1.5H84.1702V0.5H82.166V1.5ZM86.1744 1.5H88.1786V0.5H86.1744V1.5ZM90.1828 1.5H92.187V0.5H90.1828V1.5ZM94.1912 1.5H96.1954V0.5H94.1912V1.5ZM98.1996 1.5H100.204V0.5H98.1996V1.5ZM102.208 1.5H104.212V0.5H102.208V1.5ZM106.216 1.5H108.221V0.5H106.216V1.5ZM110.225 1.5H112.229V0.5H110.225V1.5ZM114.233 1.5H116.237V0.5H114.233V1.5ZM118.242 1.5H120.246V0.5H118.242V1.5ZM122.25 1.5H124.254V0.5H122.25V1.5ZM126.258 1.5H128.263V0.5H126.258V1.5ZM130.267 1.5H132.271V0.5H130.267V1.5ZM134.275 1.5H136.279V0.5H134.275V1.5ZM138.284 1.5H140.288V0.5H138.284V1.5ZM142.292 1.5H144.296V0.5H142.292V1.5ZM146.3 1.5H148.305V0.5H146.3V1.5ZM150.309 1.5H152.313V0.5H150.309V1.5ZM154.317 1.5H156.321V0.5H154.317V1.5ZM158.326 1.5H160.33V0.5H158.326V1.5ZM162.334 1.5H164.338V0.5H162.334V1.5ZM166.342 1.5H168.347V0.5H166.342V1.5ZM170.351 1.5H172.355V0.5H170.351V1.5ZM174.359 1.5H176.363V0.5H174.359V1.5ZM178.368 1.5H180.372V0.5H178.368V1.5ZM182.376 1.5H184.38V0.5H182.376V1.5ZM186.384 1.5H188.389V0.5H186.384V1.5ZM190.393 1.5H192.397V0.5H190.393V1.5ZM194.401 1.5H196.405V0.5H194.401V1.5ZM198.41 1.5H200.414V0.5H198.41V1.5ZM202.418 1.5H204.422V0.5H202.418V1.5ZM206.426 1.5H208.43V0.5H206.426V1.5ZM210.435 1.5H212.439V0.5H210.435V1.5ZM214.443 1.5H216.447V0.5H214.443V1.5ZM218.451 1.5H220.456V0.5H218.451V1.5ZM222.46 1.5H224.464V0.5H222.46V1.5ZM226.468 1.5H228.472V0.5H226.468V1.5ZM230.477 1.5H232.481V0.5H230.477V1.5ZM234.485 1.5H236.489V0.5H234.485V1.5ZM238.493 1.5H240.498V0.5H238.493V1.5ZM242.502 1.5H244.506V0.5H242.502V1.5ZM246.51 1.5H248.514V0.5H246.51V1.5ZM250.519 1.5H252.523V0.5H250.519V1.5ZM254.527 1.5H256.531V0.5H254.527V1.5ZM258.535 1.5H260.54V0.5H258.535V1.5ZM262.544 1.5H264.548V0.5H262.544V1.5ZM266.552 1.5H268.556V0.5H266.552V1.5ZM270.561 1.5H272.565V0.5H270.561V1.5ZM274.569 1.5H276.573V0.5H274.569V1.5ZM278.578 1.5H280.582V0.5H278.578V1.5ZM282.586 1.5H284.59V0.5H282.586V1.5ZM286.594 1.5H288.599V0.5H286.594V1.5ZM290.603 1.5H292.607V0.5H290.603V1.5ZM294.611 1.5H296.615V0.5H294.611V1.5ZM298.62 1.5H300.624V0.5H298.62V1.5ZM302.628 1.5H304.632V0.5H302.628V1.5ZM306.636 1.5H308.641V0.5H306.636V1.5ZM310.645 1.5H312.649V0.5H310.645V1.5ZM314.653 1.5H316.658V0.5H314.653V1.5ZM318.662 1.5H320.666V0.5H318.662V1.5ZM322.67 1.5H324.674V0.5H322.67V1.5ZM326.679 1.5H328.683V0.5H326.679V1.5ZM330.687 1.5H332.691V0.5H330.687V1.5ZM334.695 1.5H336.7V0.5H334.695V1.5ZM338.704 1.5H340.708V0.5H338.704V1.5ZM342.712 1.5H344.716V0.5H342.712V1.5ZM346.721 1.5H348.725V0.5H346.721V1.5ZM350.729 1.5H352.733V0.5H350.729V1.5ZM354.738 1.5H356.742V0.5H354.738V1.5ZM358.746 1.5H360.75V0.5H358.746V1.5ZM362.754 1.5H364.759V0.5H362.754V1.5ZM366.763 1.5H368.767V0.5H366.763V1.5ZM370.771 1.5H372.775V0.5H370.771V1.5ZM374.78 1.5H376.784V0.5H374.78V1.5ZM378.788 1.5H380.792V0.5H378.788V1.5ZM382.797 1.5H384.801V0.5H382.797V1.5ZM386.805 1.5H388.809V0.5H386.805V1.5ZM390.813 1.5H392.818V0.5H390.813V1.5ZM394.822 1.5H396.826V0.5H394.822V1.5ZM398.83 1.5H400.834V0.5H398.83V1.5ZM402.839 1.5H404.843V0.5H402.839V1.5ZM406.847 1.5H408.851V0.5H406.847V1.5ZM410.855 1.5H412.86V0.5H410.855V1.5ZM414.864 1.5H416.868V0.5H414.864V1.5ZM418.872 1.5H420.877V0.5H418.872V1.5ZM422.881 1.5H424.885V0.5H422.881V1.5ZM426.889 1.5H428.893V0.5H426.889V1.5ZM430.898 1.5H432.902V0.5H430.898V1.5ZM434.906 1.5H436.91V0.5H434.906V1.5ZM438.914 1.5H440.919V0.5H438.914V1.5ZM442.923 1.5H444.927V0.5H442.923V1.5ZM446.931 1.5H448.936V0.5H446.931V1.5ZM450.94 1.5H452.944V0.5H450.94V1.5ZM454.948 1.5H456.952V0.5H454.948V1.5ZM458.957 1.5H460.961V0.5H458.957V1.5ZM462.965 1.5H464.969V0.5H462.965V1.5ZM466.973 1.5H468.978V0.5H466.973V1.5ZM470.982 1.5H472.986V0.5H470.982V1.5ZM474.99 1.5H476.994V0.5H474.99V1.5ZM478.999 1.5H481.003V0.5H478.999V1.5ZM483.007 1.5H485.011V0.5H483.007V1.5ZM487.016 1.5H489.02V0.5H487.016V1.5ZM491.024 1.5H493.028V0.5H491.024V1.5ZM495.032 1.5H497.037V0.5H495.032V1.5ZM499.041 1.5H501.045V0.5H499.041V1.5ZM503.049 1.5H505.053V0.5H503.049V1.5ZM507.058 1.5H509.062V0.5H507.058V1.5ZM511.066 1.5H513.07V0.5H511.066V1.5ZM515.074 1.5H517.079V0.5H515.074V1.5ZM519.083 1.5H521.087V0.5H519.083V1.5ZM523.091 1.5H525.096V0.5H523.091V1.5ZM527.1 1.5H529.104V0.5H527.1V1.5ZM531.108 1.5H533.112V0.5H531.108V1.5ZM535.117 1.5H537.121V0.5H535.117V1.5ZM539.125 1.5H541.129V0.5H539.125V1.5ZM543.133 1.5H545.138V0.5H543.133V1.5ZM547.142 1.5H549.146V0.5H547.142V1.5ZM551.15 1.5H553.154V0.5H551.15V1.5ZM555.159 1.5H557.163V0.5H555.159V1.5ZM559.167 1.5H561.171V0.5H559.167V1.5ZM563.176 1.5H565.18V0.5H563.176V1.5ZM567.184 1.5H569.188V0.5H567.184V1.5ZM571.192 1.5H573.197V0.5H571.192V1.5ZM575.201 1.5H577.205V0.5H575.201V1.5ZM579.209 1.5H581.213V0.5H579.209V1.5ZM583.218 1.5H585.222V0.5H583.218V1.5ZM587.226 1.5H589.23V0.5H587.226V1.5ZM591.235 1.5H593.239V0.5H591.235V1.5ZM595.243 1.5H597.247V0.5H595.243V1.5ZM599.251 1.5H601.256V0.5H599.251V1.5ZM603.26 1.5H605.264V0.5H603.26V1.5ZM607.268 1.5H609.272V0.5H607.268V1.5ZM611.277 1.5H613.281V0.5H611.277V1.5ZM615.285 1.5H617.289V0.5H615.285V1.5ZM619.294 1.5H621.298V0.5H619.294V1.5ZM623.302 1.5H625.306V0.5H623.302V1.5ZM627.31 1.5H629.315V0.5H627.31V1.5ZM631.319 1.5H633.323V0.5H631.319V1.5ZM635.327 1.5H637.331V0.5H635.327V1.5ZM639.336 1.5H641.34V0.5H639.336V1.5ZM643.344 1.5H645.348V0.5H643.344V1.5ZM647.352 1.5H649.357V0.5H647.352V1.5ZM651.361 1.5H653.365V0.5H651.361V1.5ZM655.369 1.5H657.374V0.5H655.369V1.5ZM659.378 1.5H661.382V0.5H659.378V1.5ZM663.386 1.5H665.39V0.5H663.386V1.5ZM667.395 1.5H669.399V0.5H667.395V1.5ZM671.403 1.5H673.407V0.5H671.403V1.5ZM675.411 1.5H677.416V0.5H675.411V1.5ZM679.42 1.5H681.424V0.5H679.42V1.5ZM683.428 1.5H685.432V0.5H683.428V1.5ZM687.437 1.5H689.441V0.5H687.437V1.5ZM691.445 1.5H693.449V0.5H691.445V1.5ZM695.454 1.5H697.458V0.5H695.454V1.5ZM699.462 1.5H701.466V0.5H699.462V1.5ZM703.47 1.5H705.475V0.5H703.47V1.5ZM707.479 1.5H709.483V0.5H707.479V1.5ZM711.487 1.5H713.491V0.5H711.487V1.5ZM715.496 1.5H717.5V0.5H715.496V1.5ZM719.504 1.5H721.508V0.5H719.504V1.5ZM723.513 1.5H725.517V0.5H723.513V1.5ZM727.521 1.5H729.525V0.5H727.521V1.5ZM731.529 1.5H733.534V0.5H731.529V1.5ZM735.538 1.5H737.542V0.5H735.538V1.5ZM739.546 1.5H741.55V0.5H739.546V1.5ZM743.555 1.5H745.559V0.5H743.555V1.5ZM747.563 1.5H749.567V0.5H747.563V1.5ZM751.571 1.5H753.576V0.5H751.571V1.5ZM755.58 1.5H757.584V0.5H755.58V1.5ZM759.588 1.5H761.592V0.5H759.588V1.5ZM763.597 1.5H765.601V0.5H763.597V1.5ZM767.605 1.5H769.609V0.5H767.605V1.5ZM771.614 1.5H773.618V0.5H771.614V1.5ZM775.622 1.5H777.626V0.5H775.622V1.5ZM779.63 1.5H781.635V0.5H779.63V1.5ZM783.639 1.5H785.643V0.5H783.639V1.5ZM787.647 1.5H789.651V0.5H787.647V1.5ZM791.656 1.5H793.66V0.5H791.656V1.5ZM795.664 1.5H797.668V0.5H795.664V1.5ZM799.672 1.5H801.677V0.5H799.672V1.5ZM803.681 1.5H805.685V0.5H803.681V1.5ZM807.689 1.5H809.694V0.5H807.689V1.5ZM811.698 1.5H813.702V0.5H811.698V1.5ZM815.706 1.5H817.71V0.5H815.706V1.5ZM819.715 1.5H821.719V0.5H819.715V1.5ZM823.723 1.5H825.727V0.5H823.723V1.5ZM827.731 1.5H829.736V0.5H827.731V1.5ZM831.74 1.5H833.744V0.5H831.74V1.5ZM835.748 1.5H837.753V0.5H835.748V1.5ZM839.757 1.5H841.761V0.5H839.757V1.5ZM843.765 1.5H845.769V0.5H843.765V1.5ZM847.774 1.5H849.778V0.5H847.774V1.5ZM851.782 1.5H853.786V0.5H851.782V1.5ZM855.79 1.5H857.795V0.5H855.79V1.5ZM859.799 1.5H861.803V0.5H859.799V1.5ZM863.807 1.5H865.811V0.5H863.807V1.5ZM867.816 1.5H869.82V0.5H867.816V1.5ZM871.824 1.5H873.828V0.5H871.824V1.5ZM875.833 1.5H877.837V0.5H875.833V1.5ZM879.841 1.5H881.845V0.5H879.841V1.5ZM883.849 1.5H885.854V0.5H883.849V1.5ZM887.858 1.5H889.862V0.5H887.858V1.5ZM891.866 1.5H893.87V0.5H891.866V1.5ZM895.875 1.5H897.879V0.5H895.875V1.5ZM899.883 1.5H901.887V0.5H899.883V1.5ZM903.891 1.5H905.896V0.5H903.891V1.5ZM907.9 1.5H909.904V0.5H907.9V1.5ZM911.908 1.5H913.913V0.5H911.908V1.5ZM915.917 1.5H917.921V0.5H915.917V1.5ZM919.925 1.5H921.929V0.5H919.925V1.5ZM923.934 1.5H925.938V0.5H923.934V1.5ZM927.942 1.5H929.946V0.5H927.942V1.5ZM931.95 1.5H933.955V0.5H931.95V1.5ZM935.959 1.5H937.963V0.5H935.959V1.5ZM939.967 1.5H941.971V0.5H939.967V1.5ZM943.976 1.5H945.98V0.5H943.976V1.5ZM947.984 1.5H949.988V0.5H947.984V1.5ZM951.993 1.5H953.997V0.5H951.993V1.5ZM956.001 1.5H957V0.5H956.001V1.5ZM956.5 1V2H957.5V1H956.5ZM956.5 4V6H957.5V4H956.5ZM956.5 8V10H957.5V8H956.5ZM956.5 12V14H957.5V12H956.5ZM956.5 16V18H957.5V16H956.5ZM956.5 20V22H957.5V20H956.5ZM956.5 24V25H957.5V24H956.5Z" fill="#677593"/>
</svg>
