<svg width="148" height="124" viewBox="0 0 148 124" fill="none" xmlns="http://www.w3.org/2000/svg">
<path d="M58.4758 114.798C57.5736 114.479 56.6713 114.16 55.769 113.841C55.2428 113.466 54.7094 113.108 54.0276 113.097C53.2341 112.458 52.3204 112.079 51.3377 111.849C47.1452 109.529 42.8117 107.413 39.5489 103.744C38.5846 102.66 37.5672 101.618 37.2435 100.106C36.7114 97.6222 37.3253 96.4402 39.7014 95.5199C42.5354 94.4221 45.2967 95.0204 48.0139 95.9393C50.8355 96.8936 53.6386 97.9078 56.4186 98.9768C57.4828 99.3858 57.9722 99.1193 58.3795 98.0898C59.3379 95.6672 60.3993 93.2852 61.5175 90.655C59.452 90.456 57.5393 90.3319 55.6442 90.0782C48.8472 89.1683 43.4831 85.8954 39.7094 80.1497C39.1146 79.2443 38.7665 78.923 37.7714 79.6564C36.668 80.4693 35.4299 81.1209 34.1942 81.7282C27.2425 85.1439 20.5983 81.9456 18.8347 74.3634C18.1737 71.5221 18.4163 68.3889 19.7436 63.0321C17.1269 63.5857 14.5528 63.9125 11.9468 63.7389C8.81851 63.5306 5.94253 62.6373 3.54733 60.5249C0.33269 57.6899 -0.816039 53.253 0.592661 49.22C3.45824 41.0174 10.1586 36.844 19.1376 37.6603C20.3543 37.7708 21.5658 38.0804 22.9402 37.8246C20.6902 30.8383 22.3377 24.8 28.0547 20.4304C33.5876 16.2015 39.8595 15.3915 46.3473 18.8782C46.8673 14.9474 47.5206 11.3636 49.5349 8.23045C53.5152 2.03931 59.5261 -0.220359 66.5364 0.0167354C70.5638 0.152961 72.7597 3.1149 74.3806 6.46195C74.8752 7.48312 75.2149 8.57951 75.7151 9.87347C77.8448 7.60652 79.9166 5.61479 82.4546 4.1697C85.499 2.43621 88.7265 1.52145 92.2389 1.60568C96.3489 1.70447 98.9025 4.23971 98.9045 8.32404C98.9052 9.69842 98.7805 11.0728 98.7032 12.6493C102.429 10.8569 106.096 9.13654 110.136 8.49805C112.968 8.05055 115.782 7.97741 118.555 8.90153C125.552 11.2333 128.657 18.7222 125.374 25.3127C124.338 27.3935 123.047 29.3083 121.174 31.8671C134.116 28.0888 142.98 32.1482 147.984 44.0816C147.99 45.3887 147.995 46.6958 148 48.003C147.967 48.2754 147.934 48.5482 147.901 48.821C147.579 49.2235 147.442 49.6789 147.508 50.1923C147.388 50.2769 147.365 50.3822 147.441 50.5088C147.348 50.6921 147.256 50.8755 147.163 51.0589C147.122 51.1996 147.081 51.3407 147.041 51.4814C146.736 51.7043 146.601 52.0065 146.615 52.3802L146.614 52.3826C146.285 52.9348 145.957 53.487 145.628 54.0392L145.651 54.0121C145.526 54.1924 145.401 54.3723 145.276 54.5525L145.287 54.5373C145.162 54.6978 145.037 54.8583 144.912 55.0184L144.885 55.0596C144.778 55.1817 144.671 55.3033 144.564 55.4253C143.731 56.2784 142.899 57.1314 142.067 57.9845C141.496 58.4268 140.925 58.8688 140.353 59.3111C140.199 59.2812 140.097 59.3405 140.046 59.4892C139.904 59.596 139.762 59.7027 139.62 59.8092H139.62C139.414 59.9332 139.208 60.0577 139.002 60.1818C138.867 60.1374 138.779 60.1832 138.739 60.319C138.56 60.4268 138.38 60.535 138.201 60.6428C138.048 60.5963 137.935 60.6445 137.862 60.7873C137.695 60.8893 137.528 60.9912 137.361 61.0931L137.155 61.083L136.99 61.2071C136.784 61.3021 136.578 61.3971 136.372 61.4917C136.14 61.5465 135.908 61.6012 135.677 61.6563C135.384 61.7662 135.091 61.8758 134.798 61.9856L134.806 61.9836C133.517 62.4082 131.144 62.1181 133.049 64.6481C133.092 64.7864 133.136 64.9247 133.179 65.063C133.279 65.2256 133.379 65.3881 133.479 65.5507C133.431 65.7067 133.471 65.835 133.6 65.9355C133.699 66.1161 133.797 66.2963 133.896 66.4769C133.842 66.6204 133.882 66.7306 134.014 66.8083C134.111 67.0253 134.208 67.2423 134.305 67.4593C134.357 67.6797 134.409 67.9005 134.461 68.121C134.559 68.4697 134.657 68.818 134.755 69.1667C134.792 69.8368 134.828 70.5068 134.865 71.1768C134.837 72.6251 134.808 74.0729 134.78 75.5211L134.785 75.5031C134.466 75.899 134.393 76.3569 134.446 76.8466C134.406 77.0928 134.365 77.3389 134.324 77.585C134.026 77.8598 133.928 78.2041 133.973 78.5982C133.85 78.6779 133.823 78.7826 133.89 78.9122C133.797 79.097 133.703 79.2821 133.609 79.4668C133.572 79.6138 133.536 79.7604 133.499 79.9074C133.222 80.1337 133.045 80.4069 133.092 80.7837C133.027 80.9105 132.961 81.0374 132.895 81.1646C126.414 91.6508 116.488 95.5105 104.705 96.0031C98.3007 96.2707 92.0895 95.5202 86.0339 93.4377C85.6252 93.297 85.2086 93.1774 84.7919 93.0626C84.7413 93.0488 84.6661 93.1254 84.4935 93.2193C86.1271 96.4471 88.3143 99.3162 90.3584 102.275C91.6798 104.188 92.9626 106.131 94.3641 107.984C95.1956 109.083 95.1291 109.728 93.997 110.627C86.8907 116.27 79.2923 120.99 70.516 123.595C70.2397 123.626 69.9638 123.656 69.6876 123.687C68.0639 123.734 66.4247 123.934 64.8819 123.194C64.4434 122.607 64.0053 122.02 63.5668 121.433C63.5588 120.704 63.5508 119.974 63.5429 119.245C64.1866 118.116 64.8299 116.987 65.4736 115.857L65.4459 115.884C66.4362 114.851 67.4268 113.817 68.4172 112.783C68.8179 112.453 69.2186 112.123 69.6193 111.793C69.9465 111.537 70.2734 111.28 70.6006 111.023C70.7552 110.91 70.9098 110.798 71.0644 110.685C72.4984 109.728 73.932 108.77 75.366 107.813C76.0998 107.406 76.834 107 77.5678 106.594C77.9976 106.404 78.4275 106.215 78.8573 106.026C79.3464 105.793 79.8358 105.56 80.3249 105.327C80.7096 105.25 81.3887 105.309 80.8306 104.639C80.4223 104.148 79.8563 103.789 79.3606 103.371C78.6611 102.672 77.9616 101.972 77.2621 101.273C75.0554 98.6455 72.7538 96.096 70.8727 92.9496C68.2574 98.1577 66.1519 103.156 64.3952 108.301C63.9422 108.808 63.6874 109.399 63.6274 110.075C63.3047 110.445 63.0635 110.848 63.085 111.363C62.1383 112.471 62.0728 114.25 60.4416 114.839C59.7865 114.825 59.131 114.811 58.4758 114.798ZM102.437 94.0301C104.183 93.9531 105.931 93.9112 107.674 93.7926C115.423 93.2661 122.018 90.2574 127.324 84.5425C133.73 77.6432 134.037 69.2333 128.162 62.0581C127.88 61.7135 127.572 61.3655 127.821 60.8986C128.129 60.3225 128.645 60.3755 129.149 60.5846C131.459 61.5437 133.628 60.7645 135.699 59.8934C140.935 57.6916 144.387 53.9213 145.44 48.2002C146.528 42.2916 142.982 38.5213 139.038 35.1992C136.138 32.7569 132.559 31.6237 128.635 32.204C124.8 32.7711 121.075 33.6522 117.741 35.7663C116.972 36.2537 116.11 36.9927 115.244 35.9296C114.249 34.7091 115.693 34.489 116.178 33.9881C119.279 30.7925 122.43 27.6378 123.862 23.2624C125.982 16.7842 122.007 10.6631 115.24 10.0059C114.091 9.89427 112.896 9.89808 111.759 10.0797C106.12 10.9813 100.867 12.7536 96.849 17.1097C96.2012 17.812 95.5218 18.2914 94.597 17.5964C93.6659 16.8965 94.2143 16.2397 94.6556 15.5464C95.9814 13.4639 96.4976 11.1134 96.6795 8.70603C96.9326 5.36314 94.996 3.37384 91.6735 3.4033C85.0872 3.46188 79.2008 7.56666 76.8929 13.7228C76.6347 14.4115 76.4381 15.2583 75.5334 15.1693C74.6367 15.0809 74.2554 14.3658 74.1507 13.467C74.0246 12.3862 73.9279 11.2745 73.5934 10.2499C71.2009 2.92287 68.6674 -0.0917595 59.922 2.71801C51.6653 5.37076 47.8479 13.9762 49.0902 21.7895C49.1893 22.4121 49.5644 23.1674 48.6791 23.4644C47.7668 23.7709 47.2277 23.1032 47.14 22.3563C46.9317 20.5846 45.6884 20.0179 44.2752 19.472C36.3907 16.4265 28.9493 19.5299 25.0688 27.5131C23.1215 31.5194 23.2608 35.367 25.926 39.0288C26.309 39.5549 26.8432 40.1071 26.2744 40.7619C25.7534 41.3616 25.229 40.8354 24.7173 40.6C16.591 36.8644 8.42093 39.5799 4.17888 46.1842C0.1722 52.4225 2.29253 59.1488 9.04971 61.3489C10.3683 61.7784 11.7437 61.9312 13.1337 62.0071C15.661 62.1454 18.0291 61.5049 20.4018 60.7506C21.1855 60.5014 22.1797 60.1149 22.8563 60.9295C23.5391 61.7517 22.6466 62.4037 22.3492 63.0844C20.4261 67.4859 20.0167 71.9446 21.979 76.4203C24.0019 81.0336 28.2016 82.634 32.7907 80.611C34.6652 79.785 36.3211 78.6488 37.7682 77.1427C39.3728 75.473 40.1184 75.6525 41.116 77.7219C43.2907 82.2329 46.9068 85.1193 51.4705 86.9131C54.9815 88.2934 58.6578 88.7152 62.4063 88.5423C64.0836 88.465 64.7432 88.9017 63.9467 90.691C62.4115 94.1396 60.8496 97.5827 59.6786 101.182C59.4117 102.003 58.7996 102.548 58.0498 101.915C55.7922 100.007 52.882 99.6676 50.3075 98.5359C47.835 97.4489 45.2235 96.7477 42.4873 96.7133C39.6782 96.678 38.7069 98.3817 40.1319 100.856C41.1635 102.647 42.5593 104.122 44.2408 105.322C47.7581 107.831 51.7145 109.544 55.5423 111.479C59.3414 113.4 59.7289 113.193 61.3057 109.234C61.3595 109.098 61.3976 108.957 61.4527 108.822C63.9332 102.758 66.4726 96.7199 69.3288 90.8203C69.6914 90.0716 70.1021 89.4612 71.0775 89.4158C72.2017 89.3634 72.3275 90.2144 72.6263 90.9316C73.3594 92.6904 74.304 94.3244 75.5071 95.802C77.991 98.852 80.4968 101.878 83.8411 104.068C84.2973 104.367 84.95 104.717 84.8026 105.395C84.6623 106.041 83.9745 106.067 83.4283 106.275C78.416 108.178 73.8939 110.934 69.7603 114.328C68.6896 115.207 67.7974 116.284 67.1222 117.508C66.4972 118.64 65.5318 119.835 66.5093 121.122C67.4795 122.4 68.8848 121.818 70.1441 121.517C77.9782 119.639 84.5181 115.342 90.8056 110.538C92.1373 109.521 92.1768 108.791 91.1844 107.435C87.5337 102.446 83.726 97.5459 80.9939 91.9531C80.6175 91.1825 79.6913 90.2692 80.7211 89.4262C81.5201 88.7721 82.5038 88.9842 83.377 89.5336C89.217 93.21 95.6941 94.168 102.437 94.0301Z" fill="#14303F"/>
<path d="M102.437 94.0303C95.6942 94.1679 89.2171 93.2099 83.3768 89.5356C82.5033 88.9862 81.5199 88.7737 80.7209 89.4281C79.6911 90.2711 80.6176 91.1845 80.9937 91.9551C83.7258 97.5479 87.5335 102.448 91.1842 107.437C92.177 108.793 92.1371 109.523 90.8054 110.54C84.5179 115.344 77.978 119.641 70.1439 121.519C68.8846 121.821 67.4793 122.402 66.5091 121.124C65.5316 119.837 66.497 118.642 67.122 117.51C67.7972 116.286 68.6894 115.209 69.7601 114.33C73.8937 110.936 78.4158 108.18 83.4281 106.277C83.9744 106.069 84.6621 106.043 84.8025 105.397C84.9498 104.719 84.2971 104.369 83.8409 104.07C80.4966 101.88 77.9909 98.854 75.5069 95.804C74.3034 94.3264 73.3589 92.6923 72.6261 90.9335C72.3273 90.2164 72.2015 89.3657 71.0773 89.4177C70.1019 89.4632 69.6912 90.0732 69.3286 90.8223C66.4724 96.7219 63.933 102.76 61.4525 108.824C61.3974 108.959 61.3593 109.1 61.3055 109.236C59.7291 113.195 59.3412 113.402 55.5421 111.481C51.7143 109.546 47.7579 107.832 44.2406 105.323C42.5592 104.124 41.1633 102.649 40.1317 100.858C38.7067 98.3836 39.678 96.6803 42.487 96.7153C45.2233 96.7496 47.8348 97.4509 50.3073 98.5379C52.8818 99.6696 55.7921 100.009 58.0496 101.916C58.7994 102.55 59.4116 102.004 59.6785 101.184C60.8497 97.5847 62.4116 94.1416 63.9465 90.693C64.743 88.9037 64.0834 88.4669 62.4061 88.5442C58.658 88.7169 54.9816 88.295 51.4703 86.9151C46.9066 85.1213 43.2909 82.2349 41.1158 77.7239C40.1182 75.6545 39.3722 75.4753 37.768 77.1447C36.3209 78.6508 34.665 79.7867 32.7905 80.613C28.2014 82.6356 24.0017 81.0356 21.9788 76.4223C20.0161 71.947 20.4255 67.4879 22.349 63.0864C22.6464 62.4057 23.5393 61.7536 22.8561 60.9314C22.1795 60.1169 21.1853 60.5034 20.4016 60.7526C18.0293 61.5068 15.6608 62.1474 13.1335 62.0091C11.7432 61.9332 10.3681 61.7803 9.04951 61.3509C2.29268 59.1508 0.172 52.4241 4.17868 46.1862C8.42072 39.5819 16.5904 36.8664 24.7171 40.602C25.2288 40.837 25.7532 41.3632 26.2742 40.7639C26.843 40.1091 26.3088 39.5569 25.9258 39.0307C23.2606 35.369 23.1213 31.521 25.0686 27.515C28.9491 19.5318 36.3905 16.4285 44.275 19.4739C45.6882 20.0199 46.9315 20.587 47.1399 22.3582C47.2275 23.1052 47.7666 23.7725 48.6789 23.4664C49.5645 23.169 49.1891 22.4141 49.09 21.7915C47.8477 13.9785 51.6651 5.37274 59.9218 2.71999C68.6672 -0.0897816 71.2007 2.9252 73.5932 10.2519C73.9277 11.2765 74.0244 12.3882 74.1506 13.4689C74.2556 14.3678 74.6365 15.0829 75.5332 15.1712C76.4376 15.2603 76.6345 14.4135 76.8927 13.7248C79.2006 7.56863 85.087 3.46386 91.6733 3.40528C94.9958 3.37581 96.9324 5.36511 96.6793 8.708C96.4974 11.1153 95.9812 13.4658 94.6554 15.5484C94.2141 16.2413 93.6657 16.8982 94.5968 17.5983C95.5216 18.2937 96.201 17.8139 96.8488 17.1117C100.867 12.7556 106.12 10.9833 111.759 10.0817C112.896 9.90006 114.091 9.89625 115.24 10.0079C122.007 10.6651 125.982 16.7862 123.862 23.2643C122.429 27.6398 119.279 30.7941 116.178 33.9901C115.693 34.4909 114.249 34.7111 115.243 35.9315C116.109 36.9946 116.972 36.2556 117.74 35.7683C121.074 33.6538 124.8 32.7727 128.635 32.206C132.559 31.6257 136.138 32.7588 139.038 35.2012C142.982 38.5229 146.528 42.2936 145.44 48.2022C144.387 53.9233 140.935 57.6939 135.699 59.8954C133.628 60.7664 131.458 61.5457 129.149 60.5865C128.645 60.3775 128.129 60.3245 127.821 60.9006C127.572 61.3675 127.88 61.7155 128.162 62.0601C134.037 69.2349 133.729 77.6448 127.323 84.5445C122.017 90.2594 115.423 93.2681 107.674 93.7946C105.932 93.9114 104.183 93.9534 102.437 94.0303ZM78.1312 67.8224C86.9682 67.4758 96.4856 62.7173 102.826 52.3208C105.373 48.1453 106.67 43.5594 106.913 38.6741C106.965 37.6394 106.834 36.7447 105.552 36.6158C104.352 36.4952 103.837 37.1496 103.708 38.2598C103.608 39.1261 103.397 39.9829 103.348 40.8505C103.185 43.7317 102.413 46.4604 101.109 48.9977C91.9239 66.8619 73.7654 69.0536 57.8139 60.3432C49.6491 55.8849 45.5571 47.981 44.0715 38.8339C43.8687 37.5853 43.6316 36.4179 42.0007 36.699C40.3438 36.9846 40.8149 38.2727 40.9962 39.2963C44.1335 57.008 57.0725 67.8519 78.1312 67.8224ZM118.193 70.0547C121.602 66.7773 120.901 63.1866 119.605 59.5404C119.294 58.6669 118.682 58.1764 117.756 58.5522C116.899 58.9002 117.153 59.6867 117.444 60.2368C119.388 63.9131 118.357 66.9562 115.564 69.6779C115.222 70.0117 114.717 70.3528 115 70.9657C115.278 71.5639 115.803 71.7418 116.436 71.7542C117.234 71.7702 118.041 71.7761 118.826 71.9005C121.351 72.3009 122.372 73.6388 122.06 76.1353C121.885 77.5367 121.342 78.795 120.358 79.8407C119.431 80.8265 118.353 81.69 116.957 81.464C115.33 81.2006 116.126 79.7208 115.897 78.7662C115.678 77.8535 115.369 76.9734 114.226 77.1973C113.017 77.4341 113.729 78.3537 113.812 78.9627C114.106 81.115 113.437 82.8547 111.662 84.0942C110.719 84.7521 109.785 84.628 108.891 83.8218C108.06 83.0724 108.175 82.3673 108.678 81.5167C109.363 80.36 109.6 79.0768 109.54 77.7384C109.502 76.8972 109.746 75.746 108.445 75.8015C107.399 75.8462 107.499 76.7627 107.518 77.6358C107.569 80.091 106.416 81.995 104.35 83.245C102.215 84.5362 100.167 83.3084 100.197 80.8369C100.222 78.7371 101.136 77.0736 102.738 75.7422C103.208 75.3512 103.97 74.9203 103.386 74.1772C102.848 73.4936 102.061 73.6617 101.413 74.0978C100.812 74.5016 100.307 75.0472 99.7064 75.451C98.6146 76.1852 97.357 76.5876 96.3015 75.6008C95.1254 74.5013 95.6207 73.1865 96.3847 72.0308C96.9119 71.2329 97.6492 70.6364 98.5248 70.2187C100.367 69.3403 102.259 69.0692 104.228 69.7334C105.042 70.0079 105.981 69.9005 105.716 68.9313C105.062 66.5441 104.614 64.1267 104.147 61.7058C104.049 61.1956 103.689 60.737 103.08 60.8049C102.395 60.8815 102.416 61.4746 102.407 61.98C102.384 63.2923 102.39 64.6161 102.798 65.873C103.314 67.463 103.117 68.2262 101.139 68.0353C98.7827 67.8075 96.6682 68.601 95.0963 70.4582C92.5922 73.417 92.9992 76.8209 96.1996 77.709C98.1099 78.239 98.001 79.1752 97.9691 80.594C97.8873 84.2242 100.162 86.0981 103.713 85.4128C104.351 85.2897 105.006 85.1303 105.583 84.845C106.262 84.5095 106.695 84.6187 107.322 85.063C110.368 87.2236 111.818 87.0572 114.472 84.2668C115.072 83.636 115.602 83.3458 116.514 83.3666C120.051 83.4471 123.478 80.6279 124.199 77.1807C124.845 74.0877 123.795 72.1851 120.806 71.0402C120.061 70.7559 119.314 70.4779 118.193 70.0547ZM86.2718 30.2631C86.2718 29.9446 86.278 29.435 86.2708 28.9255C86.2444 27.1518 85.4898 25.7958 83.7993 25.1819C82.0301 24.5392 80.3531 25.0554 79.2924 26.5008C77.0383 29.5733 76.1087 33.0143 77.2875 36.7971C77.7621 38.3191 78.8193 39.2963 80.4086 39.4914C81.8974 39.6744 83.1417 39.0664 83.9532 37.7988C85.382 35.5669 86.5061 33.2181 86.2718 30.2631ZM70.3872 29.5896C70.3435 29.0094 70.2648 28.4294 70.2624 27.8488C70.2558 26.114 69.4198 24.9216 67.8409 24.3205C66.2436 23.7125 64.8131 24.2439 63.63 25.3476C61.2099 27.6059 60.1537 33.3433 61.5364 36.3832C62.7371 39.0238 65.9947 39.5604 67.7709 37.2695C69.4922 35.0494 70.5369 32.4958 70.3872 29.5896Z" fill="#D0D3D7"/>
<path d="M78.131 67.8221C57.0723 67.8516 44.1333 57.0076 40.996 39.2963C40.8147 38.2727 40.344 36.9846 42.0005 36.699C43.6311 36.4179 43.8682 37.5853 44.0713 38.8339C45.5569 47.9811 49.6492 55.8849 57.8137 60.3432C73.7656 69.0537 91.9237 66.8623 101.108 48.9977C102.413 46.4604 103.185 43.7317 103.348 40.8506C103.397 39.9829 103.608 39.1261 103.708 38.2599C103.837 37.1496 104.352 36.4952 105.552 36.6158C106.834 36.7447 106.964 37.6394 106.913 38.6741C106.669 43.5595 105.373 48.145 102.826 52.3209C96.4857 62.7169 86.968 67.4758 78.131 67.8221Z" fill="#14303F"/>
<path d="M118.192 70.0545C119.314 70.4774 120.061 70.7554 120.804 71.0406C123.793 72.1855 124.844 74.0882 124.197 77.1812C123.477 80.6284 120.049 83.4472 116.512 83.3671C115.601 83.3463 115.071 83.6368 114.471 84.2673C111.817 87.0576 110.367 87.2237 107.321 85.0635C106.694 84.6191 106.261 84.5099 105.582 84.8455C105.005 85.1307 104.35 85.2898 103.711 85.4132C100.161 86.0989 97.8863 84.2247 97.9678 80.5944C97.9997 79.1757 98.1085 78.2398 96.1983 77.7094C92.9978 76.8214 92.5909 73.4175 95.0949 70.4586C96.6669 68.6014 98.7813 67.808 101.138 68.0357C103.116 68.2267 103.313 67.4634 102.797 65.8734C102.389 64.6165 102.382 63.2928 102.406 61.9804C102.415 61.4751 102.393 60.8816 103.078 60.8054C103.687 60.7374 104.047 61.196 104.146 61.7063C104.613 64.1271 105.06 66.5445 105.715 68.9317C105.98 69.9006 105.04 70.008 104.227 69.7338C102.257 69.0694 100.366 69.3408 98.5234 70.2191C97.6479 70.6365 96.9109 71.2334 96.3834 72.0313C95.6197 73.187 95.1241 74.5017 96.3002 75.6012C97.3556 76.5881 98.6132 76.186 99.7051 75.4515C100.305 75.0477 100.811 74.5021 101.411 74.0982C102.06 73.6622 102.847 73.4941 103.385 74.1776C103.969 74.9211 103.207 75.352 102.736 75.7426C101.135 77.074 100.22 78.7379 100.195 80.8374C100.166 83.3089 102.214 84.5366 104.349 83.2454C106.415 81.9955 107.568 80.0914 107.516 77.6363C107.498 76.7631 107.397 75.8466 108.444 75.8019C109.745 75.7465 109.501 76.8976 109.538 77.7389C109.598 79.0772 109.362 80.3608 108.677 81.5171C108.173 82.3681 108.059 83.0731 108.89 83.8222C109.784 84.6285 110.718 84.7526 111.66 84.0947C113.436 82.8548 114.105 81.1154 113.81 78.9632C113.727 78.3538 113.016 77.4345 114.224 77.1978C115.368 76.9735 115.676 77.854 115.895 78.7666C116.125 79.7216 115.329 81.201 116.956 81.4644C118.352 81.6904 119.43 80.827 120.357 79.8412C121.341 78.7954 121.883 77.5371 122.058 76.1357C122.37 73.6393 121.349 72.3013 118.825 71.901C118.04 71.7765 117.233 71.7706 116.435 71.7547C115.802 71.7419 115.276 71.5644 114.999 70.9661C114.715 70.3533 115.22 70.0122 115.563 69.6784C118.355 66.9566 119.386 63.9136 117.443 60.2372C117.152 59.6871 116.898 58.901 117.755 58.5526C118.681 58.1765 119.293 58.6674 119.604 59.5409C120.9 63.1867 121.602 66.7771 118.192 70.0545Z" fill="#14303F"/>
<path d="M86.2716 30.263C86.5059 33.218 85.3814 35.5671 83.953 37.7991C83.1418 39.0664 81.8971 39.6743 80.4083 39.4917C78.819 39.2965 77.7618 38.319 77.2873 36.7973C76.108 33.0149 77.0381 29.5736 79.2922 26.5011C80.3529 25.0553 82.0299 24.5395 83.799 25.1821C85.4896 25.796 86.2442 27.152 86.2705 28.9257C86.2781 29.4349 86.2716 29.9445 86.2716 30.263Z" fill="#14303F"/>
<path d="M70.387 29.5897C70.5368 32.4959 69.492 35.0495 67.7707 37.27C65.9945 39.5612 62.7369 39.0243 61.5362 36.3837C60.1535 33.3434 61.2097 27.6063 63.6298 25.348C64.8129 24.244 66.2434 23.7126 67.8407 24.321C69.4196 24.922 70.2556 26.1141 70.2622 27.8493C70.2643 28.4292 70.343 29.0095 70.387 29.5897Z" fill="#14303F"/>
</svg>
