<svg width="477" height="180" viewBox="0 0 477 180" fill="none" xmlns="http://www.w3.org/2000/svg">
<mask id="path-1-inside-1_296_80" fill="white">
<path fill-rule="evenodd" clip-rule="evenodd" d="M207.271 148.548C211.966 164.714 226 177.27 243.774 179.229C266.467 181.73 286.974 166.043 290.749 143.822C294.605 146.914 299.356 148.982 304.633 149.564C313.324 150.522 321.505 147.232 327.104 141.354C334.116 151.927 345.593 159.428 359.189 160.926C381.236 163.356 401.285 149.168 406.84 128.377C412.696 132.436 419.617 135.136 427.196 135.972C451.519 138.653 473.409 121.109 476.09 96.7865C478.288 76.8472 466.893 58.5423 449.314 51.1155C451.827 47.5307 453.499 43.2814 454.012 38.6232C455.642 23.8353 444.976 10.5259 430.188 8.89595C421.295 7.91573 412.936 11.3827 407.331 17.5187C400.238 8.17946 389.474 1.65683 376.897 0.270568C358.872 -1.71618 342.183 7.40468 333.658 22.1604C330.869 20.7575 327.788 19.8191 324.503 19.457C314.319 18.3345 304.836 23.0437 299.386 30.9146C292.981 17.5976 280.06 7.78318 264.289 6.0449C244.737 3.88982 226.757 14.8043 219.063 31.8033C215.769 29.7703 211.983 28.4186 207.879 27.9663C202.565 27.3806 197.442 28.3827 192.984 30.5932C186.261 18.3947 173.908 9.54736 159.012 7.90546C141.166 5.93845 124.629 14.8594 116.029 29.357C112.256 17.7061 101.95 8.74834 88.9871 7.31957C71.3609 5.37677 55.497 18.0907 53.5542 35.7169C53.1248 39.6132 53.4115 43.4235 54.3092 47.0162C52.6326 46.6301 50.9159 46.3373 49.1641 46.1442C24.8418 43.4634 2.95143 61.0072 0.270568 85.3295C-2.41029 109.652 15.1335 131.542 39.4558 134.223C56.2748 136.077 71.9309 128.26 80.8763 115.218C87.9569 123.773 98.2417 129.692 110.152 131.005C113.953 131.424 117.696 131.348 121.314 130.831C120.1 145.329 130.66 158.237 145.208 159.841C156.721 161.11 167.338 154.926 172.245 145.147C177.225 147.903 182.823 149.74 188.836 150.402C195.253 151.11 201.5 150.409 207.271 148.548Z"/>
</mask>
<path fill-rule="evenodd" clip-rule="evenodd" d="M207.271 148.548C211.966 164.714 226 177.27 243.774 179.229C266.467 181.73 286.974 166.043 290.749 143.822C294.605 146.914 299.356 148.982 304.633 149.564C313.324 150.522 321.505 147.232 327.104 141.354C334.116 151.927 345.593 159.428 359.189 160.926C381.236 163.356 401.285 149.168 406.84 128.377C412.696 132.436 419.617 135.136 427.196 135.972C451.519 138.653 473.409 121.109 476.09 96.7865C478.288 76.8472 466.893 58.5423 449.314 51.1155C451.827 47.5307 453.499 43.2814 454.012 38.6232C455.642 23.8353 444.976 10.5259 430.188 8.89595C421.295 7.91573 412.936 11.3827 407.331 17.5187C400.238 8.17946 389.474 1.65683 376.897 0.270568C358.872 -1.71618 342.183 7.40468 333.658 22.1604C330.869 20.7575 327.788 19.8191 324.503 19.457C314.319 18.3345 304.836 23.0437 299.386 30.9146C292.981 17.5976 280.06 7.78318 264.289 6.0449C244.737 3.88982 226.757 14.8043 219.063 31.8033C215.769 29.7703 211.983 28.4186 207.879 27.9663C202.565 27.3806 197.442 28.3827 192.984 30.5932C186.261 18.3947 173.908 9.54736 159.012 7.90546C141.166 5.93845 124.629 14.8594 116.029 29.357C112.256 17.7061 101.95 8.74834 88.9871 7.31957C71.3609 5.37677 55.497 18.0907 53.5542 35.7169C53.1248 39.6132 53.4115 43.4235 54.3092 47.0162C52.6326 46.6301 50.9159 46.3373 49.1641 46.1442C24.8418 43.4634 2.95143 61.0072 0.270568 85.3295C-2.41029 109.652 15.1335 131.542 39.4558 134.223C56.2748 136.077 71.9309 128.26 80.8763 115.218C87.9569 123.773 98.2417 129.692 110.152 131.005C113.953 131.424 117.696 131.348 121.314 130.831C120.1 145.329 130.66 158.237 145.208 159.841C156.721 161.11 167.338 154.926 172.245 145.147C177.225 147.903 182.823 149.74 188.836 150.402C195.253 151.11 201.5 150.409 207.271 148.548Z" fill="white"/>
<path d="M243.774 179.229L243.993 177.241L243.774 179.229ZM207.271 148.548L209.191 147.99L208.617 146.012L206.657 146.644L207.271 148.548ZM290.749 143.822L292 142.262L289.347 140.134L288.777 143.487L290.749 143.822ZM304.633 149.564L304.413 151.552L304.633 149.564ZM327.104 141.354L328.771 140.249L327.385 138.159L325.656 139.975L327.104 141.354ZM359.189 160.926L359.408 158.938V158.938L359.189 160.926ZM406.84 128.377L407.979 126.733L405.642 125.113L404.908 127.861L406.84 128.377ZM427.196 135.972L427.415 133.984V133.984L427.196 135.972ZM476.09 96.7865L474.102 96.5674L476.09 96.7865ZM449.314 51.1155L447.677 49.9677L446.256 51.9946L448.536 52.9578L449.314 51.1155ZM454.012 38.6232L452.025 38.4041V38.4041L454.012 38.6232ZM430.188 8.89595L430.407 6.90799L430.188 8.89595ZM407.331 17.5187L405.738 18.7284L407.19 20.6391L408.808 18.8676L407.331 17.5187ZM376.897 0.270568L376.678 2.25853L376.897 0.270568ZM333.658 22.1604L332.759 23.947L334.445 24.7953L335.389 23.1609L333.658 22.1604ZM324.503 19.457L324.722 17.469L324.503 19.457ZM299.386 30.9146L297.584 31.7816L299.074 34.8791L301.03 32.0532L299.386 30.9146ZM264.289 6.0449L264.508 4.05694L264.289 6.0449ZM219.063 31.8033L218.013 33.5053L219.948 34.6994L220.885 32.6279L219.063 31.8033ZM207.879 27.9663L208.098 25.9783L207.879 27.9663ZM192.984 30.5932L191.232 31.5585L192.156 33.2358L193.872 32.3851L192.984 30.5932ZM159.012 7.90546L158.792 9.89342L159.012 7.90546ZM116.029 29.357L114.126 29.9732L115.49 34.185L117.749 30.3774L116.029 29.357ZM88.9871 7.31957L88.768 9.30753L88.9871 7.31957ZM53.5542 35.7169L55.5422 35.936L53.5542 35.7169ZM54.3092 47.0162L53.8603 48.9652L57.0406 49.6977L56.2495 46.5314L54.3092 47.0162ZM49.1641 46.1442L49.3832 44.1563L49.1641 46.1442ZM0.270568 85.3295L-1.71739 85.1104L0.270568 85.3295ZM39.4558 134.223L39.6749 132.235H39.6749L39.4558 134.223ZM80.8763 115.218L82.4171 113.942L80.7267 111.9L79.227 114.086L80.8763 115.218ZM110.152 131.005L110.371 129.017L110.371 129.017L110.152 131.005ZM121.314 130.831L123.307 130.998L123.517 128.495L121.031 128.851L121.314 130.831ZM145.208 159.841L145.428 157.853L145.208 159.841ZM172.245 145.147L173.213 143.397L171.391 142.388L170.457 144.25L172.245 145.147ZM188.836 150.402L188.616 152.39L188.836 150.402ZM243.993 177.241C227.051 175.373 213.669 163.406 209.191 147.99L205.35 149.106C210.263 166.021 224.949 179.166 243.554 181.217L243.993 177.241ZM288.777 143.487C285.178 164.67 265.627 179.625 243.993 177.241L243.554 181.217C267.307 183.835 288.769 167.416 292.721 144.157L288.777 143.487ZM304.852 147.576C299.964 147.037 295.568 145.123 292 142.262L289.498 145.383C293.641 148.705 298.749 150.928 304.413 151.552L304.852 147.576ZM325.656 139.975C320.469 145.42 312.897 148.463 304.852 147.576L304.413 151.552C313.752 152.581 322.542 149.044 328.553 142.733L325.656 139.975ZM359.408 158.938C346.427 157.507 335.469 150.348 328.771 140.249L325.438 142.459C332.763 153.505 344.76 161.348 358.97 162.914L359.408 158.938ZM404.908 127.861C399.604 147.712 380.458 161.258 359.408 158.938L358.97 162.914C382.014 165.454 402.966 150.625 408.772 128.893L404.908 127.861ZM427.415 133.984C420.175 133.186 413.569 130.607 407.979 126.733L405.701 130.021C411.823 134.264 419.059 137.087 426.977 137.96L427.415 133.984ZM474.102 96.5674C471.542 119.792 450.64 136.544 427.415 133.984L426.977 137.96C452.397 140.762 475.276 122.426 478.078 97.0056L474.102 96.5674ZM448.536 52.9578C465.322 60.0499 476.2 77.5311 474.102 96.5674L478.078 97.0056C480.375 76.1633 468.463 57.0346 450.093 49.2732L448.536 52.9578ZM452.025 38.4041C451.549 42.7199 450.001 46.6511 447.677 49.9677L450.952 52.2634C453.653 48.4103 455.449 43.843 456 38.8423L452.025 38.4041ZM429.969 10.8839C443.659 12.3929 453.533 24.7141 452.025 38.4041L456 38.8423C457.751 22.9565 446.293 8.65897 430.407 6.90799L429.969 10.8839ZM408.808 18.8676C414.001 13.1829 421.737 9.97662 429.969 10.8839L430.407 6.90799C420.852 5.85483 411.872 9.58251 405.855 16.1698L408.808 18.8676ZM376.678 2.25853C388.687 3.58223 398.964 9.80774 405.738 18.7284L408.924 16.3091C401.513 6.55119 390.261 -0.26858 377.116 -1.71739L376.678 2.25853ZM335.389 23.1609C343.532 9.06728 359.47 0.361802 376.678 2.25853L377.116 -1.71739C358.274 -3.79416 340.833 5.74209 331.926 21.1599L335.389 23.1609ZM324.283 21.445C327.328 21.7805 330.18 22.6495 332.759 23.947L334.557 20.3737C331.558 18.8654 328.247 17.8576 324.722 17.469L324.283 21.445ZM301.03 32.0532C306.079 24.7618 314.858 20.4061 324.283 21.445L324.722 17.469C313.779 16.2629 303.593 21.3256 297.742 29.7761L301.03 32.0532ZM264.07 8.03286C279.127 9.69243 291.465 19.0602 297.584 31.7816L301.189 30.0477C294.497 16.1351 280.993 5.87393 264.508 4.05694L264.07 8.03286ZM220.885 32.6279C228.232 16.3943 245.404 5.9754 264.07 8.03286L264.508 4.05694C244.071 1.80424 225.281 13.2143 217.241 30.9787L220.885 32.6279ZM207.66 29.9542C211.463 30.3734 214.966 31.6247 218.013 33.5053L220.114 30.1013C216.572 27.9158 212.503 26.4638 208.098 25.9783L207.66 29.9542ZM193.872 32.3851C197.998 30.3394 202.738 29.4117 207.66 29.9542L208.098 25.9783C202.393 25.3495 196.886 26.4259 192.095 28.8014L193.872 32.3851ZM158.792 9.89342C173.015 11.461 184.81 19.9054 191.232 31.5585L194.735 29.628C187.713 16.884 174.801 7.63369 159.231 5.9175L158.792 9.89342ZM117.749 30.3774C125.964 16.5301 141.755 8.01554 158.792 9.89342L159.231 5.9175C140.576 3.86136 123.295 13.1887 114.309 28.3366L117.749 30.3774ZM88.768 9.30753C100.92 10.647 110.586 19.0435 114.126 29.9732L117.932 28.7408C113.925 16.3688 102.979 6.84971 89.2062 5.33161L88.768 9.30753ZM55.5422 35.936C57.364 19.4077 72.2397 7.48574 88.768 9.30753L89.2062 5.33161C70.4821 3.26779 53.6301 16.7737 51.5663 35.4978L55.5422 35.936ZM56.2495 46.5314C55.4084 43.1652 55.1391 39.5933 55.5422 35.936L51.5663 35.4978C51.1105 39.6332 51.4145 43.6817 52.3688 47.501L56.2495 46.5314ZM48.9449 48.1322C50.6194 48.3167 52.2594 48.5965 53.8603 48.9652L54.7581 45.0672C53.0059 44.6637 51.2125 44.3579 49.3832 44.1563L48.9449 48.1322ZM2.25853 85.5486C4.81837 62.3242 25.7206 45.5723 48.9449 48.1322L49.3832 44.1563C23.963 41.3544 1.08448 59.6902 -1.71739 85.1104L2.25853 85.5486ZM39.6749 132.235C16.4506 129.675 -0.301313 108.773 2.25853 85.5486L-1.71739 85.1104C-4.51927 110.531 13.8165 133.409 39.2367 136.211L39.6749 132.235ZM79.227 114.086C70.6821 126.544 55.732 134.005 39.6749 132.235L39.2367 136.211C56.8176 138.149 73.1797 129.975 82.5257 116.349L79.227 114.086ZM110.371 129.017C98.9977 127.763 89.1797 122.114 82.4171 113.942L79.3356 116.493C86.734 125.432 97.4857 131.621 109.933 132.993L110.371 129.017ZM121.031 128.851C117.577 129.345 114.004 129.417 110.371 129.017L109.933 132.993C113.903 133.43 117.814 133.352 121.598 132.811L121.031 128.851ZM145.428 157.853C131.959 156.368 122.184 144.419 123.307 130.998L119.321 130.664C118.017 146.24 129.36 160.106 144.989 161.829L145.428 157.853ZM170.457 144.25C165.913 153.306 156.082 159.027 145.428 157.853L144.989 161.829C157.36 163.192 168.762 156.546 174.032 146.044L170.457 144.25ZM189.055 148.414C183.31 147.781 177.967 146.028 173.213 143.397L171.276 146.896C176.484 149.779 182.337 151.698 188.616 152.39L189.055 148.414ZM206.657 146.644C201.15 148.421 195.186 149.09 189.055 148.414L188.616 152.39C195.319 153.129 201.851 152.398 207.885 150.451L206.657 146.644Z" fill="black" mask="url(#path-1-inside-1_296_80)"/>
</svg>
