<svg width="561" height="114" viewBox="0 0 561 114" fill="none" xmlns="http://www.w3.org/2000/svg">
<path d="M0 0H129V114H0V0Z" fill="#FF02C7"/>
<path fill-rule="evenodd" clip-rule="evenodd" d="M128 1H1V113H128V1ZM0 0V114H129V0H0Z" fill="#14303F"/>
<path d="M288 0H418V114H288V0Z" fill="#112055"/>
<path fill-rule="evenodd" clip-rule="evenodd" d="M417 1H289V113H417V1ZM288 0V114H418V0H288Z" fill="#14303F"/>
<path d="M143 0H273V114H143V0Z" fill="#36FFDB"/>
<path fill-rule="evenodd" clip-rule="evenodd" d="M272 1H144V113H272V1ZM143 0V114H273V0H143Z" fill="#14303F"/>
<path d="M431 0H561V114H431V0Z" fill="white"/>
<path fill-rule="evenodd" clip-rule="evenodd" d="M560 1H432V113H560V1ZM431 0V114H561V0H431Z" fill="#14303F"/>
<path d="M34.916 64L35.4639 60.6797H32.4424L31.8945 64H30.6826L31.2305 60.6797H29.4541L29.6533 59.4844H31.4214L31.9194 56.4961H30.168L30.3506 55.3008H32.1104L32.6582 51.9805H33.8701L33.3223 55.3008H36.3438L36.8916 51.9805H38.1035L37.5557 55.3008H39.3486L39.1494 56.4961H37.3647L36.8667 59.4844H38.6348L38.4355 60.6797H36.6758L36.1279 64H34.916ZM32.6333 59.4844H35.6548L36.1528 56.4961H33.1313L32.6333 59.4844Z" fill="#14303F"/>
<path d="M40.8262 64V51.9805H48.0645V53.3086H42.3203V57.3262H47.5166V58.6377H42.3203V64H40.8262Z" fill="#14303F"/>
<path d="M50.2891 64V51.9805H57.5273V53.3086H51.7832V57.3262H56.9795V58.6377H51.7832V64H50.2891Z" fill="#14303F"/>
<path d="M63.4873 64.166C60.8228 64.166 59.2788 61.9248 59.2871 57.9902C59.2788 54.0889 60.8394 51.8145 63.4873 51.8145C66.127 51.8145 67.6875 54.0889 67.6875 57.9902C67.6875 61.9248 66.1519 64.166 63.4873 64.166ZM60.7314 57.9902C60.7397 61.103 61.7441 62.8379 63.4873 62.8379C65.2222 62.8379 66.2349 61.103 66.2266 57.9902C66.2349 54.8774 65.2139 53.1177 63.4873 53.1094C61.7607 53.1177 60.7397 54.8774 60.7314 57.9902Z" fill="#14303F"/>
<path d="M69.6797 64L69.6631 62.9043L73.7637 58.5879C75.1831 57.0771 75.8638 56.2637 75.8721 55.1514C75.8638 53.9146 74.8345 53.1177 73.4814 53.1094C72.0454 53.1177 71.1489 54.0225 71.1406 55.3672H69.7295C69.7129 53.2422 71.3564 51.8145 73.5312 51.8145C75.7144 51.8145 77.2583 53.2837 77.2666 55.1514C77.2583 56.4961 76.6357 57.542 74.5107 59.7334L71.7549 62.5723V62.6719H77.4824V64H69.6797Z" fill="#14303F"/>
<path d="M88.0576 55.7656C87.709 54.1055 86.2896 53.209 84.7041 53.209C82.5293 53.209 80.8442 54.8857 80.8359 57.9902C80.8442 61.0864 82.5293 62.7632 84.7041 62.7715C86.2896 62.7632 87.7007 61.875 88.0576 60.2314H89.5518C89.1201 62.6885 87.1445 64.166 84.7041 64.166C81.6162 64.166 79.3833 61.792 79.3916 57.9902C79.3833 54.1885 81.6162 51.8145 84.7041 51.8145C87.1362 51.8145 89.1035 53.2671 89.5518 55.7656H88.0576Z" fill="#14303F"/>
<path d="M91.8262 64L97.3379 53.3916V53.3086H90.9795V51.9805H98.8818V53.375L93.3867 64H91.8262Z" fill="#14303F"/>
<path d="M178.003 64L178.551 60.6797H175.529L174.981 64H173.77L174.317 60.6797H172.541L172.74 59.4844H174.508L175.006 56.4961H173.255L173.438 55.3008H175.197L175.745 51.9805H176.957L176.409 55.3008H179.431L179.979 51.9805H181.19L180.643 55.3008H182.436L182.236 56.4961H180.452L179.954 59.4844H181.722L181.522 60.6797H179.763L179.215 64H178.003ZM175.72 59.4844H178.742L179.24 56.4961H176.218L175.72 59.4844Z" fill="#14303F"/>
<path d="M187.864 64.166C185.474 64.166 183.755 62.8877 183.681 60.9785H185.191C185.274 62.124 186.412 62.8379 187.848 62.8379C189.433 62.8379 190.579 61.9829 190.587 60.7295C190.579 59.418 189.533 58.4966 187.665 58.4883H186.686V57.1768H187.665C189.126 57.1768 190.147 56.355 190.139 55.1182C190.147 53.9146 189.267 53.1177 187.897 53.1094C186.611 53.1177 185.44 53.8232 185.374 55.002H183.93C184.004 53.0928 185.781 51.8145 187.914 51.8145C190.205 51.8145 191.6 53.3169 191.583 55.0352C191.6 56.4048 190.803 57.4009 189.541 57.7578V57.8408C191.11 58.0815 192.056 59.2021 192.048 60.7295C192.056 62.7051 190.263 64.166 187.864 64.166Z" fill="#14303F"/>
<path d="M198.39 64.166C196.306 64.1411 194.007 62.9043 194.007 58.4551C194.007 54.1968 195.75 51.8145 198.572 51.8145C200.689 51.8145 202.167 53.1177 202.474 55.002H200.996C200.722 53.9395 199.909 53.1426 198.572 53.1426C196.597 53.1426 195.41 54.8276 195.418 57.7246H195.567C196.256 56.7202 197.36 56.1309 198.655 56.1309C200.789 56.1309 202.573 57.791 202.573 60.1152C202.573 62.3813 200.921 64.1909 198.39 64.166ZM195.617 60.1484C195.625 61.5596 196.779 62.8462 198.39 62.8545C199.942 62.8462 201.121 61.626 201.129 60.1318C201.121 58.6543 199.992 57.4507 198.423 57.4424C196.846 57.4507 195.634 58.729 195.617 60.1484Z" fill="#14303F"/>
<path d="M204.831 64V51.9805H212.069V53.3086H206.325V57.3262H211.521V58.6377H206.325V64H204.831Z" fill="#14303F"/>
<path d="M214.294 64V51.9805H221.532V53.3086H215.788V57.3262H220.984V58.6377H215.788V64H214.294Z" fill="#14303F"/>
<path d="M227.492 64H223.757V51.9805H227.642C231.153 51.9805 233.22 54.23 233.22 57.9736C233.22 61.7256 231.153 64 227.492 64ZM225.251 62.6719H227.393C230.339 62.6719 231.759 60.8872 231.759 57.9736C231.759 55.0684 230.339 53.3086 227.542 53.3086H225.251V62.6719Z" fill="#14303F"/>
<path d="M235.411 64V51.9805H239.628C242.151 51.9805 243.338 53.3999 243.33 55.168C243.338 56.7119 242.417 57.4009 241.371 57.6914V57.8076C242.492 57.874 243.803 58.9033 243.812 60.8125C243.803 62.6138 242.616 64 239.777 64H235.411ZM236.905 62.6719H239.761C241.645 62.6719 242.375 61.8418 242.367 60.7959C242.375 59.5757 241.388 58.5381 239.844 58.5381H236.905V62.6719ZM236.905 57.2432H239.578C240.881 57.2515 241.902 56.438 241.902 55.1846C241.902 54.1387 241.197 53.3086 239.628 53.3086H236.905V57.2432Z" fill="#14303F"/>
<path d="M327.865 64L328.413 60.6797H325.391L324.843 64H323.631L324.179 60.6797H322.403L322.602 59.4844H324.37L324.868 56.4961H323.117L323.299 55.3008H325.059L325.607 51.9805H326.819L326.271 55.3008H329.292L329.84 51.9805H331.052L330.504 55.3008H332.297L332.098 56.4961H330.313L329.815 59.4844H331.583L331.384 60.6797H329.625L329.077 64H327.865ZM325.582 59.4844H328.604L329.102 56.4961H326.08L325.582 59.4844Z" fill="white"/>
<path d="M337.826 51.9805V64H336.315V53.541H336.249L333.327 55.4834V53.9727L336.315 51.9805H337.826Z" fill="white"/>
<path d="M345.28 51.9805V64H343.769V53.541H343.703L340.781 55.4834V53.9727L343.769 51.9805H345.28Z" fill="white"/>
<path d="M348.484 64L348.467 62.9043L352.568 58.5879C353.987 57.0771 354.668 56.2637 354.676 55.1514C354.668 53.9146 353.639 53.1177 352.286 53.1094C350.85 53.1177 349.953 54.0225 349.945 55.3672H348.534C348.517 53.2422 350.161 51.8145 352.335 51.8145C354.519 51.8145 356.062 53.2837 356.071 55.1514C356.062 56.4961 355.44 57.542 353.315 59.7334L350.559 62.5723V62.6719H356.287V64H348.484Z" fill="white"/>
<path d="M362.396 64.166C359.731 64.166 358.188 61.9248 358.196 57.9902C358.188 54.0889 359.748 51.8145 362.396 51.8145C365.036 51.8145 366.596 54.0889 366.596 57.9902C366.596 61.9248 365.061 64.166 362.396 64.166ZM359.64 57.9902C359.648 61.103 360.653 62.8379 362.396 62.8379C364.131 62.8379 365.144 61.103 365.135 57.9902C365.144 54.8774 364.123 53.1177 362.396 53.1094C360.669 53.1177 359.648 54.8774 359.64 57.9902Z" fill="white"/>
<path d="M372.506 64.166C370.34 64.166 368.696 62.8296 368.605 60.9785H370.049C370.157 62.0493 371.203 62.8462 372.506 62.8545C374.067 62.8462 375.196 61.709 375.196 60.1982C375.196 58.6377 374.025 57.4839 372.407 57.4756C371.394 57.459 370.605 57.7744 370.166 58.5547H368.721L369.568 51.9805H376.076V53.3086H370.813L370.365 56.8281H370.481C371.021 56.4131 371.826 56.1309 372.672 56.1309C374.963 56.1309 376.648 57.8242 376.657 60.165C376.648 62.4893 374.905 64.166 372.506 64.166Z" fill="white"/>
<path d="M382.65 64.166C380.483 64.166 378.84 62.8296 378.749 60.9785H380.193C380.301 62.0493 381.347 62.8462 382.65 62.8545C384.21 62.8462 385.339 61.709 385.339 60.1982C385.339 58.6377 384.169 57.4839 382.55 57.4756C381.538 57.459 380.749 57.7744 380.309 58.5547H378.865L379.711 51.9805H386.219V53.3086H380.957L380.508 56.8281H380.625C381.164 56.4131 381.969 56.1309 382.816 56.1309C385.107 56.1309 386.792 57.8242 386.8 60.165C386.792 62.4893 385.049 64.166 382.65 64.166Z" fill="white"/>
<path d="M469.626 64L470.174 60.6797H467.152L466.604 64H465.393L465.94 60.6797H464.164L464.363 59.4844H466.131L466.629 56.4961H464.878L465.061 55.3008H466.82L467.368 51.9805H468.58L468.032 55.3008H471.054L471.602 51.9805H472.813L472.266 55.3008H474.059L473.859 56.4961H472.075L471.577 59.4844H473.345L473.146 60.6797H471.386L470.838 64H469.626ZM467.343 59.4844H470.365L470.863 56.4961H467.841L467.343 59.4844Z" fill="#14303F"/>
<path d="M475.536 64V51.9805H482.774V53.3086H477.03V57.3262H482.227V58.6377H477.03V64H475.536Z" fill="#14303F"/>
<path d="M484.999 64V51.9805H492.237V53.3086H486.493V57.3262H491.689V58.6377H486.493V64H484.999Z" fill="#14303F"/>
<path d="M494.462 64V51.9805H501.7V53.3086H495.956V57.3262H501.152V58.6377H495.956V64H494.462Z" fill="#14303F"/>
<path d="M503.925 64V51.9805H511.163V53.3086H505.419V57.3262H510.615V58.6377H505.419V64H503.925Z" fill="#14303F"/>
<path d="M513.388 64V51.9805H520.626V53.3086H514.882V57.3262H520.078V58.6377H514.882V64H513.388Z" fill="#14303F"/>
<path d="M522.851 64V51.9805H530.089V53.3086H524.345V57.3262H529.541V58.6377H524.345V64H522.851Z" fill="#14303F"/>
</svg>
