<svg width="494" height="201" viewBox="0 0 494 201" fill="none" xmlns="http://www.w3.org/2000/svg">
<path d="M7.056 24.399C5.67 24.399 4.501 24.182 3.549 23.748C2.597 23.3 1.876 22.698 1.386 21.942C0.896001 21.172 0.651001 20.29 0.651001 19.296H3.99C3.99 19.688 4.095 20.052 4.305 20.388C4.529 20.724 4.865 20.997 5.313 21.207C5.761 21.403 6.342 21.501 7.056 21.501C7.7 21.501 8.239 21.417 8.673 21.249C9.107 21.081 9.436 20.85 9.66 20.556C9.884 20.248 9.996 19.898 9.996 19.506C9.996 19.016 9.786 18.631 9.366 18.351C8.946 18.057 8.267 17.868 7.329 17.784L6.174 17.679C4.648 17.553 3.43 17.077 2.52 16.251C1.61 15.425 1.155 14.333 1.155 12.975C1.155 11.995 1.386 11.148 1.848 10.434C2.324 9.72001 2.982 9.17401 3.822 8.79601C4.662 8.40401 5.656 8.20801 6.804 8.20801C8.008 8.20801 9.037 8.41801 9.891 8.83801C10.759 9.24401 11.424 9.82501 11.886 10.581C12.348 11.323 12.579 12.198 12.579 13.206H9.219C9.219 12.828 9.128 12.485 8.946 12.177C8.764 11.855 8.491 11.596 8.127 11.4C7.777 11.204 7.336 11.106 6.804 11.106C6.3 11.106 5.873 11.19 5.523 11.358C5.187 11.526 4.935 11.757 4.767 12.051C4.599 12.331 4.515 12.639 4.515 12.975C4.515 13.409 4.669 13.787 4.977 14.109C5.285 14.431 5.789 14.62 6.489 14.676L7.665 14.781C8.785 14.879 9.772 15.124 10.626 15.516C11.48 15.894 12.145 16.419 12.621 17.091C13.111 17.749 13.356 18.554 13.356 19.506C13.356 20.486 13.097 21.347 12.579 22.089C12.075 22.817 11.354 23.384 10.416 23.79C9.478 24.196 8.358 24.399 7.056 24.399Z" fill="#14303F"/>
<path d="M21.1468 24.399C20.1388 24.399 19.2428 24.245 18.4588 23.937C17.6748 23.615 17.0098 23.181 16.4638 22.635C15.9318 22.089 15.5258 21.466 15.2458 20.766C14.9658 20.052 14.8258 19.303 14.8258 18.519V18.036C14.8258 17.238 14.9658 16.482 15.2458 15.768C15.5398 15.04 15.9598 14.403 16.5058 13.857C17.0658 13.311 17.7378 12.884 18.5218 12.576C19.3058 12.254 20.1808 12.093 21.1468 12.093C22.1408 12.093 23.0228 12.254 23.7928 12.576C24.5768 12.884 25.2418 13.311 25.7878 13.857C26.3338 14.403 26.7538 15.04 27.0478 15.768C27.3418 16.482 27.4888 17.238 27.4888 18.036V18.519C27.4888 19.303 27.3488 20.052 27.0688 20.766C26.7888 21.466 26.3758 22.089 25.8298 22.635C25.2978 23.181 24.6398 23.615 23.8558 23.937C23.0718 24.245 22.1688 24.399 21.1468 24.399ZM21.1468 21.564C21.8048 21.564 22.3508 21.424 22.7848 21.144C23.2188 20.864 23.5478 20.472 23.7718 19.968C24.0098 19.464 24.1288 18.904 24.1288 18.288C24.1288 17.63 24.0098 17.056 23.7718 16.566C23.5338 16.062 23.1908 15.663 22.7428 15.369C22.3088 15.075 21.7768 14.928 21.1468 14.928C20.5308 14.928 19.9988 15.075 19.5508 15.369C19.1028 15.663 18.7598 16.062 18.5218 16.566C18.2978 17.056 18.1858 17.63 18.1858 18.288C18.1858 18.904 18.2978 19.464 18.5218 19.968C18.7458 20.472 19.0818 20.864 19.5298 21.144C19.9778 21.424 20.5168 21.564 21.1468 21.564Z" fill="#14303F"/>
<path d="M29.8338 24V12.492H32.5008V17.427H32.4378C32.4378 15.803 32.7808 14.55 33.4668 13.668C34.1668 12.786 35.1748 12.345 36.4908 12.345H36.9318V15.243H36.0918C35.1678 15.243 34.4538 15.495 33.9498 15.999C33.4458 16.489 33.1938 17.203 33.1938 18.141V24H29.8338Z" fill="#14303F"/>
<path d="M45.5416 24V20.598H44.9746V16.902C44.9746 16.314 44.8346 15.873 44.5546 15.579C44.2746 15.285 43.8266 15.138 43.2106 15.138C42.9026 15.138 42.4966 15.145 41.9926 15.159C41.4886 15.173 40.9706 15.194 40.4386 15.222C39.9066 15.25 39.4236 15.278 38.9896 15.306V12.471C39.3116 12.443 39.6896 12.415 40.1236 12.387C40.5576 12.359 41.0056 12.338 41.4676 12.324C41.9296 12.31 42.3636 12.303 42.7696 12.303C43.9456 12.303 44.9326 12.471 45.7306 12.807C46.5426 13.143 47.1586 13.654 47.5786 14.34C47.9986 15.012 48.2086 15.88 48.2086 16.944V24H45.5416ZM41.8666 24.294C41.0406 24.294 40.3126 24.147 39.6826 23.853C39.0666 23.559 38.5836 23.139 38.2336 22.593C37.8836 22.033 37.7086 21.368 37.7086 20.598C37.7086 19.758 37.9256 19.072 38.3596 18.54C38.7936 17.994 39.4026 17.595 40.1866 17.343C40.9706 17.077 41.8736 16.944 42.8956 16.944H45.3526V18.813H42.8746C42.2866 18.813 41.8316 18.96 41.5096 19.254C41.2016 19.534 41.0476 19.919 41.0476 20.409C41.0476 20.871 41.2016 21.249 41.5096 21.543C41.8316 21.823 42.2866 21.963 42.8746 21.963C43.2526 21.963 43.5886 21.9 43.8826 21.774C44.1906 21.634 44.4426 21.403 44.6386 21.081C44.8346 20.759 44.9466 20.311 44.9746 19.737L45.7726 20.577C45.7026 21.375 45.5066 22.047 45.1846 22.593C44.8766 23.139 44.4426 23.559 43.8826 23.853C43.3366 24.147 42.6646 24.294 41.8666 24.294Z" fill="#14303F"/>
<path d="M76.2343 24.105V21.417H79.8253C80.4693 21.417 80.9523 21.249 81.2743 20.913C81.5963 20.577 81.7573 20.101 81.7573 19.485C81.7573 18.869 81.5963 18.4 81.2743 18.078C80.9523 17.742 80.4693 17.574 79.8253 17.574H76.2343V15.495H79.6573C80.7213 15.495 81.6663 15.628 82.4923 15.894C83.3183 16.146 83.9693 16.559 84.4453 17.133C84.9213 17.707 85.1593 18.484 85.1593 19.464V19.758C85.1593 20.668 84.9493 21.452 84.5293 22.11C84.1093 22.754 83.4933 23.251 82.6813 23.601C81.8693 23.937 80.8613 24.105 79.6573 24.105H76.2343ZM73.2943 24.105V8.54401H76.6543V24.105H73.2943ZM76.2343 17.028V14.97H79.2583C79.9163 14.97 80.3923 14.802 80.6863 14.466C80.9803 14.13 81.1273 13.682 81.1273 13.122C81.1273 12.534 80.9803 12.072 80.6863 11.736C80.3923 11.4 79.9163 11.232 79.2583 11.232H76.2343V8.54401H79.0483C80.8123 8.54401 82.1633 8.91501 83.1013 9.65701C84.0533 10.399 84.5293 11.456 84.5293 12.828V13.143C84.5293 14.095 84.2843 14.858 83.7943 15.432C83.3183 16.006 82.6673 16.419 81.8413 16.671C81.0293 16.909 80.0983 17.028 79.0483 17.028H76.2343Z" fill="#14303F"/>
<path d="M93.1498 24.399C92.1418 24.399 91.2458 24.245 90.4618 23.937C89.6778 23.615 89.0128 23.181 88.4668 22.635C87.9348 22.089 87.5288 21.466 87.2488 20.766C86.9688 20.052 86.8288 19.303 86.8288 18.519V18.036C86.8288 17.238 86.9688 16.482 87.2488 15.768C87.5428 15.04 87.9628 14.403 88.5088 13.857C89.0688 13.311 89.7408 12.884 90.5248 12.576C91.3088 12.254 92.1838 12.093 93.1498 12.093C94.1438 12.093 95.0258 12.254 95.7958 12.576C96.5798 12.884 97.2448 13.311 97.7908 13.857C98.3368 14.403 98.7568 15.04 99.0508 15.768C99.3448 16.482 99.4918 17.238 99.4918 18.036V18.519C99.4918 19.303 99.3518 20.052 99.0718 20.766C98.7918 21.466 98.3788 22.089 97.8328 22.635C97.3008 23.181 96.6428 23.615 95.8588 23.937C95.0748 24.245 94.1718 24.399 93.1498 24.399ZM93.1498 21.564C93.8078 21.564 94.3538 21.424 94.7878 21.144C95.2218 20.864 95.5508 20.472 95.7748 19.968C96.0128 19.464 96.1318 18.904 96.1318 18.288C96.1318 17.63 96.0128 17.056 95.7748 16.566C95.5368 16.062 95.1938 15.663 94.7458 15.369C94.3118 15.075 93.7798 14.928 93.1498 14.928C92.5338 14.928 92.0018 15.075 91.5538 15.369C91.1058 15.663 90.7628 16.062 90.5248 16.566C90.3008 17.056 90.1888 17.63 90.1888 18.288C90.1888 18.904 90.3008 19.464 90.5248 19.968C90.7488 20.472 91.0848 20.864 91.5328 21.144C91.9808 21.424 92.5198 21.564 93.1498 21.564Z" fill="#14303F"/>
<path d="M101.984 24V8.67001H105.365V24H101.984ZM100.619 11.148V8.67001H105.365V11.148H100.619Z" fill="#14303F"/>
<path d="M113.207 24.378C112.395 24.378 111.653 24.231 110.981 23.937C110.323 23.643 109.749 23.237 109.259 22.719C108.769 22.187 108.391 21.564 108.125 20.85C107.873 20.136 107.747 19.366 107.747 18.54V18.057C107.747 17.231 107.866 16.461 108.104 15.747C108.356 15.033 108.713 14.41 109.175 13.878C109.651 13.332 110.218 12.912 110.876 12.618C111.534 12.31 112.269 12.156 113.081 12.156C114.005 12.156 114.803 12.359 115.475 12.765C116.147 13.157 116.672 13.745 117.05 14.529C117.428 15.299 117.638 16.251 117.68 17.385L116.798 16.566V8.67001H120.179V24H117.512V19.233H117.974C117.932 20.325 117.701 21.256 117.281 22.026C116.875 22.796 116.322 23.384 115.622 23.79C114.922 24.182 114.117 24.378 113.207 24.378ZM114.047 21.564C114.565 21.564 115.034 21.452 115.454 21.228C115.888 20.99 116.231 20.647 116.483 20.199C116.749 19.751 116.882 19.212 116.882 18.582V17.805C116.882 17.189 116.749 16.671 116.483 16.251C116.217 15.831 115.867 15.509 115.433 15.285C114.999 15.061 114.53 14.949 114.026 14.949C113.466 14.949 112.962 15.096 112.514 15.39C112.08 15.67 111.737 16.062 111.485 16.566C111.233 17.056 111.107 17.63 111.107 18.288C111.107 18.96 111.233 19.541 111.485 20.031C111.737 20.521 112.087 20.899 112.535 21.165C112.983 21.431 113.487 21.564 114.047 21.564Z" fill="#14303F"/>
<path d="M7.11897 61.3985C5.76097 61.3985 4.61297 61.1815 3.67497 60.7475C2.75097 60.3135 2.04397 59.7185 1.55397 58.9625C1.06397 58.1925 0.81897 57.3245 0.81897 56.3585H3.73797C3.73797 56.7645 3.84997 57.1635 4.07397 57.5555C4.29797 57.9335 4.65497 58.2415 5.14497 58.4795C5.64897 58.7175 6.30697 58.8365 7.11897 58.8365C7.84697 58.8365 8.45597 58.7315 8.94597 58.5215C9.43597 58.3115 9.79997 58.0385 10.038 57.7025C10.276 57.3525 10.395 56.9605 10.395 56.5265C10.395 55.9805 10.164 55.5465 9.70197 55.2245C9.23997 54.8885 8.52597 54.6785 7.55997 54.5945L6.21597 54.4895C4.74597 54.3635 3.56997 53.9085 2.68797 53.1245C1.81997 52.3265 1.38597 51.2765 1.38597 49.9745C1.38597 48.9945 1.61697 48.1545 2.07897 47.4545C2.54097 46.7405 3.18497 46.1945 4.01097 45.8165C4.85097 45.4245 5.83097 45.2285 6.95097 45.2285C8.11297 45.2285 9.11397 45.4315 9.95397 45.8375C10.794 46.2435 11.445 46.8175 11.907 47.5595C12.369 48.2875 12.6 49.1485 12.6 50.1425H9.68097C9.68097 49.7225 9.57597 49.3375 9.36597 48.9875C9.16997 48.6235 8.86897 48.3365 8.46297 48.1265C8.07097 47.9025 7.56697 47.7905 6.95097 47.7905C6.36297 47.7905 5.87297 47.8885 5.48097 48.0845C5.08897 48.2805 4.79497 48.5465 4.59897 48.8825C4.40297 49.2185 4.30497 49.5825 4.30497 49.9745C4.30497 50.4505 4.47997 50.8705 4.82997 51.2345C5.17997 51.5845 5.73297 51.7875 6.48897 51.8435L7.83297 51.9695C8.92497 52.0535 9.88397 52.2845 10.71 52.6625C11.536 53.0405 12.173 53.5515 12.621 54.1955C13.083 54.8395 13.314 55.6165 13.314 56.5265C13.314 57.4925 13.062 58.3465 12.558 59.0885C12.054 59.8165 11.333 60.3835 10.395 60.7895C9.47097 61.1955 8.37897 61.3985 7.11897 61.3985Z" fill="#14303F"/>
<path d="M21.2904 61.3985C20.2824 61.3985 19.3934 61.2375 18.6234 60.9155C17.8534 60.5935 17.2024 60.1595 16.6704 59.6135C16.1384 59.0535 15.7324 58.4235 15.4524 57.7235C15.1864 57.0235 15.0534 56.2955 15.0534 55.5395V55.0985C15.0534 54.3145 15.1934 53.5725 15.4734 52.8725C15.7674 52.1585 16.1804 51.5285 16.7124 50.9825C17.2584 50.4225 17.9164 49.9885 18.6864 49.6805C19.4564 49.3585 20.3244 49.1975 21.2904 49.1975C22.2564 49.1975 23.1244 49.3585 23.8944 49.6805C24.6644 49.9885 25.3154 50.4225 25.8474 50.9825C26.3934 51.5285 26.8064 52.1585 27.0864 52.8725C27.3664 53.5725 27.5064 54.3145 27.5064 55.0985V55.5395C27.5064 56.2955 27.3664 57.0235 27.0864 57.7235C26.8204 58.4235 26.4214 59.0535 25.8894 59.6135C25.3574 60.1595 24.7064 60.5935 23.9364 60.9155C23.1664 61.2375 22.2844 61.3985 21.2904 61.3985ZM21.2904 58.8995C22.0044 58.8995 22.6064 58.7455 23.0964 58.4375C23.5864 58.1155 23.9574 57.6885 24.2094 57.1565C24.4614 56.6105 24.5874 55.9945 24.5874 55.3085C24.5874 54.6085 24.4544 53.9925 24.1884 53.4605C23.9364 52.9145 23.5584 52.4875 23.0544 52.1795C22.5644 51.8575 21.9764 51.6965 21.2904 51.6965C20.6044 51.6965 20.0094 51.8575 19.5054 52.1795C19.0154 52.4875 18.6374 52.9145 18.3714 53.4605C18.1054 53.9925 17.9724 54.6085 17.9724 55.3085C17.9724 55.9945 18.0984 56.6105 18.3504 57.1565C18.6164 57.6885 18.9944 58.1155 19.4844 58.4375C19.9744 58.7455 20.5764 58.8995 21.2904 58.8995Z" fill="#14303F"/>
<path d="M30.0623 60.9995V49.5965H32.3723V54.4265H32.3093C32.3093 52.7885 32.6593 51.5495 33.3593 50.7095C34.0593 49.8695 35.0883 49.4495 36.4463 49.4495H36.8663V51.9905H36.0683C35.0883 51.9905 34.3253 52.2565 33.7793 52.7885C33.2473 53.3065 32.9813 54.0625 32.9813 55.0565V60.9995H30.0623Z" fill="#14303F"/>
<path d="M45.6666 60.9995V57.6185H45.1836V53.8595C45.1836 53.2015 45.0226 52.7115 44.7006 52.3895C44.3786 52.0675 43.8816 51.9065 43.2096 51.9065C42.8596 51.9065 42.4396 51.9135 41.9496 51.9275C41.4596 51.9415 40.9626 51.9625 40.4586 51.9905C39.9686 52.0045 39.5276 52.0255 39.1356 52.0535V49.5755C39.4576 49.5475 39.8216 49.5195 40.2276 49.4915C40.6336 49.4635 41.0466 49.4495 41.4666 49.4495C41.9006 49.4355 42.3066 49.4285 42.6846 49.4285C43.8606 49.4285 44.8336 49.5825 45.6036 49.8905C46.3876 50.1985 46.9756 50.6815 47.3676 51.3395C47.7736 51.9975 47.9766 52.8585 47.9766 53.9225V60.9995H45.6666ZM41.9916 61.2935C41.1656 61.2935 40.4376 61.1465 39.8076 60.8525C39.1916 60.5585 38.7086 60.1385 38.3586 59.5925C38.0226 59.0465 37.8546 58.3885 37.8546 57.6185C37.8546 56.7785 38.0576 56.0925 38.4636 55.5605C38.8836 55.0285 39.4646 54.6295 40.2066 54.3635C40.9626 54.0975 41.8446 53.9645 42.8526 53.9645H45.4986V55.7075H42.8106C42.1386 55.7075 41.6206 55.8755 41.2566 56.2115C40.9066 56.5335 40.7316 56.9535 40.7316 57.4715C40.7316 57.9895 40.9066 58.4095 41.2566 58.7315C41.6206 59.0535 42.1386 59.2145 42.8106 59.2145C43.2166 59.2145 43.5876 59.1445 43.9236 59.0045C44.2736 58.8505 44.5606 58.5985 44.7846 58.2485C45.0226 57.8845 45.1556 57.3945 45.1836 56.7785L45.8976 57.5975C45.8276 58.3955 45.6316 59.0675 45.3096 59.6135C45.0016 60.1595 44.5676 60.5795 44.0076 60.8735C43.4616 61.1535 42.7896 61.2935 41.9916 61.2935Z" fill="#14303F"/>
<path d="M79.2244 61.3985C77.8664 61.3985 76.7184 61.1815 75.7804 60.7475C74.8564 60.3135 74.1494 59.7185 73.6594 58.9625C73.1694 58.1925 72.9244 57.3245 72.9244 56.3585H75.8434C75.8434 56.7645 75.9554 57.1635 76.1794 57.5555C76.4034 57.9335 76.7604 58.2415 77.2504 58.4795C77.7544 58.7175 78.4124 58.8365 79.2244 58.8365C79.9524 58.8365 80.5614 58.7315 81.0514 58.5215C81.5414 58.3115 81.9054 58.0385 82.1434 57.7025C82.3814 57.3525 82.5004 56.9605 82.5004 56.5265C82.5004 55.9805 82.2694 55.5465 81.8074 55.2245C81.3454 54.8885 80.6314 54.6785 79.6654 54.5945L78.3214 54.4895C76.8514 54.3635 75.6754 53.9085 74.7934 53.1245C73.9254 52.3265 73.4914 51.2765 73.4914 49.9745C73.4914 48.9945 73.7224 48.1545 74.1844 47.4545C74.6464 46.7405 75.2904 46.1945 76.1164 45.8165C76.9564 45.4245 77.9364 45.2285 79.0564 45.2285C80.2184 45.2285 81.2194 45.4315 82.0594 45.8375C82.8994 46.2435 83.5504 46.8175 84.0124 47.5595C84.4744 48.2875 84.7054 49.1485 84.7054 50.1425H81.7864C81.7864 49.7225 81.6814 49.3375 81.4714 48.9875C81.2754 48.6235 80.9744 48.3365 80.5684 48.1265C80.1764 47.9025 79.6724 47.7905 79.0564 47.7905C78.4684 47.7905 77.9784 47.8885 77.5864 48.0845C77.1944 48.2805 76.9004 48.5465 76.7044 48.8825C76.5084 49.2185 76.4104 49.5825 76.4104 49.9745C76.4104 50.4505 76.5854 50.8705 76.9354 51.2345C77.2854 51.5845 77.8384 51.7875 78.5944 51.8435L79.9384 51.9695C81.0304 52.0535 81.9894 52.2845 82.8154 52.6625C83.6414 53.0405 84.2784 53.5515 84.7264 54.1955C85.1884 54.8395 85.4194 55.6165 85.4194 56.5265C85.4194 57.4925 85.1674 58.3465 84.6634 59.0885C84.1594 59.8165 83.4384 60.3835 82.5004 60.7895C81.5764 61.1955 80.4844 61.3985 79.2244 61.3985Z" fill="#14303F"/>
<path d="M93.0178 61.3985C92.0378 61.3985 91.1768 61.2305 90.4348 60.8945C89.7068 60.5585 89.0978 60.1105 88.6078 59.5505C88.1318 58.9765 87.7678 58.3395 87.5158 57.6395C87.2778 56.9395 87.1588 56.2255 87.1588 55.4975V55.0985C87.1588 54.3425 87.2778 53.6145 87.5158 52.9145C87.7678 52.2005 88.1318 51.5705 88.6078 51.0245C89.0978 50.4645 89.6998 50.0235 90.4138 49.7015C91.1278 49.3655 91.9538 49.1975 92.8918 49.1975C94.1238 49.1975 95.1528 49.4705 95.9788 50.0165C96.8188 50.5485 97.4488 51.2555 97.8688 52.1375C98.2888 53.0055 98.4988 53.9435 98.4988 54.9515V56.0015H88.3978V54.2165H96.6718L95.7688 55.0985C95.7688 54.3705 95.6638 53.7475 95.4538 53.2295C95.2438 52.7115 94.9218 52.3125 94.4878 52.0325C94.0678 51.7525 93.5358 51.6125 92.8918 51.6125C92.2478 51.6125 91.7018 51.7595 91.2538 52.0535C90.8058 52.3475 90.4628 52.7745 90.2248 53.3345C90.0008 53.8805 89.8888 54.5385 89.8888 55.3085C89.8888 56.0225 90.0008 56.6595 90.2248 57.2195C90.4488 57.7655 90.7918 58.1995 91.2538 58.5215C91.7158 58.8295 92.3038 58.9835 93.0178 58.9835C93.7318 58.9835 94.3128 58.8435 94.7608 58.5635C95.2088 58.2695 95.4958 57.9125 95.6218 57.4925H98.3098C98.1418 58.2765 97.8198 58.9625 97.3438 59.5505C96.8678 60.1385 96.2588 60.5935 95.5168 60.9155C94.7888 61.2375 93.9558 61.3985 93.0178 61.3985Z" fill="#14303F"/>
<path d="M100.937 60.9995V49.5965H103.247V54.4895H103.037C103.037 53.3415 103.184 52.3825 103.478 51.6125C103.772 50.8285 104.206 50.2405 104.78 49.8485C105.368 49.4425 106.096 49.2395 106.964 49.2395H107.09C107.972 49.2395 108.7 49.4425 109.274 49.8485C109.862 50.2405 110.296 50.8285 110.576 51.6125C110.87 52.3825 111.017 53.3415 111.017 54.4895H110.282C110.282 53.3415 110.429 52.3825 110.723 51.6125C111.031 50.8285 111.472 50.2405 112.046 49.8485C112.634 49.4425 113.362 49.2395 114.23 49.2395H114.356C115.238 49.2395 115.973 49.4425 116.561 49.8485C117.149 50.2405 117.59 50.8285 117.884 51.6125C118.192 52.3825 118.346 53.3415 118.346 54.4895V60.9995H115.427V54.2165C115.427 53.5025 115.245 52.9355 114.881 52.5155C114.517 52.0815 113.999 51.8645 113.327 51.8645C112.655 51.8645 112.116 52.0885 111.71 52.5365C111.304 52.9705 111.101 53.5585 111.101 54.3005V60.9995H108.182V54.2165C108.182 53.5025 108 52.9355 107.636 52.5155C107.272 52.0815 106.754 51.8645 106.082 51.8645C105.41 51.8645 104.871 52.0885 104.465 52.5365C104.059 52.9705 103.856 53.5585 103.856 54.3005V60.9995H100.937Z" fill="#14303F"/>
<path d="M122.012 60.9995V49.5965H124.931V60.9995H122.012ZM120.416 51.7805V49.5965H124.931V51.7805H120.416ZM123.083 48.2315C122.509 48.2315 122.082 48.0845 121.802 47.7905C121.536 47.4825 121.403 47.1045 121.403 46.6565C121.403 46.1805 121.536 45.7955 121.802 45.5015C122.082 45.2075 122.509 45.0605 123.083 45.0605C123.657 45.0605 124.077 45.2075 124.343 45.5015C124.609 45.7955 124.742 46.1805 124.742 46.6565C124.742 47.1045 124.609 47.4825 124.343 47.7905C124.077 48.0845 123.657 48.2315 123.083 48.2315Z" fill="#14303F"/>
<path d="M131.025 61.1045V58.7105H134.868C135.568 58.7105 136.1 58.5215 136.464 58.1435C136.828 57.7515 137.01 57.2195 137.01 56.5475C137.01 55.8755 136.828 55.3575 136.464 54.9935C136.1 54.6155 135.568 54.4265 134.868 54.4265H131.025V52.5995H134.658C135.68 52.5995 136.59 52.7255 137.388 52.9775C138.2 53.2155 138.83 53.6215 139.278 54.1955C139.74 54.7695 139.971 55.5395 139.971 56.5055V56.7995C139.971 57.7095 139.768 58.4865 139.362 59.1305C138.97 59.7605 138.375 60.2505 137.577 60.6005C136.793 60.9365 135.82 61.1045 134.658 61.1045H131.025ZM128.526 61.1045V45.5645H131.445V61.1045H128.526ZM131.025 53.9435V52.1165H134.301C135.015 52.1165 135.54 51.9275 135.876 51.5495C136.212 51.1715 136.38 50.6675 136.38 50.0375C136.38 49.4075 136.212 48.9035 135.876 48.5255C135.54 48.1475 135.015 47.9585 134.301 47.9585H131.025V45.5645H134.028C135.764 45.5645 137.08 45.9285 137.976 46.6565C138.886 47.3845 139.341 48.4275 139.341 49.7855V50.0795C139.341 51.0315 139.11 51.7945 138.648 52.3685C138.2 52.9285 137.577 53.3345 136.779 53.5865C135.981 53.8245 135.064 53.9435 134.028 53.9435H131.025Z" fill="#14303F"/>
<path d="M148.131 61.3985C147.123 61.3985 146.234 61.2375 145.464 60.9155C144.694 60.5935 144.043 60.1595 143.511 59.6135C142.979 59.0535 142.573 58.4235 142.293 57.7235C142.027 57.0235 141.894 56.2955 141.894 55.5395V55.0985C141.894 54.3145 142.034 53.5725 142.314 52.8725C142.608 52.1585 143.021 51.5285 143.553 50.9825C144.099 50.4225 144.757 49.9885 145.527 49.6805C146.297 49.3585 147.165 49.1975 148.131 49.1975C149.097 49.1975 149.965 49.3585 150.735 49.6805C151.505 49.9885 152.156 50.4225 152.688 50.9825C153.234 51.5285 153.647 52.1585 153.927 52.8725C154.207 53.5725 154.347 54.3145 154.347 55.0985V55.5395C154.347 56.2955 154.207 57.0235 153.927 57.7235C153.661 58.4235 153.262 59.0535 152.73 59.6135C152.198 60.1595 151.547 60.5935 150.777 60.9155C150.007 61.2375 149.125 61.3985 148.131 61.3985ZM148.131 58.8995C148.845 58.8995 149.447 58.7455 149.937 58.4375C150.427 58.1155 150.798 57.6885 151.05 57.1565C151.302 56.6105 151.428 55.9945 151.428 55.3085C151.428 54.6085 151.295 53.9925 151.029 53.4605C150.777 52.9145 150.399 52.4875 149.895 52.1795C149.405 51.8575 148.817 51.6965 148.131 51.6965C147.445 51.6965 146.85 51.8575 146.346 52.1795C145.856 52.4875 145.478 52.9145 145.212 53.4605C144.946 53.9925 144.813 54.6085 144.813 55.3085C144.813 55.9945 144.939 56.6105 145.191 57.1565C145.457 57.6885 145.835 58.1155 146.325 58.4375C146.815 58.7455 147.417 58.8995 148.131 58.8995Z" fill="#14303F"/>
<path d="M157.05 60.9995V45.6695H159.969V60.9995H157.05ZM155.622 47.8535V45.6695H159.969V47.8535H155.622Z" fill="#14303F"/>
<path d="M168.027 61.3775C167.229 61.3775 166.494 61.2305 165.822 60.9365C165.15 60.6425 164.569 60.2295 164.079 59.6975C163.589 59.1655 163.211 58.5495 162.945 57.8495C162.679 57.1355 162.546 56.3655 162.546 55.5395V55.0985C162.546 54.2865 162.672 53.5235 162.924 52.8095C163.19 52.0955 163.554 51.4725 164.016 50.9405C164.492 50.4085 165.059 49.9955 165.717 49.7015C166.389 49.3935 167.131 49.2395 167.943 49.2395C168.839 49.2395 169.623 49.4355 170.295 49.8275C170.981 50.2055 171.527 50.7795 171.933 51.5495C172.339 52.3195 172.563 53.2855 172.605 54.4475L171.744 53.4395V45.6695H174.663V60.9995H172.353V56.1485H172.857C172.815 57.3105 172.577 58.2835 172.143 59.0675C171.709 59.8375 171.135 60.4185 170.421 60.8105C169.721 61.1885 168.923 61.3775 168.027 61.3775ZM168.678 58.9205C169.252 58.9205 169.777 58.7945 170.253 58.5425C170.729 58.2765 171.107 57.8985 171.387 57.4085C171.681 56.9045 171.828 56.3165 171.828 55.6445V54.8045C171.828 54.1325 171.681 53.5725 171.387 53.1245C171.093 52.6625 170.708 52.3125 170.232 52.0745C169.756 51.8225 169.238 51.6965 168.678 51.6965C168.048 51.6965 167.488 51.8505 166.998 52.1585C166.522 52.4525 166.144 52.8725 165.864 53.4185C165.598 53.9645 165.465 54.6015 165.465 55.3295C165.465 56.0575 165.605 56.6945 165.885 57.2405C166.165 57.7725 166.543 58.1855 167.019 58.4795C167.509 58.7735 168.062 58.9205 168.678 58.9205Z" fill="#14303F"/>
<path d="M331.345 64.6154C326.528 64.6154 322.335 63.7371 318.765 61.9804C315.252 60.1671 312.56 57.7304 310.69 54.6704C308.82 51.6104 307.885 48.1538 307.885 44.3004H321.315C321.315 46.9071 322.193 49.0321 323.95 50.6754C325.707 52.2621 328.172 53.0554 331.345 53.0554C333.442 53.0554 335.227 52.6588 336.7 51.8654C338.173 51.0721 339.307 49.9954 340.1 48.6354C340.893 47.2188 341.29 45.6321 341.29 43.8754C341.29 41.1554 340.412 38.9171 338.655 37.1604C336.955 35.4038 334.518 34.5254 331.345 34.5254C329.645 34.5254 328.143 34.7804 326.84 35.2904C325.593 35.8004 324.517 36.4238 323.61 37.1604L317.32 26.5354L336.105 14.2954L335.34 12.8504H310.435V0.950434H352.255V13.8704L330.58 27.6404L323.78 25.7704C324.913 25.4304 326.103 25.1754 327.35 25.0054C328.653 24.7788 330.042 24.6654 331.515 24.6654C336.332 24.6654 340.468 25.4588 343.925 27.0454C347.382 28.6321 350.045 30.8704 351.915 33.7604C353.842 36.5938 354.805 39.9088 354.805 43.7054V44.7254C354.805 48.5221 353.842 51.9221 351.915 54.9254C350.045 57.9288 347.353 60.3088 343.84 62.0654C340.383 63.7654 336.218 64.6154 331.345 64.6154Z" fill="#14303F"/>
<path d="M389.216 64.7854C384.626 64.7854 380.688 64.0488 377.401 62.5754C374.114 61.0454 371.423 58.9204 369.326 56.2004C367.286 53.4238 365.756 50.2504 364.736 46.6804C363.773 43.1104 363.291 39.2854 363.291 35.2054V31.6354C363.291 21.3221 365.926 13.5588 371.196 8.34543C376.466 3.07543 384.229 0.44043 394.486 0.44043C396.583 0.44043 398.651 0.497096 400.691 0.610432C402.731 0.723764 404.714 0.893765 406.641 1.12043V12.7654C404.771 12.5954 402.759 12.4538 400.606 12.3404C398.453 12.1704 396.243 12.0854 393.976 12.0854C389.443 12.0854 385.873 12.8504 383.266 14.3804C380.659 15.8538 378.818 18.0921 377.741 21.0954C376.664 24.0988 376.126 27.8104 376.126 32.2304V38.6904L373.066 40.7304C373.123 36.4804 373.973 32.9388 375.616 30.1054C377.316 27.2154 379.639 25.0621 382.586 23.6454C385.533 22.2288 388.933 21.5204 392.786 21.5204C397.149 21.5204 400.918 22.3988 404.091 24.1554C407.264 25.8554 409.701 28.2638 411.401 31.3804C413.101 34.4971 413.951 38.1804 413.951 42.4304C413.951 46.9071 412.931 50.8454 410.891 54.2454C408.851 57.5888 405.961 60.1954 402.221 62.0654C398.538 63.8788 394.203 64.7854 389.216 64.7854ZM388.791 53.2254C391.284 53.2254 393.381 52.7721 395.081 51.8654C396.838 50.9588 398.169 49.7404 399.076 48.2104C400.039 46.6238 400.521 44.7821 400.521 42.6854C400.521 40.5321 400.068 38.6904 399.161 37.1604C398.254 35.5738 396.951 34.3554 395.251 33.5054C393.608 32.5988 391.568 32.1454 389.131 32.1454C386.921 32.1454 384.881 32.5421 383.011 33.3354C381.198 34.0721 379.753 35.2338 378.676 36.8204C377.599 38.3504 377.061 40.3054 377.061 42.6854C377.061 44.7254 377.486 46.5388 378.336 48.1254C379.243 49.7121 380.574 50.9588 382.331 51.8654C384.088 52.7721 386.241 53.2254 388.791 53.2254Z" fill="#14303F"/>
<path d="M421.136 63.0004V47.7854H436.096V63.0004H421.136Z" fill="#14303F"/>
<path d="M468.008 64.6154C463.078 64.6154 458.828 63.6804 455.258 61.8104C451.688 59.8838 448.939 57.3054 447.013 54.0754C445.143 50.8454 444.208 47.2754 444.208 43.3654H457.638C457.638 45.2921 458.063 46.9921 458.913 48.4654C459.819 49.8821 461.066 51.0154 462.653 51.8654C464.239 52.6588 466.053 53.0554 468.093 53.0554C470.359 53.0554 472.258 52.6021 473.788 51.6954C475.374 50.7321 476.593 49.4571 477.443 47.8704C478.293 46.2271 478.718 44.3854 478.718 42.3454C478.718 40.2488 478.293 38.4071 477.443 36.8204C476.649 35.1771 475.459 33.8738 473.873 32.9104C472.343 31.9471 470.473 31.4654 468.263 31.4654C466.223 31.4654 464.381 31.8904 462.738 32.7404C461.094 33.5904 459.876 34.6671 459.083 35.9704H445.993L449.138 0.950434H486.793V12.8504H454.663L460.018 9.28043L458.148 29.4254L454.918 28.5754C456.618 26.5354 458.658 24.8354 461.038 23.4754C463.474 22.0588 466.648 21.3504 470.558 21.3504C475.091 21.3504 478.944 22.2854 482.118 24.1554C485.348 25.9688 487.813 28.4338 489.513 31.5504C491.269 34.6104 492.148 38.0388 492.148 41.8354V42.9404C492.148 46.7371 491.213 50.2788 489.343 53.5654C487.473 56.8521 484.724 59.5154 481.098 61.5554C477.528 63.5954 473.164 64.6154 468.008 64.6154Z" fill="#14303F"/>
<path d="M6.55196 157.294C5.50196 157.294 4.47996 157.098 3.48596 156.706C2.50596 156.314 1.63796 155.754 0.881958 155.026L2.66696 152.884C3.22696 153.402 3.84996 153.822 4.53596 154.144C5.23596 154.452 5.92896 154.606 6.61496 154.606C7.42696 154.606 8.04296 154.445 8.46296 154.123C8.88296 153.801 9.09296 153.367 9.09296 152.821C9.09296 152.527 9.03696 152.282 8.92496 152.086C8.81296 151.89 8.65196 151.715 8.44196 151.561C8.24596 151.407 8.00096 151.267 7.70696 151.141C7.42696 151.015 7.11196 150.875 6.76196 150.721L4.68296 149.839C4.13696 149.615 3.62596 149.321 3.14996 148.957C2.68796 148.593 2.30296 148.145 1.99496 147.613C1.68696 147.067 1.53296 146.416 1.53296 145.66C1.53296 145.03 1.66596 144.442 1.93196 143.896C2.19796 143.336 2.56896 142.86 3.04496 142.468C3.52096 142.062 4.08796 141.747 4.74596 141.523C5.40396 141.285 6.12496 141.166 6.90896 141.166C7.83296 141.166 8.71496 141.341 9.55496 141.691C10.409 142.027 11.151 142.517 11.781 143.161L10.206 145.114C9.71596 144.708 9.20496 144.393 8.67296 144.169C8.14096 143.945 7.55296 143.833 6.90896 143.833C6.22296 143.833 5.67696 143.98 5.27096 144.274C4.86496 144.554 4.66196 144.953 4.66196 145.471C4.66196 145.737 4.72496 145.968 4.85096 146.164C4.99096 146.36 5.16596 146.535 5.37596 146.689C5.59996 146.843 5.85896 146.99 6.15296 147.13C6.44696 147.256 6.76196 147.382 7.09796 147.508L9.13496 148.369C10.101 148.761 10.864 149.279 11.424 149.923C11.984 150.567 12.264 151.456 12.264 152.59C12.264 153.22 12.131 153.822 11.865 154.396C11.613 154.97 11.242 155.474 10.752 155.908C10.262 156.328 9.65996 156.664 8.94596 156.916C8.24596 157.168 7.44796 157.294 6.55196 157.294Z" fill="#14303F"/>
<path d="M17.2835 145.24L17.4935 146.458H17.5774C18.0674 146.038 18.6065 145.681 19.1945 145.387C19.7965 145.093 20.4124 144.946 21.0424 144.946C21.7704 144.946 22.4145 145.093 22.9745 145.387C23.5485 145.667 24.0315 146.066 24.4235 146.584C24.8295 147.102 25.1375 147.732 25.3475 148.474C25.5575 149.202 25.6625 150.021 25.6625 150.931C25.6625 151.939 25.5225 152.842 25.2425 153.64C24.9625 154.424 24.5915 155.089 24.1295 155.635C23.6675 156.167 23.1355 156.58 22.5335 156.874C21.9315 157.154 21.3084 157.294 20.6644 157.294C20.1464 157.294 19.6425 157.182 19.1525 156.958C18.6625 156.734 18.1935 156.419 17.7455 156.013L17.8295 157.945V161.515H14.7635V145.24H17.2835ZM19.9715 154.753C20.6855 154.753 21.2805 154.452 21.7565 153.85C22.2465 153.234 22.4915 152.275 22.4915 150.973C22.4915 149.839 22.3025 148.978 21.9244 148.39C21.5605 147.788 20.9724 147.487 20.1604 147.487C19.7544 147.487 19.3624 147.592 18.9844 147.802C18.6204 147.998 18.2355 148.299 17.8295 148.705V153.871C18.2075 154.193 18.5785 154.424 18.9425 154.564C19.3065 154.69 19.6495 154.753 19.9715 154.753Z" fill="#14303F"/>
<path d="M33.1921 157.294C32.4641 157.294 31.7571 157.154 31.0711 156.874C30.3851 156.594 29.7831 156.195 29.2651 155.677C28.7471 155.145 28.3271 154.501 28.0051 153.745C27.6971 152.975 27.5431 152.107 27.5431 151.141C27.5431 150.161 27.6971 149.286 28.0051 148.516C28.3271 147.746 28.7471 147.102 29.2651 146.584C29.7831 146.052 30.3851 145.646 31.0711 145.366C31.7571 145.086 32.4641 144.946 33.1921 144.946C33.9341 144.946 34.6411 145.086 35.3131 145.366C35.9991 145.646 36.6011 146.052 37.1191 146.584C37.6371 147.102 38.0501 147.746 38.3581 148.516C38.6801 149.286 38.8411 150.161 38.8411 151.141C38.8411 152.107 38.6801 152.975 38.3581 153.745C38.0501 154.501 37.6371 155.145 37.1191 155.677C36.6011 156.195 35.9991 156.594 35.3131 156.874C34.6411 157.154 33.9341 157.294 33.1921 157.294ZM33.1921 154.774C33.9901 154.774 34.6061 154.445 35.0401 153.787C35.4741 153.129 35.6911 152.247 35.6911 151.141C35.6911 150.007 35.4741 149.111 35.0401 148.453C34.6061 147.795 33.9901 147.466 33.1921 147.466C32.3941 147.466 31.7781 147.795 31.3441 148.453C30.9101 149.111 30.6931 150.007 30.6931 151.141C30.6931 152.247 30.9101 153.129 31.3441 153.787C31.7781 154.445 32.3941 154.774 33.1921 154.774Z" fill="#14303F"/>
<path d="M48.6686 155.887C48.2626 156.293 47.7866 156.629 47.2406 156.895C46.7086 157.161 46.1486 157.294 45.5606 157.294C44.8326 157.294 44.1676 157.154 43.5656 156.874C42.9776 156.594 42.4736 156.188 42.0536 155.656C41.6336 155.124 41.3116 154.48 41.0876 153.724C40.8636 152.968 40.7516 152.107 40.7516 151.141C40.7516 150.175 40.8846 149.314 41.1506 148.558C41.4306 147.788 41.8016 147.137 42.2636 146.605C42.7256 146.073 43.2506 145.667 43.8386 145.387C44.4406 145.093 45.0566 144.946 45.6866 144.946C46.3586 144.946 46.9396 145.065 47.4296 145.303C47.9196 145.541 48.4026 145.905 48.8786 146.395H48.9626L49.2146 145.24H51.6296V161.515H48.5426V157.777L48.6686 155.887ZM46.3586 154.753C46.7646 154.753 47.1426 154.662 47.4926 154.48C47.8566 154.298 48.2066 153.983 48.5426 153.535V148.369C48.1786 148.047 47.8146 147.823 47.4506 147.697C47.0866 147.557 46.7226 147.487 46.3586 147.487C46.0226 147.487 45.7076 147.564 45.4136 147.718C45.1196 147.872 44.8606 148.103 44.6366 148.411C44.4266 148.719 44.2516 149.097 44.1116 149.545C43.9856 149.993 43.9226 150.511 43.9226 151.099C43.9226 153.535 44.7346 154.753 46.3586 154.753Z" fill="#14303F"/>
<path d="M57.8363 157.21C57.3183 157.21 56.8423 157.133 56.4083 156.979C55.9743 156.811 55.6033 156.58 55.2953 156.286C55.0013 155.978 54.7703 155.614 54.6023 155.194C54.4343 154.774 54.3503 154.312 54.3503 153.808C54.2803 152.366 54.7773 151.302 55.8413 150.616C56.9193 149.916 58.6763 149.531 61.1123 149.461C61.1683 148.971 61.0773 148.474 60.8393 147.97C60.5873 147.606 60.0133 147.424 59.1173 147.424C58.5713 147.424 57.9973 147.522 57.3953 147.718C56.8073 147.914 56.2473 148.187 55.7153 148.537L54.7913 146.332C55.4353 145.94 56.1773 145.611 57.0173 145.345C57.8713 145.079 58.7603 144.946 59.6843 144.946C62.6943 144.946 64.1993 146.675 64.1993 150.133V157H61.6793L61.4483 155.803H61.3853C60.8813 156.237 60.3283 156.58 59.7263 156.832C59.1383 157.084 58.5083 157.21 57.8363 157.21ZM58.7813 154.858C59.2293 154.844 59.6353 154.746 59.9993 154.564C60.3773 154.368 60.7483 154.088 61.1123 153.724V151.351C60.7483 151.379 60.3843 151.414 60.0203 151.456C59.6703 151.484 59.3273 151.526 58.9913 151.582C58.3193 151.68 57.8433 151.883 57.5633 152.191C57.2973 152.499 57.1713 152.863 57.1853 153.283C57.1993 153.773 57.3533 154.158 57.6473 154.438C57.9553 154.718 58.3333 154.858 58.7813 154.858Z" fill="#14303F"/>
<path d="M75.4633 141.46V147.571H81.3433V141.46H84.4303V157H81.3433V150.28H75.4633V157H72.3553V141.46H75.4633Z" fill="#14303F"/>
<path d="M90.8948 157.21C90.3768 157.21 89.9008 157.133 89.4668 156.979C89.0328 156.811 88.6618 156.58 88.3538 156.286C88.0598 155.978 87.8288 155.614 87.6608 155.194C87.4928 154.774 87.4088 154.312 87.4088 153.808C87.3388 152.366 87.8358 151.302 88.8998 150.616C89.9778 149.916 91.7348 149.531 94.1708 149.461C94.2268 148.971 94.1358 148.474 93.8978 147.97C93.6458 147.606 93.0718 147.424 92.1758 147.424C91.6298 147.424 91.0558 147.522 90.4538 147.718C89.8658 147.914 89.3058 148.187 88.7738 148.537L87.8498 146.332C88.4938 145.94 89.2358 145.611 90.0758 145.345C90.9298 145.079 91.8188 144.946 92.7428 144.946C95.7528 144.946 97.2578 146.675 97.2578 150.133V157H94.7378L94.5068 155.803H94.4438C93.9398 156.237 93.3868 156.58 92.7848 156.832C92.1968 157.084 91.5668 157.21 90.8948 157.21ZM91.8398 154.858C92.2878 154.844 92.6938 154.746 93.0578 154.564C93.4358 154.368 93.8068 154.088 94.1708 153.724V151.351C93.8068 151.379 93.4428 151.414 93.0788 151.456C92.7288 151.484 92.3858 151.526 92.0498 151.582C91.3778 151.68 90.9018 151.883 90.6218 152.191C90.3558 152.499 90.2298 152.863 90.2438 153.283C90.2578 153.773 90.4118 154.158 90.7058 154.438C91.0138 154.718 91.3918 154.858 91.8398 154.858Z" fill="#14303F"/>
<path d="M102.924 145.24L103.134 146.794H103.218C103.736 146.29 104.303 145.856 104.919 145.492C105.535 145.128 106.242 144.946 107.04 144.946C108.314 144.946 109.238 145.366 109.812 146.206C110.386 147.032 110.673 148.187 110.673 149.671V157H107.586V150.049C107.586 149.139 107.453 148.502 107.187 148.138C106.935 147.774 106.515 147.592 105.927 147.592C105.437 147.592 105.017 147.704 104.667 147.928C104.317 148.152 103.918 148.481 103.47 148.915V157H100.404V145.24H102.924Z" fill="#14303F"/>
<path d="M123.508 157.294C122.458 157.294 121.436 157.098 120.442 156.706C119.462 156.314 118.594 155.754 117.838 155.026L119.623 152.884C120.183 153.402 120.806 153.822 121.492 154.144C122.192 154.452 122.885 154.606 123.571 154.606C124.383 154.606 124.999 154.445 125.419 154.123C125.839 153.801 126.049 153.367 126.049 152.821C126.049 152.527 125.993 152.282 125.881 152.086C125.769 151.89 125.608 151.715 125.398 151.561C125.202 151.407 124.957 151.267 124.663 151.141C124.383 151.015 124.068 150.875 123.718 150.721L121.639 149.839C121.093 149.615 120.582 149.321 120.106 148.957C119.644 148.593 119.259 148.145 118.951 147.613C118.643 147.067 118.489 146.416 118.489 145.66C118.489 145.03 118.622 144.442 118.888 143.896C119.154 143.336 119.525 142.86 120.001 142.468C120.477 142.062 121.044 141.747 121.702 141.523C122.36 141.285 123.081 141.166 123.865 141.166C124.789 141.166 125.671 141.341 126.511 141.691C127.365 142.027 128.107 142.517 128.737 143.161L127.162 145.114C126.672 144.708 126.161 144.393 125.629 144.169C125.097 143.945 124.509 143.833 123.865 143.833C123.179 143.833 122.633 143.98 122.227 144.274C121.821 144.554 121.618 144.953 121.618 145.471C121.618 145.737 121.681 145.968 121.807 146.164C121.947 146.36 122.122 146.535 122.332 146.689C122.556 146.843 122.815 146.99 123.109 147.13C123.403 147.256 123.718 147.382 124.054 147.508L126.091 148.369C127.057 148.761 127.82 149.279 128.38 149.923C128.94 150.567 129.22 151.456 129.22 152.59C129.22 153.22 129.087 153.822 128.821 154.396C128.569 154.97 128.198 155.474 127.708 155.908C127.218 156.328 126.616 156.664 125.902 156.916C125.202 157.168 124.404 157.294 123.508 157.294Z" fill="#14303F"/>
<path d="M134.618 157.21C134.1 157.21 133.623 157.133 133.189 156.979C132.755 156.811 132.385 156.58 132.077 156.286C131.783 155.978 131.551 155.614 131.383 155.194C131.215 154.774 131.132 154.312 131.132 153.808C131.062 152.366 131.558 151.302 132.622 150.616C133.7 149.916 135.458 149.531 137.894 149.461C137.95 148.971 137.858 148.474 137.62 147.97C137.368 147.606 136.794 147.424 135.898 147.424C135.352 147.424 134.778 147.522 134.176 147.718C133.588 147.914 133.029 148.187 132.497 148.537L131.572 146.332C132.216 145.94 132.959 145.611 133.799 145.345C134.653 145.079 135.541 144.946 136.465 144.946C139.476 144.946 140.98 146.675 140.98 150.133V157H138.46L138.23 155.803H138.167C137.663 156.237 137.11 156.58 136.508 156.832C135.92 157.084 135.29 157.21 134.618 157.21ZM135.562 154.858C136.01 154.844 136.417 154.746 136.781 154.564C137.159 154.368 137.53 154.088 137.894 153.724V151.351C137.53 151.379 137.165 151.414 136.801 151.456C136.451 151.484 136.109 151.526 135.773 151.582C135.101 151.68 134.624 151.883 134.344 152.191C134.078 152.499 133.953 152.863 133.967 153.283C133.981 153.773 134.134 154.158 134.428 154.438C134.736 154.718 135.114 154.858 135.562 154.858Z" fill="#14303F"/>
<path d="M146.647 145.24L146.857 146.794H146.941C147.459 146.29 148.026 145.856 148.642 145.492C149.258 145.128 149.965 144.946 150.763 144.946C152.037 144.946 152.961 145.366 153.535 146.206C154.109 147.032 154.396 148.187 154.396 149.671V157H151.309V150.049C151.309 149.139 151.176 148.502 150.91 148.138C150.658 147.774 150.238 147.592 149.65 147.592C149.16 147.592 148.74 147.704 148.39 147.928C148.04 148.152 147.641 148.481 147.193 148.915V157H144.127V145.24H146.647Z" fill="#14303F"/>
<path d="M160.94 157.294C160.142 157.294 159.344 157.14 158.546 156.832C157.748 156.524 157.055 156.125 156.467 155.635L157.874 153.703C158.406 154.109 158.924 154.424 159.428 154.648C159.946 154.872 160.478 154.984 161.024 154.984C161.612 154.984 162.039 154.872 162.305 154.648C162.585 154.41 162.725 154.109 162.725 153.745C162.725 153.521 162.655 153.332 162.515 153.178C162.375 153.01 162.186 152.863 161.948 152.737C161.724 152.597 161.465 152.471 161.171 152.359C160.877 152.233 160.576 152.107 160.268 151.981C159.89 151.841 159.512 151.68 159.134 151.498C158.756 151.302 158.413 151.071 158.105 150.805C157.797 150.525 157.545 150.203 157.349 149.839C157.153 149.475 157.055 149.048 157.055 148.558C157.055 148.026 157.16 147.543 157.37 147.109C157.58 146.661 157.874 146.276 158.252 145.954C158.63 145.632 159.085 145.387 159.617 145.219C160.163 145.037 160.765 144.946 161.423 144.946C162.305 144.946 163.068 145.1 163.712 145.408C164.37 145.702 164.944 146.031 165.434 146.395L164.048 148.264C163.628 147.97 163.208 147.732 162.788 147.55C162.382 147.354 161.955 147.256 161.507 147.256C160.975 147.256 160.583 147.361 160.331 147.571C160.079 147.781 159.953 148.054 159.953 148.39C159.953 148.6 160.016 148.782 160.142 148.936C160.282 149.09 160.464 149.23 160.688 149.356C160.912 149.482 161.164 149.601 161.444 149.713C161.738 149.811 162.039 149.916 162.347 150.028C162.739 150.182 163.124 150.35 163.502 150.532C163.894 150.714 164.244 150.938 164.552 151.204C164.874 151.47 165.133 151.799 165.329 152.191C165.525 152.569 165.623 153.031 165.623 153.577C165.623 154.095 165.518 154.578 165.308 155.026C165.112 155.474 164.818 155.866 164.426 156.202C164.034 156.538 163.544 156.804 162.956 157C162.382 157.196 161.71 157.294 160.94 157.294Z" fill="#14303F"/>
<path d="M176.158 141.46L180.673 149.734L182.227 153.094H182.332C182.248 152.282 182.157 151.393 182.059 150.427C181.975 149.461 181.933 148.537 181.933 147.655V141.46H184.873V157H181.723L177.229 148.684L175.654 145.345H175.549C175.619 146.185 175.696 147.074 175.78 148.012C175.878 148.95 175.927 149.867 175.927 150.763V157H172.987V141.46H176.158Z" fill="#14303F"/>
<path d="M193.568 157.294C192.756 157.294 191.993 157.154 191.279 156.874C190.565 156.594 189.942 156.195 189.41 155.677C188.892 155.145 188.479 154.501 188.171 153.745C187.877 152.975 187.73 152.107 187.73 151.141C187.73 150.189 187.884 149.335 188.192 148.579C188.5 147.809 188.906 147.158 189.41 146.626C189.928 146.08 190.516 145.667 191.174 145.387C191.832 145.093 192.511 144.946 193.211 144.946C194.023 144.946 194.73 145.086 195.332 145.366C195.948 145.646 196.459 146.038 196.865 146.542C197.285 147.046 197.6 147.641 197.81 148.327C198.02 149.013 198.125 149.762 198.125 150.574C198.125 150.854 198.111 151.127 198.083 151.393C198.055 151.645 198.02 151.841 197.978 151.981H190.733C190.859 152.947 191.209 153.682 191.783 154.186C192.371 154.676 193.106 154.921 193.988 154.921C194.478 154.921 194.933 154.851 195.353 154.711C195.787 154.571 196.214 154.368 196.634 154.102L197.684 155.992C197.096 156.398 196.452 156.72 195.752 156.958C195.052 157.182 194.324 157.294 193.568 157.294ZM195.479 149.944C195.479 149.146 195.297 148.516 194.933 148.054C194.569 147.578 194.009 147.34 193.253 147.34C192.637 147.34 192.084 147.564 191.594 148.012C191.104 148.446 190.803 149.09 190.691 149.944H195.479Z" fill="#14303F"/>
<path d="M205.581 157.294C204.853 157.294 204.146 157.154 203.46 156.874C202.774 156.594 202.172 156.195 201.654 155.677C201.136 155.145 200.716 154.501 200.394 153.745C200.086 152.975 199.932 152.107 199.932 151.141C199.932 150.161 200.086 149.286 200.394 148.516C200.716 147.746 201.136 147.102 201.654 146.584C202.172 146.052 202.774 145.646 203.46 145.366C204.146 145.086 204.853 144.946 205.581 144.946C206.323 144.946 207.03 145.086 207.702 145.366C208.388 145.646 208.99 146.052 209.508 146.584C210.026 147.102 210.439 147.746 210.747 148.516C211.069 149.286 211.23 150.161 211.23 151.141C211.23 152.107 211.069 152.975 210.747 153.745C210.439 154.501 210.026 155.145 209.508 155.677C208.99 156.195 208.388 156.594 207.702 156.874C207.03 157.154 206.323 157.294 205.581 157.294ZM205.581 154.774C206.379 154.774 206.995 154.445 207.429 153.787C207.863 153.129 208.08 152.247 208.08 151.141C208.08 150.007 207.863 149.111 207.429 148.453C206.995 147.795 206.379 147.466 205.581 147.466C204.783 147.466 204.167 147.795 203.733 148.453C203.299 149.111 203.082 150.007 203.082 151.141C203.082 152.247 203.299 153.129 203.733 153.787C204.167 154.445 204.783 154.774 205.581 154.774Z" fill="#14303F"/>
<path d="M223.967 141.46C224.765 141.46 225.507 141.523 226.193 141.649C226.879 141.775 227.474 141.985 227.978 142.279C228.482 142.573 228.874 142.965 229.154 143.455C229.448 143.945 229.595 144.554 229.595 145.282C229.595 145.632 229.546 145.982 229.448 146.332C229.35 146.682 229.21 147.011 229.028 147.319C228.846 147.627 228.622 147.9 228.356 148.138C228.104 148.362 227.81 148.53 227.474 148.642V148.747C228.314 148.943 229.007 149.342 229.553 149.944C230.113 150.546 230.393 151.372 230.393 152.422C230.393 153.206 230.239 153.885 229.931 154.459C229.623 155.033 229.196 155.509 228.65 155.887C228.118 156.265 227.481 156.545 226.739 156.727C226.011 156.909 225.22 157 224.366 157H218.822V141.46H223.967ZM223.736 147.781C224.744 147.781 225.465 147.599 225.899 147.235C226.347 146.871 226.571 146.374 226.571 145.744C226.571 145.058 226.34 144.568 225.878 144.274C225.416 143.98 224.716 143.833 223.778 143.833H221.93V147.781H223.736ZM224.093 154.606C225.157 154.606 225.969 154.417 226.529 154.039C227.089 153.647 227.369 153.045 227.369 152.233C227.369 151.477 227.096 150.931 226.55 150.595C226.004 150.259 225.185 150.091 224.093 150.091H221.93V154.606H224.093Z" fill="#14303F"/>
<path d="M237.778 157.294C237.05 157.294 236.343 157.154 235.657 156.874C234.971 156.594 234.369 156.195 233.851 155.677C233.333 155.145 232.913 154.501 232.591 153.745C232.283 152.975 232.129 152.107 232.129 151.141C232.129 150.161 232.283 149.286 232.591 148.516C232.913 147.746 233.333 147.102 233.851 146.584C234.369 146.052 234.971 145.646 235.657 145.366C236.343 145.086 237.05 144.946 237.778 144.946C238.52 144.946 239.227 145.086 239.899 145.366C240.585 145.646 241.187 146.052 241.705 146.584C242.223 147.102 242.636 147.746 242.944 148.516C243.266 149.286 243.427 150.161 243.427 151.141C243.427 152.107 243.266 152.975 242.944 153.745C242.636 154.501 242.223 155.145 241.705 155.677C241.187 156.195 240.585 156.594 239.899 156.874C239.227 157.154 238.52 157.294 237.778 157.294ZM237.778 154.774C238.576 154.774 239.192 154.445 239.626 153.787C240.06 153.129 240.277 152.247 240.277 151.141C240.277 150.007 240.06 149.111 239.626 148.453C239.192 147.795 238.576 147.466 237.778 147.466C236.98 147.466 236.364 147.795 235.93 148.453C235.496 149.111 235.279 150.007 235.279 151.141C235.279 152.247 235.496 153.129 235.93 153.787C236.364 154.445 236.98 154.774 237.778 154.774Z" fill="#14303F"/>
<path d="M246.01 140.242H249.076V157H246.01V140.242Z" fill="#14303F"/>
<path d="M256.771 157.294C256.043 157.294 255.378 157.154 254.776 156.874C254.188 156.594 253.684 156.188 253.264 155.656C252.844 155.124 252.522 154.48 252.298 153.724C252.074 152.968 251.962 152.107 251.962 151.141C251.962 150.175 252.095 149.314 252.361 148.558C252.641 147.788 253.012 147.137 253.474 146.605C253.936 146.073 254.461 145.667 255.049 145.387C255.651 145.093 256.267 144.946 256.897 144.946C257.569 144.946 258.129 145.065 258.577 145.303C259.025 145.527 259.459 145.835 259.879 146.227L259.753 144.379V140.242H262.84V157H260.341L260.089 155.782H260.026C259.592 156.202 259.095 156.559 258.535 156.853C257.989 157.147 257.401 157.294 256.771 157.294ZM257.569 154.753C257.975 154.753 258.353 154.662 258.703 154.48C259.067 154.298 259.417 153.983 259.753 153.535V148.369C259.389 148.047 259.025 147.823 258.661 147.697C258.297 147.557 257.933 147.487 257.569 147.487C257.233 147.487 256.918 147.564 256.624 147.718C256.33 147.872 256.071 148.103 255.847 148.411C255.637 148.719 255.462 149.097 255.322 149.545C255.196 149.993 255.133 150.511 255.133 151.099C255.133 153.535 255.945 154.753 257.569 154.753Z" fill="#14303F"/>
<path d="M434.493 158.785H431.868V149.566H430.398V157.987H427.815V139.822H430.398V147.34H431.868V139.444H434.493V158.785ZM427.122 142.384V144.589H417.882V142.384H421.179V139.99H423.909V142.384H427.122ZM422.544 145.429C423.16 145.429 423.727 145.541 424.245 145.765C424.763 145.989 425.211 146.311 425.589 146.731C425.967 147.137 426.261 147.627 426.471 148.201C426.681 148.761 426.786 149.377 426.786 150.049C426.786 150.721 426.681 151.337 426.471 151.897C426.261 152.457 425.967 152.947 425.589 153.367C425.211 153.773 424.763 154.088 424.245 154.312C423.727 154.536 423.16 154.648 422.544 154.648C421.928 154.648 421.361 154.536 420.843 154.312C420.325 154.088 419.877 153.773 419.499 153.367C419.121 152.947 418.827 152.457 418.617 151.897C418.407 151.337 418.302 150.721 418.302 150.049C418.302 149.377 418.407 148.761 418.617 148.201C418.827 147.627 419.121 147.137 419.499 146.731C419.877 146.311 420.325 145.989 420.843 145.765C421.361 145.541 421.928 145.429 422.544 145.429ZM422.544 152.338C423.076 152.338 423.51 152.142 423.846 151.75C424.182 151.344 424.35 150.777 424.35 150.049C424.35 149.321 424.182 148.754 423.846 148.348C423.51 147.942 423.076 147.739 422.544 147.739C422.012 147.739 421.578 147.942 421.242 148.348C420.906 148.754 420.738 149.321 420.738 150.049C420.738 150.777 420.906 151.344 421.242 151.75C421.578 152.142 422.012 152.338 422.544 152.338Z" fill="#14303F"/>
<path d="M453.328 158.827H450.535V139.486H453.328V158.827ZM446.881 151.834C447.287 151.806 447.686 151.778 448.078 151.75C448.484 151.708 448.89 151.659 449.296 151.603L449.464 153.598C448.442 153.766 447.406 153.906 446.356 154.018C445.306 154.116 444.263 154.193 443.227 154.249C442.205 154.305 441.204 154.347 440.224 154.375C439.258 154.389 438.341 154.396 437.473 154.396L437.179 152.128H439.363V143.476H437.683V141.25H448.54V143.476H446.881V151.834ZM442.051 152.065C442.415 152.065 442.772 152.058 443.122 152.044C443.486 152.03 443.85 152.016 444.214 152.002V143.476H442.051V152.065Z" fill="#14303F"/>
<path d="M466.935 146.437V144.106H469.938V139.465H472.71V153.703H469.938V146.437H466.935ZM467.502 150.742C466.844 150.854 466.193 150.945 465.549 151.015C464.919 151.071 464.261 151.12 463.575 151.162C462.889 151.19 462.161 151.211 461.391 151.225C460.621 151.225 459.781 151.225 458.871 151.225H457.275V144.862H463.239V142.951H457.254V140.746H465.969V146.941H460.026V148.999C460.768 148.999 461.454 148.992 462.084 148.978C462.714 148.964 463.316 148.936 463.89 148.894C464.478 148.852 465.045 148.803 465.591 148.747C466.151 148.691 466.718 148.621 467.292 148.537L467.502 150.742ZM473.193 158.47H459.858V152.569H462.63V156.265H473.193V158.47Z" fill="#14303F"/>
<path d="M491.062 149.545V158.785H488.29V139.444H491.062V147.235H493.666V149.545H491.062ZM483.397 150.133C483.621 148.733 483.761 147.515 483.817 146.479C483.873 145.429 483.901 144.463 483.901 143.581H476.677V141.376H486.631V142.951C486.631 143.889 486.61 144.96 486.568 146.164C486.526 147.368 486.372 148.768 486.106 150.364L483.397 150.133ZM481.885 152.548C482.823 152.52 483.754 152.478 484.678 152.422C485.616 152.352 486.526 152.261 487.408 152.149L487.555 154.144C486.575 154.312 485.574 154.452 484.552 154.564C483.544 154.662 482.543 154.739 481.549 154.795C480.555 154.837 479.582 154.872 478.63 154.9C477.678 154.914 476.782 154.921 475.942 154.921L475.69 152.653H477.349C477.923 152.653 478.525 152.646 479.155 152.632V146.92H481.885V152.548Z" fill="#14303F"/>
<path d="M6.42595 196.273C5.36195 196.273 4.35395 196.077 3.40195 195.685C2.46395 195.279 1.63795 194.719 0.92395 194.005L2.35195 192.325C2.91195 192.885 3.54895 193.333 4.26295 193.669C4.97695 193.991 5.71195 194.152 6.46795 194.152C7.40595 194.152 8.12695 193.956 8.63095 193.564C9.13495 193.172 9.38695 192.64 9.38695 191.968C9.38695 191.618 9.32395 191.324 9.19795 191.086C9.08595 190.834 8.91795 190.617 8.69395 190.435C8.46995 190.253 8.20395 190.092 7.89595 189.952C7.60195 189.798 7.27295 189.644 6.90895 189.49L4.76695 188.566C4.38895 188.412 4.01095 188.223 3.63295 187.999C3.26895 187.761 2.93295 187.481 2.62495 187.159C2.33095 186.823 2.08595 186.438 1.88995 186.004C1.70795 185.57 1.61695 185.073 1.61695 184.513C1.61695 183.897 1.74295 183.33 1.99495 182.812C2.24695 182.294 2.59695 181.846 3.04495 181.468C3.50695 181.09 4.04595 180.796 4.66195 180.586C5.29195 180.362 5.97095 180.25 6.69895 180.25C7.62295 180.25 8.48395 180.425 9.28195 180.775C10.094 181.125 10.794 181.601 11.382 182.203L10.101 183.757C9.61095 183.323 9.09295 182.987 8.54695 182.749C8.00095 182.497 7.38495 182.371 6.69895 182.371C5.90095 182.371 5.26395 182.546 4.78795 182.896C4.32595 183.246 4.09495 183.736 4.09495 184.366C4.09495 184.702 4.16495 184.989 4.30495 185.227C4.45895 185.451 4.64795 185.654 4.87195 185.836C5.10995 186.018 5.37595 186.179 5.66995 186.319C5.97795 186.445 6.28595 186.571 6.59395 186.697L8.71495 187.6C9.17695 187.796 9.59695 188.02 9.97495 188.272C10.367 188.51 10.703 188.797 10.983 189.133C11.263 189.469 11.48 189.854 11.634 190.288C11.788 190.708 11.865 191.205 11.865 191.779C11.865 192.395 11.739 192.976 11.487 193.522C11.235 194.068 10.871 194.544 10.395 194.95C9.93295 195.356 9.36595 195.678 8.69395 195.916C8.02195 196.154 7.26595 196.273 6.42595 196.273Z" fill="#14303F"/>
<path d="M14.6033 184.45H16.5773L16.7663 185.71H16.8293C17.3333 185.29 17.8863 184.926 18.4883 184.618C19.1043 184.31 19.7343 184.156 20.3783 184.156C21.1203 184.156 21.7713 184.296 22.3313 184.576C22.9053 184.856 23.3813 185.255 23.7593 185.773C24.1513 186.277 24.4453 186.893 24.6413 187.621C24.8513 188.349 24.9563 189.154 24.9563 190.036C24.9563 191.016 24.8163 191.898 24.5363 192.682C24.2703 193.452 23.9063 194.103 23.4443 194.635C22.9823 195.167 22.4503 195.573 21.8483 195.853C21.2603 196.133 20.6373 196.273 19.9793 196.273C19.4613 196.273 18.9433 196.161 18.4253 195.937C17.9213 195.713 17.4243 195.391 16.9343 194.971L16.9973 196.945V200.683H14.6033V184.45ZM19.5173 194.278C20.3573 194.278 21.0573 193.921 21.6173 193.207C22.1773 192.479 22.4573 191.436 22.4573 190.078C22.4573 188.846 22.2473 187.887 21.8273 187.201C21.4073 186.515 20.7143 186.172 19.7483 186.172C19.3003 186.172 18.8523 186.291 18.4043 186.529C17.9563 186.753 17.4873 187.103 16.9973 187.579V193.228C17.4453 193.62 17.8863 193.893 18.3203 194.047C18.7543 194.201 19.1533 194.278 19.5173 194.278Z" fill="#14303F"/>
<path d="M32.4509 196.273C31.7369 196.273 31.0509 196.14 30.3929 195.874C29.7349 195.594 29.1539 195.202 28.6499 194.698C28.1599 194.18 27.7609 193.55 27.4529 192.808C27.1589 192.052 27.0119 191.198 27.0119 190.246C27.0119 189.28 27.1589 188.419 27.4529 187.663C27.7609 186.907 28.1599 186.27 28.6499 185.752C29.1539 185.234 29.7349 184.842 30.3929 184.576C31.0509 184.296 31.7369 184.156 32.4509 184.156C33.1649 184.156 33.8509 184.296 34.5089 184.576C35.1669 184.842 35.7409 185.234 36.2309 185.752C36.7349 186.27 37.1339 186.907 37.4279 187.663C37.7359 188.419 37.8899 189.28 37.8899 190.246C37.8899 191.198 37.7359 192.052 37.4279 192.808C37.1339 193.55 36.7349 194.18 36.2309 194.698C35.7409 195.202 35.1669 195.594 34.5089 195.874C33.8509 196.14 33.1649 196.273 32.4509 196.273ZM32.4509 194.299C32.9129 194.299 33.3259 194.201 33.6899 194.005C34.0539 193.809 34.3619 193.536 34.6139 193.186C34.8659 192.836 35.0619 192.409 35.2019 191.905C35.3419 191.401 35.4119 190.848 35.4119 190.246C35.4119 189.014 35.1459 188.027 34.6139 187.285C34.0959 186.529 33.3749 186.151 32.4509 186.151C31.5269 186.151 30.8059 186.529 30.2879 187.285C29.7699 188.027 29.5109 189.014 29.5109 190.246C29.5109 190.848 29.5809 191.401 29.7209 191.905C29.8609 192.409 30.0569 192.836 30.3089 193.186C30.5609 193.536 30.8689 193.809 31.2329 194.005C31.5969 194.201 32.0029 194.299 32.4509 194.299Z" fill="#14303F"/>
<path d="M47.9123 196.756L48.0173 194.761C47.5693 195.195 47.0653 195.559 46.5053 195.853C45.9453 196.133 45.3503 196.273 44.7203 196.273C43.2363 196.273 42.0673 195.762 41.2133 194.74C40.3733 193.704 39.9533 192.206 39.9533 190.246C39.9533 189.294 40.0863 188.447 40.3523 187.705C40.6323 186.949 41.0033 186.312 41.4653 185.794C41.9273 185.262 42.4523 184.856 43.0403 184.576C43.6423 184.296 44.2653 184.156 44.9093 184.156C45.5813 184.156 46.1623 184.275 46.6523 184.513C47.1423 184.751 47.6323 185.101 48.1223 185.563H48.2063L48.4163 184.45H50.3273V200.683H47.9123V196.756ZM45.2873 194.278C46.2253 194.278 47.1003 193.809 47.9123 192.871V187.222C47.4783 186.83 47.0513 186.557 46.6313 186.403C46.2253 186.249 45.8053 186.172 45.3713 186.172C44.9653 186.172 44.5803 186.27 44.2163 186.466C43.8663 186.648 43.5583 186.914 43.2923 187.264C43.0403 187.6 42.8373 188.02 42.6833 188.524C42.5293 189.014 42.4523 189.574 42.4523 190.204C42.4523 191.52 42.6903 192.528 43.1663 193.228C43.6563 193.928 44.3633 194.278 45.2873 194.278Z" fill="#14303F"/>
<path d="M56.6668 196.273C56.1628 196.273 55.7008 196.196 55.2808 196.042C54.8748 195.888 54.5178 195.664 54.2098 195.37C53.9158 195.076 53.6848 194.726 53.5168 194.32C53.3488 193.9 53.2648 193.438 53.2648 192.934C53.2648 192.29 53.3838 191.674 53.6218 191.086C53.8598 190.498 54.2798 190.022 54.8818 189.658C55.4698 189.336 56.1978 189.112 57.0658 188.986C57.9478 188.846 58.9838 188.734 60.1738 188.65C60.1738 188.314 60.1388 187.992 60.0688 187.684C59.9988 187.376 59.8798 187.11 59.7118 186.886C59.5438 186.648 59.3128 186.466 59.0188 186.34C58.7388 186.2 58.3888 186.13 57.9688 186.13C57.3388 186.13 56.7228 186.256 56.1208 186.508C55.5188 186.746 54.9728 187.026 54.4828 187.348L53.7688 185.584C54.3708 185.206 55.0568 184.877 55.8268 184.597C56.6108 184.303 57.4648 184.156 58.3888 184.156C59.8308 184.156 60.8878 184.583 61.5598 185.437C62.2458 186.277 62.5888 187.481 62.5888 189.049V196H60.6148L60.4048 194.74H60.3418C59.8098 195.188 59.2428 195.559 58.6408 195.853C58.0388 196.133 57.3808 196.273 56.6668 196.273ZM57.4018 194.362C57.9058 194.362 58.3748 194.257 58.8088 194.047C59.2428 193.837 59.6978 193.515 60.1738 193.081V190.225C59.6138 190.295 59.1238 190.351 58.7038 190.393C58.2838 190.435 57.9128 190.491 57.5908 190.561C57.2688 190.617 56.9888 190.694 56.7508 190.792C56.5128 190.876 56.3028 191.002 56.1208 191.17C55.8128 191.45 55.6448 191.73 55.6168 192.01C55.6028 192.276 55.5958 192.528 55.5958 192.766C55.5958 193.354 55.7638 193.767 56.0998 194.005C56.4498 194.243 56.8838 194.362 57.4018 194.362Z" fill="#14303F"/>
<path d="M70.9432 180.544H73.3792V186.844H79.9942V180.544H82.4302V196H79.9942V188.965H73.3792V196H70.9432V180.544Z" fill="#14303F"/>
<path d="M88.9871 196.273C88.4831 196.273 88.0211 196.196 87.6011 196.042C87.1951 195.888 86.8381 195.664 86.5301 195.37C86.2361 195.076 86.0051 194.726 85.8371 194.32C85.6691 193.9 85.5851 193.438 85.5851 192.934C85.5851 192.29 85.7041 191.674 85.9421 191.086C86.1801 190.498 86.6001 190.022 87.2021 189.658C87.7901 189.336 88.5181 189.112 89.3861 188.986C90.2681 188.846 91.3041 188.734 92.4941 188.65C92.4941 188.314 92.4591 187.992 92.3891 187.684C92.3191 187.376 92.2001 187.11 92.0321 186.886C91.8641 186.648 91.6331 186.466 91.3391 186.34C91.0591 186.2 90.7091 186.13 90.2891 186.13C89.6591 186.13 89.0431 186.256 88.4411 186.508C87.8391 186.746 87.2931 187.026 86.8031 187.348L86.0891 185.584C86.6911 185.206 87.3771 184.877 88.1471 184.597C88.9311 184.303 89.7851 184.156 90.7091 184.156C92.1511 184.156 93.2081 184.583 93.8801 185.437C94.5661 186.277 94.9091 187.481 94.9091 189.049V196H92.9351L92.7251 194.74H92.6621C92.1301 195.188 91.5631 195.559 90.9611 195.853C90.3591 196.133 89.7011 196.273 88.9871 196.273ZM89.7221 194.362C90.2261 194.362 90.6951 194.257 91.1291 194.047C91.5631 193.837 92.0181 193.515 92.4941 193.081V190.225C91.9341 190.295 91.4441 190.351 91.0241 190.393C90.6041 190.435 90.2331 190.491 89.9111 190.561C89.5891 190.617 89.3091 190.694 89.0711 190.792C88.8331 190.876 88.6231 191.002 88.4411 191.17C88.1331 191.45 87.9651 191.73 87.9371 192.01C87.9231 192.276 87.9161 192.528 87.9161 192.766C87.9161 193.354 88.0841 193.767 88.4201 194.005C88.7701 194.243 89.2041 194.362 89.7221 194.362Z" fill="#14303F"/>
<path d="M98.3362 184.45H100.31L100.499 186.046H100.562C101.094 185.528 101.668 185.087 102.284 184.723C102.9 184.345 103.6 184.156 104.384 184.156C105.616 184.156 106.512 184.548 107.072 185.332C107.646 186.116 107.933 187.25 107.933 188.734V196H105.518V189.028C105.518 188.02 105.364 187.306 105.056 186.886C104.748 186.452 104.251 186.235 103.565 186.235C103.033 186.235 102.557 186.368 102.137 186.634C101.717 186.9 101.248 187.292 100.73 187.81V196H98.3362V184.45Z" fill="#14303F"/>
<path d="M120.757 196.273C119.693 196.273 118.685 196.077 117.733 195.685C116.795 195.279 115.969 194.719 115.255 194.005L116.683 192.325C117.243 192.885 117.88 193.333 118.594 193.669C119.308 193.991 120.043 194.152 120.799 194.152C121.737 194.152 122.458 193.956 122.962 193.564C123.466 193.172 123.718 192.64 123.718 191.968C123.718 191.618 123.655 191.324 123.529 191.086C123.417 190.834 123.249 190.617 123.025 190.435C122.801 190.253 122.535 190.092 122.227 189.952C121.933 189.798 121.604 189.644 121.24 189.49L119.098 188.566C118.72 188.412 118.342 188.223 117.964 187.999C117.6 187.761 117.264 187.481 116.956 187.159C116.662 186.823 116.417 186.438 116.221 186.004C116.039 185.57 115.948 185.073 115.948 184.513C115.948 183.897 116.074 183.33 116.326 182.812C116.578 182.294 116.928 181.846 117.376 181.468C117.838 181.09 118.377 180.796 118.993 180.586C119.623 180.362 120.302 180.25 121.03 180.25C121.954 180.25 122.815 180.425 123.613 180.775C124.425 181.125 125.125 181.601 125.713 182.203L124.432 183.757C123.942 183.323 123.424 182.987 122.878 182.749C122.332 182.497 121.716 182.371 121.03 182.371C120.232 182.371 119.595 182.546 119.119 182.896C118.657 183.246 118.426 183.736 118.426 184.366C118.426 184.702 118.496 184.989 118.636 185.227C118.79 185.451 118.979 185.654 119.203 185.836C119.441 186.018 119.707 186.179 120.001 186.319C120.309 186.445 120.617 186.571 120.925 186.697L123.046 187.6C123.508 187.796 123.928 188.02 124.306 188.272C124.698 188.51 125.034 188.797 125.314 189.133C125.594 189.469 125.811 189.854 125.965 190.288C126.119 190.708 126.196 191.205 126.196 191.779C126.196 192.395 126.07 192.976 125.818 193.522C125.566 194.068 125.202 194.544 124.726 194.95C124.264 195.356 123.697 195.678 123.025 195.916C122.353 196.154 121.597 196.273 120.757 196.273Z" fill="#14303F"/>
<path d="M131.643 196.273C131.139 196.273 130.677 196.196 130.257 196.042C129.851 195.888 129.494 195.664 129.186 195.37C128.892 195.076 128.661 194.726 128.493 194.32C128.325 193.9 128.241 193.438 128.241 192.934C128.241 192.29 128.36 191.674 128.598 191.086C128.836 190.498 129.256 190.022 129.858 189.658C130.446 189.336 131.174 189.112 132.042 188.986C132.924 188.846 133.96 188.734 135.15 188.65C135.15 188.314 135.115 187.992 135.045 187.684C134.975 187.376 134.856 187.11 134.688 186.886C134.52 186.648 134.289 186.466 133.995 186.34C133.715 186.2 133.365 186.13 132.945 186.13C132.315 186.13 131.699 186.256 131.097 186.508C130.495 186.746 129.949 187.026 129.459 187.348L128.745 185.584C129.347 185.206 130.033 184.877 130.803 184.597C131.587 184.303 132.441 184.156 133.365 184.156C134.807 184.156 135.864 184.583 136.536 185.437C137.222 186.277 137.565 187.481 137.565 189.049V196H135.591L135.381 194.74H135.318C134.786 195.188 134.219 195.559 133.617 195.853C133.015 196.133 132.357 196.273 131.643 196.273ZM132.378 194.362C132.882 194.362 133.351 194.257 133.785 194.047C134.219 193.837 134.674 193.515 135.15 193.081V190.225C134.59 190.295 134.1 190.351 133.68 190.393C133.26 190.435 132.889 190.491 132.567 190.561C132.245 190.617 131.965 190.694 131.727 190.792C131.489 190.876 131.279 191.002 131.097 191.17C130.789 191.45 130.621 191.73 130.593 192.01C130.579 192.276 130.572 192.528 130.572 192.766C130.572 193.354 130.74 193.767 131.076 194.005C131.426 194.243 131.86 194.362 132.378 194.362Z" fill="#14303F"/>
<path d="M140.992 184.45H142.966L143.155 186.046H143.218C143.75 185.528 144.324 185.087 144.94 184.723C145.556 184.345 146.256 184.156 147.04 184.156C148.272 184.156 149.168 184.548 149.728 185.332C150.302 186.116 150.589 187.25 150.589 188.734V196H148.174V189.028C148.174 188.02 148.02 187.306 147.712 186.886C147.404 186.452 146.907 186.235 146.221 186.235C145.689 186.235 145.213 186.368 144.793 186.634C144.373 186.9 143.904 187.292 143.386 187.81V196H140.992V184.45Z" fill="#14303F"/>
<path d="M157.247 196.273C156.449 196.273 155.665 196.126 154.895 195.832C154.125 195.524 153.46 195.139 152.9 194.677L154.034 193.123C154.552 193.529 155.07 193.851 155.588 194.089C156.106 194.327 156.68 194.446 157.31 194.446C158.024 194.446 158.542 194.299 158.864 194.005C159.186 193.711 159.347 193.34 159.347 192.892C159.347 192.626 159.27 192.395 159.116 192.199C158.976 192.003 158.78 191.835 158.528 191.695C158.29 191.541 158.017 191.401 157.709 191.275C157.415 191.149 157.107 191.023 156.785 190.897C156.407 190.743 156.022 190.575 155.63 190.393C155.238 190.211 154.881 189.994 154.559 189.742C154.251 189.476 153.992 189.168 153.782 188.818C153.586 188.454 153.488 188.027 153.488 187.537C153.488 187.047 153.579 186.599 153.761 186.193C153.957 185.787 154.23 185.43 154.58 185.122C154.93 184.814 155.357 184.576 155.861 184.408C156.379 184.24 156.953 184.156 157.583 184.156C158.381 184.156 159.088 184.296 159.704 184.576C160.32 184.842 160.866 185.157 161.342 185.521L160.208 187.012C159.802 186.718 159.389 186.48 158.969 186.298C158.563 186.102 158.115 186.004 157.625 186.004C156.995 186.004 156.526 186.144 156.218 186.424C155.924 186.69 155.777 187.026 155.777 187.432C155.777 187.684 155.847 187.901 155.987 188.083C156.127 188.251 156.309 188.405 156.533 188.545C156.757 188.685 157.016 188.811 157.31 188.923C157.618 189.035 157.926 189.147 158.234 189.259C158.64 189.413 159.046 189.581 159.452 189.763C159.858 189.945 160.222 190.169 160.544 190.435C160.866 190.687 161.125 191.002 161.321 191.38C161.531 191.758 161.636 192.22 161.636 192.766C161.636 193.242 161.538 193.697 161.342 194.131C161.16 194.551 160.88 194.922 160.502 195.244C160.138 195.566 159.683 195.818 159.137 196C158.591 196.182 157.961 196.273 157.247 196.273Z" fill="#14303F"/>
<path d="M169.114 180.544H171.613L176.737 189.616L178.354 192.892H178.459C178.389 192.094 178.319 191.247 178.249 190.351C178.179 189.455 178.144 188.587 178.144 187.747V180.544H180.454V196H177.955L172.831 186.886L171.214 183.652H171.109C171.179 184.45 171.249 185.283 171.319 186.151C171.389 187.019 171.424 187.873 171.424 188.713V196H169.114V180.544Z" fill="#14303F"/>
<path d="M189.114 196.273C188.33 196.273 187.595 196.14 186.909 195.874C186.223 195.594 185.628 195.202 185.124 194.698C184.62 194.18 184.221 193.55 183.927 192.808C183.633 192.052 183.486 191.198 183.486 190.246C183.486 189.294 183.633 188.447 183.927 187.705C184.221 186.949 184.613 186.312 185.103 185.794C185.593 185.262 186.153 184.856 186.783 184.576C187.427 184.296 188.085 184.156 188.757 184.156C189.527 184.156 190.199 184.289 190.773 184.555C191.361 184.821 191.851 185.192 192.243 185.668C192.649 186.144 192.95 186.718 193.146 187.39C193.356 188.062 193.461 188.811 193.461 189.637C193.461 189.889 193.447 190.12 193.419 190.33C193.405 190.526 193.384 190.701 193.356 190.855H185.859C185.957 191.961 186.321 192.829 186.951 193.459C187.595 194.075 188.421 194.383 189.429 194.383C189.947 194.383 190.43 194.313 190.878 194.173C191.326 194.019 191.76 193.802 192.18 193.522L193.02 195.055C192.488 195.419 191.893 195.713 191.235 195.937C190.577 196.161 189.87 196.273 189.114 196.273ZM191.382 189.196C191.382 188.188 191.158 187.411 190.71 186.865C190.276 186.319 189.639 186.046 188.799 186.046C188.449 186.046 188.106 186.116 187.77 186.256C187.434 186.396 187.133 186.599 186.867 186.865C186.601 187.131 186.377 187.46 186.195 187.852C186.013 188.244 185.894 188.692 185.838 189.196H191.382Z" fill="#14303F"/>
<path d="M200.82 196.273C200.106 196.273 199.42 196.14 198.762 195.874C198.104 195.594 197.523 195.202 197.019 194.698C196.529 194.18 196.13 193.55 195.822 192.808C195.528 192.052 195.381 191.198 195.381 190.246C195.381 189.28 195.528 188.419 195.822 187.663C196.13 186.907 196.529 186.27 197.019 185.752C197.523 185.234 198.104 184.842 198.762 184.576C199.42 184.296 200.106 184.156 200.82 184.156C201.534 184.156 202.22 184.296 202.878 184.576C203.536 184.842 204.11 185.234 204.6 185.752C205.104 186.27 205.503 186.907 205.797 187.663C206.105 188.419 206.259 189.28 206.259 190.246C206.259 191.198 206.105 192.052 205.797 192.808C205.503 193.55 205.104 194.18 204.6 194.698C204.11 195.202 203.536 195.594 202.878 195.874C202.22 196.14 201.534 196.273 200.82 196.273ZM200.82 194.299C201.282 194.299 201.695 194.201 202.059 194.005C202.423 193.809 202.731 193.536 202.983 193.186C203.235 192.836 203.431 192.409 203.571 191.905C203.711 191.401 203.781 190.848 203.781 190.246C203.781 189.014 203.515 188.027 202.983 187.285C202.465 186.529 201.744 186.151 200.82 186.151C199.896 186.151 199.175 186.529 198.657 187.285C198.139 188.027 197.88 189.014 197.88 190.246C197.88 190.848 197.95 191.401 198.09 191.905C198.23 192.409 198.426 192.836 198.678 193.186C198.93 193.536 199.238 193.809 199.602 194.005C199.966 194.201 200.372 194.299 200.82 194.299Z" fill="#14303F"/>
<path d="M214.006 180.544H216.799L219.634 188.356C219.816 188.874 219.984 189.392 220.138 189.91C220.306 190.428 220.481 190.953 220.663 191.485H220.768C220.95 190.953 221.118 190.428 221.272 189.91C221.426 189.392 221.594 188.874 221.776 188.356L224.569 180.544H227.383V196H225.115V188.356C225.115 188.006 225.122 187.628 225.136 187.222C225.164 186.816 225.192 186.403 225.22 185.983C225.262 185.549 225.297 185.129 225.325 184.723C225.367 184.303 225.402 183.918 225.43 183.568H225.346L224.107 187.138L221.419 194.509H219.907L217.198 187.138L215.98 183.568H215.896C215.924 183.918 215.952 184.303 215.98 184.723C216.022 185.129 216.057 185.549 216.085 185.983C216.113 186.403 216.134 186.816 216.148 187.222C216.176 187.628 216.19 188.006 216.19 188.356V196H214.006V180.544Z" fill="#14303F"/>
<path d="M236.015 196.273C235.231 196.273 234.496 196.14 233.81 195.874C233.124 195.594 232.529 195.202 232.025 194.698C231.521 194.18 231.122 193.55 230.828 192.808C230.534 192.052 230.387 191.198 230.387 190.246C230.387 189.294 230.534 188.447 230.828 187.705C231.122 186.949 231.514 186.312 232.004 185.794C232.494 185.262 233.054 184.856 233.684 184.576C234.328 184.296 234.986 184.156 235.658 184.156C236.428 184.156 237.1 184.289 237.674 184.555C238.262 184.821 238.752 185.192 239.144 185.668C239.55 186.144 239.851 186.718 240.047 187.39C240.257 188.062 240.362 188.811 240.362 189.637C240.362 189.889 240.348 190.12 240.32 190.33C240.306 190.526 240.285 190.701 240.257 190.855H232.76C232.858 191.961 233.222 192.829 233.852 193.459C234.496 194.075 235.322 194.383 236.33 194.383C236.848 194.383 237.331 194.313 237.779 194.173C238.227 194.019 238.661 193.802 239.081 193.522L239.921 195.055C239.389 195.419 238.794 195.713 238.136 195.937C237.478 196.161 236.771 196.273 236.015 196.273ZM238.283 189.196C238.283 188.188 238.059 187.411 237.611 186.865C237.177 186.319 236.54 186.046 235.7 186.046C235.35 186.046 235.007 186.116 234.671 186.256C234.335 186.396 234.034 186.599 233.768 186.865C233.502 187.131 233.278 187.46 233.096 187.852C232.914 188.244 232.795 188.692 232.739 189.196H238.283Z" fill="#14303F"/>
<path d="M247.091 196.273C245.607 196.273 244.438 195.762 243.584 194.74C242.744 193.704 242.324 192.206 242.324 190.246C242.324 189.294 242.457 188.447 242.723 187.705C243.003 186.949 243.374 186.312 243.836 185.794C244.298 185.262 244.823 184.856 245.411 184.576C246.013 184.296 246.636 184.156 247.28 184.156C247.952 184.156 248.519 184.275 248.981 184.513C249.443 184.737 249.912 185.052 250.388 185.458L250.283 183.547V179.263H252.698V196H250.724L250.514 194.698H250.451C250.017 195.146 249.513 195.524 248.939 195.832C248.379 196.126 247.763 196.273 247.091 196.273ZM247.658 194.278C248.596 194.278 249.471 193.809 250.283 192.871V187.222C249.849 186.83 249.422 186.557 249.002 186.403C248.596 186.249 248.176 186.172 247.742 186.172C247.336 186.172 246.951 186.27 246.587 186.466C246.237 186.648 245.929 186.914 245.663 187.264C245.411 187.6 245.208 188.02 245.054 188.524C244.9 189.014 244.823 189.574 244.823 190.204C244.823 191.52 245.061 192.528 245.537 193.228C246.027 193.928 246.734 194.278 247.658 194.278Z" fill="#14303F"/>
<path d="M258.471 179.557V182.161H255.993V179.557H258.471ZM256.014 196V184.45H258.408V196H256.014Z" fill="#14303F"/>
<path d="M265.103 196.273C263.871 196.273 262.975 195.888 262.415 195.118C261.855 194.334 261.575 193.2 261.575 191.716V184.45H263.99V191.422C263.99 192.43 264.137 193.144 264.431 193.564C264.739 193.984 265.236 194.194 265.922 194.194C266.454 194.194 266.93 194.061 267.35 193.795C267.77 193.515 268.218 193.074 268.694 192.472V184.45H271.109V196H269.135L268.946 194.257H268.883C268.351 194.887 267.784 195.384 267.182 195.748C266.594 196.098 265.901 196.273 265.103 196.273Z" fill="#14303F"/>
<path d="M274.765 184.45H276.739L276.928 186.067H276.991C277.481 185.535 278.02 185.087 278.608 184.723C279.196 184.345 279.847 184.156 280.561 184.156C281.443 184.156 282.129 184.345 282.619 184.723C283.123 185.087 283.501 185.605 283.753 186.277C284.341 185.647 284.929 185.136 285.517 184.744C286.119 184.352 286.784 184.156 287.512 184.156C288.744 184.156 289.64 184.548 290.2 185.332C290.774 186.116 291.061 187.25 291.061 188.734V196H288.646V189.028C288.646 188.02 288.492 187.306 288.184 186.886C287.876 186.452 287.386 186.235 286.714 186.235C285.944 186.235 285.076 186.76 284.11 187.81V196H281.695V189.028C281.695 188.02 281.541 187.306 281.233 186.886C280.925 186.452 280.435 186.235 279.763 186.235C278.993 186.235 278.125 186.76 277.159 187.81V196H274.765V184.45Z" fill="#14303F"/>
<path d="M406.285 182.245H395.092V180.523H399.607V178.507H401.77V180.523H406.285V182.245ZM412.564 185.311H409.876V190.078H407.713V178.654H409.876V183.526H412.564V185.311ZM405.277 186.424C405.277 186.942 405.165 187.411 404.941 187.831C404.717 188.251 404.402 188.608 403.996 188.902C403.604 189.196 403.121 189.427 402.547 189.595C401.987 189.749 401.364 189.826 400.678 189.826C399.992 189.826 399.369 189.749 398.809 189.595C398.249 189.427 397.766 189.196 397.36 188.902C396.954 188.608 396.639 188.251 396.415 187.831C396.191 187.411 396.079 186.942 396.079 186.424C396.079 185.92 396.191 185.458 396.415 185.038C396.639 184.618 396.954 184.261 397.36 183.967C397.766 183.659 398.249 183.428 398.809 183.274C399.369 183.106 399.992 183.022 400.678 183.022C401.364 183.022 401.987 183.106 402.547 183.274C403.121 183.428 403.604 183.659 403.996 183.967C404.402 184.261 404.717 184.618 404.941 185.038C405.165 185.458 405.277 185.92 405.277 186.424ZM398.158 186.424C398.158 186.984 398.389 187.425 398.851 187.747C399.313 188.055 399.922 188.209 400.678 188.209C401.434 188.209 402.043 188.055 402.505 187.747C402.981 187.425 403.219 186.984 403.219 186.424C403.219 185.878 402.981 185.451 402.505 185.143C402.043 184.821 401.434 184.66 400.678 184.66C399.922 184.66 399.313 184.821 398.851 185.143C398.389 185.451 398.158 185.878 398.158 186.424ZM397.759 191.044H409.876V197.386H397.759V191.044ZM399.901 195.664H407.755V192.745H399.901V195.664Z" fill="#14303F"/>
<path d="M430.475 178.633V197.638H428.417V178.633H430.475ZM424.826 179.095H426.863V196.693H424.826V187.705H422.537C422.327 188.895 422.019 190.057 421.613 191.191C421.221 192.311 420.668 193.396 419.954 194.446L418.274 193.501C418.862 192.661 419.338 191.8 419.702 190.918C420.066 190.022 420.353 189.112 420.563 188.188C420.773 187.264 420.92 186.34 421.004 185.416C421.088 184.478 421.137 183.547 421.151 182.623H419.408V180.859H422.999C422.999 181.699 422.985 182.539 422.957 183.379C422.929 184.205 422.866 185.059 422.768 185.941H424.826V179.095ZM418.799 180.859C418.799 181.951 418.757 183.043 418.673 184.135C418.603 185.227 418.456 186.298 418.232 187.348C418.008 188.398 417.693 189.427 417.287 190.435C416.895 191.443 416.377 192.416 415.733 193.354L414.074 192.409C414.606 191.667 415.047 190.911 415.397 190.141C415.761 189.357 416.048 188.559 416.258 187.747C416.482 186.935 416.643 186.102 416.741 185.248C416.853 184.394 416.93 183.519 416.972 182.623H414.578V180.859H418.799Z" fill="#14303F"/>
<path d="M455.267 182.455V184.24H452.579V188.146H450.416V178.654H452.579V182.455H455.267ZM448.883 186.907C448.239 187.047 447.602 187.166 446.972 187.264C446.342 187.348 445.677 187.418 444.977 187.474C444.291 187.516 443.542 187.544 442.73 187.558C441.932 187.572 441.036 187.579 440.042 187.579H438.509V179.704H446.951V181.426H440.672V185.836C441.54 185.836 442.331 185.829 443.045 185.815C443.773 185.787 444.452 185.752 445.082 185.71C445.712 185.668 446.314 185.605 446.888 185.521C447.462 185.437 448.043 185.332 448.631 185.206L448.883 186.907ZM442.499 195.664H453.209V197.386H440.378V192.325H450.437V190.75H440.336V189.007H452.579V193.963H442.499V195.664Z" fill="#14303F"/>
<path d="M472.527 178.612V197.659H470.343V178.612H472.527ZM460.137 191.359C461.635 191.345 463.07 191.296 464.442 191.212C465.828 191.114 467.27 190.946 468.768 190.708L468.999 192.472C467.375 192.752 465.814 192.934 464.316 193.018C462.818 193.102 461.236 193.144 459.57 193.144H457.953V185.626H464.568V182.098H457.911V180.334H466.752V187.369H460.137V191.359Z" fill="#14303F"/>
<path d="M491.636 178.654V197.617H489.473V178.654H491.636ZM486.05 180.649C486.05 182.063 485.896 183.421 485.588 184.723C485.294 186.011 484.797 187.229 484.097 188.377C483.411 189.525 482.508 190.596 481.388 191.59C480.268 192.57 478.896 193.452 477.272 194.236L476.117 192.514C478.609 191.31 480.471 189.875 481.703 188.209C482.935 186.529 483.642 184.597 483.824 182.413H477.062V180.649H486.05Z" fill="#14303F"/>
</svg>
