<svg width="686" height="588" viewBox="0 0 686 588" fill="none" xmlns="http://www.w3.org/2000/svg">
<path fill-rule="evenodd" clip-rule="evenodd" d="M373 545.333L439.502 479.001L439.504 479L461 500.667L373 588L285 500.667L306.832 479L373 545.333ZM306.828 480.412L372.998 546.748L439.5 480.416L459.586 500.661L373 586.591L286.42 500.667L306.828 480.412ZM373 456.333L439.502 390.001L439.504 390L461 411.667L373 498.667L285 411.667L306.832 390L373 456.333ZM306.828 391.412L372.998 457.748L439.5 391.416L459.585 411.66L373 497.26L286.421 411.665L306.828 391.412Z" fill="#677593"/>
<path d="M335 50C335 33.4315 348.431 20 365 20H656C672.569 20 686 33.4315 686 50V135H365C348.431 135 335 121.569 335 105V50Z" fill="white"/>
<path fill-rule="evenodd" clip-rule="evenodd" d="M656 21H365C348.984 21 336 33.9837 336 50V105C336 121.016 348.984 134 365 134H685V50C685 33.9837 672.016 21 656 21ZM365 20C348.431 20 335 33.4315 335 50V105C335 121.569 348.431 135 365 135H686V50C686 33.4315 672.569 20 656 20H365Z" fill="#677593"/>
<path d="M94 367C94 350.431 107.431 337 124 337H371C387.569 337 401 350.431 401 367V417H124C107.431 417 94 403.569 94 387V367Z" fill="white"/>
<path fill-rule="evenodd" clip-rule="evenodd" d="M371 338H124C107.984 338 95 350.984 95 367V387C95 403.016 107.984 416 124 416H400V367C400 350.984 387.016 338 371 338ZM124 337C107.431 337 94 350.431 94 367V387C94 403.569 107.431 417 124 417H401V367C401 350.431 387.569 337 371 337H124Z" fill="#677593"/>
<path d="M346 284C346 267.431 359.431 254 376 254H619C635.569 254 649 267.431 649 284V354H376C359.431 354 346 340.569 346 324V284Z" fill="white"/>
<path fill-rule="evenodd" clip-rule="evenodd" d="M619 255H376C359.984 255 347 267.984 347 284V324C347 340.016 359.984 353 376 353H648V284C648 267.984 635.016 255 619 255ZM376 254C359.431 254 346 267.431 346 284V324C346 340.569 359.431 354 376 354H649V284C649 267.431 635.569 254 619 254H376Z" fill="#677593"/>
<path d="M406.852 58.9219L408.07 54.6719H409.227L408.367 58.9219H406.852ZM409.82 58.9219L411.039 54.6719H412.195L411.336 58.9219H409.82Z" fill="#14303F"/>
<path d="M420.945 54.2344V55.3594H424.117V53.375H425.336V61.375H424.117V58.9531H420.945V60.125H414.492V54.2344H420.945ZM415.617 66.2656C418 66 420.305 64.6719 420.305 63.2656H416.18V62.2969H420.305V60.9531H421.555V62.2969H425.664V63.2656H421.555C421.539 64.6172 423.781 65.9688 426.164 66.2656L425.742 67.2031C423.656 66.9141 421.742 65.9297 420.922 64.6406C420.086 65.9609 418.125 66.9219 416.039 67.2031L415.617 66.2656ZM415.711 59.1562H419.742V55.2188H415.711V59.1562ZM420.945 57.9844H424.117V56.3438H420.945V57.9844Z" fill="#14303F"/>
<path d="M440.367 60.7344V61.7344H434.711V64.4531H433.492V61.7344H427.648V60.7344H440.367ZM429.273 66.9688V63.1719H430.492V65.9375H438.945V66.9688H429.273ZM429.352 59.375V53.8281H430.57V55.6094H437.445V53.8281H438.664V59.375H429.352ZM430.57 58.375H437.445V56.5469H430.57V58.375Z" fill="#14303F"/>
<path d="M448.477 54.7812V63.7344H442.07V54.7812H448.477ZM443.258 62.7344H447.258V55.7656H443.258V62.7344ZM451.023 67.2656V53.375H452.242V58.9219H454.57V59.9844H452.242V67.2656H451.023Z" fill="#14303F"/>
<path d="M466.07 53.375V58.875H468.398V59.9062H466.07V67.2969H464.852V53.375H466.07ZM455.93 63.8125V54.7344H462.414V55.75H457.148V62.7812C459.664 62.7734 461.438 62.6641 463.508 62.2812L463.664 63.3438C461.484 63.7344 459.664 63.8125 457.023 63.8125H455.93Z" fill="#14303F"/>
<path d="M484.664 53.375V60.4531H483.445V57.5H480.547C480.289 59.1016 478.867 60.1797 476.992 60.1719C474.898 60.1797 473.375 58.875 473.383 57C473.375 55.1484 474.898 53.8672 476.992 53.875C478.852 53.8672 480.266 54.9062 480.539 56.4688H483.445V53.375H484.664ZM474.555 57C474.555 58.2656 475.57 59.1641 476.992 59.1562C478.367 59.1641 479.398 58.2656 479.398 57C479.398 55.7656 478.367 54.875 476.992 54.8906C475.57 54.875 474.555 55.7656 474.555 57ZM475.664 62.2031V61.2188H484.664V64.5469H476.914V66.0938H485.195V67.0781H475.695V63.6094H483.445V62.2031H475.664Z" fill="#14303F"/>
<path d="M493.977 54.7812V63.7344H487.57V54.7812H493.977ZM488.758 62.7344H492.758V55.7656H488.758V62.7344ZM496.523 67.2656V53.375H497.742V58.9219H500.07V59.9844H497.742V67.2656H496.523Z" fill="#14303F"/>
<path d="M516.352 53.375V60.5156H515.117V57.75H512.039V56.7344H515.117V53.375H516.352ZM505.055 59.7969C508.383 58.9922 510.383 57.3125 510.625 55.0781H505.773V54.0625H511.93C511.93 57.5156 509.492 59.8047 505.492 60.8125L505.055 59.7969ZM507.352 62.1094V61.1094H516.352V64.5H508.602V66.125H516.82V67.1406H507.383V63.5625H515.117V62.1094H507.352Z" fill="#14303F"/>
<path d="M523.445 62.6875C523.438 63.9375 524.102 65.2422 525.422 66.0078C526.758 65.1719 527.438 63.7578 527.445 62.6875V61.8438H528.648V62.6875C528.641 64.125 529.68 65.5703 531.492 66.1719L530.852 67.0938C529.469 66.5859 528.5 65.6172 528.031 64.4453C527.594 65.5781 526.742 66.6562 525.445 67.2031C524.117 66.6875 523.258 65.6641 522.836 64.4922C522.336 65.6094 521.383 66.5859 520.055 67.0938L519.445 66.1719C521.203 65.5391 522.258 64.0312 522.273 62.6875V61.8438H523.445V62.6875ZM518.898 57.4219C518.898 55.5156 520.414 54.1641 522.492 54.1719C524.32 54.1641 525.75 55.2656 526.023 56.875H528.945V53.375H530.18V61.3125H528.945V57.8906H526.031C525.797 59.5469 524.352 60.6719 522.492 60.6719C520.414 60.6719 518.898 59.3359 518.898 57.4219ZM520.086 57.4219C520.07 58.7109 521.094 59.6484 522.492 59.6562C523.859 59.6484 524.883 58.7109 524.883 57.4219C524.883 56.1328 523.859 55.2031 522.492 55.2188C521.094 55.2031 520.07 56.1328 520.086 57.4219Z" fill="#14303F"/>
<path d="M543.727 57.5938V58.5781H534.211V53.8906H535.43V57.5938H543.727ZM532.477 61.4688V60.4688H545.195V61.4688H532.477ZM534.133 66.9219V62.8906H535.352V65.9062H543.805V66.9219H534.133Z" fill="#14303F"/>
<path d="M551.289 57.6406C551.297 60 553.008 62.3984 555.055 63.2812L554.367 64.25C552.742 63.5156 551.344 61.9141 550.695 59.9922C550.047 62.0312 548.641 63.7969 547.055 64.5938L546.32 63.625C548.312 62.6719 550.047 60.0469 550.055 57.6406V55.8281H546.773V54.8125H554.602V55.8281H551.289V57.6406ZM556.539 67.2656V53.375H557.773V67.2656H556.539Z" fill="#14303F"/>
<path d="M571.383 57.5938V58.5781H561.867V53.8906H563.086V57.5938H571.383ZM560.133 61.4688V60.4688H572.852V61.4688H560.133ZM561.789 66.9219V62.8906H563.008V65.9062H571.461V66.9219H561.789Z" fill="#14303F"/>
<path d="M590.695 61.2969V62.3125H587.336V67.2656H586.102V62.3125H582.539V67.2656H581.273V62.3125H577.977V61.2969H590.695ZM579.414 56.9688C579.422 55.1172 581.383 53.9453 584.305 53.9375C587.219 53.9453 589.195 55.1172 589.195 56.9688C589.195 58.8203 587.219 59.9766 584.305 59.9688C581.383 59.9766 579.422 58.8203 579.414 56.9688ZM580.68 56.9688C580.664 58.1953 582.141 58.9844 584.305 58.9844C586.469 58.9844 587.938 58.1953 587.945 56.9688C587.938 55.7344 586.469 54.9375 584.305 54.9375C582.141 54.9375 580.664 55.7344 580.68 56.9688Z" fill="#14303F"/>
<path d="M604.477 60.25V61.2656H591.82V60.25H594.961V58.2891C593.852 57.8594 593.227 57.1562 593.227 56.2188C593.227 54.5859 595.102 53.6484 598.148 53.6406C601.172 53.6484 603.047 54.5859 603.055 56.2188C603.047 57.1484 602.43 57.8516 601.336 58.2891V60.25H604.477ZM593.352 64.7812C593.344 63.1953 595.133 62.3203 598.148 62.3281C601.125 62.3203 602.914 63.1953 602.93 64.7812C602.914 66.3672 601.125 67.2344 598.148 67.2344C595.133 67.2344 593.344 66.3672 593.352 64.7812ZM594.492 56.2188C594.484 57.2344 595.875 57.8203 598.148 57.8281C600.398 57.8203 601.797 57.2344 601.805 56.2188C601.797 55.2188 600.398 54.6094 598.148 54.6094C595.875 54.6094 594.484 55.2188 594.492 56.2188ZM594.602 64.7812C594.586 65.7266 595.922 66.2891 598.148 66.2812C600.352 66.2891 601.688 65.7266 601.695 64.7812C601.688 63.8359 600.352 63.2812 598.148 63.2656C595.922 63.2812 594.586 63.8359 594.602 64.7812ZM596.18 60.25H600.117V58.6172C599.531 58.7266 598.875 58.7812 598.148 58.7812C597.422 58.7812 596.766 58.7266 596.18 58.625V60.25Z" fill="#14303F"/>
<path d="M616.508 53.3906V57.9688H618.602V59H616.508V63.7969H615.289V53.3906H616.508ZM605.68 56.0938V55.0938H609.211V53.3906H610.43V55.0938H613.961V56.0938H605.68ZM606.477 59.4531C606.469 57.875 607.812 56.8594 609.82 56.8594C611.805 56.8594 613.148 57.875 613.164 59.4531C613.148 61.0156 611.805 62.0234 609.82 62.0156C607.812 62.0234 606.469 61.0156 606.477 59.4531ZM607.648 59.4531C607.641 60.4297 608.508 61.0625 609.82 61.0469C611.117 61.0625 611.992 60.4297 612.008 59.4531C611.992 58.4609 611.117 57.8203 609.82 57.8281C608.508 57.8203 607.641 58.4609 607.648 59.4531ZM607.82 66.9688V62.9688H609.023V65.9375H617.148V66.9688H607.82Z" fill="#14303F"/>
<path d="M631.367 53.375V67.2656H630.18V53.375H631.367ZM620.023 63.9219V55.0938H625.258V56.1094H621.211V62.8906C623.219 62.875 624.484 62.8047 625.977 62.4688L626.102 63.5156C624.492 63.8438 623.133 63.9141 620.898 63.9219H620.023ZM624.32 59.7188V58.6875H627.352V53.7188H628.523V66.5469H627.352V59.7188H624.32Z" fill="#14303F"/>
<path d="M473.422 83.4375V84.4531H460.703V83.4375H466.391V80.0312H467.594V83.4375H473.422ZM461.203 79.1719C463.633 78.7578 466.336 76.7266 466.344 74.3906V73.3281H467.625V74.3906C467.633 76.7109 470.375 78.7578 472.797 79.1719L472.25 80.1875C470.133 79.75 467.898 78.3203 467 76.3203C466.086 78.3125 463.875 79.75 461.75 80.1875L461.203 79.1719Z" fill="#14303F"/>
<path d="M486 72.375V86.2969H484.781V72.375H486ZM475.312 74.6875V73.6719H481.781V78.6094H476.594V81.8906C478.898 81.8984 480.953 81.7891 483.438 81.3906L483.562 82.4219C481.008 82.8203 478.898 82.9219 476.5 82.9219H475.344V77.6094H480.547V74.6875H475.312Z" fill="#14303F"/>
<path d="M499.109 72.375V78.0312H501.359V79.0625H499.109V86.2656H497.891V72.375H499.109ZM488.453 82.6562C492.039 80.875 493.992 78.1953 494.273 74.9062H489.094V73.875H495.516C495.508 77.8047 493.664 81.3906 489.141 83.625L488.453 82.6562Z" fill="#14303F"/>
<path d="M517.734 72.375V86.2969H516.5V77.9844H512.172V76.9688H516.5V72.375H517.734ZM506.969 82.9219V73.9375H508.203V81.8906C510.328 81.8672 512.211 81.7578 514.297 81.3281L514.453 82.3438C512.234 82.8047 510.281 82.9219 508.031 82.9219H506.969Z" fill="#14303F"/>
<path d="M532.734 80.4531V81.4688H526.938V86.2656H525.734V81.4688H520.016V80.4531H532.734ZM521.656 78.5625V73.1562H531.078V78.5625H521.656ZM522.859 77.5938H529.859V74.1562H522.859V77.5938Z" fill="#14303F"/>
<path d="M548.922 72.9531V74.0625C548.922 75.2734 548.922 76.6719 548.562 78.6094H550.562V79.5938H537.844V78.6094H547.312C547.477 77.8203 547.57 77.1172 547.633 76.4766L539.312 76.8594L539.156 75.8125L547.688 75.5547C547.711 75.0234 547.703 74.5312 547.703 74.0625V73.9531H539.484V72.9531H548.922ZM539.531 86.0781V80.6719H540.75V82.2812H547.672V80.6719H548.922V86.0781H539.531ZM540.75 85.0781H547.672V83.2656H540.75V85.0781Z" fill="#14303F"/>
<path d="M563.156 72.375V86.2656H561.938V72.375H563.156ZM552.609 82.6875V73.75H553.812V81.625C555.938 81.6094 558.125 81.4453 560.453 80.9531L560.625 82C558.156 82.5156 555.961 82.6875 553.734 82.6875H552.609Z" fill="#14303F"/>
<path d="M576.281 72.375V77.875H578.609V78.9062H576.281V86.2969H575.062V72.375H576.281ZM566.141 82.8125V73.7344H572.625V74.75H567.359V81.7812C569.875 81.7734 571.648 81.6641 573.719 81.2812L573.875 82.3438C571.695 82.7344 569.875 82.8125 567.234 82.8125H566.141Z" fill="#14303F"/>
<path d="M580.828 85.0938C580.281 85.0859 579.812 84.6328 579.828 84.0781C579.812 83.5312 580.281 83.0781 580.828 83.0781C581.383 83.0781 581.836 83.5312 581.828 84.0781C581.836 84.6328 581.383 85.0859 580.828 85.0938Z" fill="#14303F"/>
<path d="M451.633 102.438V103.453H438.914V102.438H444.602V99.0312H445.805V102.438H451.633ZM439.414 98.1719C441.844 97.7578 444.547 95.7266 444.555 93.3906V92.3281H445.836V93.3906C445.844 95.7109 448.586 97.7578 451.008 98.1719L450.461 99.1875C448.344 98.75 446.109 97.3203 445.211 95.3203C444.297 97.3125 442.086 98.75 439.961 99.1875L439.414 98.1719Z" fill="#14303F"/>
<path d="M464.211 91.375V105.297H462.992V91.375H464.211ZM453.523 93.6875V92.6719H459.992V97.6094H454.805V100.891C457.109 100.898 459.164 100.789 461.648 100.391L461.773 101.422C459.219 101.82 457.109 101.922 454.711 101.922H453.555V96.6094H458.758V93.6875H453.523Z" fill="#14303F"/>
<path d="M478.086 91.375V98.5625H476.852V94.9531H473.758V93.9375H476.852V91.375H478.086ZM466.555 97.6094C468.648 96.9141 470.086 95.1719 470.102 93.1406V91.8281H471.305V93.1406C471.289 94.9609 472.727 96.6328 474.758 97.2969L474.102 98.25C472.562 97.7031 471.336 96.6094 470.719 95.2031C470.125 96.7891 468.867 98 467.227 98.5938L466.555 97.6094ZM469.086 100.25V99.2656H478.086V102.578H470.32V104.094H478.602V105.078H469.117V101.641H476.867V100.25H469.086Z" fill="#14303F"/>
<path d="M491.914 91.375V99.6562H490.68V96.0156H487.883V95H490.68V91.375H491.914ZM480.461 98.5469C482.523 97.8047 483.992 95.9219 483.992 93.9375V93.4219H480.852V92.3906H488.336V93.4219H485.227V93.9219C485.227 95.7344 486.617 97.4609 488.648 98.1562L488.008 99.1406C486.453 98.5781 485.242 97.4062 484.641 95.9766C484.047 97.6016 482.758 98.8984 481.102 99.5312L480.461 98.5469ZM482.648 102.672C482.641 101.039 484.414 100.086 487.305 100.094C490.188 100.086 491.961 101.039 491.961 102.672C491.961 104.312 490.188 105.25 487.305 105.266C484.414 105.25 482.641 104.312 482.648 102.672ZM483.867 102.672C483.859 103.68 485.172 104.289 487.305 104.281C489.43 104.289 490.742 103.68 490.742 102.672C490.742 101.656 489.43 101.047 487.305 101.047C485.172 101.047 483.859 101.656 483.867 102.672Z" fill="#14303F"/>
<path d="M506.883 98.7031V99.7031H494.227V98.7031H506.883ZM495.633 94.625C495.633 92.8828 497.539 91.8594 500.555 91.875C503.539 91.8594 505.453 92.8828 505.461 94.625C505.453 96.3516 503.539 97.3906 500.555 97.3906C497.539 97.3906 495.633 96.3516 495.633 94.625ZM495.867 104.969V100.922H497.102V103.938H505.477V104.969H495.867ZM496.898 94.625C496.891 95.7266 498.312 96.3906 500.555 96.3906C502.781 96.3906 504.203 95.7266 504.211 94.625C504.203 93.5391 502.781 92.8594 500.555 92.8594C498.312 92.8594 496.891 93.5391 496.898 94.625Z" fill="#14303F"/>
<path d="M515.805 92.4531C517.695 92.4609 519.062 94.0859 519.25 96.6875H522.367V91.375H523.586V105.297H522.367V97.7031H519.266C519.133 100.43 517.742 102.133 515.805 102.125C513.75 102.133 512.312 100.258 512.32 97.2969C512.312 94.3438 513.75 92.4609 515.805 92.4531ZM513.492 97.2969C513.5 99.5547 514.438 101.039 515.805 101.031C517.164 101.039 518.117 99.5547 518.117 97.2969C518.117 95.0391 517.164 93.5547 515.805 93.5469C514.438 93.5547 513.5 95.0391 513.492 97.2969Z" fill="#14303F"/>
<path d="M537.539 91.375V105.266H536.305V91.375H537.539ZM525.805 101.453C527.531 100.141 528.023 97.4922 528.023 95.5625V93.8281H526.273V92.7969H530.305V93.8281H529.195V95.5625C529.18 97.1016 529.469 99.3672 530.641 100.859C531.805 99.3984 532.102 97.1797 532.117 95.5625V93.8281H530.992V92.7969H534.898V93.8281H533.273V95.5625C533.273 97.5703 533.758 100.18 535.461 101.453L534.68 102.359C533.641 101.547 533.016 100.195 532.688 98.7344C532.359 100.234 531.742 101.664 530.633 102.5C529.539 101.656 528.922 100.211 528.602 98.7188C528.266 100.172 527.648 101.539 526.617 102.359L525.805 101.453Z" fill="#14303F"/>
<path d="M550.477 91.375V97.1094H552.805V98.125H550.477V105.266H549.258V91.375H550.477ZM539.648 94.625V93.6094H543.227V91.5469H544.445V93.6094H547.914V94.625H539.648ZM540.445 98.9688C540.438 97.0938 541.875 95.7812 543.852 95.7812C545.812 95.7812 547.242 97.0938 547.258 98.9688C547.242 100.852 545.812 102.156 543.852 102.156C541.875 102.156 540.438 100.852 540.445 98.9688ZM541.617 98.9688C541.609 100.234 542.555 101.125 543.852 101.109C545.133 101.125 546.07 100.234 546.086 98.9688C546.07 97.7109 545.133 96.8047 543.852 96.8125C542.555 96.8047 541.609 97.7109 541.617 98.9688Z" fill="#14303F"/>
<path d="M564.789 95.5938V96.5781H555.273V91.8906H556.492V95.5938H564.789ZM553.539 99.4688V98.4688H566.258V99.4688H553.539ZM555.195 104.922V100.891H556.414V103.906H564.867V104.922H555.195Z" fill="#14303F"/>
<path d="M572.352 95.6406C572.359 98 574.07 100.398 576.117 101.281L575.43 102.25C573.805 101.516 572.406 99.9141 571.758 97.9922C571.109 100.031 569.703 101.797 568.117 102.594L567.383 101.625C569.375 100.672 571.109 98.0469 571.117 95.6406V93.8281H567.836V92.8125H575.664V93.8281H572.352V95.6406ZM577.602 105.266V91.375H578.836V105.266H577.602Z" fill="#14303F"/>
<path d="M593.93 102.453V103.484H581.211V102.453H584.367V98.7109C583.18 98.0938 582.461 97.0938 582.461 95.8281C582.461 93.6797 584.57 92.2656 587.539 92.25C590.508 92.2656 592.617 93.6797 592.617 95.8281C592.617 97.0703 591.922 98.0547 590.773 98.6719V102.453H593.93ZM583.648 95.8281C583.641 97.3828 585.258 98.4219 587.539 98.4219C589.797 98.4219 591.43 97.3828 591.43 95.8281C591.43 94.2734 589.797 93.25 587.539 93.2656C585.258 93.25 583.641 94.2734 583.648 95.8281ZM585.57 102.453H589.539V99.1484C588.938 99.3047 588.266 99.3906 587.539 99.3906C586.828 99.3906 586.164 99.3125 585.57 99.1562V102.453Z" fill="#14303F"/>
<path d="M596.508 104.094C595.961 104.086 595.492 103.633 595.508 103.078C595.492 102.531 595.961 102.078 596.508 102.078C597.062 102.078 597.516 102.531 597.508 103.078C597.516 103.633 597.062 104.086 596.508 104.094Z" fill="#14303F"/>
<path d="M604.023 92.7031L602.805 96.9531H601.648L602.508 92.7031H604.023ZM598.68 96.9531L599.539 92.7031H601.055L599.836 96.9531H598.68Z" fill="#14303F"/>
<path d="M162.094 364.922L163.312 360.672H164.469L163.609 364.922H162.094ZM165.062 364.922L166.281 360.672H167.438L166.578 364.922H165.062Z" fill="#14303F"/>
<path d="M176.203 360.641V361.672H170.922V364.547H175.891V365.547H170.922V368.906C173.43 368.906 175.188 368.812 177.266 368.453L177.406 369.469C175.234 369.836 173.414 369.914 170.781 369.922H169.688V360.641H176.203ZM178.609 373.266V359.375H179.828V364.969H182.156V366.016H179.828V373.266H178.609Z" fill="#14303F"/>
<path d="M186.641 360.453C188.531 360.461 189.898 362.086 190.086 364.688H193.203V359.375H194.422V373.297H193.203V365.703H190.102C189.969 368.43 188.578 370.133 186.641 370.125C184.586 370.133 183.148 368.258 183.156 365.297C183.148 362.344 184.586 360.461 186.641 360.453ZM184.328 365.297C184.336 367.555 185.273 369.039 186.641 369.031C188 369.039 188.953 367.555 188.953 365.297C188.953 363.039 188 361.555 186.641 361.547C185.273 361.555 184.336 363.039 184.328 365.297Z" fill="#14303F"/>
<path d="M208.188 359.812V360.781H206.047V363.469H208.141V364.422H197.969V363.469H200.062V360.781H197.922V359.812H208.188ZM196.734 366.578V365.594H209.391V366.578H196.734ZM198.266 368.75V367.828H207.766V370.844H199.516V372.172H208.188V373.109H198.297V369.953H206.562V368.75H198.266ZM201.281 363.469H204.828V360.781H201.281V363.469Z" fill="#14303F"/>
<path d="M222.469 359.375V373.266H221.281V359.375H222.469ZM210.734 365.375C210.742 362.422 211.914 360.555 213.719 360.547C215.406 360.555 216.547 362.18 216.703 364.797H218.5V359.672H219.672V372.562H218.5V365.812H216.711C216.594 368.516 215.43 370.211 213.719 370.203C211.914 370.211 210.742 368.328 210.734 365.375ZM211.891 365.375C211.875 367.625 212.594 369.047 213.719 369.031C214.852 369.047 215.57 367.625 215.562 365.375C215.57 363.117 214.852 361.703 213.719 361.703C212.594 361.703 211.875 363.117 211.891 365.375Z" fill="#14303F"/>
<path d="M239.859 359.375V373.297H238.625V359.375H239.859ZM229.219 369.938V360.562H230.438V364.234H234.578V360.562H235.781V369.938H229.219ZM230.438 368.906H234.578V365.219H230.438V368.906Z" fill="#14303F"/>
<path d="M249.172 361.781V362.781H242.203V361.781H245.094V359.797H246.312V361.781H249.172ZM242.703 366.875C242.703 365.031 243.961 363.727 245.688 363.719C247.438 363.727 248.688 365.031 248.703 366.875C248.688 368.742 247.438 370.055 245.688 370.062C243.961 370.055 242.703 368.742 242.703 366.875ZM243.797 366.875C243.797 368.109 244.586 368.992 245.688 368.984C246.797 368.992 247.609 368.109 247.609 366.875C247.609 365.656 246.797 364.766 245.688 364.75C244.586 364.766 243.797 365.656 243.797 366.875ZM249.891 372.578V359.719H251.047V365.234H252.891V359.375H254.062V373.266H252.891V366.25H251.047V372.578H249.891Z" fill="#14303F"/>
<path d="M265.078 361.953C265.086 363.82 266.562 365.523 268.641 366.203L268.016 367.156C266.398 366.609 265.117 365.469 264.484 364C263.875 365.578 262.578 366.828 260.922 367.422L260.281 366.469C262.367 365.734 263.836 363.922 263.844 361.953V361.359H260.594V360.359H268.281V361.359H265.078V361.953ZM262.203 369.531V368.516H271.547V373.266H270.328V369.531H262.203ZM270.328 367.781V359.375H271.547V367.781H270.328Z" fill="#14303F"/>
<path d="M281.609 360.453V361.188C281.602 362.102 281.602 363.484 281.25 365.297L280.016 365.203C280.352 363.547 280.383 362.367 280.398 361.484H274.688V360.453H281.609ZM273.828 366.594C274.727 366.594 275.742 366.586 276.812 366.555V363.531H278.031V366.516C279.57 366.453 281.164 366.344 282.609 366.141L282.688 367.047C279.773 367.547 276.43 367.602 273.953 367.609L273.828 366.594ZM275.969 372.969V368.891H277.203V371.938H285.25V372.969H275.969ZM283.547 369.828V359.375H284.797V363.906H286.828V364.953H284.797V369.828H283.547Z" fill="#14303F"/>
<path d="M292.516 361.562C292.5 363.547 293.914 365.289 295.953 365.984L295.266 366.938C293.734 366.367 292.531 365.234 291.93 363.773C291.336 365.438 290.07 366.727 288.391 367.359L287.719 366.359C289.859 365.609 291.281 363.766 291.297 361.609V360.172H292.516V361.562ZM289.984 370.641C289.977 368.969 291.75 368.008 294.641 368.016C297.523 368.008 299.297 368.969 299.297 370.641C299.297 372.297 297.523 373.234 294.641 373.234C291.75 373.234 289.977 372.297 289.984 370.641ZM291.203 370.641C291.195 371.648 292.508 372.258 294.641 372.25C296.766 372.258 298.078 371.648 298.078 370.641C298.078 369.602 296.766 368.984 294.641 368.984C292.508 368.984 291.195 369.602 291.203 370.641ZM294.922 363.375V362.359H298.016V359.375H299.25V367.609H298.016V363.375H294.922Z" fill="#14303F"/>
<path d="M313.016 359.375V373.297H311.781V359.375H313.016ZM302.078 365.297C302.086 362.344 303.555 360.461 305.625 360.453C307.688 360.461 309.18 362.344 309.172 365.297C309.18 368.258 307.688 370.133 305.625 370.125C303.555 370.133 302.086 368.258 302.078 365.297ZM303.266 365.297C303.266 367.555 304.234 369.039 305.625 369.031C307.023 369.039 307.984 367.555 307.984 365.297C307.984 363.039 307.023 361.555 305.625 361.547C304.234 361.555 303.266 363.039 303.266 365.297Z" fill="#14303F"/>
<path d="M326.328 363.516V365.156H332.109V366.172H319.391V365.156H325.125V363.516H326.328ZM320.078 363.438C322.477 363.242 324.812 362.203 324.93 360.781H320.562V359.812H330.938V360.781H326.539C326.656 362.203 328.969 363.242 331.391 363.438L330.984 364.359C328.672 364.141 326.492 363.234 325.742 361.773C324.992 363.234 322.805 364.141 320.484 364.359L320.078 363.438ZM320.594 368.984V368.016H325.125V366.703H326.344V368.016H330.906V368.984H320.594ZM321.547 371.5C321.539 370.297 323.031 369.68 325.734 369.672C328.414 369.68 329.938 370.297 329.938 371.5C329.938 372.719 328.414 373.352 325.734 373.344C323.031 373.352 321.539 372.719 321.547 371.5ZM322.781 371.5C322.781 372.141 323.859 372.5 325.734 372.484C327.617 372.5 328.68 372.141 328.688 371.5C328.68 370.859 327.617 370.539 325.734 370.531C323.859 370.539 322.781 370.859 322.781 371.5Z" fill="#14303F"/>
<path d="M344.375 360.781V362.172C344.359 363.875 344.359 365.781 343.859 368.578L342.609 368.438C343.133 365.781 343.133 363.836 343.141 362.172V361.797H334.578V360.781H344.375ZM333.234 371.297V370.281H338.203V365.312H339.406V370.281H345.891V371.297H333.234Z" fill="#14303F"/>
<path d="M157.398 378.375V383.875H159.727V384.906H157.398V392.297H156.18V378.375H157.398ZM147.258 388.812V379.734H153.742V380.75H148.477V387.781C150.992 387.773 152.766 387.664 154.836 387.281L154.992 388.344C152.812 388.734 150.992 388.812 148.352 388.812H147.258Z" fill="#14303F"/>
<path d="M173.18 386.078V387.094H160.461V386.078H173.18ZM162.07 379.844V378.859H171.539V382.281H163.336V383.828H171.836V384.797H162.117V381.359H170.305V379.844H162.07ZM162.148 391.969V388.188H163.383V390.938H171.836V391.969H162.148Z" fill="#14303F"/>
<path d="M183.023 381.016C183.031 382.836 184.391 384.461 186.43 385.125L185.852 386.094C184.25 385.562 183.039 384.461 182.438 383.062C181.844 384.656 180.562 385.898 178.898 386.5L178.273 385.516C180.352 384.812 181.805 383.023 181.82 381.016V380.422H178.648V379.406H186.148V380.422H183.023V381.016ZM180.117 389.672C180.125 388.07 181.867 387.141 184.727 387.141C187.578 387.141 189.305 388.07 189.305 389.672C189.305 391.297 187.578 392.234 184.727 392.234C181.867 392.234 180.125 391.297 180.117 389.672ZM181.352 389.672C181.336 390.672 182.633 391.258 184.727 391.25C186.828 391.258 188.109 390.672 188.117 389.672C188.109 388.703 186.828 388.125 184.727 388.125C182.633 388.125 181.336 388.703 181.352 389.672ZM187.961 386.766V378.375H189.18V381.922H191.273V382.953H189.18V386.766H187.961Z" fill="#14303F"/>
<path d="M203.602 378.375V392.266H202.367V378.375H203.602ZM192.43 388.625C194.492 387.688 196.07 385.344 196.07 382.906V381.797H192.805V380.797H196.055V378.641H197.273V380.797H200.508V381.797H197.273V382.906C197.273 385.234 198.898 387.484 200.992 388.375L200.305 389.328C198.695 388.617 197.344 387.117 196.695 385.281C196.07 387.219 194.727 388.82 193.117 389.578L192.43 388.625Z" fill="#14303F"/>
<path d="M213.727 379.453C215.617 379.461 216.984 381.086 217.172 383.688H220.289V378.375H221.508V392.297H220.289V384.703H217.188C217.055 387.43 215.664 389.133 213.727 389.125C211.672 389.133 210.234 387.258 210.242 384.297C210.234 381.344 211.672 379.461 213.727 379.453ZM211.414 384.297C211.422 386.555 212.359 388.039 213.727 388.031C215.086 388.039 216.039 386.555 216.039 384.297C216.039 382.039 215.086 380.555 213.727 380.547C212.359 380.555 211.422 382.039 211.414 384.297Z" fill="#14303F"/>
<path d="M235.273 378.812V379.781H233.133V382.469H235.227V383.422H225.055V382.469H227.148V379.781H225.008V378.812H235.273ZM223.82 385.578V384.594H236.477V385.578H223.82ZM225.352 387.75V386.828H234.852V389.844H226.602V391.172H235.273V392.109H225.383V388.953H233.648V387.75H225.352ZM228.367 382.469H231.914V379.781H228.367V382.469Z" fill="#14303F"/>
<path d="M249.648 380.438V381.453H238.273V380.438H243.367V378.609H244.57V380.438H249.648ZM237.648 390.641V389.625H243.367V387.672C240.891 387.539 239.398 386.578 239.414 385.016C239.398 383.367 241.141 382.391 243.977 382.406C246.773 382.391 248.547 383.367 248.539 385.016C248.547 386.578 247.023 387.539 244.57 387.672V389.625H250.367V390.641H237.648ZM240.648 385.016C240.633 386.07 241.906 386.68 243.977 386.688C246.023 386.68 247.297 386.07 247.289 385.016C247.297 383.984 246.023 383.375 243.977 383.375C241.906 383.375 240.633 383.984 240.648 385.016Z" fill="#14303F"/>
<path d="M262.32 378.375V383.25H264.398V384.281H262.32V389.25H261.086V378.375H262.32ZM251.414 386.641C252.516 386.641 253.82 386.625 255.18 386.578V385.516C253.562 385.367 252.516 384.594 252.523 383.422C252.516 382.086 253.82 381.273 255.773 381.281C257.742 381.273 259.023 382.086 259.039 383.422C259.023 384.586 258.008 385.359 256.398 385.516V386.523C257.695 386.445 259.016 386.328 260.227 386.141L260.336 387.016C257.359 387.578 253.984 387.617 251.555 387.641L251.414 386.641ZM251.758 380.672V379.75H255.18V378.344H256.398V379.75H259.805V380.672H251.758ZM253.492 391.969V388.516H254.727V390.938H262.82V391.969H253.492ZM253.695 383.422C253.688 384.18 254.492 384.672 255.773 384.672C257.055 384.672 257.867 384.18 257.867 383.422C257.867 382.633 257.055 382.148 255.773 382.156C254.492 382.148 253.688 382.633 253.695 383.422Z" fill="#14303F"/>
<path d="M276.758 378.375V392.297H275.523V378.375H276.758ZM265.82 384.297C265.828 381.344 267.297 379.461 269.367 379.453C271.43 379.461 272.922 381.344 272.914 384.297C272.922 387.258 271.43 389.133 269.367 389.125C267.297 389.133 265.828 387.258 265.82 384.297ZM267.008 384.297C267.008 386.555 267.977 388.039 269.367 388.031C270.766 388.039 271.727 386.555 271.727 384.297C271.727 382.039 270.766 380.555 269.367 380.547C267.977 380.555 267.008 382.039 267.008 384.297Z" fill="#14303F"/>
<path d="M291.43 384.375V385.391H288.383V388.125C289.742 388.07 291.109 387.977 292.398 387.828L292.492 388.75C289.414 389.195 286.055 389.258 283.398 389.25L283.227 388.219C284.438 388.219 285.781 388.211 287.164 388.172V385.391H284.289V379.703H291.367V380.703H285.492V384.375H291.43ZM293.32 392.297V378.375H294.539V392.297H293.32Z" fill="#14303F"/>
<path d="M300.711 379.453C302.602 379.461 303.969 381.086 304.156 383.688H307.273V378.375H308.492V392.297H307.273V384.703H304.172C304.039 387.43 302.648 389.133 300.711 389.125C298.656 389.133 297.219 387.258 297.227 384.297C297.219 381.344 298.656 379.461 300.711 379.453ZM298.398 384.297C298.406 386.555 299.344 388.039 300.711 388.031C302.07 388.039 303.023 386.555 303.023 384.297C303.023 382.039 302.07 380.555 300.711 380.547C299.344 380.555 298.406 382.039 298.398 384.297Z" fill="#14303F"/>
<path d="M321.742 382.516V384.156H327.523V385.172H314.805V384.156H320.539V382.516H321.742ZM315.492 382.438C317.891 382.242 320.227 381.203 320.344 379.781H315.977V378.812H326.352V379.781H321.953C322.07 381.203 324.383 382.242 326.805 382.438L326.398 383.359C324.086 383.141 321.906 382.234 321.156 380.773C320.406 382.234 318.219 383.141 315.898 383.359L315.492 382.438ZM316.008 387.984V387.016H320.539V385.703H321.758V387.016H326.32V387.984H316.008ZM316.961 390.5C316.953 389.297 318.445 388.68 321.148 388.672C323.828 388.68 325.352 389.297 325.352 390.5C325.352 391.719 323.828 392.352 321.148 392.344C318.445 392.352 316.953 391.719 316.961 390.5ZM318.195 390.5C318.195 391.141 319.273 391.5 321.148 391.484C323.031 391.5 324.094 391.141 324.102 390.5C324.094 389.859 323.031 389.539 321.148 389.531C319.273 389.539 318.195 389.859 318.195 390.5Z" fill="#14303F"/>
<path d="M332.367 379.453C334.414 379.461 335.867 381.344 335.883 384.297C335.867 387.258 334.414 389.133 332.367 389.125C330.305 389.133 328.859 387.258 328.867 384.297C328.859 381.344 330.305 379.461 332.367 379.453ZM330.023 384.297C330.031 386.555 330.992 388.039 332.367 388.031C333.758 388.039 334.695 386.555 334.695 384.297C334.695 382.039 333.758 380.555 332.367 380.547C330.992 380.555 330.031 382.039 330.023 384.297ZM338.18 392.266V378.375H339.398V383.922H341.727V384.984H339.398V392.266H338.18Z" fill="#14303F"/>
<path d="M355.195 389.453V390.484H342.477V389.453H345.633V385.711C344.445 385.094 343.727 384.094 343.727 382.828C343.727 380.68 345.836 379.266 348.805 379.25C351.773 379.266 353.883 380.68 353.883 382.828C353.883 384.07 353.188 385.055 352.039 385.672V389.453H355.195ZM344.914 382.828C344.906 384.383 346.523 385.422 348.805 385.422C351.062 385.422 352.695 384.383 352.695 382.828C352.695 381.273 351.062 380.25 348.805 380.266C346.523 380.25 344.906 381.273 344.914 382.828ZM346.836 389.453H350.805V386.148C350.203 386.305 349.531 386.391 348.805 386.391C348.094 386.391 347.43 386.312 346.836 386.156V389.453Z" fill="#14303F"/>
<path d="M357.773 391.094C357.227 391.086 356.758 390.633 356.773 390.078C356.758 389.531 357.227 389.078 357.773 389.078C358.328 389.078 358.781 389.531 358.773 390.078C358.781 390.633 358.328 391.086 357.773 391.094Z" fill="#14303F"/>
<path d="M365.289 379.703L364.07 383.953H362.914L363.773 379.703H365.289ZM359.945 383.953L360.805 379.703H362.32L361.102 383.953H359.945Z" fill="#14303F"/>
<path d="M428.852 281.922L430.07 277.672H431.227L430.367 281.922H428.852ZM431.82 281.922L433.039 277.672H434.195L433.336 281.922H431.82Z" fill="#14303F"/>
<path d="M446.586 276.375V281.875H448.914V282.906H446.586V290.297H445.367V276.375H446.586ZM436.445 286.812V277.734H442.93V278.75H437.664V285.781C440.18 285.773 441.953 285.664 444.023 285.281L444.18 286.344C442 286.734 440.18 286.812 437.539 286.812H436.445Z" fill="#14303F"/>
<path d="M462.586 278.484V279.5H460.523V281.438H462.586V282.469H460.523V284.625H459.305V276.375H460.523V278.484H462.586ZM449.93 280.484C449.922 278.547 451.469 277.211 453.57 277.219C455.688 277.211 457.211 278.547 457.227 280.484C457.211 282.414 455.688 283.742 453.57 283.75C451.469 283.742 449.922 282.414 449.93 280.484ZM451.133 280.484C451.125 281.797 452.164 282.703 453.57 282.719C454.992 282.703 456.016 281.797 456.023 280.484C456.016 279.18 454.992 278.25 453.57 278.266C452.164 278.25 451.125 279.18 451.133 280.484ZM451.461 287.656C451.469 286.008 453.234 285.055 456.07 285.047C458.906 285.055 460.648 286.008 460.648 287.656C460.648 289.273 458.906 290.234 456.07 290.234C453.234 290.234 451.469 289.273 451.461 287.656ZM452.695 287.656C452.68 288.656 453.977 289.242 456.07 289.25C458.172 289.242 459.453 288.656 459.461 287.656C459.453 286.648 458.172 286.047 456.07 286.047C453.977 286.047 452.68 286.648 452.695 287.656Z" fill="#14303F"/>
<path d="M474.352 276.391V280.969H476.445V282H474.352V286.797H473.133V276.391H474.352ZM463.523 279.094V278.094H467.055V276.391H468.273V278.094H471.805V279.094H463.523ZM464.32 282.453C464.312 280.875 465.656 279.859 467.664 279.859C469.648 279.859 470.992 280.875 471.008 282.453C470.992 284.016 469.648 285.023 467.664 285.016C465.656 285.023 464.312 284.016 464.32 282.453ZM465.492 282.453C465.484 283.43 466.352 284.062 467.664 284.047C468.961 284.062 469.836 283.43 469.852 282.453C469.836 281.461 468.961 280.82 467.664 280.828C466.352 280.82 465.484 281.461 465.492 282.453ZM465.664 289.969V285.969H466.867V288.938H474.992V289.969H465.664Z" fill="#14303F"/>
<path d="M492.32 277.281V278.5C492.32 279.812 492.32 281.258 491.922 283.25H493.992V284.266H488.258V290.297H487.023V284.266H481.336V283.25H490.68C491.102 281.25 491.102 279.797 491.102 278.5V278.297H482.93V277.281H492.32Z" fill="#14303F"/>
<path d="M499.945 278.562C499.93 280.547 501.344 282.289 503.383 282.984L502.695 283.938C501.164 283.367 499.961 282.234 499.359 280.773C498.766 282.438 497.5 283.727 495.82 284.359L495.148 283.359C497.289 282.609 498.711 280.766 498.727 278.609V277.172H499.945V278.562ZM497.414 287.641C497.406 285.969 499.18 285.008 502.07 285.016C504.953 285.008 506.727 285.969 506.727 287.641C506.727 289.297 504.953 290.234 502.07 290.234C499.18 290.234 497.406 289.297 497.414 287.641ZM498.633 287.641C498.625 288.648 499.938 289.258 502.07 289.25C504.195 289.258 505.508 288.648 505.508 287.641C505.508 286.602 504.195 285.984 502.07 285.984C499.938 285.984 498.625 286.602 498.633 287.641ZM502.352 280.375V279.359H505.445V276.375H506.68V284.609H505.445V280.375H502.352Z" fill="#14303F"/>
<path d="M521.648 283.703V284.703H508.992V283.703H521.648ZM510.398 279.625C510.398 277.883 512.305 276.859 515.32 276.875C518.305 276.859 520.219 277.883 520.227 279.625C520.219 281.352 518.305 282.391 515.32 282.391C512.305 282.391 510.398 281.352 510.398 279.625ZM510.633 289.969V285.922H511.867V288.938H520.242V289.969H510.633ZM511.664 279.625C511.656 280.727 513.078 281.391 515.32 281.391C517.547 281.391 518.969 280.727 518.977 279.625C518.969 278.539 517.547 277.859 515.32 277.859C513.078 277.859 511.656 278.539 511.664 279.625Z" fill="#14303F"/>
<path d="M533.758 280.516V282.156H539.539V283.172H526.82V282.156H532.555V280.516H533.758ZM527.508 280.438C529.906 280.242 532.242 279.203 532.359 277.781H527.992V276.812H538.367V277.781H533.969C534.086 279.203 536.398 280.242 538.82 280.438L538.414 281.359C536.102 281.141 533.922 280.234 533.172 278.773C532.422 280.234 530.234 281.141 527.914 281.359L527.508 280.438ZM528.023 285.984V285.016H532.555V283.703H533.773V285.016H538.336V285.984H528.023ZM528.977 288.5C528.969 287.297 530.461 286.68 533.164 286.672C535.844 286.68 537.367 287.297 537.367 288.5C537.367 289.719 535.844 290.352 533.164 290.344C530.461 290.352 528.969 289.719 528.977 288.5ZM530.211 288.5C530.211 289.141 531.289 289.5 533.164 289.484C535.047 289.5 536.109 289.141 536.117 288.5C536.109 287.859 535.047 287.539 533.164 287.531C531.289 287.539 530.211 287.859 530.211 288.5Z" fill="#14303F"/>
<path d="M553.32 283.703V284.703H540.664V283.703H553.32ZM542.07 279.625C542.07 277.883 543.977 276.859 546.992 276.875C549.977 276.859 551.891 277.883 551.898 279.625C551.891 281.352 549.977 282.391 546.992 282.391C543.977 282.391 542.07 281.352 542.07 279.625ZM542.305 289.969V285.922H543.539V288.938H551.914V289.969H542.305ZM543.336 279.625C543.328 280.727 544.75 281.391 546.992 281.391C549.219 281.391 550.641 280.727 550.648 279.625C550.641 278.539 549.219 277.859 546.992 277.859C544.75 277.859 543.328 278.539 543.336 279.625Z" fill="#14303F"/>
<path d="M566.383 276.375V290.266H565.195V276.375H566.383ZM555.039 286.922V278.094H560.273V279.109H556.227V285.891C558.234 285.875 559.5 285.805 560.992 285.469L561.117 286.516C559.508 286.844 558.148 286.914 555.914 286.922H555.039ZM559.336 282.719V281.688H562.367V276.719H563.539V289.547H562.367V282.719H559.336Z" fill="#14303F"/>
<path d="M413.406 295.375V300.875H415.734V301.906H413.406V309.297H412.188V295.375H413.406ZM403.266 305.812V296.734H409.75V297.75H404.484V304.781C407 304.773 408.773 304.664 410.844 304.281L411 305.344C408.82 305.734 407 305.812 404.359 305.812H403.266Z" fill="#14303F"/>
<path d="M429.188 303.078V304.094H416.469V303.078H429.188ZM418.078 296.844V295.859H427.547V299.281H419.344V300.828H427.844V301.797H418.125V298.359H426.312V296.844H418.078ZM418.156 308.969V305.188H419.391V307.938H427.844V308.969H418.156Z" fill="#14303F"/>
<path d="M446.281 295.375V309.266H445.094V295.375H446.281ZM434.172 304.781C434.602 304.781 435.102 304.781 435.641 304.773V298.172H434.469V297.156H440.859V298.172H439.688V304.609C440.211 304.562 440.711 304.516 441.172 304.453L441.25 305.359C439.055 305.766 436.141 305.836 434.328 305.828L434.172 304.781ZM436.766 304.75C437.344 304.734 437.953 304.711 438.547 304.68V298.172H436.766V304.75ZM440.453 301.766V300.656H442.391V295.719H443.562V308.531H442.391V301.766H440.453Z" fill="#14303F"/>
<path d="M459.609 295.375V309.297H458.375V295.375H459.609ZM448.672 301.297C448.68 298.344 450.148 296.461 452.219 296.453C454.281 296.461 455.773 298.344 455.766 301.297C455.773 304.258 454.281 306.133 452.219 306.125C450.148 306.133 448.68 304.258 448.672 301.297ZM449.859 301.297C449.859 303.555 450.828 305.039 452.219 305.031C453.617 305.039 454.578 303.555 454.578 301.297C454.578 299.039 453.617 297.555 452.219 297.547C450.828 297.555 449.859 299.039 449.859 301.297Z" fill="#14303F"/>
<path d="M466.953 299.641C466.961 302 468.672 304.398 470.719 305.281L470.031 306.25C468.406 305.516 467.008 303.914 466.359 301.992C465.711 304.031 464.305 305.797 462.719 306.594L461.984 305.625C463.977 304.672 465.711 302.047 465.719 299.641V297.828H462.438V296.812H470.266V297.828H466.953V299.641ZM472.203 309.266V295.375H473.438V309.266H472.203Z" fill="#14303F"/>
<path d="M488.531 306.516V307.547H475.812V306.516H481.531V303.891H477.406V299.609H485.719V297.422H477.375V296.406H486.922V300.609H478.625V302.875H487.25V303.891H482.734V306.516H488.531Z" fill="#14303F"/>
<path d="M505.172 304.062V309.078H496.172V304.062H505.172ZM494.484 302.484V296.219H495.719V301.422C497.883 301.43 499.727 301.297 501.75 300.875L501.906 301.922C499.758 302.367 497.859 302.484 495.547 302.484H494.484ZM497.375 308.078H503.969V305.047H497.375V308.078ZM499.938 299.016V298.016H503.938V295.375H505.172V303.391H503.938V299.016H499.938Z" fill="#14303F"/>
<path d="M511.219 296.453C513.109 296.461 514.477 298.086 514.664 300.688H517.781V295.375H519V309.297H517.781V301.703H514.68C514.547 304.43 513.156 306.133 511.219 306.125C509.164 306.133 507.727 304.258 507.734 301.297C507.727 298.344 509.164 296.461 511.219 296.453ZM508.906 301.297C508.914 303.555 509.852 305.039 511.219 305.031C512.578 305.039 513.531 303.555 513.531 301.297C513.531 299.039 512.578 297.555 511.219 297.547C509.852 297.555 508.914 299.039 508.906 301.297Z" fill="#14303F"/>
<path d="M532.062 295.375V301.031H534.312V302.062H532.062V309.266H530.844V295.375H532.062ZM521.406 305.656C524.992 303.875 526.945 301.195 527.227 297.906H522.047V296.875H528.469C528.461 300.805 526.617 304.391 522.094 306.625L521.406 305.656Z" fill="#14303F"/>
<path d="M546.375 299.594V300.578H536.859V295.891H538.078V299.594H546.375ZM535.125 303.469V302.469H547.844V303.469H535.125ZM536.781 308.922V304.891H538V307.906H546.453V308.922H536.781Z" fill="#14303F"/>
<path d="M560.688 296.922V297.641C560.68 298.742 560.68 300.578 560.281 303.156L559.047 303.047C559.43 300.719 559.461 299.031 559.453 297.922H553.625V296.922H560.688ZM552.844 305.188C553.758 305.18 554.773 305.172 555.844 305.148V300.891H557.047V305.109C558.586 305.055 560.164 304.953 561.609 304.781L561.672 305.703C558.75 306.156 555.484 306.219 553 306.203L552.844 305.188ZM562.484 309.266V295.375H563.703V301.188H565.953V302.25H563.703V309.266H562.484Z" fill="#14303F"/>
<path d="M578.328 295.375V303.656H577.094V300.016H574.297V299H577.094V295.375H578.328ZM566.875 302.547C568.938 301.805 570.406 299.922 570.406 297.938V297.422H567.266V296.391H574.75V297.422H571.641V297.922C571.641 299.734 573.031 301.461 575.062 302.156L574.422 303.141C572.867 302.578 571.656 301.406 571.055 299.977C570.461 301.602 569.172 302.898 567.516 303.531L566.875 302.547ZM569.062 306.672C569.055 305.039 570.828 304.086 573.719 304.094C576.602 304.086 578.375 305.039 578.375 306.672C578.375 308.312 576.602 309.25 573.719 309.266C570.828 309.25 569.055 308.312 569.062 306.672ZM570.281 306.672C570.273 307.68 571.586 308.289 573.719 308.281C575.844 308.289 577.156 307.68 577.156 306.672C577.156 305.656 575.844 305.047 573.719 305.047C571.586 305.047 570.273 305.656 570.281 306.672Z" fill="#14303F"/>
<path d="M592.094 295.375V309.297H590.859V295.375H592.094ZM581.156 301.297C581.164 298.344 582.633 296.461 584.703 296.453C586.766 296.461 588.258 298.344 588.25 301.297C588.258 304.258 586.766 306.133 584.703 306.125C582.633 306.133 581.164 304.258 581.156 301.297ZM582.344 301.297C582.344 303.555 583.312 305.039 584.703 305.031C586.102 305.039 587.062 303.555 587.062 301.297C587.062 299.039 586.102 297.555 584.703 297.547C583.312 297.555 582.344 299.039 582.344 301.297Z" fill="#14303F"/>
<path d="M440.531 320.219V323.836C441.578 323.781 442.625 323.695 443.547 323.562L443.641 324.453C441.203 324.914 438.156 324.953 436.172 324.969L436.031 323.922C436.984 323.922 438.203 323.922 439.469 323.883V320.219H440.531ZM436.375 317.016V316H439.156V316.641C439.148 317.641 439.164 319.289 438.594 321.625L437.484 321.469C437.984 319.453 438.047 318.008 438.062 317.016H436.375ZM439.859 317.016V316H443.062V317.031C443.062 318.203 443.078 319.688 442.766 321.625L441.688 321.469C441.992 319.555 441.992 318.172 442 317.031V317.016H439.859ZM444.141 327.578V314.688H445.297V320.172H446.859V314.375H448.031V328.266H446.859V321.188H445.297V327.578H444.141Z" fill="#14303F"/>
<path d="M462.984 319.922V320.953H460.734V328.266H459.516V314.375H460.734V319.922H462.984ZM450.562 324.734V315.75H451.781V323.703C453.812 323.703 455.883 323.547 458.172 323.062L458.328 324.109C455.93 324.594 453.773 324.734 451.672 324.734H450.562Z" fill="#14303F"/>
<path d="M479.344 314.391V324.672H478.109V319.328H474.828V322.297H468.531V315.312H469.75V317.781H473.625V315.312H474.828V318.297H478.109V314.391H479.344ZM469.75 321.281H473.625V318.75H469.75V321.281ZM470.359 327.969V323.656H471.594V326.938H479.656V327.969H470.359Z" fill="#14303F"/>
<path d="M493.156 314.375V328.266H491.938V320.984H488.625V319.969H491.938V314.375H493.156ZM481.672 324.641C485.43 322.82 487.172 320.141 487.422 316.891H482.281V315.891H488.656C488.648 319.828 486.984 323.32 482.344 325.625L481.672 324.641Z" fill="#14303F"/>
<path d="M508.188 321.5V322.5H495.469V321.5H501.219V320.156H497.125V316.922H505.312V315.641H497.078V314.672H506.547V317.844H498.344V319.188H506.844V320.156H502.422V321.5H508.188ZM497.172 328.078V323.203H498.406V324.562H505.344V323.203H506.547V328.078H497.172ZM498.406 327.094H505.344V325.531H498.406V327.094Z" fill="#14303F"/>
<path d="M512.141 322.719V324.344H519.078V322.719H520.312V328.078H510.922V322.719H512.141ZM509.312 321.734V320.719H521.969V321.734H509.312ZM510.031 318.75C512.508 318.414 515.016 316.953 515.016 315.188V314.531H516.281V315.188C516.273 316.898 518.805 318.438 521.25 318.75L520.797 319.734C518.648 319.414 516.531 318.32 515.648 316.766C514.766 318.328 512.641 319.414 510.5 319.734L510.031 318.75ZM512.141 327.094H519.078V325.312H512.141V327.094Z" fill="#14303F"/>
<path d="M534.594 314.375V328.266H533.375V314.375H534.594ZM524.047 324.688V315.75H525.25V323.625C527.375 323.609 529.562 323.445 531.891 322.953L532.062 324C529.594 324.516 527.398 324.688 525.172 324.688H524.047Z" fill="#14303F"/>
<path d="M547.719 314.375V319.875H550.047V320.906H547.719V328.297H546.5V314.375H547.719ZM537.578 324.812V315.734H544.062V316.75H538.797V323.781C541.312 323.773 543.086 323.664 545.156 323.281L545.312 324.344C543.133 324.734 541.312 324.812 538.672 324.812H537.578Z" fill="#14303F"/>
<path d="M552.266 327.094C551.719 327.086 551.25 326.633 551.266 326.078C551.25 325.531 551.719 325.078 552.266 325.078C552.82 325.078 553.273 325.531 553.266 326.078C553.273 326.633 552.82 327.086 552.266 327.094Z" fill="#14303F"/>
<path d="M559.781 315.703L558.562 319.953H557.406L558.266 315.703H559.781ZM554.438 319.953L555.297 315.703H556.812L555.594 319.953H554.438Z" fill="#14303F"/>
<path d="M0 193C0 176.431 13.4315 163 30 163H336C352.569 163 366 176.431 366 193V297H30C13.4315 297 0 283.569 0 267V193Z" fill="white"/>
<path fill-rule="evenodd" clip-rule="evenodd" d="M336 164H30C13.9837 164 1 176.984 1 193V267C1 283.016 13.9837 296 30 296H365V193C365 176.984 352.016 164 336 164ZM30 163C13.4315 163 0 176.431 0 193V267C0 283.569 13.4315 297 30 297H366V193C366 176.431 352.569 163 336 163H30Z" fill="#677593"/>
<path d="M124.773 201.922L125.992 197.672H127.148L126.289 201.922H124.773ZM127.742 201.922L128.961 197.672H130.117L129.258 201.922H127.742Z" fill="#14303F"/>
<path d="M142.805 196.984V197.875C142.805 198.812 142.805 200.016 142.492 201.578H144.477V202.562H131.758V201.578H141.258C141.578 200.031 141.594 198.898 141.586 197.984H133.367V196.984H142.805ZM133.273 204.953V203.969H142.852V207.469H134.523V209.109H143.211V210.109H133.289V206.5H141.633V204.953H133.273Z" fill="#14303F"/>
<path d="M150.289 200.641C150.273 202.867 151.883 205.32 153.898 206.281L153.195 207.25C151.633 206.484 150.312 204.844 149.688 202.961C149.047 205 147.656 206.797 146.102 207.594L145.352 206.625C147.352 205.648 149.07 203.008 149.086 200.641V198.828H145.852V197.812H153.414V198.828H150.289V200.641ZM155.117 210.266V196.375H156.336V202H158.664V203.047H156.336V210.266H155.117Z" fill="#14303F"/>
<path d="M170.492 197.797V199.516C170.5 201.562 170.5 203.453 169.914 206.266L168.68 206.156C168.992 204.82 169.141 203.664 169.219 202.586L160.742 203.047L160.57 202.031L169.273 201.672C169.297 200.938 169.305 200.227 169.305 199.516V198.828H160.945V197.797H170.492ZM159.414 208.312V207.281H172.07V208.312H159.414Z" fill="#14303F"/>
<path d="M184.727 196.375V210.266H183.492V196.375H184.727ZM173.414 206.656C177.172 204.875 179.094 202.211 179.367 198.891H174.055V197.891H180.617C180.602 201.883 178.742 205.422 174.086 207.656L173.414 206.656Z" fill="#14303F"/>
<path d="M199.773 202.828V203.797H187.055V202.828H199.773ZM188.586 205.828V204.906H198.18V207.859H189.836V209.188H198.633V210.078H188.602V207.016H196.961V205.828H188.586ZM188.664 197.688V196.797H198.133V199.672H189.93V200.891H198.383V201.781H188.711V198.828H196.898V197.688H188.664Z" fill="#14303F"/>
<path d="M217.57 202.188V203.188H211.836V204.594H215.945V207.75H207.695V209.141H216.367V210.109H206.477V206.844H214.742V205.531H206.445V204.594H210.633V203.188H204.914V202.188H217.57ZM205.602 200.562C208.031 200.344 210.344 199.289 210.539 197.844H206.07V196.875H216.445V197.844H211.953C212.133 199.281 214.453 200.344 216.898 200.562L216.492 201.5C214.219 201.266 212.078 200.383 211.242 198.977C210.414 200.383 208.281 201.266 206.008 201.5L205.602 200.562Z" fill="#14303F"/>
<path d="M222.477 197.453C223.75 197.461 224.789 198.203 225.391 199.484H229.039V196.375H230.258V210.297H229.039V204.906H225.477C224.898 206.312 223.82 207.133 222.477 207.125C220.422 207.133 218.984 205.258 218.992 202.297C218.984 199.344 220.422 197.461 222.477 197.453ZM220.164 202.297C220.172 204.555 221.109 206.039 222.477 206.031C223.836 206.039 224.789 204.555 224.789 202.297C224.789 200.039 223.836 198.555 222.477 198.547C221.109 198.555 220.172 200.039 220.164 202.297ZM225.742 200.516C225.875 201.055 225.945 201.648 225.945 202.297C225.945 202.867 225.891 203.406 225.789 203.891H229.039V200.516H225.742Z" fill="#14303F"/>
<path d="M237.461 200.109C237.453 202.625 239.07 205.156 241.086 206.078L240.352 207.078C238.773 206.266 237.469 204.609 236.852 202.633C236.234 204.711 234.93 206.492 233.352 207.328L232.555 206.344C234.594 205.344 236.203 202.672 236.211 200.109V197.578H237.461V200.109ZM239.57 202.125V201.125H242.867V196.375H244.086V210.297H242.867V202.125H239.57Z" fill="#14303F"/>
<path d="M80.6406 215.375V219.25H82.7344V220.297H80.6406V224.344H79.4219V215.375H80.6406ZM69.8125 217.938V216.969H73.3438V215.266H74.5625V216.969H78.0938V217.938H69.8125ZM70.6094 221.109C70.6016 219.625 71.9375 218.664 73.9531 218.656C75.9453 218.664 77.2812 219.625 77.2969 221.109C77.2812 222.609 75.9453 223.57 73.9531 223.562C71.9375 223.57 70.6016 222.609 70.6094 221.109ZM71.7031 226.844C71.6953 225.328 73.4141 224.445 76.25 224.438C79.0781 224.445 80.7969 225.328 80.7969 226.844C80.7969 228.352 79.0781 229.234 76.25 229.234C73.4141 229.234 71.6953 228.352 71.7031 226.844ZM71.7812 221.109C71.7734 222.023 72.6406 222.609 73.9531 222.609C75.25 222.609 76.125 222.023 76.1406 221.109C76.125 220.195 75.25 219.594 73.9531 219.578C72.6406 219.594 71.7734 220.195 71.7812 221.109ZM72.9219 226.844C72.9062 227.742 74.1719 228.289 76.25 228.281C78.3203 228.289 79.5859 227.742 79.5781 226.844C79.5859 225.922 78.3203 225.406 76.25 225.406C74.1719 225.406 72.9062 225.922 72.9219 226.844Z" fill="#14303F"/>
<path d="M88.25 217.625C88.25 219.516 89.6875 221.25 91.7031 221.938L91.0312 222.906C89.5 222.344 88.2891 221.195 87.6797 219.742C87.0859 221.391 85.8438 222.664 84.2188 223.297L83.5625 222.312C85.6406 221.539 87.0391 219.68 87.0469 217.531V216.094H88.25V217.625ZM85.4062 226.703C85.4141 225.117 87.1562 224.188 90.0156 224.188C92.8672 224.188 94.5938 225.117 94.5938 226.703C94.5938 228.32 92.8672 229.234 90.0156 229.234C87.1562 229.234 85.4141 228.32 85.4062 226.703ZM86.6406 226.703C86.625 227.688 87.9219 228.258 90.0156 228.266C92.1172 228.258 93.3984 227.688 93.4062 226.703C93.3984 225.758 92.1172 225.172 90.0156 225.172C87.9219 225.172 86.625 225.758 86.6406 226.703ZM93.25 223.828V215.375H94.4688V219H96.5625V220.031H94.4688V223.828H93.25Z" fill="#14303F"/>
<path d="M114.172 226.453V227.484H101.453V226.453H107.172V223.062H102.953V216.547H112.594V223.062H108.375V226.453H114.172ZM104.156 222.078H111.406V217.531H104.156V222.078Z" fill="#14303F"/>
<path d="M127.953 222.391V223.391H115.281V222.391H127.953ZM116.891 220.859V215.984H126.375V216.984H118.109V219.844H126.5V220.859H116.891ZM116.922 228.953V224.891H118.141V227.922H126.609V228.953H116.922Z" fill="#14303F"/>
<path d="M144.641 215.375V223.656H143.406V220.016H140.609V219H143.406V215.375H144.641ZM133.188 222.547C135.25 221.805 136.719 219.922 136.719 217.938V217.422H133.578V216.391H141.062V217.422H137.953V217.922C137.953 219.734 139.344 221.461 141.375 222.156L140.734 223.141C139.18 222.578 137.969 221.406 137.367 219.977C136.773 221.602 135.484 222.898 133.828 223.531L133.188 222.547ZM135.375 226.672C135.367 225.039 137.141 224.086 140.031 224.094C142.914 224.086 144.688 225.039 144.688 226.672C144.688 228.312 142.914 229.25 140.031 229.266C137.141 229.25 135.367 228.312 135.375 226.672ZM136.594 226.672C136.586 227.68 137.898 228.289 140.031 228.281C142.156 228.289 143.469 227.68 143.469 226.672C143.469 225.656 142.156 225.047 140.031 225.047C137.898 225.047 136.586 225.656 136.594 226.672Z" fill="#14303F"/>
<path d="M159.672 226.469V227.484H146.953V226.469H152.672V223.469H148.453V216.359H149.688V218.875H156.906V216.359H158.109V223.469H153.875V226.469H159.672ZM149.688 222.469H156.906V219.875H149.688V222.469Z" fill="#14303F"/>
<path d="M171.531 215.375V221.031H173.781V222.062H171.531V229.266H170.312V215.375H171.531ZM160.875 225.656C164.461 223.875 166.414 221.195 166.695 217.906H161.516V216.875H167.938C167.93 220.805 166.086 224.391 161.562 226.625L160.875 225.656Z" fill="#14303F"/>
<path d="M191.344 226.469V227.484H178.625V226.469H184.344V223.469H180.125V216.359H181.359V218.875H188.578V216.359H189.781V223.469H185.547V226.469H191.344ZM181.359 222.469H188.578V219.875H181.359V222.469Z" fill="#14303F"/>
<path d="M203.906 215.375V229.297H202.672V215.375H203.906ZM192.969 221.297C192.977 218.344 194.445 216.461 196.516 216.453C198.578 216.461 200.07 218.344 200.062 221.297C200.07 224.258 198.578 226.133 196.516 226.125C194.445 226.133 192.977 224.258 192.969 221.297ZM194.156 221.297C194.156 223.555 195.125 225.039 196.516 225.031C197.914 225.039 198.875 223.555 198.875 221.297C198.875 219.039 197.914 217.555 196.516 217.547C195.125 217.555 194.156 219.039 194.156 221.297Z" fill="#14303F"/>
<path d="M217.5 221.891V222.891H213.203V226.484H219V227.516H206.281V226.484H212V222.891H207.906V216.516H217.359V217.516H209.141V221.891H217.5Z" fill="#14303F"/>
<path d="M232.812 223.031V224.047H220.094V223.031H225.844V221.562H221.75V218.172H229.938V216.734H221.703V215.734H231.172V219.094H222.969V220.578H231.469V221.562H227.047V223.031H232.812ZM221.516 226.109V225.109H231.25V229.141H230.016V226.109H221.516Z" fill="#14303F"/>
<path d="M244.891 217.781V218.781H237.922V217.781H240.812V215.797H242.031V217.781H244.891ZM238.422 222.875C238.422 221.031 239.68 219.727 241.406 219.719C243.156 219.727 244.406 221.031 244.422 222.875C244.406 224.742 243.156 226.055 241.406 226.062C239.68 226.055 238.422 224.742 238.422 222.875ZM239.516 222.875C239.516 224.109 240.305 224.992 241.406 224.984C242.516 224.992 243.328 224.109 243.328 222.875C243.328 221.656 242.516 220.766 241.406 220.75C240.305 220.766 239.516 221.656 239.516 222.875ZM245.609 228.578V215.719H246.766V221.234H248.609V215.375H249.781V229.266H248.609V222.25H246.766V228.578H245.609Z" fill="#14303F"/>
<path d="M262.812 217.344C262.805 219.203 265.281 220.781 267.703 221.141L267.25 222.109C265.086 221.742 262.969 220.586 262.125 218.914C261.281 220.586 259.164 221.742 257.031 222.109L256.547 221.141C258.961 220.781 261.43 219.203 261.438 217.344V217.25H256.984V216.25H267.25V217.25H262.812V217.344ZM255.797 224.312V223.297H268.453V224.312H262.703V229.266H261.5V224.312H255.797Z" fill="#14303F"/>
<path d="M273.75 219.328C273.75 221.539 274.828 223.922 276.672 225.016L275.969 225.969C274.625 225.156 273.664 223.672 273.18 221.977C272.672 223.828 271.641 225.422 270.25 226.266L269.469 225.344C271.391 224.219 272.562 221.758 272.562 219.375V216.688H273.75V219.328ZM275.141 221.406V220.359H277.5V215.672H278.656V228.562H277.5V221.406H275.141ZM280.344 229.266V215.375H281.531V229.266H280.344Z" fill="#14303F"/>
<path d="M296.172 226.453V227.484H283.453V226.453H286.609V222.711C285.422 222.094 284.703 221.094 284.703 219.828C284.703 217.68 286.812 216.266 289.781 216.25C292.75 216.266 294.859 217.68 294.859 219.828C294.859 221.07 294.164 222.055 293.016 222.672V226.453H296.172ZM285.891 219.828C285.883 221.383 287.5 222.422 289.781 222.422C292.039 222.422 293.672 221.383 293.672 219.828C293.672 218.273 292.039 217.25 289.781 217.266C287.5 217.25 285.883 218.273 285.891 219.828ZM287.812 226.453H291.781V223.148C291.18 223.305 290.508 223.391 289.781 223.391C289.07 223.391 288.406 223.312 287.812 223.156V226.453Z" fill="#14303F"/>
<path d="M298.75 228.094C298.203 228.086 297.734 227.633 297.75 227.078C297.734 226.531 298.203 226.078 298.75 226.078C299.305 226.078 299.758 226.531 299.75 227.078C299.758 227.633 299.305 228.086 298.75 228.094Z" fill="#14303F"/>
<path d="M99.1172 234.375V241.484H97.8984V234.375H99.1172ZM87.8828 240.75C91.3672 239.977 93.3984 238.312 93.6172 236.078H88.5859V235.062H94.9609C94.9531 238.609 92.4453 240.82 88.3359 241.781L87.8828 240.75ZM90.0859 243.125V242.141H99.1172V245.5H91.3359V247.156H99.6172V248.141H90.1172V244.562H97.8984V243.125H90.0859Z" fill="#14303F"/>
<path d="M112.93 234.375V248.297H111.695V234.375H112.93ZM101.992 240.297C102 237.344 103.469 235.461 105.539 235.453C107.602 235.461 109.094 237.344 109.086 240.297C109.094 243.258 107.602 245.133 105.539 245.125C103.469 245.133 102 243.258 101.992 240.297ZM103.18 240.297C103.18 242.555 104.148 244.039 105.539 244.031C106.938 244.039 107.898 242.555 107.898 240.297C107.898 238.039 106.938 236.555 105.539 236.547C104.148 236.555 103.18 238.039 103.18 240.297Z" fill="#14303F"/>
<path d="M119.492 235.281C121.625 235.297 123.188 236.609 123.195 238.547C123.188 240.289 121.922 241.523 120.117 241.758V244.117C121.414 244.062 122.719 243.969 123.93 243.812L124.008 244.734C121.062 245.234 117.781 245.266 115.336 245.25L115.133 244.219C116.25 244.211 117.539 244.203 118.883 244.164V241.758C117.039 241.539 115.781 240.297 115.789 238.547C115.781 236.609 117.32 235.297 119.492 235.281ZM116.992 238.547C116.977 239.852 118.031 240.758 119.492 240.75C120.93 240.758 121.977 239.852 121.992 238.547C121.977 237.242 120.93 236.352 119.492 236.344C118.031 236.352 116.977 237.242 116.992 238.547ZM124.82 248.266V234.375H126.039V240.109H128.305V241.172H126.039V248.266H124.82Z" fill="#14303F"/>
<path d="M139.961 235.188V236.188H134.992V239.844C137.719 239.859 139.359 239.758 141.258 239.375L141.414 240.359C139.422 240.781 137.727 240.859 134.867 240.844H133.789V235.188H139.961ZM135.148 243.078V242.078H144.008V245.5H136.383V247.078H144.523V248.078H135.18V244.531H142.789V243.078H135.148ZM142.789 241.391V234.375H144.008V237.328H146.102V238.344H144.008V241.391H142.789Z" fill="#14303F"/>
<path d="M151.758 236.562C151.742 238.547 153.156 240.289 155.195 240.984L154.508 241.938C152.977 241.367 151.773 240.234 151.172 238.773C150.578 240.438 149.312 241.727 147.633 242.359L146.961 241.359C149.102 240.609 150.523 238.766 150.539 236.609V235.172H151.758V236.562ZM149.227 245.641C149.219 243.969 150.992 243.008 153.883 243.016C156.766 243.008 158.539 243.969 158.539 245.641C158.539 247.297 156.766 248.234 153.883 248.234C150.992 248.234 149.219 247.297 149.227 245.641ZM150.445 245.641C150.438 246.648 151.75 247.258 153.883 247.25C156.008 247.258 157.32 246.648 157.32 245.641C157.32 244.602 156.008 243.984 153.883 243.984C151.75 243.984 150.438 244.602 150.445 245.641ZM154.164 238.375V237.359H157.258V234.375H158.492V242.609H157.258V238.375H154.164Z" fill="#14303F"/>
<path d="M176.305 234.375V248.266H175.07V234.375H176.305ZM164.992 244.656C168.75 242.875 170.672 240.211 170.945 236.891H165.633V235.891H172.195C172.18 239.883 170.32 243.422 165.664 245.656L164.992 244.656Z" fill="#14303F"/>
<path d="M191.352 242.031V243.047H178.633V242.031H184.383V240.562H180.289V237.172H188.477V235.734H180.242V234.734H189.711V238.094H181.508V239.578H190.008V240.562H185.586V242.031H191.352ZM180.055 245.109V244.109H189.789V248.141H188.555V245.109H180.055Z" fill="#14303F"/>
<path d="M197.023 235.391C199.203 235.398 200.75 236.727 200.758 238.656C200.75 240.594 199.203 241.914 197.023 241.922C194.828 241.914 193.266 240.594 193.273 238.656C193.266 236.727 194.828 235.398 197.023 235.391ZM192.555 244.188C195.117 244.195 198.656 244.172 201.727 243.719L201.82 244.625C198.641 245.219 195.227 245.234 192.727 245.234L192.555 244.188ZM194.477 238.656C194.469 239.953 195.539 240.844 197.023 240.844C198.492 240.844 199.562 239.953 199.555 238.656C199.562 237.367 198.492 236.469 197.023 236.469C195.539 236.469 194.469 237.367 194.477 238.656ZM202.648 248.297V234.375H203.867V248.297H202.648Z" fill="#14303F"/>
<path d="M216.43 235.672C216.422 239 214.719 241.578 211.102 243.141L210.43 242.219C213.422 240.984 214.93 239.07 215.164 236.672H211.023V235.672H216.43ZM212.117 247.25C214.531 246.867 216.883 245.32 216.883 243.469V242.844H218.102V243.469C218.102 245.32 220.453 246.867 222.867 247.25L222.398 248.203C220.32 247.836 218.336 246.75 217.492 245.172C216.641 246.75 214.672 247.836 212.602 248.203L212.117 247.25ZM217.883 242.188V234.656H219.055V238.047H220.945V234.391H222.117V243.453H220.945V239.078H219.055V242.188H217.883Z" fill="#14303F"/>
<path d="M231.117 235.672C231.125 237.633 233.672 239.32 236.18 239.672L235.68 240.672C233.523 240.312 231.383 239.117 230.492 237.414C229.602 239.133 227.469 240.312 225.305 240.672L224.805 239.672C227.312 239.32 229.852 237.664 229.852 235.672V234.875H231.117V235.672ZM224.148 243.234V242.203H236.805V243.234H231.055V248.266H229.852V243.234H224.148Z" fill="#14303F"/>
<path d="M249.883 234.375V248.266H248.695V234.375H249.883ZM238.148 240.375C238.156 237.422 239.328 235.555 241.133 235.547C242.82 235.555 243.961 237.18 244.117 239.797H245.914V234.672H247.086V247.562H245.914V240.812H244.125C244.008 243.516 242.844 245.211 241.133 245.203C239.328 245.211 238.156 243.328 238.148 240.375ZM239.305 240.375C239.289 242.625 240.008 244.047 241.133 244.031C242.266 244.047 242.984 242.625 242.977 240.375C242.984 238.117 242.266 236.703 241.133 236.703C240.008 236.703 239.289 238.117 239.305 240.375Z" fill="#14303F"/>
<path d="M266.805 234.359V239.844H268.836V240.891H266.805V248.266H265.586V234.359H266.805ZM256.242 244.625V235.844H259.773V236.859H257.461V243.586C258.148 243.562 258.992 243.5 259.914 243.297L260.039 244.328C258.727 244.602 257.68 244.625 256.852 244.625H256.242ZM260.57 244.625V235.844H264.273V236.859H261.789V243.594C262.875 243.578 263.742 243.516 264.727 243.266L264.852 244.297C263.633 244.594 262.648 244.625 261.242 244.625H260.57Z" fill="#14303F"/>
<path d="M280.398 234.375V239.906H282.727V240.938H280.398V248.297H279.18V234.375H280.398ZM270.195 236.688V235.672H276.508V240.641H271.445V243.891C274.023 243.898 275.828 243.797 277.93 243.406L278.055 244.422C275.867 244.82 274.016 244.922 271.336 244.938H270.227V239.625H275.289V236.688H270.195Z" fill="#14303F"/>
<path d="M82.5938 257.109C82.5859 259.648 84.3125 262.195 86.3594 263.125L85.6094 264.094C84.0234 263.328 82.6562 261.68 81.9922 259.703C81.3516 261.797 79.9844 263.555 78.3594 264.375L77.5781 263.344C79.6484 262.398 81.3594 259.742 81.375 257.109V254.578H82.5938V257.109ZM87.875 267.297V253.375H89.1094V267.297H87.875Z" fill="#14303F"/>
<path d="M102.344 253.375V257.609H104.438V258.641H102.344V263.547H101.109V253.375H102.344ZM91.5 260.953C94.8359 259.914 97 257.938 97.2578 255.484H92.0781V254.453H98.5938C98.5938 258.031 96.0391 260.688 92.0312 261.938L91.5 260.953ZM93.6406 266.969V262.516H94.8594V265.938H102.984V266.969H93.6406Z" fill="#14303F"/>
<path d="M116.797 253.375V267.266H115.562V253.375H116.797ZM105.484 263.656C109.242 261.875 111.164 259.211 111.438 255.891H106.125V254.891H112.688C112.672 258.883 110.812 262.422 106.156 264.656L105.484 263.656Z" fill="#14303F"/>
<path d="M131.844 261.031V262.047H119.125V261.031H124.875V259.562H120.781V256.172H128.969V254.734H120.734V253.734H130.203V257.094H122V258.578H130.5V259.562H126.078V261.031H131.844ZM120.547 264.109V263.109H130.281V267.141H129.047V264.109H120.547Z" fill="#14303F"/>
<path d="M144.422 253.375V267.297H143.188V253.375H144.422ZM133.484 259.297C133.492 256.344 134.961 254.461 137.031 254.453C139.094 254.461 140.586 256.344 140.578 259.297C140.586 262.258 139.094 264.133 137.031 264.125C134.961 264.133 133.492 262.258 133.484 259.297ZM134.672 259.297C134.672 261.555 135.641 263.039 137.031 263.031C138.43 263.039 139.391 261.555 139.391 259.297C139.391 257.039 138.43 255.555 137.031 255.547C135.641 255.555 134.672 257.039 134.672 259.297Z" fill="#14303F"/>
<path d="M161.672 253.375V257.609H163.766V258.641H161.672V263.625H160.453V253.375H161.672ZM151.078 257.781C151.07 255.766 152.648 254.367 154.719 254.359C156.805 254.367 158.359 255.766 158.375 257.781C158.359 259.789 156.805 261.203 154.719 261.203C152.648 261.203 151.07 259.789 151.078 257.781ZM152.281 257.781C152.273 259.148 153.344 260.125 154.719 260.125C156.117 260.125 157.164 259.148 157.172 257.781C157.164 256.406 156.117 255.438 154.719 255.438C153.344 255.438 152.273 256.406 152.281 257.781ZM152.984 266.969V262.562H154.188V265.938H162.312V266.969H152.984Z" fill="#14303F"/>
<path d="M177.359 264.469V265.484H164.641V264.469H170.359V261.469H166.141V254.359H167.375V256.875H174.594V254.359H175.797V261.469H171.562V264.469H177.359ZM167.375 260.469H174.594V257.875H167.375V260.469Z" fill="#14303F"/>
<path d="M189.922 253.375V267.297H188.688V253.375H189.922ZM178.984 259.297C178.992 256.344 180.461 254.461 182.531 254.453C184.594 254.461 186.086 256.344 186.078 259.297C186.086 262.258 184.594 264.133 182.531 264.125C180.461 264.133 178.992 262.258 178.984 259.297ZM180.172 259.297C180.172 261.555 181.141 263.039 182.531 263.031C183.93 263.039 184.891 261.555 184.891 259.297C184.891 257.039 183.93 255.555 182.531 255.547C181.141 255.555 180.172 257.039 180.172 259.297Z" fill="#14303F"/>
<path d="M203.531 257.594V258.578H194.016V253.891H195.234V257.594H203.531ZM192.281 261.469V260.469H205V261.469H192.281ZM193.938 266.922V262.891H195.156V265.906H203.609V266.922H193.938Z" fill="#14303F"/>
<path d="M221.656 253.391V261.734H220.422V259.859H216.734V258.844H220.422V256.969H216.875C215.961 259.203 213.82 260.82 210.844 261.703L210.328 260.734C213.68 259.742 215.781 257.859 216.023 255.453H211.031V254.422H217.359C217.359 254.969 217.297 255.492 217.18 255.984H220.422V253.391H221.656ZM212.469 264.531C212.461 262.875 214.266 261.875 217.109 261.875C219.922 261.875 221.734 262.875 221.734 264.531C221.734 266.195 219.922 267.203 217.109 267.203C214.266 267.203 212.461 266.195 212.469 264.531ZM213.672 264.531C213.68 265.578 215.016 266.211 217.109 266.203C219.172 266.211 220.508 265.578 220.516 264.531C220.508 263.484 219.172 262.852 217.109 262.859C215.016 262.852 213.68 263.484 213.672 264.531Z" fill="#14303F"/>
<path d="M236.672 261.344V262.375H230.875V267.266H229.672V262.375H223.953V261.344H236.672ZM225.391 257C225.398 255.117 227.359 253.945 230.281 253.938C233.195 253.945 235.172 255.117 235.172 257C235.172 258.852 233.195 260.023 230.281 260.016C227.359 260.023 225.398 258.852 225.391 257ZM226.656 257C226.641 258.234 228.117 259.031 230.281 259.031C232.445 259.031 233.914 258.234 233.922 257C233.914 255.742 232.445 254.938 230.281 254.938C228.117 254.938 226.641 255.742 226.656 257Z" fill="#14303F"/>
<path d="M248.547 253.375V259.031H250.797V260.062H248.547V267.266H247.328V253.375H248.547ZM237.891 263.656C241.477 261.875 243.43 259.195 243.711 255.906H238.531V254.875H244.953C244.945 258.805 243.102 262.391 238.578 264.625L237.891 263.656Z" fill="#14303F"/>
<path d="M260.344 262.703C260.336 263.93 261 265.234 262.32 265.984C263.648 265.164 264.352 263.773 264.344 262.703V261.938H265.547V262.703C265.539 264.133 266.594 265.555 268.375 266.172L267.766 267.078C266.375 266.586 265.406 265.617 264.922 264.453C264.492 265.578 263.641 266.648 262.359 267.188C261.008 266.672 260.148 265.656 259.734 264.492C259.234 265.609 258.281 266.578 256.953 267.078L256.328 266.172C258.086 265.516 259.141 264.031 259.156 262.703V261.938H260.344V262.703ZM255.969 257.453C255.961 255.516 257.5 254.195 259.609 254.203C261.719 254.195 263.242 255.516 263.25 257.453C263.242 259.359 261.719 260.672 259.609 260.672C257.5 260.672 255.961 259.359 255.969 257.453ZM257.172 257.453C257.156 258.742 258.18 259.648 259.609 259.656C261.023 259.648 262.047 258.742 262.047 257.453C262.047 256.156 261.023 255.234 259.609 255.25C258.18 255.234 257.156 256.156 257.172 257.453ZM265.891 261.328V253.391H267.109V261.328H265.891Z" fill="#14303F"/>
<path d="M275.797 253.688C278.82 253.688 280.695 254.664 280.703 256.328C280.695 257.969 278.82 258.93 275.797 258.922C272.773 258.93 270.875 257.969 270.875 256.328C270.875 254.664 272.773 253.688 275.797 253.688ZM269.469 261.141V260.125H282.125V261.141H269.469ZM271.016 267.078V262.516H280.578V267.078H271.016ZM272.141 256.328C272.133 257.336 273.547 257.945 275.797 257.953C278.023 257.945 279.445 257.336 279.453 256.328C279.445 255.289 278.023 254.672 275.797 254.672C273.547 254.672 272.133 255.289 272.141 256.328ZM272.234 266.078H279.375V263.5H272.234V266.078Z" fill="#14303F"/>
<path d="M284.766 266.094C284.219 266.086 283.75 265.633 283.766 265.078C283.75 264.531 284.219 264.078 284.766 264.078C285.32 264.078 285.773 264.531 285.766 265.078C285.773 265.633 285.32 266.086 284.766 266.094Z" fill="#14303F"/>
<path d="M292.281 254.703L291.062 258.953H289.906L290.766 254.703H292.281ZM286.938 258.953L287.797 254.703H289.312L288.094 258.953H286.938Z" fill="#14303F"/>
<path d="M72 30C72 13.4315 85.4315 0 102 0H321C337.569 0 351 13.4315 351 30V80H102C85.4315 80 72 66.5685 72 50V30Z" fill="white"/>
<path fill-rule="evenodd" clip-rule="evenodd" d="M321 1H102C85.9837 1 73 13.9837 73 30V50C73 66.0163 85.9837 79 102 79H350V30C350 13.9837 337.016 1 321 1ZM102 0C85.4315 0 72 13.4315 72 30V50C72 66.5685 85.4315 80 102 80H351V30C351 13.4315 337.569 0 321 0H102Z" fill="#677593"/>
<path d="M137.609 32.9219L138.828 28.6719H139.984L139.125 32.9219H137.609ZM140.578 32.9219L141.797 28.6719H142.953L142.094 32.9219H140.578Z" fill="#14303F"/>
<path d="M149.375 29.5625C149.359 31.5469 150.773 33.2891 152.812 33.9844L152.125 34.9375C150.594 34.3672 149.391 33.2344 148.789 31.7734C148.195 33.4375 146.93 34.7266 145.25 35.3594L144.578 34.3594C146.719 33.6094 148.141 31.7656 148.156 29.6094V28.1719H149.375V29.5625ZM146.844 38.6406C146.836 36.9688 148.609 36.0078 151.5 36.0156C154.383 36.0078 156.156 36.9688 156.156 38.6406C156.156 40.2969 154.383 41.2344 151.5 41.2344C148.609 41.2344 146.836 40.2969 146.844 38.6406ZM148.062 38.6406C148.055 39.6484 149.367 40.2578 151.5 40.25C153.625 40.2578 154.938 39.6484 154.938 38.6406C154.938 37.6016 153.625 36.9844 151.5 36.9844C149.367 36.9844 148.055 37.6016 148.062 38.6406ZM151.781 31.375V30.3594H154.875V27.375H156.109V35.6094H154.875V31.375H151.781Z" fill="#14303F"/>
<path d="M171.125 35.3438V36.375H165.328V41.2656H164.125V36.375H158.406V35.3438H171.125ZM159.844 31C159.852 29.1172 161.812 27.9453 164.734 27.9375C167.648 27.9453 169.625 29.1172 169.625 31C169.625 32.8516 167.648 34.0234 164.734 34.0156C161.812 34.0234 159.852 32.8516 159.844 31ZM161.109 31C161.094 32.2344 162.57 33.0312 164.734 33.0312C166.898 33.0312 168.367 32.2344 168.375 31C168.367 29.7422 166.898 28.9375 164.734 28.9375C162.57 28.9375 161.094 29.7422 161.109 31Z" fill="#14303F"/>
<path d="M187.312 27.9688V32.6562H183.203V34.4375H188.922V35.4375H176.266V34.4375H181.984V32.6562H177.906V27.9688H187.312ZM177.672 37.875V36.8906H187.359V41.2656H186.125V37.875H177.672ZM179.109 31.6719H186.094V28.9531H179.109V31.6719Z" fill="#14303F"/>
<path d="M202.812 38.4375V39.4531H190.094V38.4375H195.781V35.0312H196.984V38.4375H202.812ZM190.594 34.1719C193.023 33.7578 195.727 31.7266 195.734 29.3906V28.3281H197.016V29.3906C197.023 31.7109 199.766 33.7578 202.188 34.1719L201.641 35.1875C199.523 34.75 197.289 33.3203 196.391 31.3203C195.477 33.3125 193.266 34.75 191.141 35.1875L190.594 34.1719Z" fill="#14303F"/>
<path d="M215.391 27.375V41.2969H214.172V27.375H215.391ZM204.703 29.6875V28.6719H211.172V33.6094H205.984V36.8906C208.289 36.8984 210.344 36.7891 212.828 36.3906L212.953 37.4219C210.398 37.8203 208.289 37.9219 205.891 37.9219H204.734V32.6094H209.938V29.6875H204.703Z" fill="#14303F"/>
<path d="M228.094 28.2812C231.047 28.2969 233.172 29.7344 233.172 31.9219C233.172 33.9922 231.328 35.3594 228.688 35.5391V38.4531H234.484V39.4844H221.766V38.4531H227.484V35.5391C224.859 35.3516 223.016 33.9844 223.016 31.9219C223.016 29.7344 225.148 28.2969 228.094 28.2812ZM224.203 31.9219C224.195 33.5234 225.844 34.5625 228.094 34.5781C230.344 34.5625 231.984 33.5234 231.984 31.9219C231.984 30.3516 230.344 29.2891 228.094 29.2969C225.844 29.2891 224.195 30.3516 224.203 31.9219Z" fill="#14303F"/>
<path d="M248.312 38.4375V39.4844H235.594V38.4375H248.312ZM236.719 29.7969V28.7812H247.094V29.7969H244.891V34.6562H247.062V35.6562H236.75V34.6562H238.922V29.7969H236.719ZM240.141 34.6562H243.688V29.7969H240.141V34.6562Z" fill="#14303F"/>
<path d="M260.281 27.3906V30.875H262.391V31.9062H260.281V35.7812H259.062V27.3906H260.281ZM250.016 29.2656V28.25H256.312V32H251.25V33.9375C253.719 33.9453 255.508 33.8516 257.672 33.4844L257.797 34.5156C255.57 34.8828 253.711 34.9688 251.125 34.9688H250.047V31.0312H255.109V29.2656H250.016ZM251.219 38.7344C251.211 37.1406 252.961 36.1953 255.828 36.2031C258.664 36.1953 260.406 37.1406 260.406 38.7344C260.406 40.3203 258.664 41.2344 255.828 41.2344C252.961 41.2344 251.211 40.3203 251.219 38.7344ZM252.422 38.7344C252.406 39.7031 253.695 40.2891 255.828 40.2812C257.93 40.2891 259.211 39.7031 259.219 38.7344C259.211 37.7578 257.93 37.1719 255.828 37.1719C253.695 37.1719 252.406 37.7578 252.422 38.7344Z" fill="#14303F"/>
<path d="M140.469 46.6094V47.9375H147.344V46.6094H148.562V51.1719H144.469V52.5469H150.219V53.5469H137.562V52.5469H143.266V51.1719H139.25V46.6094H140.469ZM139.094 55.6406V54.7031H148.594V57.7812H140.344V59.1406H149.016V60.1094H139.125V56.875H147.391V55.6406H139.094ZM140.469 50.2188H147.344V48.875H140.469V50.2188Z" fill="#14303F"/>
<path d="M164.094 53.4219V54.4062H160.656V55.8906H162.453V60.0781H153.109V55.8906H154.844V54.4062H151.375V53.4219H164.094ZM152.984 47.6719V46.7188H162.453V49.9688H154.25V51.3438H162.75V52.3281H153.031V49.0469H161.219V47.6719H152.984ZM154.312 59.0938H161.25V56.875H154.312V59.0938ZM156.047 55.8906H159.453V54.4062H156.047V55.8906Z" fill="#14303F"/>
<path d="M181.953 57.4531V58.4844H169.234V57.4531H174.969V54.0781H176.203V57.4531H181.953ZM169.859 53.5781C172.211 53.1797 174.938 51.2344 174.938 49.0156V48.6719H170.281V47.6406H180.859V48.6719H176.203V49.0156C176.211 51.2344 178.945 53.1406 181.344 53.5312L180.844 54.5C178.719 54.0781 176.477 52.7266 175.586 50.8047C174.695 52.75 172.461 54.1328 170.375 54.5625L169.859 53.5781Z" fill="#14303F"/>
<path d="M187.875 48.5312C187.867 50.1797 189.273 51.7812 191.281 52.4219L190.672 53.3906C189.094 52.875 187.867 51.7969 187.266 50.4453C186.648 51.9375 185.359 53.1562 183.734 53.7188L183.125 52.75C185.148 52.0469 186.641 50.3125 186.641 48.5156V48.125H183.5V47.1094H190.984V48.125H187.875V48.5312ZM185.562 55.25V54.25H194.562V57.5781H186.812V59.125H195.094V60.1094H185.594V56.6406H193.344V55.25H185.562ZM190.547 50.5V49.4844H193.344V46.375H194.562V53.5625H193.344V50.5H190.547Z" fill="#14303F"/>
<path d="M213.562 54.7812V55.8125H207.828V60.2969H206.625V55.8125H200.906V54.7812H213.562ZM201.703 52.7188C204.18 52.3828 206.617 50.8672 206.625 49.125V49.1094H202.141V48.1094H206.625V46.375H207.828V48.1094H212.344V49.1094H207.844V49.125C207.844 50.8594 210.266 52.3828 212.75 52.7188L212.297 53.7031C210.148 53.375 208.125 52.2969 207.242 50.7891C206.359 52.3125 204.305 53.375 202.156 53.7031L201.703 52.7188Z" fill="#14303F"/>
<path d="M225.484 46.375V52.0312H227.734V53.0625H225.484V60.2656H224.266V46.375H225.484ZM214.828 56.6562C218.414 54.875 220.367 52.1953 220.648 48.9062H215.469V47.875H221.891C221.883 51.8047 220.039 55.3906 215.516 57.625L214.828 56.6562Z" fill="#14303F"/>
<path d="M235.5 48.7812V49.7812H228.531V48.7812H231.422V46.7969H232.641V48.7812H235.5ZM229.031 53.875C229.031 52.0312 230.289 50.7266 232.016 50.7188C233.766 50.7266 235.016 52.0312 235.031 53.875C235.016 55.7422 233.766 57.0547 232.016 57.0625C230.289 57.0547 229.031 55.7422 229.031 53.875ZM230.125 53.875C230.125 55.1094 230.914 55.9922 232.016 55.9844C233.125 55.9922 233.938 55.1094 233.938 53.875C233.938 52.6562 233.125 51.7656 232.016 51.75C230.914 51.7656 230.125 52.6562 230.125 53.875ZM236.219 59.5781V46.7188H237.375V52.2344H239.219V46.375H240.391V60.2656H239.219V53.25H237.375V59.5781H236.219Z" fill="#14303F"/>
<path d="M249.406 48.3438C249.398 50.2031 251.875 51.7812 254.297 52.1406L253.844 53.1094C251.68 52.7422 249.562 51.5859 248.719 49.9141C247.875 51.5859 245.758 52.7422 243.625 53.1094L243.141 52.1406C245.555 51.7812 248.023 50.2031 248.031 48.3438V48.25H243.578V47.25H253.844V48.25H249.406V48.3438ZM242.391 55.3125V54.2969H255.047V55.3125H249.297V60.2656H248.094V55.3125H242.391Z" fill="#14303F"/>
<path d="M260.344 50.3281C260.344 52.5391 261.422 54.9219 263.266 56.0156L262.562 56.9688C261.219 56.1562 260.258 54.6719 259.773 52.9766C259.266 54.8281 258.234 56.4219 256.844 57.2656L256.062 56.3438C257.984 55.2188 259.156 52.7578 259.156 50.375V47.6875H260.344V50.3281ZM261.734 52.4062V51.3594H264.094V46.6719H265.25V59.5625H264.094V52.4062H261.734ZM266.938 60.2656V46.375H268.125V60.2656H266.938Z" fill="#14303F"/>
<path d="M282.766 57.4531V58.4844H270.047V57.4531H273.203V53.7109C272.016 53.0938 271.297 52.0938 271.297 50.8281C271.297 48.6797 273.406 47.2656 276.375 47.25C279.344 47.2656 281.453 48.6797 281.453 50.8281C281.453 52.0703 280.758 53.0547 279.609 53.6719V57.4531H282.766ZM272.484 50.8281C272.477 52.3828 274.094 53.4219 276.375 53.4219C278.633 53.4219 280.266 52.3828 280.266 50.8281C280.266 49.2734 278.633 48.25 276.375 48.2656C274.094 48.25 272.477 49.2734 272.484 50.8281ZM274.406 57.4531H278.375V54.1484C277.773 54.3047 277.102 54.3906 276.375 54.3906C275.664 54.3906 275 54.3125 274.406 54.1562V57.4531Z" fill="#14303F"/>
<path d="M289.719 47.7031L288.5 51.9531H287.344L288.203 47.7031H289.719ZM284.375 51.9531L285.234 47.7031H286.75L285.531 51.9531H284.375Z" fill="#14303F"/>
<path d="M480 156C480 139.431 493.431 126 510 126H656C672.569 126 686 139.431 686 156V199H510C493.431 199 480 185.569 480 169V156Z" fill="white"/>
<path fill-rule="evenodd" clip-rule="evenodd" d="M656 127H510C493.984 127 481 139.984 481 156V169C481 185.016 493.984 198 510 198H685V156C685 139.984 672.016 127 656 127ZM510 126C493.431 126 480 139.431 480 156V169C480 185.569 493.431 199 510 199H686V156C686 139.431 672.569 126 656 126H510Z" fill="#677593"/>
<path d="M524.773 151.922L525.992 147.672H527.148L526.289 151.922H524.773ZM527.742 151.922L528.961 147.672H530.117L529.258 151.922H527.742Z" fill="#14303F"/>
<path d="M543.258 146.375V160.297H542.039V152.75H539.336V151.719H542.039V146.375H543.258ZM532.242 148.688V147.672H538.492V152.531H533.508V155.906C535.906 155.906 537.641 155.828 539.664 155.453L539.758 156.484C537.672 156.859 535.867 156.945 533.352 156.953H532.289V151.516H537.305V148.688H532.242Z" fill="#14303F"/>
<path d="M557.023 146.375V154.719H555.805V146.375H557.023ZM546.461 153.469V147.297H547.695V152.438C550.148 152.43 552.125 152.281 554.289 151.812L554.461 152.844C552.188 153.328 550.141 153.484 547.586 153.469H546.461ZM547.695 157.531C547.695 155.805 549.5 154.789 552.398 154.797C555.289 154.789 557.078 155.805 557.086 157.531C557.078 159.234 555.289 160.234 552.398 160.234C549.5 160.234 547.695 159.234 547.695 157.531ZM548.93 157.531C548.922 158.594 550.25 159.242 552.398 159.25C554.539 159.242 555.852 158.594 555.867 157.531C555.852 156.438 554.539 155.805 552.398 155.812C550.25 155.805 548.922 156.438 548.93 157.531Z" fill="#14303F"/>
<path d="M568.617 146.688V152.062H570.305V146.375H571.477V160.266H570.305V153.078H568.617V159.578H567.477V146.688H568.617ZM559.836 156.641V148.141H562.852V149.156H560.977V155.602C561.5 155.578 562.188 155.516 562.945 155.328L563.055 156.375C561.883 156.633 560.977 156.648 560.383 156.641H559.836ZM563.461 156.641V148.141H566.539V149.156H564.57V155.602C565.227 155.586 566 155.523 566.836 155.281L566.945 156.328C565.789 156.633 564.828 156.648 564.023 156.641H563.461Z" fill="#14303F"/>
<path d="M584.477 150.594V151.578H574.961V146.891H576.18V150.594H584.477ZM573.227 154.469V153.469H585.945V154.469H573.227ZM574.883 159.922V155.891H576.102V158.906H584.555V159.922H574.883Z" fill="#14303F"/>
<path d="M603.008 147.922V148.922H591.742V147.922H596.805V146.297H598.008V147.922H603.008ZM591.086 156.266V155.25H603.805V156.266H600.445V160.297H599.227V156.266H595.633V160.297H594.398V156.266H591.086ZM592.883 152.016C592.867 150.539 594.57 149.719 597.414 149.719C600.234 149.719 601.938 150.539 601.945 152.016C601.938 153.484 600.234 154.312 597.414 154.312C594.57 154.312 592.867 153.484 592.883 152.016ZM594.148 152.016C594.133 152.867 595.344 153.367 597.414 153.359C599.461 153.367 600.664 152.867 600.68 152.016C600.664 151.156 599.461 150.672 597.414 150.656C595.344 150.672 594.133 151.156 594.148 152.016Z" fill="#14303F"/>
<path d="M616.789 146.375V160.266H615.617V152.984H613.57V159.547H612.445V146.688H613.57V151.969H615.617V146.375H616.789ZM605.43 156.828V148.078H610.633V149.094H606.648V155.781C608.562 155.773 609.883 155.703 611.43 155.391L611.539 156.422C609.867 156.766 608.453 156.82 606.32 156.828H605.43Z" fill="#14303F"/>
<path d="M630.195 147.016V148.031H628.055V151.219H630.148V152.203H625.68V153.906H631.398V154.906H618.742V153.906H624.461V152.203H619.977V151.219H622.07V148.031H619.93V147.016H630.195ZM620.383 159.969V156.125H621.617V158.938H629.992V159.969H620.383ZM623.289 151.219H626.836V148.031H623.289V151.219Z" fill="#14303F"/>
<path d="M638.898 146.625C641.984 146.625 643.797 147.477 643.805 149.016C643.797 150.594 641.984 151.445 638.898 151.453C635.797 151.445 633.977 150.594 633.977 149.016C633.977 147.477 635.797 146.625 638.898 146.625ZM632.57 153.391V152.391H645.227V153.391H632.57ZM634.102 155.531V154.594H643.602V157.703H635.352V159.141H644.023V160.109H634.133V156.797H642.398V155.531H634.102ZM635.258 149.016C635.242 149.984 636.594 150.516 638.898 150.516C641.203 150.516 642.547 149.984 642.555 149.016C642.547 148.102 641.203 147.555 638.898 147.547C636.594 147.555 635.242 148.102 635.258 149.016Z" fill="#14303F"/>
<path d="M540.93 165.375V169.609H543.023V170.641H540.93V175.625H539.711V165.375H540.93ZM530.336 169.781C530.328 167.766 531.906 166.367 533.977 166.359C536.062 166.367 537.617 167.766 537.633 169.781C537.617 171.789 536.062 173.203 533.977 173.203C531.906 173.203 530.328 171.789 530.336 169.781ZM531.539 169.781C531.531 171.148 532.602 172.125 533.977 172.125C535.375 172.125 536.422 171.148 536.43 169.781C536.422 168.406 535.375 167.438 533.977 167.438C532.602 167.438 531.531 168.406 531.539 169.781ZM532.242 178.969V174.562H533.445V177.938H541.57V178.969H532.242Z" fill="#14303F"/>
<path d="M554.648 165.375V171.031H556.898V172.062H554.648V179.266H553.43V165.375H554.648ZM543.992 175.656C547.578 173.875 549.531 171.195 549.812 167.906H544.633V166.875H551.055C551.047 170.805 549.203 174.391 544.68 176.625L543.992 175.656Z" fill="#14303F"/>
<path d="M562.695 169.641C562.703 172 564.414 174.398 566.461 175.281L565.773 176.25C564.148 175.516 562.75 173.914 562.102 171.992C561.453 174.031 560.047 175.797 558.461 176.594L557.727 175.625C559.719 174.672 561.453 172.047 561.461 169.641V167.828H558.18V166.812H566.008V167.828H562.695V169.641ZM567.945 179.266V165.375H569.18V179.266H567.945Z" fill="#14303F"/>
<path d="M582.695 166.781V168.172C582.68 169.875 582.68 171.781 582.18 174.578L580.93 174.438C581.453 171.781 581.453 169.836 581.461 168.172V167.797H572.898V166.781H582.695ZM571.555 177.297V176.281H576.523V171.312H577.727V176.281H584.211V177.297H571.555Z" fill="#14303F"/>
<path d="M601.023 165.391V173.359H599.789V165.391H601.023ZM589.461 171.375C592.328 171.367 595.773 171.352 598.867 171.078L598.945 171.953C597.656 172.109 596.328 172.211 595.008 172.273V174.359H593.789V172.328C592.32 172.383 590.898 172.398 589.617 172.406L589.461 171.375ZM590.32 170.25V166.125H593.805V167.156H591.523V169.242C592.25 169.227 593.07 169.164 594.008 168.938L594.133 169.938C592.844 170.219 591.828 170.242 590.93 170.25H590.32ZM591.617 179.078V173.906H592.852V175.469H599.789V173.906H601.008V179.078H591.617ZM592.852 178.078H599.789V176.453H592.852V178.078ZM594.508 170.203V166.125H598.227V167.156H595.727V169.203H598.383V170.203H594.508Z" fill="#14303F"/>
<path d="M614.68 165.375V179.266H613.461V165.375H614.68ZM604.133 175.688V166.75H605.336V174.625C607.461 174.609 609.648 174.445 611.977 173.953L612.148 175C609.68 175.516 607.484 175.688 605.258 175.688H604.133Z" fill="#14303F"/>
<path d="M627.805 165.375V170.875H630.133V171.906H627.805V179.297H626.586V165.375H627.805ZM617.664 175.812V166.734H624.148V167.75H618.883V174.781C621.398 174.773 623.172 174.664 625.242 174.281L625.398 175.344C623.219 175.734 621.398 175.812 618.758 175.812H617.664Z" fill="#14303F"/>
<path d="M632.352 178.094C631.805 178.086 631.336 177.633 631.352 177.078C631.336 176.531 631.805 176.078 632.352 176.078C632.906 176.078 633.359 176.531 633.352 177.078C633.359 177.633 632.906 178.086 632.352 178.094Z" fill="#14303F"/>
<path d="M639.867 166.703L638.648 170.953H637.492L638.352 166.703H639.867ZM634.523 170.953L635.383 166.703H636.898L635.68 170.953H634.523Z" fill="#14303F"/>
</svg>
