<svg width="408" height="146" viewBox="0 0 408 146" fill="none" xmlns="http://www.w3.org/2000/svg">
<path d="M0.755859 62.8001H20.0119C26.5852 62.8001 31.3799 64.3468 34.3959 67.4401C37.4119 70.4561 38.9199 75.1348 38.9199 81.4761V84.7241C38.9199 88.9001 38.2239 92.3028 36.8319 94.9321C35.5172 97.5615 33.4679 99.4561 30.6839 100.616V100.848C37.0252 103.013 40.1959 108.659 40.1959 117.784V124.744C40.1959 131.008 38.5332 135.803 35.2079 139.128C31.9599 142.376 27.1652 144 20.8239 144H0.755859V62.8001ZM18.5039 95.8601C21.0559 95.8601 22.9505 95.2028 24.1879 93.8881C25.5025 92.5735 26.1599 90.3695 26.1599 87.2761V82.7521C26.1599 79.8135 25.6185 77.6868 24.5359 76.3721C23.5305 75.0575 21.9065 74.4001 19.6639 74.4001H13.5159V95.8601H18.5039ZM20.8239 132.4C23.0665 132.4 24.7292 131.82 25.8119 130.66C26.8945 129.423 27.4359 127.335 27.4359 124.396V117.32C27.4359 113.608 26.7785 111.056 25.4639 109.664C24.2265 108.195 22.1385 107.46 19.1999 107.46H13.5159V132.4H20.8239Z" fill="#14303F"/>
<path d="M46.4943 62.8001H81.2943V74.4001H59.2543V95.8601H76.7703V107.46H59.2543V132.4H81.2943V144H46.4943V62.8001Z" fill="#14303F"/>
<path d="M87.4749 62.8001H106.731C113.304 62.8001 118.099 64.3468 121.115 67.4401C124.131 70.4561 125.639 75.1348 125.639 81.4761V84.7241C125.639 88.9001 124.943 92.3028 123.551 94.9321C122.236 97.5615 120.187 99.4561 117.403 100.616V100.848C123.744 103.013 126.915 108.659 126.915 117.784V124.744C126.915 131.008 125.252 135.803 121.927 139.128C118.679 142.376 113.884 144 107.543 144H87.4749V62.8001ZM105.223 95.8601C107.775 95.8601 109.67 95.2028 110.907 93.8881C112.222 92.5735 112.879 90.3695 112.879 87.2761V82.7521C112.879 79.8135 112.338 77.6868 111.255 76.3721C110.25 75.0575 108.626 74.4001 106.383 74.4001H100.235V95.8601H105.223ZM107.543 132.4C109.786 132.4 111.448 131.82 112.531 130.66C113.614 129.423 114.155 127.335 114.155 124.396V117.32C114.155 113.608 113.498 111.056 112.183 109.664C110.946 108.195 108.858 107.46 105.919 107.46H100.235V132.4H107.543Z" fill="#14303F"/>
<path d="M143.073 62.8001H160.357L173.581 144H160.821L158.501 127.876V128.108H144.001L141.681 144H129.849L143.073 62.8001ZM156.993 117.088L151.309 76.9521H151.077L145.509 117.088H156.993Z" fill="#14303F"/>
<path d="M194.86 145.16C188.673 145.16 183.995 143.42 180.824 139.94C177.653 136.383 176.068 131.317 176.068 124.744V120.104H188.132V125.672C188.132 130.931 190.336 133.56 194.744 133.56C196.909 133.56 198.533 132.941 199.616 131.704C200.776 130.389 201.356 128.301 201.356 125.44C201.356 122.037 200.583 119.06 199.036 116.508C197.489 113.879 194.628 110.747 190.452 107.112C185.193 102.472 181.52 98.2961 179.432 94.5841C177.344 90.7948 176.3 86.5415 176.3 81.8241C176.3 75.4055 177.924 70.4561 181.172 66.9761C184.42 63.4188 189.137 61.6401 195.324 61.6401C201.433 61.6401 206.035 63.4188 209.128 66.9761C212.299 70.4561 213.884 75.4828 213.884 82.0561V85.4201H201.82V81.2441C201.82 78.4601 201.279 76.4495 200.196 75.2121C199.113 73.8975 197.528 73.2401 195.44 73.2401C191.187 73.2401 189.06 75.8308 189.06 81.0121C189.06 83.9508 189.833 86.6961 191.38 89.2481C193.004 91.8001 195.904 94.8935 200.08 98.5281C205.416 103.168 209.089 107.383 211.1 111.172C213.111 114.961 214.116 119.408 214.116 124.512C214.116 131.163 212.453 136.267 209.128 139.824C205.88 143.381 201.124 145.16 194.86 145.16Z" fill="#14303F"/>
<path d="M237.69 62.8001H253.698L266.11 111.404H266.342V62.8001H277.71V144H264.602L249.29 84.7241H249.058V144H237.69V62.8001Z" fill="#14303F"/>
<path d="M286.034 62.8001H320.834V74.4001H298.794V95.8601H316.31V107.46H298.794V132.4H320.834V144H286.034V62.8001Z" fill="#14303F"/>
<path d="M345.575 145.16C339.388 145.16 334.671 143.42 331.423 139.94C328.175 136.383 326.551 131.317 326.551 124.744V62.8001H339.311V125.672C339.311 128.456 339.852 130.467 340.935 131.704C342.095 132.941 343.719 133.56 345.807 133.56C347.895 133.56 349.48 132.941 350.563 131.704C351.723 130.467 352.303 128.456 352.303 125.672V62.8001H364.599V124.744C364.599 131.317 362.975 136.383 359.727 139.94C356.479 143.42 351.762 145.16 345.575 145.16Z" fill="#14303F"/>
<path d="M372.527 62.8001H407.327V74.4001H385.287V95.8601H402.803V107.46H385.287V132.4H407.327V144H372.527V62.8001Z" fill="#14303F"/>
<path d="M2.18506 28V2.09998H7.43506L14.9601 15.925L17.5851 21.525H17.7601C17.4801 18.83 17.0601 15.365 17.0601 12.425V2.09998H21.9951V28H16.7101L9.22006 14.14L6.59506 8.60998H6.42006C6.66506 11.375 7.08506 14.63 7.08506 17.64V28H2.18506Z" fill="#14303F"/>
<path d="M34.7709 28.49C29.8359 28.49 25.3559 24.71 25.3559 18.235C25.3559 11.725 29.8359 7.94498 34.7709 7.94498C39.6709 7.94498 44.1509 11.725 44.1509 18.235C44.1509 24.71 39.6709 28.49 34.7709 28.49ZM34.7709 24.325C37.4309 24.325 38.9009 21.91 38.9009 18.235C38.9009 14.525 37.4309 12.145 34.7709 12.145C32.0759 12.145 30.6059 14.525 30.6059 18.235C30.6059 21.91 32.0759 24.325 34.7709 24.325Z" fill="#14303F"/>
<path d="M53.1021 28.49C48.4471 28.49 46.6621 25.55 46.6621 21.175V12.46H43.9321V8.64498L46.9771 8.43498L47.5371 3.11498H51.8071V8.43498H56.6721V12.46H51.8071V21.175C51.8071 23.415 52.7521 24.465 54.4671 24.465C55.1321 24.465 55.8671 24.22 56.4271 24.01L57.2671 27.755C56.2171 28.105 54.8521 28.49 53.1021 28.49Z" fill="#14303F"/>
<path d="M66.6291 28.49C61.6941 28.49 57.2141 24.71 57.2141 18.235C57.2141 11.725 61.6941 7.94498 66.6291 7.94498C71.5291 7.94498 76.0091 11.725 76.0091 18.235C76.0091 24.71 71.5291 28.49 66.6291 28.49ZM66.6291 24.325C69.2891 24.325 70.7591 21.91 70.7591 18.235C70.7591 14.525 69.2891 12.145 66.6291 12.145C63.9341 12.145 62.4641 14.525 62.4641 18.235C62.4641 21.91 63.9341 24.325 66.6291 24.325Z" fill="#14303F"/>
<path d="M91.0779 28.49C88.4529 28.49 85.548 27.37 83.623 25.76L85.933 22.505C87.718 23.87 89.363 24.675 91.183 24.675C93.143 24.675 94.0529 23.8 94.0529 22.575C94.0529 21.14 91.988 20.44 89.958 19.67C87.473 18.69 84.708 17.22 84.708 13.895C84.708 10.43 87.508 7.94498 91.988 7.94498C94.823 7.94498 97.063 9.09998 98.673 10.36L96.3279 13.44C94.9629 12.46 93.563 11.76 92.128 11.76C90.343 11.76 89.5379 12.53 89.5379 13.685C89.5379 15.085 91.323 15.645 93.423 16.38C96.013 17.36 98.848 18.69 98.848 22.295C98.848 25.76 96.1529 28.49 91.0779 28.49Z" fill="#14303F"/>
<path d="M106.202 28.49C102.702 28.49 100.427 26.04 100.427 22.68C100.427 18.515 103.822 16.31 111.697 15.435C111.592 13.51 110.787 12.075 108.372 12.075C106.552 12.075 104.767 12.845 102.982 13.93L101.127 10.5C103.437 9.09998 106.202 7.94498 109.317 7.94498C114.287 7.94498 116.842 10.885 116.842 16.59V28H112.642L112.257 25.935H112.117C110.402 27.405 108.442 28.49 106.202 28.49ZM107.882 24.465C109.352 24.465 110.437 23.8 111.697 22.575V18.62C106.902 19.215 105.327 20.51 105.327 22.295C105.327 23.8 106.377 24.465 107.882 24.465Z" fill="#14303F"/>
<path d="M120.686 28V8.43498H124.851L125.271 11.025H125.376C127.056 9.34498 129.086 7.94498 131.746 7.94498C135.946 7.94498 137.801 10.885 137.801 15.785V28H132.656V16.45C132.656 13.37 131.781 12.355 129.891 12.355C128.281 12.355 127.266 13.125 125.831 14.525V28H120.686Z" fill="#14303F"/>
<path d="M147.308 28.49C144.683 28.49 141.778 27.37 139.853 25.76L142.163 22.505C143.948 23.87 145.593 24.675 147.413 24.675C149.373 24.675 150.283 23.8 150.283 22.575C150.283 21.14 148.218 20.44 146.188 19.67C143.703 18.69 140.938 17.22 140.938 13.895C140.938 10.43 143.738 7.94498 148.218 7.94498C151.053 7.94498 153.293 9.09998 154.903 10.36L152.558 13.44C151.193 12.46 149.793 11.76 148.358 11.76C146.573 11.76 145.768 12.53 145.768 13.685C145.768 15.085 147.553 15.645 149.653 16.38C152.243 17.36 155.078 18.69 155.078 22.295C155.078 25.76 152.383 28.49 147.308 28.49Z" fill="#14303F"/>
<path d="M164.586 28V2.09998H169.766V13.335H169.836L178.446 2.09998H184.151L176.206 12.285L185.516 28H179.881L173.161 16.38L169.766 20.72V28H164.586Z" fill="#14303F"/>
<path d="M187.181 28V2.09998H196.176C201.601 2.09998 205.906 3.98998 205.906 9.93998C205.906 15.715 201.601 18.235 196.176 18.235H192.361V28H187.181ZM192.361 14.14H195.686C199.046 14.14 200.866 12.705 200.866 9.93998C200.866 7.17498 199.046 6.22998 195.686 6.22998H192.361V14.14ZM201.251 28L195.231 16.905L198.836 13.65L207.026 28H201.251Z" fill="#14303F"/>
<path d="M214.663 19.845V16.17H224.253V19.845H214.663Z" fill="#14303F"/>
<path d="M234.251 28V2.09998H242.791C248.111 2.09998 252.171 3.67498 252.171 8.50498C252.171 10.885 250.876 13.3 248.671 14.105V14.245C251.436 14.91 253.501 16.905 253.501 20.37C253.501 25.585 249.161 28 243.491 28H234.251ZM239.431 12.635H242.441C245.731 12.635 247.131 11.34 247.131 9.23998C247.131 6.96498 245.626 6.08998 242.511 6.08998H239.431V12.635ZM239.431 24.01H243.036C246.536 24.01 248.461 22.75 248.461 20.09C248.461 17.57 246.606 16.485 243.036 16.485H239.431V24.01Z" fill="#14303F"/>
<path d="M264.445 28.49C259.51 28.49 255.03 24.71 255.03 18.235C255.03 11.725 259.51 7.94498 264.445 7.94498C269.345 7.94498 273.825 11.725 273.825 18.235C273.825 24.71 269.345 28.49 264.445 28.49ZM264.445 24.325C267.105 24.325 268.575 21.91 268.575 18.235C268.575 14.525 267.105 12.145 264.445 12.145C261.75 12.145 260.28 14.525 260.28 18.235C260.28 21.91 261.75 24.325 264.445 24.325Z" fill="#14303F"/>
<path d="M281.594 28.49C277.989 28.49 276.764 26.145 276.764 22.505V0.10498H281.909V22.715C281.909 23.94 282.434 24.325 282.924 24.325C283.099 24.325 283.239 24.325 283.589 24.255L284.219 28.07C283.624 28.28 282.819 28.49 281.594 28.49Z" fill="#14303F"/>
<path d="M293.299 28.49C288.399 28.49 285.249 24.675 285.249 18.235C285.249 11.83 289.274 7.94498 293.474 7.94498C295.679 7.94498 297.044 8.74998 298.479 10.045L298.269 6.96498V0.10498H303.414V28H299.214L298.829 25.97H298.724C297.289 27.405 295.329 28.49 293.299 28.49ZM294.594 24.255C295.994 24.255 297.149 23.695 298.269 22.26V13.65C297.114 12.565 295.854 12.145 294.629 12.145C292.424 12.145 290.534 14.245 290.534 18.165C290.534 22.26 292.039 24.255 294.594 24.255Z" fill="#14303F"/>
</svg>
