<svg width="1187" height="75" viewBox="0 0 1187 75" fill="none" xmlns="http://www.w3.org/2000/svg">
<path fill-rule="evenodd" clip-rule="evenodd" d="M1143 8.5001L34 8.5L34 7.5L1143 7.5001L1143 8.5001Z" fill="#677593"/>
<path d="M4.19911 32.7461C6.36122 32.7461 7.9784 34.5215 8.29481 37.4043H11.0722V31.6211H13.287V47.6523H11.0722V39.1973H8.32118C8.08387 42.2734 6.43153 44.1543 4.19911 44.1543C1.77333 44.1543 0.033091 41.957 0.0506691 38.4414C0.033091 34.9521 1.77333 32.7461 4.19911 32.7461ZM2.1952 38.4414C2.18641 40.8232 3.00379 42.124 4.19911 42.1152C5.40321 42.124 6.20301 40.8232 6.20301 38.4414C6.20301 36.0684 5.40321 34.7676 4.19911 34.7676C3.00379 34.7676 2.18641 36.0684 2.1952 38.4414Z" fill="#14303F"/>
<path d="M28.6327 32.0605V33.7305H26.5409V35.8398H28.5272V37.5098H16.7323V35.8398H18.7011V33.7305H16.6268V32.0605H28.6327ZM15.3436 40.1113V38.3535H29.9335V40.1113H15.3436ZM17.0311 42.6426V41.0254H28.1581V44.9805H19.246V45.8594H28.58V47.5117H17.0487V43.4512H25.9432V42.6426H17.0311ZM20.9511 35.8398H24.2909V33.7305H20.9511V35.8398Z" fill="#14303F"/>
<path d="M41.0429 34.3633C41.0429 36.4287 42.1503 38.4854 44.6991 39.3379L43.4862 41.0957C41.7899 40.4717 40.621 39.2939 39.9442 37.8086C39.2587 39.4873 38.0106 40.7969 36.1561 41.4648L34.9432 39.707C37.6151 38.8281 38.7665 36.6396 38.7753 34.3457V32.6055H41.0429V34.3633ZM37.8788 47.3359V42.2031H40.1464V45.543H48.8651V47.3359H37.8788ZM43.2929 36.8418V35.0312H46.2987V31.6387H48.5311V43.4512H46.2987V36.8418H43.2929Z" fill="#14303F"/>
<path d="M64.0878 31.6211V41.1133H61.8554V37.334H59.3593V35.5234H61.8554V31.6211H64.0878ZM50.4999 39.3555C53.119 38.4766 54.3143 36.3848 54.3671 34.3809H51.1503V32.5879H59.8339V34.3809H56.6522C56.6962 36.2441 57.8388 38.125 60.3261 38.9512L59.2186 40.709C57.4608 40.1377 56.2391 38.9775 55.5448 37.5449C54.8417 39.1709 53.5585 40.4805 51.66 41.1309L50.4999 39.3555ZM53.119 44.5586C53.119 42.6162 55.2108 41.4736 58.621 41.4648C62.0399 41.4736 64.1317 42.6162 64.1405 44.5586C64.1317 46.501 62.0399 47.6348 58.621 47.6348C55.2108 47.6348 53.119 46.501 53.119 44.5586ZM55.3515 44.5586C55.3515 45.4727 56.5028 45.9297 58.621 45.9297C60.7479 45.9297 61.8993 45.4727 61.9081 44.5586C61.8993 43.6357 60.7479 43.1787 58.621 43.1875C56.5028 43.1787 55.3515 43.6357 55.3515 44.5586Z" fill="#14303F"/>
<path d="M143.693 35.9805C143.685 38.415 144.985 41.2275 147.613 42.4492L146.365 44.207C144.581 43.3896 143.315 41.7549 142.595 39.8389C141.883 41.9482 140.564 43.7412 138.719 44.6113L137.418 42.8359C140.081 41.5967 141.426 38.626 141.443 35.9805V34.9961H138.051V33.168H146.91V34.9961H143.693V35.9805ZM148.158 47.6172V31.6211H150.408V37.7207H152.764V39.6016H150.408V47.6172H148.158Z" fill="#14303F"/>
<path d="M167.986 43.9961V45.8418H153.344V43.9961H157.088V41.5527H155.031V36.1738H164.084V34.4512H155.014V32.6582H166.299V37.9668H157.281V39.7422H166.668V41.5527H164.4V43.9961H167.986ZM159.268 43.9961H162.203V41.5527H159.268V43.9961Z" fill="#14303F"/>
<path d="M187.691 43.9434V45.7539H173.049V43.9434H179.236V40.375H181.486V43.9434H187.691ZM173.646 39.3027C176.969 38.7666 178.955 36.7627 179.148 34.6445H174.262V32.834H186.408V34.6445H181.539C181.715 36.7539 183.719 38.7139 187.146 39.2148L186.268 40.9902C183.464 40.498 181.39 39.1357 180.353 37.2373C179.342 39.1621 177.285 40.5771 174.525 41.0781L173.646 39.3027Z" fill="#14303F"/>
<path d="M194.494 35.2422C194.485 38.1074 195.707 40.999 198.273 42.2383L196.92 44.0312C195.206 43.1787 194.046 41.5967 193.387 39.6719C192.684 41.7373 191.453 43.4336 189.643 44.3301L188.254 42.5195C190.97 41.2715 192.244 38.2129 192.244 35.2422V32.8516H194.494V35.2422ZM198.977 47.6172V31.6211H201.227V37.791H203.582V39.6895H201.227V47.6172H198.977Z" fill="#14303F"/>
<path d="M335.139 31.6387V40.8496H332.906V39.2852H329.303V37.4922H332.906V35.9629H329.47C328.468 38.4941 326.191 40.2432 322.676 41.2012L321.797 39.4258C325.471 38.4678 327.281 36.7012 327.598 34.5039H322.658V32.7109H330.041C330.041 33.2295 330.006 33.7305 329.927 34.2051H332.906V31.6387H335.139ZM324.346 44.2773C324.337 42.2998 326.525 41.0518 329.812 41.043C333.056 41.0518 335.253 42.2998 335.262 44.2773C335.253 46.2812 333.056 47.5469 329.812 47.5469C326.525 47.5469 324.337 46.2812 324.346 44.2773ZM326.578 44.2773C326.578 45.2705 327.782 45.7715 329.812 45.7715C331.799 45.7715 333.003 45.2705 333.012 44.2773C333.003 43.293 331.799 42.7832 329.812 42.8008C327.782 42.7832 326.578 43.293 326.578 44.2773Z" fill="#14303F"/>
<path d="M342.223 34.7324C342.223 36.5254 343.058 38.1074 345.088 38.8984L343.928 40.6035C342.618 40.1025 341.73 39.2061 341.194 38.0723C340.623 39.373 339.647 40.4365 338.197 41.0078L336.984 39.2852C339.182 38.3975 340.078 36.5957 340.078 34.7324V34.5918H337.529V32.7988H344.684V34.5918H342.223V34.7324ZM339.955 44.5762C339.946 42.7041 342.1 41.5703 345.492 41.5703C348.867 41.5703 351.029 42.7041 351.047 44.5762C351.029 46.4746 348.867 47.626 345.492 47.6172C342.1 47.626 339.946 46.4746 339.955 44.5762ZM342.205 44.5762C342.188 45.4814 343.392 45.9121 345.492 45.9121C347.575 45.9121 348.779 45.4814 348.779 44.5762C348.779 43.7324 347.575 43.2578 345.492 43.2578C343.392 43.2578 342.188 43.7324 342.205 44.5762ZM345.439 40.832V31.9199H347.549V35.5059H348.832V31.6387H350.959V41.3242H348.832V37.3164H347.549V40.832H345.439Z" fill="#14303F"/>
<path d="M361.33 32.7461C363.492 32.7461 365.109 34.5215 365.426 37.4043H368.203V31.6211H370.418V47.6523H368.203V39.1973H365.452C365.215 42.2734 363.562 44.1543 361.33 44.1543C358.904 44.1543 357.164 41.957 357.182 38.4414C357.164 34.9521 358.904 32.7461 361.33 32.7461ZM359.326 38.4414C359.317 40.8232 360.135 42.124 361.33 42.1152C362.534 42.124 363.334 40.8232 363.334 38.4414C363.334 36.0684 362.534 34.7676 361.33 34.7676C360.135 34.7676 359.317 36.0684 359.326 38.4414Z" fill="#14303F"/>
<path d="M385.764 32.0605V33.7305H383.672V35.8398H385.658V37.5098H373.863V35.8398H375.832V33.7305H373.758V32.0605H385.764ZM372.475 40.1113V38.3535H387.064V40.1113H372.475ZM374.162 42.6426V41.0254H385.289V44.9805H376.377V45.8594H385.711V47.5117H374.18V43.4512H383.074V42.6426H374.162ZM378.082 35.8398H381.422V33.7305H378.082V35.8398Z" fill="#14303F"/>
<path d="M406.805 39.8301V41.5879H400.775V44.1719H398.561V41.5879H392.162V39.8301H406.805ZM393.885 47.3359V42.9062H396.1V45.543H405.188V47.3359H393.885ZM394.043 38.7051V32.1309H396.258V33.8008H402.674V32.1309H404.906V38.7051H394.043ZM396.258 36.9297H402.674V35.4707H396.258V36.9297Z" fill="#14303F"/>
<path d="M413.73 34.1172C413.722 36.1123 414.838 38.0459 417.369 38.8457L416.174 40.6211C414.46 40.041 413.282 38.8896 412.605 37.4395C411.902 39.0215 410.646 40.2607 408.844 40.9023L407.631 39.1094C410.312 38.2568 411.454 36.165 411.463 33.9766V32.4473H413.73V34.1172ZM410.232 43.6445V41.8691H421.219V47.6172H418.986V43.6445H410.232ZM415.98 36.4375V34.5918H418.986V31.6211H421.219V41.1484H418.986V36.4375H415.98Z" fill="#14303F"/>
<path d="M523.472 32.5703C525.941 32.5791 527.849 34.1963 527.866 36.4902C527.849 38.4238 526.504 39.874 524.614 40.2871V42.4756C525.871 42.4141 527.137 42.3086 528.323 42.1504L528.481 43.8027C525.133 44.4443 521.529 44.4355 518.813 44.4004L518.515 42.5898C519.675 42.5898 520.993 42.5898 522.382 42.5547V40.3047C520.431 39.9092 519.077 38.4502 519.077 36.4902C519.077 34.1963 520.949 32.5791 523.472 32.5703ZM521.274 36.4902C521.266 37.7471 522.206 38.5117 523.472 38.5117C524.711 38.5117 525.651 37.7471 525.651 36.4902C525.651 35.2158 524.711 34.4775 523.472 34.4688C522.206 34.4775 521.266 35.2158 521.274 36.4902ZM529.167 47.6172V31.6211H531.417V37.8965H533.597V39.7773H531.417V47.6172H529.167Z" fill="#14303F"/>
<path d="M547.659 31.6211V47.6523H545.392V31.6211H547.659ZM534.739 38.4414C534.73 34.9521 536.515 32.7461 538.976 32.7461C541.384 32.7461 543.177 34.9521 543.177 38.4414C543.177 41.957 541.384 44.1543 538.976 44.1543C536.515 44.1543 534.73 41.957 534.739 38.4414ZM536.901 38.4414C536.893 40.8232 537.728 42.124 538.976 42.1152C540.188 42.124 541.006 40.8232 541.015 38.4414C541.006 36.0684 540.188 34.7676 538.976 34.7676C537.728 34.7676 536.893 36.0684 536.901 38.4414Z" fill="#14303F"/>
<path d="M554.233 32.7461C556.396 32.7461 558.013 34.5215 558.329 37.4043H561.106V31.6211H563.321V47.6523H561.106V39.1973H558.355C558.118 42.2734 556.466 44.1543 554.233 44.1543C551.808 44.1543 550.067 41.957 550.085 38.4414C550.067 34.9521 551.808 32.7461 554.233 32.7461ZM552.229 38.4414C552.221 40.8232 553.038 42.124 554.233 42.1152C555.438 42.124 556.237 40.8232 556.237 38.4414C556.237 36.0684 555.438 34.7676 554.233 34.7676C553.038 34.7676 552.221 36.0684 552.229 38.4414Z" fill="#14303F"/>
<path d="M580.021 43.8906V45.7539H565.378V43.8906H580.021ZM566.521 34.8203V33.0273H578.79V34.8203H576.54V39.6719H578.72V41.4297H566.591V39.6719H568.735V34.8203H566.521ZM570.985 39.6719H574.325V34.8203H570.985V39.6719Z" fill="#14303F"/>
<path d="M587.052 33.2207V39.2852H583.536V42.0098C585.101 41.9922 586.568 41.9131 588.229 41.6055L588.423 43.4336C586.322 43.8203 584.529 43.8555 582.517 43.873H581.392V37.5098H584.89V34.9961H581.374V33.2207H587.052ZM587.72 38.8984V37.0879H589.354V31.9199H591.446V46.8438H589.354V38.8984H587.72ZM592.642 47.6172V31.6211H594.769V47.6172H592.642Z" fill="#14303F"/>
<path d="M609.886 31.6387V40.6738H607.636V31.6387H609.886ZM596.737 36.2266C596.737 33.9414 598.618 32.3594 601.114 32.3594C603.602 32.3594 605.482 33.9414 605.491 36.2266C605.482 38.4238 603.602 40.041 601.114 40.041C598.618 40.041 596.737 38.4238 596.737 36.2266ZM598.935 36.2266C598.917 37.4131 599.831 38.1602 601.114 38.1602C602.362 38.1602 603.268 37.4131 603.276 36.2266C603.268 34.9697 602.362 34.2402 601.114 34.2402C599.831 34.2402 598.917 34.9697 598.935 36.2266ZM599.163 47.4414V41.3945H609.886V47.4414H599.163ZM601.378 45.6484H607.688V43.1699H601.378V45.6484Z" fill="#14303F"/>
<path d="M629.854 31.6387V47.6172H627.569V44.084H624.317V42.3965H627.569V31.6387H629.854ZM616.126 39.7422C619.123 39.7422 623.096 39.7246 626.55 39.2676L626.673 40.9023C625.267 41.1484 623.825 41.3066 622.401 41.4033V47.1426H620.134V41.5176C618.807 41.5615 617.541 41.5703 616.407 41.5703L616.126 39.7422ZM617.251 35.5586C617.242 33.6338 618.965 32.2803 621.364 32.2715C623.729 32.2803 625.469 33.6338 625.478 35.5586C625.469 37.5273 623.729 38.8281 621.364 38.8281C618.965 38.8281 617.242 37.5273 617.251 35.5586ZM619.36 35.5586C619.352 36.5605 620.169 37.123 621.364 37.123C622.516 37.123 623.333 36.5605 623.351 35.5586C623.333 34.583 622.524 33.9766 621.364 33.9766C620.169 33.9766 619.352 34.583 619.36 35.5586Z" fill="#14303F"/>
<path d="M644.849 33.0273V34.8906C644.84 37.2197 644.84 39.4346 644.11 42.9062L641.878 42.6953C642.194 41.3682 642.379 40.1904 642.493 39.1094L633.212 39.5664L632.931 37.7734L642.607 37.4219C642.643 36.543 642.651 35.7168 642.651 34.8906V34.8203H633.423V33.0273H644.849ZM631.753 45.7012V43.873H646.343V45.7012H631.753Z" fill="#14303F"/>
<path d="M660.599 32.0605V33.7305H658.507V35.8398H660.493V37.5098H648.698V35.8398H650.667V33.7305H648.593V32.0605H660.599ZM647.31 40.1113V38.3535H661.899V40.1113H647.31ZM648.997 42.6426V41.0254H660.124V44.9805H651.212V45.8594H660.546V47.5117H649.015V43.4512H657.909V42.6426H648.997ZM652.917 35.8398H656.257V33.7305H652.917V35.8398Z" fill="#14303F"/>
<path d="M677.509 43.9961V45.8418H662.866V43.9961H669.036V41.5879H664.554V36.209H673.606V34.4512H664.536V32.6582H675.821V37.9668H666.804V39.7598H676.19V41.5879H671.269V43.9961H677.509Z" fill="#14303F"/>
<path d="M693.048 40.5684V42.3965H686.79V47.6348H684.575V42.3965H678.405V40.5684H693.048ZM679.882 35.7871C679.873 33.5635 682.246 32.1572 685.683 32.1484C689.119 32.1572 691.519 33.5635 691.519 35.7871C691.519 37.958 689.119 39.3555 685.683 39.3555C682.246 39.3555 679.873 37.958 679.882 35.7871ZM682.185 35.7871C682.176 36.9297 683.538 37.5713 685.683 37.5801C687.845 37.5713 689.198 36.9297 689.198 35.7871C689.198 34.6006 687.845 33.9502 685.683 33.9414C683.538 33.9502 682.176 34.6006 682.185 35.7871Z" fill="#14303F"/>
<path d="M707.216 32.5527V34.3457H704.034C704.043 36.2178 705.168 38.1426 707.761 38.9688L706.618 40.709C704.843 40.1289 703.621 38.9863 702.927 37.5625C702.215 39.1182 700.932 40.3662 699.077 40.9727L697.882 39.25C700.527 38.3975 701.74 36.3408 701.767 34.3457H698.497V32.5527H707.216ZM700.044 43.7324V41.957H710.819V47.6172H708.569V43.7324H700.044ZM708.569 41.2715V31.6211H710.819V35.5059H712.981V37.3691H710.819V41.2715H708.569Z" fill="#14303F"/>
<path d="M719.731 33.8008C719.723 35.9365 720.821 37.9141 723.388 38.7051L722.21 40.4629C720.487 39.8652 719.318 38.7666 718.642 37.3252C717.938 38.9951 716.646 40.3047 714.722 40.9551L713.544 39.1621C716.277 38.2832 717.455 36.1387 717.464 33.9062V32.4473H719.731V33.8008ZM716.198 44.5234C716.198 42.5547 718.29 41.4033 721.7 41.4121C725.119 41.4033 727.211 42.5547 727.22 44.5234C727.211 46.501 725.119 47.626 721.7 47.6172C718.29 47.626 716.198 46.501 716.198 44.5234ZM718.431 44.5234C718.431 45.4111 719.582 45.877 721.7 45.877C723.827 45.877 724.979 45.4111 724.987 44.5234C724.979 43.6094 723.827 43.1523 721.7 43.1523C719.582 43.1523 718.431 43.6094 718.431 44.5234ZM721.929 36.3848V34.5566H724.935V31.6211H727.167V40.9902H724.935V36.3848H721.929Z" fill="#14303F"/>
<path d="M804.225 32.834C804.225 37.3076 802.309 40.3398 796.912 42.0625L796.051 40.3398C798.345 39.6016 799.812 38.6875 800.7 37.5801L796.367 37.9316L796.051 36.1562L801.579 35.9629C801.72 35.5498 801.808 35.1016 801.86 34.6445H796.859V32.834H804.225ZM798.74 47.3359V42.291H801.008V45.543H809.674V47.3359H798.74ZM804.137 38.2832V36.4727H807.037V31.6387H809.27V43.4336H807.037V38.2832H804.137Z" fill="#14303F"/>
<path d="M825.09 31.6387V40.498H822.963V31.6387H825.09ZM811.115 38.7402C813.304 37.791 814.209 35.9014 814.209 34.1348V32.4121H816.389V34.0996C816.38 35.8398 817.232 37.5537 819.236 38.4414L818.023 40.1113C816.723 39.5752 815.844 38.6172 815.308 37.4219C814.728 38.7402 813.752 39.8389 812.311 40.4453L811.115 38.7402ZM814.156 47.4414V41.0957H816.371V42.5195H822.875V41.0957H825.09V47.4414H814.156ZM816.371 45.6484H822.875V44.2598H816.371V45.6484ZM817.777 36.3848V34.5566H819.729V31.8848H821.855V40.4102H819.729V36.3848H817.777Z" fill="#14303F"/>
<path d="M844.531 31.6211V39.7598H842.299V35.7871H839.293V34.0117H842.299V31.6211H844.531ZM830.926 38.1074C833.58 37.3252 834.767 35.374 834.775 33.3086V32.1484H837.043V33.3086C837.034 35.2158 838.15 37.0703 840.699 37.8262L839.521 39.5488C837.808 39.0039 836.612 37.9316 835.918 36.5605C835.215 38.0986 833.958 39.2939 832.086 39.8828L830.926 38.1074ZM833.896 42.1504V40.4277H844.531V44.6992H836.129V45.6836H844.988V47.4414H833.914V43.0645H842.316V42.1504H833.896Z" fill="#14303F"/>
<path d="M860.088 31.6211V41.1133H857.855V37.334H855.359V35.5234H857.855V31.6211H860.088ZM846.5 39.3555C849.119 38.4766 850.314 36.3848 850.367 34.3809H847.15V32.5879H855.834V34.3809H852.652C852.696 36.2441 853.839 38.125 856.326 38.9512L855.219 40.709C853.461 40.1377 852.239 38.9775 851.545 37.5449C850.842 39.1709 849.559 40.4805 847.66 41.1309L846.5 39.3555ZM849.119 44.5586C849.119 42.6162 851.211 41.4736 854.621 41.4648C858.04 41.4736 860.132 42.6162 860.141 44.5586C860.132 46.501 858.04 47.6348 854.621 47.6348C851.211 47.6348 849.119 46.501 849.119 44.5586ZM851.352 44.5586C851.352 45.4727 852.503 45.9297 854.621 45.9297C856.748 45.9297 857.899 45.4727 857.908 44.5586C857.899 43.6357 856.748 43.1787 854.621 43.1875C852.503 43.1787 851.352 43.6357 851.352 44.5586Z" fill="#14303F"/>
<path d="M961.273 31.6211V47.6523H959.041V31.6211H961.273ZM948.705 34.7676V32.957H956.316V39.127H951.043V42.0625C953.486 42.0449 955.552 41.9219 957.898 41.5352L958.092 43.3457C955.464 43.8115 953.082 43.9082 950.164 43.9082H948.723V37.3516H954.031V34.7676H948.705Z" fill="#14303F"/>
<path d="M976.812 31.6211V47.6523H974.545V31.6211H976.812ZM964.385 43.8379V33.0273H972.172V34.8555H966.635V41.9395C969.5 41.9395 971.267 41.8604 973.279 41.5L973.49 43.3457C971.275 43.7676 969.236 43.8379 965.773 43.8379H964.385Z" fill="#14303F"/>
<path d="M984.881 35.9805C984.872 38.415 986.173 41.2275 988.801 42.4492L987.553 44.207C985.769 43.3896 984.503 41.7549 983.782 39.8389C983.07 41.9482 981.752 43.7412 979.906 44.6113L978.605 42.8359C981.269 41.5967 982.613 38.626 982.631 35.9805V34.9961H979.238V33.168H988.098V34.9961H984.881V35.9805ZM989.346 47.6172V31.6211H991.596V37.7207H993.951V39.6016H991.596V47.6172H989.346Z" fill="#14303F"/>
<path d="M1007.93 31.6387V43.1348H1005.68V31.6387H1007.93ZM994.777 36.6836C994.777 34.3369 996.693 32.6494 999.154 32.6582C1001.61 32.6494 1003.52 34.3369 1003.53 36.6836C1003.52 39.0654 1001.61 40.7441 999.154 40.7441C996.693 40.7441 994.777 39.0654 994.777 36.6836ZM996.975 36.6836C996.957 38.0195 997.897 38.793 999.154 38.793C1000.37 38.793 1001.31 38.0195 1001.32 36.6836C1001.31 35.3828 1000.37 34.6006 999.154 34.6094C997.897 34.6006 996.957 35.3828 996.975 36.6836ZM997.203 47.3359V41.9746H999.471V45.543H1008.35V47.3359H997.203Z" fill="#14303F"/>
<path d="M1105.75 32.2715C1108.09 32.2803 1109.77 33.5898 1109.78 35.5234C1109.77 37.0879 1108.62 38.2832 1106.91 38.6523V39.8213C1108.17 39.7422 1109.42 39.6279 1110.58 39.4609L1110.76 41.0957C1107.46 41.6758 1103.8 41.7549 1101.13 41.7461L1100.9 39.9707C1102.01 39.9707 1103.3 39.9619 1104.66 39.9268V38.6699C1102.89 38.3184 1101.72 37.1143 1101.73 35.5234C1101.72 33.5898 1103.4 32.2803 1105.75 32.2715ZM1103.01 47.3184V42.7656H1105.26V45.5254H1114.28V47.3184H1103.01ZM1103.82 35.5234C1103.8 36.499 1104.62 37.0615 1105.75 37.0703C1106.9 37.0615 1107.67 36.499 1107.67 35.5234C1107.67 34.5215 1106.89 33.9766 1105.75 33.959C1104.62 33.9766 1103.8 34.5215 1103.82 35.5234ZM1111.48 43.8379V31.6387H1113.73V36.666H1115.77V38.5293H1113.73V43.8379H1111.48Z" fill="#14303F"/>
<path d="M1122.54 33.8008C1122.53 35.9365 1123.63 37.9141 1126.19 38.7051L1125.02 40.4629C1123.29 39.8652 1122.12 38.7666 1121.45 37.3252C1120.75 38.9951 1119.45 40.3047 1117.53 40.9551L1116.35 39.1621C1119.08 38.2832 1120.26 36.1387 1120.27 33.9062V32.4473H1122.54V33.8008ZM1119 44.5234C1119 42.5547 1121.1 41.4033 1124.51 41.4121C1127.93 41.4033 1130.02 42.5547 1130.03 44.5234C1130.02 46.501 1127.93 47.626 1124.51 47.6172C1121.1 47.626 1119 46.501 1119 44.5234ZM1121.24 44.5234C1121.24 45.4111 1122.39 45.877 1124.51 45.877C1126.63 45.877 1127.79 45.4111 1127.79 44.5234C1127.79 43.6094 1126.63 43.1523 1124.51 43.1523C1122.39 43.1523 1121.24 43.6094 1121.24 44.5234ZM1124.74 36.3848V34.5566H1127.74V31.6211H1129.97V40.9902H1127.74V36.3848H1124.74Z" fill="#14303F"/>
<path d="M1144.83 32.5879V39.3203H1137V32.5879H1144.83ZM1137.85 45.8945C1141.05 45.6309 1142.74 44.3652 1142.98 43.2402H1138.5V41.5703H1143.05V40.252H1145.3V41.5703H1149.85V43.2402H1145.37C1145.62 44.3301 1147.3 45.5869 1150.47 45.8945L1149.71 47.582C1147.05 47.3359 1145.16 46.3691 1144.19 45.1211C1143.2 46.3867 1141.29 47.3271 1138.62 47.582L1137.85 45.8945ZM1139.22 37.5625H1142.59V34.3281H1139.22V37.5625ZM1147.34 40.6914V31.6211H1149.57V40.6914H1147.34Z" fill="#14303F"/>
<path d="M1158.61 32.3418V34.2402H1161.88V32.3418H1164.13V39.3203H1156.38V32.3418H1158.61ZM1157.98 42.0977V40.3574H1168.59V44.6992H1160.21V45.7363H1169.05V47.5117H1158.01V43.0996H1166.36V42.0977H1157.98ZM1158.61 37.5625H1161.88V35.9277H1158.61V37.5625ZM1166.34 39.7598V31.6211H1168.59V34.7324H1170.75V36.543H1168.59V39.7598H1166.34Z" fill="#14303F"/>
<path d="M1186.1 44.0488V45.8418H1171.46V44.0488H1175.1V41.0078H1172.67V39.1973H1174.82V34.6973H1172.6V32.9043H1184.87V34.6973H1182.62V39.1973H1184.8V41.0078H1182.39V44.0488H1186.1ZM1177.07 39.1973H1180.41V34.6973H1177.07V39.1973ZM1177.35 44.0488H1180.14V41.0078H1177.35V44.0488Z" fill="#14303F"/>
<path d="M249.902 66.1484C249.902 62.8965 250.755 60.1016 252.293 57.7285H253.365C252.135 59.6709 251.133 63.0371 251.133 66.1484C251.133 69.2773 252.135 72.6348 253.365 74.5859H252.293C250.755 72.1953 249.902 69.4004 249.902 66.1484Z" fill="#14303F"/>
<path d="M268.975 65.7617V66.6934H265.107V72.3711H264V66.6934H259.746V72.3711H258.604V66.6934H254.789V65.7617H268.975ZM256.459 60.875C256.45 58.8184 258.621 57.5176 261.855 57.5176C265.09 57.5176 267.252 58.8184 267.252 60.875C267.252 62.9229 265.09 64.2061 261.855 64.1973C258.621 64.2061 256.45 62.9229 256.459 60.875ZM257.584 60.875C257.575 62.3252 259.324 63.292 261.855 63.2832C264.378 63.292 266.118 62.3252 266.127 60.875C266.118 59.4072 264.378 58.4316 261.855 58.4316C259.324 58.4316 257.575 59.4072 257.584 60.875Z" fill="#14303F"/>
<path d="M283.143 56.8672V72.3887H282.035V63.5117H278.414V62.5801H282.035V56.8672H283.143ZM270.258 68.3633C272.385 67.3174 274.459 64.3994 274.477 61.7012V59.4336H270.838V58.4844H279.24V59.4336H275.584V61.7012C275.584 64.2236 277.632 67.0273 279.785 68.0117L279.1 68.9082C277.359 68.0469 275.742 66.0957 275.048 63.9072C274.345 66.2363 272.684 68.3105 270.943 69.2422L270.258 68.3633Z" fill="#14303F"/>
<path d="M304.43 65.1465V66.0781H297.961V69.2773H296.871V66.0781H290.244V65.1465H304.43ZM292.107 72.002V67.7832H293.215V71.0703H302.848V72.002H292.107ZM292.16 63.4941V57.3594H293.268V59.4688H301.424V57.3594H302.531V63.4941H292.16ZM293.268 62.5625H301.424V60.3477H293.268V62.5625Z" fill="#14303F"/>
<path d="M310.934 59.3809C310.934 61.5781 312.691 63.5908 314.889 64.3555L314.256 65.252C312.524 64.584 311.083 63.2041 310.424 61.4727C309.791 63.4062 308.314 64.8916 306.486 65.6387L305.889 64.7246C308.147 63.8809 309.844 61.8154 309.861 59.3457V57.6406H310.934V59.3809ZM308.244 67.8184V66.9219H318.598V72.3711H317.49V67.8184H308.244ZM313.869 61.1738V60.2422H317.49V56.8672H318.598V66.0078H317.49V61.1738H313.869Z" fill="#14303F"/>
<path d="M323.643 69.9277L322.359 74.4805H321.322L322.307 69.9277H323.643Z" fill="#14303F"/>
<path d="M332.098 67.625C335.06 67.625 337.037 67.5195 339.41 67.0977L339.551 68.0293C337.107 68.46 335.104 68.5479 332.098 68.5566H330.902V58.3086H338.162V59.2578H332.01V62.6855H337.758V63.5996H332.01V67.625H332.098ZM341.027 72.3711V56.8672H342.135V63.2129H344.807V64.1621H342.135V72.3711H341.027Z" fill="#14303F"/>
<path d="M358.869 56.8672V67.2734H357.814V56.8672H358.869ZM345.949 65.8145C349.263 64.3994 351.214 62.0967 351.478 59.2578H346.547V58.3438H352.594C352.594 59.4951 352.374 60.5674 351.961 61.5605H354.721V57.2188H355.793V65.9551H354.721V62.4922H351.504C350.502 64.2236 348.823 65.6387 346.547 66.6582L345.949 65.8145ZM347.725 71.4043C350.229 70.9824 353.174 69.2949 353.174 67.0801V66.3242H354.299V67.0801C354.281 69.2949 357.243 70.9824 359.748 71.4043L359.309 72.3008C357.067 71.8701 354.65 70.6221 353.728 68.75C352.796 70.6221 350.396 71.8701 348.164 72.3008L347.725 71.4043Z" fill="#14303F"/>
<path d="M378.434 56.8672V64.918H377.326V60.8223H373.705V59.8906H377.326V56.8672H378.434ZM365.672 64.0391C367.931 63.248 369.68 61.2881 369.697 58.9238V57.3418H370.752V58.9238C370.743 61.0244 372.527 62.9141 374.725 63.6523L374.109 64.5312C372.396 63.8984 370.928 62.6152 370.251 60.9717C369.601 62.8262 368.115 64.2412 366.287 64.9355L365.672 64.0391ZM368.467 66.6758V65.7617H378.434V69.2949H369.592V71.2285H379.066V72.1426H368.52V68.416H377.344V66.6758H368.467Z" fill="#14303F"/>
<path d="M393.99 56.8672V66.1133H392.883V61.9297H389.525V60.998H392.883V56.8672H393.99ZM381.316 65.0234C383.54 64.1973 385.342 62.1055 385.342 59.8027V58.9941H381.703V58.0625H390.035V58.9941H386.449V59.7852C386.449 61.8682 388.154 63.8018 390.352 64.5664L389.771 65.4629C388.022 64.8125 386.59 63.4678 385.931 61.8066C385.271 63.6963 383.742 65.1992 381.896 65.9199L381.316 65.0234ZM383.76 69.4883C383.742 67.6865 385.693 66.6318 388.893 66.6406C392.092 66.6318 394.043 67.6865 394.043 69.4883C394.043 71.2988 392.092 72.3359 388.893 72.3535C385.693 72.3359 383.742 71.2988 383.76 69.4883ZM384.85 69.4883C384.832 70.6924 386.414 71.4482 388.893 71.4395C391.371 71.4482 392.953 70.6924 392.953 69.4883C392.953 68.2754 391.371 67.5283 388.893 67.5195C386.414 67.5283 384.832 68.2754 384.85 69.4883Z" fill="#14303F"/>
<path d="M399.035 69.9277L397.752 74.4805H396.715L397.699 69.9277H399.035Z" fill="#14303F"/>
<path d="M413.326 61.4727C413.194 60.0752 412.008 59.2139 410.355 59.2051C408.598 59.2139 407.394 60.1895 407.402 61.5254C407.394 62.8525 408.712 63.459 409.916 63.793L411.234 64.1621C412.834 64.6104 414.724 65.4541 414.715 67.5898C414.724 69.6553 413.062 71.2197 410.268 71.2109C407.64 71.2197 405.987 69.8311 405.838 67.7832H407.121C407.253 69.2773 408.589 70.0771 410.268 70.0859C412.148 70.0771 413.502 69.0752 413.502 67.5723C413.502 66.3066 412.412 65.7266 410.865 65.2871L409.354 64.8477C407.35 64.2588 406.181 63.2305 406.172 61.5781C406.181 59.5039 408.009 58.0889 410.391 58.0977C412.781 58.0889 414.469 59.5215 414.557 61.4727H413.326Z" fill="#14303F"/>
<path d="M419.426 71L415.945 58.2734H417.229L420.059 69.084H420.164L423.012 58.2734H424.436L427.283 69.084H427.389L430.219 58.2734H431.502L428.021 71H426.686L423.768 60.3652H423.68L420.762 71H419.426Z" fill="#14303F"/>
<path d="M443.174 64.6367C443.183 68.627 440.871 71.1758 437.654 71.1758C434.42 71.1758 432.117 68.6182 432.117 64.6367C432.117 60.6465 434.42 58.0977 437.654 58.0977C440.871 58.0977 443.183 60.6465 443.174 64.6367ZM433.348 64.6367C433.339 68.0117 435.176 69.998 437.654 69.998C440.115 69.998 441.961 68.0205 441.961 64.6367C441.961 61.2529 440.115 59.2754 437.654 59.2754C435.185 59.2754 433.339 61.2441 433.348 64.6367Z" fill="#14303F"/>
<path d="M444.369 59.3984V58.2734H453.668V59.3984H449.66V71H448.395V59.3984H444.369Z" fill="#14303F"/>
<path d="M473.619 65.1465V66.0781H467.15V69.2773H466.061V66.0781H459.434V65.1465H473.619ZM461.297 72.002V67.7832H462.404V71.0703H472.037V72.002H461.297ZM461.35 63.4941V57.3594H462.457V59.4688H470.613V57.3594H471.721V63.4941H461.35ZM462.457 62.5625H470.613V60.3477H462.457V62.5625Z" fill="#14303F"/>
<path d="M480.123 59.3809C480.123 61.5781 481.881 63.5908 484.078 64.3555L483.445 65.252C481.714 64.584 480.272 63.2041 479.613 61.4727C478.98 63.4062 477.504 64.8916 475.676 65.6387L475.078 64.7246C477.337 63.8809 479.033 61.8154 479.051 59.3457V57.6406H480.123V59.3809ZM477.434 67.8184V66.9219H487.787V72.3711H486.68V67.8184H477.434ZM483.059 61.1738V60.2422H486.68V56.8672H487.787V66.0078H486.68V61.1738H483.059Z" fill="#14303F"/>
<path d="M494.098 66.1484C494.098 69.4004 493.245 72.1953 491.707 74.5859H490.635C491.865 72.6348 492.867 69.2773 492.867 66.1484C492.867 63.0371 491.865 59.6709 490.635 57.7285H491.707C493.245 60.1016 494.098 62.8965 494.098 66.1484Z" fill="#14303F"/>
<path d="M39 8C39 12.4183 35.4183 16 31 16C26.5817 16 23 12.4183 23 8C23 3.58172 26.5817 0 31 0C35.4183 0 39 3.58172 39 8Z" fill="#E9EBEF"/>
<path fill-rule="evenodd" clip-rule="evenodd" d="M31 15C34.866 15 38 11.866 38 8C38 4.13401 34.866 1 31 1C27.134 1 24 4.13401 24 8C24 11.866 27.134 15 31 15ZM31 16C35.4183 16 39 12.4183 39 8C39 3.58172 35.4183 0 31 0C26.5817 0 23 3.58172 23 8C23 12.4183 26.5817 16 31 16Z" fill="#677593"/>
<path d="M177 8C177 12.4183 173.418 16 169 16C164.582 16 161 12.4183 161 8C161 3.58172 164.582 0 169 0C173.418 0 177 3.58172 177 8Z" fill="#E9EBEF"/>
<path fill-rule="evenodd" clip-rule="evenodd" d="M169 15C172.866 15 176 11.866 176 8C176 4.13401 172.866 1 169 1C165.134 1 162 4.13401 162 8C162 11.866 165.134 15 169 15ZM169 16C173.418 16 177 12.4183 177 8C177 3.58172 173.418 0 169 0C164.582 0 161 3.58172 161 8C161 12.4183 164.582 16 169 16Z" fill="#677593"/>
<path d="M379 8C379 12.4183 375.418 16 371 16C366.582 16 363 12.4183 363 8C363 3.58172 366.582 0 371 0C375.418 0 379 3.58172 379 8Z" fill="#E9EBEF"/>
<path fill-rule="evenodd" clip-rule="evenodd" d="M371 15C374.866 15 378 11.866 378 8C378 4.13401 374.866 1 371 1C367.134 1 364 4.13401 364 8C364 11.866 367.134 15 371 15ZM371 16C375.418 16 379 12.4183 379 8C379 3.58172 375.418 0 371 0C366.582 0 363 3.58172 363 8C363 12.4183 366.582 16 371 16Z" fill="#677593"/>
<path d="M630 8C630 12.4183 626.418 16 622 16C617.582 16 614 12.4183 614 8C614 3.58172 617.582 0 622 0C626.418 0 630 3.58172 630 8Z" fill="#E9EBEF"/>
<path fill-rule="evenodd" clip-rule="evenodd" d="M622 15C625.866 15 629 11.866 629 8C629 4.13401 625.866 1 622 1C618.134 1 615 4.13401 615 8C615 11.866 618.134 15 622 15ZM622 16C626.418 16 630 12.4183 630 8C630 3.58172 626.418 0 622 0C617.582 0 614 3.58172 614 8C614 12.4183 617.582 16 622 16Z" fill="#677593"/>
<path d="M835 8C835 12.4183 831.418 16 827 16C822.582 16 819 12.4183 819 8C819 3.58172 822.582 0 827 0C831.418 0 835 3.58172 835 8Z" fill="#E9EBEF"/>
<path fill-rule="evenodd" clip-rule="evenodd" d="M827 15C830.866 15 834 11.866 834 8C834 4.13401 830.866 1 827 1C823.134 1 820 4.13401 820 8C820 11.866 823.134 15 827 15ZM827 16C831.418 16 835 12.4183 835 8C835 3.58172 831.418 0 827 0C822.582 0 819 3.58172 819 8C819 12.4183 822.582 16 827 16Z" fill="#677593"/>
<path d="M985 8C985 12.4183 981.418 16 977 16C972.582 16 969 12.4183 969 8C969 3.58172 972.582 0 977 0C981.418 0 985 3.58172 985 8Z" fill="#E9EBEF"/>
<path fill-rule="evenodd" clip-rule="evenodd" d="M977 15C980.866 15 984 11.866 984 8C984 4.13401 980.866 1 977 1C973.134 1 970 4.13401 970 8C970 11.866 973.134 15 977 15ZM977 16C981.418 16 985 12.4183 985 8C985 3.58172 981.418 0 977 0C972.582 0 969 3.58172 969 8C969 12.4183 972.582 16 977 16Z" fill="#677593"/>
<path d="M1150 8C1150 12.4183 1146.42 16 1142 16C1137.58 16 1134 12.4183 1134 8C1134 3.58172 1137.58 0 1142 0C1146.42 0 1150 3.58172 1150 8Z" fill="#E9EBEF"/>
<path fill-rule="evenodd" clip-rule="evenodd" d="M1142 15C1145.87 15 1149 11.866 1149 8C1149 4.13401 1145.87 1 1142 1C1138.13 1 1135 4.13401 1135 8C1135 11.866 1138.13 15 1142 15ZM1142 16C1146.42 16 1150 12.4183 1150 8C1150 3.58172 1146.42 0 1142 0C1137.58 0 1134 3.58172 1134 8C1134 12.4183 1137.58 16 1142 16Z" fill="#677593"/>
</svg>
