<svg width="252" height="252" viewBox="0 0 252 252" fill="none" xmlns="http://www.w3.org/2000/svg">
<circle cx="126" cy="126" r="126" fill="#F4474D"/>
<path d="M164.896 62.1271L191.791 47.5894L195.556 50.9476L184.071 79.2961L180.611 76.1995L183.722 68.7999L175.378 61.313L168.356 65.209L164.896 62.1271ZM185.249 65.2382L190.279 53.2591L190.133 53.1282L178.779 59.4376L185.249 65.2382Z" fill="#1B1C1E"/>
<path d="M209.468 66.5465L214.629 75.7343C217.624 81.0842 216.214 85.2711 212.492 87.3645C211.279 88.1217 209.831 88.4123 208.419 88.1823C207.007 87.9524 205.727 87.2174 204.816 86.1142L204.569 86.2596C205.276 87.8538 205.327 89.6619 204.713 91.2938C204.098 92.9256 202.866 94.2504 201.284 94.9822C197.446 97.1483 193.055 96.1452 189.77 90.2865L184.391 80.6917L209.468 66.5465ZM192.837 88.0478C194.873 91.6386 197.271 92.2055 199.35 91.0425C201.749 89.6905 202.607 86.6812 200.92 83.6865L197.78 78.1185L189.784 82.5961L192.837 88.0478ZM203.61 81.5058C205.063 84.0208 207.666 85.1402 210.079 83.7882C212.158 82.6252 212.914 80.3137 211.227 77.3189L208.32 72.1871L200.731 76.4467L203.61 81.5058Z" fill="#1B1C1E"/>
<path d="M196.995 112.646C195.774 105.246 200.412 98.9074 209.483 97.4246C218.555 95.9418 224.951 100.463 226.173 107.863C227.394 115.262 222.756 121.543 213.67 123.04C204.584 124.537 198.187 119.987 196.995 112.646ZM200.95 111.991C201.735 116.862 206.067 119.871 212.972 118.766C219.878 117.661 223.032 113.372 222.204 108.517C221.375 103.661 217.086 100.594 210.181 101.699C203.276 102.804 200.121 107.092 200.95 111.991Z" fill="#1B1C1E"/>
<path d="M222.742 155.91L204.148 152.086C198.217 150.88 194.931 145.559 196.312 138.813C197.693 132.068 202.84 128.448 208.756 129.684L227.408 133.507L226.522 137.796L208.335 134.045C204.511 133.246 201.226 135.339 200.31 139.628C200.053 140.509 199.986 141.435 200.112 142.345C200.238 143.255 200.555 144.128 201.043 144.906C201.53 145.684 202.177 146.351 202.94 146.862C203.703 147.373 204.566 147.716 205.471 147.87L223.672 151.621L222.742 155.91Z" fill="#1B1C1E"/>
<path d="M218.41 166.784L206.896 185.872L203.654 183.924L208.277 176.262L186.878 163.353L189.131 159.602L210.545 172.526L215.182 164.836L218.41 166.784Z" fill="#1B1C1E"/>
<path d="M181.28 209.51L161.32 219.469L159.633 216.081L167.629 212.083L156.479 189.71L160.389 187.762L171.554 210.135L179.594 206.123L181.28 209.51Z" fill="#1B1C1E"/>
<path d="M150.053 222.899L145.692 223.423L144.238 211.051L130.006 212.767L131.46 225.153L127.098 225.676L123.624 197.124L127.985 196.601L129.439 209.06L143.628 207.33L142.174 194.871L146.535 194.347L150.053 222.899Z" fill="#1B1C1E"/>
<path d="M114.393 224.717L96.7148 221.053L97.4853 217.346L110.875 220.123L112.648 211.604L100.189 209.03L100.945 205.367L113.404 207.955L115.192 199.348L101.643 196.543L102.414 192.85L120.237 196.543L114.393 224.717Z" fill="#1B1C1E"/>
<path d="M63.9899 204.015L56.3577 196.746C51.9091 192.501 51.9963 188.024 54.9039 184.985C55.8432 183.907 57.1411 183.206 58.5575 183.011C59.9739 182.816 61.4131 183.14 62.6089 183.924L62.8124 183.735C61.6846 182.417 61.1146 180.711 61.2231 178.98C61.3317 177.248 62.1103 175.627 63.3939 174.46C66.4323 171.262 70.9244 170.927 75.7946 175.565L83.7757 183.153L63.9899 204.015ZM65.1966 188.024C63.0886 186.032 60.2392 185.741 58.3348 187.733C56.692 189.463 56.6484 191.891 59.1344 194.275L63.4084 198.331L69.4125 192.021L65.1966 188.024ZM73.5848 178.589C70.5755 175.754 68.1186 175.914 66.4613 177.644C64.5569 179.635 64.6296 182.746 67.1301 185.131L71.7676 189.492L78.106 182.834L73.5848 178.589Z" fill="#1B1C1E"/>
<path d="M68.4819 168.95L38.1854 173.166L35.8594 168.688L56.5465 146.169L58.6981 150.284L53.1883 156.099L58.3782 166.028L66.3304 164.836L68.4819 168.95ZM50.5424 158.905L41.6308 168.369L41.7181 168.543L54.5694 166.609L50.5424 158.905Z" fill="#1B1C1E"/>
<path d="M25 125.904L43.7682 123.491C49.7722 122.706 54.5988 126.674 55.4856 133.493C56.3723 140.311 52.6798 145.428 46.6757 146.169L27.9075 148.583L27.3551 144.221L45.7744 141.866C49.6414 141.387 52.0692 138.334 51.5894 133.987C51.5462 133.069 51.3093 132.171 50.8944 131.352C50.4795 130.532 49.8959 129.81 49.182 129.232C48.468 128.654 47.6399 128.233 46.7519 127.998C45.864 127.763 44.9363 127.718 44.0298 127.867L25.6106 130.222L25 125.904Z" fill="#1B1C1E"/>
<path d="M25.6687 112.384L26.6718 108.139L38.8253 111.046L42.0963 97.1193L29.9428 94.2118L30.9459 89.9523L58.96 96.5378L57.9569 100.797L45.7307 97.8898L42.4597 111.817L54.6859 114.724L53.6828 118.969L25.6687 112.384Z" fill="#1B1C1E"/>
<path d="M59.207 95.3747L40.9186 70.8933L43.6953 66.6919L73.4103 73.9608L70.8517 77.8423L63.1322 75.7634L56.9537 85.1111L61.8383 91.4932L59.207 95.3747ZM59.3233 74.833L46.7337 71.6057L46.6319 71.7655L54.5404 82.0728L59.3233 74.833Z" fill="#1B1C1E"/>
<path d="M75.6785 36.5116L86.9307 51.7181C90.5505 56.5591 89.4457 62.7231 83.9068 66.8082C78.368 70.8933 72.1458 70.1809 68.5696 65.3544L57.3174 50.0898L60.821 47.4876L71.8696 62.4033C74.1666 65.5434 78.0191 66.1685 81.5517 63.5954C85.0844 61.0222 85.5205 57.1406 83.209 54.0005L72.1604 39.0848L75.6785 36.5116Z" fill="#1B1C1E"/>
<path d="M97.8195 31.2054C94.4467 32.2521 92.8621 34.6363 93.5599 37.0205C94.3595 39.6227 97.5142 39.7681 99.8547 39.6082L102.762 39.5064C106.542 39.2883 111.485 39.8408 113.084 44.8127C114.538 49.4647 111.848 54.015 105.35 56.0067C99.2005 57.9111 94.374 56.0067 92.5714 51.093L96.7437 49.8136C97.9212 52.7212 101.018 53.3318 104.231 52.3723C107.734 51.2674 109.74 48.7088 108.926 46.0048C108.17 43.6206 105.597 43.3589 102.442 43.4752L98.9098 43.606C94.1123 43.766 90.6815 42.3558 89.4894 38.5324C88.0356 33.7786 91.2775 29.33 96.8454 27.6146C102.413 25.8991 107.298 27.8763 108.81 32.2812L104.739 33.5314C103.664 31.0164 100.931 30.2314 97.8195 31.2054Z" fill="#1B1C1E"/>
<path d="M150.358 45.3069L137.9 42.5593L138.685 38.9976L151.143 41.7452L150.358 45.3069Z" fill="#1B1C1E"/>
</svg>
