<svg width="699" height="819" viewBox="0 0 699 819" fill="none" xmlns="http://www.w3.org/2000/svg">
<path fill-rule="evenodd" clip-rule="evenodd" d="M320.204 81.7471L184.935 81.7471L184.935 558.989H184.936C184.935 559.032 184.935 559.075 184.935 559.118C184.923 560.534 184.923 561.951 184.935 563.368C184.935 563.411 184.935 563.454 184.936 563.497C185.503 628.47 210.573 693.269 260.147 742.843C360.442 843.137 523.052 843.137 623.346 742.843C723.641 642.548 723.641 479.938 623.346 379.643C544.88 301.177 428.273 284.1 333.204 328.41C328.823 330.452 324.487 332.624 320.204 334.927L320.204 81.7471ZM197.935 545.989H198.05L197.935 559.102C197.385 622.234 221.184 685.495 269.339 733.65C364.557 828.868 518.936 828.868 614.154 733.65C709.372 638.432 709.372 484.054 614.154 388.836C536.241 310.922 418.686 296.748 326.359 346.377L307.204 356.5L307.204 94.7471L197.935 94.7471L197.935 545.989ZM346.759 466.255C399.219 413.795 484.274 413.795 536.734 466.255C589.194 518.716 589.194 603.77 536.734 656.23C484.274 708.691 399.219 708.691 346.759 656.23C294.299 603.77 294.299 518.716 346.759 466.255ZM527.542 475.448C480.158 428.065 403.335 428.065 355.952 475.448C308.568 522.831 308.568 599.655 355.952 647.038C403.335 694.421 480.158 694.421 527.542 647.038C574.925 599.655 574.925 522.831 527.542 475.448Z" fill="black"/>
<path fill-rule="evenodd" clip-rule="evenodd" d="M544.195 339.91C489.792 314.997 374.128 263.757 350.995 254.538L355.808 242.462C379.29 251.82 495.244 303.195 549.608 328.09L544.195 339.91Z" fill="black"/>
</svg>
