<svg width="202" height="36" viewBox="0 0 202 36" fill="none" xmlns="http://www.w3.org/2000/svg">
<path d="M191.899 27.9954C192.599 29.84 193.43 30.65 194.284 30.65C196.064 30.65 196.699 29.8264 196.652 28.3153C196.586 26.3482 194.165 25.9603 192.332 25.2251C191.353 24.8304 190.718 24.5309 190.439 24.3063C189.632 23.6528 189.045 22.9177 188.659 22.1077C188.274 21.3046 188.202 19.7527 188.202 18.7181C188.202 16.8939 188.849 15.3556 190.143 14.0896C191.43 12.8304 192.997 12.2042 194.836 12.2042C198.699 12.2042 200.016 14.2529 201.493 17.3091L197.476 18.9086C197.476 17.7515 196.165 16.7169 195.067 16.7169C193.904 16.7169 193.353 17.6154 193.353 18.7453C193.353 20.7192 195.376 21.2161 196.859 21.8763C198.74 22.7135 199.909 23.3057 200.597 24.2722C202.454 26.8723 202.092 30.895 199.796 33.1004C198.42 34.4208 196.527 34.9858 194.444 34.9858C190.7 34.9858 188.689 32.8894 187.567 29.6426L191.899 27.9954Z" fill="black"/>
<path fill-rule="evenodd" clip-rule="evenodd" d="M10.164 18.8951C12.8162 18.8951 14.97 21.5156 14.97 24.7487C14.97 27.9819 12.8162 30.6024 10.164 30.6024C7.51171 30.6024 5.35788 27.9819 5.35788 24.7487C5.36381 21.5224 7.51171 18.8951 10.164 18.8951ZM0 0H5.41128V16.2337C7.05484 14.5525 9.18494 13.5383 11.5168 13.5383C16.7085 13.5383 20.9153 18.5683 20.9153 24.7691C20.9153 30.9699 16.7085 36 11.5168 36C9.18494 36 7.05484 34.9858 5.41128 33.3046V35.3261H0V0Z" fill="black"/>
<path fill-rule="evenodd" clip-rule="evenodd" d="M41.973 18.5417C44.7439 18.5417 46.9927 21.2439 46.9927 24.5791C46.9927 27.9144 44.7439 30.6166 41.973 30.6166C39.2021 30.6166 36.9533 27.9144 36.9533 24.5791C36.9592 21.2507 39.2021 18.5417 41.973 18.5417ZM40.4422 13.3415C42.9698 13.3415 45.266 14.553 46.9511 16.5269V13.5933H52.4336V34.9047H46.9511V32.8083C45.266 34.7822 42.9698 35.9938 40.4422 35.9938C35.2742 35.9938 31.0792 30.9229 31.0792 24.6676C31.0792 18.4124 35.2742 13.3415 40.4422 13.3415Z" fill="black"/>
<path fill-rule="evenodd" clip-rule="evenodd" d="M135.264 18.5417C138.035 18.5417 140.284 21.2439 140.284 24.5791C140.284 27.9144 138.035 30.6166 135.264 30.6166C132.493 30.6166 130.244 27.9144 130.244 24.5791C130.244 21.2507 132.493 18.5417 135.264 18.5417ZM133.733 13.3415C136.261 13.3415 138.557 14.553 140.242 16.5269V13.5933H145.725V34.9047H140.242V32.8083C138.557 34.7822 136.261 35.9938 133.733 35.9938C128.565 35.9938 124.37 30.9229 124.37 24.6676C124.37 18.4124 128.565 13.3415 133.733 13.3415Z" fill="black"/>
<path fill-rule="evenodd" clip-rule="evenodd" d="M73.2064 35.5648C66.0566 35.5648 63.9859 30.7049 64.3893 23.2245L64.2469 13.3549H69.5336V25.1848C69.5336 27.7577 70.661 30.2148 73.2776 30.2148C76.0901 30.2148 77.0809 27.8734 77.0928 25.2256L77.1521 13.3549H82.4388V22.3192C82.3676 26.1581 82.516 28.3498 81.7683 30.2829C80.4452 33.693 77.4547 35.5648 73.2064 35.5648Z" fill="black"/>
<path fill-rule="evenodd" clip-rule="evenodd" d="M166.711 35.5648C159.562 35.5648 157.491 30.7049 157.894 23.2245L157.752 13.3549H163.039V25.1848C163.039 27.7577 164.166 30.2148 166.783 30.2148C169.595 30.2148 170.586 27.8734 170.598 25.2256L170.657 13.3549H175.944V22.3192C175.873 26.1581 176.021 28.3498 175.273 30.2829C173.95 33.693 170.96 35.5648 166.711 35.5648Z" fill="black"/>
<path fill-rule="evenodd" clip-rule="evenodd" d="M94.7983 0H100.043V17.2819C101.479 15.131 103.253 13.7357 106.018 13.6404C110.024 13.4974 112.029 15.5258 113.026 20.0794V34.9722H107.781C107.781 30.8338 107.609 27.0017 107.644 22.5502C107.662 20.6444 106.149 18.8678 104.078 18.827C101.634 18.7794 100.589 21.1344 100.043 22.1554V34.9722H94.7983V0Z" fill="black"/>
</svg>
