<svg width="1680" height="848" viewBox="0 0 1680 848" fill="none" xmlns="http://www.w3.org/2000/svg">
<rect y="438" width="1680" height="410" fill="#F4474D"/>
<rect width="66" height="438" fill="#343538"/>
<rect x="133" width="66" height="438" fill="#343538"/>
<rect x="265" width="68" height="438" fill="#343538"/>
<rect x="400" width="68" height="438" fill="#343538"/>
<rect x="535" width="69" height="438" fill="#343538"/>
<rect x="670" width="70" height="438" fill="#343538"/>
<rect x="807" width="66" height="438" fill="#343538"/>
<rect x="940" width="67" height="438" fill="#343538"/>
<rect x="1073" width="69" height="438" fill="#343538"/>
<rect x="1209" width="68" height="438" fill="#343538"/>
<rect x="1344" width="68" height="438" fill="#343538"/>
<rect x="1478" width="69" height="438" fill="#343538"/>
<rect x="1614" width="66" height="438" fill="#343538"/>
<path d="M830.56 118C560.879 118 296.825 331.167 199 438C288.233 535.543 523.203 759 856.338 759C1122.85 759 1366.96 551.469 1478 438C1355.06 316.568 1108.17 118 830.56 118Z" fill="white"/>
</svg>
