<svg width="324" height="81" viewBox="0 0 324 81" fill="none" xmlns="http://www.w3.org/2000/svg">
<path d="M14.636 15.8061H0V2.94824H58.9544V33.8617H90.1414V2.94824H104.504V79.0008H89.7311V46.1724H58.9544V79.0008H44.4552V15.8061H28.8617V79.0008H14.636V15.8061Z" fill="white"/>
<path d="M202.169 2.94824H187.396V78.864H202.032V24.9707L239.921 78.864H279.589V65.3223H254.694V46.1724H279.589V33.8617H254.968V15.5325H294.362V78.864H308.861V15.5325H323.087V2.94824H239.648V55.4738L202.169 2.94824Z" fill="white"/>
<path fill-rule="evenodd" clip-rule="evenodd" d="M146.087 66.4176C160.44 66.4176 172.076 54.7819 172.076 40.4285C172.076 26.075 160.44 14.4393 146.087 14.4393C131.733 14.4393 120.097 26.075 120.097 40.4285C120.097 54.7819 131.733 66.4176 146.087 66.4176ZM146.087 80.0962C167.994 80.0962 185.754 62.3363 185.754 40.4285C185.754 18.5206 167.994 0.760742 146.087 0.760742C124.179 0.760742 106.419 18.5206 106.419 40.4285C106.419 62.3363 124.179 80.0962 146.087 80.0962Z" fill="white"/>
</svg>
