<svg width="309" height="70" viewBox="0 0 309 70" fill="none" xmlns="http://www.w3.org/2000/svg">
<path fill-rule="evenodd" clip-rule="evenodd" d="M91.7546 20.6212L92.8342 40.1571H80.1506L91.7546 20.6212ZM70.7056 55.3516H94.1844L95.8037 70H134.934L153.555 23.8789L150.587 70H172.176L205.369 23.3345L186.479 70H209.689L233.706 11.1255L241.264 43.1391L230.2 69.9982H253.679L263.932 44.4948L309 0H281.743L257.993 23.3327L252.327 0H198.352L172.985 35.2713L175.146 0H139.792L116.584 57.791L109.838 0H81.7699L48.3062 52.6366H30.4958L51.8156 0H28.6057L0 69.9982H62.0694L70.7056 55.3516Z" fill="white"/>
</svg>
