<svg width="192" height="68" viewBox="0 0 192 68" fill="none" xmlns="http://www.w3.org/2000/svg">
<path fill-rule="evenodd" clip-rule="evenodd" d="M13.6345 66.2309H0V0.953125H13.6345V27.5039L38.5421 0.953125H56.1809L29.5431 27.678L57.7261 66.2309H40.1852L20.0001 37.591L13.6345 44.1416V66.2309Z" fill="white"/>
<path fill-rule="evenodd" clip-rule="evenodd" d="M101.916 66.232H89.1844V36.8521C89.1844 33.3047 88.9994 27.3091 80.9145 27.3091C75.2779 27.3091 70.9145 31.1284 70.9145 38.4843V66.2211H58.2158V17.864H70.4031V24.9587H70.5771C72.3073 22.0424 75.9417 16.5908 85.1257 16.5908C94.5816 16.5908 101.948 22.1404 101.948 32.7715V66.232H101.916Z" fill="white"/>
<path fill-rule="evenodd" clip-rule="evenodd" d="M105.452 42.0406C105.452 59.4944 117.172 67.5032 130.175 67.5032C143.178 67.5032 154.909 59.4944 154.909 42.0406C154.909 24.5867 143.178 16.5889 130.175 16.5889C117.172 16.5889 105.452 24.5867 105.452 42.0406ZM118.543 42.0405C118.543 35.8598 120.382 27.3179 130.175 27.3179V27.3288C139.99 27.3288 141.807 35.8707 141.807 42.0514C141.807 48.232 139.99 56.7849 130.175 56.7849C120.36 56.7849 118.543 48.2212 118.543 42.0405Z" fill="white"/>
<path fill-rule="evenodd" clip-rule="evenodd" d="M171.437 66.2309H158.706V0.953125H171.437V66.2309Z" fill="white"/>
<path fill-rule="evenodd" clip-rule="evenodd" d="M191.242 66.2309H178.51V0.953125H191.242V66.2309Z" fill="white"/>
</svg>
