<svg width="427" height="113" viewBox="0 0 427 113" fill="none" xmlns="http://www.w3.org/2000/svg">
<path d="M110.73 0.28889C108.378 1.06771 106.019 1.11607 103.652 0.433967C105.988 -0.0597956 108.348 -0.108156 110.73 0.28889Z" fill="white" fill-opacity="0.992"/>
<path d="M326.815 0.365335C324.875 0.823465 322.892 0.955814 320.867 0.762381C320.76 0.7522 320.676 0.701296 320.615 0.60967L320.5 0.434054C322.577 -0.120792 324.682 -0.143698 326.815 0.365335Z" fill="white" fill-opacity="0.992"/>
<path d="M110.73 0.288086C123.245 1.9908 133.049 11.4665 134.179 24.1872C135.95 44.2304 116.579 58.8523 97.8108 51.6979C83.0972 46.0934 76.4314 28.7914 83.9066 14.4901C87.9229 6.80371 94.5047 2.11806 103.652 0.433162C106.019 1.11527 108.378 1.06691 110.73 0.288086ZM126.444 26.8291C126.444 21.8231 124.455 17.0222 120.916 13.4825C117.376 9.94273 112.575 7.95413 107.569 7.95413C102.563 7.95413 97.7621 9.94273 94.2224 13.4825C90.6826 17.0222 88.694 21.8231 88.694 26.8291C88.694 31.835 90.6826 36.6359 94.2224 40.1757C97.7621 43.7154 102.563 45.704 107.569 45.704C112.575 45.704 117.376 43.7154 120.916 40.1757C124.455 36.6359 126.444 31.835 126.444 26.8291Z" fill="white"/>
<path d="M326.815 0.364258C331.009 0.562781 334.822 1.85318 338.253 4.23545L345.132 10.1301C352.641 20.5398 353.071 31.0971 346.423 41.8021C337.329 56.4546 313.063 57.661 303.053 43.1689C302.381 41.204 301.322 39.4885 299.877 38.0225C292.646 21.2932 302.297 3.01378 320.5 0.432977L320.615 0.608594C320.676 0.700219 320.76 0.751123 320.867 0.761304C322.893 0.954737 324.875 0.822388 326.815 0.364258ZM313.246 11.5044C312.468 11.5503 311.689 11.9091 310.91 12.5811C309.469 13.8333 308.528 15.2433 308.085 16.8111C302.221 26.7373 305.878 39.2671 316.339 44.0011C327.838 49.2085 341.666 41.5196 343.002 28.837C344.689 12.7185 326.364 1.99062 313.246 11.5044Z" fill="white"/>
<path d="M253.911 17.9661C254.048 17.8948 254.16 17.8007 254.247 17.6836C254.43 17.4443 254.433 17.2051 254.255 16.9658L254.14 16.8131C253.992 16.6095 253.83 16.5993 253.651 16.7826C253.443 16.9913 253.328 17.2484 253.308 17.5538L219.551 46.5992C218.538 46.4669 218.029 46.9123 218.024 47.9354L215.879 49.8443C215.66 50.0377 215.441 50.0377 215.222 49.8443L203.456 39.5364C202.779 38.0449 201.643 37.1007 200.05 36.7036L178.236 17.8974C178.188 17.8563 178.129 17.8299 178.067 17.8213C178.004 17.8127 177.941 17.8222 177.883 17.8488C177.826 17.8754 177.778 17.9179 177.744 17.9711C177.711 18.0244 177.693 18.0863 177.693 18.1493L177.724 51.5088C177.724 51.5716 177.699 51.6318 177.655 51.6762C177.61 51.7206 177.55 51.7455 177.487 51.7455L171.432 51.7532C170.806 51.7583 170.491 51.4452 170.486 50.814L170.379 1.11455C170.378 1.06138 170.394 1.00928 170.422 0.964557C170.451 0.919838 170.492 0.884423 170.541 0.862603C170.589 0.840783 170.643 0.833496 170.696 0.841623C170.748 0.84975 170.797 0.872942 170.837 0.908391L214.81 39.3073C215.359 39.7858 215.909 39.7883 216.459 39.3149L224.293 32.6339C225.693 31.8551 227.238 30.7352 228.928 29.2743C233.478 25.3394 237.281 21.8347 240.335 18.7602L261.081 0.671689C261.135 0.623199 261.201 0.591749 261.273 0.581136C261.344 0.570523 261.418 0.581202 261.484 0.611883C261.55 0.642564 261.606 0.691935 261.646 0.754035C261.685 0.816135 261.707 0.888309 261.707 0.961839V51.4401C261.707 51.5211 261.675 51.5988 261.617 51.6561C261.56 51.7134 261.482 51.7455 261.401 51.7455L254.27 51.7532C254.169 51.7532 254.072 51.7138 254 51.6436C253.928 51.5734 253.888 51.4783 253.888 51.379L253.911 17.9661Z" fill="white"/>
<path d="M386.929 7.05374C388.227 6.34109 389.245 5.34339 389.983 4.06063C396.809 -0.177076 405.712 -0.230525 413.264 1.77761C417.226 2.83131 423.365 6.56507 424.633 11.1235C424.719 11.4391 424.615 11.663 424.32 11.7954L418.112 14.5671C417.832 14.6892 417.613 14.6231 417.456 14.3685C413.21 7.45079 402.009 5.80915 395.45 9.9934C388.402 14.4831 394.847 19.4996 399.764 20.6526C404.254 21.7063 408.754 22.7269 413.264 23.7144C429.031 27.158 431.925 45.2465 416.211 51.3854C411.065 53.3961 405.44 53.9586 399.337 53.0729C391.312 51.9123 385.829 48.6672 382.363 41.2837C382.307 41.1673 382.277 41.0406 382.274 40.9118C382.271 40.7829 382.295 40.6549 382.345 40.536C382.394 40.4171 382.469 40.31 382.562 40.2218C382.656 40.1335 382.768 40.0661 382.89 40.0238L389.029 37.8553C389.28 37.7664 389.556 37.7716 389.804 37.8698C390.053 37.968 390.257 38.1527 390.38 38.3898C394.641 46.7125 406.957 47.8655 414.447 43.5667C418.105 41.4669 419.632 36.962 416.089 33.8543C414.6 32.5487 410.866 31.3957 408.392 30.8307C403.455 29.7108 398.558 28.4331 393.702 26.9977C384.661 24.3329 381.202 14.6129 386.929 7.05374Z" fill="white"/>
<path d="M8.42959 8.61152C8.80627 10.0063 9.6869 10.7596 11.0715 10.8716L39.2083 35.9084C39.2367 35.933 39.2716 35.949 39.3088 35.9546C39.346 35.9602 39.384 35.9551 39.4184 35.9399C39.4528 35.9247 39.4822 35.9 39.5031 35.8687C39.524 35.8375 39.5356 35.8009 39.5366 35.7633L39.5061 2.5642C39.506 2.51476 39.516 2.46582 39.5354 2.42033C39.5547 2.37483 39.5831 2.33373 39.6188 2.29949C39.6544 2.26525 39.6966 2.23858 39.7429 2.22109C39.7891 2.20359 39.8384 2.19564 39.8878 2.1977L47.1492 2.47257C47.0779 2.47766 46.999 2.49039 46.9125 2.51075C46.8005 2.54639 46.7445 2.62274 46.7445 2.73982L46.7292 51.5765C46.7283 51.6585 46.7041 51.7388 46.6594 51.8078C46.6147 51.8768 46.5515 51.9315 46.4774 51.9653C46.4033 51.9992 46.3213 52.0107 46.2414 51.9986C46.1615 51.9866 46.087 51.9513 46.0268 51.8971L42.5603 48.843C42.433 48.7259 42.293 48.7106 42.1403 48.7971C42.0894 48.8277 42.0411 48.8684 41.9952 48.9193L40.8194 47.9343C40.402 46.6516 39.5213 45.8982 38.1775 45.6742L9.35349 19.9044C9.16005 18.7082 8.46777 18.0821 7.27663 18.0261C6.10076 17.9701 6.00914 18.0973 7.00175 18.4079C7.20027 18.474 7.34789 18.5707 7.44461 18.698C7.12901 29.4386 7.13665 40.1945 7.46752 50.9656C7.47056 51.0641 7.45371 51.1623 7.41795 51.2543C7.38219 51.3463 7.32824 51.4303 7.25926 51.5014C7.19028 51.5725 7.10766 51.6293 7.01624 51.6684C6.92483 51.7075 6.82645 51.7282 6.72687 51.7292L0.595569 51.7903C0.442859 51.7953 0.30542 51.7495 0.183252 51.6528L0 51.5154V1.50287L0.244336 1.34252C0.371594 1.26617 0.488672 1.27635 0.595569 1.37306L8.42959 8.61152Z" fill="white"/>
<path d="M47.1491 2.47266L47.3094 52.5997C47.3094 52.6819 47.2856 52.7624 47.241 52.8315C47.1964 52.9005 47.1328 52.9553 47.0578 52.9891C46.9829 53.023 46.8998 53.0345 46.8185 53.0223C46.7371 53.0101 46.661 52.9747 46.5993 52.9204L41.9951 48.9194C42.0409 48.8685 42.0893 48.8278 42.1402 48.7972C42.2929 48.7107 42.4329 48.726 42.5601 48.843L46.0267 51.8972C46.0868 51.9514 46.1613 51.9866 46.2413 51.9987C46.3212 52.0108 46.4031 51.9992 46.4773 51.9654C46.5514 51.9315 46.6146 51.8769 46.6593 51.8079C46.7039 51.7389 46.7282 51.6586 46.7291 51.5765L46.7444 2.7399C46.7444 2.62282 46.8004 2.54647 46.9124 2.51084C46.9989 2.49047 47.0778 2.47775 47.1491 2.47266Z" fill="white" fill-opacity="0.992"/>
<path d="M389.983 4.05957C389.245 5.34233 388.227 6.34004 386.929 7.05268C387.641 5.74956 388.659 4.75186 389.983 4.05957Z" fill="white" fill-opacity="0.992"/>
<path d="M338.252 4.23633C341.006 5.65653 343.3 7.6214 345.132 10.1309L338.252 4.23633Z" fill="white" fill-opacity="0.992"/>
<path d="M8.42969 8.61133L11.0716 10.8714C9.687 10.7594 8.80637 10.0061 8.42969 8.61133Z" fill="white" fill-opacity="0.992"/>
<path d="M313.246 11.5049C311.322 13.0473 309.602 14.8161 308.085 16.8116C308.528 15.2437 309.469 13.8337 310.91 12.5815C311.689 11.9096 312.467 11.5507 313.246 11.5049Z" fill="white" fill-opacity="0.992"/>
<path d="M253.911 17.9664L253.308 17.5537C253.328 17.248 253.443 16.9906 253.652 16.7817C253.83 16.5983 253.993 16.6085 254.141 16.8123L254.255 16.9652C254.434 17.2046 254.431 17.4441 254.248 17.6836C254.161 17.8008 254.049 17.8951 253.911 17.9664Z" fill="white" fill-opacity="0.992"/>
<path d="M9.35359 19.9048L7.44472 18.6984C7.348 18.5712 7.20038 18.4745 7.00186 18.4083C6.00925 18.0978 6.10087 17.9705 7.27674 18.0265C8.46788 18.0825 9.16016 18.7086 9.35359 19.9048Z" fill="white" fill-opacity="0.992"/>
<path d="M240.335 18.7598C237.281 21.8343 233.478 25.339 228.927 29.2738C227.237 30.7348 225.693 31.8546 224.293 32.6335L240.335 18.7598Z" fill="white" fill-opacity="0.992"/>
<path d="M200.05 36.7021C201.643 37.0992 202.778 38.0435 203.455 39.5349L200.05 36.7021Z" fill="white" fill-opacity="0.992"/>
<path d="M299.877 38.0234C301.322 39.4895 302.381 41.2049 303.053 43.1698C301.648 41.6376 300.589 39.9221 299.877 38.0234Z" fill="white" fill-opacity="0.992"/>
<path d="M38.1775 45.6738C39.5213 45.8978 40.402 46.6512 40.8194 47.9339L38.1775 45.6738Z" fill="white" fill-opacity="0.992"/>
<path d="M219.553 46.5989L218.024 47.9365C218.029 46.9123 218.539 46.4664 219.553 46.5989Z" fill="white" fill-opacity="0.992"/>
<path d="M253.888 75.5131C255.498 75.485 256.784 74.2967 256.758 72.8589C256.733 71.4212 255.407 70.2784 253.797 70.3065C252.186 70.3346 250.901 71.523 250.926 72.9607C250.951 74.3985 252.277 75.5412 253.888 75.5131Z" fill="white"/>
<path d="M262.76 75.5057C264.333 75.5249 265.622 74.3953 265.639 72.9828C265.656 71.5702 264.395 70.4095 262.822 70.3903C261.249 70.371 259.96 71.5006 259.943 72.9132C259.926 74.3257 261.187 75.4864 262.76 75.5057Z" fill="white"/>
<path d="M64.2754 106.376C64.0082 107.071 65.1611 108.575 65.8559 107.842C71.8574 112.187 73.7969 102.383 73.0944 98.2978C73.0537 98.0636 72.9162 97.9465 72.6821 97.9465H69.0705C68.8109 97.9465 68.6225 97.832 68.5055 97.6029C68.083 96.7783 68.0372 95.9384 68.368 95.0832L76.9351 94.6785C77.3117 94.6582 77.5001 94.8363 77.5001 95.213V96.6485C77.5001 96.9183 77.635 97.0328 77.9048 96.9921C78.0269 96.9717 78.1364 96.9081 78.2331 96.8012C78.088 100.756 77.859 105.315 75.9577 108.812C73.6747 113.011 67.719 113.531 63.9013 111.897C55.2961 108.209 57.1591 91.067 58.8542 84.2637C59.7094 80.8048 63.1835 78.4073 66.7264 78.0713C71.1753 77.6488 74.3924 79.6722 76.3777 84.1416C76.51 84.4419 76.4438 84.6888 76.1791 84.8822L73.6976 86.6842C73.4329 86.8776 73.1809 86.8598 72.9417 86.6307C71.888 85.6076 71.2772 84.195 70.2845 83.3704C66.2454 79.9726 63.2141 84.7371 62.5803 88.4098C61.5063 94.5895 62.0713 100.578 64.2754 106.376Z" fill="white"/>
<path d="M175.838 91.1431C177.401 93.4439 179.266 95.475 181.435 97.2362C181.562 97.338 181.707 97.3813 181.87 97.366C181.962 97.3559 182.04 97.3482 182.107 97.3431C185.932 102.146 185.558 110.873 178.518 112.507C174.441 113.449 171.168 112.388 168.699 109.323C168.515 109.094 168.48 108.845 168.592 108.575L169.813 105.651C169.853 105.555 169.918 105.472 170 105.41C170.083 105.347 170.181 105.309 170.284 105.297C170.387 105.285 170.491 105.301 170.585 105.343C170.68 105.385 170.761 105.452 170.821 105.536C172.57 108.018 177.411 110.728 179.213 106.406C182.191 99.2902 170.279 95.3884 169.119 88.1958C167.698 79.4379 175.784 75.2536 183.046 79.9265C183.336 80.1149 183.4 80.3592 183.237 80.6596L181.587 83.7443C181.389 84.121 181.142 84.1592 180.847 83.8588C175.7 78.6591 170.478 86.0884 175.838 91.1431Z" fill="white"/>
<path d="M111.639 110.928L110.982 111.462C110.799 111.61 110.588 111.684 110.348 111.684L98.1467 111.691L98.1696 78.6755C98.1696 78.6084 98.1831 78.5419 98.2095 78.4802C98.2359 78.4184 98.2745 78.3627 98.323 78.3163C98.3715 78.2699 98.429 78.2338 98.4919 78.2102C98.5548 78.1867 98.6218 78.1761 98.6889 78.1792L102.255 78.3319C102.555 78.3472 102.705 78.5025 102.705 78.7977L102.69 108.362C102.69 108.698 102.855 108.864 103.186 108.859L111.883 108.759C111.936 108.759 111.989 108.771 112.037 108.796C112.085 108.82 112.126 108.855 112.157 108.898C112.189 108.942 112.209 108.992 112.217 109.045C112.225 109.098 112.221 109.152 112.204 109.202L111.639 110.928Z" fill="white"/>
<path d="M266.845 105.217L266.754 79.8058C266.754 79.5564 266.69 79.3247 266.563 79.111L266.097 78.3169C266.372 78.154 266.675 78.1362 267.006 78.2634C267.255 78.355 267.382 78.5357 267.388 78.8055C267.474 86.9908 267.479 95.1684 267.403 103.338C267.393 103.975 267.207 104.601 266.845 105.217Z" fill="white" fill-opacity="0.992"/>
<path d="M332.877 111.691L328.304 111.958L328.319 82.8207C328.319 82.4695 328.146 82.2939 327.8 82.2939H322.722C322.572 82.294 322.423 82.2638 322.285 82.2051C322.147 82.1464 322.022 82.0605 321.917 81.9523C321.813 81.8441 321.731 81.7158 321.676 81.5752C321.621 81.4345 321.595 81.2843 321.6 81.1333L321.661 78.7052C321.671 78.3998 321.829 78.2471 322.134 78.2471L339.123 78.3005C339.434 78.3056 339.589 78.4634 339.589 78.7739V81.683C339.589 82.0445 339.411 82.2201 339.054 82.2099L333.404 82.1259C333.34 82.1249 333.277 82.1366 333.218 82.1603C333.158 82.184 333.104 82.2193 333.059 82.2641C333.013 82.3088 332.977 82.3622 332.953 82.4211C332.928 82.4799 332.915 82.5431 332.915 82.6069L332.877 111.691Z" fill="white"/>
<path d="M150.58 111.691L145.639 111.775L144.326 105.56C144.27 105.29 144.102 105.158 143.822 105.163L135.263 105.301C134.896 105.306 134.672 105.486 134.591 105.843L133.27 111.882L128.536 111.546L137.187 78.7977C137.279 78.4567 137.5 78.2861 137.851 78.2861H141.44C141.73 78.2861 141.913 78.4261 141.99 78.7061C144.876 89.4467 147.749 100.187 150.61 110.928C150.641 111.05 150.63 111.305 150.58 111.691ZM139.311 85.194C139.352 85.1912 139.391 85.1651 139.426 85.1173C139.461 85.0695 139.491 85.0009 139.514 84.9154C139.537 84.8299 139.553 84.7292 139.561 84.619C139.569 84.5089 139.569 84.3915 139.561 84.2734C139.544 84.0351 139.495 83.8088 139.425 83.6443C139.355 83.4799 139.268 83.3907 139.186 83.3965C139.145 83.3994 139.106 83.4254 139.071 83.4733C139.036 83.5211 139.006 83.5897 138.983 83.6752C138.96 83.7607 138.944 83.8613 138.936 83.9715C138.928 84.0816 138.928 84.1991 138.936 84.3171C138.953 84.5555 139.002 84.7818 139.072 84.9462C139.142 85.1107 139.229 85.1998 139.311 85.194ZM135.835 101.109C135.827 101.144 135.828 101.181 135.836 101.217C135.844 101.252 135.86 101.286 135.883 101.314C135.905 101.343 135.934 101.366 135.967 101.382C136 101.398 136.036 101.406 136.072 101.406L142.875 101.376C142.912 101.376 142.948 101.367 142.981 101.351C143.013 101.335 143.042 101.312 143.065 101.284C143.088 101.255 143.104 101.222 143.112 101.186C143.12 101.151 143.12 101.114 143.112 101.078L139.661 85.7918C139.651 85.7354 139.621 85.6843 139.577 85.6475C139.533 85.6107 139.478 85.5905 139.42 85.5905C139.363 85.5905 139.307 85.6107 139.263 85.6475C139.22 85.6843 139.19 85.7354 139.18 85.7918L135.835 101.109Z" fill="white"/>
<path d="M225.026 111.119C223.829 111.877 222.539 112.071 221.154 111.699C220.915 111.633 220.783 111.475 220.757 111.226C220.582 109.21 220.964 96.0845 220.391 95.5729C220.197 95.3947 220.04 95.4227 219.917 95.6569C219.851 95.774 219.836 95.9012 219.872 96.0387L212.03 95.6722C211.664 95.6518 211.48 95.8249 211.48 96.1914L211.473 111.691L206.975 111.936L207.075 78.7061C207.075 78.4261 207.215 78.2861 207.495 78.2861H210.831C211.279 78.2861 211.503 78.5101 211.503 78.9581V91.3352C211.503 91.6355 211.653 91.7857 211.954 91.7857L219.33 91.8544C219.409 91.8554 219.487 91.8408 219.561 91.8114C219.635 91.782 219.702 91.7385 219.758 91.6831C219.815 91.6278 219.86 91.5619 219.892 91.4891C219.923 91.4163 219.939 91.3381 219.94 91.2588L220.131 78.7366C220.136 78.4363 220.292 78.2861 220.597 78.2861H224.522C224.868 78.2861 225.041 78.4592 225.041 78.8053L225.026 111.119Z" fill="white"/>
<path d="M266.097 78.3167L266.563 79.1108C266.69 79.3246 266.754 79.5562 266.754 79.8056L266.845 105.217C266.326 110.495 263.145 112.961 257.301 112.615C251.712 112.279 249.528 108.317 249.436 103.102C249.304 94.9875 249.274 86.8761 249.345 78.7672C249.35 78.4465 249.51 78.2861 249.826 78.2861H253.361C253.692 78.2861 253.857 78.4516 253.857 78.7824C253.893 86.7743 253.911 94.7483 253.911 102.704C253.911 110.806 262.875 110.477 262.875 102.33C262.875 94.481 262.862 86.6266 262.837 78.7672C262.837 78.4719 262.984 78.3243 263.28 78.3243L266.097 78.3167Z" fill="white"/>
<path d="M297.181 111.691L292.783 111.768L292.837 83.043C292.837 82.8459 292.758 82.6567 292.618 82.5166C292.478 82.3765 292.288 82.2968 292.089 82.2948L286.476 82.2871C286.166 82.2871 286.018 82.1319 286.034 81.8214L286.186 78.729C286.202 78.4338 286.357 78.2861 286.652 78.2861H303.58C303.906 78.2861 304.071 78.4516 304.076 78.7824L304.092 81.5618C304.092 81.969 303.888 82.1752 303.481 82.1802L297.67 82.2719C297.446 82.2719 297.332 82.3864 297.326 82.6155L297.181 111.691Z" fill="white"/>
<path d="M362.656 82.8674L362.45 82.8598C362.226 82.8598 362.114 82.9692 362.114 83.1881V92.6103C362.114 92.8648 362.243 92.9946 362.503 92.9997L371.322 93.1677C371.612 93.1728 371.788 93.3153 371.849 93.5953L372.422 96.199L362.503 96.3746C362.05 100.421 361.948 104.435 362.198 108.416C362.208 108.609 362.307 108.686 362.495 108.645C362.592 108.619 362.666 108.553 362.717 108.446C362.803 108.472 362.864 108.553 362.9 108.691C362.926 108.798 362.992 108.848 363.099 108.843L372.903 108.79C373.188 108.785 373.33 108.925 373.33 109.21L373.345 111.691L358.158 112.05L358.265 78.6984C358.265 78.4236 358.403 78.2861 358.678 78.2861H372.971C373.211 78.2861 373.335 78.4058 373.345 78.645L373.452 81.6076C373.468 82.0759 373.239 82.31 372.765 82.31C371.2 82.31 362.694 81.5999 362.656 82.8674Z" fill="white"/>
<path d="M362.655 82.867L362.709 92.0296C362.709 92.2841 362.836 92.4114 363.091 92.4114H372.223C372.487 92.4114 372.65 92.5412 372.711 92.8008C372.996 94.0428 372.9 95.1754 372.421 96.1986L371.849 93.5949C371.787 93.3149 371.612 93.1724 371.322 93.1673L362.503 92.9993C362.243 92.9942 362.113 92.8644 362.113 92.6099V83.1877C362.113 82.9688 362.225 82.8594 362.449 82.8594L362.655 82.867Z" fill="white" fill-opacity="0.992"/>
<path d="M138.936 84.3165C138.971 84.8129 139.139 85.2055 139.311 85.1934C139.484 85.1814 139.596 84.7692 139.561 84.2728C139.526 83.7764 139.358 83.3838 139.186 83.3959C139.013 83.4079 138.902 83.8201 138.936 84.3165Z" fill="white" fill-opacity="0.992"/>
<path d="M175.838 91.1436C178.19 93.0015 180.279 95.0682 182.107 97.3436C182.04 97.3487 181.962 97.3563 181.87 97.3665C181.707 97.3818 181.562 97.3385 181.435 97.2367C179.266 95.4754 177.401 93.4444 175.838 91.1436Z" fill="white" fill-opacity="0.992"/>
<path d="M78.2333 96.8018C78.1366 96.9087 78.0271 96.9723 77.905 96.9927C77.6352 97.0334 77.5003 96.9189 77.5003 96.6491V95.2136C77.5003 94.8369 77.3119 94.6588 76.9353 94.6791L68.3682 95.0838C68.3021 94.8955 68.2919 94.7198 68.3377 94.5569C68.4089 94.2973 68.5795 94.165 68.8493 94.1599L77.8821 94.0225C78.1518 94.0225 78.3198 94.1548 78.386 94.4195C78.5896 95.2798 78.5387 96.0739 78.2333 96.8018Z" fill="white" fill-opacity="0.992"/>
<path d="M225.026 111.117C225.102 111.448 225.107 111.807 225.041 112.194C224.985 112.494 224.804 112.645 224.499 112.645H220.322C220.058 112.645 219.923 112.512 219.918 112.247L219.872 96.0373C219.836 95.8999 219.851 95.7726 219.918 95.6555C220.04 95.4214 220.198 95.3934 220.391 95.5715C220.964 96.0831 220.582 109.209 220.757 111.224C220.783 111.474 220.915 111.632 221.155 111.698C222.539 112.069 223.829 111.876 225.026 111.117Z" fill="white" fill-opacity="0.992"/>
<path d="M362.503 96.375L362.717 108.447C362.666 108.554 362.592 108.62 362.495 108.645C362.307 108.686 362.208 108.61 362.198 108.416C361.948 104.436 362.05 100.422 362.503 96.375Z" fill="white" fill-opacity="0.992"/>
<path d="M64.2758 106.376C64.9841 106.829 65.5115 107.319 65.858 107.844C65.1624 108.577 64.0083 107.072 64.2758 106.376Z" fill="white" fill-opacity="0.992"/>
<path d="M111.639 110.927C111.878 112.042 111.555 112.604 110.669 112.614C106.648 112.67 102.624 112.673 98.5973 112.622C98.3326 112.622 98.1722 112.489 98.1162 112.225C98.0806 112.026 98.0908 111.848 98.1468 111.69L110.348 111.683C110.588 111.683 110.799 111.609 110.982 111.461L111.639 110.927Z" fill="white" fill-opacity="0.992"/>
<path d="M128.536 111.545L133.27 111.881C133.275 112.13 133.138 112.316 132.858 112.438C131.101 113.187 129.661 112.889 128.536 111.545Z" fill="white" fill-opacity="0.992"/>
<path d="M145.639 111.774L150.58 111.69C150.697 112.179 150.562 112.485 150.175 112.607C148.556 113.141 147.044 112.864 145.639 111.774Z" fill="white" fill-opacity="0.992"/>
<path d="M211.473 111.69C211.569 111.746 211.633 111.83 211.664 111.942C211.725 112.182 211.638 112.342 211.404 112.423C209.765 113.009 208.289 112.846 206.975 111.935L211.473 111.69Z" fill="white" fill-opacity="0.992"/>
<path d="M292.783 111.767L297.181 111.69L297.227 111.942C297.263 112.151 297.181 112.296 296.983 112.378C295.349 113.044 293.949 112.841 292.783 111.767Z" fill="white" fill-opacity="0.992"/>
<path d="M332.877 111.69C333.007 112.141 332.732 112.523 332.289 112.63C330.843 112.991 329.515 112.767 328.303 111.958L332.877 111.69Z" fill="white" fill-opacity="0.992"/>
<path d="M373.345 111.69C373.447 111.848 373.48 112.001 373.445 112.149C373.384 112.373 373.236 112.495 373.002 112.515C367.993 112.907 363.045 112.752 358.158 112.049L373.345 111.69Z" fill="white" fill-opacity="0.992"/>
</svg>
