<svg width="173" height="72" viewBox="0 0 173 72" fill="none" xmlns="http://www.w3.org/2000/svg">
<g clip-path="url(#clip0_82_21)">
<path fill-rule="evenodd" clip-rule="evenodd" d="M22.3215 43.4778C24.3188 42.1246 27.4726 39.765 27.4726 32.166C27.4726 22.3809 22.2864 17.9395 15.2781 17.9395H3.05176e-05V71.7226H15.208C23.8283 71.7226 28.0333 65.4074 28.0333 56.0388C28.0333 47.26 24.5291 44.8657 22.3215 43.5125V43.4778ZM8.97065 26.1284H13.8764C16.3644 26.1284 18.4318 27.9675 18.4318 33.0682C18.4318 38.1689 16.049 40.0079 13.8764 40.0079H8.97065V26.3019V26.1284ZM13.9816 63.3255H8.97065V48.1621H13.9816C17.4857 48.1621 18.9925 50.6604 18.9925 55.1018C18.9925 61.2782 17.1003 63.2561 13.9816 63.2561V63.3255Z" fill="white"/>
<path fill-rule="evenodd" clip-rule="evenodd" d="M62.8995 53.6792C62.8995 46.9823 60.7971 45.1087 57.9236 43.4778C59.886 42.1246 63.0397 39.765 63.0397 32.166C63.0397 22.3809 57.8886 17.9395 50.8803 17.9395H35.5671V71.7226H44.4326V48.2662H49.3035C51.8615 48.2662 53.6837 50.3481 53.6837 55.2059V71.8267H62.7594V53.818L62.8995 53.6792ZM44.4326 26.1978H49.3035C51.8265 26.1978 53.8588 28.0368 53.8588 33.1375C53.8588 38.2383 51.5111 40.0773 49.3035 40.0773H44.4326V26.3712V26.1978Z" fill="white"/>
<path fill-rule="evenodd" clip-rule="evenodd" d="M86.2722 0.000129421C82.4878 0.000129421 71.4496 0.832811 71.4496 11.7282V71.6877H80.4553V48.2314H92.1241V71.6877H101.13V11.6589C101.13 0.763452 90.0918 -0.0693359 86.2722 -0.0693359V0.000129421ZM80.4553 13.0468C80.4553 9.02174 84.2048 8.50127 86.2722 8.50127C88.3397 8.50127 92.1241 8.98705 92.1241 13.0468V39.9037H80.4203V13.0468H80.4553Z" fill="white"/>
<path fill-rule="evenodd" clip-rule="evenodd" d="M128.042 17.9043V60.2369C128.042 62.3882 126.255 63.7067 123.556 63.7067C120.858 63.7067 119.071 62.2494 119.071 60.2369V17.9043H110.1V61.6595C110.1 68.5993 116.233 71.3405 121.033 72.0692H126.079C130.88 71.4099 137.047 68.5993 137.047 61.6595V17.9043H128.042Z" fill="white"/>
<path fill-rule="evenodd" clip-rule="evenodd" d="M163.994 71.6877V29.3552C163.994 27.2039 162.172 25.8853 159.474 25.8853C156.776 25.8853 155.024 27.308 155.024 29.3552V71.6877H146.053V27.9673C146.053 19.6395 154.743 17.5576 159.544 17.5576C164.345 17.5576 173 19.7783 173 27.9673V71.6877H163.994Z" fill="white"/>
</g>
<defs>
<clipPath id="clip0_82_21">
<rect width="173" height="72" fill="white"/>
</clipPath>
</defs>
</svg>
