<svg width="975" height="1576" viewBox="0 0 975 1576" fill="none" xmlns="http://www.w3.org/2000/svg">
<path fill-rule="evenodd" clip-rule="evenodd" d="M39.1777 11.8131C51.0573 4.15054 65.3947 0 81.9959 0C114.968 0 137.501 14.2392 150.492 35.9649C162.423 55.9166 165 79.9744 165 98.8553V673.477H123V98.8553C123 82.5757 120.536 67.7059 114.445 57.52C109.415 49.1083 100.946 42 81.9959 42C72.636 42 66.3684 44.2537 61.9436 47.1078C57.4011 50.0378 53.632 54.3648 50.5634 60.128C44.1381 72.1956 42 88.303 42 101.367V1477.65C42 1486.45 44.1558 1502.11 50.8803 1514.75C57.048 1526.33 65.9561 1534 81.4918 1534C91.2087 1534 97.3503 1532.03 101.323 1529.76C105.22 1527.54 108.24 1524.34 110.685 1519.85C116.063 1509.96 117.959 1495.23 117.959 1477.65V914.578H159.959V1477.65C159.959 1496.23 158.326 1520.17 147.574 1539.93C141.953 1550.25 133.756 1559.61 122.152 1566.23C110.624 1572.82 96.9798 1576 81.4918 1576C46.6177 1576 25.2799 1556.04 13.8042 1534.48C2.88515 1513.96 0 1490.94 0 1477.65V101.367C0 85.2976 2.39875 61.2216 13.4909 40.389C19.181 29.7022 27.4158 19.3999 39.1777 11.8131Z" fill="white"/>
<path fill-rule="evenodd" clip-rule="evenodd" d="M261 46.1564V870.309C284.962 868.074 301.091 861.918 311.459 853.677C323.654 843.986 331 828.88 331 804.299V77.7778C331 69.7332 328.436 64.7959 324.775 61.0709C320.612 56.8363 313.849 53.0653 304.248 50.3315C290.925 46.5373 275.109 45.575 261 46.1564ZM261 919.683V1568H219V8.91185L236.925 6.2583C257.252 3.24911 288.517 2.18175 315.752 9.93742C329.485 13.8483 343.722 20.4337 354.725 31.627C366.23 43.33 373 58.892 373 77.7778V804.299C373 838 362.38 866.857 337.591 886.558C330.137 892.482 321.729 897.309 312.465 901.145C316.441 904.13 320.347 907.347 324.139 910.801C351.321 935.554 373 972.817 373 1023.86V1568H331V1023.86C331 985.978 315.345 959.598 295.861 941.854C284.646 931.641 272.248 924.389 261 919.683Z" fill="white"/>
<path fill-rule="evenodd" clip-rule="evenodd" d="M860.769 5.52441H971.663V47.5244H902.769V856.249H974.676V898.249H902.769V1567.77H860.769V5.52441Z" fill="white"/>
<path fill-rule="evenodd" clip-rule="evenodd" d="M786.351 48.0269H624.643V6.02686H786.351V48.0269Z" fill="white"/>
<path fill-rule="evenodd" clip-rule="evenodd" d="M684.999 1568.28V30.542H726.999V1568.28H684.999Z" fill="white"/>
<path fill-rule="evenodd" clip-rule="evenodd" d="M479.289 6.52832H551.514L606 1567.45H564L515.513 179.215L468.5 1567.45H426.5L479.289 6.52832Z" fill="white"/>
<path fill-rule="evenodd" clip-rule="evenodd" d="M569.401 1192.77H461.931V1150.77H569.401V1192.77Z" fill="white"/>
</svg>
