<svg width="1056" height="237" viewBox="0 0 1056 237" fill="none" xmlns="http://www.w3.org/2000/svg">
<path d="M68.6043 225.2H85.6043V232H0.604248V225.2H17.6042V82.4H4.00425V75.6H68.6043V225.2ZM71.6643 30.72C71.6643 38.88 68.7176 45.9066 62.8242 51.8C57.1576 57.4666 50.1309 60.3 41.7443 60.3C33.5842 60.3 26.5576 57.4666 20.6642 51.8C14.7709 45.9066 11.8242 38.88 11.8242 30.72C11.8242 22.3333 14.7709 15.1933 20.6642 9.29997C26.5576 3.40663 33.5842 0.459961 41.7443 0.459961C50.1309 0.459961 57.1576 3.40663 62.8242 9.29997C68.7176 15.1933 71.6643 22.3333 71.6643 30.72Z" fill="#F5F5F5"/>
<path d="M175.811 229.28C199.384 229.28 211.171 222.82 211.171 209.9C211.171 202.647 207.09 196.753 198.93 192.22C190.771 187.46 180.91 183.607 169.35 180.66C157.79 177.713 146.344 174.313 135.01 170.46C123.904 166.607 114.611 160.487 107.131 152.1C99.8772 143.713 96.9305 132.72 98.2905 119.12C99.6505 105.52 106.564 94.3 119.031 85.46C131.724 76.62 147.251 72.2 165.611 72.2C184.197 72.2 199.157 75.1466 210.49 81.04C221.824 86.9333 228.171 94.8666 229.531 104.84C230.437 110.96 229.417 116.627 226.471 121.84C223.75 127.053 219.104 129.773 212.531 130C206.184 130.227 200.857 128.527 196.55 124.9C192.47 121.273 190.544 117.08 190.771 112.32C190.997 107.56 192.81 103.367 196.21 99.74C199.61 95.8866 201.311 92.8266 201.311 90.56C201.311 86.7066 197.57 83.8733 190.09 82.06C182.837 80.02 174.337 79 164.59 79C155.071 79 147.25 81.1533 141.13 85.46C135.01 89.7666 131.951 95.0933 131.951 101.44C131.951 107.787 135.691 113.227 143.171 117.76C150.877 122.293 160.171 126.033 171.051 128.98C181.931 131.7 192.697 134.873 203.35 138.5C214.23 141.9 223.411 147.453 230.891 155.16C238.597 162.867 242.451 172.613 242.451 184.4C242.451 200.04 236.897 212.62 225.791 222.14C214.684 231.433 197.91 236.08 175.47 236.08C153.03 236.08 134.784 232.68 120.731 225.88C106.904 219.08 99.3105 210.353 97.9505 199.7C97.0438 193.58 98.0638 187.913 101.011 182.7C103.957 177.487 108.604 174.767 114.951 174.54C121.297 174.313 126.511 176.013 130.59 179.64C134.897 183.267 136.937 187.46 136.71 192.22C136.484 196.98 134.67 201.287 131.27 205.14C127.87 208.767 126.171 211.713 126.171 213.98C126.171 218.513 131.384 222.253 141.811 225.2C152.464 227.92 163.797 229.28 175.811 229.28Z" fill="#F5F5F5"/>
<path d="M556.085 48.4H539.085V225.2H556.085V232H471.085V225.2H488.085V60.98L420.765 235.4H412.945L337.465 56.22V225.2H364.665V232H310.265V225.2H330.665V48.4H309.925V41.6H385.745L438.785 169.1L488.085 41.6H556.085V48.4Z" fill="#F5F5F5"/>
<path d="M625.846 211.6C630.832 222.933 639.446 228.6 651.686 228.6C663.926 228.6 672.652 222.82 677.866 211.26C683.079 199.7 685.686 180.66 685.686 154.14C685.686 127.393 683.079 108.24 677.866 96.68C672.652 84.8933 663.926 79 651.686 79C639.446 79 630.832 84.8933 625.846 96.68C620.859 108.24 618.366 127.393 618.366 154.14C618.366 180.887 620.859 200.04 625.846 211.6ZM651.006 235.4C629.472 235.4 609.979 228.373 592.526 214.32C575.072 200.267 566.346 180.32 566.346 154.48C566.346 140.653 568.839 128.3 573.826 117.42C579.039 106.54 585.839 97.9266 594.226 91.58C602.839 85.2333 612.019 80.4733 621.766 77.3C631.512 73.9 641.486 72.2 651.686 72.2C661.886 72.2 671.859 73.9 681.606 77.3C691.579 80.4733 700.759 85.2333 709.146 91.58C717.759 97.9266 724.672 106.54 729.886 117.42C735.099 128.3 737.706 140.54 737.706 154.14C737.706 167.74 735.099 179.867 729.886 190.52C724.672 201.173 717.759 209.673 709.146 216.02C691.919 228.94 672.539 235.4 651.006 235.4Z" fill="#F5F5F5"/>
<path d="M836.46 232H751.46V225.2H768.46V82.4H751.46V75.6H819.46V116.06C821.5 104.953 825.126 95.8866 830.34 88.86C835.78 81.8333 841.673 77.1866 848.02 74.92C854.593 72.6533 860.826 71.52 866.72 71.52C872.84 71.52 878.62 72.6533 884.06 74.92C889.726 76.96 893.92 81.2666 896.64 87.84C899.36 94.1866 899.473 100.647 896.98 107.22C894.486 113.567 890.066 118.1 883.72 120.82C877.6 123.54 871.933 123.88 866.72 121.84C861.506 119.8 857.766 117.08 855.5 113.68C853.233 110.053 851.646 106.653 850.74 103.48C848.473 95.0933 845.413 90.9 841.56 90.9C837.253 90.9 832.493 98.38 827.28 113.34C822.066 128.073 819.46 143.713 819.46 160.26V225.2H836.46V232Z" fill="#F5F5F5"/>
<path d="M1055.9 164H953.215C955.482 203.893 971.009 223.84 999.795 223.84C1007.5 223.84 1016.23 222.027 1025.98 218.4C1035.95 214.773 1043.2 209.673 1047.74 203.1L1052.5 206.5C1047.51 214.887 1039.01 221.8 1027 227.24C1014.98 232.68 1002.97 235.4 990.955 235.4C979.169 235.4 968.515 234.267 958.995 232C949.475 229.507 940.182 225.427 931.115 219.76C922.049 214.093 914.909 205.593 909.695 194.26C904.709 182.927 902.215 169.213 902.215 153.12C902.215 125.693 909.809 105.407 924.995 92.26C940.182 78.8866 958.542 72.2 980.075 72.2C1001.84 72.2 1019.86 79.4533 1034.14 93.96C1048.64 108.467 1055.9 131.813 1055.9 164ZM952.875 157.2H1008.3C1008.3 136.347 1006.03 118.1 1001.5 102.46C997.189 86.82 990.162 79 980.415 79C970.669 79 963.642 86.5933 959.335 101.78C955.029 116.74 952.875 133.967 952.875 153.46V157.2Z" fill="#F5F5F5"/>
</svg>
