<svg width="627" height="196" viewBox="0 0 627 196" fill="none" xmlns="http://www.w3.org/2000/svg">
<path d="M153.6 126.4H160.4V191H0.599976V184.2H17.6V7.40009H0.599976V0.600098H89V7.40009H68.6V184.2H102.6C110.307 184.2 116.653 183.633 121.64 182.5C126.853 181.367 132.18 178.987 137.62 175.36C148.273 168.333 153.6 152.013 153.6 126.4Z" fill="#F5F5F5"/>
<path d="M317.321 123H214.641C216.907 162.893 232.434 182.84 261.221 182.84C268.927 182.84 277.654 181.027 287.401 177.4C297.374 173.773 304.627 168.673 309.161 162.1L313.921 165.5C308.934 173.887 300.434 180.8 288.421 186.24C276.407 191.68 264.394 194.4 252.381 194.4C240.594 194.4 229.941 193.267 220.421 191C210.901 188.507 201.607 184.427 192.541 178.76C183.474 173.093 176.334 164.593 171.121 153.26C166.134 141.927 163.641 128.213 163.641 112.12C163.641 84.6934 171.234 64.4068 186.421 51.2601C201.607 37.8868 219.967 31.2001 241.501 31.2001C263.261 31.2001 281.281 38.4534 295.561 52.9601C310.067 67.4668 317.321 90.8134 317.321 123ZM214.301 116.2H269.721C269.721 95.3468 267.454 77.1001 262.921 61.4601C258.614 45.8201 251.587 38.0001 241.841 38.0001C232.094 38.0001 225.067 45.5934 220.761 60.7801C216.454 75.7401 214.301 92.9668 214.301 112.46V116.2Z" fill="#F5F5F5"/>
<path d="M408.321 188.28C431.894 188.28 443.681 181.82 443.681 168.9C443.681 161.647 439.601 155.753 431.441 151.22C423.281 146.46 413.421 142.607 401.861 139.66C390.301 136.713 378.854 133.313 367.521 129.46C356.414 125.607 347.121 119.487 339.641 111.1C332.388 102.713 329.441 91.7201 330.801 78.1201C332.161 64.5201 339.074 53.3001 351.541 44.4601C364.234 35.6201 379.761 31.2001 398.121 31.2001C416.708 31.2001 431.668 34.1468 443.001 40.0401C454.334 45.9334 460.681 53.8668 462.041 63.8401C462.948 69.9601 461.928 75.6268 458.981 80.8401C456.261 86.0534 451.614 88.7734 445.041 89.0001C438.694 89.2268 433.368 87.5268 429.061 83.9001C424.981 80.2734 423.054 76.0801 423.281 71.3201C423.508 66.5601 425.321 62.3668 428.721 58.7401C432.121 54.8868 433.821 51.8268 433.821 49.5601C433.821 45.7068 430.081 42.8734 422.601 41.0601C415.348 39.0201 406.848 38.0001 397.101 38.0001C387.581 38.0001 379.761 40.1534 373.641 44.4601C367.521 48.7668 364.461 54.0934 364.461 60.4401C364.461 66.7868 368.201 72.2268 375.681 76.7601C383.388 81.2934 392.681 85.0334 403.561 87.9801C414.441 90.7001 425.208 93.8734 435.861 97.5001C446.741 100.9 455.921 106.453 463.401 114.16C471.108 121.867 474.961 131.613 474.961 143.4C474.961 159.04 469.408 171.62 458.301 181.14C447.194 190.433 430.421 195.08 407.981 195.08C385.541 195.08 367.294 191.68 353.241 184.88C339.414 178.08 331.821 169.353 330.461 158.7C329.554 152.58 330.574 146.913 333.521 141.7C336.468 136.487 341.114 133.767 347.461 133.54C353.808 133.313 359.021 135.013 363.101 138.64C367.408 142.267 369.448 146.46 369.221 151.22C368.994 155.98 367.181 160.287 363.781 164.14C360.381 167.767 358.681 170.713 358.681 172.98C358.681 177.513 363.894 181.253 374.321 184.2C384.974 186.92 396.308 188.28 408.321 188.28Z" fill="#F5F5F5"/>
<path d="M559.488 188.28C583.062 188.28 594.848 181.82 594.848 168.9C594.848 161.647 590.768 155.753 582.608 151.22C574.448 146.46 564.588 142.607 553.028 139.66C541.468 136.713 530.022 133.313 518.688 129.46C507.582 125.607 498.288 119.487 490.808 111.1C483.555 102.713 480.608 91.7201 481.968 78.1201C483.328 64.5201 490.242 53.3001 502.708 44.4601C515.402 35.6201 530.928 31.2001 549.288 31.2001C567.875 31.2001 582.835 34.1468 594.168 40.0401C605.502 45.9334 611.848 53.8668 613.208 63.8401C614.115 69.9601 613.095 75.6268 610.148 80.8401C607.428 86.0534 602.782 88.7734 596.208 89.0001C589.862 89.2268 584.535 87.5268 580.228 83.9001C576.148 80.2734 574.222 76.0801 574.448 71.3201C574.675 66.5601 576.488 62.3668 579.888 58.7401C583.288 54.8868 584.988 51.8268 584.988 49.5601C584.988 45.7068 581.248 42.8734 573.768 41.0601C566.515 39.0201 558.015 38.0001 548.268 38.0001C538.748 38.0001 530.928 40.1534 524.808 44.4601C518.688 48.7668 515.628 54.0934 515.628 60.4401C515.628 66.7868 519.368 72.2268 526.848 76.7601C534.555 81.2934 543.848 85.0334 554.728 87.9801C565.608 90.7001 576.375 93.8734 587.028 97.5001C597.908 100.9 607.088 106.453 614.568 114.16C622.275 121.867 626.128 131.613 626.128 143.4C626.128 159.04 620.575 171.62 609.468 181.14C598.362 190.433 581.588 195.08 559.148 195.08C536.708 195.08 518.462 191.68 504.408 184.88C490.582 178.08 482.988 169.353 481.628 158.7C480.722 152.58 481.742 146.913 484.688 141.7C487.635 136.487 492.282 133.767 498.628 133.54C504.975 133.313 510.188 135.013 514.268 138.64C518.575 142.267 520.615 146.46 520.388 151.22C520.162 155.98 518.348 160.287 514.948 164.14C511.548 167.767 509.848 170.713 509.848 172.98C509.848 177.513 515.062 181.253 525.488 184.2C536.142 186.92 547.475 188.28 559.488 188.28Z" fill="#F5F5F5"/>
</svg>
