<svg width="165" height="128" viewBox="0 0 165 128" fill="none" xmlns="http://www.w3.org/2000/svg">
<path d="M2 2.83984H165V56.8398H2V2.83984Z" fill="#303030"/>
<path d="M0 0.839844H163V54.8398H0V0.839844Z" fill="white"/>
<path fill-rule="evenodd" clip-rule="evenodd" d="M162 1.83984H1V53.8398H162V1.83984ZM0 0.839844V54.8398H163V0.839844H0Z" fill="#303030"/>
<path d="M57.7366 29.3164H56.1414L56.136 28.3174H57.5486C57.767 28.3174 57.9532 28.2744 58.1072 28.1885C58.2611 28.1025 58.3775 27.9772 58.4563 27.8125C58.5387 27.6478 58.5798 27.4491 58.5798 27.2163C58.5798 26.9585 58.5422 26.749 58.467 26.5879C58.3954 26.4232 58.2844 26.3032 58.134 26.228C57.9836 26.1528 57.7903 26.1152 57.554 26.1152H56.5281V32.8398H55.2229V25.0195H57.554C57.9192 25.0195 58.245 25.0607 58.5315 25.1431C58.8215 25.2254 59.0668 25.3543 59.2673 25.5298C59.4679 25.7017 59.62 25.9219 59.7239 26.1904C59.8313 26.4554 59.885 26.7705 59.885 27.1357C59.885 27.4544 59.817 27.748 59.6809 28.0166C59.5448 28.2816 59.3425 28.5 59.074 28.6719C58.809 28.8402 58.4796 28.9404 58.0857 28.9727L57.7366 29.3164ZM57.6882 32.8398H55.7117L56.3132 31.7495H57.6882C57.921 31.7495 58.1125 31.6994 58.2629 31.5991C58.4133 31.4989 58.5261 31.3592 58.6013 31.1802C58.6765 31.0011 58.7141 30.7917 58.7141 30.5518C58.7141 30.3011 58.6819 30.0827 58.6174 29.8965C58.553 29.7103 58.4491 29.5671 58.3059 29.4668C58.1627 29.3665 57.9729 29.3164 57.7366 29.3164H56.4207L56.4314 28.3174H58.1125L58.4133 28.6987C58.7893 28.7059 59.0955 28.799 59.3318 28.978C59.5681 29.1535 59.7418 29.3809 59.8528 29.6602C59.9638 29.9395 60.0193 30.2384 60.0193 30.5571C60.0193 31.0549 59.9262 31.4738 59.74 31.814C59.5574 32.1506 59.2924 32.4066 58.9451 32.582C58.5977 32.7539 58.1788 32.8398 57.6882 32.8398Z" fill="black"/>
<path d="M68.4324 25.0195H69.7375V30.4497C69.7375 31.0477 69.6247 31.5293 69.3992 31.8945C69.1771 32.2598 68.8764 32.5265 68.4968 32.6948C68.1208 32.8631 67.7019 32.9473 67.24 32.9473C66.7602 32.9473 66.3323 32.8631 65.9563 32.6948C65.5803 32.5265 65.2849 32.2598 65.07 31.8945C64.8552 31.5293 64.7478 31.0477 64.7478 30.4497V25.0195H66.0476V30.4497C66.0476 30.8221 66.0941 31.1104 66.1872 31.3145C66.2839 31.5186 66.42 31.66 66.5954 31.7388C66.7745 31.8175 66.9893 31.8569 67.24 31.8569C67.4906 31.8569 67.7037 31.8175 67.8791 31.7388C68.0582 31.66 68.1942 31.5186 68.2873 31.3145C68.384 31.1104 68.4324 30.8221 68.4324 30.4497V25.0195Z" fill="black"/>
<path d="M77.447 25.0195V32.8398H76.1472V25.0195H77.447ZM79.4397 25.0195V26.1152H74.176V25.0195H79.4397Z" fill="black"/>
<path d="M86.9182 25.0195V32.8398H85.6183V25.0195H86.9182ZM88.9108 25.0195V26.1152H83.6472V25.0195H88.9108Z" fill="black"/>
<path d="M98.6183 28.2905V29.6226C98.6183 30.174 98.5539 30.6574 98.425 31.0728C98.2996 31.4881 98.117 31.8354 97.8771 32.1147C97.6408 32.3905 97.3543 32.5981 97.0177 32.7378C96.6847 32.8774 96.3123 32.9473 95.9006 32.9473C95.4924 32.9473 95.12 32.8774 94.7834 32.7378C94.4504 32.5981 94.1621 32.3905 93.9186 32.1147C93.6787 31.8354 93.4925 31.4881 93.36 31.0728C93.2311 30.6574 93.1667 30.174 93.1667 29.6226V28.2905C93.1667 27.7319 93.2311 27.2432 93.36 26.8242C93.4889 26.4017 93.6733 26.049 93.9133 25.7661C94.1567 25.4832 94.445 25.2702 94.778 25.127C95.1146 24.9837 95.4852 24.9121 95.8898 24.9121C96.3016 24.9121 96.674 24.9837 97.007 25.127C97.3436 25.2702 97.6318 25.4832 97.8717 25.7661C98.1117 26.049 98.2961 26.4017 98.425 26.8242C98.5539 27.2432 98.6183 27.7319 98.6183 28.2905ZM97.3239 29.6226V28.2798C97.3239 27.8823 97.2917 27.5422 97.2272 27.2593C97.1663 26.9728 97.075 26.7401 96.9533 26.561C96.8315 26.3784 96.6812 26.2441 96.5021 26.1582C96.3267 26.0687 96.1226 26.0239 95.8898 26.0239C95.6642 26.0239 95.4619 26.0687 95.2829 26.1582C95.1074 26.2441 94.957 26.3784 94.8317 26.561C94.71 26.7401 94.6169 26.9728 94.5524 27.2593C94.4915 27.5422 94.4611 27.8823 94.4611 28.2798V29.6226C94.4611 30.0129 94.4933 30.3494 94.5578 30.6323C94.6222 30.9116 94.7153 31.1408 94.8371 31.3198C94.9624 31.4953 95.1146 31.626 95.2936 31.7119C95.4727 31.7979 95.675 31.8408 95.9006 31.8408C96.1297 31.8408 96.3338 31.7979 96.5129 31.7119C96.6919 31.626 96.8405 31.4953 96.9587 31.3198C97.0804 31.1408 97.1717 30.9116 97.2326 30.6323C97.2935 30.3494 97.3239 30.0129 97.3239 29.6226Z" fill="black"/>
<path d="M108.761 25.0195V32.8398H107.483L104.722 27.4258V32.8398H103.46V25.0195H104.722L107.504 30.4712V25.0195H108.761Z" fill="black"/>
<path d="M74 80.8398H163V127.84H74V80.8398Z" fill="black"/>
<path fill-rule="evenodd" clip-rule="evenodd" d="M121 99.0664L131 104.84L121 110.613L121 105.84L107 105.84L107 103.84L121 103.84L121 99.0664Z" fill="white"/>
</svg>
