<svg width="54" height="61" viewBox="0 0 54 61" fill="none" xmlns="http://www.w3.org/2000/svg">
<path fill-rule="evenodd" clip-rule="evenodd" d="M37.4939 15.3123C36.1385 13.9814 33.8517 11.051 35.681 7.57019C37.5103 4.08941 42.0237 3.77248 44.5486 5.47675C47.0736 7.18102 48.647 10.8088 46.3961 14.1437C44.1452 17.4786 41.0909 17.7401 37.4939 15.3123ZM38.4469 13.5225C38.0416 13.3182 37.2506 12.5209 37.3297 10.9654C37.4285 9.02107 38.1311 7.41498 40.4709 6.67113C42.8106 5.92728 45.4124 8.13416 45.6876 10.1922C45.9628 12.2503 44.7551 14.3477 42.3755 15.0993C40.4946 15.6934 38.7753 14.1833 38.4469 13.5225Z" fill="#5D5E60"/>
<path d="M28.047 16.2651C32.2936 16.2921 36.6958 18.6055 37.8475 19.3136C46.7739 26.5851 46.6635 32.6047 45.7038 39.5745C44.7441 46.5444 36.8698 53.2792 28.5828 53.4336C20.2958 53.588 12.4714 47.4065 10.2886 41.0857C8.10579 34.7648 9.34162 26.7695 14.0422 22.1169C18.7428 17.4642 23.8005 16.2381 28.047 16.2651Z" fill="#777777"/>
<path fill-rule="evenodd" clip-rule="evenodd" d="M37.179 13.3904C35.8236 12.0595 33.5368 9.12905 35.3661 5.64827C37.1954 2.16749 41.7087 1.85056 44.2337 3.55483C46.7587 5.2591 48.3321 8.88688 46.0812 12.2218C43.8303 15.5567 40.7759 15.8182 37.179 13.3904ZM37.7799 11.4728C37.3745 11.2685 36.5836 10.4712 36.6626 8.91572C36.7614 6.97139 37.4641 5.3653 39.8038 4.62145C42.1435 3.8776 44.7454 6.08448 45.0205 8.14254C45.2957 10.2006 44.0881 12.298 41.7085 13.0496C39.8275 13.6437 38.1082 12.1336 37.7799 11.4728Z" fill="#E6B537"/>
<path d="M35.3661 5.64827L35.1448 5.53197L35.1448 5.53197L35.3661 5.64827ZM37.179 13.3904L37.0039 13.5688L37.0202 13.5848L37.0391 13.5976L37.179 13.3904ZM36.6626 8.91572L36.413 8.90304L36.413 8.90304L36.6626 8.91572ZM37.7799 11.4728L38.0038 11.3615L37.9667 11.287L37.8924 11.2495L37.7799 11.4728ZM39.8038 4.62145L39.7281 4.3832L39.7281 4.3832L39.8038 4.62145ZM45.0205 8.14254L45.2683 8.10941L45.2683 8.10941L45.0205 8.14254ZM41.7085 13.0496L41.7838 13.288L41.7838 13.288L41.7085 13.0496ZM35.1448 5.53197C34.1916 7.34575 34.3108 9.02485 34.8449 10.4152C35.3756 11.7966 36.314 12.8914 37.0039 13.5688L37.3542 13.212C36.6886 12.5585 35.8059 11.5226 35.3117 10.2359C34.8208 8.95806 34.7113 7.43157 35.5874 5.76457L35.1448 5.53197ZM44.3736 3.34762C43.052 2.45564 41.2252 2.0994 39.4947 2.41112C37.7585 2.72387 36.1007 3.71306 35.1448 5.53197L35.5874 5.76457C36.4608 4.1027 37.9743 3.19304 39.5833 2.9032C41.1981 2.61233 42.8904 2.94976 44.0938 3.76205L44.3736 3.34762ZM46.2884 12.3616C48.6367 8.88243 46.9806 5.1073 44.3736 3.34762L44.0938 3.76205C46.5367 5.41091 48.0275 8.89133 45.874 12.0819L46.2884 12.3616ZM37.0391 13.5976C38.864 14.8293 40.5873 15.404 42.1645 15.2153C43.7506 15.0256 45.1347 14.071 46.2884 12.3616L45.874 12.0819C44.7768 13.7075 43.5083 14.551 42.1052 14.7188C40.6933 14.8877 39.091 14.3793 37.3189 13.1832L37.0391 13.5976ZM36.413 8.90304C36.3291 10.5536 37.1703 11.4456 37.6674 11.6961L37.8924 11.2495C37.5788 11.0915 36.8381 10.3888 36.9123 8.92841L36.413 8.90304ZM39.7281 4.3832C38.5124 4.76967 37.7003 5.38852 37.1834 6.18195C36.6698 6.97032 36.4636 7.9069 36.413 8.90304L36.9123 8.92841C36.9605 7.98021 37.155 7.14158 37.6023 6.45487C38.0464 5.7732 38.7554 5.21708 39.8796 4.8597L39.7281 4.3832ZM45.2683 8.10941C45.1196 6.9971 44.352 5.8753 43.3341 5.12961C42.3138 4.38211 40.9961 3.98005 39.7281 4.3832L39.8796 4.8597C40.9512 4.519 42.1043 4.84846 43.0386 5.53295C43.9754 6.21925 44.6463 7.22992 44.7727 8.17567L45.2683 8.10941ZM41.7838 13.288C44.2763 12.5007 45.56 10.2909 45.2683 8.10941L44.7727 8.17567C45.0314 10.1103 43.8999 12.0953 41.6332 12.8112L41.7838 13.288ZM37.556 11.584C37.7494 11.9732 38.3057 12.5487 39.042 12.9511C39.7873 13.3585 40.759 13.6116 41.7838 13.288L41.6332 12.8112C40.7769 13.0816 39.9485 12.8768 39.2818 12.5124C38.6062 12.1431 38.1387 11.6332 38.0038 11.3615L37.556 11.584Z" fill="black"/>
<path fill-rule="evenodd" clip-rule="evenodd" d="M37.0677 13.3053C37.0783 13.3158 37.0889 13.3263 37.0994 13.3366C40.6964 15.7644 43.7507 15.5029 46.0016 12.168C48.2525 8.83308 46.6791 5.20531 44.1541 3.50104C44.0866 3.45545 44.0176 3.4113 43.9473 3.36862C46.3363 5.13272 47.7485 8.64107 45.5663 11.8742C43.4 15.0836 40.4897 15.4465 37.0677 13.3053Z" fill="#8A6D21"/>
<path d="M36.0537 13.8246C35.9519 13.57 36.069 13.1601 36.1402 12.9869L36.3403 12.6905L38.5196 14.3273C38.5563 14.3743 38.5757 14.5179 38.3592 14.7169C38.1428 14.916 37.7365 15.0821 37.5604 15.1403C37.8068 15.5456 37.6929 15.7718 37.6051 15.8342C38.0833 16.1902 38.055 16.5362 37.9165 16.7414C37.7779 16.9466 37.5681 17.0041 37.2861 16.8137L34.8183 15.1481C34.2731 14.7801 34.0995 14.5744 34.0808 14.5176C34.2622 13.8434 34.9969 14.1402 35.3416 14.3729C35.4188 14.2922 35.6091 14.1286 35.7524 14.1191C35.9314 14.1072 36.181 14.1429 36.0537 13.8246Z" fill="#8A6D21" stroke="black" stroke-width="0.5"/>
<path d="M26.0469 12.1606C30.2934 12.1876 34.6956 14.501 35.8473 15.2091C44.7737 22.4806 44.6634 28.5002 43.7037 35.47C42.744 42.4399 34.8697 49.1747 26.5827 49.3291C18.2957 49.4835 10.4712 43.302 8.28845 36.9812C6.10567 30.6603 7.3415 22.665 12.0421 18.0124C16.7427 13.3597 21.8004 12.1336 26.0469 12.1606Z" fill="#E6B537" stroke="black" stroke-width="0.5"/>
<path fill-rule="evenodd" clip-rule="evenodd" d="M15.1485 45.5877C18.3967 47.8666 22.3874 49.3441 26.4915 49.2676C34.7785 49.1132 42.6528 42.3784 43.6125 35.4086C44.5722 28.4388 44.6825 22.4191 35.7561 15.1476C35.6485 15.0814 35.5124 15.0012 35.3507 14.9101C44.0274 22.0908 43.9103 28.0631 42.9595 34.9678C41.9998 41.9377 34.1255 48.6725 25.8385 48.8269C22.0054 48.8983 18.2712 47.6142 15.1485 45.5877Z" fill="#8A6D21"/>
<path d="M19.9541 16.1333C26.8003 13.8333 32.307 16.3044 34.3647 17.6933C39.9136 22.269 40.8655 24.7802 41.1648 32.1799C41.4641 39.5796 34.5581 46.1993 26.1992 46.5093C17.221 45.3632 11.6092 40.468 10.2869 33.1392C8.96459 25.8103 13.1079 18.4332 19.9541 16.1333Z" fill="white" stroke="black" stroke-width="0.5"/>
<path fill-rule="evenodd" clip-rule="evenodd" d="M33.4942 17.1056C31.4364 15.7167 25.9298 13.2457 19.0836 15.5456C12.2374 17.8456 8.094 25.2226 9.41628 32.5515C10.2177 36.9932 12.5946 40.541 16.3417 42.9021C13.0959 40.5569 11.0243 37.2265 10.2868 33.1391C8.96453 25.8102 13.1079 18.4332 19.9541 16.1332C26.1763 14.0429 31.2921 15.8935 33.7177 17.2909C33.644 17.2295 33.5695 17.1678 33.4942 17.1056Z" fill="#8A6D21"/>
<path fill-rule="evenodd" clip-rule="evenodd" d="M32.5158 24.6233L37.2714 20.9418L32.6207 24.795C32.6793 24.9276 32.7523 25.2198 32.5758 25.3277C32.3992 25.4356 32.2334 25.4471 32.1726 25.4394L32.114 25.5089C32.2053 25.8236 32.2585 26.5388 31.7408 26.8822C31.0937 27.3114 30.5665 26.7243 30.4452 26.3605C30.3481 26.0696 30.5337 25.9359 30.6386 25.9055C30.5773 26.044 30.4866 26.3622 30.6141 26.5267C30.7735 26.7324 31.1493 26.9406 31.6209 26.686C32.0925 26.4315 32.0963 25.7555 31.7924 25.3686C31.4886 24.9817 30.8183 24.9873 30.3238 25.3906C29.8293 25.7939 29.6196 26.6631 29.7273 27.1699C29.8095 27.3778 30.0085 27.8063 30.147 27.8564C30.32 27.9191 30.4794 28.1248 30.2968 28.1017C30.2697 28.0982 30.2425 28.0934 30.2155 28.0886C30.0606 28.061 29.9127 28.0346 29.835 28.2829C29.8218 28.3253 29.8087 28.3761 29.7939 28.4333C29.7074 28.7692 29.5645 29.324 28.9987 29.6698C28.469 29.9936 27.7826 29.8294 27.5055 29.7068L26.4484 30.6224L26.0356 30.1674L26.9333 29.0461C26.7693 28.686 26.6048 27.8255 27.2587 27.2641C28.0761 26.5624 29.2069 27.4206 28.9277 28.2312C28.6485 29.0418 28.015 28.7217 27.94 28.5991C27.9152 28.5586 27.9297 28.5641 27.9729 28.5806C28.0602 28.614 28.2652 28.6924 28.5013 28.5255C28.8541 28.2762 28.872 27.8095 28.5366 27.4261C28.2012 27.0427 27.3663 27.1646 27.1443 27.7382C26.9223 28.3118 26.9169 28.854 27.3393 29.2695C27.7617 29.685 28.6145 29.7026 28.9278 29.4437C29.2411 29.1848 29.4754 28.9069 29.6279 28.2747C29.7805 27.6426 29.3417 27.035 29.1878 26.8934C29.0338 26.7517 29.0924 26.6822 29.2409 26.7598C29.2701 26.7751 29.2996 26.7953 29.3287 26.8151C29.4476 26.8962 29.5579 26.9715 29.5951 26.6781C29.6414 26.3129 29.7449 25.7108 30.1358 25.3034C30.5268 24.896 31.2747 24.742 31.8006 25.1615L31.8892 25.1411C31.8587 25.0362 31.7968 24.8136 31.9886 24.6425C32.1804 24.4713 32.4363 24.5484 32.5158 24.6233ZM32.4137 24.7868C32.3142 24.6792 31.926 24.8155 32.1058 25.1097C32.2857 25.404 32.6916 25.0211 32.4137 24.7868Z" fill="black"/>
<path fill-rule="evenodd" clip-rule="evenodd" d="M24.8303 31.9162L23.3854 32.4017C23.3733 32.478 23.3841 32.6419 23.5242 32.6872C23.6993 32.7438 23.9688 32.8876 24.0132 33.086C24.0575 33.2843 23.5789 34.0493 23.4147 34.2651C23.2506 34.4809 23.0523 34.5252 22.8975 34.5223C22.7428 34.5194 22.009 34.367 21.8071 34.3205C21.6051 34.2741 21.4765 34.0155 21.5397 33.7764C21.3651 33.8835 20.9601 34.1126 20.737 34.1725C20.458 34.2473 19.8798 34.3433 20.0839 33.9895C19.9405 34.0438 19.6194 34.11 19.4816 33.9409L16.4147 35.2555L19.4104 33.7528C19.3506 33.6218 19.3384 33.3191 19.7685 33.1563C19.6517 33.1185 19.4532 33.0052 19.5926 32.8541C19.7669 32.6652 20.1025 32.4153 20.8421 32.2582C20.7072 32.1454 20.4735 31.8692 20.6182 31.6669C20.7991 31.4141 21.4324 30.6519 21.5465 30.5473C21.6605 30.4427 21.9061 30.4419 22.0543 30.5087C22.2025 30.5756 22.9907 30.9532 23.1491 31.0469C23.3075 31.1406 23.4231 31.5271 23.2727 31.8605L24.4517 31.322L24.8303 31.9162ZM20.9171 32.0507C21.0857 32.1713 21.8935 32.3572 22.1086 32.2758C22.5126 32.1228 22.362 31.5653 22.1971 31.5355C22.1072 31.5193 22.0814 31.5518 22.0461 31.5963C22.0167 31.6334 21.9805 31.6789 21.8949 31.7113C21.7068 31.7826 21.6421 31.5305 21.7394 31.4629C21.8367 31.3953 22.1222 31.2565 22.3649 31.4105C22.6075 31.5645 22.5211 31.9045 22.471 32.0157C22.4209 32.1268 22.3643 32.3019 22.5357 32.2677C22.7072 32.2336 22.9556 32.0781 23.0725 31.8187C23.1894 31.5593 23.1516 31.2971 22.9831 31.1765C22.8145 31.0559 22.1745 30.7451 22.0364 30.7052C21.8984 30.6652 21.6899 30.6827 21.549 30.7975C21.4384 30.8876 21.1856 31.2018 21.0106 31.4193L21.0106 31.4193C20.9626 31.4789 20.9205 31.5313 20.8887 31.5698C20.7413 31.7485 20.7486 31.9302 20.9171 32.0507ZM21.7693 32.4349C21.5775 32.4153 20.8474 32.3537 20.4711 32.4961C20.0949 32.6386 19.8631 32.757 19.914 32.8914C19.9649 33.0258 21.003 32.9347 21.3938 32.8229C21.7265 32.7277 22.2722 32.4645 21.7693 32.4349ZM20.2084 33.1924C20.2779 33.2722 20.3783 33.3874 20.4103 33.4718C20.4509 33.5793 20.5316 33.5488 20.5919 33.4645C20.6522 33.3802 21.048 33.046 21.1555 33.0053C20.884 33.0185 20.3234 33.0475 20.2538 33.0585C20.1668 33.0722 20.1207 33.0897 20.1603 33.1362C20.1727 33.1513 20.1894 33.1705 20.2084 33.1924L20.2084 33.1924ZM19.5734 33.6964C19.6344 33.8576 19.8299 33.968 20.1422 33.8191C20.4546 33.6701 20.2584 33.3141 20.0564 33.2677C19.8881 33.229 19.5218 33.3164 19.5734 33.6964ZM20.4154 34.0537C20.4016 33.936 20.626 33.6359 20.8977 33.3794C21.1694 33.123 21.7941 32.825 21.9016 32.7843C22.3047 32.6317 21.638 33.468 21.4266 33.6402C21.2152 33.8124 20.4292 34.1713 20.4154 34.0537ZM22.1669 32.9539C22.0389 33.1476 21.7519 33.5819 21.7063 33.8108C21.6533 34.0767 21.8858 34.2038 22.1415 34.23C22.2438 34.2404 22.3817 34.2669 22.5195 34.2934C22.7263 34.3331 22.9331 34.3728 23.0198 34.3584C23.1644 34.3344 23.2683 34.2029 23.3452 34.0816C23.4222 33.9603 23.7767 33.273 23.6953 33.058C23.6139 32.8429 23.1489 32.5887 22.9404 32.6062C22.7319 32.6237 22.6077 32.7014 22.7392 32.8053C22.8707 32.9091 23.2216 33.268 22.9601 33.5513C22.6987 33.8347 22.3412 33.5398 22.408 33.3916C22.4748 33.2434 22.7305 33.2695 22.7981 33.3668C22.8657 33.4642 22.963 33.3966 22.9492 33.2789C22.9354 33.1612 22.3789 32.6651 22.2147 32.8809C22.204 32.8977 22.1875 32.9227 22.1669 32.9539Z" fill="black"/>
<path d="M25.819 30.9095C25.8869 30.8091 25.9068 30.6763 25.8269 30.6224C25.7151 30.547 25.4054 30.9715 25.5331 31.0577C25.6608 31.1439 25.7512 31.01 25.819 30.9095Z" fill="white"/>
<path fill-rule="evenodd" clip-rule="evenodd" d="M32.2472 18.591L32.9141 19.0412C32.9618 19.0733 32.9612 19.177 32.8498 19.1365C32.7607 19.1041 32.7226 19.0853 32.7146 19.0799L32.2675 20.6157L33.5406 19.6027C33.4666 19.5412 33.3042 19.4085 33.247 19.3699C33.1756 19.3217 33.2399 19.2264 33.359 19.3068L33.7639 19.5801C33.783 19.593 33.7663 19.6279 33.7556 19.6438C34.0202 19.834 34.5733 20.2304 34.6685 20.2947C34.7876 20.3751 34.8269 20.4709 34.8109 20.4948C34.798 20.5138 34.6729 20.4594 34.612 20.4299C34.4059 20.6837 33.952 21.2535 33.7848 21.5012C33.6176 21.7489 32.8795 22.774 32.5313 23.2556L32.6975 23.4718C32.7529 23.5438 32.7201 23.6951 32.5379 23.5027C32.508 23.4712 32.4752 23.4358 32.44 23.3979C32.2605 23.2044 32.0197 22.9449 31.8006 22.7971C31.6342 22.6847 31.4958 22.5773 31.3949 22.499C31.337 22.4541 31.2914 22.4187 31.2599 22.3974C31.1736 22.3391 31.2355 22.3116 31.3081 22.326C31.3663 22.3375 31.4284 22.3725 31.4523 22.3886L31.7941 21.163C31.53 21.3315 30.957 21.7353 30.777 22.0021L31.0152 22.1629C31.0628 22.195 31.0384 22.2826 30.7841 22.1456C30.638 22.0669 30.5259 22.0226 30.4434 21.99C30.3823 21.9659 30.3375 21.9482 30.3071 21.9277C30.2356 21.8794 30.3315 21.8401 30.4351 21.8407C30.518 21.8412 30.6289 21.879 30.6739 21.8979C30.9463 21.6656 31.5357 21.1759 31.7148 21.0749C31.9388 20.9486 32.1924 19.8023 32.2335 19.5873C32.2664 19.4153 32.3139 19.0059 32.3335 18.8226C32.212 18.6944 32.0247 18.4686 32.2472 18.591ZM33.6378 19.7156C33.2028 20.0346 32.3041 20.7154 32.1883 20.887C32.0726 21.0585 31.8412 22.1205 31.74 22.63C31.7505 22.6487 31.7844 22.6669 31.8358 22.5907C31.868 22.5431 32.328 21.9001 32.788 21.257C33.248 20.614 33.708 19.971 33.7402 19.9234C33.8045 19.8281 33.7015 19.7239 33.6378 19.7156ZM34.1457 20.0931C34.241 20.1574 34.2488 20.1973 34.1844 20.2926C34.133 20.3688 32.8772 22.1609 32.2557 23.0474C32.1973 23.0312 32.0904 22.9636 32.1294 22.8235C32.1654 22.6944 32.3016 22.5007 32.4609 22.2741C32.5176 22.1936 32.5771 22.1089 32.6362 22.0214C32.7771 21.8127 33.2169 21.1811 33.5461 20.7085L33.5461 20.7084L33.5462 20.7083L33.5463 20.7082C33.743 20.4258 33.9001 20.2002 33.9302 20.1556C34.0106 20.0365 34.1001 20.0579 34.1457 20.0931Z" fill="black"/>
<path d="M34.5507 25.9771C34.5319 25.8791 34.6668 26.0672 34.7366 26.1735C34.8127 26.1657 35.0269 26.121 35.2754 26.0046C35.5238 25.8882 37.1449 25.0176 37.9243 24.5968C37.7579 24.1093 37.9031 24.1564 37.9431 24.2544C37.9831 24.3524 38.3204 25.0062 38.4005 25.2023C38.4805 25.3983 38.3825 25.4387 38.3503 25.3815C38.3246 25.3357 38.2381 25.1282 38.1981 25.0302L34.9775 26.6557C34.9955 26.7862 35.0204 27.0326 34.9752 26.9737C34.9187 26.9001 34.5743 26.0995 34.5507 25.9771Z" fill="black"/>
<path fill-rule="evenodd" clip-rule="evenodd" d="M39.5182 31.4038C39.5224 31.8049 39.5282 32.3581 39.5007 32.5018C39.4596 32.7167 39.4191 32.8281 39.3644 32.6524C39.3465 32.5951 39.3404 32.5531 39.3359 32.522C39.3266 32.4577 39.324 32.4398 39.2381 32.4285C39.1107 32.4119 37.9875 32.2779 37.5492 32.2594C37.111 32.241 36.0111 32.2267 35.9313 32.2422C35.8819 32.2518 35.8843 32.283 35.8875 32.3261C35.8894 32.3527 35.8918 32.3839 35.8824 32.4173C35.858 32.5048 35.7294 32.6954 35.7633 32.3369C35.7815 32.1453 35.7845 31.8147 35.7871 31.5192C35.7895 31.2619 35.7916 31.0312 35.8032 30.9422C35.8282 30.7511 35.8604 30.7034 35.9074 30.8392C35.945 30.9478 35.9751 31.0814 35.9854 31.1346C36.36 31.1447 37.2048 31.1671 37.5873 31.1756C37.9699 31.1842 38.9104 31.2018 39.3328 31.2095C39.3657 31.0237 39.4487 30.7192 39.5174 30.9874C39.5144 31.0429 39.5161 31.2046 39.5182 31.4038ZM39.3143 31.6479C39.3613 31.7837 39.3685 31.9272 39.1374 31.91C38.9064 31.8927 37.5278 31.829 37.1371 31.8427C36.8516 31.8528 36.5025 31.8198 36.2699 31.7979C36.1843 31.7898 36.1144 31.7832 36.0694 31.7808C35.9021 31.7719 36.0075 31.4616 36.1111 31.4622C36.6847 31.5027 37.899 31.5872 38.1668 31.6015C38.3628 31.612 38.5781 31.6116 38.7564 31.6113C38.8825 31.6111 38.9901 31.6109 39.0594 31.6146C39.1039 31.617 39.1419 31.618 39.174 31.6188C39.2628 31.6211 39.3062 31.6223 39.3143 31.6479Z" fill="black"/>
<path fill-rule="evenodd" clip-rule="evenodd" d="M34.6118 35.7898C34.8286 35.52 34.7392 35.8064 34.6428 35.9494C34.5954 36.0342 34.7795 36.1523 34.9242 36.2451L34.9242 36.2451C34.9512 36.2624 34.9769 36.2789 34.9995 36.2941C35.1424 36.3906 37.3577 37.8859 37.4691 37.9264C37.491 37.9343 37.5059 37.9429 37.5172 37.9494C37.5283 37.9558 37.536 37.9603 37.5437 37.9604C37.5615 37.9605 37.5794 37.9376 37.6384 37.8622C37.6607 37.8336 37.6889 37.7976 37.7252 37.7525C37.9419 37.4827 37.9407 37.6899 37.8121 37.8805C37.7607 37.9567 37.5884 38.1955 37.3817 38.482L37.3817 38.482L37.3817 38.482C37.0716 38.9118 36.684 39.4491 36.5104 39.7063C36.221 40.1351 36.3829 39.6897 36.4955 39.5229C36.608 39.3562 36.5604 39.324 36.4175 39.2276C36.3621 39.1902 36.2365 39.095 36.0826 38.9784L36.0825 38.9783L36.0825 38.9783C35.8392 38.7939 35.5251 38.5559 35.3062 38.4082C35.0204 38.2152 34.1493 37.6736 33.7496 37.4268C33.7388 37.4427 33.6726 37.4997 33.4935 37.6007C33.308 37.7053 33.447 37.5054 33.6098 37.2712C33.6436 37.2227 33.6783 37.1728 33.7114 37.1237C33.7669 37.0416 33.8469 36.9187 33.938 36.7789C34.1638 36.4324 34.4573 35.982 34.6118 35.7898ZM35.4692 36.9067L35.4692 36.9066L35.4692 36.9066C35.1702 36.6959 34.8622 36.4788 34.7518 36.4044C34.7044 36.3719 34.5851 36.2918 34.4892 36.3311C34.3933 36.3704 34.3368 36.5056 34.3921 36.5777C34.4475 36.6497 35.1145 37.0999 35.9482 37.6626C36.7819 38.2254 37.1553 38.4427 37.2196 38.3474C37.284 38.2521 37.2048 38.164 37.0779 38.0437C36.9511 37.9234 36.3079 37.4893 36.1173 37.3607C36.0249 37.2983 35.7511 37.1053 35.4692 36.9067ZM34.8815 37.3009C35.2888 37.5859 35.8145 37.9538 36.0334 38.1015L36.8194 38.6321C36.8909 38.6803 37.01 38.7607 36.9457 38.856C36.9344 38.8727 36.9243 38.8892 36.9148 38.9048C36.8701 38.9781 36.8374 39.0317 36.7456 38.9983C36.6858 38.9766 36.4728 38.8414 36.2416 38.6947C36.0421 38.5681 35.829 38.4329 35.6892 38.3546C35.4793 38.237 34.9588 37.8596 34.597 37.5972C34.4384 37.4821 34.3103 37.3892 34.2522 37.35C34.0616 37.2214 33.9348 37.1011 34.0312 36.9582C34.1277 36.8153 34.24 36.8544 34.3582 36.9361C34.4136 36.9735 34.6238 37.1207 34.8815 37.3009Z" fill="black"/>
<path fill-rule="evenodd" clip-rule="evenodd" d="M29.5895 40.2876C29.9959 40.1359 30.5551 39.9272 30.7709 39.7851C31.0829 39.5796 31.5146 39.351 31.5462 39.4069C31.5715 39.4517 31.4761 39.5792 31.4253 39.6374C31.5589 39.9703 31.872 40.7017 32.0554 40.9642C32.1836 41.1476 32.4273 41.5932 32.6312 41.9659C32.792 42.26 32.9281 42.5087 32.963 42.5476C33.0371 42.6301 33.0909 42.6077 33.1761 42.5723L33.194 42.5648C33.2899 42.5255 33.5371 42.519 33.3531 42.6375C33.169 42.756 32.5051 43.1747 31.9298 43.4105C31.641 43.5289 31.338 43.6813 31.0947 43.8038C30.8533 43.9252 30.6707 44.0171 30.6191 44.0168C30.5155 44.0162 30.5238 43.9524 30.6679 43.8417C30.6606 43.7327 30.6112 43.4428 30.4726 43.1551C30.2993 42.7954 29.4251 40.9571 29.3542 40.8052C29.2833 40.6534 29.2119 40.6051 29.1559 40.6367C29.0999 40.6683 28.6455 40.6736 29.1809 40.4456C29.2573 40.4116 29.4082 40.3552 29.5895 40.2876L29.5895 40.2876L29.5895 40.2876ZM30.5048 41.6253C30.6579 41.9362 30.7972 42.219 30.8519 42.3363C30.911 42.463 30.9909 42.6219 31.0672 42.7738L31.0672 42.7738C31.1737 42.9858 31.2735 43.1843 31.3009 43.2634C31.348 43.3992 31.3313 43.5267 31.2515 43.5421C31.1717 43.5576 31.108 43.5493 30.9579 43.3093C30.8584 43.1501 30.3362 42.0802 29.9774 41.3451L29.9774 41.3451L29.9773 41.345C29.7953 40.9719 29.6553 40.6851 29.634 40.6474C29.5749 40.5426 29.6202 40.5083 29.6854 40.4589L29.6989 40.4485C29.771 40.3931 29.8907 40.3699 29.9538 40.4819C29.9827 40.5652 30.2612 41.1308 30.5048 41.6253ZM30.5929 40.2543C30.5458 40.1185 30.4422 40.1179 30.3624 40.1334C30.2726 40.1638 30.2743 40.2126 30.3136 40.3085L30.334 40.359C30.3941 40.5086 30.5385 40.8677 30.6834 41.1475C30.7317 41.2409 30.8203 41.4234 30.9256 41.6404C31.1811 42.1671 31.5353 42.8971 31.6529 43.0502C31.7643 43.195 31.801 43.2428 31.842 43.2467C31.8621 43.2487 31.8833 43.24 31.915 43.227C32.0108 43.1877 32.0114 43.0841 31.9483 42.9721C31.8852 42.8602 31.5856 42.2766 31.4439 41.9729C31.3837 41.844 31.2298 41.5394 31.069 41.221C30.8508 40.7894 30.6199 40.3324 30.5929 40.2543ZM30.9935 39.866C31.0894 39.8267 31.1448 39.8988 31.2395 40.0667C31.2611 40.1051 31.3072 40.1854 31.3676 40.2908C31.5715 40.6464 31.9397 41.2883 32.0917 41.5781C32.2888 41.9539 32.5407 42.5053 32.5878 42.6411C32.5894 42.6456 32.5909 42.6502 32.5925 42.6546C32.6372 42.7832 32.6688 42.8737 32.5145 42.9037C32.3977 42.9263 32.3626 42.8555 32.318 42.7657C32.3017 42.7328 32.2841 42.6974 32.2608 42.6631C32.2197 42.6026 32.0325 42.242 31.8307 41.8532C31.6055 41.4195 31.3621 40.9507 31.283 40.8242C31.1329 40.5842 30.9364 40.1048 30.8971 40.009C30.8656 39.9323 30.9483 39.8817 30.9935 39.866Z" fill="black"/>
<path d="M25.5596 42.7489C25.6285 43.0673 25.8818 44.1673 25.9998 44.6775C26.0778 44.6735 26.2743 44.6724 26.4362 44.7001C26.6386 44.7348 26.5978 44.8431 26.484 44.8683C26.3702 44.8935 25.6241 44.8997 25.3773 44.8351C25.1306 44.7705 25.4561 44.7184 25.5098 44.6866C25.5635 44.6549 25.5443 44.5399 25.5408 44.4017C25.5374 44.2634 25.0715 42.1815 25.0366 42.0899C25.0016 41.9984 24.8573 42.5467 24.7568 42.8868C24.6563 43.2268 24.3805 44.4002 24.3618 44.5235C24.3468 44.6222 24.4169 44.6967 24.4538 44.7217C24.6942 44.7479 24.6627 44.7946 24.609 44.8264C24.5553 44.8581 24.3435 44.8851 24.1854 44.8804C24.0273 44.8756 23.8249 44.841 23.8343 44.7793C23.8436 44.7176 24.0933 44.6823 24.1628 44.6272C24.2322 44.5721 24.1933 44.104 24.3505 43.6322C24.5076 43.1604 24.9597 41.6302 25.0637 41.4284C25.1676 41.2267 25.2119 41.2566 25.2533 41.3865C25.2947 41.5164 25.4734 42.3508 25.5596 42.7489Z" fill="black"/>
<path fill-rule="evenodd" clip-rule="evenodd" d="M19.0828 38.8653C18.9851 38.7532 18.8168 38.5402 18.925 38.5855C19.0601 38.642 19.4651 38.9154 19.5997 39.0755C19.7343 39.2357 19.8605 39.4596 19.4317 39.1702C19.2982 39.2997 18.9763 39.6395 18.7576 39.9635C18.6555 40.1148 18.4524 40.4014 18.2359 40.7068C17.8732 41.2186 17.4729 41.7833 17.4476 41.853C17.4071 41.9644 17.3821 42.1555 17.5983 41.9894C17.8144 41.8232 19.3293 40.3493 19.6021 40.048C19.8748 39.7467 20.2994 39.3745 20.1541 39.6925C20.0088 40.0105 19.5318 41.1795 19.3699 41.6249C19.2403 41.9813 18.9173 42.7064 18.772 43.0244C18.9679 43.145 19.2882 43.3589 19.0019 43.2489C18.644 43.1113 18.1354 42.8374 17.7704 42.5563C17.6768 42.4843 17.5567 42.3944 17.4288 42.2985C17.0572 42.0202 16.6191 41.6922 16.5722 41.6089C16.5091 41.4969 16.8193 41.6023 17.0414 41.7869C17.5343 41.091 18.5554 39.6467 18.6969 39.437L19.0828 38.8653ZM17.7971 42.0543C17.9496 41.8798 19.0078 40.8257 19.1679 40.6911C19.1804 40.6807 19.1925 40.6705 19.2041 40.6606C19.343 40.5428 19.4236 40.4745 19.3192 40.7239C19.3024 40.7642 19.2758 40.8279 19.2425 40.9079C19.0522 41.365 18.6408 42.353 18.5517 42.5289C18.524 42.5834 18.5036 42.6307 18.4868 42.6697C18.44 42.7785 18.4211 42.8222 18.351 42.7748C18.2557 42.7105 17.8269 42.4211 17.7477 42.333C17.6685 42.2449 17.6777 42.1817 17.7971 42.0543Z" fill="black"/>
<path fill-rule="evenodd" clip-rule="evenodd" d="M12.7407 36.407C12.629 36.1274 12.5244 35.8657 12.4768 35.7588C12.3667 35.511 12.3125 35.2317 12.4155 35.336C12.4979 35.4193 12.5499 35.5307 12.5656 35.5759C13.0023 35.4084 13.9252 35.0513 14.1234 34.9631C14.2011 34.9286 14.3431 34.8693 14.5085 34.8003C14.8705 34.6494 15.3441 34.4519 15.4978 34.3652C15.5345 34.3445 15.5659 34.3276 15.5926 34.3132C15.7287 34.2399 15.7444 34.2315 15.7384 34.1115C15.7312 33.968 15.7878 33.8328 15.9057 34.1204C15.9441 34.214 16.0124 34.3717 16.0879 34.5462C16.2447 34.9082 16.4326 35.342 16.4482 35.4228C16.4715 35.5425 16.3679 35.5419 16.3047 35.4299L16.21 35.262C15.9331 35.364 15.2914 35.6059 14.9398 35.7569C14.5004 35.9457 13.5577 36.3149 13.326 36.4013C13.0944 36.4876 12.9902 36.5907 13.0372 36.7264C13.0843 36.8622 13.1474 36.9742 13.3231 36.9194C13.3923 36.8978 13.6092 36.825 13.8598 36.7409C14.245 36.6117 14.7098 36.4558 14.8404 36.4179C14.9044 36.3994 15.0646 36.3512 15.2614 36.292C15.7282 36.1517 16.401 35.9495 16.4852 35.9331C16.6049 35.9099 16.7639 35.9826 16.6037 36.1171C16.4435 36.2517 14.931 37.3112 14.6749 37.4851C14.4188 37.659 13.9144 38.0466 13.8263 38.1259C13.7502 38.1942 13.7931 38.2395 13.8571 38.3073C13.8673 38.318 13.878 38.3294 13.8888 38.3414C13.968 38.4296 14.0151 38.5653 13.9353 38.5808C13.8589 38.5956 13.7759 38.4789 13.644 38.2932C13.6382 38.285 13.6323 38.2767 13.6262 38.2682C13.4839 38.0681 13.3344 37.7245 13.335 37.6209C13.3353 37.5708 13.376 37.6047 13.4289 37.6487C13.4854 37.6958 13.5558 37.7543 13.6054 37.734C13.7012 37.6947 14.7493 37.0152 14.9655 36.8491C15.1816 36.6829 15.446 36.4453 15.1108 36.5311C14.7755 36.6168 13.4422 36.9998 13.3463 37.0391C13.2504 37.0784 13.1861 37.1737 13.2254 37.2695C13.2647 37.3654 13.2641 37.469 13.1057 37.2928C13.0475 37.1746 12.8879 36.7752 12.7407 36.407ZM12.9145 35.8808L12.9145 35.8808L12.9146 35.8808C13.1069 35.802 15.4073 34.8589 15.6151 34.7565C15.8229 34.654 15.9902 34.6629 16.0135 34.7826C16.0367 34.9023 15.9884 34.9738 15.7568 35.0602C15.6659 35.094 15.2786 35.2587 14.8283 35.4502C14.1311 35.7467 13.2831 36.1072 13.1521 36.1452C13.1375 36.1495 13.1235 36.1536 13.11 36.1576C12.9236 36.2123 12.8348 36.2384 12.7537 36.119C12.6841 36.0166 12.8319 35.9176 12.9145 35.8808Z" fill="black"/>
<path fill-rule="evenodd" clip-rule="evenodd" d="M11.6828 28.2536C11.6656 28.4847 11.5531 30.0384 11.5751 30.3653C11.5698 30.743 11.6472 30.5497 11.6865 30.4058C11.936 30.4471 12.5417 30.5462 12.9686 30.6124C13.5022 30.6952 13.4379 30.7904 13.1985 30.8369C13.007 30.8741 12.1456 30.9584 11.7389 30.9959C11.653 30.6606 11.5561 30.9072 11.5626 31.1544C11.5692 31.4015 11.6794 31.6492 11.7193 31.6415C11.7512 31.6353 11.7496 31.4424 11.7449 31.3467C12.1305 31.2719 12.9673 31.1178 13.2289 31.1001C13.5558 31.0781 14.6164 30.9965 14.9594 30.9506C15.3024 30.9047 15.2232 30.8166 14.9921 30.7993C14.7611 30.7821 11.9658 30.3516 11.8068 30.279C11.6478 30.2063 11.7841 30.0556 11.9038 30.0324C11.969 30.0198 12.4948 30.0712 13.0309 30.1237L13.0309 30.1237C13.4793 30.1675 13.935 30.2121 14.1346 30.2205C14.4852 30.2353 14.9445 30.3049 15.1303 30.3378C15.2077 30.7368 15.3203 30.5701 15.297 30.4504C15.2738 30.3307 15.2684 29.8763 15.294 29.5815C15.3012 29.4984 15.3189 29.3671 15.3385 29.221L15.3385 29.221L15.3385 29.221C15.3885 28.8488 15.4515 28.3801 15.3887 28.3625C15.3186 28.343 15.2571 28.6089 15.235 28.7442C15.1181 28.7462 14.8301 28.7483 14.6133 28.7407C14.3966 28.7331 12.6801 28.5569 11.849 28.4698C11.8633 28.2945 11.8744 27.9391 11.8043 27.9196C11.7168 27.8951 11.7001 28.0226 11.6828 28.2536ZM14.6038 29.0117C14.3728 28.9944 12.5404 28.8325 12.2218 28.7908C11.6709 28.7337 11.7978 29.0594 11.9092 29.0999C12.0205 29.1404 12.6339 29.2076 13.0085 29.2177C13.2544 29.2244 13.9673 29.2921 14.4753 29.3404L14.4753 29.3404C14.7411 29.3656 14.9507 29.3855 15.0082 29.3886C15.1755 29.3975 15.1606 29.2141 15.1053 29.1421C15.0499 29.07 14.8349 29.0289 14.6038 29.0117ZM12.9888 29.5202C13.596 29.5763 14.28 29.6395 14.4568 29.6405C14.7676 29.6423 15.0785 29.644 15.0939 29.7238C15.0951 29.7296 15.0964 29.7359 15.0978 29.7425C15.1158 29.828 15.1476 29.9781 14.9332 29.962C14.8135 29.9531 14.5613 29.9477 14.2995 29.9421C14.0557 29.9368 13.8035 29.9314 13.6421 29.9228C13.3074 29.9049 12.0724 29.8341 11.961 29.7936C11.9364 29.7846 11.9113 29.7788 11.8871 29.7731C11.8018 29.7533 11.7266 29.7357 11.715 29.5929C11.7007 29.4158 11.8512 29.4257 11.9812 29.4342C11.9858 29.4345 11.9904 29.4348 11.9949 29.4351C12.1118 29.4392 12.5282 29.4777 12.9888 29.5202Z" fill="black"/>
<path fill-rule="evenodd" clip-rule="evenodd" d="M13.4766 23.8551C13.3963 23.9839 13.2974 24.1425 13.2608 24.1178C13.2131 24.0857 13.1899 23.966 13.3745 23.7438C13.5024 23.5899 13.5843 23.4549 13.6546 23.3389C13.6858 23.2875 13.7147 23.2399 13.7443 23.196C13.7744 23.1514 13.8076 23.0922 13.843 23.0291C13.9212 22.8898 14.0099 22.7318 14.098 22.6719C14.2004 22.6024 14.1721 22.7334 14.1451 22.8077C14.3571 22.9046 14.8161 23.108 14.9562 23.1471C14.9858 23.1554 15.0169 23.1657 15.0477 23.1758C15.1987 23.2258 15.3391 23.2722 15.2277 23.053C15.1205 22.842 14.7721 22.341 14.6113 22.1169C14.5498 22.1909 14.4109 22.3214 14.3475 22.2509C14.2683 22.1628 14.781 21.7113 14.8209 21.7036C14.8608 21.6959 14.8763 21.7757 14.7316 21.99C14.9683 22.4271 15.5099 23.3336 15.7833 23.4627C16.0568 23.5918 17.1121 23.8742 17.6056 23.9992C17.6671 23.9252 17.7997 23.7835 17.8378 23.8092C17.8855 23.8414 17.7807 24.048 17.5961 24.2702C17.4115 24.4923 17.2912 24.6191 17.2435 24.587C17.2054 24.5613 17.2443 24.4488 17.2685 24.3958C16.9744 24.2666 16.359 23.9969 16.2508 23.9516C16.1156 23.895 15.9959 23.9183 16.1305 24.0784C16.1871 24.1458 16.2952 24.3276 16.4057 24.5134C16.5578 24.7694 16.7145 25.0329 16.7469 25.0146C16.768 25.0027 16.8017 24.9648 16.838 24.924C16.8981 24.8564 16.9655 24.7807 16.9952 24.8008C17.0429 24.8329 17.0661 24.9526 16.8333 25.2462C16.7073 25.405 16.6117 25.564 16.5364 25.6891C16.4726 25.7952 16.4235 25.8768 16.3831 25.9132C16.2949 25.9924 16.208 25.8644 16.2884 25.7453C16.3527 25.65 16.3958 25.5519 16.4093 25.5148C16.1659 25.3274 15.5949 24.9028 15.2581 24.7032C14.8371 24.4536 13.7014 23.7218 13.6776 23.7057C13.6538 23.6896 13.5885 23.6802 13.5418 23.7528C13.5233 23.7803 13.5008 23.8164 13.4766 23.8551ZM14.6276 23.3913C14.9719 23.505 15.3597 23.6331 15.4475 23.6521C15.5987 23.6848 15.8131 23.8295 16.034 24.2213C16.1326 24.3961 16.2689 24.5963 16.3821 24.7625C16.5227 24.969 16.6275 25.1228 16.579 25.1092C16.4914 25.0848 15.7446 24.6501 15.3236 24.4006C14.991 24.2035 14.4108 23.796 14.1231 23.5939C14.0466 23.5402 13.9908 23.501 13.9658 23.4842C13.8467 23.4038 13.8402 23.1566 14.079 23.2138C14.1525 23.2343 14.3787 23.309 14.6276 23.3913Z" fill="black"/>
<path d="M18.7594 18.3776C18.8485 18.2971 19.3564 18.1126 19.4695 18.0483C19.7854 17.9099 19.6697 18.1131 19.5968 18.1694C19.524 18.2257 19.7776 18.5727 19.9681 18.8067C20.1586 19.0408 20.2707 19.0812 20.2793 19.0168C20.2863 18.9652 20.263 18.2322 20.2504 17.8722C20.2316 17.8829 20.1763 17.8995 20.1058 17.88C20.0176 17.8557 20.01 17.8154 20.1068 17.7752C20.2036 17.7351 20.4298 17.6065 20.5984 17.6148C20.767 17.6232 20.5571 17.7276 20.4603 17.7677C20.3635 17.8079 20.4077 19.0331 20.4306 19.154C20.4535 19.275 20.4917 19.4765 20.6746 19.6703C20.8208 19.8253 21.4815 20.6603 21.7936 21.0584C21.8418 21.0558 21.9445 21.0619 21.9698 21.107C22.0014 21.1635 21.6142 21.3241 21.276 21.4122C20.9377 21.5003 21.1486 21.2911 21.2617 21.2268C21.3748 21.1625 21.3117 21.0496 21.193 20.864C21.0743 20.6784 20.7728 20.2991 20.6063 20.0812C20.4397 19.8633 20.455 19.944 20.4443 20.218C20.4357 20.4372 20.5115 21.2713 20.5506 21.6609C20.5828 21.6475 20.67 21.6079 20.7604 21.5565C20.8735 21.4922 20.8236 21.6694 20.7507 21.7257C20.6779 21.782 20.5648 21.8463 20.2984 21.9829C20.0319 22.1195 20.0743 21.902 20.1471 21.8457C20.2054 21.8006 20.3113 21.7573 20.357 21.7412C20.3143 21.185 20.2325 20.0258 20.2472 19.8389C20.2655 19.6051 20.0424 19.4194 19.8041 19.153C19.6134 18.9399 19.2798 18.5531 19.1368 18.3863C19.0991 18.4077 18.9931 18.465 18.8704 18.5229C18.7171 18.5952 18.6702 18.4581 18.7594 18.3776Z" fill="black"/>
<path d="M25.5011 16.9073C25.3258 16.9593 25.4462 17.0406 25.55 17.0425C25.6132 17.0527 25.6222 17.0913 25.6388 17.1706L25.8956 18.3999C25.9453 18.6378 25.9717 18.9622 25.8927 19.0793C25.8137 19.1963 25.4745 19.7508 25.3564 19.9777C25.2383 20.2046 25.2 20.4171 25.136 20.408C25.072 20.3989 24.8004 20.3859 24.8569 20.4581C24.9133 20.5303 25.1932 20.5829 25.3369 20.5777C25.4806 20.5725 25.4001 20.4841 25.3519 20.4516C25.3038 20.4191 25.3903 20.239 25.54 19.9653C25.6597 19.7464 25.8997 19.3111 26.0048 19.1209C26.0633 19.4669 26.1934 20.202 26.2458 20.3736C26.3113 20.5881 26.1676 20.5933 26.0239 20.5985C25.8802 20.6037 25.9366 20.6759 26.0886 20.7103C26.2406 20.7448 26.3685 20.763 26.4964 20.7812C26.6243 20.7994 26.6717 20.7292 26.6476 20.7129C26.6235 20.6967 26.5912 20.6408 26.5257 20.4263C26.4602 20.2117 26.2493 18.7068 26.2718 18.5176C26.2943 18.3284 26.7584 17.3812 26.7975 17.2714C26.8366 17.1615 26.8599 17.075 26.9239 17.0841C26.9878 17.0932 27.0277 17.0861 27.0285 17.1888C27.0292 17.2915 27.0414 17.8447 27.0204 18.2393C26.9994 18.634 26.8838 20.2592 26.877 20.425C26.8716 20.5576 26.8227 20.6267 26.7988 20.6447C26.6559 20.7526 26.7281 20.8014 26.856 20.8196C26.984 20.8378 27.3278 20.8995 27.4715 20.8943C27.6152 20.8891 27.4226 20.7591 27.3345 20.7338C27.2465 20.7084 27.1984 20.6759 27.2059 20.6128C27.2134 20.5498 27.2479 19.8236 27.2531 19.4524C27.2583 19.0812 27.3889 17.3299 27.428 17.22C27.4671 17.1101 27.6349 17.1212 27.6988 17.1303C27.7628 17.1394 27.8899 17.0549 27.674 17.0113C27.5012 16.9765 27.1601 16.9938 27.0111 17.0068C26.9497 16.9766 26.7901 16.9189 26.6432 16.9288C26.4596 16.9411 26.4604 17.0438 26.5244 17.0529C26.5755 17.0602 26.6896 17.085 26.7403 17.0965C26.6225 17.3576 26.3678 17.9079 26.292 18.0203C26.1972 18.1607 26.1815 18.1841 26.1649 18.1048C26.1483 18.0255 26.0489 17.5496 26.0233 17.3279C25.9977 17.1062 26.0376 17.0991 26.0849 17.0289C26.188 16.9281 26.1241 16.919 26.0601 16.9099L26.0601 16.9099C25.9961 16.9008 25.6764 16.8553 25.5011 16.9073Z" fill="black"/>
<path fill-rule="evenodd" clip-rule="evenodd" d="M24.4165 30.2953C24.7965 29.3728 25.8737 29.1638 26.5246 29.6378C28.073 30.6829 26.6033 32.6034 25.5445 32.3742C24.4857 32.1449 24.0366 31.2177 24.4165 30.2953ZM26.4079 29.8371C25.8697 29.4452 24.9769 29.6278 24.6573 30.397C24.4981 30.7799 24.5088 31.1647 24.6702 31.4774C24.8316 31.7903 25.1423 32.0279 25.5768 32.1194C25.8 32.1664 26.0427 32.0987 26.2599 31.9611C26.4773 31.8233 26.6718 31.6139 26.7996 31.372C26.9274 31.1301 26.9893 30.854 26.9386 30.5837C26.8877 30.3128 26.7244 30.0509 26.4079 29.8371ZM26.3744 29.8839C25.8663 29.5134 25.0158 29.6839 24.7104 30.419C24.5569 30.7883 24.5686 31.1552 24.7212 31.4511C24.8738 31.7468 25.1689 31.9747 25.5886 32.0632C25.7926 32.1061 26.0201 32.045 26.2291 31.9126C26.4379 31.7803 26.6256 31.5784 26.7488 31.3451C26.872 31.112 26.9299 30.8491 26.8821 30.5943C26.8344 30.3401 26.6809 30.0908 26.3753 29.8845L26.3748 29.8842L26.3744 29.8839ZM25.073 30.5843C25.2757 30.1046 25.826 29.9809 26.1555 30.2213C26.3478 30.3513 26.4464 30.5131 26.4754 30.6819C26.5042 30.8502 26.4635 31.0224 26.3831 31.1733C26.3028 31.3243 26.1819 31.4557 26.0474 31.5431C25.9132 31.6303 25.7625 31.6754 25.6237 31.6477C25.358 31.5948 25.1685 31.4499 25.0716 31.2558C24.9749 31.062 24.9722 30.8228 25.073 30.5843ZM25.1259 30.6067C25.3153 30.1587 25.8243 30.0505 26.1221 30.2681L26.1225 30.2684L26.1229 30.2687C26.3038 30.3908 26.3926 30.5396 26.4187 30.6917C26.445 30.8445 26.4083 31.0037 26.3324 31.1463C26.2565 31.2889 26.1422 31.413 26.016 31.4949C25.8896 31.5771 25.7542 31.6151 25.6349 31.5914C25.3845 31.5415 25.2111 31.4064 25.1231 31.2301C25.0349 31.0536 25.0307 30.8321 25.1259 30.6067Z" fill="black"/>
<path d="M36.1375 13.9792C36.3787 14.2477 37.0065 14.8509 37.5876 15.1164" stroke="black" stroke-width="0.5"/>
<path d="M35.3703 14.4118C35.7449 14.7174 36.7192 15.4173 37.6203 15.7721" stroke="black" stroke-width="0.5"/>
<path d="M36.5454 6.33426C35.7794 7.84478 35.9434 9.72963 36.1211 10.4832L36.7441 9.79489C36.355 7.78979 37.1304 5.93702 38.6648 5.07182C40.1992 4.20662 41.5105 4.14129 43.0695 5.35193C44.3167 6.32044 44.9858 7.7542 45.0556 8.27657C44.7781 5.87154 44.0544 5.06625 42.0574 4.03518C40.0604 3.00412 37.5031 4.44612 36.5454 6.33426Z" fill="#8A6D21"/>
<path d="M40.4661 14.8417L41.5679 13.2093L41.6414 13.1004L40.9857 13.1331L39.7751 14.692L40.4661 14.8417Z" fill="#8A6D21"/>
<path d="M36.6626 8.91567C36.5835 10.4711 37.3745 11.2685 37.7798 11.4727C38.1082 12.1335 39.8274 13.6436 41.7084 13.0495C44.088 12.2979 45.2957 10.2005 45.0205 8.14249C44.7453 6.08443 42.1435 3.87755 39.8038 4.6214C37.464 5.36525 36.7614 6.97134 36.6626 8.91567Z" stroke="black" stroke-width="0.5"/>
<path d="M19.9541 16.1333C26.8003 13.8333 32.307 16.3044 34.3647 17.6933C39.9136 22.269 40.8655 24.7802 41.1648 32.1799C41.4641 39.5796 34.5581 46.1993 26.1992 46.5093C17.221 45.3632 11.6092 40.468 10.2869 33.1392C8.96459 25.8103 13.1079 18.4332 19.9541 16.1333Z" stroke="black" stroke-width="0.5"/>
<path d="M26.0469 12.1606C30.2934 12.1876 34.6956 14.501 35.8473 15.2091C44.7737 22.4806 44.6634 28.5002 43.7037 35.47C42.744 42.4399 34.8697 49.1747 26.5827 49.3291C18.2957 49.4835 10.4712 43.302 8.28845 36.9812C6.10567 30.6603 7.3415 22.665 12.0421 18.0124C16.7427 13.3597 21.8004 12.1336 26.0469 12.1606Z" stroke="black" stroke-width="0.5"/>
<path d="M35.3661 5.64827C33.5368 9.12905 35.8236 12.0595 37.179 13.3904C40.7759 15.8182 43.8303 15.5567 46.0812 12.2218C48.3321 8.88688 46.7587 5.2591 44.2337 3.55483C41.7087 1.85056 37.1954 2.16749 35.3661 5.64827Z" stroke="black" stroke-width="0.5"/>
<path d="M36.7525 9.80851L35.1224 11.9628C35.0353 12.7177 37.3 14.317 38.0177 14.7661C38.7355 15.2151 39.2856 15.3388 39.4246 15.185C39.5358 15.062 40.503 13.7785 40.9727 13.1522C40.7739 12.6643 40.1219 11.5026 39.1034 10.7585C38.0849 10.0145 37.1118 9.81516 36.7525 9.80851Z" fill="#E6B537" stroke="black" stroke-width="0.5"/>
<path d="M37.3046 13.6582C36.2316 12.8072 35.6513 11.9615 35.4953 11.645L35.0927 12.0068C35.1254 12.6625 36.3225 13.4705 37.1196 14.167C37.9168 14.8634 38.7167 15.0865 39.1166 15.198C39.4365 15.2873 39.5909 15.0429 39.6281 14.9096C39.3007 14.8471 38.3776 14.5092 37.3046 13.6582Z" fill="#8A6D21"/>
<path d="M36.7525 9.80851L35.1224 11.9628C35.0353 12.7177 37.3 14.317 38.0177 14.7661C38.7355 15.2151 39.2856 15.3388 39.4246 15.185C39.5358 15.062 40.503 13.7785 40.9727 13.1522C40.7739 12.6643 40.1219 11.5026 39.1034 10.7585C38.0849 10.0145 37.1118 9.81516 36.7525 9.80851Z" stroke="black" stroke-width="0.5"/>
<path d="M18.9646 9.0404L13.5591 7.01206L14.5053 12.7075L18.9646 9.0404ZM4.89043 40.2784C0.963463 33.8971 -0.179017 24.8239 4.86989 17.8332L4.05921 17.2477C-1.29189 24.6569 -0.0343854 34.1837 4.03877 40.8025L4.89043 40.2784ZM4.86989 17.8332C7.95976 13.5549 11.7399 11.2929 14.6925 10.2492L14.3593 9.30636C11.2365 10.4102 7.28094 12.7868 4.05921 17.2477L4.86989 17.8332Z" fill="black"/>
</svg>
