<svg width="592" height="162" viewBox="0 0 592 162" fill="none" xmlns="http://www.w3.org/2000/svg">
<path d="M0 0H185V71H0V0Z" fill="#A6E2FF"/>
<path fill-rule="evenodd" clip-rule="evenodd" d="M184 1H1V70H184V1ZM0 0V71H185V0H0Z" fill="black"/>
<path d="M0 91H185V162H0V91Z" fill="#FF6703"/>
<path fill-rule="evenodd" clip-rule="evenodd" d="M184 92H1V161H184V92ZM0 91V162H185V91H0Z" fill="black"/>
<path d="M407 91H592V162H407V91Z" fill="black"/>
<path fill-rule="evenodd" clip-rule="evenodd" d="M591 92H408V161H591V92ZM407 91V162H592V91H407Z" fill="black"/>
<path d="M204 91H389V162H204V91Z" fill="#FFFDBD"/>
<path fill-rule="evenodd" clip-rule="evenodd" d="M388 92H205V161H388V92ZM204 91V162H389V91H204Z" fill="black"/>
<path d="M407 0H592V71H407V0Z" fill="white"/>
<path fill-rule="evenodd" clip-rule="evenodd" d="M591 1H408V70H591V1ZM407 0V71H592V0H407Z" fill="black"/>
<path d="M50.6174 44.9998L51.2154 39.8708H49.2144V38.0768H51.4454L51.8824 34.5578H49.7434V32.7868H52.0894L52.6644 28.1868H54.2974L53.7224 32.7868H56.9194L57.5174 28.1868H59.1504L58.5754 32.7868H60.6454V34.5578H58.3684L57.9314 38.0768H60.1394V39.8708H57.7014L57.1034 44.9998H55.4474L56.0454 39.8708H52.8714L52.2504 44.9998H50.6174ZM53.0784 38.0768H56.2754L56.7124 34.5578H53.5154L53.0784 38.0768Z" fill="black"/>
<path d="M60.7445 44.9998L66.3335 28.0718H69.4385L75.0275 44.9998H72.1985L69.4845 35.8228C68.9095 33.9828 68.4035 32.0738 67.8745 30.1878H67.7825C67.2765 32.0968 66.7705 33.9828 66.1955 35.8228L63.4585 44.9998H60.7445ZM63.8955 40.1928V38.0998H71.8075V40.1928H63.8955Z" fill="black"/>
<path d="M81.4002 45.3218C78.1572 45.3218 75.5352 42.7688 75.5352 37.3178C75.5352 30.8318 78.5942 28.2328 81.9292 28.2328C83.8382 28.2328 85.2182 29.0378 86.1842 30.0268L84.7352 31.6598C84.1142 30.9238 83.0792 30.4178 82.0672 30.4178C79.8592 30.4178 78.0192 32.1428 78.0192 37.3178C78.0192 41.3888 79.3072 43.2748 81.3542 43.2748C82.8492 43.2748 83.9992 42.0328 83.9992 39.9628C83.9992 37.9388 83.0102 36.8118 81.2162 36.8118C80.2042 36.8118 79.0082 37.3868 77.9732 38.9738L77.8812 37.0188C78.8702 35.6848 80.4112 34.8798 81.6762 34.8798C84.5282 34.8798 86.4602 36.5588 86.4602 39.9628C86.4602 43.2058 84.1372 45.3218 81.4002 45.3218Z" fill="black"/>
<path d="M88.9973 44.9998V28.0718H99.0253V30.3258H91.6884V35.0178H97.8754V37.2948H91.6884V42.7458H99.2784V44.9998H88.9973Z" fill="black"/>
<path d="M100.879 44.9998V43.4588C105.594 38.8358 108.446 35.9148 108.446 33.3158C108.446 31.5218 107.48 30.3488 105.594 30.3488C104.26 30.3488 103.156 31.1998 102.259 32.2118L100.741 30.7398C102.213 29.1758 103.708 28.2328 105.916 28.2328C109.021 28.2328 111.022 30.1878 111.022 33.2008C111.022 36.1908 108.262 39.2268 104.743 42.9298C105.617 42.8378 106.675 42.7458 107.526 42.7458H111.827V44.9998H100.879Z" fill="black"/>
<path d="M114.526 44.9998V28.0718H124.577V30.3258H117.217V35.4778H123.473V37.7318H117.217V44.9998H114.526Z" fill="black"/>
<path d="M126.863 44.9998V28.0718H136.914V30.3258H129.554V35.4778H135.81V37.7318H129.554V44.9998H126.863Z" fill="black"/>
<path d="M51.5495 136L52.1475 130.871H50.1465V129.077H52.3775L52.8145 125.558H50.6755V123.787H53.0215L53.5965 119.187H55.2295L54.6545 123.787H57.8515L58.4495 119.187H60.0825L59.5075 123.787H61.5775V125.558H59.3005L58.8635 129.077H61.0715V130.871H58.6335L58.0355 136H56.3795L56.9775 130.871H53.8035L53.1825 136H51.5495ZM54.0105 129.077H57.2075L57.6445 125.558H54.4475L54.0105 129.077Z" fill="black"/>
<path d="M63.8847 136V119.072H73.9357V121.326H66.5757V126.478H72.8317V128.732H66.5757V136H63.8847Z" fill="black"/>
<path d="M76.222 136V119.072H86.273V121.326H78.913V126.478H85.169V128.732H78.913V136H76.222Z" fill="black"/>
<path d="M93.3894 136.322C90.1464 136.322 87.5244 133.769 87.5244 128.318C87.5244 121.832 90.5834 119.233 93.9184 119.233C95.8274 119.233 97.2074 120.038 98.1734 121.027L96.7244 122.66C96.1034 121.924 95.0684 121.418 94.0564 121.418C91.8484 121.418 90.0084 123.143 90.0084 128.318C90.0084 132.389 91.2964 134.275 93.3434 134.275C94.8384 134.275 95.9884 133.033 95.9884 130.963C95.9884 128.939 94.9994 127.812 93.2054 127.812C92.1934 127.812 90.9974 128.387 89.9624 129.974L89.8704 128.019C90.8594 126.685 92.4004 125.88 93.6654 125.88C96.5174 125.88 98.4494 127.559 98.4494 130.963C98.4494 134.206 96.1264 136.322 93.3894 136.322Z" fill="black"/>
<path d="M103.195 136C103.494 130.043 104.667 126.248 107.864 121.786H99.9055V119.532H110.785V121.165C106.921 126.018 106.208 129.583 105.909 136H103.195Z" fill="black"/>
<path d="M117.761 136.322C114.38 136.322 112.287 133.263 112.287 127.72C112.287 122.154 114.38 119.233 117.761 119.233C121.119 119.233 123.235 122.177 123.235 127.72C123.235 133.263 121.119 136.322 117.761 136.322ZM117.761 134.206C119.486 134.206 120.682 132.435 120.682 127.72C120.682 122.982 119.486 121.326 117.761 121.326C116.036 121.326 114.817 122.982 114.817 127.72C114.817 132.435 116.036 134.206 117.761 134.206Z" fill="black"/>
<path d="M129.774 136.322C127.129 136.322 125.404 135.264 124.254 133.976L125.565 132.274C126.554 133.286 127.796 134.137 129.567 134.137C131.453 134.137 132.764 133.125 132.764 131.446C132.764 129.652 131.568 128.479 127.773 128.479V126.501C131.085 126.501 132.189 125.282 132.189 123.695C132.189 122.246 131.223 121.349 129.59 121.349C128.302 121.349 127.198 121.993 126.232 122.959L124.829 121.303C126.186 120.084 127.75 119.233 129.705 119.233C132.741 119.233 134.88 120.774 134.88 123.511C134.88 125.397 133.753 126.662 131.959 127.352V127.444C133.914 127.95 135.455 129.376 135.455 131.584C135.455 134.574 132.902 136.322 129.774 136.322Z" fill="black"/>
<path d="M458.46 136L459.058 130.871H457.057V129.077H459.288L459.725 125.558H457.586V123.787H459.932L460.507 119.187H462.14L461.565 123.787H464.762L465.36 119.187H466.993L466.418 123.787H468.488V125.558H466.211L465.774 129.077H467.982V130.871H465.544L464.946 136H463.29L463.888 130.871H460.714L460.093 136H458.46ZM460.921 129.077H464.118L464.555 125.558H461.358L460.921 129.077Z" fill="white"/>
<path d="M475.142 136.322C471.807 136.322 469.668 133.355 469.668 127.467C469.668 121.625 471.807 118.773 475.142 118.773C478.454 118.773 480.616 121.625 480.616 127.467C480.616 133.355 478.454 136.322 475.142 136.322ZM475.142 134.206C476.867 134.206 478.063 132.366 478.063 127.467C478.063 122.637 476.867 120.843 475.142 120.843C473.417 120.843 472.198 122.637 472.198 127.467C472.198 132.366 473.417 134.206 475.142 134.206Z" fill="white"/>
<path d="M487.569 136.322C484.234 136.322 482.095 133.355 482.095 127.467C482.095 121.625 484.234 118.773 487.569 118.773C490.881 118.773 493.043 121.625 493.043 127.467C493.043 133.355 490.881 136.322 487.569 136.322ZM487.569 134.206C489.294 134.206 490.49 132.366 490.49 127.467C490.49 122.637 489.294 120.843 487.569 120.843C485.844 120.843 484.625 122.637 484.625 127.467C484.625 132.366 485.844 134.206 487.569 134.206Z" fill="white"/>
<path d="M499.996 136.322C496.661 136.322 494.522 133.355 494.522 127.467C494.522 121.625 496.661 118.773 499.996 118.773C503.308 118.773 505.47 121.625 505.47 127.467C505.47 133.355 503.308 136.322 499.996 136.322ZM499.996 134.206C501.721 134.206 502.917 132.366 502.917 127.467C502.917 122.637 501.721 120.843 499.996 120.843C498.271 120.843 497.052 122.637 497.052 127.467C497.052 132.366 498.271 134.206 499.996 134.206Z" fill="white"/>
<path d="M512.423 136.322C509.088 136.322 506.949 133.355 506.949 127.467C506.949 121.625 509.088 118.773 512.423 118.773C515.735 118.773 517.897 121.625 517.897 127.467C517.897 133.355 515.735 136.322 512.423 136.322ZM512.423 134.206C514.148 134.206 515.344 132.366 515.344 127.467C515.344 122.637 514.148 120.843 512.423 120.843C510.698 120.843 509.479 122.637 509.479 127.467C509.479 132.366 510.698 134.206 512.423 134.206Z" fill="white"/>
<path d="M524.851 136.322C521.516 136.322 519.377 133.355 519.377 127.467C519.377 121.625 521.516 118.773 524.851 118.773C528.163 118.773 530.325 121.625 530.325 127.467C530.325 133.355 528.163 136.322 524.851 136.322ZM524.851 134.206C526.576 134.206 527.772 132.366 527.772 127.467C527.772 122.637 526.576 120.843 524.851 120.843C523.126 120.843 521.907 122.637 521.907 127.467C521.907 132.366 523.126 134.206 524.851 134.206Z" fill="white"/>
<path d="M537.278 136.322C533.943 136.322 531.804 133.355 531.804 127.467C531.804 121.625 533.943 118.773 537.278 118.773C540.59 118.773 542.752 121.625 542.752 127.467C542.752 133.355 540.59 136.322 537.278 136.322ZM537.278 134.206C539.003 134.206 540.199 132.366 540.199 127.467C540.199 122.637 539.003 120.843 537.278 120.843C535.553 120.843 534.334 122.637 534.334 127.467C534.334 132.366 535.553 134.206 537.278 134.206Z" fill="white"/>
<path d="M251.518 136L252.116 130.871H250.115V129.077H252.346L252.783 125.558H250.644V123.787H252.99L253.565 119.187H255.198L254.623 123.787H257.82L258.418 119.187H260.051L259.476 123.787H261.546V125.558H259.269L258.832 129.077H261.04V130.871H258.602L258.004 136H256.348L256.946 130.871H253.772L253.151 136H251.518ZM253.979 129.077H257.176L257.613 125.558H254.416L253.979 129.077Z" fill="black"/>
<path d="M263.853 136V119.072H273.904V121.326H266.544V126.478H272.8V128.732H266.544V136H263.853Z" fill="black"/>
<path d="M276.19 136V119.072H286.241V121.326H278.881V126.478H285.137V128.732H278.881V136H276.19Z" fill="black"/>
<path d="M288.528 136V119.072H298.579V121.326H291.219V126.478H297.475V128.732H291.219V136H288.528Z" fill="black"/>
<path d="M300.865 136V119.072H305.281C310.479 119.072 313.423 121.947 313.423 127.467C313.423 132.987 310.479 136 305.419 136H300.865ZM303.556 133.815H305.074C308.708 133.815 310.686 131.676 310.686 127.467C310.686 123.258 308.708 121.234 305.074 121.234H303.556V133.815Z" fill="black"/>
<path d="M316.257 136V119.072H321.524C324.974 119.072 327.481 120.176 327.481 123.235C327.481 124.868 326.607 126.386 325.089 126.915V127.007C327.021 127.421 328.401 128.755 328.401 131.032C328.401 134.39 325.687 136 321.938 136H316.257ZM318.948 126.133H321.225C323.801 126.133 324.859 125.167 324.859 123.603C324.859 121.832 323.663 121.165 321.294 121.165H318.948V126.133ZM318.948 133.907H321.639C324.261 133.907 325.779 132.964 325.779 130.917C325.779 129.008 324.33 128.157 321.639 128.157H318.948V133.907Z" fill="black"/>
<path d="M330.908 136V119.072H335.324C340.522 119.072 343.466 121.947 343.466 127.467C343.466 132.987 340.522 136 335.462 136H330.908ZM333.599 133.815H335.117C338.751 133.815 340.729 131.676 340.729 127.467C340.729 123.258 338.751 121.234 335.117 121.234H333.599V133.815Z" fill="black"/>
<path d="M458.729 44.9998L459.327 39.8708H457.326V38.0768H459.557L459.994 34.5578H457.855V32.7868H460.201L460.776 28.1868H462.409L461.834 32.7868H465.031L465.629 28.1868H467.262L466.687 32.7868H468.757V34.5578H466.48L466.043 38.0768H468.251V39.8708H465.813L465.215 44.9998H463.559L464.157 39.8708H460.983L460.362 44.9998H458.729ZM461.19 38.0768H464.387L464.824 34.5578H461.627L461.19 38.0768Z" fill="black"/>
<path d="M471.064 44.9998V28.0718H481.115V30.3258H473.755V35.4778H480.011V37.7318H473.755V44.9998H471.064Z" fill="black"/>
<path d="M483.402 44.9998V28.0718H493.453V30.3258H486.093V35.4778H492.349V37.7318H486.093V44.9998H483.402Z" fill="black"/>
<path d="M495.739 44.9998V28.0718H505.79V30.3258H498.43V35.4778H504.686V37.7318H498.43V44.9998H495.739Z" fill="black"/>
<path d="M508.076 44.9998V28.0718H518.127V30.3258H510.767V35.4778H517.023V37.7318H510.767V44.9998H508.076Z" fill="black"/>
<path d="M520.414 44.9998V28.0718H530.465V30.3258H523.105V35.4778H529.361V37.7318H523.105V44.9998H520.414Z" fill="black"/>
<path d="M532.751 44.9998V28.0718H542.802V30.3258H535.442V35.4778H541.698V37.7318H535.442V44.9998H532.751Z" fill="black"/>
<path d="M203 1H388V72H203V1Z" fill="#3499CE"/>
<path fill-rule="evenodd" clip-rule="evenodd" d="M387 2H204V71H387V2ZM203 1V72H388V1H203Z" fill="black"/>
<path d="M253.747 46L254.345 40.8709H252.344V39.0769H254.575L255.012 35.5579H252.873V33.7869H255.219L255.794 29.1869H257.427L256.852 33.7869H260.049L260.647 29.1869H262.28L261.705 33.7869H263.775V35.5579H261.498L261.061 39.0769H263.269V40.8709H260.831L260.233 46H258.577L259.175 40.8709H256.001L255.38 46H253.747ZM256.208 39.0769H259.405L259.842 35.5579H256.645L256.208 39.0769Z" fill="black"/>
<path d="M270.015 46.3219C267.37 46.3219 265.645 45.2639 264.495 43.9759L265.806 42.2739C266.795 43.2859 268.037 44.1369 269.808 44.1369C271.694 44.1369 273.005 43.1249 273.005 41.4459C273.005 39.6519 271.809 38.4789 268.014 38.4789V36.5009C271.326 36.5009 272.43 35.2819 272.43 33.6949C272.43 32.2459 271.464 31.3489 269.831 31.3489C268.543 31.3489 267.439 31.9929 266.473 32.9589L265.07 31.3029C266.427 30.0839 267.991 29.2329 269.946 29.2329C272.982 29.2329 275.121 30.7739 275.121 33.5109C275.121 35.3969 273.994 36.6619 272.2 37.3519V37.4439C274.155 37.9499 275.696 39.3759 275.696 41.5839C275.696 44.5739 273.143 46.3219 270.015 46.3219Z" fill="black"/>
<path d="M284.075 46V35.4429C284.075 34.5229 284.144 33.0279 284.213 32.1079H284.098C283.684 32.9359 283.224 33.7179 282.741 34.5919L279.429 39.5829H288.721V41.6529H276.761V39.8589L283.477 29.5319H286.559V46H284.075Z" fill="black"/>
<path d="M294.225 46.3219C292.316 46.3219 290.913 45.5169 289.993 44.5049L291.419 42.8719C292.063 43.6309 293.098 44.1369 294.087 44.1369C296.318 44.1369 298.158 42.4119 298.158 37.2369C298.158 33.1429 296.847 31.2569 294.777 31.2569C293.305 31.2569 292.155 32.4989 292.155 34.5919C292.155 36.6159 293.144 37.7429 294.938 37.7429C295.95 37.7429 297.169 37.1449 298.158 35.5809L298.296 37.5129C297.284 38.8469 295.743 39.6749 294.455 39.6749C291.603 39.6749 289.694 37.9959 289.694 34.5919C289.694 31.3489 291.994 29.2329 294.754 29.2329C297.997 29.2329 300.619 31.7859 300.619 37.2369C300.619 43.6999 297.56 46.3219 294.225 46.3219Z" fill="black"/>
<path d="M306.653 46.3219C304.744 46.3219 303.341 45.5169 302.421 44.5049L303.847 42.8719C304.491 43.6309 305.526 44.1369 306.515 44.1369C308.746 44.1369 310.586 42.4119 310.586 37.2369C310.586 33.1429 309.275 31.2569 307.205 31.2569C305.733 31.2569 304.583 32.4989 304.583 34.5919C304.583 36.6159 305.572 37.7429 307.366 37.7429C308.378 37.7429 309.597 37.1449 310.586 35.5809L310.724 37.5129C309.712 38.8469 308.171 39.6749 306.883 39.6749C304.031 39.6749 302.122 37.9959 302.122 34.5919C302.122 31.3489 304.422 29.2329 307.182 29.2329C310.425 29.2329 313.047 31.7859 313.047 37.2369C313.047 43.6999 309.988 46.3219 306.653 46.3219Z" fill="black"/>
<path d="M322.392 46.3219C318.16 46.3219 314.871 43.1479 314.871 37.5819C314.871 32.0619 318.252 28.7729 322.53 28.7729C324.646 28.7729 326.279 29.7849 327.314 30.8889L325.888 32.6139C325.014 31.7169 323.956 31.0959 322.576 31.0959C319.655 31.0959 317.631 33.5339 317.631 37.4899C317.631 41.5149 319.517 43.9759 322.507 43.9759C324.048 43.9759 325.244 43.2859 326.233 42.1819L327.682 43.8609C326.325 45.4479 324.6 46.3219 322.392 46.3219Z" fill="black"/>
<path d="M329.97 46V29.0719H339.998V31.3259H332.661V36.0179H338.848V38.2949H332.661V43.7459H340.251V46H329.97Z" fill="black"/>
</svg>
